G04 #@! TF.GenerationSoftware,KiCad,Pcbnew,(5.1.9)-1*
G04 #@! TF.CreationDate,2021-04-20T16:59:57+02:00*
G04 #@! TF.ProjectId,POE_hat_and_USB,504f455f-6861-4745-9f61-6e645f555342,1.0*
G04 #@! TF.SameCoordinates,Original*
G04 #@! TF.FileFunction,Soldermask,Top*
G04 #@! TF.FilePolarity,Negative*
%FSLAX46Y46*%
G04 Gerber Fmt 4.6, Leading zero omitted, Abs format (unit mm)*
G04 Created by KiCad (PCBNEW (5.1.9)-1) date 2021-04-20 16:59:57*
%MOMM*%
%LPD*%
G01*
G04 APERTURE LIST*
%ADD10O,1.802000X1.802000*%
%ADD11C,2.802000*%
%ADD12O,1.302000X1.702000*%
%ADD13O,1.302000X1.302000*%
%ADD14C,1.602000*%
%ADD15C,3.352000*%
%ADD16C,2.402000*%
%ADD17C,3.102000*%
%ADD18C,1.702000*%
%ADD19O,1.302000X2.002000*%
%ADD20C,1.552000*%
%ADD21C,0.100000*%
G04 APERTURE END LIST*
G36*
G01*
X102282000Y-92681000D02*
X104082000Y-92681000D01*
G75*
G02*
X104133000Y-92732000I0J-51000D01*
G01*
X104133000Y-94832000D01*
G75*
G02*
X104082000Y-94883000I-51000J0D01*
G01*
X102282000Y-94883000D01*
G75*
G02*
X102231000Y-94832000I0J51000D01*
G01*
X102231000Y-92732000D01*
G75*
G02*
X102282000Y-92681000I51000J0D01*
G01*
G37*
G36*
G01*
X102282000Y-95581000D02*
X104082000Y-95581000D01*
G75*
G02*
X104133000Y-95632000I0J-51000D01*
G01*
X104133000Y-97732000D01*
G75*
G02*
X104082000Y-97783000I-51000J0D01*
G01*
X102282000Y-97783000D01*
G75*
G02*
X102231000Y-97732000I0J51000D01*
G01*
X102231000Y-95632000D01*
G75*
G02*
X102282000Y-95581000I51000J0D01*
G01*
G37*
G36*
G01*
X104582000Y-95581000D02*
X106382000Y-95581000D01*
G75*
G02*
X106433000Y-95632000I0J-51000D01*
G01*
X106433000Y-97732000D01*
G75*
G02*
X106382000Y-97783000I-51000J0D01*
G01*
X104582000Y-97783000D01*
G75*
G02*
X104531000Y-97732000I0J51000D01*
G01*
X104531000Y-95632000D01*
G75*
G02*
X104582000Y-95581000I51000J0D01*
G01*
G37*
G36*
G01*
X104582000Y-92681000D02*
X106382000Y-92681000D01*
G75*
G02*
X106433000Y-92732000I0J-51000D01*
G01*
X106433000Y-94832000D01*
G75*
G02*
X106382000Y-94883000I-51000J0D01*
G01*
X104582000Y-94883000D01*
G75*
G02*
X104531000Y-94832000I0J51000D01*
G01*
X104531000Y-92732000D01*
G75*
G02*
X104582000Y-92681000I51000J0D01*
G01*
G37*
G36*
G01*
X111701000Y-110133000D02*
X111701000Y-110893000D01*
G75*
G02*
X111650000Y-110944000I-51000J0D01*
G01*
X109950000Y-110944000D01*
G75*
G02*
X109899000Y-110893000I0J51000D01*
G01*
X109899000Y-110133000D01*
G75*
G02*
X109950000Y-110082000I51000J0D01*
G01*
X111650000Y-110082000D01*
G75*
G02*
X111701000Y-110133000I0J-51000D01*
G01*
G37*
G36*
G01*
X111701000Y-108863000D02*
X111701000Y-109623000D01*
G75*
G02*
X111650000Y-109674000I-51000J0D01*
G01*
X109950000Y-109674000D01*
G75*
G02*
X109899000Y-109623000I0J51000D01*
G01*
X109899000Y-108863000D01*
G75*
G02*
X109950000Y-108812000I51000J0D01*
G01*
X111650000Y-108812000D01*
G75*
G02*
X111701000Y-108863000I0J-51000D01*
G01*
G37*
G36*
G01*
X111701000Y-107593000D02*
X111701000Y-108353000D01*
G75*
G02*
X111650000Y-108404000I-51000J0D01*
G01*
X109950000Y-108404000D01*
G75*
G02*
X109899000Y-108353000I0J51000D01*
G01*
X109899000Y-107593000D01*
G75*
G02*
X109950000Y-107542000I51000J0D01*
G01*
X111650000Y-107542000D01*
G75*
G02*
X111701000Y-107593000I0J-51000D01*
G01*
G37*
G36*
G01*
X111701000Y-106323000D02*
X111701000Y-107083000D01*
G75*
G02*
X111650000Y-107134000I-51000J0D01*
G01*
X109950000Y-107134000D01*
G75*
G02*
X109899000Y-107083000I0J51000D01*
G01*
X109899000Y-106323000D01*
G75*
G02*
X109950000Y-106272000I51000J0D01*
G01*
X111650000Y-106272000D01*
G75*
G02*
X111701000Y-106323000I0J-51000D01*
G01*
G37*
G36*
G01*
X111701000Y-102513000D02*
X111701000Y-103273000D01*
G75*
G02*
X111650000Y-103324000I-51000J0D01*
G01*
X109950000Y-103324000D01*
G75*
G02*
X109899000Y-103273000I0J51000D01*
G01*
X109899000Y-102513000D01*
G75*
G02*
X109950000Y-102462000I51000J0D01*
G01*
X111650000Y-102462000D01*
G75*
G02*
X111701000Y-102513000I0J-51000D01*
G01*
G37*
G36*
G01*
X111701000Y-105053000D02*
X111701000Y-105813000D01*
G75*
G02*
X111650000Y-105864000I-51000J0D01*
G01*
X109950000Y-105864000D01*
G75*
G02*
X109899000Y-105813000I0J51000D01*
G01*
X109899000Y-105053000D01*
G75*
G02*
X109950000Y-105002000I51000J0D01*
G01*
X111650000Y-105002000D01*
G75*
G02*
X111701000Y-105053000I0J-51000D01*
G01*
G37*
G36*
G01*
X111701000Y-103783000D02*
X111701000Y-104543000D01*
G75*
G02*
X111650000Y-104594000I-51000J0D01*
G01*
X109950000Y-104594000D01*
G75*
G02*
X109899000Y-104543000I0J51000D01*
G01*
X109899000Y-103783000D01*
G75*
G02*
X109950000Y-103732000I51000J0D01*
G01*
X111650000Y-103732000D01*
G75*
G02*
X111701000Y-103783000I0J-51000D01*
G01*
G37*
G36*
G01*
X111701000Y-101243000D02*
X111701000Y-102003000D01*
G75*
G02*
X111650000Y-102054000I-51000J0D01*
G01*
X109950000Y-102054000D01*
G75*
G02*
X109899000Y-102003000I0J51000D01*
G01*
X109899000Y-101243000D01*
G75*
G02*
X109950000Y-101192000I51000J0D01*
G01*
X111650000Y-101192000D01*
G75*
G02*
X111701000Y-101243000I0J-51000D01*
G01*
G37*
G36*
G01*
X102901000Y-107593000D02*
X102901000Y-108353000D01*
G75*
G02*
X102850000Y-108404000I-51000J0D01*
G01*
X101150000Y-108404000D01*
G75*
G02*
X101099000Y-108353000I0J51000D01*
G01*
X101099000Y-107593000D01*
G75*
G02*
X101150000Y-107542000I51000J0D01*
G01*
X102850000Y-107542000D01*
G75*
G02*
X102901000Y-107593000I0J-51000D01*
G01*
G37*
G36*
G01*
X102901000Y-103783000D02*
X102901000Y-104543000D01*
G75*
G02*
X102850000Y-104594000I-51000J0D01*
G01*
X101150000Y-104594000D01*
G75*
G02*
X101099000Y-104543000I0J51000D01*
G01*
X101099000Y-103783000D01*
G75*
G02*
X101150000Y-103732000I51000J0D01*
G01*
X102850000Y-103732000D01*
G75*
G02*
X102901000Y-103783000I0J-51000D01*
G01*
G37*
G36*
G01*
X102901000Y-101243000D02*
X102901000Y-102003000D01*
G75*
G02*
X102850000Y-102054000I-51000J0D01*
G01*
X101150000Y-102054000D01*
G75*
G02*
X101099000Y-102003000I0J51000D01*
G01*
X101099000Y-101243000D01*
G75*
G02*
X101150000Y-101192000I51000J0D01*
G01*
X102850000Y-101192000D01*
G75*
G02*
X102901000Y-101243000I0J-51000D01*
G01*
G37*
G36*
G01*
X102901000Y-108863000D02*
X102901000Y-109623000D01*
G75*
G02*
X102850000Y-109674000I-51000J0D01*
G01*
X101150000Y-109674000D01*
G75*
G02*
X101099000Y-109623000I0J51000D01*
G01*
X101099000Y-108863000D01*
G75*
G02*
X101150000Y-108812000I51000J0D01*
G01*
X102850000Y-108812000D01*
G75*
G02*
X102901000Y-108863000I0J-51000D01*
G01*
G37*
G36*
G01*
X102901000Y-102513000D02*
X102901000Y-103273000D01*
G75*
G02*
X102850000Y-103324000I-51000J0D01*
G01*
X101150000Y-103324000D01*
G75*
G02*
X101099000Y-103273000I0J51000D01*
G01*
X101099000Y-102513000D01*
G75*
G02*
X101150000Y-102462000I51000J0D01*
G01*
X102850000Y-102462000D01*
G75*
G02*
X102901000Y-102513000I0J-51000D01*
G01*
G37*
G36*
G01*
X102901000Y-106323000D02*
X102901000Y-107083000D01*
G75*
G02*
X102850000Y-107134000I-51000J0D01*
G01*
X101150000Y-107134000D01*
G75*
G02*
X101099000Y-107083000I0J51000D01*
G01*
X101099000Y-106323000D01*
G75*
G02*
X101150000Y-106272000I51000J0D01*
G01*
X102850000Y-106272000D01*
G75*
G02*
X102901000Y-106323000I0J-51000D01*
G01*
G37*
G36*
G01*
X102901000Y-110133000D02*
X102901000Y-110893000D01*
G75*
G02*
X102850000Y-110944000I-51000J0D01*
G01*
X101150000Y-110944000D01*
G75*
G02*
X101099000Y-110893000I0J51000D01*
G01*
X101099000Y-110133000D01*
G75*
G02*
X101150000Y-110082000I51000J0D01*
G01*
X102850000Y-110082000D01*
G75*
G02*
X102901000Y-110133000I0J-51000D01*
G01*
G37*
G36*
G01*
X102901000Y-105053000D02*
X102901000Y-105813000D01*
G75*
G02*
X102850000Y-105864000I-51000J0D01*
G01*
X101150000Y-105864000D01*
G75*
G02*
X101099000Y-105813000I0J51000D01*
G01*
X101099000Y-105053000D01*
G75*
G02*
X101150000Y-105002000I51000J0D01*
G01*
X102850000Y-105002000D01*
G75*
G02*
X102901000Y-105053000I0J-51000D01*
G01*
G37*
G36*
G01*
X143921500Y-116569000D02*
X144342500Y-116569000D01*
G75*
G02*
X144503000Y-116729500I0J-160500D01*
G01*
X144503000Y-117050500D01*
G75*
G02*
X144342500Y-117211000I-160500J0D01*
G01*
X143921500Y-117211000D01*
G75*
G02*
X143761000Y-117050500I0J160500D01*
G01*
X143761000Y-116729500D01*
G75*
G02*
X143921500Y-116569000I160500J0D01*
G01*
G37*
G36*
G01*
X143921500Y-117589000D02*
X144342500Y-117589000D01*
G75*
G02*
X144503000Y-117749500I0J-160500D01*
G01*
X144503000Y-118070500D01*
G75*
G02*
X144342500Y-118231000I-160500J0D01*
G01*
X143921500Y-118231000D01*
G75*
G02*
X143761000Y-118070500I0J160500D01*
G01*
X143761000Y-117749500D01*
G75*
G02*
X143921500Y-117589000I160500J0D01*
G01*
G37*
G36*
G01*
X125052000Y-94937000D02*
X126752000Y-94937000D01*
G75*
G02*
X126803000Y-94988000I0J-51000D01*
G01*
X126803000Y-96688000D01*
G75*
G02*
X126752000Y-96739000I-51000J0D01*
G01*
X125052000Y-96739000D01*
G75*
G02*
X125001000Y-96688000I0J51000D01*
G01*
X125001000Y-94988000D01*
G75*
G02*
X125052000Y-94937000I51000J0D01*
G01*
G37*
D10*
X125902000Y-93298000D03*
X128442000Y-95838000D03*
X128442000Y-93298000D03*
X130982000Y-95838000D03*
X130982000Y-93298000D03*
X133522000Y-95838000D03*
X133522000Y-93298000D03*
X136062000Y-95838000D03*
X136062000Y-93298000D03*
X138602000Y-95838000D03*
X138602000Y-93298000D03*
X141142000Y-95838000D03*
X141142000Y-93298000D03*
X143682000Y-95838000D03*
X143682000Y-93298000D03*
X146222000Y-95838000D03*
X146222000Y-93298000D03*
X148762000Y-95838000D03*
X148762000Y-93298000D03*
X151302000Y-95838000D03*
X151302000Y-93298000D03*
X153842000Y-95838000D03*
X153842000Y-93298000D03*
X156382000Y-95838000D03*
X156382000Y-93298000D03*
X158922000Y-95838000D03*
X158922000Y-93298000D03*
X161462000Y-95838000D03*
X161462000Y-93298000D03*
X164002000Y-95838000D03*
X164002000Y-93298000D03*
X166542000Y-95838000D03*
X166542000Y-93298000D03*
X169082000Y-95838000D03*
X169082000Y-93298000D03*
X171622000Y-95838000D03*
X171622000Y-93298000D03*
X174162000Y-95838000D03*
X174162000Y-93298000D03*
D11*
X121032000Y-94568000D03*
X179032000Y-94568000D03*
X179032000Y-117568000D03*
X121032000Y-117568000D03*
G36*
G01*
X155732500Y-108269000D02*
X154731500Y-108269000D01*
G75*
G02*
X154456000Y-107993500I0J275500D01*
G01*
X154456000Y-107442500D01*
G75*
G02*
X154731500Y-107167000I275500J0D01*
G01*
X155732500Y-107167000D01*
G75*
G02*
X156008000Y-107442500I0J-275500D01*
G01*
X156008000Y-107993500D01*
G75*
G02*
X155732500Y-108269000I-275500J0D01*
G01*
G37*
G36*
G01*
X155732500Y-106369000D02*
X154731500Y-106369000D01*
G75*
G02*
X154456000Y-106093500I0J275500D01*
G01*
X154456000Y-105542500D01*
G75*
G02*
X154731500Y-105267000I275500J0D01*
G01*
X155732500Y-105267000D01*
G75*
G02*
X156008000Y-105542500I0J-275500D01*
G01*
X156008000Y-106093500D01*
G75*
G02*
X155732500Y-106369000I-275500J0D01*
G01*
G37*
G36*
G01*
X140987600Y-112508000D02*
X139676400Y-112508000D01*
G75*
G02*
X139406000Y-112237600I0J270400D01*
G01*
X139406000Y-111426400D01*
G75*
G02*
X139676400Y-111156000I270400J0D01*
G01*
X140987600Y-111156000D01*
G75*
G02*
X141258000Y-111426400I0J-270400D01*
G01*
X141258000Y-112237600D01*
G75*
G02*
X140987600Y-112508000I-270400J0D01*
G01*
G37*
G36*
G01*
X140987600Y-115308000D02*
X139676400Y-115308000D01*
G75*
G02*
X139406000Y-115037600I0J270400D01*
G01*
X139406000Y-114226400D01*
G75*
G02*
X139676400Y-113956000I270400J0D01*
G01*
X140987600Y-113956000D01*
G75*
G02*
X141258000Y-114226400I0J-270400D01*
G01*
X141258000Y-115037600D01*
G75*
G02*
X140987600Y-115308000I-270400J0D01*
G01*
G37*
G36*
G01*
X144787600Y-115308000D02*
X143476400Y-115308000D01*
G75*
G02*
X143206000Y-115037600I0J270400D01*
G01*
X143206000Y-114226400D01*
G75*
G02*
X143476400Y-113956000I270400J0D01*
G01*
X144787600Y-113956000D01*
G75*
G02*
X145058000Y-114226400I0J-270400D01*
G01*
X145058000Y-115037600D01*
G75*
G02*
X144787600Y-115308000I-270400J0D01*
G01*
G37*
G36*
G01*
X144787600Y-112508000D02*
X143476400Y-112508000D01*
G75*
G02*
X143206000Y-112237600I0J270400D01*
G01*
X143206000Y-111426400D01*
G75*
G02*
X143476400Y-111156000I270400J0D01*
G01*
X144787600Y-111156000D01*
G75*
G02*
X145058000Y-111426400I0J-270400D01*
G01*
X145058000Y-112237600D01*
G75*
G02*
X144787600Y-112508000I-270400J0D01*
G01*
G37*
D12*
X179332000Y-109368000D03*
D13*
X179332000Y-106828000D03*
G36*
G01*
X165244400Y-101724000D02*
X166555600Y-101724000D01*
G75*
G02*
X166826000Y-101994400I0J-270400D01*
G01*
X166826000Y-102805600D01*
G75*
G02*
X166555600Y-103076000I-270400J0D01*
G01*
X165244400Y-103076000D01*
G75*
G02*
X164974000Y-102805600I0J270400D01*
G01*
X164974000Y-101994400D01*
G75*
G02*
X165244400Y-101724000I270400J0D01*
G01*
G37*
G36*
G01*
X165244400Y-104524000D02*
X166555600Y-104524000D01*
G75*
G02*
X166826000Y-104794400I0J-270400D01*
G01*
X166826000Y-105605600D01*
G75*
G02*
X166555600Y-105876000I-270400J0D01*
G01*
X165244400Y-105876000D01*
G75*
G02*
X164974000Y-105605600I0J270400D01*
G01*
X164974000Y-104794400D01*
G75*
G02*
X165244400Y-104524000I270400J0D01*
G01*
G37*
G36*
G01*
X169176400Y-119392000D02*
X170487600Y-119392000D01*
G75*
G02*
X170758000Y-119662400I0J-270400D01*
G01*
X170758000Y-120473600D01*
G75*
G02*
X170487600Y-120744000I-270400J0D01*
G01*
X169176400Y-120744000D01*
G75*
G02*
X168906000Y-120473600I0J270400D01*
G01*
X168906000Y-119662400D01*
G75*
G02*
X169176400Y-119392000I270400J0D01*
G01*
G37*
G36*
G01*
X169176400Y-116592000D02*
X170487600Y-116592000D01*
G75*
G02*
X170758000Y-116862400I0J-270400D01*
G01*
X170758000Y-117673600D01*
G75*
G02*
X170487600Y-117944000I-270400J0D01*
G01*
X169176400Y-117944000D01*
G75*
G02*
X168906000Y-117673600I0J270400D01*
G01*
X168906000Y-116862400D01*
G75*
G02*
X169176400Y-116592000I270400J0D01*
G01*
G37*
G36*
G01*
X91282000Y-110429000D02*
X89782000Y-110429000D01*
G75*
G02*
X89731000Y-110378000I0J51000D01*
G01*
X89731000Y-108878000D01*
G75*
G02*
X89782000Y-108827000I51000J0D01*
G01*
X91282000Y-108827000D01*
G75*
G02*
X91333000Y-108878000I0J-51000D01*
G01*
X91333000Y-110378000D01*
G75*
G02*
X91282000Y-110429000I-51000J0D01*
G01*
G37*
D14*
X90532000Y-107596000D03*
X90532000Y-105564000D03*
X90532000Y-103532000D03*
X92312000Y-108612000D03*
X92312000Y-106580000D03*
X92312000Y-104548000D03*
X92312000Y-102516000D03*
D15*
X87992000Y-112418000D03*
X87992000Y-99718000D03*
D16*
X91422000Y-97938000D03*
X91422000Y-114198000D03*
D14*
X97132000Y-112928000D03*
X97132000Y-110638000D03*
X97132000Y-101498000D03*
X97132000Y-99208000D03*
D10*
X180652000Y-103068000D03*
X178112000Y-103068000D03*
X175572000Y-103068000D03*
G36*
G01*
X173882000Y-103969000D02*
X172182000Y-103969000D01*
G75*
G02*
X172131000Y-103918000I0J51000D01*
G01*
X172131000Y-102218000D01*
G75*
G02*
X172182000Y-102167000I51000J0D01*
G01*
X173882000Y-102167000D01*
G75*
G02*
X173933000Y-102218000I0J-51000D01*
G01*
X173933000Y-103918000D01*
G75*
G02*
X173882000Y-103969000I-51000J0D01*
G01*
G37*
G36*
G01*
X173882000Y-100369000D02*
X172182000Y-100369000D01*
G75*
G02*
X172131000Y-100318000I0J51000D01*
G01*
X172131000Y-98618000D01*
G75*
G02*
X172182000Y-98567000I51000J0D01*
G01*
X173882000Y-98567000D01*
G75*
G02*
X173933000Y-98618000I0J-51000D01*
G01*
X173933000Y-100318000D01*
G75*
G02*
X173882000Y-100369000I-51000J0D01*
G01*
G37*
X175572000Y-99468000D03*
X178112000Y-99468000D03*
X180652000Y-99468000D03*
D17*
X152150000Y-114508000D03*
X165290000Y-114508000D03*
G36*
G01*
X154369000Y-112548000D02*
X154369000Y-111048000D01*
G75*
G02*
X154420000Y-110997000I51000J0D01*
G01*
X156020000Y-110997000D01*
G75*
G02*
X156071000Y-111048000I0J-51000D01*
G01*
X156071000Y-112548000D01*
G75*
G02*
X156020000Y-112599000I-51000J0D01*
G01*
X154420000Y-112599000D01*
G75*
G02*
X154369000Y-112548000I0J51000D01*
G01*
G37*
D18*
X157720000Y-111798000D03*
X159720000Y-111798000D03*
X162220000Y-111798000D03*
D19*
X155220000Y-119616296D03*
X162220000Y-119616296D03*
D20*
X156220000Y-116916296D03*
X161220000Y-116916296D03*
G36*
G01*
X112000000Y-97651000D02*
X109400000Y-97651000D01*
G75*
G02*
X109349000Y-97600000I0J51000D01*
G01*
X109349000Y-95000000D01*
G75*
G02*
X109400000Y-94949000I51000J0D01*
G01*
X112000000Y-94949000D01*
G75*
G02*
X112051000Y-95000000I0J-51000D01*
G01*
X112051000Y-97600000D01*
G75*
G02*
X112000000Y-97651000I-51000J0D01*
G01*
G37*
G36*
G01*
X109138000Y-97726000D02*
X108387000Y-97726000D01*
G75*
G02*
X108299000Y-97638000I0J88000D01*
G01*
X108299000Y-97462000D01*
G75*
G02*
X108387000Y-97374000I88000J0D01*
G01*
X109138000Y-97374000D01*
G75*
G02*
X109226000Y-97462000I0J-88000D01*
G01*
X109226000Y-97638000D01*
G75*
G02*
X109138000Y-97726000I-88000J0D01*
G01*
G37*
G36*
G01*
X109138000Y-97226000D02*
X108387000Y-97226000D01*
G75*
G02*
X108299000Y-97138000I0J88000D01*
G01*
X108299000Y-96962000D01*
G75*
G02*
X108387000Y-96874000I88000J0D01*
G01*
X109138000Y-96874000D01*
G75*
G02*
X109226000Y-96962000I0J-88000D01*
G01*
X109226000Y-97138000D01*
G75*
G02*
X109138000Y-97226000I-88000J0D01*
G01*
G37*
G36*
G01*
X109138000Y-96726000D02*
X108387000Y-96726000D01*
G75*
G02*
X108299000Y-96638000I0J88000D01*
G01*
X108299000Y-96462000D01*
G75*
G02*
X108387000Y-96374000I88000J0D01*
G01*
X109138000Y-96374000D01*
G75*
G02*
X109226000Y-96462000I0J-88000D01*
G01*
X109226000Y-96638000D01*
G75*
G02*
X109138000Y-96726000I-88000J0D01*
G01*
G37*
G36*
G01*
X109138000Y-96226000D02*
X108387000Y-96226000D01*
G75*
G02*
X108299000Y-96138000I0J88000D01*
G01*
X108299000Y-95962000D01*
G75*
G02*
X108387000Y-95874000I88000J0D01*
G01*
X109138000Y-95874000D01*
G75*
G02*
X109226000Y-95962000I0J-88000D01*
G01*
X109226000Y-96138000D01*
G75*
G02*
X109138000Y-96226000I-88000J0D01*
G01*
G37*
G36*
G01*
X109138000Y-95726000D02*
X108387000Y-95726000D01*
G75*
G02*
X108299000Y-95638000I0J88000D01*
G01*
X108299000Y-95462000D01*
G75*
G02*
X108387000Y-95374000I88000J0D01*
G01*
X109138000Y-95374000D01*
G75*
G02*
X109226000Y-95462000I0J-88000D01*
G01*
X109226000Y-95638000D01*
G75*
G02*
X109138000Y-95726000I-88000J0D01*
G01*
G37*
G36*
G01*
X109138000Y-95226000D02*
X108387000Y-95226000D01*
G75*
G02*
X108299000Y-95138000I0J88000D01*
G01*
X108299000Y-94962000D01*
G75*
G02*
X108387000Y-94874000I88000J0D01*
G01*
X109138000Y-94874000D01*
G75*
G02*
X109226000Y-94962000I0J-88000D01*
G01*
X109226000Y-95138000D01*
G75*
G02*
X109138000Y-95226000I-88000J0D01*
G01*
G37*
G36*
G01*
X109538000Y-94826000D02*
X109362000Y-94826000D01*
G75*
G02*
X109274000Y-94738000I0J88000D01*
G01*
X109274000Y-93987000D01*
G75*
G02*
X109362000Y-93899000I88000J0D01*
G01*
X109538000Y-93899000D01*
G75*
G02*
X109626000Y-93987000I0J-88000D01*
G01*
X109626000Y-94738000D01*
G75*
G02*
X109538000Y-94826000I-88000J0D01*
G01*
G37*
G36*
G01*
X110038000Y-94826000D02*
X109862000Y-94826000D01*
G75*
G02*
X109774000Y-94738000I0J88000D01*
G01*
X109774000Y-93987000D01*
G75*
G02*
X109862000Y-93899000I88000J0D01*
G01*
X110038000Y-93899000D01*
G75*
G02*
X110126000Y-93987000I0J-88000D01*
G01*
X110126000Y-94738000D01*
G75*
G02*
X110038000Y-94826000I-88000J0D01*
G01*
G37*
G36*
G01*
X110538000Y-94826000D02*
X110362000Y-94826000D01*
G75*
G02*
X110274000Y-94738000I0J88000D01*
G01*
X110274000Y-93987000D01*
G75*
G02*
X110362000Y-93899000I88000J0D01*
G01*
X110538000Y-93899000D01*
G75*
G02*
X110626000Y-93987000I0J-88000D01*
G01*
X110626000Y-94738000D01*
G75*
G02*
X110538000Y-94826000I-88000J0D01*
G01*
G37*
G36*
G01*
X111038000Y-94826000D02*
X110862000Y-94826000D01*
G75*
G02*
X110774000Y-94738000I0J88000D01*
G01*
X110774000Y-93987000D01*
G75*
G02*
X110862000Y-93899000I88000J0D01*
G01*
X111038000Y-93899000D01*
G75*
G02*
X111126000Y-93987000I0J-88000D01*
G01*
X111126000Y-94738000D01*
G75*
G02*
X111038000Y-94826000I-88000J0D01*
G01*
G37*
G36*
G01*
X111538000Y-94826000D02*
X111362000Y-94826000D01*
G75*
G02*
X111274000Y-94738000I0J88000D01*
G01*
X111274000Y-93987000D01*
G75*
G02*
X111362000Y-93899000I88000J0D01*
G01*
X111538000Y-93899000D01*
G75*
G02*
X111626000Y-93987000I0J-88000D01*
G01*
X111626000Y-94738000D01*
G75*
G02*
X111538000Y-94826000I-88000J0D01*
G01*
G37*
G36*
G01*
X112038000Y-94826000D02*
X111862000Y-94826000D01*
G75*
G02*
X111774000Y-94738000I0J88000D01*
G01*
X111774000Y-93987000D01*
G75*
G02*
X111862000Y-93899000I88000J0D01*
G01*
X112038000Y-93899000D01*
G75*
G02*
X112126000Y-93987000I0J-88000D01*
G01*
X112126000Y-94738000D01*
G75*
G02*
X112038000Y-94826000I-88000J0D01*
G01*
G37*
G36*
G01*
X113013000Y-95226000D02*
X112262000Y-95226000D01*
G75*
G02*
X112174000Y-95138000I0J88000D01*
G01*
X112174000Y-94962000D01*
G75*
G02*
X112262000Y-94874000I88000J0D01*
G01*
X113013000Y-94874000D01*
G75*
G02*
X113101000Y-94962000I0J-88000D01*
G01*
X113101000Y-95138000D01*
G75*
G02*
X113013000Y-95226000I-88000J0D01*
G01*
G37*
G36*
G01*
X113013000Y-95726000D02*
X112262000Y-95726000D01*
G75*
G02*
X112174000Y-95638000I0J88000D01*
G01*
X112174000Y-95462000D01*
G75*
G02*
X112262000Y-95374000I88000J0D01*
G01*
X113013000Y-95374000D01*
G75*
G02*
X113101000Y-95462000I0J-88000D01*
G01*
X113101000Y-95638000D01*
G75*
G02*
X113013000Y-95726000I-88000J0D01*
G01*
G37*
G36*
G01*
X113013000Y-96226000D02*
X112262000Y-96226000D01*
G75*
G02*
X112174000Y-96138000I0J88000D01*
G01*
X112174000Y-95962000D01*
G75*
G02*
X112262000Y-95874000I88000J0D01*
G01*
X113013000Y-95874000D01*
G75*
G02*
X113101000Y-95962000I0J-88000D01*
G01*
X113101000Y-96138000D01*
G75*
G02*
X113013000Y-96226000I-88000J0D01*
G01*
G37*
G36*
G01*
X113013000Y-96726000D02*
X112262000Y-96726000D01*
G75*
G02*
X112174000Y-96638000I0J88000D01*
G01*
X112174000Y-96462000D01*
G75*
G02*
X112262000Y-96374000I88000J0D01*
G01*
X113013000Y-96374000D01*
G75*
G02*
X113101000Y-96462000I0J-88000D01*
G01*
X113101000Y-96638000D01*
G75*
G02*
X113013000Y-96726000I-88000J0D01*
G01*
G37*
G36*
G01*
X113013000Y-97226000D02*
X112262000Y-97226000D01*
G75*
G02*
X112174000Y-97138000I0J88000D01*
G01*
X112174000Y-96962000D01*
G75*
G02*
X112262000Y-96874000I88000J0D01*
G01*
X113013000Y-96874000D01*
G75*
G02*
X113101000Y-96962000I0J-88000D01*
G01*
X113101000Y-97138000D01*
G75*
G02*
X113013000Y-97226000I-88000J0D01*
G01*
G37*
G36*
G01*
X113013000Y-97726000D02*
X112262000Y-97726000D01*
G75*
G02*
X112174000Y-97638000I0J88000D01*
G01*
X112174000Y-97462000D01*
G75*
G02*
X112262000Y-97374000I88000J0D01*
G01*
X113013000Y-97374000D01*
G75*
G02*
X113101000Y-97462000I0J-88000D01*
G01*
X113101000Y-97638000D01*
G75*
G02*
X113013000Y-97726000I-88000J0D01*
G01*
G37*
G36*
G01*
X112038000Y-98701000D02*
X111862000Y-98701000D01*
G75*
G02*
X111774000Y-98613000I0J88000D01*
G01*
X111774000Y-97862000D01*
G75*
G02*
X111862000Y-97774000I88000J0D01*
G01*
X112038000Y-97774000D01*
G75*
G02*
X112126000Y-97862000I0J-88000D01*
G01*
X112126000Y-98613000D01*
G75*
G02*
X112038000Y-98701000I-88000J0D01*
G01*
G37*
G36*
G01*
X111538000Y-98701000D02*
X111362000Y-98701000D01*
G75*
G02*
X111274000Y-98613000I0J88000D01*
G01*
X111274000Y-97862000D01*
G75*
G02*
X111362000Y-97774000I88000J0D01*
G01*
X111538000Y-97774000D01*
G75*
G02*
X111626000Y-97862000I0J-88000D01*
G01*
X111626000Y-98613000D01*
G75*
G02*
X111538000Y-98701000I-88000J0D01*
G01*
G37*
G36*
G01*
X111038000Y-98701000D02*
X110862000Y-98701000D01*
G75*
G02*
X110774000Y-98613000I0J88000D01*
G01*
X110774000Y-97862000D01*
G75*
G02*
X110862000Y-97774000I88000J0D01*
G01*
X111038000Y-97774000D01*
G75*
G02*
X111126000Y-97862000I0J-88000D01*
G01*
X111126000Y-98613000D01*
G75*
G02*
X111038000Y-98701000I-88000J0D01*
G01*
G37*
G36*
G01*
X110538000Y-98701000D02*
X110362000Y-98701000D01*
G75*
G02*
X110274000Y-98613000I0J88000D01*
G01*
X110274000Y-97862000D01*
G75*
G02*
X110362000Y-97774000I88000J0D01*
G01*
X110538000Y-97774000D01*
G75*
G02*
X110626000Y-97862000I0J-88000D01*
G01*
X110626000Y-98613000D01*
G75*
G02*
X110538000Y-98701000I-88000J0D01*
G01*
G37*
G36*
G01*
X110038000Y-98701000D02*
X109862000Y-98701000D01*
G75*
G02*
X109774000Y-98613000I0J88000D01*
G01*
X109774000Y-97862000D01*
G75*
G02*
X109862000Y-97774000I88000J0D01*
G01*
X110038000Y-97774000D01*
G75*
G02*
X110126000Y-97862000I0J-88000D01*
G01*
X110126000Y-98613000D01*
G75*
G02*
X110038000Y-98701000I-88000J0D01*
G01*
G37*
G36*
G01*
X109538000Y-98701000D02*
X109362000Y-98701000D01*
G75*
G02*
X109274000Y-98613000I0J88000D01*
G01*
X109274000Y-97862000D01*
G75*
G02*
X109362000Y-97774000I88000J0D01*
G01*
X109538000Y-97774000D01*
G75*
G02*
X109626000Y-97862000I0J-88000D01*
G01*
X109626000Y-98613000D01*
G75*
G02*
X109538000Y-98701000I-88000J0D01*
G01*
G37*
G36*
G01*
X105636500Y-115321000D02*
X106027500Y-115321000D01*
G75*
G02*
X106193000Y-115486500I0J-165500D01*
G01*
X106193000Y-115817500D01*
G75*
G02*
X106027500Y-115983000I-165500J0D01*
G01*
X105636500Y-115983000D01*
G75*
G02*
X105471000Y-115817500I0J165500D01*
G01*
X105471000Y-115486500D01*
G75*
G02*
X105636500Y-115321000I165500J0D01*
G01*
G37*
G36*
G01*
X105636500Y-116281000D02*
X106027500Y-116281000D01*
G75*
G02*
X106193000Y-116446500I0J-165500D01*
G01*
X106193000Y-116777500D01*
G75*
G02*
X106027500Y-116943000I-165500J0D01*
G01*
X105636500Y-116943000D01*
G75*
G02*
X105471000Y-116777500I0J165500D01*
G01*
X105471000Y-116446500D01*
G75*
G02*
X105636500Y-116281000I165500J0D01*
G01*
G37*
G36*
G01*
X106404500Y-118481000D02*
X106795500Y-118481000D01*
G75*
G02*
X106961000Y-118646500I0J-165500D01*
G01*
X106961000Y-118977500D01*
G75*
G02*
X106795500Y-119143000I-165500J0D01*
G01*
X106404500Y-119143000D01*
G75*
G02*
X106239000Y-118977500I0J165500D01*
G01*
X106239000Y-118646500D01*
G75*
G02*
X106404500Y-118481000I165500J0D01*
G01*
G37*
G36*
G01*
X106404500Y-117521000D02*
X106795500Y-117521000D01*
G75*
G02*
X106961000Y-117686500I0J-165500D01*
G01*
X106961000Y-118017500D01*
G75*
G02*
X106795500Y-118183000I-165500J0D01*
G01*
X106404500Y-118183000D01*
G75*
G02*
X106239000Y-118017500I0J165500D01*
G01*
X106239000Y-117686500D01*
G75*
G02*
X106404500Y-117521000I165500J0D01*
G01*
G37*
G36*
G01*
X107136500Y-116281000D02*
X107527500Y-116281000D01*
G75*
G02*
X107693000Y-116446500I0J-165500D01*
G01*
X107693000Y-116777500D01*
G75*
G02*
X107527500Y-116943000I-165500J0D01*
G01*
X107136500Y-116943000D01*
G75*
G02*
X106971000Y-116777500I0J165500D01*
G01*
X106971000Y-116446500D01*
G75*
G02*
X107136500Y-116281000I165500J0D01*
G01*
G37*
G36*
G01*
X107136500Y-115321000D02*
X107527500Y-115321000D01*
G75*
G02*
X107693000Y-115486500I0J-165500D01*
G01*
X107693000Y-115817500D01*
G75*
G02*
X107527500Y-115983000I-165500J0D01*
G01*
X107136500Y-115983000D01*
G75*
G02*
X106971000Y-115817500I0J165500D01*
G01*
X106971000Y-115486500D01*
G75*
G02*
X107136500Y-115321000I165500J0D01*
G01*
G37*
G36*
G01*
X103949000Y-120195500D02*
X103949000Y-119804500D01*
G75*
G02*
X104114500Y-119639000I165500J0D01*
G01*
X104445500Y-119639000D01*
G75*
G02*
X104611000Y-119804500I0J-165500D01*
G01*
X104611000Y-120195500D01*
G75*
G02*
X104445500Y-120361000I-165500J0D01*
G01*
X104114500Y-120361000D01*
G75*
G02*
X103949000Y-120195500I0J165500D01*
G01*
G37*
G36*
G01*
X102989000Y-120195500D02*
X102989000Y-119804500D01*
G75*
G02*
X103154500Y-119639000I165500J0D01*
G01*
X103485500Y-119639000D01*
G75*
G02*
X103651000Y-119804500I0J-165500D01*
G01*
X103651000Y-120195500D01*
G75*
G02*
X103485500Y-120361000I-165500J0D01*
G01*
X103154500Y-120361000D01*
G75*
G02*
X102989000Y-120195500I0J165500D01*
G01*
G37*
G36*
G01*
X112504500Y-110669000D02*
X112895500Y-110669000D01*
G75*
G02*
X113061000Y-110834500I0J-165500D01*
G01*
X113061000Y-111165500D01*
G75*
G02*
X112895500Y-111331000I-165500J0D01*
G01*
X112504500Y-111331000D01*
G75*
G02*
X112339000Y-111165500I0J165500D01*
G01*
X112339000Y-110834500D01*
G75*
G02*
X112504500Y-110669000I165500J0D01*
G01*
G37*
G36*
G01*
X112504500Y-111629000D02*
X112895500Y-111629000D01*
G75*
G02*
X113061000Y-111794500I0J-165500D01*
G01*
X113061000Y-112125500D01*
G75*
G02*
X112895500Y-112291000I-165500J0D01*
G01*
X112504500Y-112291000D01*
G75*
G02*
X112339000Y-112125500I0J165500D01*
G01*
X112339000Y-111794500D01*
G75*
G02*
X112504500Y-111629000I165500J0D01*
G01*
G37*
G36*
G01*
X101849000Y-98795500D02*
X101849000Y-98404500D01*
G75*
G02*
X102014500Y-98239000I165500J0D01*
G01*
X102345500Y-98239000D01*
G75*
G02*
X102511000Y-98404500I0J-165500D01*
G01*
X102511000Y-98795500D01*
G75*
G02*
X102345500Y-98961000I-165500J0D01*
G01*
X102014500Y-98961000D01*
G75*
G02*
X101849000Y-98795500I0J165500D01*
G01*
G37*
G36*
G01*
X100889000Y-98795500D02*
X100889000Y-98404500D01*
G75*
G02*
X101054500Y-98239000I165500J0D01*
G01*
X101385500Y-98239000D01*
G75*
G02*
X101551000Y-98404500I0J-165500D01*
G01*
X101551000Y-98795500D01*
G75*
G02*
X101385500Y-98961000I-165500J0D01*
G01*
X101054500Y-98961000D01*
G75*
G02*
X100889000Y-98795500I0J165500D01*
G01*
G37*
G36*
G01*
X115321000Y-96163500D02*
X115321000Y-95772500D01*
G75*
G02*
X115486500Y-95607000I165500J0D01*
G01*
X115817500Y-95607000D01*
G75*
G02*
X115983000Y-95772500I0J-165500D01*
G01*
X115983000Y-96163500D01*
G75*
G02*
X115817500Y-96329000I-165500J0D01*
G01*
X115486500Y-96329000D01*
G75*
G02*
X115321000Y-96163500I0J165500D01*
G01*
G37*
G36*
G01*
X116281000Y-96163500D02*
X116281000Y-95772500D01*
G75*
G02*
X116446500Y-95607000I165500J0D01*
G01*
X116777500Y-95607000D01*
G75*
G02*
X116943000Y-95772500I0J-165500D01*
G01*
X116943000Y-96163500D01*
G75*
G02*
X116777500Y-96329000I-165500J0D01*
G01*
X116446500Y-96329000D01*
G75*
G02*
X116281000Y-96163500I0J165500D01*
G01*
G37*
G36*
G01*
X115321000Y-97163500D02*
X115321000Y-96772500D01*
G75*
G02*
X115486500Y-96607000I165500J0D01*
G01*
X115817500Y-96607000D01*
G75*
G02*
X115983000Y-96772500I0J-165500D01*
G01*
X115983000Y-97163500D01*
G75*
G02*
X115817500Y-97329000I-165500J0D01*
G01*
X115486500Y-97329000D01*
G75*
G02*
X115321000Y-97163500I0J165500D01*
G01*
G37*
G36*
G01*
X116281000Y-97163500D02*
X116281000Y-96772500D01*
G75*
G02*
X116446500Y-96607000I165500J0D01*
G01*
X116777500Y-96607000D01*
G75*
G02*
X116943000Y-96772500I0J-165500D01*
G01*
X116943000Y-97163500D01*
G75*
G02*
X116777500Y-97329000I-165500J0D01*
G01*
X116446500Y-97329000D01*
G75*
G02*
X116281000Y-97163500I0J165500D01*
G01*
G37*
G36*
G01*
X114195500Y-92451000D02*
X113804500Y-92451000D01*
G75*
G02*
X113639000Y-92285500I0J165500D01*
G01*
X113639000Y-91954500D01*
G75*
G02*
X113804500Y-91789000I165500J0D01*
G01*
X114195500Y-91789000D01*
G75*
G02*
X114361000Y-91954500I0J-165500D01*
G01*
X114361000Y-92285500D01*
G75*
G02*
X114195500Y-92451000I-165500J0D01*
G01*
G37*
G36*
G01*
X114195500Y-93411000D02*
X113804500Y-93411000D01*
G75*
G02*
X113639000Y-93245500I0J165500D01*
G01*
X113639000Y-92914500D01*
G75*
G02*
X113804500Y-92749000I165500J0D01*
G01*
X114195500Y-92749000D01*
G75*
G02*
X114361000Y-92914500I0J-165500D01*
G01*
X114361000Y-93245500D01*
G75*
G02*
X114195500Y-93411000I-165500J0D01*
G01*
G37*
G36*
G01*
X115321000Y-94167500D02*
X115321000Y-93776500D01*
G75*
G02*
X115486500Y-93611000I165500J0D01*
G01*
X115817500Y-93611000D01*
G75*
G02*
X115983000Y-93776500I0J-165500D01*
G01*
X115983000Y-94167500D01*
G75*
G02*
X115817500Y-94333000I-165500J0D01*
G01*
X115486500Y-94333000D01*
G75*
G02*
X115321000Y-94167500I0J165500D01*
G01*
G37*
G36*
G01*
X116281000Y-94167500D02*
X116281000Y-93776500D01*
G75*
G02*
X116446500Y-93611000I165500J0D01*
G01*
X116777500Y-93611000D01*
G75*
G02*
X116943000Y-93776500I0J-165500D01*
G01*
X116943000Y-94167500D01*
G75*
G02*
X116777500Y-94333000I-165500J0D01*
G01*
X116446500Y-94333000D01*
G75*
G02*
X116281000Y-94167500I0J165500D01*
G01*
G37*
G36*
G01*
X115321000Y-93167500D02*
X115321000Y-92776500D01*
G75*
G02*
X115486500Y-92611000I165500J0D01*
G01*
X115817500Y-92611000D01*
G75*
G02*
X115983000Y-92776500I0J-165500D01*
G01*
X115983000Y-93167500D01*
G75*
G02*
X115817500Y-93333000I-165500J0D01*
G01*
X115486500Y-93333000D01*
G75*
G02*
X115321000Y-93167500I0J165500D01*
G01*
G37*
G36*
G01*
X116281000Y-93167500D02*
X116281000Y-92776500D01*
G75*
G02*
X116446500Y-92611000I165500J0D01*
G01*
X116777500Y-92611000D01*
G75*
G02*
X116943000Y-92776500I0J-165500D01*
G01*
X116943000Y-93167500D01*
G75*
G02*
X116777500Y-93333000I-165500J0D01*
G01*
X116446500Y-93333000D01*
G75*
G02*
X116281000Y-93167500I0J165500D01*
G01*
G37*
G36*
G01*
X104481000Y-92027500D02*
X104481000Y-91636500D01*
G75*
G02*
X104646500Y-91471000I165500J0D01*
G01*
X104977500Y-91471000D01*
G75*
G02*
X105143000Y-91636500I0J-165500D01*
G01*
X105143000Y-92027500D01*
G75*
G02*
X104977500Y-92193000I-165500J0D01*
G01*
X104646500Y-92193000D01*
G75*
G02*
X104481000Y-92027500I0J165500D01*
G01*
G37*
G36*
G01*
X103521000Y-92027500D02*
X103521000Y-91636500D01*
G75*
G02*
X103686500Y-91471000I165500J0D01*
G01*
X104017500Y-91471000D01*
G75*
G02*
X104183000Y-91636500I0J-165500D01*
G01*
X104183000Y-92027500D01*
G75*
G02*
X104017500Y-92193000I-165500J0D01*
G01*
X103686500Y-92193000D01*
G75*
G02*
X103521000Y-92027500I0J165500D01*
G01*
G37*
G36*
G01*
X104183000Y-98436500D02*
X104183000Y-98827500D01*
G75*
G02*
X104017500Y-98993000I-165500J0D01*
G01*
X103686500Y-98993000D01*
G75*
G02*
X103521000Y-98827500I0J165500D01*
G01*
X103521000Y-98436500D01*
G75*
G02*
X103686500Y-98271000I165500J0D01*
G01*
X104017500Y-98271000D01*
G75*
G02*
X104183000Y-98436500I0J-165500D01*
G01*
G37*
G36*
G01*
X105143000Y-98436500D02*
X105143000Y-98827500D01*
G75*
G02*
X104977500Y-98993000I-165500J0D01*
G01*
X104646500Y-98993000D01*
G75*
G02*
X104481000Y-98827500I0J165500D01*
G01*
X104481000Y-98436500D01*
G75*
G02*
X104646500Y-98271000I165500J0D01*
G01*
X104977500Y-98271000D01*
G75*
G02*
X105143000Y-98436500I0J-165500D01*
G01*
G37*
G36*
G01*
X98631000Y-91989500D02*
X98631000Y-92410500D01*
G75*
G02*
X98470500Y-92571000I-160500J0D01*
G01*
X98149500Y-92571000D01*
G75*
G02*
X97989000Y-92410500I0J160500D01*
G01*
X97989000Y-91989500D01*
G75*
G02*
X98149500Y-91829000I160500J0D01*
G01*
X98470500Y-91829000D01*
G75*
G02*
X98631000Y-91989500I0J-160500D01*
G01*
G37*
G36*
G01*
X97611000Y-91989500D02*
X97611000Y-92410500D01*
G75*
G02*
X97450500Y-92571000I-160500J0D01*
G01*
X97129500Y-92571000D01*
G75*
G02*
X96969000Y-92410500I0J160500D01*
G01*
X96969000Y-91989500D01*
G75*
G02*
X97129500Y-91829000I160500J0D01*
G01*
X97450500Y-91829000D01*
G75*
G02*
X97611000Y-91989500I0J-160500D01*
G01*
G37*
G36*
G01*
X97611000Y-93489500D02*
X97611000Y-93910500D01*
G75*
G02*
X97450500Y-94071000I-160500J0D01*
G01*
X97129500Y-94071000D01*
G75*
G02*
X96969000Y-93910500I0J160500D01*
G01*
X96969000Y-93489500D01*
G75*
G02*
X97129500Y-93329000I160500J0D01*
G01*
X97450500Y-93329000D01*
G75*
G02*
X97611000Y-93489500I0J-160500D01*
G01*
G37*
G36*
G01*
X98631000Y-93489500D02*
X98631000Y-93910500D01*
G75*
G02*
X98470500Y-94071000I-160500J0D01*
G01*
X98149500Y-94071000D01*
G75*
G02*
X97989000Y-93910500I0J160500D01*
G01*
X97989000Y-93489500D01*
G75*
G02*
X98149500Y-93329000I160500J0D01*
G01*
X98470500Y-93329000D01*
G75*
G02*
X98631000Y-93489500I0J-160500D01*
G01*
G37*
G36*
G01*
X105621500Y-113101000D02*
X106042500Y-113101000D01*
G75*
G02*
X106203000Y-113261500I0J-160500D01*
G01*
X106203000Y-113582500D01*
G75*
G02*
X106042500Y-113743000I-160500J0D01*
G01*
X105621500Y-113743000D01*
G75*
G02*
X105461000Y-113582500I0J160500D01*
G01*
X105461000Y-113261500D01*
G75*
G02*
X105621500Y-113101000I160500J0D01*
G01*
G37*
G36*
G01*
X105621500Y-114121000D02*
X106042500Y-114121000D01*
G75*
G02*
X106203000Y-114281500I0J-160500D01*
G01*
X106203000Y-114602500D01*
G75*
G02*
X106042500Y-114763000I-160500J0D01*
G01*
X105621500Y-114763000D01*
G75*
G02*
X105461000Y-114602500I0J160500D01*
G01*
X105461000Y-114281500D01*
G75*
G02*
X105621500Y-114121000I160500J0D01*
G01*
G37*
G36*
G01*
X107121500Y-113101000D02*
X107542500Y-113101000D01*
G75*
G02*
X107703000Y-113261500I0J-160500D01*
G01*
X107703000Y-113582500D01*
G75*
G02*
X107542500Y-113743000I-160500J0D01*
G01*
X107121500Y-113743000D01*
G75*
G02*
X106961000Y-113582500I0J160500D01*
G01*
X106961000Y-113261500D01*
G75*
G02*
X107121500Y-113101000I160500J0D01*
G01*
G37*
G36*
G01*
X107121500Y-114121000D02*
X107542500Y-114121000D01*
G75*
G02*
X107703000Y-114281500I0J-160500D01*
G01*
X107703000Y-114602500D01*
G75*
G02*
X107542500Y-114763000I-160500J0D01*
G01*
X107121500Y-114763000D01*
G75*
G02*
X106961000Y-114602500I0J160500D01*
G01*
X106961000Y-114281500D01*
G75*
G02*
X107121500Y-114121000I160500J0D01*
G01*
G37*
G36*
G01*
X140121500Y-116669000D02*
X140542500Y-116669000D01*
G75*
G02*
X140703000Y-116829500I0J-160500D01*
G01*
X140703000Y-117150500D01*
G75*
G02*
X140542500Y-117311000I-160500J0D01*
G01*
X140121500Y-117311000D01*
G75*
G02*
X139961000Y-117150500I0J160500D01*
G01*
X139961000Y-116829500D01*
G75*
G02*
X140121500Y-116669000I160500J0D01*
G01*
G37*
G36*
G01*
X140121500Y-117689000D02*
X140542500Y-117689000D01*
G75*
G02*
X140703000Y-117849500I0J-160500D01*
G01*
X140703000Y-118170500D01*
G75*
G02*
X140542500Y-118331000I-160500J0D01*
G01*
X140121500Y-118331000D01*
G75*
G02*
X139961000Y-118170500I0J160500D01*
G01*
X139961000Y-117849500D01*
G75*
G02*
X140121500Y-117689000I160500J0D01*
G01*
G37*
G36*
G01*
X112311000Y-92189500D02*
X112311000Y-92610500D01*
G75*
G02*
X112150500Y-92771000I-160500J0D01*
G01*
X111829500Y-92771000D01*
G75*
G02*
X111669000Y-92610500I0J160500D01*
G01*
X111669000Y-92189500D01*
G75*
G02*
X111829500Y-92029000I160500J0D01*
G01*
X112150500Y-92029000D01*
G75*
G02*
X112311000Y-92189500I0J-160500D01*
G01*
G37*
G36*
G01*
X113331000Y-92189500D02*
X113331000Y-92610500D01*
G75*
G02*
X113170500Y-92771000I-160500J0D01*
G01*
X112849500Y-92771000D01*
G75*
G02*
X112689000Y-92610500I0J160500D01*
G01*
X112689000Y-92189500D01*
G75*
G02*
X112849500Y-92029000I160500J0D01*
G01*
X113170500Y-92029000D01*
G75*
G02*
X113331000Y-92189500I0J-160500D01*
G01*
G37*
G36*
G01*
X166110500Y-100321000D02*
X165689500Y-100321000D01*
G75*
G02*
X165529000Y-100160500I0J160500D01*
G01*
X165529000Y-99839500D01*
G75*
G02*
X165689500Y-99679000I160500J0D01*
G01*
X166110500Y-99679000D01*
G75*
G02*
X166271000Y-99839500I0J-160500D01*
G01*
X166271000Y-100160500D01*
G75*
G02*
X166110500Y-100321000I-160500J0D01*
G01*
G37*
G36*
G01*
X166110500Y-99301000D02*
X165689500Y-99301000D01*
G75*
G02*
X165529000Y-99140500I0J160500D01*
G01*
X165529000Y-98819500D01*
G75*
G02*
X165689500Y-98659000I160500J0D01*
G01*
X166110500Y-98659000D01*
G75*
G02*
X166271000Y-98819500I0J-160500D01*
G01*
X166271000Y-99140500D01*
G75*
G02*
X166110500Y-99301000I-160500J0D01*
G01*
G37*
G36*
G01*
X170042500Y-114201000D02*
X169621500Y-114201000D01*
G75*
G02*
X169461000Y-114040500I0J160500D01*
G01*
X169461000Y-113719500D01*
G75*
G02*
X169621500Y-113559000I160500J0D01*
G01*
X170042500Y-113559000D01*
G75*
G02*
X170203000Y-113719500I0J-160500D01*
G01*
X170203000Y-114040500D01*
G75*
G02*
X170042500Y-114201000I-160500J0D01*
G01*
G37*
G36*
G01*
X170042500Y-115221000D02*
X169621500Y-115221000D01*
G75*
G02*
X169461000Y-115060500I0J160500D01*
G01*
X169461000Y-114739500D01*
G75*
G02*
X169621500Y-114579000I160500J0D01*
G01*
X170042500Y-114579000D01*
G75*
G02*
X170203000Y-114739500I0J-160500D01*
G01*
X170203000Y-115060500D01*
G75*
G02*
X170042500Y-115221000I-160500J0D01*
G01*
G37*
G36*
G01*
X135399000Y-115750000D02*
X135399000Y-110450000D01*
G75*
G02*
X135450000Y-110399000I51000J0D01*
G01*
X138250000Y-110399000D01*
G75*
G02*
X138301000Y-110450000I0J-51000D01*
G01*
X138301000Y-115750000D01*
G75*
G02*
X138250000Y-115801000I-51000J0D01*
G01*
X135450000Y-115801000D01*
G75*
G02*
X135399000Y-115750000I0J51000D01*
G01*
G37*
G36*
G01*
X125299000Y-115750000D02*
X125299000Y-110450000D01*
G75*
G02*
X125350000Y-110399000I51000J0D01*
G01*
X128150000Y-110399000D01*
G75*
G02*
X128201000Y-110450000I0J-51000D01*
G01*
X128201000Y-115750000D01*
G75*
G02*
X128150000Y-115801000I-51000J0D01*
G01*
X125350000Y-115801000D01*
G75*
G02*
X125299000Y-115750000I0J51000D01*
G01*
G37*
D21*
G36*
X91517421Y-108693148D02*
G01*
X91547415Y-108843936D01*
X91572436Y-108904342D01*
X91572175Y-108906325D01*
X91570327Y-108907090D01*
X91568824Y-108906050D01*
X91560261Y-108890029D01*
X91544966Y-108871392D01*
X91526329Y-108856097D01*
X91505065Y-108844732D01*
X91481990Y-108837732D01*
X91457999Y-108835369D01*
X91434008Y-108837732D01*
X91410933Y-108844732D01*
X91389669Y-108856097D01*
X91371032Y-108871392D01*
X91355737Y-108890029D01*
X91344372Y-108911293D01*
X91337372Y-108934368D01*
X91334990Y-108958555D01*
X91333825Y-108960181D01*
X91331835Y-108959985D01*
X91331000Y-108958359D01*
X91331000Y-108827000D01*
X91332000Y-108825268D01*
X91333000Y-108825000D01*
X91390366Y-108825000D01*
X91414451Y-108822628D01*
X91437526Y-108815628D01*
X91458790Y-108804263D01*
X91477427Y-108788968D01*
X91492722Y-108770331D01*
X91504087Y-108749067D01*
X91511087Y-108725992D01*
X91513459Y-108701907D01*
X91513459Y-108693538D01*
X91514459Y-108691806D01*
X91516459Y-108691806D01*
X91517421Y-108693148D01*
G37*
G36*
X109594555Y-93897010D02*
G01*
X109605551Y-93898093D01*
X109605936Y-93898169D01*
X109610610Y-93899587D01*
X109610972Y-93899737D01*
X109615273Y-93902036D01*
X109615599Y-93902254D01*
X109621896Y-93907421D01*
X109642023Y-93920870D01*
X109664297Y-93930096D01*
X109687948Y-93934800D01*
X109712054Y-93934800D01*
X109735704Y-93930095D01*
X109757978Y-93920869D01*
X109778104Y-93907421D01*
X109784401Y-93902254D01*
X109784727Y-93902036D01*
X109789028Y-93899737D01*
X109789390Y-93899587D01*
X109794064Y-93898169D01*
X109794449Y-93898093D01*
X109805445Y-93897010D01*
X109805641Y-93897000D01*
X109862000Y-93897000D01*
X109863732Y-93898000D01*
X109863732Y-93900000D01*
X109862196Y-93900990D01*
X109845227Y-93902661D01*
X109829093Y-93907556D01*
X109814226Y-93915502D01*
X109801196Y-93926196D01*
X109790502Y-93939226D01*
X109782556Y-93954093D01*
X109777661Y-93970227D01*
X109776000Y-93987094D01*
X109776000Y-94737906D01*
X109777661Y-94754773D01*
X109782556Y-94770907D01*
X109790502Y-94785774D01*
X109801196Y-94798804D01*
X109814226Y-94809498D01*
X109829093Y-94817444D01*
X109845227Y-94822339D01*
X109862094Y-94824000D01*
X110037906Y-94824000D01*
X110054773Y-94822339D01*
X110070907Y-94817444D01*
X110085774Y-94809498D01*
X110098804Y-94798804D01*
X110109498Y-94785774D01*
X110117444Y-94770907D01*
X110122339Y-94754773D01*
X110124000Y-94737906D01*
X110124000Y-93987094D01*
X110122339Y-93970227D01*
X110117444Y-93954093D01*
X110109498Y-93939226D01*
X110098804Y-93926196D01*
X110085774Y-93915502D01*
X110070907Y-93907556D01*
X110054773Y-93902661D01*
X110037804Y-93900990D01*
X110036178Y-93899825D01*
X110036374Y-93897835D01*
X110038000Y-93897000D01*
X110094359Y-93897000D01*
X110094555Y-93897010D01*
X110105551Y-93898093D01*
X110105936Y-93898169D01*
X110110610Y-93899587D01*
X110110972Y-93899737D01*
X110115273Y-93902036D01*
X110115599Y-93902254D01*
X110121896Y-93907421D01*
X110142023Y-93920870D01*
X110164297Y-93930096D01*
X110187948Y-93934800D01*
X110212054Y-93934800D01*
X110235704Y-93930095D01*
X110257978Y-93920869D01*
X110278104Y-93907421D01*
X110284401Y-93902254D01*
X110284727Y-93902036D01*
X110289028Y-93899737D01*
X110289390Y-93899587D01*
X110294064Y-93898169D01*
X110294449Y-93898093D01*
X110305445Y-93897010D01*
X110305641Y-93897000D01*
X110362000Y-93897000D01*
X110363732Y-93898000D01*
X110363732Y-93900000D01*
X110362196Y-93900990D01*
X110345227Y-93902661D01*
X110329093Y-93907556D01*
X110314226Y-93915502D01*
X110301196Y-93926196D01*
X110290502Y-93939226D01*
X110282556Y-93954093D01*
X110277661Y-93970227D01*
X110276000Y-93987094D01*
X110276000Y-94737906D01*
X110277661Y-94754773D01*
X110282556Y-94770907D01*
X110290502Y-94785774D01*
X110301196Y-94798804D01*
X110314226Y-94809498D01*
X110329093Y-94817444D01*
X110345227Y-94822339D01*
X110362094Y-94824000D01*
X110537906Y-94824000D01*
X110554773Y-94822339D01*
X110570907Y-94817444D01*
X110585774Y-94809498D01*
X110598804Y-94798804D01*
X110609498Y-94785774D01*
X110617444Y-94770907D01*
X110622339Y-94754773D01*
X110624000Y-94737906D01*
X110624000Y-93987094D01*
X110622339Y-93970227D01*
X110617444Y-93954093D01*
X110609498Y-93939226D01*
X110598804Y-93926196D01*
X110585774Y-93915502D01*
X110570907Y-93907556D01*
X110554773Y-93902661D01*
X110537804Y-93900990D01*
X110536178Y-93899825D01*
X110536374Y-93897835D01*
X110538000Y-93897000D01*
X110594359Y-93897000D01*
X110594555Y-93897010D01*
X110605551Y-93898093D01*
X110605936Y-93898169D01*
X110610610Y-93899587D01*
X110610972Y-93899737D01*
X110615273Y-93902036D01*
X110615599Y-93902254D01*
X110621896Y-93907421D01*
X110642023Y-93920870D01*
X110664297Y-93930096D01*
X110687948Y-93934800D01*
X110712054Y-93934800D01*
X110735704Y-93930095D01*
X110757978Y-93920869D01*
X110778104Y-93907421D01*
X110784401Y-93902254D01*
X110784727Y-93902036D01*
X110789028Y-93899737D01*
X110789390Y-93899587D01*
X110794064Y-93898169D01*
X110794449Y-93898093D01*
X110805445Y-93897010D01*
X110805641Y-93897000D01*
X110862000Y-93897000D01*
X110863732Y-93898000D01*
X110863732Y-93900000D01*
X110862196Y-93900990D01*
X110845227Y-93902661D01*
X110829093Y-93907556D01*
X110814226Y-93915502D01*
X110801196Y-93926196D01*
X110790502Y-93939226D01*
X110782556Y-93954093D01*
X110777661Y-93970227D01*
X110776000Y-93987094D01*
X110776000Y-94737906D01*
X110777661Y-94754773D01*
X110782556Y-94770907D01*
X110790502Y-94785774D01*
X110801196Y-94798804D01*
X110814226Y-94809498D01*
X110829093Y-94817444D01*
X110845227Y-94822339D01*
X110862094Y-94824000D01*
X111037906Y-94824000D01*
X111054773Y-94822339D01*
X111070907Y-94817444D01*
X111085774Y-94809498D01*
X111098804Y-94798804D01*
X111109498Y-94785774D01*
X111117444Y-94770907D01*
X111122339Y-94754773D01*
X111124000Y-94737906D01*
X111124000Y-93987094D01*
X111122339Y-93970227D01*
X111117444Y-93954093D01*
X111109498Y-93939226D01*
X111098804Y-93926196D01*
X111085774Y-93915502D01*
X111070907Y-93907556D01*
X111054773Y-93902661D01*
X111037804Y-93900990D01*
X111036178Y-93899825D01*
X111036374Y-93897835D01*
X111038000Y-93897000D01*
X111094359Y-93897000D01*
X111094555Y-93897010D01*
X111105551Y-93898093D01*
X111105936Y-93898169D01*
X111110610Y-93899587D01*
X111110972Y-93899737D01*
X111115273Y-93902036D01*
X111115599Y-93902254D01*
X111121896Y-93907421D01*
X111142023Y-93920870D01*
X111164297Y-93930096D01*
X111187948Y-93934800D01*
X111212054Y-93934800D01*
X111235704Y-93930095D01*
X111257978Y-93920869D01*
X111278104Y-93907421D01*
X111284401Y-93902254D01*
X111284727Y-93902036D01*
X111289028Y-93899737D01*
X111289390Y-93899587D01*
X111294064Y-93898169D01*
X111294449Y-93898093D01*
X111305445Y-93897010D01*
X111305641Y-93897000D01*
X111362000Y-93897000D01*
X111363732Y-93898000D01*
X111363732Y-93900000D01*
X111362196Y-93900990D01*
X111345227Y-93902661D01*
X111329093Y-93907556D01*
X111314226Y-93915502D01*
X111301196Y-93926196D01*
X111290502Y-93939226D01*
X111282556Y-93954093D01*
X111277661Y-93970227D01*
X111276000Y-93987094D01*
X111276000Y-94737906D01*
X111277661Y-94754773D01*
X111282556Y-94770907D01*
X111290502Y-94785774D01*
X111301196Y-94798804D01*
X111314226Y-94809498D01*
X111329093Y-94817444D01*
X111345227Y-94822339D01*
X111362094Y-94824000D01*
X111537906Y-94824000D01*
X111554773Y-94822339D01*
X111570907Y-94817444D01*
X111585774Y-94809498D01*
X111598804Y-94798804D01*
X111609498Y-94785774D01*
X111617444Y-94770907D01*
X111622339Y-94754773D01*
X111624000Y-94737906D01*
X111624000Y-93987094D01*
X111622339Y-93970227D01*
X111617444Y-93954093D01*
X111609498Y-93939226D01*
X111598804Y-93926196D01*
X111585774Y-93915502D01*
X111570907Y-93907556D01*
X111554773Y-93902661D01*
X111537804Y-93900990D01*
X111536178Y-93899825D01*
X111536374Y-93897835D01*
X111538000Y-93897000D01*
X111594359Y-93897000D01*
X111594555Y-93897010D01*
X111605551Y-93898093D01*
X111605936Y-93898169D01*
X111610610Y-93899587D01*
X111610972Y-93899737D01*
X111615273Y-93902036D01*
X111615599Y-93902254D01*
X111621896Y-93907421D01*
X111642023Y-93920870D01*
X111664297Y-93930096D01*
X111687948Y-93934800D01*
X111712054Y-93934800D01*
X111735704Y-93930095D01*
X111757978Y-93920869D01*
X111778104Y-93907421D01*
X111784401Y-93902254D01*
X111784727Y-93902036D01*
X111789028Y-93899737D01*
X111789390Y-93899587D01*
X111794064Y-93898169D01*
X111794449Y-93898093D01*
X111805445Y-93897010D01*
X111805641Y-93897000D01*
X111862000Y-93897000D01*
X111863732Y-93898000D01*
X111863732Y-93900000D01*
X111862196Y-93900990D01*
X111845227Y-93902661D01*
X111829093Y-93907556D01*
X111814226Y-93915502D01*
X111801196Y-93926196D01*
X111790502Y-93939226D01*
X111782556Y-93954093D01*
X111777661Y-93970227D01*
X111776000Y-93987094D01*
X111776000Y-94737906D01*
X111777661Y-94754773D01*
X111782556Y-94770907D01*
X111790502Y-94785774D01*
X111801196Y-94798804D01*
X111814226Y-94809498D01*
X111829093Y-94817444D01*
X111845227Y-94822339D01*
X111862094Y-94824000D01*
X112037906Y-94824000D01*
X112054773Y-94822339D01*
X112070907Y-94817444D01*
X112085774Y-94809498D01*
X112098804Y-94798804D01*
X112109498Y-94785774D01*
X112117444Y-94770907D01*
X112122339Y-94754773D01*
X112124010Y-94737804D01*
X112125175Y-94736178D01*
X112127165Y-94736374D01*
X112128000Y-94738000D01*
X112128000Y-94748907D01*
X112130372Y-94772992D01*
X112137372Y-94796067D01*
X112148737Y-94817331D01*
X112164032Y-94835968D01*
X112182669Y-94851263D01*
X112203933Y-94862628D01*
X112227008Y-94869628D01*
X112251093Y-94872000D01*
X112262000Y-94872000D01*
X112263732Y-94873000D01*
X112263732Y-94875000D01*
X112262196Y-94875990D01*
X112245227Y-94877661D01*
X112229093Y-94882556D01*
X112214226Y-94890502D01*
X112201196Y-94901196D01*
X112190502Y-94914226D01*
X112182556Y-94929093D01*
X112177661Y-94945227D01*
X112176000Y-94962094D01*
X112176000Y-95137906D01*
X112177661Y-95154773D01*
X112182556Y-95170907D01*
X112190502Y-95185774D01*
X112201196Y-95198804D01*
X112214226Y-95209498D01*
X112229093Y-95217444D01*
X112245227Y-95222339D01*
X112262094Y-95224000D01*
X113012906Y-95224000D01*
X113029773Y-95222339D01*
X113045907Y-95217444D01*
X113060774Y-95209498D01*
X113073804Y-95198804D01*
X113084498Y-95185774D01*
X113092444Y-95170907D01*
X113097339Y-95154773D01*
X113099010Y-95137804D01*
X113100175Y-95136178D01*
X113102165Y-95136374D01*
X113103000Y-95138000D01*
X113103000Y-95194359D01*
X113102990Y-95194555D01*
X113101907Y-95205551D01*
X113101831Y-95205936D01*
X113100413Y-95210610D01*
X113100263Y-95210972D01*
X113097964Y-95215273D01*
X113097746Y-95215599D01*
X113092579Y-95221896D01*
X113079130Y-95242023D01*
X113069904Y-95264297D01*
X113065200Y-95287948D01*
X113065200Y-95312054D01*
X113069905Y-95335704D01*
X113079131Y-95357978D01*
X113092579Y-95378104D01*
X113097746Y-95384401D01*
X113097964Y-95384727D01*
X113100263Y-95389028D01*
X113100413Y-95389390D01*
X113101831Y-95394064D01*
X113101907Y-95394449D01*
X113102990Y-95405445D01*
X113103000Y-95405641D01*
X113103000Y-95462000D01*
X113102000Y-95463732D01*
X113100000Y-95463732D01*
X113099010Y-95462196D01*
X113097339Y-95445227D01*
X113092444Y-95429093D01*
X113084498Y-95414226D01*
X113073804Y-95401196D01*
X113060774Y-95390502D01*
X113045907Y-95382556D01*
X113029773Y-95377661D01*
X113012906Y-95376000D01*
X112262094Y-95376000D01*
X112245227Y-95377661D01*
X112229093Y-95382556D01*
X112214226Y-95390502D01*
X112201196Y-95401196D01*
X112190502Y-95414226D01*
X112182556Y-95429093D01*
X112177661Y-95445227D01*
X112176000Y-95462094D01*
X112176000Y-95637906D01*
X112177661Y-95654773D01*
X112182556Y-95670907D01*
X112190502Y-95685774D01*
X112201196Y-95698804D01*
X112214226Y-95709498D01*
X112229093Y-95717444D01*
X112245227Y-95722339D01*
X112262094Y-95724000D01*
X113012906Y-95724000D01*
X113029773Y-95722339D01*
X113045907Y-95717444D01*
X113060774Y-95709498D01*
X113073804Y-95698804D01*
X113084498Y-95685774D01*
X113092444Y-95670907D01*
X113097339Y-95654773D01*
X113099010Y-95637804D01*
X113100175Y-95636178D01*
X113102165Y-95636374D01*
X113103000Y-95638000D01*
X113103000Y-95694359D01*
X113102990Y-95694555D01*
X113101907Y-95705551D01*
X113101831Y-95705936D01*
X113100413Y-95710610D01*
X113100263Y-95710972D01*
X113097964Y-95715273D01*
X113097746Y-95715599D01*
X113092579Y-95721896D01*
X113079130Y-95742023D01*
X113069904Y-95764297D01*
X113065200Y-95787948D01*
X113065200Y-95812054D01*
X113069905Y-95835704D01*
X113079131Y-95857978D01*
X113092579Y-95878104D01*
X113097746Y-95884401D01*
X113097964Y-95884727D01*
X113100263Y-95889028D01*
X113100413Y-95889390D01*
X113101831Y-95894064D01*
X113101907Y-95894449D01*
X113102990Y-95905445D01*
X113103000Y-95905641D01*
X113103000Y-95962000D01*
X113102000Y-95963732D01*
X113100000Y-95963732D01*
X113099010Y-95962196D01*
X113097339Y-95945227D01*
X113092444Y-95929093D01*
X113084498Y-95914226D01*
X113073804Y-95901196D01*
X113060774Y-95890502D01*
X113045907Y-95882556D01*
X113029773Y-95877661D01*
X113012906Y-95876000D01*
X112262094Y-95876000D01*
X112245227Y-95877661D01*
X112229093Y-95882556D01*
X112214226Y-95890502D01*
X112201196Y-95901196D01*
X112190502Y-95914226D01*
X112182556Y-95929093D01*
X112177661Y-95945227D01*
X112176000Y-95962094D01*
X112176000Y-96137906D01*
X112177661Y-96154773D01*
X112182556Y-96170907D01*
X112190502Y-96185774D01*
X112201196Y-96198804D01*
X112214226Y-96209498D01*
X112229093Y-96217444D01*
X112245227Y-96222339D01*
X112262094Y-96224000D01*
X113012906Y-96224000D01*
X113029773Y-96222339D01*
X113045907Y-96217444D01*
X113060774Y-96209498D01*
X113073804Y-96198804D01*
X113084498Y-96185774D01*
X113092444Y-96170907D01*
X113097339Y-96154773D01*
X113099010Y-96137804D01*
X113100175Y-96136178D01*
X113102165Y-96136374D01*
X113103000Y-96138000D01*
X113103000Y-96194359D01*
X113102990Y-96194555D01*
X113101907Y-96205551D01*
X113101831Y-96205936D01*
X113100413Y-96210610D01*
X113100263Y-96210972D01*
X113097964Y-96215273D01*
X113097746Y-96215599D01*
X113092579Y-96221896D01*
X113079130Y-96242023D01*
X113069904Y-96264297D01*
X113065200Y-96287948D01*
X113065200Y-96312054D01*
X113069905Y-96335704D01*
X113079131Y-96357978D01*
X113092579Y-96378104D01*
X113097746Y-96384401D01*
X113097964Y-96384727D01*
X113100263Y-96389028D01*
X113100413Y-96389390D01*
X113101831Y-96394064D01*
X113101907Y-96394449D01*
X113102990Y-96405445D01*
X113103000Y-96405641D01*
X113103000Y-96462000D01*
X113102000Y-96463732D01*
X113100000Y-96463732D01*
X113099010Y-96462196D01*
X113097339Y-96445227D01*
X113092444Y-96429093D01*
X113084498Y-96414226D01*
X113073804Y-96401196D01*
X113060774Y-96390502D01*
X113045907Y-96382556D01*
X113029773Y-96377661D01*
X113012906Y-96376000D01*
X112262094Y-96376000D01*
X112245227Y-96377661D01*
X112229093Y-96382556D01*
X112214226Y-96390502D01*
X112201196Y-96401196D01*
X112190502Y-96414226D01*
X112182556Y-96429093D01*
X112177661Y-96445227D01*
X112176000Y-96462094D01*
X112176000Y-96637906D01*
X112177661Y-96654773D01*
X112182556Y-96670907D01*
X112190502Y-96685774D01*
X112201196Y-96698804D01*
X112214226Y-96709498D01*
X112229093Y-96717444D01*
X112245227Y-96722339D01*
X112262094Y-96724000D01*
X113012906Y-96724000D01*
X113029773Y-96722339D01*
X113045907Y-96717444D01*
X113060774Y-96709498D01*
X113073804Y-96698804D01*
X113084498Y-96685774D01*
X113092444Y-96670907D01*
X113097339Y-96654773D01*
X113099010Y-96637804D01*
X113100175Y-96636178D01*
X113102165Y-96636374D01*
X113103000Y-96638000D01*
X113103000Y-96694359D01*
X113102990Y-96694555D01*
X113101907Y-96705551D01*
X113101831Y-96705936D01*
X113100413Y-96710610D01*
X113100263Y-96710972D01*
X113097964Y-96715273D01*
X113097746Y-96715599D01*
X113092579Y-96721896D01*
X113079130Y-96742023D01*
X113069904Y-96764297D01*
X113065200Y-96787948D01*
X113065200Y-96812054D01*
X113069905Y-96835704D01*
X113079131Y-96857978D01*
X113092579Y-96878104D01*
X113097746Y-96884401D01*
X113097964Y-96884727D01*
X113100263Y-96889028D01*
X113100413Y-96889390D01*
X113101831Y-96894064D01*
X113101907Y-96894449D01*
X113102990Y-96905445D01*
X113103000Y-96905641D01*
X113103000Y-96962000D01*
X113102000Y-96963732D01*
X113100000Y-96963732D01*
X113099010Y-96962196D01*
X113097339Y-96945227D01*
X113092444Y-96929093D01*
X113084498Y-96914226D01*
X113073804Y-96901196D01*
X113060774Y-96890502D01*
X113045907Y-96882556D01*
X113029773Y-96877661D01*
X113012906Y-96876000D01*
X112262094Y-96876000D01*
X112245227Y-96877661D01*
X112229093Y-96882556D01*
X112214226Y-96890502D01*
X112201196Y-96901196D01*
X112190502Y-96914226D01*
X112182556Y-96929093D01*
X112177661Y-96945227D01*
X112176000Y-96962094D01*
X112176000Y-97137906D01*
X112177661Y-97154773D01*
X112182556Y-97170907D01*
X112190502Y-97185774D01*
X112201196Y-97198804D01*
X112214226Y-97209498D01*
X112229093Y-97217444D01*
X112245227Y-97222339D01*
X112262094Y-97224000D01*
X113012906Y-97224000D01*
X113029773Y-97222339D01*
X113045907Y-97217444D01*
X113060774Y-97209498D01*
X113073804Y-97198804D01*
X113084498Y-97185774D01*
X113092444Y-97170907D01*
X113097339Y-97154773D01*
X113099010Y-97137804D01*
X113100175Y-97136178D01*
X113102165Y-97136374D01*
X113103000Y-97138000D01*
X113103000Y-97194359D01*
X113102990Y-97194555D01*
X113101907Y-97205551D01*
X113101831Y-97205936D01*
X113100413Y-97210610D01*
X113100263Y-97210972D01*
X113097964Y-97215273D01*
X113097746Y-97215599D01*
X113092579Y-97221896D01*
X113079130Y-97242023D01*
X113069904Y-97264297D01*
X113065200Y-97287948D01*
X113065200Y-97312054D01*
X113069905Y-97335704D01*
X113079131Y-97357978D01*
X113092579Y-97378104D01*
X113097746Y-97384401D01*
X113097964Y-97384727D01*
X113100263Y-97389028D01*
X113100413Y-97389390D01*
X113101831Y-97394064D01*
X113101907Y-97394449D01*
X113102990Y-97405445D01*
X113103000Y-97405641D01*
X113103000Y-97462000D01*
X113102000Y-97463732D01*
X113100000Y-97463732D01*
X113099010Y-97462196D01*
X113097339Y-97445227D01*
X113092444Y-97429093D01*
X113084498Y-97414226D01*
X113073804Y-97401196D01*
X113060774Y-97390502D01*
X113045907Y-97382556D01*
X113029773Y-97377661D01*
X113012906Y-97376000D01*
X112262094Y-97376000D01*
X112245227Y-97377661D01*
X112229093Y-97382556D01*
X112214226Y-97390502D01*
X112201196Y-97401196D01*
X112190502Y-97414226D01*
X112182556Y-97429093D01*
X112177661Y-97445227D01*
X112176000Y-97462094D01*
X112176000Y-97637906D01*
X112177661Y-97654773D01*
X112182556Y-97670907D01*
X112190502Y-97685774D01*
X112201196Y-97698804D01*
X112214226Y-97709498D01*
X112229093Y-97717444D01*
X112245227Y-97722339D01*
X112262196Y-97724010D01*
X112263822Y-97725175D01*
X112263626Y-97727165D01*
X112262000Y-97728000D01*
X112251093Y-97728000D01*
X112227008Y-97730372D01*
X112203933Y-97737372D01*
X112182669Y-97748737D01*
X112164032Y-97764032D01*
X112148737Y-97782669D01*
X112137372Y-97803933D01*
X112130372Y-97827008D01*
X112128000Y-97851093D01*
X112128000Y-97862000D01*
X112127000Y-97863732D01*
X112125000Y-97863732D01*
X112124010Y-97862196D01*
X112122339Y-97845227D01*
X112117444Y-97829093D01*
X112109498Y-97814226D01*
X112098804Y-97801196D01*
X112085774Y-97790502D01*
X112070907Y-97782556D01*
X112054773Y-97777661D01*
X112037906Y-97776000D01*
X111862094Y-97776000D01*
X111845227Y-97777661D01*
X111829093Y-97782556D01*
X111814226Y-97790502D01*
X111801196Y-97801196D01*
X111790502Y-97814226D01*
X111782556Y-97829093D01*
X111777661Y-97845227D01*
X111776000Y-97862094D01*
X111776000Y-98612906D01*
X111777661Y-98629773D01*
X111782556Y-98645907D01*
X111790502Y-98660774D01*
X111801196Y-98673804D01*
X111814226Y-98684498D01*
X111829093Y-98692444D01*
X111845227Y-98697339D01*
X111862196Y-98699010D01*
X111863822Y-98700175D01*
X111863626Y-98702165D01*
X111862000Y-98703000D01*
X111805641Y-98703000D01*
X111805445Y-98702990D01*
X111794449Y-98701907D01*
X111794064Y-98701831D01*
X111789390Y-98700413D01*
X111789028Y-98700263D01*
X111784727Y-98697964D01*
X111784401Y-98697746D01*
X111778104Y-98692579D01*
X111757977Y-98679130D01*
X111735703Y-98669904D01*
X111712052Y-98665200D01*
X111687946Y-98665200D01*
X111664296Y-98669905D01*
X111642022Y-98679131D01*
X111621896Y-98692579D01*
X111615599Y-98697746D01*
X111615273Y-98697964D01*
X111610972Y-98700263D01*
X111610610Y-98700413D01*
X111605936Y-98701831D01*
X111605551Y-98701907D01*
X111594555Y-98702990D01*
X111594359Y-98703000D01*
X111538000Y-98703000D01*
X111536268Y-98702000D01*
X111536268Y-98700000D01*
X111537804Y-98699010D01*
X111554773Y-98697339D01*
X111570907Y-98692444D01*
X111585774Y-98684498D01*
X111598804Y-98673804D01*
X111609498Y-98660774D01*
X111617444Y-98645907D01*
X111622339Y-98629773D01*
X111624000Y-98612906D01*
X111624000Y-97862094D01*
X111622339Y-97845227D01*
X111617444Y-97829093D01*
X111609498Y-97814226D01*
X111598804Y-97801196D01*
X111585774Y-97790502D01*
X111570907Y-97782556D01*
X111554773Y-97777661D01*
X111537906Y-97776000D01*
X111362094Y-97776000D01*
X111345227Y-97777661D01*
X111329093Y-97782556D01*
X111314226Y-97790502D01*
X111301196Y-97801196D01*
X111290502Y-97814226D01*
X111282556Y-97829093D01*
X111277661Y-97845227D01*
X111276000Y-97862094D01*
X111276000Y-98612906D01*
X111277661Y-98629773D01*
X111282556Y-98645907D01*
X111290502Y-98660774D01*
X111301196Y-98673804D01*
X111314226Y-98684498D01*
X111329093Y-98692444D01*
X111345227Y-98697339D01*
X111362196Y-98699010D01*
X111363822Y-98700175D01*
X111363626Y-98702165D01*
X111362000Y-98703000D01*
X111305641Y-98703000D01*
X111305445Y-98702990D01*
X111294449Y-98701907D01*
X111294064Y-98701831D01*
X111289390Y-98700413D01*
X111289028Y-98700263D01*
X111284727Y-98697964D01*
X111284401Y-98697746D01*
X111278104Y-98692579D01*
X111257977Y-98679130D01*
X111235703Y-98669904D01*
X111212052Y-98665200D01*
X111187946Y-98665200D01*
X111164296Y-98669905D01*
X111142022Y-98679131D01*
X111121896Y-98692579D01*
X111115599Y-98697746D01*
X111115273Y-98697964D01*
X111110972Y-98700263D01*
X111110610Y-98700413D01*
X111105936Y-98701831D01*
X111105551Y-98701907D01*
X111094555Y-98702990D01*
X111094359Y-98703000D01*
X111038000Y-98703000D01*
X111036268Y-98702000D01*
X111036268Y-98700000D01*
X111037804Y-98699010D01*
X111054773Y-98697339D01*
X111070907Y-98692444D01*
X111085774Y-98684498D01*
X111098804Y-98673804D01*
X111109498Y-98660774D01*
X111117444Y-98645907D01*
X111122339Y-98629773D01*
X111124000Y-98612906D01*
X111124000Y-97862094D01*
X111122339Y-97845227D01*
X111117444Y-97829093D01*
X111109498Y-97814226D01*
X111098804Y-97801196D01*
X111085774Y-97790502D01*
X111070907Y-97782556D01*
X111054773Y-97777661D01*
X111037906Y-97776000D01*
X110862094Y-97776000D01*
X110845227Y-97777661D01*
X110829093Y-97782556D01*
X110814226Y-97790502D01*
X110801196Y-97801196D01*
X110790502Y-97814226D01*
X110782556Y-97829093D01*
X110777661Y-97845227D01*
X110776000Y-97862094D01*
X110776000Y-98612906D01*
X110777661Y-98629773D01*
X110782556Y-98645907D01*
X110790502Y-98660774D01*
X110801196Y-98673804D01*
X110814226Y-98684498D01*
X110829093Y-98692444D01*
X110845227Y-98697339D01*
X110862196Y-98699010D01*
X110863822Y-98700175D01*
X110863626Y-98702165D01*
X110862000Y-98703000D01*
X110805641Y-98703000D01*
X110805445Y-98702990D01*
X110794449Y-98701907D01*
X110794064Y-98701831D01*
X110789390Y-98700413D01*
X110789028Y-98700263D01*
X110784727Y-98697964D01*
X110784401Y-98697746D01*
X110778104Y-98692579D01*
X110757977Y-98679130D01*
X110735703Y-98669904D01*
X110712052Y-98665200D01*
X110687946Y-98665200D01*
X110664296Y-98669905D01*
X110642022Y-98679131D01*
X110621896Y-98692579D01*
X110615599Y-98697746D01*
X110615273Y-98697964D01*
X110610972Y-98700263D01*
X110610610Y-98700413D01*
X110605936Y-98701831D01*
X110605551Y-98701907D01*
X110594555Y-98702990D01*
X110594359Y-98703000D01*
X110538000Y-98703000D01*
X110536268Y-98702000D01*
X110536268Y-98700000D01*
X110537804Y-98699010D01*
X110554773Y-98697339D01*
X110570907Y-98692444D01*
X110585774Y-98684498D01*
X110598804Y-98673804D01*
X110609498Y-98660774D01*
X110617444Y-98645907D01*
X110622339Y-98629773D01*
X110624000Y-98612906D01*
X110624000Y-97862094D01*
X110622339Y-97845227D01*
X110617444Y-97829093D01*
X110609498Y-97814226D01*
X110598804Y-97801196D01*
X110585774Y-97790502D01*
X110570907Y-97782556D01*
X110554773Y-97777661D01*
X110537906Y-97776000D01*
X110362094Y-97776000D01*
X110345227Y-97777661D01*
X110329093Y-97782556D01*
X110314226Y-97790502D01*
X110301196Y-97801196D01*
X110290502Y-97814226D01*
X110282556Y-97829093D01*
X110277661Y-97845227D01*
X110276000Y-97862094D01*
X110276000Y-98612906D01*
X110277661Y-98629773D01*
X110282556Y-98645907D01*
X110290502Y-98660774D01*
X110301196Y-98673804D01*
X110314226Y-98684498D01*
X110329093Y-98692444D01*
X110345227Y-98697339D01*
X110362196Y-98699010D01*
X110363822Y-98700175D01*
X110363626Y-98702165D01*
X110362000Y-98703000D01*
X110305641Y-98703000D01*
X110305445Y-98702990D01*
X110294449Y-98701907D01*
X110294064Y-98701831D01*
X110289390Y-98700413D01*
X110289028Y-98700263D01*
X110284727Y-98697964D01*
X110284401Y-98697746D01*
X110278104Y-98692579D01*
X110257977Y-98679130D01*
X110235703Y-98669904D01*
X110212052Y-98665200D01*
X110187946Y-98665200D01*
X110164296Y-98669905D01*
X110142022Y-98679131D01*
X110121896Y-98692579D01*
X110115599Y-98697746D01*
X110115273Y-98697964D01*
X110110972Y-98700263D01*
X110110610Y-98700413D01*
X110105936Y-98701831D01*
X110105551Y-98701907D01*
X110094555Y-98702990D01*
X110094359Y-98703000D01*
X110038000Y-98703000D01*
X110036268Y-98702000D01*
X110036268Y-98700000D01*
X110037804Y-98699010D01*
X110054773Y-98697339D01*
X110070907Y-98692444D01*
X110085774Y-98684498D01*
X110098804Y-98673804D01*
X110109498Y-98660774D01*
X110117444Y-98645907D01*
X110122339Y-98629773D01*
X110124000Y-98612906D01*
X110124000Y-97862094D01*
X110122339Y-97845227D01*
X110117444Y-97829093D01*
X110109498Y-97814226D01*
X110098804Y-97801196D01*
X110085774Y-97790502D01*
X110070907Y-97782556D01*
X110054773Y-97777661D01*
X110037906Y-97776000D01*
X109862094Y-97776000D01*
X109845227Y-97777661D01*
X109829093Y-97782556D01*
X109814226Y-97790502D01*
X109801196Y-97801196D01*
X109790502Y-97814226D01*
X109782556Y-97829093D01*
X109777661Y-97845227D01*
X109776000Y-97862094D01*
X109776000Y-98612906D01*
X109777661Y-98629773D01*
X109782556Y-98645907D01*
X109790502Y-98660774D01*
X109801196Y-98673804D01*
X109814226Y-98684498D01*
X109829093Y-98692444D01*
X109845227Y-98697339D01*
X109862196Y-98699010D01*
X109863822Y-98700175D01*
X109863626Y-98702165D01*
X109862000Y-98703000D01*
X109805641Y-98703000D01*
X109805445Y-98702990D01*
X109794449Y-98701907D01*
X109794064Y-98701831D01*
X109789390Y-98700413D01*
X109789028Y-98700263D01*
X109784727Y-98697964D01*
X109784401Y-98697746D01*
X109778104Y-98692579D01*
X109757977Y-98679130D01*
X109735703Y-98669904D01*
X109712052Y-98665200D01*
X109687946Y-98665200D01*
X109664296Y-98669905D01*
X109642022Y-98679131D01*
X109621896Y-98692579D01*
X109615599Y-98697746D01*
X109615273Y-98697964D01*
X109610972Y-98700263D01*
X109610610Y-98700413D01*
X109605936Y-98701831D01*
X109605551Y-98701907D01*
X109594555Y-98702990D01*
X109594359Y-98703000D01*
X109538000Y-98703000D01*
X109536268Y-98702000D01*
X109536268Y-98700000D01*
X109537804Y-98699010D01*
X109554773Y-98697339D01*
X109570907Y-98692444D01*
X109585774Y-98684498D01*
X109598804Y-98673804D01*
X109609498Y-98660774D01*
X109617444Y-98645907D01*
X109622339Y-98629773D01*
X109624000Y-98612906D01*
X109624000Y-97862094D01*
X109622339Y-97845227D01*
X109617444Y-97829093D01*
X109609498Y-97814226D01*
X109598804Y-97801196D01*
X109585774Y-97790502D01*
X109570907Y-97782556D01*
X109554773Y-97777661D01*
X109537906Y-97776000D01*
X109362094Y-97776000D01*
X109345227Y-97777661D01*
X109329093Y-97782556D01*
X109314226Y-97790502D01*
X109301196Y-97801196D01*
X109290502Y-97814226D01*
X109282556Y-97829093D01*
X109277661Y-97845227D01*
X109275990Y-97862196D01*
X109274825Y-97863822D01*
X109272835Y-97863626D01*
X109272000Y-97862000D01*
X109272000Y-97851093D01*
X109269628Y-97827008D01*
X109262628Y-97803933D01*
X109251263Y-97782669D01*
X109235968Y-97764032D01*
X109217331Y-97748737D01*
X109196067Y-97737372D01*
X109172992Y-97730372D01*
X109148907Y-97728000D01*
X109138000Y-97728000D01*
X109136268Y-97727000D01*
X109136268Y-97725000D01*
X109137804Y-97724010D01*
X109154773Y-97722339D01*
X109170907Y-97717444D01*
X109185774Y-97709498D01*
X109198804Y-97698804D01*
X109209498Y-97685774D01*
X109217444Y-97670907D01*
X109222339Y-97654773D01*
X109224000Y-97637906D01*
X109224000Y-97462094D01*
X109222339Y-97445227D01*
X109217444Y-97429093D01*
X109209498Y-97414226D01*
X109198804Y-97401196D01*
X109185774Y-97390502D01*
X109170907Y-97382556D01*
X109154773Y-97377661D01*
X109137906Y-97376000D01*
X108387094Y-97376000D01*
X108370227Y-97377661D01*
X108354093Y-97382556D01*
X108339226Y-97390502D01*
X108326196Y-97401196D01*
X108315502Y-97414226D01*
X108307556Y-97429093D01*
X108302661Y-97445227D01*
X108300990Y-97462196D01*
X108299825Y-97463822D01*
X108297835Y-97463626D01*
X108297000Y-97462000D01*
X108297000Y-97405641D01*
X108297010Y-97405445D01*
X108298093Y-97394449D01*
X108298169Y-97394064D01*
X108299587Y-97389390D01*
X108299737Y-97389028D01*
X108302036Y-97384727D01*
X108302254Y-97384401D01*
X108307421Y-97378104D01*
X108320870Y-97357977D01*
X108330096Y-97335703D01*
X108334800Y-97312052D01*
X108334800Y-97287946D01*
X108330095Y-97264296D01*
X108320869Y-97242022D01*
X108307421Y-97221896D01*
X108302254Y-97215599D01*
X108302036Y-97215273D01*
X108299737Y-97210972D01*
X108299587Y-97210610D01*
X108298169Y-97205936D01*
X108298093Y-97205551D01*
X108297010Y-97194555D01*
X108297000Y-97194359D01*
X108297000Y-97138000D01*
X108298000Y-97136268D01*
X108300000Y-97136268D01*
X108300990Y-97137804D01*
X108302661Y-97154773D01*
X108307556Y-97170907D01*
X108315502Y-97185774D01*
X108326196Y-97198804D01*
X108339226Y-97209498D01*
X108354093Y-97217444D01*
X108370227Y-97222339D01*
X108387094Y-97224000D01*
X109137906Y-97224000D01*
X109154773Y-97222339D01*
X109170907Y-97217444D01*
X109185774Y-97209498D01*
X109198804Y-97198804D01*
X109209498Y-97185774D01*
X109217444Y-97170907D01*
X109222339Y-97154773D01*
X109224000Y-97137906D01*
X109224000Y-96962094D01*
X109222339Y-96945227D01*
X109217444Y-96929093D01*
X109209498Y-96914226D01*
X109198804Y-96901196D01*
X109185774Y-96890502D01*
X109170907Y-96882556D01*
X109154773Y-96877661D01*
X109137906Y-96876000D01*
X108387094Y-96876000D01*
X108370227Y-96877661D01*
X108354093Y-96882556D01*
X108339226Y-96890502D01*
X108326196Y-96901196D01*
X108315502Y-96914226D01*
X108307556Y-96929093D01*
X108302661Y-96945227D01*
X108300990Y-96962196D01*
X108299825Y-96963822D01*
X108297835Y-96963626D01*
X108297000Y-96962000D01*
X108297000Y-96905641D01*
X108297010Y-96905445D01*
X108298093Y-96894449D01*
X108298169Y-96894064D01*
X108299587Y-96889390D01*
X108299737Y-96889028D01*
X108302036Y-96884727D01*
X108302254Y-96884401D01*
X108307421Y-96878104D01*
X108320870Y-96857977D01*
X108330096Y-96835703D01*
X108334800Y-96812052D01*
X108334800Y-96787946D01*
X108330095Y-96764296D01*
X108320869Y-96742022D01*
X108307421Y-96721896D01*
X108302254Y-96715599D01*
X108302036Y-96715273D01*
X108299737Y-96710972D01*
X108299587Y-96710610D01*
X108298169Y-96705936D01*
X108298093Y-96705551D01*
X108297010Y-96694555D01*
X108297000Y-96694359D01*
X108297000Y-96638000D01*
X108298000Y-96636268D01*
X108300000Y-96636268D01*
X108300990Y-96637804D01*
X108302661Y-96654773D01*
X108307556Y-96670907D01*
X108315502Y-96685774D01*
X108326196Y-96698804D01*
X108339226Y-96709498D01*
X108354093Y-96717444D01*
X108370227Y-96722339D01*
X108387094Y-96724000D01*
X109137906Y-96724000D01*
X109154773Y-96722339D01*
X109170907Y-96717444D01*
X109185774Y-96709498D01*
X109198804Y-96698804D01*
X109209498Y-96685774D01*
X109217444Y-96670907D01*
X109222339Y-96654773D01*
X109224000Y-96637906D01*
X109224000Y-96462094D01*
X109222339Y-96445227D01*
X109217444Y-96429093D01*
X109209498Y-96414226D01*
X109198804Y-96401196D01*
X109185774Y-96390502D01*
X109170907Y-96382556D01*
X109154773Y-96377661D01*
X109137906Y-96376000D01*
X108387094Y-96376000D01*
X108370227Y-96377661D01*
X108354093Y-96382556D01*
X108339226Y-96390502D01*
X108326196Y-96401196D01*
X108315502Y-96414226D01*
X108307556Y-96429093D01*
X108302661Y-96445227D01*
X108300990Y-96462196D01*
X108299825Y-96463822D01*
X108297835Y-96463626D01*
X108297000Y-96462000D01*
X108297000Y-96405641D01*
X108297010Y-96405445D01*
X108298093Y-96394449D01*
X108298169Y-96394064D01*
X108299587Y-96389390D01*
X108299737Y-96389028D01*
X108302036Y-96384727D01*
X108302254Y-96384401D01*
X108307421Y-96378104D01*
X108320870Y-96357977D01*
X108330096Y-96335703D01*
X108334800Y-96312052D01*
X108334800Y-96287946D01*
X108330095Y-96264296D01*
X108320869Y-96242022D01*
X108307421Y-96221896D01*
X108302254Y-96215599D01*
X108302036Y-96215273D01*
X108299737Y-96210972D01*
X108299587Y-96210610D01*
X108298169Y-96205936D01*
X108298093Y-96205551D01*
X108297010Y-96194555D01*
X108297000Y-96194359D01*
X108297000Y-96138000D01*
X108298000Y-96136268D01*
X108300000Y-96136268D01*
X108300990Y-96137804D01*
X108302661Y-96154773D01*
X108307556Y-96170907D01*
X108315502Y-96185774D01*
X108326196Y-96198804D01*
X108339226Y-96209498D01*
X108354093Y-96217444D01*
X108370227Y-96222339D01*
X108387094Y-96224000D01*
X109137906Y-96224000D01*
X109154773Y-96222339D01*
X109170907Y-96217444D01*
X109185774Y-96209498D01*
X109198804Y-96198804D01*
X109209498Y-96185774D01*
X109217444Y-96170907D01*
X109222339Y-96154773D01*
X109224000Y-96137906D01*
X109224000Y-95962094D01*
X109222339Y-95945227D01*
X109217444Y-95929093D01*
X109209498Y-95914226D01*
X109198804Y-95901196D01*
X109185774Y-95890502D01*
X109170907Y-95882556D01*
X109154773Y-95877661D01*
X109137906Y-95876000D01*
X108387094Y-95876000D01*
X108370227Y-95877661D01*
X108354093Y-95882556D01*
X108339226Y-95890502D01*
X108326196Y-95901196D01*
X108315502Y-95914226D01*
X108307556Y-95929093D01*
X108302661Y-95945227D01*
X108300990Y-95962196D01*
X108299825Y-95963822D01*
X108297835Y-95963626D01*
X108297000Y-95962000D01*
X108297000Y-95905641D01*
X108297010Y-95905445D01*
X108298093Y-95894449D01*
X108298169Y-95894064D01*
X108299587Y-95889390D01*
X108299737Y-95889028D01*
X108302036Y-95884727D01*
X108302254Y-95884401D01*
X108307421Y-95878104D01*
X108320870Y-95857977D01*
X108330096Y-95835703D01*
X108334800Y-95812052D01*
X108334800Y-95787946D01*
X108330095Y-95764296D01*
X108320869Y-95742022D01*
X108307421Y-95721896D01*
X108302254Y-95715599D01*
X108302036Y-95715273D01*
X108299737Y-95710972D01*
X108299587Y-95710610D01*
X108298169Y-95705936D01*
X108298093Y-95705551D01*
X108297010Y-95694555D01*
X108297000Y-95694359D01*
X108297000Y-95638000D01*
X108298000Y-95636268D01*
X108300000Y-95636268D01*
X108300990Y-95637804D01*
X108302661Y-95654773D01*
X108307556Y-95670907D01*
X108315502Y-95685774D01*
X108326196Y-95698804D01*
X108339226Y-95709498D01*
X108354093Y-95717444D01*
X108370227Y-95722339D01*
X108387094Y-95724000D01*
X109137906Y-95724000D01*
X109154773Y-95722339D01*
X109170907Y-95717444D01*
X109185774Y-95709498D01*
X109198804Y-95698804D01*
X109209498Y-95685774D01*
X109217444Y-95670907D01*
X109222339Y-95654773D01*
X109224000Y-95637906D01*
X109224000Y-95462094D01*
X109222339Y-95445227D01*
X109217444Y-95429093D01*
X109209498Y-95414226D01*
X109198804Y-95401196D01*
X109185774Y-95390502D01*
X109170907Y-95382556D01*
X109154773Y-95377661D01*
X109137906Y-95376000D01*
X108387094Y-95376000D01*
X108370227Y-95377661D01*
X108354093Y-95382556D01*
X108339226Y-95390502D01*
X108326196Y-95401196D01*
X108315502Y-95414226D01*
X108307556Y-95429093D01*
X108302661Y-95445227D01*
X108300990Y-95462196D01*
X108299825Y-95463822D01*
X108297835Y-95463626D01*
X108297000Y-95462000D01*
X108297000Y-95405641D01*
X108297010Y-95405445D01*
X108298093Y-95394449D01*
X108298169Y-95394064D01*
X108299587Y-95389390D01*
X108299737Y-95389028D01*
X108302036Y-95384727D01*
X108302254Y-95384401D01*
X108307421Y-95378104D01*
X108320870Y-95357977D01*
X108330096Y-95335703D01*
X108334800Y-95312052D01*
X108334800Y-95287946D01*
X108330095Y-95264296D01*
X108320869Y-95242022D01*
X108307421Y-95221896D01*
X108302254Y-95215599D01*
X108302036Y-95215273D01*
X108299737Y-95210972D01*
X108299587Y-95210610D01*
X108298169Y-95205936D01*
X108298093Y-95205551D01*
X108297010Y-95194555D01*
X108297000Y-95194359D01*
X108297000Y-95138000D01*
X108298000Y-95136268D01*
X108300000Y-95136268D01*
X108300990Y-95137804D01*
X108302661Y-95154773D01*
X108307556Y-95170907D01*
X108315502Y-95185774D01*
X108326196Y-95198804D01*
X108339226Y-95209498D01*
X108354093Y-95217444D01*
X108370227Y-95222339D01*
X108387094Y-95224000D01*
X109137906Y-95224000D01*
X109154773Y-95222339D01*
X109170907Y-95217444D01*
X109185774Y-95209498D01*
X109198804Y-95198804D01*
X109209498Y-95185774D01*
X109217444Y-95170907D01*
X109222339Y-95154773D01*
X109224000Y-95137906D01*
X109224000Y-94962094D01*
X109222908Y-94951000D01*
X109351000Y-94951000D01*
X109351000Y-97649000D01*
X112049000Y-97649000D01*
X112049000Y-94951000D01*
X109351000Y-94951000D01*
X109222908Y-94951000D01*
X109222339Y-94945227D01*
X109217444Y-94929093D01*
X109209498Y-94914226D01*
X109198804Y-94901196D01*
X109185774Y-94890502D01*
X109170907Y-94882556D01*
X109154773Y-94877661D01*
X109137804Y-94875990D01*
X109136178Y-94874825D01*
X109136374Y-94872835D01*
X109138000Y-94872000D01*
X109148907Y-94872000D01*
X109172992Y-94869628D01*
X109196067Y-94862628D01*
X109217331Y-94851263D01*
X109235968Y-94835968D01*
X109251263Y-94817331D01*
X109262628Y-94796067D01*
X109269628Y-94772992D01*
X109272000Y-94748907D01*
X109272000Y-94738000D01*
X109273000Y-94736268D01*
X109275000Y-94736268D01*
X109275990Y-94737804D01*
X109277661Y-94754773D01*
X109282556Y-94770907D01*
X109290502Y-94785774D01*
X109301196Y-94798804D01*
X109314226Y-94809498D01*
X109329093Y-94817444D01*
X109345227Y-94822339D01*
X109362094Y-94824000D01*
X109537906Y-94824000D01*
X109554773Y-94822339D01*
X109570907Y-94817444D01*
X109585774Y-94809498D01*
X109598804Y-94798804D01*
X109609498Y-94785774D01*
X109617444Y-94770907D01*
X109622339Y-94754773D01*
X109624000Y-94737906D01*
X109624000Y-93987094D01*
X109622339Y-93970227D01*
X109617444Y-93954093D01*
X109609498Y-93939226D01*
X109598804Y-93926196D01*
X109585774Y-93915502D01*
X109570907Y-93907556D01*
X109554773Y-93902661D01*
X109537804Y-93900990D01*
X109536178Y-93899825D01*
X109536374Y-93897835D01*
X109538000Y-93897000D01*
X109594359Y-93897000D01*
X109594555Y-93897010D01*
G37*
M02*
