M48
; DRILL file {KiCad (5.1.9)-1} date 04/20/21 17:01:34
; FORMAT={-:-/ absolute / metric / decimal}
; #@! TF.CreationDate,2021-04-20T17:01:34+02:00
; #@! TF.GenerationSoftware,Kicad,Pcbnew,(5.1.9)-1
; #@! TF.FileFunction,Plated,1,2,PTH
FMAT,2
METRIC
T1C0.300
T2C0.400
T3C0.600
T4C0.700
T5C0.850
T6C0.890
T7C0.950
T8C1.000
T9C1.570
T10C2.300
%
G90
G05
T1
X124.732Y-100.968
X124.732Y-102.068
X124.732Y-103.368
X124.732Y-104.568
X125.932Y-100.968
X125.932Y-102.068
X125.932Y-103.368
X125.932Y-104.568
T2
X85.0Y-92.5
X85.0Y-95.0
X85.0Y-97.5
X85.0Y-100.0
X85.0Y-102.5
X85.0Y-105.0
X85.0Y-117.5
X85.0Y-120.0
X87.5Y-92.5
X87.5Y-95.0
X87.5Y-120.0
X88.0Y-108.0
X88.0Y-109.0
X88.0Y-110.0
X90.0Y-92.5
X90.0Y-95.0
X90.0Y-120.0
X92.5Y-92.5
X92.5Y-95.0
X92.5Y-120.0
X94.1Y-101.5
X95.0Y-92.5
X95.0Y-95.0
X95.0Y-97.5
X95.0Y-112.5
X95.0Y-115.0
X95.0Y-120.0
X95.7Y-99.7
X95.7Y-101.5
X97.0Y-106.6
X97.5Y-117.5
X97.5Y-120.0
X98.3Y-95.6
X98.3Y-96.6
X98.3Y-97.6
X99.3Y-94.6
X99.4Y-100.7
X100.0Y-92.4
X100.0Y-101.3
X100.0Y-117.5
X100.0Y-120.0
X100.047Y-93.399
X100.7Y-100.6
X101.1Y-94.6
X101.1Y-95.6
X101.1Y-96.6
X101.1Y-97.6
X101.3Y-111.8
X102.5Y-111.8
X102.5Y-113.4
X102.5Y-117.5
X102.5Y-120.0
X103.6Y-102.3
X103.6Y-103.3
X103.8Y-111.8
X104.5Y-109.7
X104.5Y-114.1
X104.5Y-117.5
X104.6Y-102.3
X104.6Y-103.3
X106.1Y-100.3
X107.2Y-98.3
X107.226Y-94.85
X107.613Y-97.287
X108.1Y-109.7
X108.2Y-94.124
X108.274Y-98.073
X108.6Y-117.5
X108.968Y-98.793
X109.725Y-93.108
X110.5Y-117.5
X110.707Y-92.693
X110.8Y-96.3
X111.4Y-111.9
X111.4Y-116.6
X111.5Y-93.35
X111.5Y-97.1
X112.8Y-98.9
X113.5Y-102.5
X113.8Y-94.1
X113.875Y-96.05
X114.175Y-97.004
X114.7Y-99.6
X114.82Y-95.306
X115.4Y-91.9
X117.3Y-99.2
X117.3Y-101.1
X117.5Y-94.9
X117.9Y-96.6
X118.0Y-105.3
X118.0Y-114.0
X118.4Y-92.1
X118.4Y-120.0
X118.7Y-99.2
X118.7Y-101.1
X123.7Y-92.1
X123.7Y-120.0
X126.0Y-108.0
X126.0Y-109.0
X126.0Y-117.0
X126.0Y-118.0
X127.0Y-108.0
X127.0Y-109.0
X127.0Y-117.0
X127.0Y-118.0
X128.0Y-108.0
X128.0Y-109.0
X128.0Y-117.0
X128.0Y-118.0
X128.0Y-118.0
X129.0Y-108.0
X129.0Y-109.0
X129.0Y-110.0
X129.0Y-111.0
X129.0Y-112.0
X129.0Y-113.0
X129.0Y-114.0
X129.0Y-115.0
X129.0Y-116.0
X129.0Y-117.0
X129.0Y-118.0
X130.0Y-108.0
X130.0Y-109.0
X130.0Y-110.0
X130.0Y-111.0
X130.0Y-112.0
X130.0Y-113.0
X130.0Y-114.0
X130.0Y-115.0
X130.0Y-116.0
X130.0Y-117.0
X130.0Y-118.0
X132.0Y-105.0
X132.0Y-105.9
X133.0Y-105.0
X133.0Y-105.9
X133.0Y-108.0
X133.0Y-109.0
X133.0Y-110.0
X133.0Y-111.0
X133.0Y-112.0
X133.0Y-113.0
X133.0Y-114.0
X133.0Y-115.0
X133.0Y-116.0
X133.0Y-117.0
X133.0Y-118.0
X134.0Y-105.0
X134.0Y-105.9
X134.0Y-108.0
X134.0Y-109.0
X134.0Y-110.0
X134.0Y-111.0
X134.0Y-112.0
X134.0Y-113.0
X134.0Y-114.0
X134.0Y-115.0
X134.0Y-116.0
X134.0Y-117.0
X134.0Y-118.0
X135.0Y-117.0
X135.0Y-118.0
X135.032Y-107.968
X135.032Y-108.968
X136.0Y-108.0
X136.0Y-109.0
X136.0Y-117.0
X136.0Y-118.0
X136.1Y-103.8
X136.1Y-105.9
X137.0Y-108.0
X137.0Y-109.0
X137.0Y-117.0
X137.0Y-118.0
X137.4Y-105.9
X138.2Y-99.3
X138.2Y-101.6
X138.2Y-103.8
X138.9Y-109.1
X139.5Y-99.2
X139.5Y-100.1
X139.5Y-101.1
X139.5Y-102.1
X139.5Y-103.1
X140.5Y-103.1
X141.5Y-103.1
X142.5Y-103.1
X143.5Y-103.1
X143.6Y-119.7
X144.5Y-103.1
X145.5Y-99.2
X145.5Y-100.1
X145.5Y-101.1
X145.5Y-102.1
X145.5Y-103.1
X146.3Y-113.3
X146.3Y-117.6
X146.9Y-100.5
X146.9Y-104.5
X146.9Y-110.2
X147.6Y-97.3
X149.5Y-98.2
X149.5Y-103.3
X149.9Y-115.4
X150.4Y-99.4
X151.9Y-103.3
X151.913Y-102.287
X153.8Y-110.3
X154.6Y-117.6
X155.653Y-101.347
X155.7Y-102.5
X155.7Y-103.6
X156.4Y-98.5
X156.6Y-110.3
X156.7Y-105.5
X156.7Y-114.6
X157.42Y-115.32
X159.9Y-108.6
X159.9Y-110.0
X160.2Y-97.6
X161.0Y-103.2
X161.0Y-107.7
X161.1Y-105.7
X161.59Y-104.272
X162.2Y-97.4
X162.5Y-109.3
X163.0Y-116.8
X163.1Y-106.4
X163.9Y-119.7
X164.0Y-110.9
X164.3Y-105.4
X165.7Y-97.7
X166.9Y-107.8
X166.9Y-108.8
X166.9Y-109.8
X167.8Y-119.7
X168.6Y-110.0
X168.7Y-115.7
X168.9Y-105.3
X170.2Y-112.7
X171.2Y-102.4
X171.2Y-107.6
X172.0Y-119.7
X172.5Y-112.3
X175.0Y-105.3
X175.0Y-109.5
X175.9Y-114.5
X175.9Y-119.7
X178.1Y-111.4
X180.5Y-105.3
X180.8Y-110.0
X181.3Y-112.6
X181.3Y-114.5
T4
X179.332Y-106.828
X179.332Y-109.368
T5
X156.22Y-116.916
X161.22Y-116.916
T6
X90.532Y-103.532
X90.532Y-105.564
X90.532Y-107.596
X90.532Y-109.628
X92.312Y-102.516
X92.312Y-104.548
X92.312Y-106.58
X92.312Y-108.612
X97.132Y-99.208
X97.132Y-101.498
X97.132Y-110.638
X97.132Y-112.928
T7
X155.22Y-111.798
X157.72Y-111.798
X159.72Y-111.798
X162.22Y-111.798
T8
X125.902Y-93.298
X125.902Y-95.838
X128.442Y-93.298
X128.442Y-95.838
X130.982Y-93.298
X130.982Y-95.838
X133.522Y-93.298
X133.522Y-95.838
X136.062Y-93.298
X136.062Y-95.838
X138.602Y-93.298
X138.602Y-95.838
X141.142Y-93.298
X141.142Y-95.838
X143.682Y-93.298
X143.682Y-95.838
X146.222Y-93.298
X146.222Y-95.838
X148.762Y-93.298
X148.762Y-95.838
X151.302Y-93.298
X151.302Y-95.838
X153.842Y-93.298
X153.842Y-95.838
X156.382Y-93.298
X156.382Y-95.838
X158.922Y-93.298
X158.922Y-95.838
X161.462Y-93.298
X161.462Y-95.838
X164.002Y-93.298
X164.002Y-95.838
X166.542Y-93.298
X166.542Y-95.838
X169.082Y-93.298
X169.082Y-95.838
X171.622Y-93.298
X171.622Y-95.838
X173.032Y-99.468
X173.032Y-103.068
X174.162Y-93.298
X174.162Y-95.838
X175.572Y-99.468
X175.572Y-103.068
X178.112Y-99.468
X178.112Y-103.068
X180.652Y-99.468
X180.652Y-103.068
T9
X91.422Y-97.938
X91.422Y-114.198
T10
X152.15Y-114.508
X165.29Y-114.508
T3
X155.22Y-119.966G85X155.22Y-119.266
G05
X162.22Y-119.266G85X162.22Y-119.966
G05
T0
M30
