G04 #@! TF.GenerationSoftware,KiCad,Pcbnew,(5.1.10)-1*
G04 #@! TF.CreationDate,2021-09-04T12:41:49+02:00*
G04 #@! TF.ProjectId,POE_hat_and_USB,504f455f-6861-4745-9f61-6e645f555342,1.0*
G04 #@! TF.SameCoordinates,Original*
G04 #@! TF.FileFunction,Paste,Top*
G04 #@! TF.FilePolarity,Positive*
%FSLAX46Y46*%
G04 Gerber Fmt 4.6, Leading zero omitted, Abs format (unit mm)*
G04 Created by KiCad (PCBNEW (5.1.10)-1) date 2021-09-04 12:41:49*
%MOMM*%
%LPD*%
G01*
G04 APERTURE LIST*
%ADD10R,5.000000X5.000000*%
%ADD11R,1.200000X1.400000*%
%ADD12R,1.700000X0.760000*%
G04 APERTURE END LIST*
D10*
X167600000Y-101400000D03*
X167600000Y-117400000D03*
X127600000Y-101400000D03*
X127600000Y-117400000D03*
D11*
X113145200Y-116540400D03*
X113145200Y-114340400D03*
X114845200Y-114340400D03*
X114845200Y-116540400D03*
D12*
X110800000Y-110513000D03*
X110800000Y-109243000D03*
X110800000Y-107973000D03*
X110800000Y-106703000D03*
X110800000Y-102893000D03*
X110800000Y-105433000D03*
X110800000Y-104163000D03*
X110800000Y-101623000D03*
X102000000Y-107973000D03*
X102000000Y-104163000D03*
X102000000Y-101623000D03*
X102000000Y-109243000D03*
X102000000Y-102893000D03*
X102000000Y-106703000D03*
X102000000Y-110513000D03*
X102000000Y-105433000D03*
G36*
G01*
X105662000Y-115372000D02*
X106002000Y-115372000D01*
G75*
G02*
X106142000Y-115512000I0J-140000D01*
G01*
X106142000Y-115792000D01*
G75*
G02*
X106002000Y-115932000I-140000J0D01*
G01*
X105662000Y-115932000D01*
G75*
G02*
X105522000Y-115792000I0J140000D01*
G01*
X105522000Y-115512000D01*
G75*
G02*
X105662000Y-115372000I140000J0D01*
G01*
G37*
G36*
G01*
X105662000Y-116332000D02*
X106002000Y-116332000D01*
G75*
G02*
X106142000Y-116472000I0J-140000D01*
G01*
X106142000Y-116752000D01*
G75*
G02*
X106002000Y-116892000I-140000J0D01*
G01*
X105662000Y-116892000D01*
G75*
G02*
X105522000Y-116752000I0J140000D01*
G01*
X105522000Y-116472000D01*
G75*
G02*
X105662000Y-116332000I140000J0D01*
G01*
G37*
G36*
G01*
X106430000Y-118532000D02*
X106770000Y-118532000D01*
G75*
G02*
X106910000Y-118672000I0J-140000D01*
G01*
X106910000Y-118952000D01*
G75*
G02*
X106770000Y-119092000I-140000J0D01*
G01*
X106430000Y-119092000D01*
G75*
G02*
X106290000Y-118952000I0J140000D01*
G01*
X106290000Y-118672000D01*
G75*
G02*
X106430000Y-118532000I140000J0D01*
G01*
G37*
G36*
G01*
X106430000Y-117572000D02*
X106770000Y-117572000D01*
G75*
G02*
X106910000Y-117712000I0J-140000D01*
G01*
X106910000Y-117992000D01*
G75*
G02*
X106770000Y-118132000I-140000J0D01*
G01*
X106430000Y-118132000D01*
G75*
G02*
X106290000Y-117992000I0J140000D01*
G01*
X106290000Y-117712000D01*
G75*
G02*
X106430000Y-117572000I140000J0D01*
G01*
G37*
G36*
G01*
X107162000Y-116332000D02*
X107502000Y-116332000D01*
G75*
G02*
X107642000Y-116472000I0J-140000D01*
G01*
X107642000Y-116752000D01*
G75*
G02*
X107502000Y-116892000I-140000J0D01*
G01*
X107162000Y-116892000D01*
G75*
G02*
X107022000Y-116752000I0J140000D01*
G01*
X107022000Y-116472000D01*
G75*
G02*
X107162000Y-116332000I140000J0D01*
G01*
G37*
G36*
G01*
X107162000Y-115372000D02*
X107502000Y-115372000D01*
G75*
G02*
X107642000Y-115512000I0J-140000D01*
G01*
X107642000Y-115792000D01*
G75*
G02*
X107502000Y-115932000I-140000J0D01*
G01*
X107162000Y-115932000D01*
G75*
G02*
X107022000Y-115792000I0J140000D01*
G01*
X107022000Y-115512000D01*
G75*
G02*
X107162000Y-115372000I140000J0D01*
G01*
G37*
G36*
G01*
X104000000Y-120170000D02*
X104000000Y-119830000D01*
G75*
G02*
X104140000Y-119690000I140000J0D01*
G01*
X104420000Y-119690000D01*
G75*
G02*
X104560000Y-119830000I0J-140000D01*
G01*
X104560000Y-120170000D01*
G75*
G02*
X104420000Y-120310000I-140000J0D01*
G01*
X104140000Y-120310000D01*
G75*
G02*
X104000000Y-120170000I0J140000D01*
G01*
G37*
G36*
G01*
X103040000Y-120170000D02*
X103040000Y-119830000D01*
G75*
G02*
X103180000Y-119690000I140000J0D01*
G01*
X103460000Y-119690000D01*
G75*
G02*
X103600000Y-119830000I0J-140000D01*
G01*
X103600000Y-120170000D01*
G75*
G02*
X103460000Y-120310000I-140000J0D01*
G01*
X103180000Y-120310000D01*
G75*
G02*
X103040000Y-120170000I0J140000D01*
G01*
G37*
G36*
G01*
X109304000Y-117572000D02*
X109644000Y-117572000D01*
G75*
G02*
X109784000Y-117712000I0J-140000D01*
G01*
X109784000Y-117992000D01*
G75*
G02*
X109644000Y-118132000I-140000J0D01*
G01*
X109304000Y-118132000D01*
G75*
G02*
X109164000Y-117992000I0J140000D01*
G01*
X109164000Y-117712000D01*
G75*
G02*
X109304000Y-117572000I140000J0D01*
G01*
G37*
G36*
G01*
X109304000Y-118532000D02*
X109644000Y-118532000D01*
G75*
G02*
X109784000Y-118672000I0J-140000D01*
G01*
X109784000Y-118952000D01*
G75*
G02*
X109644000Y-119092000I-140000J0D01*
G01*
X109304000Y-119092000D01*
G75*
G02*
X109164000Y-118952000I0J140000D01*
G01*
X109164000Y-118672000D01*
G75*
G02*
X109304000Y-118532000I140000J0D01*
G01*
G37*
G36*
G01*
X101876200Y-98770000D02*
X101876200Y-98430000D01*
G75*
G02*
X102016200Y-98290000I140000J0D01*
G01*
X102296200Y-98290000D01*
G75*
G02*
X102436200Y-98430000I0J-140000D01*
G01*
X102436200Y-98770000D01*
G75*
G02*
X102296200Y-98910000I-140000J0D01*
G01*
X102016200Y-98910000D01*
G75*
G02*
X101876200Y-98770000I0J140000D01*
G01*
G37*
G36*
G01*
X100916200Y-98770000D02*
X100916200Y-98430000D01*
G75*
G02*
X101056200Y-98290000I140000J0D01*
G01*
X101336200Y-98290000D01*
G75*
G02*
X101476200Y-98430000I0J-140000D01*
G01*
X101476200Y-98770000D01*
G75*
G02*
X101336200Y-98910000I-140000J0D01*
G01*
X101056200Y-98910000D01*
G75*
G02*
X100916200Y-98770000I0J140000D01*
G01*
G37*
G36*
G01*
X116326100Y-101739700D02*
X115986100Y-101739700D01*
G75*
G02*
X115846100Y-101599700I0J140000D01*
G01*
X115846100Y-101319700D01*
G75*
G02*
X115986100Y-101179700I140000J0D01*
G01*
X116326100Y-101179700D01*
G75*
G02*
X116466100Y-101319700I0J-140000D01*
G01*
X116466100Y-101599700D01*
G75*
G02*
X116326100Y-101739700I-140000J0D01*
G01*
G37*
G36*
G01*
X116326100Y-102699700D02*
X115986100Y-102699700D01*
G75*
G02*
X115846100Y-102559700I0J140000D01*
G01*
X115846100Y-102279700D01*
G75*
G02*
X115986100Y-102139700I140000J0D01*
G01*
X116326100Y-102139700D01*
G75*
G02*
X116466100Y-102279700I0J-140000D01*
G01*
X116466100Y-102559700D01*
G75*
G02*
X116326100Y-102699700I-140000J0D01*
G01*
G37*
G36*
G01*
X115326100Y-102699700D02*
X114986100Y-102699700D01*
G75*
G02*
X114846100Y-102559700I0J140000D01*
G01*
X114846100Y-102279700D01*
G75*
G02*
X114986100Y-102139700I140000J0D01*
G01*
X115326100Y-102139700D01*
G75*
G02*
X115466100Y-102279700I0J-140000D01*
G01*
X115466100Y-102559700D01*
G75*
G02*
X115326100Y-102699700I-140000J0D01*
G01*
G37*
G36*
G01*
X115326100Y-101739700D02*
X114986100Y-101739700D01*
G75*
G02*
X114846100Y-101599700I0J140000D01*
G01*
X114846100Y-101319700D01*
G75*
G02*
X114986100Y-101179700I140000J0D01*
G01*
X115326100Y-101179700D01*
G75*
G02*
X115466100Y-101319700I0J-140000D01*
G01*
X115466100Y-101599700D01*
G75*
G02*
X115326100Y-101739700I-140000J0D01*
G01*
G37*
G36*
G01*
X119440400Y-102712400D02*
X119100400Y-102712400D01*
G75*
G02*
X118960400Y-102572400I0J140000D01*
G01*
X118960400Y-102292400D01*
G75*
G02*
X119100400Y-102152400I140000J0D01*
G01*
X119440400Y-102152400D01*
G75*
G02*
X119580400Y-102292400I0J-140000D01*
G01*
X119580400Y-102572400D01*
G75*
G02*
X119440400Y-102712400I-140000J0D01*
G01*
G37*
G36*
G01*
X119440400Y-101752400D02*
X119100400Y-101752400D01*
G75*
G02*
X118960400Y-101612400I0J140000D01*
G01*
X118960400Y-101332400D01*
G75*
G02*
X119100400Y-101192400I140000J0D01*
G01*
X119440400Y-101192400D01*
G75*
G02*
X119580400Y-101332400I0J-140000D01*
G01*
X119580400Y-101612400D01*
G75*
G02*
X119440400Y-101752400I-140000J0D01*
G01*
G37*
G36*
G01*
X118440400Y-102712400D02*
X118100400Y-102712400D01*
G75*
G02*
X117960400Y-102572400I0J140000D01*
G01*
X117960400Y-102292400D01*
G75*
G02*
X118100400Y-102152400I140000J0D01*
G01*
X118440400Y-102152400D01*
G75*
G02*
X118580400Y-102292400I0J-140000D01*
G01*
X118580400Y-102572400D01*
G75*
G02*
X118440400Y-102712400I-140000J0D01*
G01*
G37*
G36*
G01*
X118440400Y-101752400D02*
X118100400Y-101752400D01*
G75*
G02*
X117960400Y-101612400I0J140000D01*
G01*
X117960400Y-101332400D01*
G75*
G02*
X118100400Y-101192400I140000J0D01*
G01*
X118440400Y-101192400D01*
G75*
G02*
X118580400Y-101332400I0J-140000D01*
G01*
X118580400Y-101612400D01*
G75*
G02*
X118440400Y-101752400I-140000J0D01*
G01*
G37*
G36*
G01*
X114455600Y-119283600D02*
X114455600Y-119623600D01*
G75*
G02*
X114315600Y-119763600I-140000J0D01*
G01*
X114035600Y-119763600D01*
G75*
G02*
X113895600Y-119623600I0J140000D01*
G01*
X113895600Y-119283600D01*
G75*
G02*
X114035600Y-119143600I140000J0D01*
G01*
X114315600Y-119143600D01*
G75*
G02*
X114455600Y-119283600I0J-140000D01*
G01*
G37*
G36*
G01*
X115415600Y-119283600D02*
X115415600Y-119623600D01*
G75*
G02*
X115275600Y-119763600I-140000J0D01*
G01*
X114995600Y-119763600D01*
G75*
G02*
X114855600Y-119623600I0J140000D01*
G01*
X114855600Y-119283600D01*
G75*
G02*
X114995600Y-119143600I140000J0D01*
G01*
X115275600Y-119143600D01*
G75*
G02*
X115415600Y-119283600I0J-140000D01*
G01*
G37*
G36*
G01*
X115566800Y-110863200D02*
X115566800Y-110523200D01*
G75*
G02*
X115706800Y-110383200I140000J0D01*
G01*
X115986800Y-110383200D01*
G75*
G02*
X116126800Y-110523200I0J-140000D01*
G01*
X116126800Y-110863200D01*
G75*
G02*
X115986800Y-111003200I-140000J0D01*
G01*
X115706800Y-111003200D01*
G75*
G02*
X115566800Y-110863200I0J140000D01*
G01*
G37*
G36*
G01*
X114606800Y-110863200D02*
X114606800Y-110523200D01*
G75*
G02*
X114746800Y-110383200I140000J0D01*
G01*
X115026800Y-110383200D01*
G75*
G02*
X115166800Y-110523200I0J-140000D01*
G01*
X115166800Y-110863200D01*
G75*
G02*
X115026800Y-111003200I-140000J0D01*
G01*
X114746800Y-111003200D01*
G75*
G02*
X114606800Y-110863200I0J140000D01*
G01*
G37*
G36*
G01*
X98580000Y-92015000D02*
X98580000Y-92385000D01*
G75*
G02*
X98445000Y-92520000I-135000J0D01*
G01*
X98175000Y-92520000D01*
G75*
G02*
X98040000Y-92385000I0J135000D01*
G01*
X98040000Y-92015000D01*
G75*
G02*
X98175000Y-91880000I135000J0D01*
G01*
X98445000Y-91880000D01*
G75*
G02*
X98580000Y-92015000I0J-135000D01*
G01*
G37*
G36*
G01*
X97560000Y-92015000D02*
X97560000Y-92385000D01*
G75*
G02*
X97425000Y-92520000I-135000J0D01*
G01*
X97155000Y-92520000D01*
G75*
G02*
X97020000Y-92385000I0J135000D01*
G01*
X97020000Y-92015000D01*
G75*
G02*
X97155000Y-91880000I135000J0D01*
G01*
X97425000Y-91880000D01*
G75*
G02*
X97560000Y-92015000I0J-135000D01*
G01*
G37*
G36*
G01*
X97560000Y-93515000D02*
X97560000Y-93885000D01*
G75*
G02*
X97425000Y-94020000I-135000J0D01*
G01*
X97155000Y-94020000D01*
G75*
G02*
X97020000Y-93885000I0J135000D01*
G01*
X97020000Y-93515000D01*
G75*
G02*
X97155000Y-93380000I135000J0D01*
G01*
X97425000Y-93380000D01*
G75*
G02*
X97560000Y-93515000I0J-135000D01*
G01*
G37*
G36*
G01*
X98580000Y-93515000D02*
X98580000Y-93885000D01*
G75*
G02*
X98445000Y-94020000I-135000J0D01*
G01*
X98175000Y-94020000D01*
G75*
G02*
X98040000Y-93885000I0J135000D01*
G01*
X98040000Y-93515000D01*
G75*
G02*
X98175000Y-93380000I135000J0D01*
G01*
X98445000Y-93380000D01*
G75*
G02*
X98580000Y-93515000I0J-135000D01*
G01*
G37*
G36*
G01*
X105647000Y-113152000D02*
X106017000Y-113152000D01*
G75*
G02*
X106152000Y-113287000I0J-135000D01*
G01*
X106152000Y-113557000D01*
G75*
G02*
X106017000Y-113692000I-135000J0D01*
G01*
X105647000Y-113692000D01*
G75*
G02*
X105512000Y-113557000I0J135000D01*
G01*
X105512000Y-113287000D01*
G75*
G02*
X105647000Y-113152000I135000J0D01*
G01*
G37*
G36*
G01*
X105647000Y-114172000D02*
X106017000Y-114172000D01*
G75*
G02*
X106152000Y-114307000I0J-135000D01*
G01*
X106152000Y-114577000D01*
G75*
G02*
X106017000Y-114712000I-135000J0D01*
G01*
X105647000Y-114712000D01*
G75*
G02*
X105512000Y-114577000I0J135000D01*
G01*
X105512000Y-114307000D01*
G75*
G02*
X105647000Y-114172000I135000J0D01*
G01*
G37*
G36*
G01*
X107147000Y-113152000D02*
X107517000Y-113152000D01*
G75*
G02*
X107652000Y-113287000I0J-135000D01*
G01*
X107652000Y-113557000D01*
G75*
G02*
X107517000Y-113692000I-135000J0D01*
G01*
X107147000Y-113692000D01*
G75*
G02*
X107012000Y-113557000I0J135000D01*
G01*
X107012000Y-113287000D01*
G75*
G02*
X107147000Y-113152000I135000J0D01*
G01*
G37*
G36*
G01*
X107147000Y-114172000D02*
X107517000Y-114172000D01*
G75*
G02*
X107652000Y-114307000I0J-135000D01*
G01*
X107652000Y-114577000D01*
G75*
G02*
X107517000Y-114712000I-135000J0D01*
G01*
X107147000Y-114712000D01*
G75*
G02*
X107012000Y-114577000I0J135000D01*
G01*
X107012000Y-114307000D01*
G75*
G02*
X107147000Y-114172000I135000J0D01*
G01*
G37*
G36*
G01*
X172816650Y-116065700D02*
X172304150Y-116065700D01*
G75*
G02*
X172085400Y-115846950I0J218750D01*
G01*
X172085400Y-115409450D01*
G75*
G02*
X172304150Y-115190700I218750J0D01*
G01*
X172816650Y-115190700D01*
G75*
G02*
X173035400Y-115409450I0J-218750D01*
G01*
X173035400Y-115846950D01*
G75*
G02*
X172816650Y-116065700I-218750J0D01*
G01*
G37*
G36*
G01*
X172816650Y-117640700D02*
X172304150Y-117640700D01*
G75*
G02*
X172085400Y-117421950I0J218750D01*
G01*
X172085400Y-116984450D01*
G75*
G02*
X172304150Y-116765700I218750J0D01*
G01*
X172816650Y-116765700D01*
G75*
G02*
X173035400Y-116984450I0J-218750D01*
G01*
X173035400Y-117421950D01*
G75*
G02*
X172816650Y-117640700I-218750J0D01*
G01*
G37*
G36*
G01*
X175340650Y-117660200D02*
X174828150Y-117660200D01*
G75*
G02*
X174609400Y-117441450I0J218750D01*
G01*
X174609400Y-117003950D01*
G75*
G02*
X174828150Y-116785200I218750J0D01*
G01*
X175340650Y-116785200D01*
G75*
G02*
X175559400Y-117003950I0J-218750D01*
G01*
X175559400Y-117441450D01*
G75*
G02*
X175340650Y-117660200I-218750J0D01*
G01*
G37*
G36*
G01*
X175340650Y-116085200D02*
X174828150Y-116085200D01*
G75*
G02*
X174609400Y-115866450I0J218750D01*
G01*
X174609400Y-115428950D01*
G75*
G02*
X174828150Y-115210200I218750J0D01*
G01*
X175340650Y-115210200D01*
G75*
G02*
X175559400Y-115428950I0J-218750D01*
G01*
X175559400Y-115866450D01*
G75*
G02*
X175340650Y-116085200I-218750J0D01*
G01*
G37*
M02*
