G04 #@! TF.GenerationSoftware,KiCad,Pcbnew,(5.1.9)-1*
G04 #@! TF.CreationDate,2021-04-20T16:59:57+02:00*
G04 #@! TF.ProjectId,POE_hat_and_USB,504f455f-6861-4745-9f61-6e645f555342,1.0*
G04 #@! TF.SameCoordinates,Original*
G04 #@! TF.FileFunction,Paste,Bot*
G04 #@! TF.FilePolarity,Positive*
%FSLAX46Y46*%
G04 Gerber Fmt 4.6, Leading zero omitted, Abs format (unit mm)*
G04 Created by KiCad (PCBNEW (5.1.9)-1) date 2021-04-20 16:59:57*
%MOMM*%
%LPD*%
G01*
G04 APERTURE LIST*
%ADD10R,1.000000X0.700000*%
%ADD11R,2.500000X3.300000*%
%ADD12R,3.300000X2.500000*%
%ADD13R,1.200000X0.900000*%
%ADD14R,1.500000X1.900000*%
%ADD15R,0.400000X1.350000*%
%ADD16R,2.800000X5.300000*%
%ADD17R,0.700000X0.450000*%
%ADD18R,2.600000X3.100000*%
%ADD19R,1.550000X0.600000*%
%ADD20R,1.200000X0.400000*%
%ADD21R,1.800000X2.100000*%
G04 APERTURE END LIST*
G36*
G01*
X108881999Y-106668000D02*
X110182001Y-106668000D01*
G75*
G02*
X110432000Y-106917999I0J-249999D01*
G01*
X110432000Y-107568001D01*
G75*
G02*
X110182001Y-107818000I-249999J0D01*
G01*
X108881999Y-107818000D01*
G75*
G02*
X108632000Y-107568001I0J249999D01*
G01*
X108632000Y-106917999D01*
G75*
G02*
X108881999Y-106668000I249999J0D01*
G01*
G37*
G36*
G01*
X108881999Y-103718000D02*
X110182001Y-103718000D01*
G75*
G02*
X110432000Y-103967999I0J-249999D01*
G01*
X110432000Y-104618001D01*
G75*
G02*
X110182001Y-104868000I-249999J0D01*
G01*
X108881999Y-104868000D01*
G75*
G02*
X108632000Y-104618001I0J249999D01*
G01*
X108632000Y-103967999D01*
G75*
G02*
X108881999Y-103718000I249999J0D01*
G01*
G37*
G36*
G01*
X111281999Y-103718000D02*
X112582001Y-103718000D01*
G75*
G02*
X112832000Y-103967999I0J-249999D01*
G01*
X112832000Y-104618001D01*
G75*
G02*
X112582001Y-104868000I-249999J0D01*
G01*
X111281999Y-104868000D01*
G75*
G02*
X111032000Y-104618001I0J249999D01*
G01*
X111032000Y-103967999D01*
G75*
G02*
X111281999Y-103718000I249999J0D01*
G01*
G37*
G36*
G01*
X111281999Y-106668000D02*
X112582001Y-106668000D01*
G75*
G02*
X112832000Y-106917999I0J-249999D01*
G01*
X112832000Y-107568001D01*
G75*
G02*
X112582001Y-107818000I-249999J0D01*
G01*
X111281999Y-107818000D01*
G75*
G02*
X111032000Y-107568001I0J249999D01*
G01*
X111032000Y-106917999D01*
G75*
G02*
X111281999Y-106668000I249999J0D01*
G01*
G37*
G36*
G01*
X139782000Y-112532001D02*
X139782000Y-110331999D01*
G75*
G02*
X140031999Y-110082000I249999J0D01*
G01*
X140682001Y-110082000D01*
G75*
G02*
X140932000Y-110331999I0J-249999D01*
G01*
X140932000Y-112532001D01*
G75*
G02*
X140682001Y-112782000I-249999J0D01*
G01*
X140031999Y-112782000D01*
G75*
G02*
X139782000Y-112532001I0J249999D01*
G01*
G37*
G36*
G01*
X142732000Y-112532001D02*
X142732000Y-110331999D01*
G75*
G02*
X142981999Y-110082000I249999J0D01*
G01*
X143632001Y-110082000D01*
G75*
G02*
X143882000Y-110331999I0J-249999D01*
G01*
X143882000Y-112532001D01*
G75*
G02*
X143632001Y-112782000I-249999J0D01*
G01*
X142981999Y-112782000D01*
G75*
G02*
X142732000Y-112532001I0J249999D01*
G01*
G37*
G36*
G01*
X142732000Y-115832001D02*
X142732000Y-113631999D01*
G75*
G02*
X142981999Y-113382000I249999J0D01*
G01*
X143632001Y-113382000D01*
G75*
G02*
X143882000Y-113631999I0J-249999D01*
G01*
X143882000Y-115832001D01*
G75*
G02*
X143632001Y-116082000I-249999J0D01*
G01*
X142981999Y-116082000D01*
G75*
G02*
X142732000Y-115832001I0J249999D01*
G01*
G37*
G36*
G01*
X139782000Y-115832001D02*
X139782000Y-113631999D01*
G75*
G02*
X140031999Y-113382000I249999J0D01*
G01*
X140682001Y-113382000D01*
G75*
G02*
X140932000Y-113631999I0J-249999D01*
G01*
X140932000Y-115832001D01*
G75*
G02*
X140682001Y-116082000I-249999J0D01*
G01*
X140031999Y-116082000D01*
G75*
G02*
X139782000Y-115832001I0J249999D01*
G01*
G37*
G36*
G01*
X149482000Y-101343000D02*
X149482000Y-100393000D01*
G75*
G02*
X149732000Y-100143000I250000J0D01*
G01*
X150232000Y-100143000D01*
G75*
G02*
X150482000Y-100393000I0J-250000D01*
G01*
X150482000Y-101343000D01*
G75*
G02*
X150232000Y-101593000I-250000J0D01*
G01*
X149732000Y-101593000D01*
G75*
G02*
X149482000Y-101343000I0J250000D01*
G01*
G37*
G36*
G01*
X147582000Y-101343000D02*
X147582000Y-100393000D01*
G75*
G02*
X147832000Y-100143000I250000J0D01*
G01*
X148332000Y-100143000D01*
G75*
G02*
X148582000Y-100393000I0J-250000D01*
G01*
X148582000Y-101343000D01*
G75*
G02*
X148332000Y-101593000I-250000J0D01*
G01*
X147832000Y-101593000D01*
G75*
G02*
X147582000Y-101343000I0J250000D01*
G01*
G37*
G36*
G01*
X148375000Y-114950000D02*
X147425000Y-114950000D01*
G75*
G02*
X147175000Y-114700000I0J250000D01*
G01*
X147175000Y-114200000D01*
G75*
G02*
X147425000Y-113950000I250000J0D01*
G01*
X148375000Y-113950000D01*
G75*
G02*
X148625000Y-114200000I0J-250000D01*
G01*
X148625000Y-114700000D01*
G75*
G02*
X148375000Y-114950000I-250000J0D01*
G01*
G37*
G36*
G01*
X148375000Y-116850000D02*
X147425000Y-116850000D01*
G75*
G02*
X147175000Y-116600000I0J250000D01*
G01*
X147175000Y-116100000D01*
G75*
G02*
X147425000Y-115850000I250000J0D01*
G01*
X148375000Y-115850000D01*
G75*
G02*
X148625000Y-116100000I0J-250000D01*
G01*
X148625000Y-116600000D01*
G75*
G02*
X148375000Y-116850000I-250000J0D01*
G01*
G37*
G36*
G01*
X162325000Y-102850000D02*
X163275000Y-102850000D01*
G75*
G02*
X163525000Y-103100000I0J-250000D01*
G01*
X163525000Y-103600000D01*
G75*
G02*
X163275000Y-103850000I-250000J0D01*
G01*
X162325000Y-103850000D01*
G75*
G02*
X162075000Y-103600000I0J250000D01*
G01*
X162075000Y-103100000D01*
G75*
G02*
X162325000Y-102850000I250000J0D01*
G01*
G37*
G36*
G01*
X162325000Y-104750000D02*
X163275000Y-104750000D01*
G75*
G02*
X163525000Y-105000000I0J-250000D01*
G01*
X163525000Y-105500000D01*
G75*
G02*
X163275000Y-105750000I-250000J0D01*
G01*
X162325000Y-105750000D01*
G75*
G02*
X162075000Y-105500000I0J250000D01*
G01*
X162075000Y-105000000D01*
G75*
G02*
X162325000Y-104750000I250000J0D01*
G01*
G37*
D10*
X105907000Y-107868000D03*
X105907000Y-111868000D03*
X99957000Y-111868000D03*
X99957000Y-107868000D03*
X99957000Y-102268000D03*
X99957000Y-106268000D03*
X105907000Y-106268000D03*
X105907000Y-102268000D03*
D11*
X122500000Y-110200000D03*
X115700000Y-110200000D03*
D12*
X142500000Y-107200000D03*
X142500000Y-100400000D03*
D13*
X169000000Y-108350000D03*
X169000000Y-111650000D03*
D14*
X159720000Y-119616296D03*
D15*
X158720000Y-116916296D03*
X158070000Y-116916296D03*
X157420000Y-116916296D03*
X160020000Y-116916296D03*
X159370000Y-116916296D03*
D14*
X157720000Y-119616296D03*
D16*
X126750000Y-113100000D03*
X136850000Y-113100000D03*
D17*
X177332000Y-112418000D03*
X177332000Y-111118000D03*
X179332000Y-111768000D03*
D18*
X125332000Y-102768000D03*
D19*
X122632000Y-104673000D03*
X122632000Y-103403000D03*
X122632000Y-102133000D03*
X122632000Y-100863000D03*
X128032000Y-100863000D03*
X128032000Y-102133000D03*
X128032000Y-103403000D03*
X128032000Y-104673000D03*
D20*
X154232000Y-107695500D03*
X154232000Y-107060500D03*
X154232000Y-106425500D03*
X154232000Y-105790500D03*
X154232000Y-105155500D03*
X154232000Y-104520500D03*
X154232000Y-103885500D03*
X154232000Y-103250500D03*
X154232000Y-102615500D03*
X154232000Y-101980500D03*
X154232000Y-101345500D03*
X154232000Y-100710500D03*
X154232000Y-100075500D03*
X154232000Y-99440500D03*
X159432000Y-99440500D03*
X159432000Y-100075500D03*
X159432000Y-100710500D03*
X159432000Y-101345500D03*
X159432000Y-101980500D03*
X159432000Y-102615500D03*
X159432000Y-103250500D03*
X159432000Y-103885500D03*
X159432000Y-104520500D03*
X159432000Y-105155500D03*
X159432000Y-105790500D03*
X159432000Y-106425500D03*
X159432000Y-107060500D03*
X159432000Y-107695500D03*
D21*
X148832000Y-109268000D03*
X148832000Y-106368000D03*
X151132000Y-106368000D03*
X151132000Y-109268000D03*
G36*
G01*
X119800000Y-104530000D02*
X119800000Y-104870000D01*
G75*
G02*
X119660000Y-105010000I-140000J0D01*
G01*
X119380000Y-105010000D01*
G75*
G02*
X119240000Y-104870000I0J140000D01*
G01*
X119240000Y-104530000D01*
G75*
G02*
X119380000Y-104390000I140000J0D01*
G01*
X119660000Y-104390000D01*
G75*
G02*
X119800000Y-104530000I0J-140000D01*
G01*
G37*
G36*
G01*
X120760000Y-104530000D02*
X120760000Y-104870000D01*
G75*
G02*
X120620000Y-105010000I-140000J0D01*
G01*
X120340000Y-105010000D01*
G75*
G02*
X120200000Y-104870000I0J140000D01*
G01*
X120200000Y-104530000D01*
G75*
G02*
X120340000Y-104390000I140000J0D01*
G01*
X120620000Y-104390000D01*
G75*
G02*
X120760000Y-104530000I0J-140000D01*
G01*
G37*
G36*
G01*
X132768000Y-102838000D02*
X132768000Y-102498000D01*
G75*
G02*
X132908000Y-102358000I140000J0D01*
G01*
X133188000Y-102358000D01*
G75*
G02*
X133328000Y-102498000I0J-140000D01*
G01*
X133328000Y-102838000D01*
G75*
G02*
X133188000Y-102978000I-140000J0D01*
G01*
X132908000Y-102978000D01*
G75*
G02*
X132768000Y-102838000I0J140000D01*
G01*
G37*
G36*
G01*
X131808000Y-102838000D02*
X131808000Y-102498000D01*
G75*
G02*
X131948000Y-102358000I140000J0D01*
G01*
X132228000Y-102358000D01*
G75*
G02*
X132368000Y-102498000I0J-140000D01*
G01*
X132368000Y-102838000D01*
G75*
G02*
X132228000Y-102978000I-140000J0D01*
G01*
X131948000Y-102978000D01*
G75*
G02*
X131808000Y-102838000I0J140000D01*
G01*
G37*
G36*
G01*
X132768000Y-101838000D02*
X132768000Y-101498000D01*
G75*
G02*
X132908000Y-101358000I140000J0D01*
G01*
X133188000Y-101358000D01*
G75*
G02*
X133328000Y-101498000I0J-140000D01*
G01*
X133328000Y-101838000D01*
G75*
G02*
X133188000Y-101978000I-140000J0D01*
G01*
X132908000Y-101978000D01*
G75*
G02*
X132768000Y-101838000I0J140000D01*
G01*
G37*
G36*
G01*
X131808000Y-101838000D02*
X131808000Y-101498000D01*
G75*
G02*
X131948000Y-101358000I140000J0D01*
G01*
X132228000Y-101358000D01*
G75*
G02*
X132368000Y-101498000I0J-140000D01*
G01*
X132368000Y-101838000D01*
G75*
G02*
X132228000Y-101978000I-140000J0D01*
G01*
X131948000Y-101978000D01*
G75*
G02*
X131808000Y-101838000I0J140000D01*
G01*
G37*
G36*
G01*
X103040000Y-120170000D02*
X103040000Y-119830000D01*
G75*
G02*
X103180000Y-119690000I140000J0D01*
G01*
X103460000Y-119690000D01*
G75*
G02*
X103600000Y-119830000I0J-140000D01*
G01*
X103600000Y-120170000D01*
G75*
G02*
X103460000Y-120310000I-140000J0D01*
G01*
X103180000Y-120310000D01*
G75*
G02*
X103040000Y-120170000I0J140000D01*
G01*
G37*
G36*
G01*
X104000000Y-120170000D02*
X104000000Y-119830000D01*
G75*
G02*
X104140000Y-119690000I140000J0D01*
G01*
X104420000Y-119690000D01*
G75*
G02*
X104560000Y-119830000I0J-140000D01*
G01*
X104560000Y-120170000D01*
G75*
G02*
X104420000Y-120310000I-140000J0D01*
G01*
X104140000Y-120310000D01*
G75*
G02*
X104000000Y-120170000I0J140000D01*
G01*
G37*
G36*
G01*
X100920000Y-98770000D02*
X100920000Y-98430000D01*
G75*
G02*
X101060000Y-98290000I140000J0D01*
G01*
X101340000Y-98290000D01*
G75*
G02*
X101480000Y-98430000I0J-140000D01*
G01*
X101480000Y-98770000D01*
G75*
G02*
X101340000Y-98910000I-140000J0D01*
G01*
X101060000Y-98910000D01*
G75*
G02*
X100920000Y-98770000I0J140000D01*
G01*
G37*
G36*
G01*
X101880000Y-98770000D02*
X101880000Y-98430000D01*
G75*
G02*
X102020000Y-98290000I140000J0D01*
G01*
X102300000Y-98290000D01*
G75*
G02*
X102440000Y-98430000I0J-140000D01*
G01*
X102440000Y-98770000D01*
G75*
G02*
X102300000Y-98910000I-140000J0D01*
G01*
X102020000Y-98910000D01*
G75*
G02*
X101880000Y-98770000I0J140000D01*
G01*
G37*
G36*
G01*
X108230000Y-100300000D02*
X108570000Y-100300000D01*
G75*
G02*
X108710000Y-100440000I0J-140000D01*
G01*
X108710000Y-100720000D01*
G75*
G02*
X108570000Y-100860000I-140000J0D01*
G01*
X108230000Y-100860000D01*
G75*
G02*
X108090000Y-100720000I0J140000D01*
G01*
X108090000Y-100440000D01*
G75*
G02*
X108230000Y-100300000I140000J0D01*
G01*
G37*
G36*
G01*
X108230000Y-99340000D02*
X108570000Y-99340000D01*
G75*
G02*
X108710000Y-99480000I0J-140000D01*
G01*
X108710000Y-99760000D01*
G75*
G02*
X108570000Y-99900000I-140000J0D01*
G01*
X108230000Y-99900000D01*
G75*
G02*
X108090000Y-99760000I0J140000D01*
G01*
X108090000Y-99480000D01*
G75*
G02*
X108230000Y-99340000I140000J0D01*
G01*
G37*
G36*
G01*
X109630000Y-94140000D02*
X109970000Y-94140000D01*
G75*
G02*
X110110000Y-94280000I0J-140000D01*
G01*
X110110000Y-94560000D01*
G75*
G02*
X109970000Y-94700000I-140000J0D01*
G01*
X109630000Y-94700000D01*
G75*
G02*
X109490000Y-94560000I0J140000D01*
G01*
X109490000Y-94280000D01*
G75*
G02*
X109630000Y-94140000I140000J0D01*
G01*
G37*
G36*
G01*
X109630000Y-95100000D02*
X109970000Y-95100000D01*
G75*
G02*
X110110000Y-95240000I0J-140000D01*
G01*
X110110000Y-95520000D01*
G75*
G02*
X109970000Y-95660000I-140000J0D01*
G01*
X109630000Y-95660000D01*
G75*
G02*
X109490000Y-95520000I0J140000D01*
G01*
X109490000Y-95240000D01*
G75*
G02*
X109630000Y-95100000I140000J0D01*
G01*
G37*
G36*
G01*
X116332000Y-94138000D02*
X116332000Y-93798000D01*
G75*
G02*
X116472000Y-93658000I140000J0D01*
G01*
X116752000Y-93658000D01*
G75*
G02*
X116892000Y-93798000I0J-140000D01*
G01*
X116892000Y-94138000D01*
G75*
G02*
X116752000Y-94278000I-140000J0D01*
G01*
X116472000Y-94278000D01*
G75*
G02*
X116332000Y-94138000I0J140000D01*
G01*
G37*
G36*
G01*
X115372000Y-94138000D02*
X115372000Y-93798000D01*
G75*
G02*
X115512000Y-93658000I140000J0D01*
G01*
X115792000Y-93658000D01*
G75*
G02*
X115932000Y-93798000I0J-140000D01*
G01*
X115932000Y-94138000D01*
G75*
G02*
X115792000Y-94278000I-140000J0D01*
G01*
X115512000Y-94278000D01*
G75*
G02*
X115372000Y-94138000I0J140000D01*
G01*
G37*
G36*
G01*
X149212000Y-99538000D02*
X149212000Y-99198000D01*
G75*
G02*
X149352000Y-99058000I140000J0D01*
G01*
X149632000Y-99058000D01*
G75*
G02*
X149772000Y-99198000I0J-140000D01*
G01*
X149772000Y-99538000D01*
G75*
G02*
X149632000Y-99678000I-140000J0D01*
G01*
X149352000Y-99678000D01*
G75*
G02*
X149212000Y-99538000I0J140000D01*
G01*
G37*
G36*
G01*
X148252000Y-99538000D02*
X148252000Y-99198000D01*
G75*
G02*
X148392000Y-99058000I140000J0D01*
G01*
X148672000Y-99058000D01*
G75*
G02*
X148812000Y-99198000I0J-140000D01*
G01*
X148812000Y-99538000D01*
G75*
G02*
X148672000Y-99678000I-140000J0D01*
G01*
X148392000Y-99678000D01*
G75*
G02*
X148252000Y-99538000I0J140000D01*
G01*
G37*
G36*
G01*
X115372000Y-93138000D02*
X115372000Y-92798000D01*
G75*
G02*
X115512000Y-92658000I140000J0D01*
G01*
X115792000Y-92658000D01*
G75*
G02*
X115932000Y-92798000I0J-140000D01*
G01*
X115932000Y-93138000D01*
G75*
G02*
X115792000Y-93278000I-140000J0D01*
G01*
X115512000Y-93278000D01*
G75*
G02*
X115372000Y-93138000I0J140000D01*
G01*
G37*
G36*
G01*
X116332000Y-93138000D02*
X116332000Y-92798000D01*
G75*
G02*
X116472000Y-92658000I140000J0D01*
G01*
X116752000Y-92658000D01*
G75*
G02*
X116892000Y-92798000I0J-140000D01*
G01*
X116892000Y-93138000D01*
G75*
G02*
X116752000Y-93278000I-140000J0D01*
G01*
X116472000Y-93278000D01*
G75*
G02*
X116332000Y-93138000I0J140000D01*
G01*
G37*
G36*
G01*
X116332000Y-96142000D02*
X116332000Y-95802000D01*
G75*
G02*
X116472000Y-95662000I140000J0D01*
G01*
X116752000Y-95662000D01*
G75*
G02*
X116892000Y-95802000I0J-140000D01*
G01*
X116892000Y-96142000D01*
G75*
G02*
X116752000Y-96282000I-140000J0D01*
G01*
X116472000Y-96282000D01*
G75*
G02*
X116332000Y-96142000I0J140000D01*
G01*
G37*
G36*
G01*
X115372000Y-96142000D02*
X115372000Y-95802000D01*
G75*
G02*
X115512000Y-95662000I140000J0D01*
G01*
X115792000Y-95662000D01*
G75*
G02*
X115932000Y-95802000I0J-140000D01*
G01*
X115932000Y-96142000D01*
G75*
G02*
X115792000Y-96282000I-140000J0D01*
G01*
X115512000Y-96282000D01*
G75*
G02*
X115372000Y-96142000I0J140000D01*
G01*
G37*
G36*
G01*
X110662000Y-95100000D02*
X111002000Y-95100000D01*
G75*
G02*
X111142000Y-95240000I0J-140000D01*
G01*
X111142000Y-95520000D01*
G75*
G02*
X111002000Y-95660000I-140000J0D01*
G01*
X110662000Y-95660000D01*
G75*
G02*
X110522000Y-95520000I0J140000D01*
G01*
X110522000Y-95240000D01*
G75*
G02*
X110662000Y-95100000I140000J0D01*
G01*
G37*
G36*
G01*
X110662000Y-94140000D02*
X111002000Y-94140000D01*
G75*
G02*
X111142000Y-94280000I0J-140000D01*
G01*
X111142000Y-94560000D01*
G75*
G02*
X111002000Y-94700000I-140000J0D01*
G01*
X110662000Y-94700000D01*
G75*
G02*
X110522000Y-94560000I0J140000D01*
G01*
X110522000Y-94280000D01*
G75*
G02*
X110662000Y-94140000I140000J0D01*
G01*
G37*
G36*
G01*
X115372000Y-97142000D02*
X115372000Y-96802000D01*
G75*
G02*
X115512000Y-96662000I140000J0D01*
G01*
X115792000Y-96662000D01*
G75*
G02*
X115932000Y-96802000I0J-140000D01*
G01*
X115932000Y-97142000D01*
G75*
G02*
X115792000Y-97282000I-140000J0D01*
G01*
X115512000Y-97282000D01*
G75*
G02*
X115372000Y-97142000I0J140000D01*
G01*
G37*
G36*
G01*
X116332000Y-97142000D02*
X116332000Y-96802000D01*
G75*
G02*
X116472000Y-96662000I140000J0D01*
G01*
X116752000Y-96662000D01*
G75*
G02*
X116892000Y-96802000I0J-140000D01*
G01*
X116892000Y-97142000D01*
G75*
G02*
X116752000Y-97282000I-140000J0D01*
G01*
X116472000Y-97282000D01*
G75*
G02*
X116332000Y-97142000I0J140000D01*
G01*
G37*
G36*
G01*
X149832000Y-104298000D02*
X149832000Y-104638000D01*
G75*
G02*
X149692000Y-104778000I-140000J0D01*
G01*
X149412000Y-104778000D01*
G75*
G02*
X149272000Y-104638000I0J140000D01*
G01*
X149272000Y-104298000D01*
G75*
G02*
X149412000Y-104158000I140000J0D01*
G01*
X149692000Y-104158000D01*
G75*
G02*
X149832000Y-104298000I0J-140000D01*
G01*
G37*
G36*
G01*
X150792000Y-104298000D02*
X150792000Y-104638000D01*
G75*
G02*
X150652000Y-104778000I-140000J0D01*
G01*
X150372000Y-104778000D01*
G75*
G02*
X150232000Y-104638000I0J140000D01*
G01*
X150232000Y-104298000D01*
G75*
G02*
X150372000Y-104158000I140000J0D01*
G01*
X150652000Y-104158000D01*
G75*
G02*
X150792000Y-104298000I0J-140000D01*
G01*
G37*
G36*
G01*
X149272000Y-111338000D02*
X149272000Y-110998000D01*
G75*
G02*
X149412000Y-110858000I140000J0D01*
G01*
X149692000Y-110858000D01*
G75*
G02*
X149832000Y-110998000I0J-140000D01*
G01*
X149832000Y-111338000D01*
G75*
G02*
X149692000Y-111478000I-140000J0D01*
G01*
X149412000Y-111478000D01*
G75*
G02*
X149272000Y-111338000I0J140000D01*
G01*
G37*
G36*
G01*
X150232000Y-111338000D02*
X150232000Y-110998000D01*
G75*
G02*
X150372000Y-110858000I140000J0D01*
G01*
X150652000Y-110858000D01*
G75*
G02*
X150792000Y-110998000I0J-140000D01*
G01*
X150792000Y-111338000D01*
G75*
G02*
X150652000Y-111478000I-140000J0D01*
G01*
X150372000Y-111478000D01*
G75*
G02*
X150232000Y-111338000I0J140000D01*
G01*
G37*
G36*
G01*
X164230000Y-103140000D02*
X164570000Y-103140000D01*
G75*
G02*
X164710000Y-103280000I0J-140000D01*
G01*
X164710000Y-103560000D01*
G75*
G02*
X164570000Y-103700000I-140000J0D01*
G01*
X164230000Y-103700000D01*
G75*
G02*
X164090000Y-103560000I0J140000D01*
G01*
X164090000Y-103280000D01*
G75*
G02*
X164230000Y-103140000I140000J0D01*
G01*
G37*
G36*
G01*
X164230000Y-104100000D02*
X164570000Y-104100000D01*
G75*
G02*
X164710000Y-104240000I0J-140000D01*
G01*
X164710000Y-104520000D01*
G75*
G02*
X164570000Y-104660000I-140000J0D01*
G01*
X164230000Y-104660000D01*
G75*
G02*
X164090000Y-104520000I0J140000D01*
G01*
X164090000Y-104240000D01*
G75*
G02*
X164230000Y-104100000I140000J0D01*
G01*
G37*
G36*
G01*
X117385000Y-102360000D02*
X117015000Y-102360000D01*
G75*
G02*
X116880000Y-102225000I0J135000D01*
G01*
X116880000Y-101955000D01*
G75*
G02*
X117015000Y-101820000I135000J0D01*
G01*
X117385000Y-101820000D01*
G75*
G02*
X117520000Y-101955000I0J-135000D01*
G01*
X117520000Y-102225000D01*
G75*
G02*
X117385000Y-102360000I-135000J0D01*
G01*
G37*
G36*
G01*
X117385000Y-103380000D02*
X117015000Y-103380000D01*
G75*
G02*
X116880000Y-103245000I0J135000D01*
G01*
X116880000Y-102975000D01*
G75*
G02*
X117015000Y-102840000I135000J0D01*
G01*
X117385000Y-102840000D01*
G75*
G02*
X117520000Y-102975000I0J-135000D01*
G01*
X117520000Y-103245000D01*
G75*
G02*
X117385000Y-103380000I-135000J0D01*
G01*
G37*
G36*
G01*
X120185000Y-101360000D02*
X119815000Y-101360000D01*
G75*
G02*
X119680000Y-101225000I0J135000D01*
G01*
X119680000Y-100955000D01*
G75*
G02*
X119815000Y-100820000I135000J0D01*
G01*
X120185000Y-100820000D01*
G75*
G02*
X120320000Y-100955000I0J-135000D01*
G01*
X120320000Y-101225000D01*
G75*
G02*
X120185000Y-101360000I-135000J0D01*
G01*
G37*
G36*
G01*
X120185000Y-102380000D02*
X119815000Y-102380000D01*
G75*
G02*
X119680000Y-102245000I0J135000D01*
G01*
X119680000Y-101975000D01*
G75*
G02*
X119815000Y-101840000I135000J0D01*
G01*
X120185000Y-101840000D01*
G75*
G02*
X120320000Y-101975000I0J-135000D01*
G01*
X120320000Y-102245000D01*
G75*
G02*
X120185000Y-102380000I-135000J0D01*
G01*
G37*
G36*
G01*
X121860000Y-99015000D02*
X121860000Y-99385000D01*
G75*
G02*
X121725000Y-99520000I-135000J0D01*
G01*
X121455000Y-99520000D01*
G75*
G02*
X121320000Y-99385000I0J135000D01*
G01*
X121320000Y-99015000D01*
G75*
G02*
X121455000Y-98880000I135000J0D01*
G01*
X121725000Y-98880000D01*
G75*
G02*
X121860000Y-99015000I0J-135000D01*
G01*
G37*
G36*
G01*
X122880000Y-99015000D02*
X122880000Y-99385000D01*
G75*
G02*
X122745000Y-99520000I-135000J0D01*
G01*
X122475000Y-99520000D01*
G75*
G02*
X122340000Y-99385000I0J135000D01*
G01*
X122340000Y-99015000D01*
G75*
G02*
X122475000Y-98880000I135000J0D01*
G01*
X122745000Y-98880000D01*
G75*
G02*
X122880000Y-99015000I0J-135000D01*
G01*
G37*
G36*
G01*
X130415000Y-101388000D02*
X130785000Y-101388000D01*
G75*
G02*
X130920000Y-101523000I0J-135000D01*
G01*
X130920000Y-101793000D01*
G75*
G02*
X130785000Y-101928000I-135000J0D01*
G01*
X130415000Y-101928000D01*
G75*
G02*
X130280000Y-101793000I0J135000D01*
G01*
X130280000Y-101523000D01*
G75*
G02*
X130415000Y-101388000I135000J0D01*
G01*
G37*
G36*
G01*
X130415000Y-102408000D02*
X130785000Y-102408000D01*
G75*
G02*
X130920000Y-102543000I0J-135000D01*
G01*
X130920000Y-102813000D01*
G75*
G02*
X130785000Y-102948000I-135000J0D01*
G01*
X130415000Y-102948000D01*
G75*
G02*
X130280000Y-102813000I0J135000D01*
G01*
X130280000Y-102543000D01*
G75*
G02*
X130415000Y-102408000I135000J0D01*
G01*
G37*
G36*
G01*
X135217000Y-102128000D02*
X134847000Y-102128000D01*
G75*
G02*
X134712000Y-101993000I0J135000D01*
G01*
X134712000Y-101723000D01*
G75*
G02*
X134847000Y-101588000I135000J0D01*
G01*
X135217000Y-101588000D01*
G75*
G02*
X135352000Y-101723000I0J-135000D01*
G01*
X135352000Y-101993000D01*
G75*
G02*
X135217000Y-102128000I-135000J0D01*
G01*
G37*
G36*
G01*
X135217000Y-103148000D02*
X134847000Y-103148000D01*
G75*
G02*
X134712000Y-103013000I0J135000D01*
G01*
X134712000Y-102743000D01*
G75*
G02*
X134847000Y-102608000I135000J0D01*
G01*
X135217000Y-102608000D01*
G75*
G02*
X135352000Y-102743000I0J-135000D01*
G01*
X135352000Y-103013000D01*
G75*
G02*
X135217000Y-103148000I-135000J0D01*
G01*
G37*
G36*
G01*
X135217000Y-101148000D02*
X134847000Y-101148000D01*
G75*
G02*
X134712000Y-101013000I0J135000D01*
G01*
X134712000Y-100743000D01*
G75*
G02*
X134847000Y-100608000I135000J0D01*
G01*
X135217000Y-100608000D01*
G75*
G02*
X135352000Y-100743000I0J-135000D01*
G01*
X135352000Y-101013000D01*
G75*
G02*
X135217000Y-101148000I-135000J0D01*
G01*
G37*
G36*
G01*
X135217000Y-100128000D02*
X134847000Y-100128000D01*
G75*
G02*
X134712000Y-99993000I0J135000D01*
G01*
X134712000Y-99723000D01*
G75*
G02*
X134847000Y-99588000I135000J0D01*
G01*
X135217000Y-99588000D01*
G75*
G02*
X135352000Y-99723000I0J-135000D01*
G01*
X135352000Y-99993000D01*
G75*
G02*
X135217000Y-100128000I-135000J0D01*
G01*
G37*
G36*
G01*
X170040000Y-98385000D02*
X170040000Y-98015000D01*
G75*
G02*
X170175000Y-97880000I135000J0D01*
G01*
X170445000Y-97880000D01*
G75*
G02*
X170580000Y-98015000I0J-135000D01*
G01*
X170580000Y-98385000D01*
G75*
G02*
X170445000Y-98520000I-135000J0D01*
G01*
X170175000Y-98520000D01*
G75*
G02*
X170040000Y-98385000I0J135000D01*
G01*
G37*
G36*
G01*
X169020000Y-98385000D02*
X169020000Y-98015000D01*
G75*
G02*
X169155000Y-97880000I135000J0D01*
G01*
X169425000Y-97880000D01*
G75*
G02*
X169560000Y-98015000I0J-135000D01*
G01*
X169560000Y-98385000D01*
G75*
G02*
X169425000Y-98520000I-135000J0D01*
G01*
X169155000Y-98520000D01*
G75*
G02*
X169020000Y-98385000I0J135000D01*
G01*
G37*
G36*
G01*
X175415000Y-111088000D02*
X175785000Y-111088000D01*
G75*
G02*
X175920000Y-111223000I0J-135000D01*
G01*
X175920000Y-111493000D01*
G75*
G02*
X175785000Y-111628000I-135000J0D01*
G01*
X175415000Y-111628000D01*
G75*
G02*
X175280000Y-111493000I0J135000D01*
G01*
X175280000Y-111223000D01*
G75*
G02*
X175415000Y-111088000I135000J0D01*
G01*
G37*
G36*
G01*
X175415000Y-112108000D02*
X175785000Y-112108000D01*
G75*
G02*
X175920000Y-112243000I0J-135000D01*
G01*
X175920000Y-112513000D01*
G75*
G02*
X175785000Y-112648000I-135000J0D01*
G01*
X175415000Y-112648000D01*
G75*
G02*
X175280000Y-112513000I0J135000D01*
G01*
X175280000Y-112243000D01*
G75*
G02*
X175415000Y-112108000I135000J0D01*
G01*
G37*
G36*
G01*
X176610000Y-106985000D02*
X176610000Y-106615000D01*
G75*
G02*
X176745000Y-106480000I135000J0D01*
G01*
X177015000Y-106480000D01*
G75*
G02*
X177150000Y-106615000I0J-135000D01*
G01*
X177150000Y-106985000D01*
G75*
G02*
X177015000Y-107120000I-135000J0D01*
G01*
X176745000Y-107120000D01*
G75*
G02*
X176610000Y-106985000I0J135000D01*
G01*
G37*
G36*
G01*
X177630000Y-106985000D02*
X177630000Y-106615000D01*
G75*
G02*
X177765000Y-106480000I135000J0D01*
G01*
X178035000Y-106480000D01*
G75*
G02*
X178170000Y-106615000I0J-135000D01*
G01*
X178170000Y-106985000D01*
G75*
G02*
X178035000Y-107120000I-135000J0D01*
G01*
X177765000Y-107120000D01*
G75*
G02*
X177630000Y-106985000I0J135000D01*
G01*
G37*
G36*
G01*
X109615000Y-96120000D02*
X109985000Y-96120000D01*
G75*
G02*
X110120000Y-96255000I0J-135000D01*
G01*
X110120000Y-96525000D01*
G75*
G02*
X109985000Y-96660000I-135000J0D01*
G01*
X109615000Y-96660000D01*
G75*
G02*
X109480000Y-96525000I0J135000D01*
G01*
X109480000Y-96255000D01*
G75*
G02*
X109615000Y-96120000I135000J0D01*
G01*
G37*
G36*
G01*
X109615000Y-97140000D02*
X109985000Y-97140000D01*
G75*
G02*
X110120000Y-97275000I0J-135000D01*
G01*
X110120000Y-97545000D01*
G75*
G02*
X109985000Y-97680000I-135000J0D01*
G01*
X109615000Y-97680000D01*
G75*
G02*
X109480000Y-97545000I0J135000D01*
G01*
X109480000Y-97275000D01*
G75*
G02*
X109615000Y-97140000I135000J0D01*
G01*
G37*
G36*
G01*
X104820000Y-97085000D02*
X104820000Y-96715000D01*
G75*
G02*
X104955000Y-96580000I135000J0D01*
G01*
X105225000Y-96580000D01*
G75*
G02*
X105360000Y-96715000I0J-135000D01*
G01*
X105360000Y-97085000D01*
G75*
G02*
X105225000Y-97220000I-135000J0D01*
G01*
X104955000Y-97220000D01*
G75*
G02*
X104820000Y-97085000I0J135000D01*
G01*
G37*
G36*
G01*
X105840000Y-97085000D02*
X105840000Y-96715000D01*
G75*
G02*
X105975000Y-96580000I135000J0D01*
G01*
X106245000Y-96580000D01*
G75*
G02*
X106380000Y-96715000I0J-135000D01*
G01*
X106380000Y-97085000D01*
G75*
G02*
X106245000Y-97220000I-135000J0D01*
G01*
X105975000Y-97220000D01*
G75*
G02*
X105840000Y-97085000I0J135000D01*
G01*
G37*
G36*
G01*
X104820000Y-96085000D02*
X104820000Y-95715000D01*
G75*
G02*
X104955000Y-95580000I135000J0D01*
G01*
X105225000Y-95580000D01*
G75*
G02*
X105360000Y-95715000I0J-135000D01*
G01*
X105360000Y-96085000D01*
G75*
G02*
X105225000Y-96220000I-135000J0D01*
G01*
X104955000Y-96220000D01*
G75*
G02*
X104820000Y-96085000I0J135000D01*
G01*
G37*
G36*
G01*
X105840000Y-96085000D02*
X105840000Y-95715000D01*
G75*
G02*
X105975000Y-95580000I135000J0D01*
G01*
X106245000Y-95580000D01*
G75*
G02*
X106380000Y-95715000I0J-135000D01*
G01*
X106380000Y-96085000D01*
G75*
G02*
X106245000Y-96220000I-135000J0D01*
G01*
X105975000Y-96220000D01*
G75*
G02*
X105840000Y-96085000I0J135000D01*
G01*
G37*
G36*
G01*
X105840000Y-94585000D02*
X105840000Y-94215000D01*
G75*
G02*
X105975000Y-94080000I135000J0D01*
G01*
X106245000Y-94080000D01*
G75*
G02*
X106380000Y-94215000I0J-135000D01*
G01*
X106380000Y-94585000D01*
G75*
G02*
X106245000Y-94720000I-135000J0D01*
G01*
X105975000Y-94720000D01*
G75*
G02*
X105840000Y-94585000I0J135000D01*
G01*
G37*
G36*
G01*
X104820000Y-94585000D02*
X104820000Y-94215000D01*
G75*
G02*
X104955000Y-94080000I135000J0D01*
G01*
X105225000Y-94080000D01*
G75*
G02*
X105360000Y-94215000I0J-135000D01*
G01*
X105360000Y-94585000D01*
G75*
G02*
X105225000Y-94720000I-135000J0D01*
G01*
X104955000Y-94720000D01*
G75*
G02*
X104820000Y-94585000I0J135000D01*
G01*
G37*
G36*
G01*
X162092000Y-100783000D02*
X162092000Y-101153000D01*
G75*
G02*
X161957000Y-101288000I-135000J0D01*
G01*
X161687000Y-101288000D01*
G75*
G02*
X161552000Y-101153000I0J135000D01*
G01*
X161552000Y-100783000D01*
G75*
G02*
X161687000Y-100648000I135000J0D01*
G01*
X161957000Y-100648000D01*
G75*
G02*
X162092000Y-100783000I0J-135000D01*
G01*
G37*
G36*
G01*
X163112000Y-100783000D02*
X163112000Y-101153000D01*
G75*
G02*
X162977000Y-101288000I-135000J0D01*
G01*
X162707000Y-101288000D01*
G75*
G02*
X162572000Y-101153000I0J135000D01*
G01*
X162572000Y-100783000D01*
G75*
G02*
X162707000Y-100648000I135000J0D01*
G01*
X162977000Y-100648000D01*
G75*
G02*
X163112000Y-100783000I0J-135000D01*
G01*
G37*
G36*
G01*
X163112000Y-99783000D02*
X163112000Y-100153000D01*
G75*
G02*
X162977000Y-100288000I-135000J0D01*
G01*
X162707000Y-100288000D01*
G75*
G02*
X162572000Y-100153000I0J135000D01*
G01*
X162572000Y-99783000D01*
G75*
G02*
X162707000Y-99648000I135000J0D01*
G01*
X162977000Y-99648000D01*
G75*
G02*
X163112000Y-99783000I0J-135000D01*
G01*
G37*
G36*
G01*
X162092000Y-99783000D02*
X162092000Y-100153000D01*
G75*
G02*
X161957000Y-100288000I-135000J0D01*
G01*
X161687000Y-100288000D01*
G75*
G02*
X161552000Y-100153000I0J135000D01*
G01*
X161552000Y-99783000D01*
G75*
G02*
X161687000Y-99648000I135000J0D01*
G01*
X161957000Y-99648000D01*
G75*
G02*
X162092000Y-99783000I0J-135000D01*
G01*
G37*
G36*
G01*
X162092000Y-101783000D02*
X162092000Y-102153000D01*
G75*
G02*
X161957000Y-102288000I-135000J0D01*
G01*
X161687000Y-102288000D01*
G75*
G02*
X161552000Y-102153000I0J135000D01*
G01*
X161552000Y-101783000D01*
G75*
G02*
X161687000Y-101648000I135000J0D01*
G01*
X161957000Y-101648000D01*
G75*
G02*
X162092000Y-101783000I0J-135000D01*
G01*
G37*
G36*
G01*
X163112000Y-101783000D02*
X163112000Y-102153000D01*
G75*
G02*
X162977000Y-102288000I-135000J0D01*
G01*
X162707000Y-102288000D01*
G75*
G02*
X162572000Y-102153000I0J135000D01*
G01*
X162572000Y-101783000D01*
G75*
G02*
X162707000Y-101648000I135000J0D01*
G01*
X162977000Y-101648000D01*
G75*
G02*
X163112000Y-101783000I0J-135000D01*
G01*
G37*
G36*
G01*
X152172000Y-99553000D02*
X152172000Y-99183000D01*
G75*
G02*
X152307000Y-99048000I135000J0D01*
G01*
X152577000Y-99048000D01*
G75*
G02*
X152712000Y-99183000I0J-135000D01*
G01*
X152712000Y-99553000D01*
G75*
G02*
X152577000Y-99688000I-135000J0D01*
G01*
X152307000Y-99688000D01*
G75*
G02*
X152172000Y-99553000I0J135000D01*
G01*
G37*
G36*
G01*
X151152000Y-99553000D02*
X151152000Y-99183000D01*
G75*
G02*
X151287000Y-99048000I135000J0D01*
G01*
X151557000Y-99048000D01*
G75*
G02*
X151692000Y-99183000I0J-135000D01*
G01*
X151692000Y-99553000D01*
G75*
G02*
X151557000Y-99688000I-135000J0D01*
G01*
X151287000Y-99688000D01*
G75*
G02*
X151152000Y-99553000I0J135000D01*
G01*
G37*
M02*
