G04 #@! TF.GenerationSoftware,KiCad,Pcbnew,(5.1.9)-1*
G04 #@! TF.CreationDate,2021-04-20T16:59:57+02:00*
G04 #@! TF.ProjectId,POE_hat_and_USB,504f455f-6861-4745-9f61-6e645f555342,1.0*
G04 #@! TF.SameCoordinates,Original*
G04 #@! TF.FileFunction,Soldermask,Bot*
G04 #@! TF.FilePolarity,Negative*
%FSLAX46Y46*%
G04 Gerber Fmt 4.6, Leading zero omitted, Abs format (unit mm)*
G04 Created by KiCad (PCBNEW (5.1.9)-1) date 2021-04-20 16:59:57*
%MOMM*%
%LPD*%
G01*
G04 APERTURE LIST*
%ADD10O,1.802000X1.802000*%
%ADD11C,2.802000*%
%ADD12O,1.302000X1.702000*%
%ADD13O,1.302000X1.302000*%
%ADD14C,1.602000*%
%ADD15C,3.352000*%
%ADD16C,2.402000*%
%ADD17C,3.102000*%
%ADD18C,1.702000*%
%ADD19O,1.302000X2.002000*%
%ADD20C,1.552000*%
%ADD21C,0.100000*%
G04 APERTURE END LIST*
G36*
G01*
X125052000Y-94937000D02*
X126752000Y-94937000D01*
G75*
G02*
X126803000Y-94988000I0J-51000D01*
G01*
X126803000Y-96688000D01*
G75*
G02*
X126752000Y-96739000I-51000J0D01*
G01*
X125052000Y-96739000D01*
G75*
G02*
X125001000Y-96688000I0J51000D01*
G01*
X125001000Y-94988000D01*
G75*
G02*
X125052000Y-94937000I51000J0D01*
G01*
G37*
D10*
X125902000Y-93298000D03*
X128442000Y-95838000D03*
X128442000Y-93298000D03*
X130982000Y-95838000D03*
X130982000Y-93298000D03*
X133522000Y-95838000D03*
X133522000Y-93298000D03*
X136062000Y-95838000D03*
X136062000Y-93298000D03*
X138602000Y-95838000D03*
X138602000Y-93298000D03*
X141142000Y-95838000D03*
X141142000Y-93298000D03*
X143682000Y-95838000D03*
X143682000Y-93298000D03*
X146222000Y-95838000D03*
X146222000Y-93298000D03*
X148762000Y-95838000D03*
X148762000Y-93298000D03*
X151302000Y-95838000D03*
X151302000Y-93298000D03*
X153842000Y-95838000D03*
X153842000Y-93298000D03*
X156382000Y-95838000D03*
X156382000Y-93298000D03*
X158922000Y-95838000D03*
X158922000Y-93298000D03*
X161462000Y-95838000D03*
X161462000Y-93298000D03*
X164002000Y-95838000D03*
X164002000Y-93298000D03*
X166542000Y-95838000D03*
X166542000Y-93298000D03*
X169082000Y-95838000D03*
X169082000Y-93298000D03*
X171622000Y-95838000D03*
X171622000Y-93298000D03*
X174162000Y-95838000D03*
X174162000Y-93298000D03*
D11*
X121032000Y-94568000D03*
X179032000Y-94568000D03*
X179032000Y-117568000D03*
X121032000Y-117568000D03*
G36*
G01*
X108853172Y-106617000D02*
X110210828Y-106617000D01*
G75*
G02*
X110483000Y-106889172I0J-272172D01*
G01*
X110483000Y-107596828D01*
G75*
G02*
X110210828Y-107869000I-272172J0D01*
G01*
X108853172Y-107869000D01*
G75*
G02*
X108581000Y-107596828I0J272172D01*
G01*
X108581000Y-106889172D01*
G75*
G02*
X108853172Y-106617000I272172J0D01*
G01*
G37*
G36*
G01*
X108853172Y-103667000D02*
X110210828Y-103667000D01*
G75*
G02*
X110483000Y-103939172I0J-272172D01*
G01*
X110483000Y-104646828D01*
G75*
G02*
X110210828Y-104919000I-272172J0D01*
G01*
X108853172Y-104919000D01*
G75*
G02*
X108581000Y-104646828I0J272172D01*
G01*
X108581000Y-103939172D01*
G75*
G02*
X108853172Y-103667000I272172J0D01*
G01*
G37*
G36*
G01*
X111253172Y-103667000D02*
X112610828Y-103667000D01*
G75*
G02*
X112883000Y-103939172I0J-272172D01*
G01*
X112883000Y-104646828D01*
G75*
G02*
X112610828Y-104919000I-272172J0D01*
G01*
X111253172Y-104919000D01*
G75*
G02*
X110981000Y-104646828I0J272172D01*
G01*
X110981000Y-103939172D01*
G75*
G02*
X111253172Y-103667000I272172J0D01*
G01*
G37*
G36*
G01*
X111253172Y-106617000D02*
X112610828Y-106617000D01*
G75*
G02*
X112883000Y-106889172I0J-272172D01*
G01*
X112883000Y-107596828D01*
G75*
G02*
X112610828Y-107869000I-272172J0D01*
G01*
X111253172Y-107869000D01*
G75*
G02*
X110981000Y-107596828I0J272172D01*
G01*
X110981000Y-106889172D01*
G75*
G02*
X111253172Y-106617000I272172J0D01*
G01*
G37*
G36*
G01*
X139731000Y-112560828D02*
X139731000Y-110303172D01*
G75*
G02*
X140003172Y-110031000I272172J0D01*
G01*
X140710828Y-110031000D01*
G75*
G02*
X140983000Y-110303172I0J-272172D01*
G01*
X140983000Y-112560828D01*
G75*
G02*
X140710828Y-112833000I-272172J0D01*
G01*
X140003172Y-112833000D01*
G75*
G02*
X139731000Y-112560828I0J272172D01*
G01*
G37*
G36*
G01*
X142681000Y-112560828D02*
X142681000Y-110303172D01*
G75*
G02*
X142953172Y-110031000I272172J0D01*
G01*
X143660828Y-110031000D01*
G75*
G02*
X143933000Y-110303172I0J-272172D01*
G01*
X143933000Y-112560828D01*
G75*
G02*
X143660828Y-112833000I-272172J0D01*
G01*
X142953172Y-112833000D01*
G75*
G02*
X142681000Y-112560828I0J272172D01*
G01*
G37*
G36*
G01*
X142681000Y-115860828D02*
X142681000Y-113603172D01*
G75*
G02*
X142953172Y-113331000I272172J0D01*
G01*
X143660828Y-113331000D01*
G75*
G02*
X143933000Y-113603172I0J-272172D01*
G01*
X143933000Y-115860828D01*
G75*
G02*
X143660828Y-116133000I-272172J0D01*
G01*
X142953172Y-116133000D01*
G75*
G02*
X142681000Y-115860828I0J272172D01*
G01*
G37*
G36*
G01*
X139731000Y-115860828D02*
X139731000Y-113603172D01*
G75*
G02*
X140003172Y-113331000I272172J0D01*
G01*
X140710828Y-113331000D01*
G75*
G02*
X140983000Y-113603172I0J-272172D01*
G01*
X140983000Y-115860828D01*
G75*
G02*
X140710828Y-116133000I-272172J0D01*
G01*
X140003172Y-116133000D01*
G75*
G02*
X139731000Y-115860828I0J272172D01*
G01*
G37*
G36*
G01*
X149431000Y-101368500D02*
X149431000Y-100367500D01*
G75*
G02*
X149706500Y-100092000I275500J0D01*
G01*
X150257500Y-100092000D01*
G75*
G02*
X150533000Y-100367500I0J-275500D01*
G01*
X150533000Y-101368500D01*
G75*
G02*
X150257500Y-101644000I-275500J0D01*
G01*
X149706500Y-101644000D01*
G75*
G02*
X149431000Y-101368500I0J275500D01*
G01*
G37*
G36*
G01*
X147531000Y-101368500D02*
X147531000Y-100367500D01*
G75*
G02*
X147806500Y-100092000I275500J0D01*
G01*
X148357500Y-100092000D01*
G75*
G02*
X148633000Y-100367500I0J-275500D01*
G01*
X148633000Y-101368500D01*
G75*
G02*
X148357500Y-101644000I-275500J0D01*
G01*
X147806500Y-101644000D01*
G75*
G02*
X147531000Y-101368500I0J275500D01*
G01*
G37*
G36*
G01*
X148400500Y-115001000D02*
X147399500Y-115001000D01*
G75*
G02*
X147124000Y-114725500I0J275500D01*
G01*
X147124000Y-114174500D01*
G75*
G02*
X147399500Y-113899000I275500J0D01*
G01*
X148400500Y-113899000D01*
G75*
G02*
X148676000Y-114174500I0J-275500D01*
G01*
X148676000Y-114725500D01*
G75*
G02*
X148400500Y-115001000I-275500J0D01*
G01*
G37*
G36*
G01*
X148400500Y-116901000D02*
X147399500Y-116901000D01*
G75*
G02*
X147124000Y-116625500I0J275500D01*
G01*
X147124000Y-116074500D01*
G75*
G02*
X147399500Y-115799000I275500J0D01*
G01*
X148400500Y-115799000D01*
G75*
G02*
X148676000Y-116074500I0J-275500D01*
G01*
X148676000Y-116625500D01*
G75*
G02*
X148400500Y-116901000I-275500J0D01*
G01*
G37*
G36*
G01*
X162299500Y-102799000D02*
X163300500Y-102799000D01*
G75*
G02*
X163576000Y-103074500I0J-275500D01*
G01*
X163576000Y-103625500D01*
G75*
G02*
X163300500Y-103901000I-275500J0D01*
G01*
X162299500Y-103901000D01*
G75*
G02*
X162024000Y-103625500I0J275500D01*
G01*
X162024000Y-103074500D01*
G75*
G02*
X162299500Y-102799000I275500J0D01*
G01*
G37*
G36*
G01*
X162299500Y-104699000D02*
X163300500Y-104699000D01*
G75*
G02*
X163576000Y-104974500I0J-275500D01*
G01*
X163576000Y-105525500D01*
G75*
G02*
X163300500Y-105801000I-275500J0D01*
G01*
X162299500Y-105801000D01*
G75*
G02*
X162024000Y-105525500I0J275500D01*
G01*
X162024000Y-104974500D01*
G75*
G02*
X162299500Y-104699000I275500J0D01*
G01*
G37*
G36*
G01*
X106458000Y-107517999D02*
X106458000Y-108218001D01*
G75*
G02*
X106407001Y-108269000I-50999J0D01*
G01*
X105406999Y-108269000D01*
G75*
G02*
X105356000Y-108218001I0J50999D01*
G01*
X105356000Y-107517999D01*
G75*
G02*
X105406999Y-107467000I50999J0D01*
G01*
X106407001Y-107467000D01*
G75*
G02*
X106458000Y-107517999I0J-50999D01*
G01*
G37*
G36*
G01*
X106458000Y-111517999D02*
X106458000Y-112218001D01*
G75*
G02*
X106407001Y-112269000I-50999J0D01*
G01*
X105406999Y-112269000D01*
G75*
G02*
X105356000Y-112218001I0J50999D01*
G01*
X105356000Y-111517999D01*
G75*
G02*
X105406999Y-111467000I50999J0D01*
G01*
X106407001Y-111467000D01*
G75*
G02*
X106458000Y-111517999I0J-50999D01*
G01*
G37*
G36*
G01*
X100508000Y-111517999D02*
X100508000Y-112218001D01*
G75*
G02*
X100457001Y-112269000I-50999J0D01*
G01*
X99456999Y-112269000D01*
G75*
G02*
X99406000Y-112218001I0J50999D01*
G01*
X99406000Y-111517999D01*
G75*
G02*
X99456999Y-111467000I50999J0D01*
G01*
X100457001Y-111467000D01*
G75*
G02*
X100508000Y-111517999I0J-50999D01*
G01*
G37*
G36*
G01*
X100508000Y-107517999D02*
X100508000Y-108218001D01*
G75*
G02*
X100457001Y-108269000I-50999J0D01*
G01*
X99456999Y-108269000D01*
G75*
G02*
X99406000Y-108218001I0J50999D01*
G01*
X99406000Y-107517999D01*
G75*
G02*
X99456999Y-107467000I50999J0D01*
G01*
X100457001Y-107467000D01*
G75*
G02*
X100508000Y-107517999I0J-50999D01*
G01*
G37*
G36*
G01*
X100508000Y-101917999D02*
X100508000Y-102618001D01*
G75*
G02*
X100457001Y-102669000I-50999J0D01*
G01*
X99456999Y-102669000D01*
G75*
G02*
X99406000Y-102618001I0J50999D01*
G01*
X99406000Y-101917999D01*
G75*
G02*
X99456999Y-101867000I50999J0D01*
G01*
X100457001Y-101867000D01*
G75*
G02*
X100508000Y-101917999I0J-50999D01*
G01*
G37*
G36*
G01*
X100508000Y-105917999D02*
X100508000Y-106618001D01*
G75*
G02*
X100457001Y-106669000I-50999J0D01*
G01*
X99456999Y-106669000D01*
G75*
G02*
X99406000Y-106618001I0J50999D01*
G01*
X99406000Y-105917999D01*
G75*
G02*
X99456999Y-105867000I50999J0D01*
G01*
X100457001Y-105867000D01*
G75*
G02*
X100508000Y-105917999I0J-50999D01*
G01*
G37*
G36*
G01*
X106458000Y-105917999D02*
X106458000Y-106618001D01*
G75*
G02*
X106407001Y-106669000I-50999J0D01*
G01*
X105406999Y-106669000D01*
G75*
G02*
X105356000Y-106618001I0J50999D01*
G01*
X105356000Y-105917999D01*
G75*
G02*
X105406999Y-105867000I50999J0D01*
G01*
X106407001Y-105867000D01*
G75*
G02*
X106458000Y-105917999I0J-50999D01*
G01*
G37*
G36*
G01*
X106458000Y-101917999D02*
X106458000Y-102618001D01*
G75*
G02*
X106407001Y-102669000I-50999J0D01*
G01*
X105406999Y-102669000D01*
G75*
G02*
X105356000Y-102618001I0J50999D01*
G01*
X105356000Y-101917999D01*
G75*
G02*
X105406999Y-101867000I50999J0D01*
G01*
X106407001Y-101867000D01*
G75*
G02*
X106458000Y-101917999I0J-50999D01*
G01*
G37*
G36*
G01*
X123750000Y-111901000D02*
X121250000Y-111901000D01*
G75*
G02*
X121199000Y-111850000I0J51000D01*
G01*
X121199000Y-108550000D01*
G75*
G02*
X121250000Y-108499000I51000J0D01*
G01*
X123750000Y-108499000D01*
G75*
G02*
X123801000Y-108550000I0J-51000D01*
G01*
X123801000Y-111850000D01*
G75*
G02*
X123750000Y-111901000I-51000J0D01*
G01*
G37*
G36*
G01*
X116950000Y-111901000D02*
X114450000Y-111901000D01*
G75*
G02*
X114399000Y-111850000I0J51000D01*
G01*
X114399000Y-108550000D01*
G75*
G02*
X114450000Y-108499000I51000J0D01*
G01*
X116950000Y-108499000D01*
G75*
G02*
X117001000Y-108550000I0J-51000D01*
G01*
X117001000Y-111850000D01*
G75*
G02*
X116950000Y-111901000I-51000J0D01*
G01*
G37*
G36*
G01*
X144201000Y-105950000D02*
X144201000Y-108450000D01*
G75*
G02*
X144150000Y-108501000I-51000J0D01*
G01*
X140850000Y-108501000D01*
G75*
G02*
X140799000Y-108450000I0J51000D01*
G01*
X140799000Y-105950000D01*
G75*
G02*
X140850000Y-105899000I51000J0D01*
G01*
X144150000Y-105899000D01*
G75*
G02*
X144201000Y-105950000I0J-51000D01*
G01*
G37*
G36*
G01*
X144201000Y-99150000D02*
X144201000Y-101650000D01*
G75*
G02*
X144150000Y-101701000I-51000J0D01*
G01*
X140850000Y-101701000D01*
G75*
G02*
X140799000Y-101650000I0J51000D01*
G01*
X140799000Y-99150000D01*
G75*
G02*
X140850000Y-99099000I51000J0D01*
G01*
X144150000Y-99099000D01*
G75*
G02*
X144201000Y-99150000I0J-51000D01*
G01*
G37*
D12*
X179332000Y-109368000D03*
D13*
X179332000Y-106828000D03*
G36*
G01*
X168400000Y-107849000D02*
X169600000Y-107849000D01*
G75*
G02*
X169651000Y-107900000I0J-51000D01*
G01*
X169651000Y-108800000D01*
G75*
G02*
X169600000Y-108851000I-51000J0D01*
G01*
X168400000Y-108851000D01*
G75*
G02*
X168349000Y-108800000I0J51000D01*
G01*
X168349000Y-107900000D01*
G75*
G02*
X168400000Y-107849000I51000J0D01*
G01*
G37*
G36*
G01*
X168400000Y-111149000D02*
X169600000Y-111149000D01*
G75*
G02*
X169651000Y-111200000I0J-51000D01*
G01*
X169651000Y-112100000D01*
G75*
G02*
X169600000Y-112151000I-51000J0D01*
G01*
X168400000Y-112151000D01*
G75*
G02*
X168349000Y-112100000I0J51000D01*
G01*
X168349000Y-111200000D01*
G75*
G02*
X168400000Y-111149000I51000J0D01*
G01*
G37*
G36*
G01*
X91282000Y-110429000D02*
X89782000Y-110429000D01*
G75*
G02*
X89731000Y-110378000I0J51000D01*
G01*
X89731000Y-108878000D01*
G75*
G02*
X89782000Y-108827000I51000J0D01*
G01*
X91282000Y-108827000D01*
G75*
G02*
X91333000Y-108878000I0J-51000D01*
G01*
X91333000Y-110378000D01*
G75*
G02*
X91282000Y-110429000I-51000J0D01*
G01*
G37*
D14*
X90532000Y-107596000D03*
X90532000Y-105564000D03*
X90532000Y-103532000D03*
X92312000Y-108612000D03*
X92312000Y-106580000D03*
X92312000Y-104548000D03*
X92312000Y-102516000D03*
D15*
X87992000Y-112418000D03*
X87992000Y-99718000D03*
D16*
X91422000Y-97938000D03*
X91422000Y-114198000D03*
D14*
X97132000Y-112928000D03*
X97132000Y-110638000D03*
X97132000Y-101498000D03*
X97132000Y-99208000D03*
D10*
X180652000Y-103068000D03*
X178112000Y-103068000D03*
X175572000Y-103068000D03*
G36*
G01*
X173882000Y-103969000D02*
X172182000Y-103969000D01*
G75*
G02*
X172131000Y-103918000I0J51000D01*
G01*
X172131000Y-102218000D01*
G75*
G02*
X172182000Y-102167000I51000J0D01*
G01*
X173882000Y-102167000D01*
G75*
G02*
X173933000Y-102218000I0J-51000D01*
G01*
X173933000Y-103918000D01*
G75*
G02*
X173882000Y-103969000I-51000J0D01*
G01*
G37*
G36*
G01*
X173882000Y-100369000D02*
X172182000Y-100369000D01*
G75*
G02*
X172131000Y-100318000I0J51000D01*
G01*
X172131000Y-98618000D01*
G75*
G02*
X172182000Y-98567000I51000J0D01*
G01*
X173882000Y-98567000D01*
G75*
G02*
X173933000Y-98618000I0J-51000D01*
G01*
X173933000Y-100318000D01*
G75*
G02*
X173882000Y-100369000I-51000J0D01*
G01*
G37*
X175572000Y-99468000D03*
X178112000Y-99468000D03*
X180652000Y-99468000D03*
D17*
X152150000Y-114508000D03*
X165290000Y-114508000D03*
G36*
G01*
X154369000Y-112548000D02*
X154369000Y-111048000D01*
G75*
G02*
X154420000Y-110997000I51000J0D01*
G01*
X156020000Y-110997000D01*
G75*
G02*
X156071000Y-111048000I0J-51000D01*
G01*
X156071000Y-112548000D01*
G75*
G02*
X156020000Y-112599000I-51000J0D01*
G01*
X154420000Y-112599000D01*
G75*
G02*
X154369000Y-112548000I0J51000D01*
G01*
G37*
D18*
X157720000Y-111798000D03*
X159720000Y-111798000D03*
X162220000Y-111798000D03*
G36*
G01*
X162271000Y-118666295D02*
X162271000Y-120566297D01*
G75*
G02*
X162220001Y-120617296I-50999J0D01*
G01*
X161019999Y-120617296D01*
G75*
G02*
X160969000Y-120566297I0J50999D01*
G01*
X160969000Y-118666295D01*
G75*
G02*
X161019999Y-118615296I50999J0D01*
G01*
X162220001Y-118615296D01*
G75*
G02*
X162271000Y-118666295I0J-50999D01*
G01*
G37*
G36*
G01*
X156471000Y-118666295D02*
X156471000Y-120566297D01*
G75*
G02*
X156420001Y-120617296I-50999J0D01*
G01*
X155219999Y-120617296D01*
G75*
G02*
X155169000Y-120566297I0J50999D01*
G01*
X155169000Y-118666295D01*
G75*
G02*
X155219999Y-118615296I50999J0D01*
G01*
X156420001Y-118615296D01*
G75*
G02*
X156471000Y-118666295I0J-50999D01*
G01*
G37*
D19*
X155220000Y-119616296D03*
X162220000Y-119616296D03*
G36*
G01*
X160521000Y-118666296D02*
X160521000Y-120566296D01*
G75*
G02*
X160470000Y-120617296I-51000J0D01*
G01*
X158970000Y-120617296D01*
G75*
G02*
X158919000Y-120566296I0J51000D01*
G01*
X158919000Y-118666296D01*
G75*
G02*
X158970000Y-118615296I51000J0D01*
G01*
X160470000Y-118615296D01*
G75*
G02*
X160521000Y-118666296I0J-51000D01*
G01*
G37*
D20*
X156220000Y-116916296D03*
G36*
G01*
X158971000Y-116241296D02*
X158971000Y-117591296D01*
G75*
G02*
X158920000Y-117642296I-51000J0D01*
G01*
X158520000Y-117642296D01*
G75*
G02*
X158469000Y-117591296I0J51000D01*
G01*
X158469000Y-116241296D01*
G75*
G02*
X158520000Y-116190296I51000J0D01*
G01*
X158920000Y-116190296D01*
G75*
G02*
X158971000Y-116241296I0J-51000D01*
G01*
G37*
G36*
G01*
X158321000Y-116241296D02*
X158321000Y-117591296D01*
G75*
G02*
X158270000Y-117642296I-51000J0D01*
G01*
X157870000Y-117642296D01*
G75*
G02*
X157819000Y-117591296I0J51000D01*
G01*
X157819000Y-116241296D01*
G75*
G02*
X157870000Y-116190296I51000J0D01*
G01*
X158270000Y-116190296D01*
G75*
G02*
X158321000Y-116241296I0J-51000D01*
G01*
G37*
G36*
G01*
X157671000Y-116241296D02*
X157671000Y-117591296D01*
G75*
G02*
X157620000Y-117642296I-51000J0D01*
G01*
X157220000Y-117642296D01*
G75*
G02*
X157169000Y-117591296I0J51000D01*
G01*
X157169000Y-116241296D01*
G75*
G02*
X157220000Y-116190296I51000J0D01*
G01*
X157620000Y-116190296D01*
G75*
G02*
X157671000Y-116241296I0J-51000D01*
G01*
G37*
G36*
G01*
X160271000Y-116241296D02*
X160271000Y-117591296D01*
G75*
G02*
X160220000Y-117642296I-51000J0D01*
G01*
X159820000Y-117642296D01*
G75*
G02*
X159769000Y-117591296I0J51000D01*
G01*
X159769000Y-116241296D01*
G75*
G02*
X159820000Y-116190296I51000J0D01*
G01*
X160220000Y-116190296D01*
G75*
G02*
X160271000Y-116241296I0J-51000D01*
G01*
G37*
G36*
G01*
X159621000Y-116241296D02*
X159621000Y-117591296D01*
G75*
G02*
X159570000Y-117642296I-51000J0D01*
G01*
X159170000Y-117642296D01*
G75*
G02*
X159119000Y-117591296I0J51000D01*
G01*
X159119000Y-116241296D01*
G75*
G02*
X159170000Y-116190296I51000J0D01*
G01*
X159570000Y-116190296D01*
G75*
G02*
X159621000Y-116241296I0J-51000D01*
G01*
G37*
X161220000Y-116916296D03*
G36*
G01*
X158521000Y-118666296D02*
X158521000Y-120566296D01*
G75*
G02*
X158470000Y-120617296I-51000J0D01*
G01*
X156970000Y-120617296D01*
G75*
G02*
X156919000Y-120566296I0J51000D01*
G01*
X156919000Y-118666296D01*
G75*
G02*
X156970000Y-118615296I51000J0D01*
G01*
X158470000Y-118615296D01*
G75*
G02*
X158521000Y-118666296I0J-51000D01*
G01*
G37*
D21*
G36*
X172500020Y-109859950D02*
G01*
X172497118Y-109869517D01*
X172492405Y-109878334D01*
X172486062Y-109886062D01*
X172478334Y-109892405D01*
X172469517Y-109897118D01*
X172459950Y-109900020D01*
X172450000Y-109901000D01*
X170950000Y-109901000D01*
X170940050Y-109900020D01*
X170930483Y-109897118D01*
X170921666Y-109892405D01*
X170913938Y-109886062D01*
X170907595Y-109878334D01*
X170902882Y-109869517D01*
X170899980Y-109859950D01*
X170899000Y-109850000D01*
X170899000Y-109350000D01*
X170899602Y-109343888D01*
X170899602Y-109325466D01*
X170899848Y-109320467D01*
X170904658Y-109271636D01*
X170905392Y-109266686D01*
X170914964Y-109218561D01*
X170916180Y-109213705D01*
X170930424Y-109166750D01*
X170932110Y-109162039D01*
X170950887Y-109116706D01*
X170953027Y-109112180D01*
X170976158Y-109068907D01*
X170978731Y-109064616D01*
X171005991Y-109023817D01*
X171008973Y-109019796D01*
X171040101Y-108981867D01*
X171043462Y-108978159D01*
X171078159Y-108943462D01*
X171081867Y-108940101D01*
X171119796Y-108908973D01*
X171123817Y-108905991D01*
X171164616Y-108878731D01*
X171168907Y-108876158D01*
X171212180Y-108853027D01*
X171216706Y-108850887D01*
X171262039Y-108832110D01*
X171266750Y-108830424D01*
X171313705Y-108816180D01*
X171318561Y-108814964D01*
X171366686Y-108805392D01*
X171371636Y-108804658D01*
X171420467Y-108799848D01*
X171425466Y-108799602D01*
X171443888Y-108799602D01*
X171450000Y-108799000D01*
X171950000Y-108799000D01*
X171956112Y-108799602D01*
X171974534Y-108799602D01*
X171979533Y-108799848D01*
X172028364Y-108804658D01*
X172033314Y-108805392D01*
X172081439Y-108814964D01*
X172086295Y-108816180D01*
X172133250Y-108830424D01*
X172137961Y-108832110D01*
X172183294Y-108850887D01*
X172187820Y-108853027D01*
X172231093Y-108876158D01*
X172235384Y-108878731D01*
X172276183Y-108905991D01*
X172280204Y-108908973D01*
X172318133Y-108940101D01*
X172321841Y-108943462D01*
X172356538Y-108978159D01*
X172359899Y-108981867D01*
X172391027Y-109019796D01*
X172394009Y-109023817D01*
X172421269Y-109064616D01*
X172423842Y-109068907D01*
X172446973Y-109112180D01*
X172449113Y-109116706D01*
X172467890Y-109162039D01*
X172469576Y-109166750D01*
X172483820Y-109213705D01*
X172485036Y-109218561D01*
X172494608Y-109266686D01*
X172495342Y-109271636D01*
X172500152Y-109320467D01*
X172500398Y-109325466D01*
X172500398Y-109343888D01*
X172501000Y-109350000D01*
X172501000Y-109850000D01*
X172500020Y-109859950D01*
G37*
G36*
X172500398Y-110656112D02*
G01*
X172500398Y-110674534D01*
X172500152Y-110679533D01*
X172495342Y-110728364D01*
X172494608Y-110733314D01*
X172485036Y-110781439D01*
X172483820Y-110786295D01*
X172469576Y-110833250D01*
X172467890Y-110837961D01*
X172449113Y-110883294D01*
X172446973Y-110887820D01*
X172423842Y-110931093D01*
X172421269Y-110935384D01*
X172394009Y-110976183D01*
X172391027Y-110980204D01*
X172359899Y-111018133D01*
X172356538Y-111021841D01*
X172321841Y-111056538D01*
X172318133Y-111059899D01*
X172280204Y-111091027D01*
X172276183Y-111094009D01*
X172235384Y-111121269D01*
X172231093Y-111123842D01*
X172187820Y-111146973D01*
X172183294Y-111149113D01*
X172137961Y-111167890D01*
X172133250Y-111169576D01*
X172086295Y-111183820D01*
X172081439Y-111185036D01*
X172033314Y-111194608D01*
X172028364Y-111195342D01*
X171979533Y-111200152D01*
X171974534Y-111200398D01*
X171956112Y-111200398D01*
X171950000Y-111201000D01*
X171450000Y-111201000D01*
X171443888Y-111200398D01*
X171425466Y-111200398D01*
X171420467Y-111200152D01*
X171371636Y-111195342D01*
X171366686Y-111194608D01*
X171318561Y-111185036D01*
X171313705Y-111183820D01*
X171266750Y-111169576D01*
X171262039Y-111167890D01*
X171216706Y-111149113D01*
X171212180Y-111146973D01*
X171168907Y-111123842D01*
X171164616Y-111121269D01*
X171123817Y-111094009D01*
X171119796Y-111091027D01*
X171081867Y-111059899D01*
X171078159Y-111056538D01*
X171043462Y-111021841D01*
X171040101Y-111018133D01*
X171008973Y-110980204D01*
X171005991Y-110976183D01*
X170978731Y-110935384D01*
X170976158Y-110931093D01*
X170953027Y-110887820D01*
X170950887Y-110883294D01*
X170932110Y-110837961D01*
X170930424Y-110833250D01*
X170916180Y-110786295D01*
X170914964Y-110781439D01*
X170905392Y-110733314D01*
X170904658Y-110728364D01*
X170899848Y-110679533D01*
X170899602Y-110674534D01*
X170899602Y-110656112D01*
X170899000Y-110650000D01*
X170899000Y-110150000D01*
X170899980Y-110140050D01*
X170902882Y-110130483D01*
X170907595Y-110121666D01*
X170913938Y-110113938D01*
X170921666Y-110107595D01*
X170930483Y-110102882D01*
X170940050Y-110099980D01*
X170950000Y-110099000D01*
X172450000Y-110099000D01*
X172459950Y-110099980D01*
X172469517Y-110102882D01*
X172478334Y-110107595D01*
X172486062Y-110113938D01*
X172492405Y-110121666D01*
X172497118Y-110130483D01*
X172500020Y-110140050D01*
X172501000Y-110150000D01*
X172501000Y-110650000D01*
X172500398Y-110656112D01*
G37*
G36*
G01*
X125299000Y-115750000D02*
X125299000Y-110450000D01*
G75*
G02*
X125350000Y-110399000I51000J0D01*
G01*
X128150000Y-110399000D01*
G75*
G02*
X128201000Y-110450000I0J-51000D01*
G01*
X128201000Y-115750000D01*
G75*
G02*
X128150000Y-115801000I-51000J0D01*
G01*
X125350000Y-115801000D01*
G75*
G02*
X125299000Y-115750000I0J51000D01*
G01*
G37*
G36*
G01*
X135399000Y-115750000D02*
X135399000Y-110450000D01*
G75*
G02*
X135450000Y-110399000I51000J0D01*
G01*
X138250000Y-110399000D01*
G75*
G02*
X138301000Y-110450000I0J-51000D01*
G01*
X138301000Y-115750000D01*
G75*
G02*
X138250000Y-115801000I-51000J0D01*
G01*
X135450000Y-115801000D01*
G75*
G02*
X135399000Y-115750000I0J51000D01*
G01*
G37*
G36*
G01*
X177682000Y-112694000D02*
X176982000Y-112694000D01*
G75*
G02*
X176931000Y-112643000I0J51000D01*
G01*
X176931000Y-112193000D01*
G75*
G02*
X176982000Y-112142000I51000J0D01*
G01*
X177682000Y-112142000D01*
G75*
G02*
X177733000Y-112193000I0J-51000D01*
G01*
X177733000Y-112643000D01*
G75*
G02*
X177682000Y-112694000I-51000J0D01*
G01*
G37*
G36*
G01*
X177682000Y-111394000D02*
X176982000Y-111394000D01*
G75*
G02*
X176931000Y-111343000I0J51000D01*
G01*
X176931000Y-110893000D01*
G75*
G02*
X176982000Y-110842000I51000J0D01*
G01*
X177682000Y-110842000D01*
G75*
G02*
X177733000Y-110893000I0J-51000D01*
G01*
X177733000Y-111343000D01*
G75*
G02*
X177682000Y-111394000I-51000J0D01*
G01*
G37*
G36*
G01*
X179682000Y-112044000D02*
X178982000Y-112044000D01*
G75*
G02*
X178931000Y-111993000I0J51000D01*
G01*
X178931000Y-111543000D01*
G75*
G02*
X178982000Y-111492000I51000J0D01*
G01*
X179682000Y-111492000D01*
G75*
G02*
X179733000Y-111543000I0J-51000D01*
G01*
X179733000Y-111993000D01*
G75*
G02*
X179682000Y-112044000I-51000J0D01*
G01*
G37*
G36*
G01*
X123981000Y-104318000D02*
X123981000Y-101218000D01*
G75*
G02*
X124032000Y-101167000I51000J0D01*
G01*
X126632000Y-101167000D01*
G75*
G02*
X126683000Y-101218000I0J-51000D01*
G01*
X126683000Y-104318000D01*
G75*
G02*
X126632000Y-104369000I-51000J0D01*
G01*
X124032000Y-104369000D01*
G75*
G02*
X123981000Y-104318000I0J51000D01*
G01*
G37*
G36*
G01*
X121806000Y-104973000D02*
X121806000Y-104373000D01*
G75*
G02*
X121857000Y-104322000I51000J0D01*
G01*
X123407000Y-104322000D01*
G75*
G02*
X123458000Y-104373000I0J-51000D01*
G01*
X123458000Y-104973000D01*
G75*
G02*
X123407000Y-105024000I-51000J0D01*
G01*
X121857000Y-105024000D01*
G75*
G02*
X121806000Y-104973000I0J51000D01*
G01*
G37*
G36*
G01*
X121806000Y-103703000D02*
X121806000Y-103103000D01*
G75*
G02*
X121857000Y-103052000I51000J0D01*
G01*
X123407000Y-103052000D01*
G75*
G02*
X123458000Y-103103000I0J-51000D01*
G01*
X123458000Y-103703000D01*
G75*
G02*
X123407000Y-103754000I-51000J0D01*
G01*
X121857000Y-103754000D01*
G75*
G02*
X121806000Y-103703000I0J51000D01*
G01*
G37*
G36*
G01*
X121806000Y-102433000D02*
X121806000Y-101833000D01*
G75*
G02*
X121857000Y-101782000I51000J0D01*
G01*
X123407000Y-101782000D01*
G75*
G02*
X123458000Y-101833000I0J-51000D01*
G01*
X123458000Y-102433000D01*
G75*
G02*
X123407000Y-102484000I-51000J0D01*
G01*
X121857000Y-102484000D01*
G75*
G02*
X121806000Y-102433000I0J51000D01*
G01*
G37*
G36*
G01*
X121806000Y-101163000D02*
X121806000Y-100563000D01*
G75*
G02*
X121857000Y-100512000I51000J0D01*
G01*
X123407000Y-100512000D01*
G75*
G02*
X123458000Y-100563000I0J-51000D01*
G01*
X123458000Y-101163000D01*
G75*
G02*
X123407000Y-101214000I-51000J0D01*
G01*
X121857000Y-101214000D01*
G75*
G02*
X121806000Y-101163000I0J51000D01*
G01*
G37*
G36*
G01*
X127206000Y-101163000D02*
X127206000Y-100563000D01*
G75*
G02*
X127257000Y-100512000I51000J0D01*
G01*
X128807000Y-100512000D01*
G75*
G02*
X128858000Y-100563000I0J-51000D01*
G01*
X128858000Y-101163000D01*
G75*
G02*
X128807000Y-101214000I-51000J0D01*
G01*
X127257000Y-101214000D01*
G75*
G02*
X127206000Y-101163000I0J51000D01*
G01*
G37*
G36*
G01*
X127206000Y-102433000D02*
X127206000Y-101833000D01*
G75*
G02*
X127257000Y-101782000I51000J0D01*
G01*
X128807000Y-101782000D01*
G75*
G02*
X128858000Y-101833000I0J-51000D01*
G01*
X128858000Y-102433000D01*
G75*
G02*
X128807000Y-102484000I-51000J0D01*
G01*
X127257000Y-102484000D01*
G75*
G02*
X127206000Y-102433000I0J51000D01*
G01*
G37*
G36*
G01*
X127206000Y-103703000D02*
X127206000Y-103103000D01*
G75*
G02*
X127257000Y-103052000I51000J0D01*
G01*
X128807000Y-103052000D01*
G75*
G02*
X128858000Y-103103000I0J-51000D01*
G01*
X128858000Y-103703000D01*
G75*
G02*
X128807000Y-103754000I-51000J0D01*
G01*
X127257000Y-103754000D01*
G75*
G02*
X127206000Y-103703000I0J51000D01*
G01*
G37*
G36*
G01*
X127206000Y-104973000D02*
X127206000Y-104373000D01*
G75*
G02*
X127257000Y-104322000I51000J0D01*
G01*
X128807000Y-104322000D01*
G75*
G02*
X128858000Y-104373000I0J-51000D01*
G01*
X128858000Y-104973000D01*
G75*
G02*
X128807000Y-105024000I-51000J0D01*
G01*
X127257000Y-105024000D01*
G75*
G02*
X127206000Y-104973000I0J51000D01*
G01*
G37*
G36*
G01*
X153581000Y-107895500D02*
X153581000Y-107495500D01*
G75*
G02*
X153632000Y-107444500I51000J0D01*
G01*
X154832000Y-107444500D01*
G75*
G02*
X154883000Y-107495500I0J-51000D01*
G01*
X154883000Y-107895500D01*
G75*
G02*
X154832000Y-107946500I-51000J0D01*
G01*
X153632000Y-107946500D01*
G75*
G02*
X153581000Y-107895500I0J51000D01*
G01*
G37*
G36*
G01*
X153581000Y-107260500D02*
X153581000Y-106860500D01*
G75*
G02*
X153632000Y-106809500I51000J0D01*
G01*
X154832000Y-106809500D01*
G75*
G02*
X154883000Y-106860500I0J-51000D01*
G01*
X154883000Y-107260500D01*
G75*
G02*
X154832000Y-107311500I-51000J0D01*
G01*
X153632000Y-107311500D01*
G75*
G02*
X153581000Y-107260500I0J51000D01*
G01*
G37*
G36*
G01*
X153581000Y-106625500D02*
X153581000Y-106225500D01*
G75*
G02*
X153632000Y-106174500I51000J0D01*
G01*
X154832000Y-106174500D01*
G75*
G02*
X154883000Y-106225500I0J-51000D01*
G01*
X154883000Y-106625500D01*
G75*
G02*
X154832000Y-106676500I-51000J0D01*
G01*
X153632000Y-106676500D01*
G75*
G02*
X153581000Y-106625500I0J51000D01*
G01*
G37*
G36*
G01*
X153581000Y-105990500D02*
X153581000Y-105590500D01*
G75*
G02*
X153632000Y-105539500I51000J0D01*
G01*
X154832000Y-105539500D01*
G75*
G02*
X154883000Y-105590500I0J-51000D01*
G01*
X154883000Y-105990500D01*
G75*
G02*
X154832000Y-106041500I-51000J0D01*
G01*
X153632000Y-106041500D01*
G75*
G02*
X153581000Y-105990500I0J51000D01*
G01*
G37*
G36*
G01*
X153581000Y-105355500D02*
X153581000Y-104955500D01*
G75*
G02*
X153632000Y-104904500I51000J0D01*
G01*
X154832000Y-104904500D01*
G75*
G02*
X154883000Y-104955500I0J-51000D01*
G01*
X154883000Y-105355500D01*
G75*
G02*
X154832000Y-105406500I-51000J0D01*
G01*
X153632000Y-105406500D01*
G75*
G02*
X153581000Y-105355500I0J51000D01*
G01*
G37*
G36*
G01*
X153581000Y-104720500D02*
X153581000Y-104320500D01*
G75*
G02*
X153632000Y-104269500I51000J0D01*
G01*
X154832000Y-104269500D01*
G75*
G02*
X154883000Y-104320500I0J-51000D01*
G01*
X154883000Y-104720500D01*
G75*
G02*
X154832000Y-104771500I-51000J0D01*
G01*
X153632000Y-104771500D01*
G75*
G02*
X153581000Y-104720500I0J51000D01*
G01*
G37*
G36*
G01*
X153581000Y-104085500D02*
X153581000Y-103685500D01*
G75*
G02*
X153632000Y-103634500I51000J0D01*
G01*
X154832000Y-103634500D01*
G75*
G02*
X154883000Y-103685500I0J-51000D01*
G01*
X154883000Y-104085500D01*
G75*
G02*
X154832000Y-104136500I-51000J0D01*
G01*
X153632000Y-104136500D01*
G75*
G02*
X153581000Y-104085500I0J51000D01*
G01*
G37*
G36*
G01*
X153581000Y-103450500D02*
X153581000Y-103050500D01*
G75*
G02*
X153632000Y-102999500I51000J0D01*
G01*
X154832000Y-102999500D01*
G75*
G02*
X154883000Y-103050500I0J-51000D01*
G01*
X154883000Y-103450500D01*
G75*
G02*
X154832000Y-103501500I-51000J0D01*
G01*
X153632000Y-103501500D01*
G75*
G02*
X153581000Y-103450500I0J51000D01*
G01*
G37*
G36*
G01*
X153581000Y-102815500D02*
X153581000Y-102415500D01*
G75*
G02*
X153632000Y-102364500I51000J0D01*
G01*
X154832000Y-102364500D01*
G75*
G02*
X154883000Y-102415500I0J-51000D01*
G01*
X154883000Y-102815500D01*
G75*
G02*
X154832000Y-102866500I-51000J0D01*
G01*
X153632000Y-102866500D01*
G75*
G02*
X153581000Y-102815500I0J51000D01*
G01*
G37*
G36*
G01*
X153581000Y-102180500D02*
X153581000Y-101780500D01*
G75*
G02*
X153632000Y-101729500I51000J0D01*
G01*
X154832000Y-101729500D01*
G75*
G02*
X154883000Y-101780500I0J-51000D01*
G01*
X154883000Y-102180500D01*
G75*
G02*
X154832000Y-102231500I-51000J0D01*
G01*
X153632000Y-102231500D01*
G75*
G02*
X153581000Y-102180500I0J51000D01*
G01*
G37*
G36*
G01*
X153581000Y-101545500D02*
X153581000Y-101145500D01*
G75*
G02*
X153632000Y-101094500I51000J0D01*
G01*
X154832000Y-101094500D01*
G75*
G02*
X154883000Y-101145500I0J-51000D01*
G01*
X154883000Y-101545500D01*
G75*
G02*
X154832000Y-101596500I-51000J0D01*
G01*
X153632000Y-101596500D01*
G75*
G02*
X153581000Y-101545500I0J51000D01*
G01*
G37*
G36*
G01*
X153581000Y-100910500D02*
X153581000Y-100510500D01*
G75*
G02*
X153632000Y-100459500I51000J0D01*
G01*
X154832000Y-100459500D01*
G75*
G02*
X154883000Y-100510500I0J-51000D01*
G01*
X154883000Y-100910500D01*
G75*
G02*
X154832000Y-100961500I-51000J0D01*
G01*
X153632000Y-100961500D01*
G75*
G02*
X153581000Y-100910500I0J51000D01*
G01*
G37*
G36*
G01*
X153581000Y-100275500D02*
X153581000Y-99875500D01*
G75*
G02*
X153632000Y-99824500I51000J0D01*
G01*
X154832000Y-99824500D01*
G75*
G02*
X154883000Y-99875500I0J-51000D01*
G01*
X154883000Y-100275500D01*
G75*
G02*
X154832000Y-100326500I-51000J0D01*
G01*
X153632000Y-100326500D01*
G75*
G02*
X153581000Y-100275500I0J51000D01*
G01*
G37*
G36*
G01*
X153581000Y-99640500D02*
X153581000Y-99240500D01*
G75*
G02*
X153632000Y-99189500I51000J0D01*
G01*
X154832000Y-99189500D01*
G75*
G02*
X154883000Y-99240500I0J-51000D01*
G01*
X154883000Y-99640500D01*
G75*
G02*
X154832000Y-99691500I-51000J0D01*
G01*
X153632000Y-99691500D01*
G75*
G02*
X153581000Y-99640500I0J51000D01*
G01*
G37*
G36*
G01*
X158781000Y-99640500D02*
X158781000Y-99240500D01*
G75*
G02*
X158832000Y-99189500I51000J0D01*
G01*
X160032000Y-99189500D01*
G75*
G02*
X160083000Y-99240500I0J-51000D01*
G01*
X160083000Y-99640500D01*
G75*
G02*
X160032000Y-99691500I-51000J0D01*
G01*
X158832000Y-99691500D01*
G75*
G02*
X158781000Y-99640500I0J51000D01*
G01*
G37*
G36*
G01*
X158781000Y-100275500D02*
X158781000Y-99875500D01*
G75*
G02*
X158832000Y-99824500I51000J0D01*
G01*
X160032000Y-99824500D01*
G75*
G02*
X160083000Y-99875500I0J-51000D01*
G01*
X160083000Y-100275500D01*
G75*
G02*
X160032000Y-100326500I-51000J0D01*
G01*
X158832000Y-100326500D01*
G75*
G02*
X158781000Y-100275500I0J51000D01*
G01*
G37*
G36*
G01*
X158781000Y-100910500D02*
X158781000Y-100510500D01*
G75*
G02*
X158832000Y-100459500I51000J0D01*
G01*
X160032000Y-100459500D01*
G75*
G02*
X160083000Y-100510500I0J-51000D01*
G01*
X160083000Y-100910500D01*
G75*
G02*
X160032000Y-100961500I-51000J0D01*
G01*
X158832000Y-100961500D01*
G75*
G02*
X158781000Y-100910500I0J51000D01*
G01*
G37*
G36*
G01*
X158781000Y-101545500D02*
X158781000Y-101145500D01*
G75*
G02*
X158832000Y-101094500I51000J0D01*
G01*
X160032000Y-101094500D01*
G75*
G02*
X160083000Y-101145500I0J-51000D01*
G01*
X160083000Y-101545500D01*
G75*
G02*
X160032000Y-101596500I-51000J0D01*
G01*
X158832000Y-101596500D01*
G75*
G02*
X158781000Y-101545500I0J51000D01*
G01*
G37*
G36*
G01*
X158781000Y-102180500D02*
X158781000Y-101780500D01*
G75*
G02*
X158832000Y-101729500I51000J0D01*
G01*
X160032000Y-101729500D01*
G75*
G02*
X160083000Y-101780500I0J-51000D01*
G01*
X160083000Y-102180500D01*
G75*
G02*
X160032000Y-102231500I-51000J0D01*
G01*
X158832000Y-102231500D01*
G75*
G02*
X158781000Y-102180500I0J51000D01*
G01*
G37*
G36*
G01*
X158781000Y-102815500D02*
X158781000Y-102415500D01*
G75*
G02*
X158832000Y-102364500I51000J0D01*
G01*
X160032000Y-102364500D01*
G75*
G02*
X160083000Y-102415500I0J-51000D01*
G01*
X160083000Y-102815500D01*
G75*
G02*
X160032000Y-102866500I-51000J0D01*
G01*
X158832000Y-102866500D01*
G75*
G02*
X158781000Y-102815500I0J51000D01*
G01*
G37*
G36*
G01*
X158781000Y-103450500D02*
X158781000Y-103050500D01*
G75*
G02*
X158832000Y-102999500I51000J0D01*
G01*
X160032000Y-102999500D01*
G75*
G02*
X160083000Y-103050500I0J-51000D01*
G01*
X160083000Y-103450500D01*
G75*
G02*
X160032000Y-103501500I-51000J0D01*
G01*
X158832000Y-103501500D01*
G75*
G02*
X158781000Y-103450500I0J51000D01*
G01*
G37*
G36*
G01*
X158781000Y-104085500D02*
X158781000Y-103685500D01*
G75*
G02*
X158832000Y-103634500I51000J0D01*
G01*
X160032000Y-103634500D01*
G75*
G02*
X160083000Y-103685500I0J-51000D01*
G01*
X160083000Y-104085500D01*
G75*
G02*
X160032000Y-104136500I-51000J0D01*
G01*
X158832000Y-104136500D01*
G75*
G02*
X158781000Y-104085500I0J51000D01*
G01*
G37*
G36*
G01*
X158781000Y-104720500D02*
X158781000Y-104320500D01*
G75*
G02*
X158832000Y-104269500I51000J0D01*
G01*
X160032000Y-104269500D01*
G75*
G02*
X160083000Y-104320500I0J-51000D01*
G01*
X160083000Y-104720500D01*
G75*
G02*
X160032000Y-104771500I-51000J0D01*
G01*
X158832000Y-104771500D01*
G75*
G02*
X158781000Y-104720500I0J51000D01*
G01*
G37*
G36*
G01*
X158781000Y-105355500D02*
X158781000Y-104955500D01*
G75*
G02*
X158832000Y-104904500I51000J0D01*
G01*
X160032000Y-104904500D01*
G75*
G02*
X160083000Y-104955500I0J-51000D01*
G01*
X160083000Y-105355500D01*
G75*
G02*
X160032000Y-105406500I-51000J0D01*
G01*
X158832000Y-105406500D01*
G75*
G02*
X158781000Y-105355500I0J51000D01*
G01*
G37*
G36*
G01*
X158781000Y-105990500D02*
X158781000Y-105590500D01*
G75*
G02*
X158832000Y-105539500I51000J0D01*
G01*
X160032000Y-105539500D01*
G75*
G02*
X160083000Y-105590500I0J-51000D01*
G01*
X160083000Y-105990500D01*
G75*
G02*
X160032000Y-106041500I-51000J0D01*
G01*
X158832000Y-106041500D01*
G75*
G02*
X158781000Y-105990500I0J51000D01*
G01*
G37*
G36*
G01*
X158781000Y-106625500D02*
X158781000Y-106225500D01*
G75*
G02*
X158832000Y-106174500I51000J0D01*
G01*
X160032000Y-106174500D01*
G75*
G02*
X160083000Y-106225500I0J-51000D01*
G01*
X160083000Y-106625500D01*
G75*
G02*
X160032000Y-106676500I-51000J0D01*
G01*
X158832000Y-106676500D01*
G75*
G02*
X158781000Y-106625500I0J51000D01*
G01*
G37*
G36*
G01*
X158781000Y-107260500D02*
X158781000Y-106860500D01*
G75*
G02*
X158832000Y-106809500I51000J0D01*
G01*
X160032000Y-106809500D01*
G75*
G02*
X160083000Y-106860500I0J-51000D01*
G01*
X160083000Y-107260500D01*
G75*
G02*
X160032000Y-107311500I-51000J0D01*
G01*
X158832000Y-107311500D01*
G75*
G02*
X158781000Y-107260500I0J51000D01*
G01*
G37*
G36*
G01*
X158781000Y-107895500D02*
X158781000Y-107495500D01*
G75*
G02*
X158832000Y-107444500I51000J0D01*
G01*
X160032000Y-107444500D01*
G75*
G02*
X160083000Y-107495500I0J-51000D01*
G01*
X160083000Y-107895500D01*
G75*
G02*
X160032000Y-107946500I-51000J0D01*
G01*
X158832000Y-107946500D01*
G75*
G02*
X158781000Y-107895500I0J51000D01*
G01*
G37*
G36*
G01*
X149732000Y-110369000D02*
X147932000Y-110369000D01*
G75*
G02*
X147881000Y-110318000I0J51000D01*
G01*
X147881000Y-108218000D01*
G75*
G02*
X147932000Y-108167000I51000J0D01*
G01*
X149732000Y-108167000D01*
G75*
G02*
X149783000Y-108218000I0J-51000D01*
G01*
X149783000Y-110318000D01*
G75*
G02*
X149732000Y-110369000I-51000J0D01*
G01*
G37*
G36*
G01*
X149732000Y-107469000D02*
X147932000Y-107469000D01*
G75*
G02*
X147881000Y-107418000I0J51000D01*
G01*
X147881000Y-105318000D01*
G75*
G02*
X147932000Y-105267000I51000J0D01*
G01*
X149732000Y-105267000D01*
G75*
G02*
X149783000Y-105318000I0J-51000D01*
G01*
X149783000Y-107418000D01*
G75*
G02*
X149732000Y-107469000I-51000J0D01*
G01*
G37*
G36*
G01*
X152032000Y-107469000D02*
X150232000Y-107469000D01*
G75*
G02*
X150181000Y-107418000I0J51000D01*
G01*
X150181000Y-105318000D01*
G75*
G02*
X150232000Y-105267000I51000J0D01*
G01*
X152032000Y-105267000D01*
G75*
G02*
X152083000Y-105318000I0J-51000D01*
G01*
X152083000Y-107418000D01*
G75*
G02*
X152032000Y-107469000I-51000J0D01*
G01*
G37*
G36*
G01*
X152032000Y-110369000D02*
X150232000Y-110369000D01*
G75*
G02*
X150181000Y-110318000I0J51000D01*
G01*
X150181000Y-108218000D01*
G75*
G02*
X150232000Y-108167000I51000J0D01*
G01*
X152032000Y-108167000D01*
G75*
G02*
X152083000Y-108218000I0J-51000D01*
G01*
X152083000Y-110318000D01*
G75*
G02*
X152032000Y-110369000I-51000J0D01*
G01*
G37*
G36*
G01*
X119851000Y-104504500D02*
X119851000Y-104895500D01*
G75*
G02*
X119685500Y-105061000I-165500J0D01*
G01*
X119354500Y-105061000D01*
G75*
G02*
X119189000Y-104895500I0J165500D01*
G01*
X119189000Y-104504500D01*
G75*
G02*
X119354500Y-104339000I165500J0D01*
G01*
X119685500Y-104339000D01*
G75*
G02*
X119851000Y-104504500I0J-165500D01*
G01*
G37*
G36*
G01*
X120811000Y-104504500D02*
X120811000Y-104895500D01*
G75*
G02*
X120645500Y-105061000I-165500J0D01*
G01*
X120314500Y-105061000D01*
G75*
G02*
X120149000Y-104895500I0J165500D01*
G01*
X120149000Y-104504500D01*
G75*
G02*
X120314500Y-104339000I165500J0D01*
G01*
X120645500Y-104339000D01*
G75*
G02*
X120811000Y-104504500I0J-165500D01*
G01*
G37*
G36*
G01*
X132717000Y-102863500D02*
X132717000Y-102472500D01*
G75*
G02*
X132882500Y-102307000I165500J0D01*
G01*
X133213500Y-102307000D01*
G75*
G02*
X133379000Y-102472500I0J-165500D01*
G01*
X133379000Y-102863500D01*
G75*
G02*
X133213500Y-103029000I-165500J0D01*
G01*
X132882500Y-103029000D01*
G75*
G02*
X132717000Y-102863500I0J165500D01*
G01*
G37*
G36*
G01*
X131757000Y-102863500D02*
X131757000Y-102472500D01*
G75*
G02*
X131922500Y-102307000I165500J0D01*
G01*
X132253500Y-102307000D01*
G75*
G02*
X132419000Y-102472500I0J-165500D01*
G01*
X132419000Y-102863500D01*
G75*
G02*
X132253500Y-103029000I-165500J0D01*
G01*
X131922500Y-103029000D01*
G75*
G02*
X131757000Y-102863500I0J165500D01*
G01*
G37*
G36*
G01*
X132717000Y-101863500D02*
X132717000Y-101472500D01*
G75*
G02*
X132882500Y-101307000I165500J0D01*
G01*
X133213500Y-101307000D01*
G75*
G02*
X133379000Y-101472500I0J-165500D01*
G01*
X133379000Y-101863500D01*
G75*
G02*
X133213500Y-102029000I-165500J0D01*
G01*
X132882500Y-102029000D01*
G75*
G02*
X132717000Y-101863500I0J165500D01*
G01*
G37*
G36*
G01*
X131757000Y-101863500D02*
X131757000Y-101472500D01*
G75*
G02*
X131922500Y-101307000I165500J0D01*
G01*
X132253500Y-101307000D01*
G75*
G02*
X132419000Y-101472500I0J-165500D01*
G01*
X132419000Y-101863500D01*
G75*
G02*
X132253500Y-102029000I-165500J0D01*
G01*
X131922500Y-102029000D01*
G75*
G02*
X131757000Y-101863500I0J165500D01*
G01*
G37*
G36*
G01*
X102989000Y-120195500D02*
X102989000Y-119804500D01*
G75*
G02*
X103154500Y-119639000I165500J0D01*
G01*
X103485500Y-119639000D01*
G75*
G02*
X103651000Y-119804500I0J-165500D01*
G01*
X103651000Y-120195500D01*
G75*
G02*
X103485500Y-120361000I-165500J0D01*
G01*
X103154500Y-120361000D01*
G75*
G02*
X102989000Y-120195500I0J165500D01*
G01*
G37*
G36*
G01*
X103949000Y-120195500D02*
X103949000Y-119804500D01*
G75*
G02*
X104114500Y-119639000I165500J0D01*
G01*
X104445500Y-119639000D01*
G75*
G02*
X104611000Y-119804500I0J-165500D01*
G01*
X104611000Y-120195500D01*
G75*
G02*
X104445500Y-120361000I-165500J0D01*
G01*
X104114500Y-120361000D01*
G75*
G02*
X103949000Y-120195500I0J165500D01*
G01*
G37*
G36*
G01*
X100869000Y-98795500D02*
X100869000Y-98404500D01*
G75*
G02*
X101034500Y-98239000I165500J0D01*
G01*
X101365500Y-98239000D01*
G75*
G02*
X101531000Y-98404500I0J-165500D01*
G01*
X101531000Y-98795500D01*
G75*
G02*
X101365500Y-98961000I-165500J0D01*
G01*
X101034500Y-98961000D01*
G75*
G02*
X100869000Y-98795500I0J165500D01*
G01*
G37*
G36*
G01*
X101829000Y-98795500D02*
X101829000Y-98404500D01*
G75*
G02*
X101994500Y-98239000I165500J0D01*
G01*
X102325500Y-98239000D01*
G75*
G02*
X102491000Y-98404500I0J-165500D01*
G01*
X102491000Y-98795500D01*
G75*
G02*
X102325500Y-98961000I-165500J0D01*
G01*
X101994500Y-98961000D01*
G75*
G02*
X101829000Y-98795500I0J165500D01*
G01*
G37*
G36*
G01*
X108204500Y-100249000D02*
X108595500Y-100249000D01*
G75*
G02*
X108761000Y-100414500I0J-165500D01*
G01*
X108761000Y-100745500D01*
G75*
G02*
X108595500Y-100911000I-165500J0D01*
G01*
X108204500Y-100911000D01*
G75*
G02*
X108039000Y-100745500I0J165500D01*
G01*
X108039000Y-100414500D01*
G75*
G02*
X108204500Y-100249000I165500J0D01*
G01*
G37*
G36*
G01*
X108204500Y-99289000D02*
X108595500Y-99289000D01*
G75*
G02*
X108761000Y-99454500I0J-165500D01*
G01*
X108761000Y-99785500D01*
G75*
G02*
X108595500Y-99951000I-165500J0D01*
G01*
X108204500Y-99951000D01*
G75*
G02*
X108039000Y-99785500I0J165500D01*
G01*
X108039000Y-99454500D01*
G75*
G02*
X108204500Y-99289000I165500J0D01*
G01*
G37*
G36*
G01*
X109604500Y-94089000D02*
X109995500Y-94089000D01*
G75*
G02*
X110161000Y-94254500I0J-165500D01*
G01*
X110161000Y-94585500D01*
G75*
G02*
X109995500Y-94751000I-165500J0D01*
G01*
X109604500Y-94751000D01*
G75*
G02*
X109439000Y-94585500I0J165500D01*
G01*
X109439000Y-94254500D01*
G75*
G02*
X109604500Y-94089000I165500J0D01*
G01*
G37*
G36*
G01*
X109604500Y-95049000D02*
X109995500Y-95049000D01*
G75*
G02*
X110161000Y-95214500I0J-165500D01*
G01*
X110161000Y-95545500D01*
G75*
G02*
X109995500Y-95711000I-165500J0D01*
G01*
X109604500Y-95711000D01*
G75*
G02*
X109439000Y-95545500I0J165500D01*
G01*
X109439000Y-95214500D01*
G75*
G02*
X109604500Y-95049000I165500J0D01*
G01*
G37*
G36*
G01*
X116281000Y-94163500D02*
X116281000Y-93772500D01*
G75*
G02*
X116446500Y-93607000I165500J0D01*
G01*
X116777500Y-93607000D01*
G75*
G02*
X116943000Y-93772500I0J-165500D01*
G01*
X116943000Y-94163500D01*
G75*
G02*
X116777500Y-94329000I-165500J0D01*
G01*
X116446500Y-94329000D01*
G75*
G02*
X116281000Y-94163500I0J165500D01*
G01*
G37*
G36*
G01*
X115321000Y-94163500D02*
X115321000Y-93772500D01*
G75*
G02*
X115486500Y-93607000I165500J0D01*
G01*
X115817500Y-93607000D01*
G75*
G02*
X115983000Y-93772500I0J-165500D01*
G01*
X115983000Y-94163500D01*
G75*
G02*
X115817500Y-94329000I-165500J0D01*
G01*
X115486500Y-94329000D01*
G75*
G02*
X115321000Y-94163500I0J165500D01*
G01*
G37*
G36*
G01*
X149161000Y-99563500D02*
X149161000Y-99172500D01*
G75*
G02*
X149326500Y-99007000I165500J0D01*
G01*
X149657500Y-99007000D01*
G75*
G02*
X149823000Y-99172500I0J-165500D01*
G01*
X149823000Y-99563500D01*
G75*
G02*
X149657500Y-99729000I-165500J0D01*
G01*
X149326500Y-99729000D01*
G75*
G02*
X149161000Y-99563500I0J165500D01*
G01*
G37*
G36*
G01*
X148201000Y-99563500D02*
X148201000Y-99172500D01*
G75*
G02*
X148366500Y-99007000I165500J0D01*
G01*
X148697500Y-99007000D01*
G75*
G02*
X148863000Y-99172500I0J-165500D01*
G01*
X148863000Y-99563500D01*
G75*
G02*
X148697500Y-99729000I-165500J0D01*
G01*
X148366500Y-99729000D01*
G75*
G02*
X148201000Y-99563500I0J165500D01*
G01*
G37*
G36*
G01*
X115321000Y-93163500D02*
X115321000Y-92772500D01*
G75*
G02*
X115486500Y-92607000I165500J0D01*
G01*
X115817500Y-92607000D01*
G75*
G02*
X115983000Y-92772500I0J-165500D01*
G01*
X115983000Y-93163500D01*
G75*
G02*
X115817500Y-93329000I-165500J0D01*
G01*
X115486500Y-93329000D01*
G75*
G02*
X115321000Y-93163500I0J165500D01*
G01*
G37*
G36*
G01*
X116281000Y-93163500D02*
X116281000Y-92772500D01*
G75*
G02*
X116446500Y-92607000I165500J0D01*
G01*
X116777500Y-92607000D01*
G75*
G02*
X116943000Y-92772500I0J-165500D01*
G01*
X116943000Y-93163500D01*
G75*
G02*
X116777500Y-93329000I-165500J0D01*
G01*
X116446500Y-93329000D01*
G75*
G02*
X116281000Y-93163500I0J165500D01*
G01*
G37*
G36*
G01*
X116281000Y-96167500D02*
X116281000Y-95776500D01*
G75*
G02*
X116446500Y-95611000I165500J0D01*
G01*
X116777500Y-95611000D01*
G75*
G02*
X116943000Y-95776500I0J-165500D01*
G01*
X116943000Y-96167500D01*
G75*
G02*
X116777500Y-96333000I-165500J0D01*
G01*
X116446500Y-96333000D01*
G75*
G02*
X116281000Y-96167500I0J165500D01*
G01*
G37*
G36*
G01*
X115321000Y-96167500D02*
X115321000Y-95776500D01*
G75*
G02*
X115486500Y-95611000I165500J0D01*
G01*
X115817500Y-95611000D01*
G75*
G02*
X115983000Y-95776500I0J-165500D01*
G01*
X115983000Y-96167500D01*
G75*
G02*
X115817500Y-96333000I-165500J0D01*
G01*
X115486500Y-96333000D01*
G75*
G02*
X115321000Y-96167500I0J165500D01*
G01*
G37*
G36*
G01*
X110636500Y-95049000D02*
X111027500Y-95049000D01*
G75*
G02*
X111193000Y-95214500I0J-165500D01*
G01*
X111193000Y-95545500D01*
G75*
G02*
X111027500Y-95711000I-165500J0D01*
G01*
X110636500Y-95711000D01*
G75*
G02*
X110471000Y-95545500I0J165500D01*
G01*
X110471000Y-95214500D01*
G75*
G02*
X110636500Y-95049000I165500J0D01*
G01*
G37*
G36*
G01*
X110636500Y-94089000D02*
X111027500Y-94089000D01*
G75*
G02*
X111193000Y-94254500I0J-165500D01*
G01*
X111193000Y-94585500D01*
G75*
G02*
X111027500Y-94751000I-165500J0D01*
G01*
X110636500Y-94751000D01*
G75*
G02*
X110471000Y-94585500I0J165500D01*
G01*
X110471000Y-94254500D01*
G75*
G02*
X110636500Y-94089000I165500J0D01*
G01*
G37*
G36*
G01*
X115321000Y-97167500D02*
X115321000Y-96776500D01*
G75*
G02*
X115486500Y-96611000I165500J0D01*
G01*
X115817500Y-96611000D01*
G75*
G02*
X115983000Y-96776500I0J-165500D01*
G01*
X115983000Y-97167500D01*
G75*
G02*
X115817500Y-97333000I-165500J0D01*
G01*
X115486500Y-97333000D01*
G75*
G02*
X115321000Y-97167500I0J165500D01*
G01*
G37*
G36*
G01*
X116281000Y-97167500D02*
X116281000Y-96776500D01*
G75*
G02*
X116446500Y-96611000I165500J0D01*
G01*
X116777500Y-96611000D01*
G75*
G02*
X116943000Y-96776500I0J-165500D01*
G01*
X116943000Y-97167500D01*
G75*
G02*
X116777500Y-97333000I-165500J0D01*
G01*
X116446500Y-97333000D01*
G75*
G02*
X116281000Y-97167500I0J165500D01*
G01*
G37*
G36*
G01*
X149883000Y-104272500D02*
X149883000Y-104663500D01*
G75*
G02*
X149717500Y-104829000I-165500J0D01*
G01*
X149386500Y-104829000D01*
G75*
G02*
X149221000Y-104663500I0J165500D01*
G01*
X149221000Y-104272500D01*
G75*
G02*
X149386500Y-104107000I165500J0D01*
G01*
X149717500Y-104107000D01*
G75*
G02*
X149883000Y-104272500I0J-165500D01*
G01*
G37*
G36*
G01*
X150843000Y-104272500D02*
X150843000Y-104663500D01*
G75*
G02*
X150677500Y-104829000I-165500J0D01*
G01*
X150346500Y-104829000D01*
G75*
G02*
X150181000Y-104663500I0J165500D01*
G01*
X150181000Y-104272500D01*
G75*
G02*
X150346500Y-104107000I165500J0D01*
G01*
X150677500Y-104107000D01*
G75*
G02*
X150843000Y-104272500I0J-165500D01*
G01*
G37*
G36*
G01*
X149221000Y-111363500D02*
X149221000Y-110972500D01*
G75*
G02*
X149386500Y-110807000I165500J0D01*
G01*
X149717500Y-110807000D01*
G75*
G02*
X149883000Y-110972500I0J-165500D01*
G01*
X149883000Y-111363500D01*
G75*
G02*
X149717500Y-111529000I-165500J0D01*
G01*
X149386500Y-111529000D01*
G75*
G02*
X149221000Y-111363500I0J165500D01*
G01*
G37*
G36*
G01*
X150181000Y-111363500D02*
X150181000Y-110972500D01*
G75*
G02*
X150346500Y-110807000I165500J0D01*
G01*
X150677500Y-110807000D01*
G75*
G02*
X150843000Y-110972500I0J-165500D01*
G01*
X150843000Y-111363500D01*
G75*
G02*
X150677500Y-111529000I-165500J0D01*
G01*
X150346500Y-111529000D01*
G75*
G02*
X150181000Y-111363500I0J165500D01*
G01*
G37*
G36*
G01*
X164204500Y-103089000D02*
X164595500Y-103089000D01*
G75*
G02*
X164761000Y-103254500I0J-165500D01*
G01*
X164761000Y-103585500D01*
G75*
G02*
X164595500Y-103751000I-165500J0D01*
G01*
X164204500Y-103751000D01*
G75*
G02*
X164039000Y-103585500I0J165500D01*
G01*
X164039000Y-103254500D01*
G75*
G02*
X164204500Y-103089000I165500J0D01*
G01*
G37*
G36*
G01*
X164204500Y-104049000D02*
X164595500Y-104049000D01*
G75*
G02*
X164761000Y-104214500I0J-165500D01*
G01*
X164761000Y-104545500D01*
G75*
G02*
X164595500Y-104711000I-165500J0D01*
G01*
X164204500Y-104711000D01*
G75*
G02*
X164039000Y-104545500I0J165500D01*
G01*
X164039000Y-104214500D01*
G75*
G02*
X164204500Y-104049000I165500J0D01*
G01*
G37*
G36*
G01*
X117410500Y-102411000D02*
X116989500Y-102411000D01*
G75*
G02*
X116829000Y-102250500I0J160500D01*
G01*
X116829000Y-101929500D01*
G75*
G02*
X116989500Y-101769000I160500J0D01*
G01*
X117410500Y-101769000D01*
G75*
G02*
X117571000Y-101929500I0J-160500D01*
G01*
X117571000Y-102250500D01*
G75*
G02*
X117410500Y-102411000I-160500J0D01*
G01*
G37*
G36*
G01*
X117410500Y-103431000D02*
X116989500Y-103431000D01*
G75*
G02*
X116829000Y-103270500I0J160500D01*
G01*
X116829000Y-102949500D01*
G75*
G02*
X116989500Y-102789000I160500J0D01*
G01*
X117410500Y-102789000D01*
G75*
G02*
X117571000Y-102949500I0J-160500D01*
G01*
X117571000Y-103270500D01*
G75*
G02*
X117410500Y-103431000I-160500J0D01*
G01*
G37*
G36*
G01*
X120210500Y-101411000D02*
X119789500Y-101411000D01*
G75*
G02*
X119629000Y-101250500I0J160500D01*
G01*
X119629000Y-100929500D01*
G75*
G02*
X119789500Y-100769000I160500J0D01*
G01*
X120210500Y-100769000D01*
G75*
G02*
X120371000Y-100929500I0J-160500D01*
G01*
X120371000Y-101250500D01*
G75*
G02*
X120210500Y-101411000I-160500J0D01*
G01*
G37*
G36*
G01*
X120210500Y-102431000D02*
X119789500Y-102431000D01*
G75*
G02*
X119629000Y-102270500I0J160500D01*
G01*
X119629000Y-101949500D01*
G75*
G02*
X119789500Y-101789000I160500J0D01*
G01*
X120210500Y-101789000D01*
G75*
G02*
X120371000Y-101949500I0J-160500D01*
G01*
X120371000Y-102270500D01*
G75*
G02*
X120210500Y-102431000I-160500J0D01*
G01*
G37*
G36*
G01*
X121911000Y-98989500D02*
X121911000Y-99410500D01*
G75*
G02*
X121750500Y-99571000I-160500J0D01*
G01*
X121429500Y-99571000D01*
G75*
G02*
X121269000Y-99410500I0J160500D01*
G01*
X121269000Y-98989500D01*
G75*
G02*
X121429500Y-98829000I160500J0D01*
G01*
X121750500Y-98829000D01*
G75*
G02*
X121911000Y-98989500I0J-160500D01*
G01*
G37*
G36*
G01*
X122931000Y-98989500D02*
X122931000Y-99410500D01*
G75*
G02*
X122770500Y-99571000I-160500J0D01*
G01*
X122449500Y-99571000D01*
G75*
G02*
X122289000Y-99410500I0J160500D01*
G01*
X122289000Y-98989500D01*
G75*
G02*
X122449500Y-98829000I160500J0D01*
G01*
X122770500Y-98829000D01*
G75*
G02*
X122931000Y-98989500I0J-160500D01*
G01*
G37*
G36*
G01*
X130389500Y-101337000D02*
X130810500Y-101337000D01*
G75*
G02*
X130971000Y-101497500I0J-160500D01*
G01*
X130971000Y-101818500D01*
G75*
G02*
X130810500Y-101979000I-160500J0D01*
G01*
X130389500Y-101979000D01*
G75*
G02*
X130229000Y-101818500I0J160500D01*
G01*
X130229000Y-101497500D01*
G75*
G02*
X130389500Y-101337000I160500J0D01*
G01*
G37*
G36*
G01*
X130389500Y-102357000D02*
X130810500Y-102357000D01*
G75*
G02*
X130971000Y-102517500I0J-160500D01*
G01*
X130971000Y-102838500D01*
G75*
G02*
X130810500Y-102999000I-160500J0D01*
G01*
X130389500Y-102999000D01*
G75*
G02*
X130229000Y-102838500I0J160500D01*
G01*
X130229000Y-102517500D01*
G75*
G02*
X130389500Y-102357000I160500J0D01*
G01*
G37*
G36*
G01*
X135242500Y-102179000D02*
X134821500Y-102179000D01*
G75*
G02*
X134661000Y-102018500I0J160500D01*
G01*
X134661000Y-101697500D01*
G75*
G02*
X134821500Y-101537000I160500J0D01*
G01*
X135242500Y-101537000D01*
G75*
G02*
X135403000Y-101697500I0J-160500D01*
G01*
X135403000Y-102018500D01*
G75*
G02*
X135242500Y-102179000I-160500J0D01*
G01*
G37*
G36*
G01*
X135242500Y-103199000D02*
X134821500Y-103199000D01*
G75*
G02*
X134661000Y-103038500I0J160500D01*
G01*
X134661000Y-102717500D01*
G75*
G02*
X134821500Y-102557000I160500J0D01*
G01*
X135242500Y-102557000D01*
G75*
G02*
X135403000Y-102717500I0J-160500D01*
G01*
X135403000Y-103038500D01*
G75*
G02*
X135242500Y-103199000I-160500J0D01*
G01*
G37*
G36*
G01*
X135242500Y-101199000D02*
X134821500Y-101199000D01*
G75*
G02*
X134661000Y-101038500I0J160500D01*
G01*
X134661000Y-100717500D01*
G75*
G02*
X134821500Y-100557000I160500J0D01*
G01*
X135242500Y-100557000D01*
G75*
G02*
X135403000Y-100717500I0J-160500D01*
G01*
X135403000Y-101038500D01*
G75*
G02*
X135242500Y-101199000I-160500J0D01*
G01*
G37*
G36*
G01*
X135242500Y-100179000D02*
X134821500Y-100179000D01*
G75*
G02*
X134661000Y-100018500I0J160500D01*
G01*
X134661000Y-99697500D01*
G75*
G02*
X134821500Y-99537000I160500J0D01*
G01*
X135242500Y-99537000D01*
G75*
G02*
X135403000Y-99697500I0J-160500D01*
G01*
X135403000Y-100018500D01*
G75*
G02*
X135242500Y-100179000I-160500J0D01*
G01*
G37*
G36*
G01*
X169989000Y-98410500D02*
X169989000Y-97989500D01*
G75*
G02*
X170149500Y-97829000I160500J0D01*
G01*
X170470500Y-97829000D01*
G75*
G02*
X170631000Y-97989500I0J-160500D01*
G01*
X170631000Y-98410500D01*
G75*
G02*
X170470500Y-98571000I-160500J0D01*
G01*
X170149500Y-98571000D01*
G75*
G02*
X169989000Y-98410500I0J160500D01*
G01*
G37*
G36*
G01*
X168969000Y-98410500D02*
X168969000Y-97989500D01*
G75*
G02*
X169129500Y-97829000I160500J0D01*
G01*
X169450500Y-97829000D01*
G75*
G02*
X169611000Y-97989500I0J-160500D01*
G01*
X169611000Y-98410500D01*
G75*
G02*
X169450500Y-98571000I-160500J0D01*
G01*
X169129500Y-98571000D01*
G75*
G02*
X168969000Y-98410500I0J160500D01*
G01*
G37*
G36*
G01*
X175389500Y-111037000D02*
X175810500Y-111037000D01*
G75*
G02*
X175971000Y-111197500I0J-160500D01*
G01*
X175971000Y-111518500D01*
G75*
G02*
X175810500Y-111679000I-160500J0D01*
G01*
X175389500Y-111679000D01*
G75*
G02*
X175229000Y-111518500I0J160500D01*
G01*
X175229000Y-111197500D01*
G75*
G02*
X175389500Y-111037000I160500J0D01*
G01*
G37*
G36*
G01*
X175389500Y-112057000D02*
X175810500Y-112057000D01*
G75*
G02*
X175971000Y-112217500I0J-160500D01*
G01*
X175971000Y-112538500D01*
G75*
G02*
X175810500Y-112699000I-160500J0D01*
G01*
X175389500Y-112699000D01*
G75*
G02*
X175229000Y-112538500I0J160500D01*
G01*
X175229000Y-112217500D01*
G75*
G02*
X175389500Y-112057000I160500J0D01*
G01*
G37*
G36*
G01*
X176559000Y-107010500D02*
X176559000Y-106589500D01*
G75*
G02*
X176719500Y-106429000I160500J0D01*
G01*
X177040500Y-106429000D01*
G75*
G02*
X177201000Y-106589500I0J-160500D01*
G01*
X177201000Y-107010500D01*
G75*
G02*
X177040500Y-107171000I-160500J0D01*
G01*
X176719500Y-107171000D01*
G75*
G02*
X176559000Y-107010500I0J160500D01*
G01*
G37*
G36*
G01*
X177579000Y-107010500D02*
X177579000Y-106589500D01*
G75*
G02*
X177739500Y-106429000I160500J0D01*
G01*
X178060500Y-106429000D01*
G75*
G02*
X178221000Y-106589500I0J-160500D01*
G01*
X178221000Y-107010500D01*
G75*
G02*
X178060500Y-107171000I-160500J0D01*
G01*
X177739500Y-107171000D01*
G75*
G02*
X177579000Y-107010500I0J160500D01*
G01*
G37*
G36*
G01*
X109589500Y-96069000D02*
X110010500Y-96069000D01*
G75*
G02*
X110171000Y-96229500I0J-160500D01*
G01*
X110171000Y-96550500D01*
G75*
G02*
X110010500Y-96711000I-160500J0D01*
G01*
X109589500Y-96711000D01*
G75*
G02*
X109429000Y-96550500I0J160500D01*
G01*
X109429000Y-96229500D01*
G75*
G02*
X109589500Y-96069000I160500J0D01*
G01*
G37*
G36*
G01*
X109589500Y-97089000D02*
X110010500Y-97089000D01*
G75*
G02*
X110171000Y-97249500I0J-160500D01*
G01*
X110171000Y-97570500D01*
G75*
G02*
X110010500Y-97731000I-160500J0D01*
G01*
X109589500Y-97731000D01*
G75*
G02*
X109429000Y-97570500I0J160500D01*
G01*
X109429000Y-97249500D01*
G75*
G02*
X109589500Y-97089000I160500J0D01*
G01*
G37*
G36*
G01*
X104769000Y-97110500D02*
X104769000Y-96689500D01*
G75*
G02*
X104929500Y-96529000I160500J0D01*
G01*
X105250500Y-96529000D01*
G75*
G02*
X105411000Y-96689500I0J-160500D01*
G01*
X105411000Y-97110500D01*
G75*
G02*
X105250500Y-97271000I-160500J0D01*
G01*
X104929500Y-97271000D01*
G75*
G02*
X104769000Y-97110500I0J160500D01*
G01*
G37*
G36*
G01*
X105789000Y-97110500D02*
X105789000Y-96689500D01*
G75*
G02*
X105949500Y-96529000I160500J0D01*
G01*
X106270500Y-96529000D01*
G75*
G02*
X106431000Y-96689500I0J-160500D01*
G01*
X106431000Y-97110500D01*
G75*
G02*
X106270500Y-97271000I-160500J0D01*
G01*
X105949500Y-97271000D01*
G75*
G02*
X105789000Y-97110500I0J160500D01*
G01*
G37*
G36*
G01*
X104769000Y-96110500D02*
X104769000Y-95689500D01*
G75*
G02*
X104929500Y-95529000I160500J0D01*
G01*
X105250500Y-95529000D01*
G75*
G02*
X105411000Y-95689500I0J-160500D01*
G01*
X105411000Y-96110500D01*
G75*
G02*
X105250500Y-96271000I-160500J0D01*
G01*
X104929500Y-96271000D01*
G75*
G02*
X104769000Y-96110500I0J160500D01*
G01*
G37*
G36*
G01*
X105789000Y-96110500D02*
X105789000Y-95689500D01*
G75*
G02*
X105949500Y-95529000I160500J0D01*
G01*
X106270500Y-95529000D01*
G75*
G02*
X106431000Y-95689500I0J-160500D01*
G01*
X106431000Y-96110500D01*
G75*
G02*
X106270500Y-96271000I-160500J0D01*
G01*
X105949500Y-96271000D01*
G75*
G02*
X105789000Y-96110500I0J160500D01*
G01*
G37*
G36*
G01*
X105789000Y-94610500D02*
X105789000Y-94189500D01*
G75*
G02*
X105949500Y-94029000I160500J0D01*
G01*
X106270500Y-94029000D01*
G75*
G02*
X106431000Y-94189500I0J-160500D01*
G01*
X106431000Y-94610500D01*
G75*
G02*
X106270500Y-94771000I-160500J0D01*
G01*
X105949500Y-94771000D01*
G75*
G02*
X105789000Y-94610500I0J160500D01*
G01*
G37*
G36*
G01*
X104769000Y-94610500D02*
X104769000Y-94189500D01*
G75*
G02*
X104929500Y-94029000I160500J0D01*
G01*
X105250500Y-94029000D01*
G75*
G02*
X105411000Y-94189500I0J-160500D01*
G01*
X105411000Y-94610500D01*
G75*
G02*
X105250500Y-94771000I-160500J0D01*
G01*
X104929500Y-94771000D01*
G75*
G02*
X104769000Y-94610500I0J160500D01*
G01*
G37*
G36*
G01*
X162143000Y-100757500D02*
X162143000Y-101178500D01*
G75*
G02*
X161982500Y-101339000I-160500J0D01*
G01*
X161661500Y-101339000D01*
G75*
G02*
X161501000Y-101178500I0J160500D01*
G01*
X161501000Y-100757500D01*
G75*
G02*
X161661500Y-100597000I160500J0D01*
G01*
X161982500Y-100597000D01*
G75*
G02*
X162143000Y-100757500I0J-160500D01*
G01*
G37*
G36*
G01*
X163163000Y-100757500D02*
X163163000Y-101178500D01*
G75*
G02*
X163002500Y-101339000I-160500J0D01*
G01*
X162681500Y-101339000D01*
G75*
G02*
X162521000Y-101178500I0J160500D01*
G01*
X162521000Y-100757500D01*
G75*
G02*
X162681500Y-100597000I160500J0D01*
G01*
X163002500Y-100597000D01*
G75*
G02*
X163163000Y-100757500I0J-160500D01*
G01*
G37*
G36*
G01*
X163163000Y-99757500D02*
X163163000Y-100178500D01*
G75*
G02*
X163002500Y-100339000I-160500J0D01*
G01*
X162681500Y-100339000D01*
G75*
G02*
X162521000Y-100178500I0J160500D01*
G01*
X162521000Y-99757500D01*
G75*
G02*
X162681500Y-99597000I160500J0D01*
G01*
X163002500Y-99597000D01*
G75*
G02*
X163163000Y-99757500I0J-160500D01*
G01*
G37*
G36*
G01*
X162143000Y-99757500D02*
X162143000Y-100178500D01*
G75*
G02*
X161982500Y-100339000I-160500J0D01*
G01*
X161661500Y-100339000D01*
G75*
G02*
X161501000Y-100178500I0J160500D01*
G01*
X161501000Y-99757500D01*
G75*
G02*
X161661500Y-99597000I160500J0D01*
G01*
X161982500Y-99597000D01*
G75*
G02*
X162143000Y-99757500I0J-160500D01*
G01*
G37*
G36*
G01*
X162143000Y-101757500D02*
X162143000Y-102178500D01*
G75*
G02*
X161982500Y-102339000I-160500J0D01*
G01*
X161661500Y-102339000D01*
G75*
G02*
X161501000Y-102178500I0J160500D01*
G01*
X161501000Y-101757500D01*
G75*
G02*
X161661500Y-101597000I160500J0D01*
G01*
X161982500Y-101597000D01*
G75*
G02*
X162143000Y-101757500I0J-160500D01*
G01*
G37*
G36*
G01*
X163163000Y-101757500D02*
X163163000Y-102178500D01*
G75*
G02*
X163002500Y-102339000I-160500J0D01*
G01*
X162681500Y-102339000D01*
G75*
G02*
X162521000Y-102178500I0J160500D01*
G01*
X162521000Y-101757500D01*
G75*
G02*
X162681500Y-101597000I160500J0D01*
G01*
X163002500Y-101597000D01*
G75*
G02*
X163163000Y-101757500I0J-160500D01*
G01*
G37*
G36*
G01*
X152121000Y-99578500D02*
X152121000Y-99157500D01*
G75*
G02*
X152281500Y-98997000I160500J0D01*
G01*
X152602500Y-98997000D01*
G75*
G02*
X152763000Y-99157500I0J-160500D01*
G01*
X152763000Y-99578500D01*
G75*
G02*
X152602500Y-99739000I-160500J0D01*
G01*
X152281500Y-99739000D01*
G75*
G02*
X152121000Y-99578500I0J160500D01*
G01*
G37*
G36*
G01*
X151101000Y-99578500D02*
X151101000Y-99157500D01*
G75*
G02*
X151261500Y-98997000I160500J0D01*
G01*
X151582500Y-98997000D01*
G75*
G02*
X151743000Y-99157500I0J-160500D01*
G01*
X151743000Y-99578500D01*
G75*
G02*
X151582500Y-99739000I-160500J0D01*
G01*
X151261500Y-99739000D01*
G75*
G02*
X151101000Y-99578500I0J160500D01*
G01*
G37*
G36*
X158470732Y-116189296D02*
G01*
X158471000Y-116190296D01*
X158471000Y-117642296D01*
X158470000Y-117644028D01*
X158469000Y-117644296D01*
X158321000Y-117644296D01*
X158319268Y-117643296D01*
X158319000Y-117642296D01*
X158319000Y-116190296D01*
X158320000Y-116188564D01*
X158321000Y-116188296D01*
X158469000Y-116188296D01*
X158470732Y-116189296D01*
G37*
G36*
X157820732Y-116189296D02*
G01*
X157821000Y-116190296D01*
X157821000Y-117642296D01*
X157820000Y-117644028D01*
X157819000Y-117644296D01*
X157671000Y-117644296D01*
X157669268Y-117643296D01*
X157669000Y-117642296D01*
X157669000Y-116190296D01*
X157670000Y-116188564D01*
X157671000Y-116188296D01*
X157819000Y-116188296D01*
X157820732Y-116189296D01*
G37*
G36*
X159120732Y-116189296D02*
G01*
X159121000Y-116190296D01*
X159121000Y-117642296D01*
X159120000Y-117644028D01*
X159119000Y-117644296D01*
X158971000Y-117644296D01*
X158969268Y-117643296D01*
X158969000Y-117642296D01*
X158969000Y-116190296D01*
X158970000Y-116188564D01*
X158971000Y-116188296D01*
X159119000Y-116188296D01*
X159120732Y-116189296D01*
G37*
G36*
X159770732Y-116189296D02*
G01*
X159771000Y-116190296D01*
X159771000Y-117642296D01*
X159770000Y-117644028D01*
X159769000Y-117644296D01*
X159621000Y-117644296D01*
X159619268Y-117643296D01*
X159619000Y-117642296D01*
X159619000Y-116190296D01*
X159620000Y-116188564D01*
X159621000Y-116188296D01*
X159769000Y-116188296D01*
X159770732Y-116189296D01*
G37*
G36*
X160272990Y-116562328D02*
G01*
X160275372Y-116586515D01*
X160282372Y-116609590D01*
X160293737Y-116630854D01*
X160309032Y-116649491D01*
X160327669Y-116664786D01*
X160348933Y-116676151D01*
X160372008Y-116683151D01*
X160395999Y-116685514D01*
X160419990Y-116683151D01*
X160443065Y-116676151D01*
X160464329Y-116664786D01*
X160482966Y-116649491D01*
X160498261Y-116630854D01*
X160506823Y-116614835D01*
X160508522Y-116613779D01*
X160510285Y-116614722D01*
X160510435Y-116616543D01*
X160479338Y-116691617D01*
X160449737Y-116840434D01*
X160449737Y-116992158D01*
X160479338Y-117140975D01*
X160510435Y-117216049D01*
X160510174Y-117218032D01*
X160508326Y-117218797D01*
X160506823Y-117217757D01*
X160498261Y-117201738D01*
X160482966Y-117183101D01*
X160464329Y-117167806D01*
X160443065Y-117156441D01*
X160419990Y-117149441D01*
X160395999Y-117147078D01*
X160372008Y-117149441D01*
X160348933Y-117156441D01*
X160327669Y-117167806D01*
X160309032Y-117183101D01*
X160293737Y-117201738D01*
X160282372Y-117223002D01*
X160275372Y-117246077D01*
X160272990Y-117270264D01*
X160271825Y-117271890D01*
X160269835Y-117271694D01*
X160269000Y-117270068D01*
X160269000Y-116562524D01*
X160270000Y-116560792D01*
X160272000Y-116560792D01*
X160272990Y-116562328D01*
G37*
G36*
X157170165Y-116560898D02*
G01*
X157171000Y-116562524D01*
X157171000Y-117270068D01*
X157170000Y-117271800D01*
X157168000Y-117271800D01*
X157167010Y-117270264D01*
X157164628Y-117246077D01*
X157157628Y-117223002D01*
X157146263Y-117201738D01*
X157130968Y-117183101D01*
X157112331Y-117167806D01*
X157091067Y-117156441D01*
X157067992Y-117149441D01*
X157044001Y-117147078D01*
X157020010Y-117149441D01*
X156996935Y-117156441D01*
X156975671Y-117167806D01*
X156957034Y-117183101D01*
X156941739Y-117201738D01*
X156933177Y-117217757D01*
X156931478Y-117218813D01*
X156929715Y-117217870D01*
X156929565Y-117216049D01*
X156960662Y-117140975D01*
X156990263Y-116992158D01*
X156990263Y-116840434D01*
X156960662Y-116691617D01*
X156929565Y-116616543D01*
X156929826Y-116614560D01*
X156931674Y-116613795D01*
X156933177Y-116614835D01*
X156941739Y-116630854D01*
X156957034Y-116649491D01*
X156975671Y-116664786D01*
X156996935Y-116676151D01*
X157020010Y-116683151D01*
X157044001Y-116685514D01*
X157067992Y-116683151D01*
X157091067Y-116676151D01*
X157112331Y-116664786D01*
X157130968Y-116649491D01*
X157146263Y-116630854D01*
X157157628Y-116609590D01*
X157164628Y-116586515D01*
X157167010Y-116562328D01*
X157168175Y-116560702D01*
X157170165Y-116560898D01*
G37*
G36*
X170925333Y-109892097D02*
G01*
X170931252Y-109895261D01*
X170940445Y-109898050D01*
X170950094Y-109899000D01*
X172449906Y-109899000D01*
X172459555Y-109898050D01*
X172468748Y-109895261D01*
X172474671Y-109892095D01*
X172476670Y-109892161D01*
X172477613Y-109893924D01*
X172476883Y-109895405D01*
X172475751Y-109896334D01*
X172475593Y-109896451D01*
X172462904Y-109904929D01*
X172445857Y-109921976D01*
X172432462Y-109942024D01*
X172423236Y-109964298D01*
X172418532Y-109987948D01*
X172418532Y-110012054D01*
X172423237Y-110035704D01*
X172432463Y-110057978D01*
X172445858Y-110078025D01*
X172462905Y-110095072D01*
X172475593Y-110103550D01*
X172475751Y-110103667D01*
X172476879Y-110104593D01*
X172477583Y-110106465D01*
X172476314Y-110108011D01*
X172474667Y-110107903D01*
X172468748Y-110104739D01*
X172459555Y-110101950D01*
X172449906Y-110101000D01*
X170950094Y-110101000D01*
X170940445Y-110101950D01*
X170931252Y-110104739D01*
X170925329Y-110107905D01*
X170923330Y-110107839D01*
X170922387Y-110106076D01*
X170923117Y-110104595D01*
X170924249Y-110103666D01*
X170924407Y-110103549D01*
X170937096Y-110095071D01*
X170954143Y-110078024D01*
X170967538Y-110057976D01*
X170976764Y-110035702D01*
X170981468Y-110012052D01*
X170981468Y-109987946D01*
X170976763Y-109964296D01*
X170967537Y-109942022D01*
X170954142Y-109921975D01*
X170937095Y-109904928D01*
X170924407Y-109896450D01*
X170924249Y-109896333D01*
X170923121Y-109895407D01*
X170922417Y-109893535D01*
X170923686Y-109891989D01*
X170925333Y-109892097D01*
G37*
G36*
X91517421Y-108693148D02*
G01*
X91547415Y-108843936D01*
X91572436Y-108904342D01*
X91572175Y-108906325D01*
X91570327Y-108907090D01*
X91568824Y-108906050D01*
X91560261Y-108890029D01*
X91544966Y-108871392D01*
X91526329Y-108856097D01*
X91505065Y-108844732D01*
X91481990Y-108837732D01*
X91457999Y-108835369D01*
X91434008Y-108837732D01*
X91410933Y-108844732D01*
X91389669Y-108856097D01*
X91371032Y-108871392D01*
X91355737Y-108890029D01*
X91344372Y-108911293D01*
X91337372Y-108934368D01*
X91334990Y-108958555D01*
X91333825Y-108960181D01*
X91331835Y-108959985D01*
X91331000Y-108958359D01*
X91331000Y-108827000D01*
X91332000Y-108825268D01*
X91333000Y-108825000D01*
X91390366Y-108825000D01*
X91414451Y-108822628D01*
X91437526Y-108815628D01*
X91458790Y-108804263D01*
X91477427Y-108788968D01*
X91492722Y-108770331D01*
X91504087Y-108749067D01*
X91511087Y-108725992D01*
X91513459Y-108701907D01*
X91513459Y-108693538D01*
X91514459Y-108691806D01*
X91516459Y-108691806D01*
X91517421Y-108693148D01*
G37*
G36*
X160084732Y-107310500D02*
G01*
X160085000Y-107311500D01*
X160085000Y-107444500D01*
X160084000Y-107446232D01*
X160083000Y-107446500D01*
X158781000Y-107446500D01*
X158779268Y-107445500D01*
X158779000Y-107444500D01*
X158779000Y-107311500D01*
X158780000Y-107309768D01*
X158781000Y-107309500D01*
X160083000Y-107309500D01*
X160084732Y-107310500D01*
G37*
G36*
X154884732Y-107310500D02*
G01*
X154885000Y-107311500D01*
X154885000Y-107444500D01*
X154884000Y-107446232D01*
X154883000Y-107446500D01*
X153581000Y-107446500D01*
X153579268Y-107445500D01*
X153579000Y-107444500D01*
X153579000Y-107311500D01*
X153580000Y-107309768D01*
X153581000Y-107309500D01*
X154883000Y-107309500D01*
X154884732Y-107310500D01*
G37*
G36*
X154884732Y-106675500D02*
G01*
X154885000Y-106676500D01*
X154885000Y-106809500D01*
X154884000Y-106811232D01*
X154883000Y-106811500D01*
X153581000Y-106811500D01*
X153579268Y-106810500D01*
X153579000Y-106809500D01*
X153579000Y-106676500D01*
X153580000Y-106674768D01*
X153581000Y-106674500D01*
X154883000Y-106674500D01*
X154884732Y-106675500D01*
G37*
G36*
X160084732Y-106675500D02*
G01*
X160085000Y-106676500D01*
X160085000Y-106809500D01*
X160084000Y-106811232D01*
X160083000Y-106811500D01*
X158781000Y-106811500D01*
X158779268Y-106810500D01*
X158779000Y-106809500D01*
X158779000Y-106676500D01*
X158780000Y-106674768D01*
X158781000Y-106674500D01*
X160083000Y-106674500D01*
X160084732Y-106675500D01*
G37*
G36*
X160084732Y-106040500D02*
G01*
X160085000Y-106041500D01*
X160085000Y-106174500D01*
X160084000Y-106176232D01*
X160083000Y-106176500D01*
X158781000Y-106176500D01*
X158779268Y-106175500D01*
X158779000Y-106174500D01*
X158779000Y-106041500D01*
X158780000Y-106039768D01*
X158781000Y-106039500D01*
X160083000Y-106039500D01*
X160084732Y-106040500D01*
G37*
G36*
X154884732Y-106040500D02*
G01*
X154885000Y-106041500D01*
X154885000Y-106174500D01*
X154884000Y-106176232D01*
X154883000Y-106176500D01*
X153581000Y-106176500D01*
X153579268Y-106175500D01*
X153579000Y-106174500D01*
X153579000Y-106041500D01*
X153580000Y-106039768D01*
X153581000Y-106039500D01*
X154883000Y-106039500D01*
X154884732Y-106040500D01*
G37*
G36*
X154884732Y-105405500D02*
G01*
X154885000Y-105406500D01*
X154885000Y-105539500D01*
X154884000Y-105541232D01*
X154883000Y-105541500D01*
X153581000Y-105541500D01*
X153579268Y-105540500D01*
X153579000Y-105539500D01*
X153579000Y-105406500D01*
X153580000Y-105404768D01*
X153581000Y-105404500D01*
X154883000Y-105404500D01*
X154884732Y-105405500D01*
G37*
G36*
X160084732Y-105405500D02*
G01*
X160085000Y-105406500D01*
X160085000Y-105539500D01*
X160084000Y-105541232D01*
X160083000Y-105541500D01*
X158781000Y-105541500D01*
X158779268Y-105540500D01*
X158779000Y-105539500D01*
X158779000Y-105406500D01*
X158780000Y-105404768D01*
X158781000Y-105404500D01*
X160083000Y-105404500D01*
X160084732Y-105405500D01*
G37*
G36*
X154884732Y-104770500D02*
G01*
X154885000Y-104771500D01*
X154885000Y-104904500D01*
X154884000Y-104906232D01*
X154883000Y-104906500D01*
X153581000Y-104906500D01*
X153579268Y-104905500D01*
X153579000Y-104904500D01*
X153579000Y-104771500D01*
X153580000Y-104769768D01*
X153581000Y-104769500D01*
X154883000Y-104769500D01*
X154884732Y-104770500D01*
G37*
G36*
X160084732Y-104770500D02*
G01*
X160085000Y-104771500D01*
X160085000Y-104904500D01*
X160084000Y-104906232D01*
X160083000Y-104906500D01*
X158781000Y-104906500D01*
X158779268Y-104905500D01*
X158779000Y-104904500D01*
X158779000Y-104771500D01*
X158780000Y-104769768D01*
X158781000Y-104769500D01*
X160083000Y-104769500D01*
X160084732Y-104770500D01*
G37*
G36*
X154884732Y-104135500D02*
G01*
X154885000Y-104136500D01*
X154885000Y-104269500D01*
X154884000Y-104271232D01*
X154883000Y-104271500D01*
X153581000Y-104271500D01*
X153579268Y-104270500D01*
X153579000Y-104269500D01*
X153579000Y-104136500D01*
X153580000Y-104134768D01*
X153581000Y-104134500D01*
X154883000Y-104134500D01*
X154884732Y-104135500D01*
G37*
G36*
X160084732Y-104135500D02*
G01*
X160085000Y-104136500D01*
X160085000Y-104269500D01*
X160084000Y-104271232D01*
X160083000Y-104271500D01*
X158781000Y-104271500D01*
X158779268Y-104270500D01*
X158779000Y-104269500D01*
X158779000Y-104136500D01*
X158780000Y-104134768D01*
X158781000Y-104134500D01*
X160083000Y-104134500D01*
X160084732Y-104135500D01*
G37*
G36*
X160084732Y-103500500D02*
G01*
X160085000Y-103501500D01*
X160085000Y-103634500D01*
X160084000Y-103636232D01*
X160083000Y-103636500D01*
X158781000Y-103636500D01*
X158779268Y-103635500D01*
X158779000Y-103634500D01*
X158779000Y-103501500D01*
X158780000Y-103499768D01*
X158781000Y-103499500D01*
X160083000Y-103499500D01*
X160084732Y-103500500D01*
G37*
G36*
X154884732Y-103500500D02*
G01*
X154885000Y-103501500D01*
X154885000Y-103634500D01*
X154884000Y-103636232D01*
X154883000Y-103636500D01*
X153581000Y-103636500D01*
X153579268Y-103635500D01*
X153579000Y-103634500D01*
X153579000Y-103501500D01*
X153580000Y-103499768D01*
X153581000Y-103499500D01*
X154883000Y-103499500D01*
X154884732Y-103500500D01*
G37*
G36*
X154884732Y-102865500D02*
G01*
X154885000Y-102866500D01*
X154885000Y-102999500D01*
X154884000Y-103001232D01*
X154883000Y-103001500D01*
X153581000Y-103001500D01*
X153579268Y-103000500D01*
X153579000Y-102999500D01*
X153579000Y-102866500D01*
X153580000Y-102864768D01*
X153581000Y-102864500D01*
X154883000Y-102864500D01*
X154884732Y-102865500D01*
G37*
G36*
X160084732Y-102865500D02*
G01*
X160085000Y-102866500D01*
X160085000Y-102999500D01*
X160084000Y-103001232D01*
X160083000Y-103001500D01*
X158781000Y-103001500D01*
X158779268Y-103000500D01*
X158779000Y-102999500D01*
X158779000Y-102866500D01*
X158780000Y-102864768D01*
X158781000Y-102864500D01*
X160083000Y-102864500D01*
X160084732Y-102865500D01*
G37*
G36*
X160084732Y-102230500D02*
G01*
X160085000Y-102231500D01*
X160085000Y-102364500D01*
X160084000Y-102366232D01*
X160083000Y-102366500D01*
X158781000Y-102366500D01*
X158779268Y-102365500D01*
X158779000Y-102364500D01*
X158779000Y-102231500D01*
X158780000Y-102229768D01*
X158781000Y-102229500D01*
X160083000Y-102229500D01*
X160084732Y-102230500D01*
G37*
G36*
X154884732Y-102230500D02*
G01*
X154885000Y-102231500D01*
X154885000Y-102364500D01*
X154884000Y-102366232D01*
X154883000Y-102366500D01*
X153581000Y-102366500D01*
X153579268Y-102365500D01*
X153579000Y-102364500D01*
X153579000Y-102231500D01*
X153580000Y-102229768D01*
X153581000Y-102229500D01*
X154883000Y-102229500D01*
X154884732Y-102230500D01*
G37*
G36*
X154884732Y-101595500D02*
G01*
X154885000Y-101596500D01*
X154885000Y-101729500D01*
X154884000Y-101731232D01*
X154883000Y-101731500D01*
X153581000Y-101731500D01*
X153579268Y-101730500D01*
X153579000Y-101729500D01*
X153579000Y-101596500D01*
X153580000Y-101594768D01*
X153581000Y-101594500D01*
X154883000Y-101594500D01*
X154884732Y-101595500D01*
G37*
G36*
X160084732Y-101595500D02*
G01*
X160085000Y-101596500D01*
X160085000Y-101729500D01*
X160084000Y-101731232D01*
X160083000Y-101731500D01*
X158781000Y-101731500D01*
X158779268Y-101730500D01*
X158779000Y-101729500D01*
X158779000Y-101596500D01*
X158780000Y-101594768D01*
X158781000Y-101594500D01*
X160083000Y-101594500D01*
X160084732Y-101595500D01*
G37*
G36*
X154884732Y-100960500D02*
G01*
X154885000Y-100961500D01*
X154885000Y-101094500D01*
X154884000Y-101096232D01*
X154883000Y-101096500D01*
X153581000Y-101096500D01*
X153579268Y-101095500D01*
X153579000Y-101094500D01*
X153579000Y-100961500D01*
X153580000Y-100959768D01*
X153581000Y-100959500D01*
X154883000Y-100959500D01*
X154884732Y-100960500D01*
G37*
G36*
X160084732Y-100960500D02*
G01*
X160085000Y-100961500D01*
X160085000Y-101094500D01*
X160084000Y-101096232D01*
X160083000Y-101096500D01*
X158781000Y-101096500D01*
X158779268Y-101095500D01*
X158779000Y-101094500D01*
X158779000Y-100961500D01*
X158780000Y-100959768D01*
X158781000Y-100959500D01*
X160083000Y-100959500D01*
X160084732Y-100960500D01*
G37*
G36*
X154884732Y-100325500D02*
G01*
X154885000Y-100326500D01*
X154885000Y-100459500D01*
X154884000Y-100461232D01*
X154883000Y-100461500D01*
X153581000Y-100461500D01*
X153579268Y-100460500D01*
X153579000Y-100459500D01*
X153579000Y-100326500D01*
X153580000Y-100324768D01*
X153581000Y-100324500D01*
X154883000Y-100324500D01*
X154884732Y-100325500D01*
G37*
G36*
X160084732Y-100325500D02*
G01*
X160085000Y-100326500D01*
X160085000Y-100459500D01*
X160084000Y-100461232D01*
X160083000Y-100461500D01*
X158781000Y-100461500D01*
X158779268Y-100460500D01*
X158779000Y-100459500D01*
X158779000Y-100326500D01*
X158780000Y-100324768D01*
X158781000Y-100324500D01*
X160083000Y-100324500D01*
X160084732Y-100325500D01*
G37*
G36*
X160084732Y-99690500D02*
G01*
X160085000Y-99691500D01*
X160085000Y-99824500D01*
X160084000Y-99826232D01*
X160083000Y-99826500D01*
X158781000Y-99826500D01*
X158779268Y-99825500D01*
X158779000Y-99824500D01*
X158779000Y-99691500D01*
X158780000Y-99689768D01*
X158781000Y-99689500D01*
X160083000Y-99689500D01*
X160084732Y-99690500D01*
G37*
G36*
X154884732Y-99690500D02*
G01*
X154885000Y-99691500D01*
X154885000Y-99824500D01*
X154884000Y-99826232D01*
X154883000Y-99826500D01*
X153581000Y-99826500D01*
X153579268Y-99825500D01*
X153579000Y-99824500D01*
X153579000Y-99691500D01*
X153580000Y-99689768D01*
X153581000Y-99689500D01*
X154883000Y-99689500D01*
X154884732Y-99690500D01*
G37*
M02*
