G04 #@! TF.GenerationSoftware,KiCad,Pcbnew,(5.1.10)-1*
G04 #@! TF.CreationDate,2021-09-04T12:41:49+02:00*
G04 #@! TF.ProjectId,POE_hat_and_USB,504f455f-6861-4745-9f61-6e645f555342,1.0*
G04 #@! TF.SameCoordinates,Original*
G04 #@! TF.FileFunction,Copper,L1,Top*
G04 #@! TF.FilePolarity,Positive*
%FSLAX46Y46*%
G04 Gerber Fmt 4.6, Leading zero omitted, Abs format (unit mm)*
G04 Created by KiCad (PCBNEW (5.1.10)-1) date 2021-09-04 12:41:49*
%MOMM*%
%LPD*%
G01*
G04 APERTURE LIST*
G04 #@! TA.AperFunction,SMDPad,CuDef*
%ADD10R,5.000000X5.000000*%
G04 #@! TD*
G04 #@! TA.AperFunction,SMDPad,CuDef*
%ADD11R,1.200000X1.400000*%
G04 #@! TD*
G04 #@! TA.AperFunction,ComponentPad*
%ADD12R,1.700000X1.700000*%
G04 #@! TD*
G04 #@! TA.AperFunction,ComponentPad*
%ADD13O,1.700000X1.700000*%
G04 #@! TD*
G04 #@! TA.AperFunction,SMDPad,CuDef*
%ADD14R,1.700000X0.760000*%
G04 #@! TD*
G04 #@! TA.AperFunction,ComponentPad*
%ADD15O,1.200000X1.600000*%
G04 #@! TD*
G04 #@! TA.AperFunction,ComponentPad*
%ADD16O,1.200000X1.200000*%
G04 #@! TD*
G04 #@! TA.AperFunction,ComponentPad*
%ADD17R,1.500000X1.500000*%
G04 #@! TD*
G04 #@! TA.AperFunction,ComponentPad*
%ADD18C,1.500000*%
G04 #@! TD*
G04 #@! TA.AperFunction,ComponentPad*
%ADD19C,2.300000*%
G04 #@! TD*
G04 #@! TA.AperFunction,ComponentPad*
%ADD20O,1.200000X1.900000*%
G04 #@! TD*
G04 #@! TA.AperFunction,ComponentPad*
%ADD21C,1.450000*%
G04 #@! TD*
G04 #@! TA.AperFunction,ViaPad*
%ADD22C,0.800000*%
G04 #@! TD*
G04 #@! TA.AperFunction,Conductor*
%ADD23C,1.000000*%
G04 #@! TD*
G04 #@! TA.AperFunction,Conductor*
%ADD24C,0.250000*%
G04 #@! TD*
G04 #@! TA.AperFunction,Conductor*
%ADD25C,0.500000*%
G04 #@! TD*
G04 #@! TA.AperFunction,Conductor*
%ADD26C,0.750000*%
G04 #@! TD*
G04 #@! TA.AperFunction,Conductor*
%ADD27C,0.200000*%
G04 #@! TD*
G04 #@! TA.AperFunction,Conductor*
%ADD28C,0.254000*%
G04 #@! TD*
G04 #@! TA.AperFunction,Conductor*
%ADD29C,0.100000*%
G04 #@! TD*
G04 APERTURE END LIST*
D10*
X167600000Y-101400000D03*
X167600000Y-117400000D03*
X127600000Y-101400000D03*
X127600000Y-117400000D03*
G04 #@! TA.AperFunction,WasherPad*
G36*
G01*
X151600000Y-98600000D02*
X155600000Y-98600000D01*
G75*
G02*
X158100000Y-101100000I0J-2500000D01*
G01*
X158100000Y-101100000D01*
G75*
G02*
X155600000Y-103600000I-2500000J0D01*
G01*
X151600000Y-103600000D01*
G75*
G02*
X149100000Y-101100000I0J2500000D01*
G01*
X149100000Y-101100000D01*
G75*
G02*
X151600000Y-98600000I2500000J0D01*
G01*
G37*
G04 #@! TD.AperFunction*
D11*
X113145200Y-116540400D03*
X113145200Y-114340400D03*
X114845200Y-114340400D03*
X114845200Y-116540400D03*
D12*
X125902000Y-95838000D03*
D13*
X125902000Y-93298000D03*
X128442000Y-95838000D03*
X128442000Y-93298000D03*
X130982000Y-95838000D03*
X130982000Y-93298000D03*
X133522000Y-95838000D03*
X133522000Y-93298000D03*
X136062000Y-95838000D03*
X136062000Y-93298000D03*
X138602000Y-95838000D03*
X138602000Y-93298000D03*
X141142000Y-95838000D03*
X141142000Y-93298000D03*
X143682000Y-95838000D03*
X143682000Y-93298000D03*
X146222000Y-95838000D03*
X146222000Y-93298000D03*
X148762000Y-95838000D03*
X148762000Y-93298000D03*
X151302000Y-95838000D03*
X151302000Y-93298000D03*
X153842000Y-95838000D03*
X153842000Y-93298000D03*
X156382000Y-95838000D03*
X156382000Y-93298000D03*
X158922000Y-95838000D03*
X158922000Y-93298000D03*
X161462000Y-95838000D03*
X161462000Y-93298000D03*
X164002000Y-95838000D03*
X164002000Y-93298000D03*
X166542000Y-95838000D03*
X166542000Y-93298000D03*
X169082000Y-95838000D03*
X169082000Y-93298000D03*
X171622000Y-95838000D03*
X171622000Y-93298000D03*
X174162000Y-95838000D03*
X174162000Y-93298000D03*
D14*
X110800000Y-110513000D03*
X110800000Y-109243000D03*
X110800000Y-107973000D03*
X110800000Y-106703000D03*
X110800000Y-102893000D03*
X110800000Y-105433000D03*
X110800000Y-104163000D03*
X110800000Y-101623000D03*
X102000000Y-107973000D03*
X102000000Y-104163000D03*
X102000000Y-101623000D03*
X102000000Y-109243000D03*
X102000000Y-102893000D03*
X102000000Y-106703000D03*
X102000000Y-110513000D03*
X102000000Y-105433000D03*
D15*
X179332000Y-109368000D03*
D16*
X179332000Y-106828000D03*
D17*
X90532000Y-109628000D03*
D18*
X90532000Y-107596000D03*
X90532000Y-105564000D03*
X90532000Y-103532000D03*
X92312000Y-108612000D03*
X92312000Y-106580000D03*
X92312000Y-104548000D03*
X92312000Y-102516000D03*
D19*
X91422000Y-97938000D03*
X91422000Y-114198000D03*
D18*
X97132000Y-112928000D03*
X97132000Y-110638000D03*
X97132000Y-101498000D03*
X97132000Y-99208000D03*
D13*
X180652000Y-103068000D03*
X178112000Y-103068000D03*
X175572000Y-103068000D03*
D12*
X173032000Y-103068000D03*
X173032000Y-99468000D03*
D13*
X175572000Y-99468000D03*
X178112000Y-99468000D03*
X180652000Y-99468000D03*
D20*
X155220000Y-119616296D03*
X162220000Y-119616296D03*
D21*
X156220000Y-116916296D03*
X161220000Y-116916296D03*
G04 #@! TA.AperFunction,SMDPad,CuDef*
G36*
G01*
X105662000Y-115372000D02*
X106002000Y-115372000D01*
G75*
G02*
X106142000Y-115512000I0J-140000D01*
G01*
X106142000Y-115792000D01*
G75*
G02*
X106002000Y-115932000I-140000J0D01*
G01*
X105662000Y-115932000D01*
G75*
G02*
X105522000Y-115792000I0J140000D01*
G01*
X105522000Y-115512000D01*
G75*
G02*
X105662000Y-115372000I140000J0D01*
G01*
G37*
G04 #@! TD.AperFunction*
G04 #@! TA.AperFunction,SMDPad,CuDef*
G36*
G01*
X105662000Y-116332000D02*
X106002000Y-116332000D01*
G75*
G02*
X106142000Y-116472000I0J-140000D01*
G01*
X106142000Y-116752000D01*
G75*
G02*
X106002000Y-116892000I-140000J0D01*
G01*
X105662000Y-116892000D01*
G75*
G02*
X105522000Y-116752000I0J140000D01*
G01*
X105522000Y-116472000D01*
G75*
G02*
X105662000Y-116332000I140000J0D01*
G01*
G37*
G04 #@! TD.AperFunction*
G04 #@! TA.AperFunction,SMDPad,CuDef*
G36*
G01*
X106430000Y-118532000D02*
X106770000Y-118532000D01*
G75*
G02*
X106910000Y-118672000I0J-140000D01*
G01*
X106910000Y-118952000D01*
G75*
G02*
X106770000Y-119092000I-140000J0D01*
G01*
X106430000Y-119092000D01*
G75*
G02*
X106290000Y-118952000I0J140000D01*
G01*
X106290000Y-118672000D01*
G75*
G02*
X106430000Y-118532000I140000J0D01*
G01*
G37*
G04 #@! TD.AperFunction*
G04 #@! TA.AperFunction,SMDPad,CuDef*
G36*
G01*
X106430000Y-117572000D02*
X106770000Y-117572000D01*
G75*
G02*
X106910000Y-117712000I0J-140000D01*
G01*
X106910000Y-117992000D01*
G75*
G02*
X106770000Y-118132000I-140000J0D01*
G01*
X106430000Y-118132000D01*
G75*
G02*
X106290000Y-117992000I0J140000D01*
G01*
X106290000Y-117712000D01*
G75*
G02*
X106430000Y-117572000I140000J0D01*
G01*
G37*
G04 #@! TD.AperFunction*
G04 #@! TA.AperFunction,SMDPad,CuDef*
G36*
G01*
X107162000Y-116332000D02*
X107502000Y-116332000D01*
G75*
G02*
X107642000Y-116472000I0J-140000D01*
G01*
X107642000Y-116752000D01*
G75*
G02*
X107502000Y-116892000I-140000J0D01*
G01*
X107162000Y-116892000D01*
G75*
G02*
X107022000Y-116752000I0J140000D01*
G01*
X107022000Y-116472000D01*
G75*
G02*
X107162000Y-116332000I140000J0D01*
G01*
G37*
G04 #@! TD.AperFunction*
G04 #@! TA.AperFunction,SMDPad,CuDef*
G36*
G01*
X107162000Y-115372000D02*
X107502000Y-115372000D01*
G75*
G02*
X107642000Y-115512000I0J-140000D01*
G01*
X107642000Y-115792000D01*
G75*
G02*
X107502000Y-115932000I-140000J0D01*
G01*
X107162000Y-115932000D01*
G75*
G02*
X107022000Y-115792000I0J140000D01*
G01*
X107022000Y-115512000D01*
G75*
G02*
X107162000Y-115372000I140000J0D01*
G01*
G37*
G04 #@! TD.AperFunction*
G04 #@! TA.AperFunction,SMDPad,CuDef*
G36*
G01*
X104000000Y-120170000D02*
X104000000Y-119830000D01*
G75*
G02*
X104140000Y-119690000I140000J0D01*
G01*
X104420000Y-119690000D01*
G75*
G02*
X104560000Y-119830000I0J-140000D01*
G01*
X104560000Y-120170000D01*
G75*
G02*
X104420000Y-120310000I-140000J0D01*
G01*
X104140000Y-120310000D01*
G75*
G02*
X104000000Y-120170000I0J140000D01*
G01*
G37*
G04 #@! TD.AperFunction*
G04 #@! TA.AperFunction,SMDPad,CuDef*
G36*
G01*
X103040000Y-120170000D02*
X103040000Y-119830000D01*
G75*
G02*
X103180000Y-119690000I140000J0D01*
G01*
X103460000Y-119690000D01*
G75*
G02*
X103600000Y-119830000I0J-140000D01*
G01*
X103600000Y-120170000D01*
G75*
G02*
X103460000Y-120310000I-140000J0D01*
G01*
X103180000Y-120310000D01*
G75*
G02*
X103040000Y-120170000I0J140000D01*
G01*
G37*
G04 #@! TD.AperFunction*
G04 #@! TA.AperFunction,SMDPad,CuDef*
G36*
G01*
X109304000Y-117572000D02*
X109644000Y-117572000D01*
G75*
G02*
X109784000Y-117712000I0J-140000D01*
G01*
X109784000Y-117992000D01*
G75*
G02*
X109644000Y-118132000I-140000J0D01*
G01*
X109304000Y-118132000D01*
G75*
G02*
X109164000Y-117992000I0J140000D01*
G01*
X109164000Y-117712000D01*
G75*
G02*
X109304000Y-117572000I140000J0D01*
G01*
G37*
G04 #@! TD.AperFunction*
G04 #@! TA.AperFunction,SMDPad,CuDef*
G36*
G01*
X109304000Y-118532000D02*
X109644000Y-118532000D01*
G75*
G02*
X109784000Y-118672000I0J-140000D01*
G01*
X109784000Y-118952000D01*
G75*
G02*
X109644000Y-119092000I-140000J0D01*
G01*
X109304000Y-119092000D01*
G75*
G02*
X109164000Y-118952000I0J140000D01*
G01*
X109164000Y-118672000D01*
G75*
G02*
X109304000Y-118532000I140000J0D01*
G01*
G37*
G04 #@! TD.AperFunction*
G04 #@! TA.AperFunction,SMDPad,CuDef*
G36*
G01*
X101876200Y-98770000D02*
X101876200Y-98430000D01*
G75*
G02*
X102016200Y-98290000I140000J0D01*
G01*
X102296200Y-98290000D01*
G75*
G02*
X102436200Y-98430000I0J-140000D01*
G01*
X102436200Y-98770000D01*
G75*
G02*
X102296200Y-98910000I-140000J0D01*
G01*
X102016200Y-98910000D01*
G75*
G02*
X101876200Y-98770000I0J140000D01*
G01*
G37*
G04 #@! TD.AperFunction*
G04 #@! TA.AperFunction,SMDPad,CuDef*
G36*
G01*
X100916200Y-98770000D02*
X100916200Y-98430000D01*
G75*
G02*
X101056200Y-98290000I140000J0D01*
G01*
X101336200Y-98290000D01*
G75*
G02*
X101476200Y-98430000I0J-140000D01*
G01*
X101476200Y-98770000D01*
G75*
G02*
X101336200Y-98910000I-140000J0D01*
G01*
X101056200Y-98910000D01*
G75*
G02*
X100916200Y-98770000I0J140000D01*
G01*
G37*
G04 #@! TD.AperFunction*
G04 #@! TA.AperFunction,SMDPad,CuDef*
G36*
G01*
X116326100Y-101739700D02*
X115986100Y-101739700D01*
G75*
G02*
X115846100Y-101599700I0J140000D01*
G01*
X115846100Y-101319700D01*
G75*
G02*
X115986100Y-101179700I140000J0D01*
G01*
X116326100Y-101179700D01*
G75*
G02*
X116466100Y-101319700I0J-140000D01*
G01*
X116466100Y-101599700D01*
G75*
G02*
X116326100Y-101739700I-140000J0D01*
G01*
G37*
G04 #@! TD.AperFunction*
G04 #@! TA.AperFunction,SMDPad,CuDef*
G36*
G01*
X116326100Y-102699700D02*
X115986100Y-102699700D01*
G75*
G02*
X115846100Y-102559700I0J140000D01*
G01*
X115846100Y-102279700D01*
G75*
G02*
X115986100Y-102139700I140000J0D01*
G01*
X116326100Y-102139700D01*
G75*
G02*
X116466100Y-102279700I0J-140000D01*
G01*
X116466100Y-102559700D01*
G75*
G02*
X116326100Y-102699700I-140000J0D01*
G01*
G37*
G04 #@! TD.AperFunction*
G04 #@! TA.AperFunction,SMDPad,CuDef*
G36*
G01*
X115326100Y-102699700D02*
X114986100Y-102699700D01*
G75*
G02*
X114846100Y-102559700I0J140000D01*
G01*
X114846100Y-102279700D01*
G75*
G02*
X114986100Y-102139700I140000J0D01*
G01*
X115326100Y-102139700D01*
G75*
G02*
X115466100Y-102279700I0J-140000D01*
G01*
X115466100Y-102559700D01*
G75*
G02*
X115326100Y-102699700I-140000J0D01*
G01*
G37*
G04 #@! TD.AperFunction*
G04 #@! TA.AperFunction,SMDPad,CuDef*
G36*
G01*
X115326100Y-101739700D02*
X114986100Y-101739700D01*
G75*
G02*
X114846100Y-101599700I0J140000D01*
G01*
X114846100Y-101319700D01*
G75*
G02*
X114986100Y-101179700I140000J0D01*
G01*
X115326100Y-101179700D01*
G75*
G02*
X115466100Y-101319700I0J-140000D01*
G01*
X115466100Y-101599700D01*
G75*
G02*
X115326100Y-101739700I-140000J0D01*
G01*
G37*
G04 #@! TD.AperFunction*
G04 #@! TA.AperFunction,SMDPad,CuDef*
G36*
G01*
X119440400Y-102712400D02*
X119100400Y-102712400D01*
G75*
G02*
X118960400Y-102572400I0J140000D01*
G01*
X118960400Y-102292400D01*
G75*
G02*
X119100400Y-102152400I140000J0D01*
G01*
X119440400Y-102152400D01*
G75*
G02*
X119580400Y-102292400I0J-140000D01*
G01*
X119580400Y-102572400D01*
G75*
G02*
X119440400Y-102712400I-140000J0D01*
G01*
G37*
G04 #@! TD.AperFunction*
G04 #@! TA.AperFunction,SMDPad,CuDef*
G36*
G01*
X119440400Y-101752400D02*
X119100400Y-101752400D01*
G75*
G02*
X118960400Y-101612400I0J140000D01*
G01*
X118960400Y-101332400D01*
G75*
G02*
X119100400Y-101192400I140000J0D01*
G01*
X119440400Y-101192400D01*
G75*
G02*
X119580400Y-101332400I0J-140000D01*
G01*
X119580400Y-101612400D01*
G75*
G02*
X119440400Y-101752400I-140000J0D01*
G01*
G37*
G04 #@! TD.AperFunction*
G04 #@! TA.AperFunction,SMDPad,CuDef*
G36*
G01*
X118440400Y-102712400D02*
X118100400Y-102712400D01*
G75*
G02*
X117960400Y-102572400I0J140000D01*
G01*
X117960400Y-102292400D01*
G75*
G02*
X118100400Y-102152400I140000J0D01*
G01*
X118440400Y-102152400D01*
G75*
G02*
X118580400Y-102292400I0J-140000D01*
G01*
X118580400Y-102572400D01*
G75*
G02*
X118440400Y-102712400I-140000J0D01*
G01*
G37*
G04 #@! TD.AperFunction*
G04 #@! TA.AperFunction,SMDPad,CuDef*
G36*
G01*
X118440400Y-101752400D02*
X118100400Y-101752400D01*
G75*
G02*
X117960400Y-101612400I0J140000D01*
G01*
X117960400Y-101332400D01*
G75*
G02*
X118100400Y-101192400I140000J0D01*
G01*
X118440400Y-101192400D01*
G75*
G02*
X118580400Y-101332400I0J-140000D01*
G01*
X118580400Y-101612400D01*
G75*
G02*
X118440400Y-101752400I-140000J0D01*
G01*
G37*
G04 #@! TD.AperFunction*
G04 #@! TA.AperFunction,SMDPad,CuDef*
G36*
G01*
X114455600Y-119283600D02*
X114455600Y-119623600D01*
G75*
G02*
X114315600Y-119763600I-140000J0D01*
G01*
X114035600Y-119763600D01*
G75*
G02*
X113895600Y-119623600I0J140000D01*
G01*
X113895600Y-119283600D01*
G75*
G02*
X114035600Y-119143600I140000J0D01*
G01*
X114315600Y-119143600D01*
G75*
G02*
X114455600Y-119283600I0J-140000D01*
G01*
G37*
G04 #@! TD.AperFunction*
G04 #@! TA.AperFunction,SMDPad,CuDef*
G36*
G01*
X115415600Y-119283600D02*
X115415600Y-119623600D01*
G75*
G02*
X115275600Y-119763600I-140000J0D01*
G01*
X114995600Y-119763600D01*
G75*
G02*
X114855600Y-119623600I0J140000D01*
G01*
X114855600Y-119283600D01*
G75*
G02*
X114995600Y-119143600I140000J0D01*
G01*
X115275600Y-119143600D01*
G75*
G02*
X115415600Y-119283600I0J-140000D01*
G01*
G37*
G04 #@! TD.AperFunction*
G04 #@! TA.AperFunction,SMDPad,CuDef*
G36*
G01*
X115566800Y-110863200D02*
X115566800Y-110523200D01*
G75*
G02*
X115706800Y-110383200I140000J0D01*
G01*
X115986800Y-110383200D01*
G75*
G02*
X116126800Y-110523200I0J-140000D01*
G01*
X116126800Y-110863200D01*
G75*
G02*
X115986800Y-111003200I-140000J0D01*
G01*
X115706800Y-111003200D01*
G75*
G02*
X115566800Y-110863200I0J140000D01*
G01*
G37*
G04 #@! TD.AperFunction*
G04 #@! TA.AperFunction,SMDPad,CuDef*
G36*
G01*
X114606800Y-110863200D02*
X114606800Y-110523200D01*
G75*
G02*
X114746800Y-110383200I140000J0D01*
G01*
X115026800Y-110383200D01*
G75*
G02*
X115166800Y-110523200I0J-140000D01*
G01*
X115166800Y-110863200D01*
G75*
G02*
X115026800Y-111003200I-140000J0D01*
G01*
X114746800Y-111003200D01*
G75*
G02*
X114606800Y-110863200I0J140000D01*
G01*
G37*
G04 #@! TD.AperFunction*
G04 #@! TA.AperFunction,SMDPad,CuDef*
G36*
G01*
X98580000Y-92015000D02*
X98580000Y-92385000D01*
G75*
G02*
X98445000Y-92520000I-135000J0D01*
G01*
X98175000Y-92520000D01*
G75*
G02*
X98040000Y-92385000I0J135000D01*
G01*
X98040000Y-92015000D01*
G75*
G02*
X98175000Y-91880000I135000J0D01*
G01*
X98445000Y-91880000D01*
G75*
G02*
X98580000Y-92015000I0J-135000D01*
G01*
G37*
G04 #@! TD.AperFunction*
G04 #@! TA.AperFunction,SMDPad,CuDef*
G36*
G01*
X97560000Y-92015000D02*
X97560000Y-92385000D01*
G75*
G02*
X97425000Y-92520000I-135000J0D01*
G01*
X97155000Y-92520000D01*
G75*
G02*
X97020000Y-92385000I0J135000D01*
G01*
X97020000Y-92015000D01*
G75*
G02*
X97155000Y-91880000I135000J0D01*
G01*
X97425000Y-91880000D01*
G75*
G02*
X97560000Y-92015000I0J-135000D01*
G01*
G37*
G04 #@! TD.AperFunction*
G04 #@! TA.AperFunction,SMDPad,CuDef*
G36*
G01*
X97560000Y-93515000D02*
X97560000Y-93885000D01*
G75*
G02*
X97425000Y-94020000I-135000J0D01*
G01*
X97155000Y-94020000D01*
G75*
G02*
X97020000Y-93885000I0J135000D01*
G01*
X97020000Y-93515000D01*
G75*
G02*
X97155000Y-93380000I135000J0D01*
G01*
X97425000Y-93380000D01*
G75*
G02*
X97560000Y-93515000I0J-135000D01*
G01*
G37*
G04 #@! TD.AperFunction*
G04 #@! TA.AperFunction,SMDPad,CuDef*
G36*
G01*
X98580000Y-93515000D02*
X98580000Y-93885000D01*
G75*
G02*
X98445000Y-94020000I-135000J0D01*
G01*
X98175000Y-94020000D01*
G75*
G02*
X98040000Y-93885000I0J135000D01*
G01*
X98040000Y-93515000D01*
G75*
G02*
X98175000Y-93380000I135000J0D01*
G01*
X98445000Y-93380000D01*
G75*
G02*
X98580000Y-93515000I0J-135000D01*
G01*
G37*
G04 #@! TD.AperFunction*
G04 #@! TA.AperFunction,SMDPad,CuDef*
G36*
G01*
X105647000Y-113152000D02*
X106017000Y-113152000D01*
G75*
G02*
X106152000Y-113287000I0J-135000D01*
G01*
X106152000Y-113557000D01*
G75*
G02*
X106017000Y-113692000I-135000J0D01*
G01*
X105647000Y-113692000D01*
G75*
G02*
X105512000Y-113557000I0J135000D01*
G01*
X105512000Y-113287000D01*
G75*
G02*
X105647000Y-113152000I135000J0D01*
G01*
G37*
G04 #@! TD.AperFunction*
G04 #@! TA.AperFunction,SMDPad,CuDef*
G36*
G01*
X105647000Y-114172000D02*
X106017000Y-114172000D01*
G75*
G02*
X106152000Y-114307000I0J-135000D01*
G01*
X106152000Y-114577000D01*
G75*
G02*
X106017000Y-114712000I-135000J0D01*
G01*
X105647000Y-114712000D01*
G75*
G02*
X105512000Y-114577000I0J135000D01*
G01*
X105512000Y-114307000D01*
G75*
G02*
X105647000Y-114172000I135000J0D01*
G01*
G37*
G04 #@! TD.AperFunction*
G04 #@! TA.AperFunction,SMDPad,CuDef*
G36*
G01*
X107147000Y-113152000D02*
X107517000Y-113152000D01*
G75*
G02*
X107652000Y-113287000I0J-135000D01*
G01*
X107652000Y-113557000D01*
G75*
G02*
X107517000Y-113692000I-135000J0D01*
G01*
X107147000Y-113692000D01*
G75*
G02*
X107012000Y-113557000I0J135000D01*
G01*
X107012000Y-113287000D01*
G75*
G02*
X107147000Y-113152000I135000J0D01*
G01*
G37*
G04 #@! TD.AperFunction*
G04 #@! TA.AperFunction,SMDPad,CuDef*
G36*
G01*
X107147000Y-114172000D02*
X107517000Y-114172000D01*
G75*
G02*
X107652000Y-114307000I0J-135000D01*
G01*
X107652000Y-114577000D01*
G75*
G02*
X107517000Y-114712000I-135000J0D01*
G01*
X107147000Y-114712000D01*
G75*
G02*
X107012000Y-114577000I0J135000D01*
G01*
X107012000Y-114307000D01*
G75*
G02*
X107147000Y-114172000I135000J0D01*
G01*
G37*
G04 #@! TD.AperFunction*
G04 #@! TA.AperFunction,SMDPad,CuDef*
G36*
G01*
X172816650Y-116065700D02*
X172304150Y-116065700D01*
G75*
G02*
X172085400Y-115846950I0J218750D01*
G01*
X172085400Y-115409450D01*
G75*
G02*
X172304150Y-115190700I218750J0D01*
G01*
X172816650Y-115190700D01*
G75*
G02*
X173035400Y-115409450I0J-218750D01*
G01*
X173035400Y-115846950D01*
G75*
G02*
X172816650Y-116065700I-218750J0D01*
G01*
G37*
G04 #@! TD.AperFunction*
G04 #@! TA.AperFunction,SMDPad,CuDef*
G36*
G01*
X172816650Y-117640700D02*
X172304150Y-117640700D01*
G75*
G02*
X172085400Y-117421950I0J218750D01*
G01*
X172085400Y-116984450D01*
G75*
G02*
X172304150Y-116765700I218750J0D01*
G01*
X172816650Y-116765700D01*
G75*
G02*
X173035400Y-116984450I0J-218750D01*
G01*
X173035400Y-117421950D01*
G75*
G02*
X172816650Y-117640700I-218750J0D01*
G01*
G37*
G04 #@! TD.AperFunction*
G04 #@! TA.AperFunction,SMDPad,CuDef*
G36*
G01*
X175340650Y-117660200D02*
X174828150Y-117660200D01*
G75*
G02*
X174609400Y-117441450I0J218750D01*
G01*
X174609400Y-117003950D01*
G75*
G02*
X174828150Y-116785200I218750J0D01*
G01*
X175340650Y-116785200D01*
G75*
G02*
X175559400Y-117003950I0J-218750D01*
G01*
X175559400Y-117441450D01*
G75*
G02*
X175340650Y-117660200I-218750J0D01*
G01*
G37*
G04 #@! TD.AperFunction*
G04 #@! TA.AperFunction,SMDPad,CuDef*
G36*
G01*
X175340650Y-116085200D02*
X174828150Y-116085200D01*
G75*
G02*
X174609400Y-115866450I0J218750D01*
G01*
X174609400Y-115428950D01*
G75*
G02*
X174828150Y-115210200I218750J0D01*
G01*
X175340650Y-115210200D01*
G75*
G02*
X175559400Y-115428950I0J-218750D01*
G01*
X175559400Y-115866450D01*
G75*
G02*
X175340650Y-116085200I-218750J0D01*
G01*
G37*
G04 #@! TD.AperFunction*
D22*
X120396000Y-103073200D03*
X173583600Y-109347000D03*
X175000000Y-105300000D03*
X176915000Y-108227000D03*
X180805000Y-106257000D03*
X180800000Y-110000000D03*
X163900000Y-119700000D03*
X104500000Y-109700000D03*
X181300000Y-114500000D03*
X175900000Y-119700000D03*
X172000000Y-119700000D03*
X167800000Y-119700000D03*
X168700000Y-115700000D03*
X170200000Y-112700000D03*
X176052400Y-114703200D03*
X168900000Y-105300000D03*
X171200000Y-102400000D03*
X178100000Y-111400000D03*
X163000000Y-116800000D03*
X181300000Y-112600000D03*
X104500000Y-114100000D03*
X156464000Y-115214400D03*
X113310700Y-118588700D03*
X105232200Y-119989600D03*
X102743000Y-96139000D03*
X102743000Y-97409000D03*
X104013000Y-97409000D03*
X117030500Y-108750100D03*
X120523000Y-101473000D03*
X116459000Y-113919000D03*
X104775000Y-92837000D03*
X109855000Y-92837000D03*
X114935000Y-92837000D03*
X107315000Y-95377000D03*
X112395000Y-95377000D03*
X117475000Y-95377000D03*
X132715000Y-118237000D03*
X135255000Y-118237000D03*
X137795000Y-118237000D03*
X140335000Y-118237000D03*
X142875000Y-118237000D03*
X145415000Y-118237000D03*
X147955000Y-118237000D03*
X150495000Y-118237000D03*
X153035000Y-118237000D03*
X132715000Y-115697000D03*
X135255000Y-115697000D03*
X137795000Y-115697000D03*
X140335000Y-115697000D03*
X142875000Y-115697000D03*
X145415000Y-115697000D03*
X147955000Y-115697000D03*
X150495000Y-115697000D03*
X153035000Y-115697000D03*
X132715000Y-113157000D03*
X132715000Y-108077000D03*
X135255000Y-108077000D03*
X135255000Y-110617000D03*
X135255000Y-113157000D03*
X137795000Y-113157000D03*
X137795000Y-110617000D03*
X137795000Y-108077000D03*
X140335000Y-108077000D03*
X140335000Y-110617000D03*
X140335000Y-113157000D03*
X142875000Y-113157000D03*
X142875000Y-110617000D03*
X142875000Y-108077000D03*
X145415000Y-108077000D03*
X145415000Y-110617000D03*
X145415000Y-113157000D03*
X147955000Y-113157000D03*
X150495000Y-113157000D03*
X153035000Y-113157000D03*
X163195000Y-113157000D03*
X163195000Y-110617000D03*
X165735000Y-110617000D03*
X165735000Y-113157000D03*
X135255000Y-100457000D03*
X135255000Y-102997000D03*
X137795000Y-102997000D03*
X137795000Y-100457000D03*
X140335000Y-100457000D03*
X140335000Y-102997000D03*
X142875000Y-100457000D03*
X142875000Y-102997000D03*
X145415000Y-102997000D03*
X160655000Y-102997000D03*
X160655000Y-100457000D03*
X163195000Y-100457000D03*
X160655000Y-113157000D03*
X130175000Y-108077000D03*
X130175000Y-113157000D03*
X132715000Y-110617000D03*
X130175000Y-110617000D03*
X123710700Y-101434900D03*
X123698000Y-100431600D03*
X123698000Y-99415600D03*
X102500000Y-113400000D03*
X101300000Y-111800000D03*
X102500000Y-111800000D03*
X95700000Y-101500000D03*
X95700000Y-99700000D03*
X94100000Y-101500000D03*
X101100000Y-97600000D03*
X101100000Y-96600000D03*
X101100000Y-95600000D03*
X101100000Y-94600000D03*
X98300000Y-95600000D03*
X98300000Y-96600000D03*
X98300000Y-97600000D03*
X99300000Y-94600000D03*
X102500000Y-117500000D03*
X100000000Y-117500000D03*
X97500000Y-117500000D03*
X97500000Y-120000000D03*
X100000000Y-120000000D03*
X102500000Y-120000000D03*
X95000000Y-120000000D03*
X92500000Y-120000000D03*
X90000000Y-120000000D03*
X87500000Y-120000000D03*
X85000000Y-120000000D03*
X85000000Y-117500000D03*
X85000000Y-105000000D03*
X85000000Y-102500000D03*
X85000000Y-100000000D03*
X85000000Y-97500000D03*
X85000000Y-95000000D03*
X85000000Y-92500000D03*
X87500000Y-92500000D03*
X87500000Y-95000000D03*
X90000000Y-95000000D03*
X92500000Y-95000000D03*
X92500000Y-92500000D03*
X90000000Y-92500000D03*
X95000000Y-95000000D03*
X95000000Y-92500000D03*
X95000000Y-97500000D03*
X95000000Y-115000000D03*
X95000000Y-112500000D03*
X88000000Y-108000000D03*
X88000000Y-109000000D03*
X88000000Y-110000000D03*
X120167400Y-107502960D03*
X113526570Y-110501460D03*
X119418766Y-110884369D03*
X120523000Y-108953300D03*
X115697000Y-111887000D03*
X116555500Y-103921647D03*
X121179536Y-102335008D03*
X117729000Y-113411000D03*
X116555500Y-112649000D03*
X100000000Y-101300000D03*
X99400000Y-100700000D03*
X100700000Y-100600000D03*
X103600000Y-103300000D03*
X104600000Y-103300000D03*
X104600000Y-102300000D03*
X103600000Y-102300000D03*
X103800000Y-111800000D03*
X171155000Y-117207000D03*
X173815000Y-117187000D03*
X100000000Y-92400000D03*
X100047325Y-93398891D03*
X121488200Y-109778800D03*
X122224800Y-106262010D03*
X112292393Y-110433427D03*
X112369598Y-107988102D03*
X112531768Y-104003232D03*
X113274232Y-103260768D03*
X158268437Y-115228210D03*
X115468400Y-104927400D03*
X159359600Y-114503200D03*
X114985800Y-103962200D03*
X97000000Y-106600000D03*
X164365000Y-101407000D03*
X164365000Y-102407000D03*
X164363400Y-103403372D03*
D23*
X125902000Y-93298000D02*
X128442000Y-93298000D01*
D24*
X116156100Y-102419700D02*
X115156100Y-102419700D01*
X116156100Y-102419700D02*
X116163726Y-102419700D01*
X120982173Y-97793001D02*
X116355474Y-102419700D01*
X122580001Y-97793001D02*
X120982173Y-97793001D01*
X124726999Y-95646003D02*
X122580001Y-97793001D01*
X124726999Y-94473001D02*
X124726999Y-95646003D01*
X116355474Y-102419700D02*
X116156100Y-102419700D01*
X125902000Y-93298000D02*
X124726999Y-94473001D01*
X120370600Y-103098600D02*
X120396000Y-103073200D01*
X116555000Y-103098600D02*
X120370600Y-103098600D01*
X116156100Y-102699700D02*
X116555000Y-103098600D01*
X116156100Y-102419700D02*
X116156100Y-102699700D01*
X175084400Y-110847800D02*
X173583600Y-109347000D01*
X175084400Y-115647700D02*
X175084400Y-110847800D01*
X100728000Y-112928000D02*
X104280000Y-116480000D01*
X97132000Y-112928000D02*
X100728000Y-112928000D01*
X112845200Y-118123200D02*
X112845200Y-116890400D01*
X114175600Y-119453600D02*
X112845200Y-118123200D01*
X118270400Y-101472400D02*
X119270400Y-101472400D01*
X115156100Y-101459700D02*
X116156100Y-101459700D01*
X168610000Y-96310000D02*
X169082000Y-95838000D01*
X173904000Y-97800000D02*
X171044000Y-97800000D01*
X171044000Y-97800000D02*
X169082000Y-95838000D01*
X175572000Y-99468000D02*
X173904000Y-97800000D01*
D23*
X125615600Y-99415600D02*
X127600000Y-101400000D01*
X123698000Y-99415600D02*
X125615600Y-99415600D01*
X126631600Y-100431600D02*
X127600000Y-101400000D01*
X123698000Y-100431600D02*
X126631600Y-100431600D01*
X127565100Y-101434900D02*
X127600000Y-101400000D01*
X123710700Y-101434900D02*
X127565100Y-101434900D01*
D24*
X106600000Y-117380000D02*
X105832000Y-116612000D01*
X106600000Y-117852000D02*
X106600000Y-117380000D01*
X106600000Y-117344000D02*
X107332000Y-116612000D01*
X106600000Y-117852000D02*
X106600000Y-117344000D01*
X105832000Y-114442000D02*
X105832000Y-115652000D01*
D25*
X104198000Y-118812000D02*
X106600000Y-118812000D01*
X103320000Y-119690000D02*
X104198000Y-118812000D01*
X103320000Y-120000000D02*
X103320000Y-119690000D01*
X106600000Y-118812000D02*
X109474000Y-118812000D01*
D24*
X107332000Y-115652000D02*
X107332000Y-114442000D01*
D26*
X109804998Y-102893000D02*
X110800000Y-102893000D01*
X109374999Y-103322999D02*
X109804998Y-102893000D01*
X109374999Y-108813001D02*
X109374999Y-103322999D01*
X109804998Y-109243000D02*
X109374999Y-108813001D01*
X110800000Y-109243000D02*
X109804998Y-109243000D01*
D25*
X110029998Y-109243000D02*
X110800000Y-109243000D01*
X109474000Y-109798998D02*
X110029998Y-109243000D01*
X109474000Y-117509100D02*
X109474000Y-109798998D01*
X109499999Y-117535099D02*
X109474000Y-117509100D01*
X109474000Y-117852000D02*
X109499999Y-117535099D01*
D24*
X116525070Y-107502960D02*
X113526570Y-110501460D01*
X120167400Y-107502960D02*
X116525070Y-107502960D01*
X119418766Y-108251594D02*
X119418766Y-110884369D01*
X120167400Y-107502960D02*
X119418766Y-108251594D01*
X119489139Y-111887000D02*
X115697000Y-111887000D01*
X120523000Y-108953300D02*
X120523000Y-110853139D01*
X120523000Y-110853139D02*
X119489139Y-111887000D01*
X120922999Y-108553301D02*
X120922999Y-107185557D01*
X119999452Y-106262010D02*
X119072446Y-106262010D01*
X120523000Y-108953300D02*
X120922999Y-108553301D01*
X120922999Y-107185557D02*
X119999452Y-106262010D01*
X115871052Y-103237199D02*
X116555500Y-103921647D01*
X114637799Y-103237199D02*
X115871052Y-103237199D01*
X114260799Y-103614199D02*
X114637799Y-103237199D01*
X114260799Y-104792801D02*
X114260799Y-103614199D01*
X115730008Y-106262010D02*
X114260799Y-104792801D01*
X119072446Y-106262010D02*
X115730008Y-106262010D01*
X118270400Y-102432400D02*
X119270400Y-102432400D01*
X119430801Y-102271999D02*
X121116527Y-102271999D01*
X121116527Y-102271999D02*
X121179536Y-102335008D01*
X119270400Y-102432400D02*
X119430801Y-102271999D01*
X115135600Y-116900000D02*
X115145200Y-116890400D01*
X115135600Y-119453600D02*
X115135600Y-116900000D01*
X117729000Y-114681000D02*
X117729000Y-113411000D01*
X115858600Y-116551400D02*
X117729000Y-114681000D01*
X114856200Y-116551400D02*
X115858600Y-116551400D01*
X114886800Y-110864442D02*
X114886800Y-110693200D01*
X113145200Y-112152800D02*
X113145200Y-114340400D01*
X114604800Y-110693200D02*
X113145200Y-112152800D01*
X114886800Y-110693200D02*
X114604800Y-110693200D01*
X113145200Y-113390400D02*
X113145200Y-114340400D01*
X113886600Y-112649000D02*
X113145200Y-113390400D01*
X116555500Y-112649000D02*
X113886600Y-112649000D01*
D26*
X102995002Y-109243000D02*
X102000000Y-109243000D01*
X105800000Y-106438002D02*
X102995002Y-109243000D01*
X105800000Y-101878499D02*
X105800000Y-106438002D01*
X104521501Y-100600000D02*
X105800000Y-101878499D01*
X100700000Y-100600000D02*
X104521501Y-100600000D01*
D24*
X102995002Y-109268004D02*
X102995002Y-109243000D01*
X107148998Y-113422000D02*
X102995002Y-109268004D01*
X107332000Y-113422000D02*
X107148998Y-113422000D01*
D26*
X103007000Y-102893000D02*
X103600000Y-102300000D01*
X102000000Y-102893000D02*
X103007000Y-102893000D01*
X103600000Y-103300000D02*
X104600000Y-103300000D01*
X104600000Y-102300000D02*
X103600000Y-102300000D01*
D24*
X105422000Y-113422000D02*
X103800000Y-111800000D01*
X105832000Y-113422000D02*
X105422000Y-113422000D01*
X172556600Y-117207000D02*
X172560400Y-117203200D01*
X171155000Y-117207000D02*
X172556600Y-117207000D01*
X175048700Y-117187000D02*
X175084400Y-117222700D01*
X173815000Y-117187000D02*
X175048700Y-117187000D01*
D23*
X173032000Y-103068000D02*
X173032000Y-99468000D01*
D24*
X96694990Y-97605010D02*
X96694990Y-92795010D01*
X93250000Y-101050000D02*
X96694990Y-97605010D01*
X91050000Y-101050000D02*
X93250000Y-101050000D01*
X89300000Y-102800000D02*
X91050000Y-101050000D01*
X89600000Y-111000000D02*
X89300000Y-110700000D01*
X96694990Y-92795010D02*
X97290000Y-92200000D01*
X96770000Y-111000000D02*
X89600000Y-111000000D01*
X89300000Y-110700000D02*
X89300000Y-102800000D01*
X97132000Y-110638000D02*
X96770000Y-111000000D01*
X97290000Y-99050000D02*
X97132000Y-99208000D01*
X97290000Y-93700000D02*
X97290000Y-99050000D01*
X99800000Y-92200000D02*
X100000000Y-92400000D01*
X98310000Y-92200000D02*
X99800000Y-92200000D01*
X98310000Y-93700000D02*
X99746216Y-93700000D01*
X99746216Y-93700000D02*
X100047325Y-93398891D01*
X121488200Y-106998610D02*
X122224800Y-106262010D01*
X121488200Y-109778800D02*
X121488200Y-106998610D01*
D27*
X110800000Y-110513000D02*
X112212820Y-110513000D01*
X112212820Y-110513000D02*
X112292393Y-110433427D01*
X112354496Y-107973000D02*
X112369598Y-107988102D01*
X110800000Y-107973000D02*
X112354496Y-107973000D01*
X111389999Y-103573001D02*
X111890001Y-103573001D01*
X110800000Y-104163000D02*
X111389999Y-103573001D01*
X111950001Y-103513001D02*
X111950001Y-103118000D01*
X111950001Y-103118000D02*
X112070801Y-103118000D01*
X112070801Y-103118000D02*
X112524250Y-103571449D01*
X111890001Y-103573001D02*
X111950001Y-103513001D01*
X112524250Y-103571449D02*
X112524250Y-103620760D01*
X112524250Y-103620760D02*
X112531768Y-103628278D01*
X112531768Y-103628278D02*
X112531768Y-104003232D01*
X112891760Y-103253250D02*
X112899278Y-103260768D01*
X112842449Y-103253250D02*
X112891760Y-103253250D01*
X112257199Y-102668000D02*
X112842449Y-103253250D01*
X111950001Y-102668000D02*
X112257199Y-102668000D01*
X111950001Y-102272999D02*
X111950001Y-102668000D01*
X112899278Y-103260768D02*
X113274232Y-103260768D01*
X111890001Y-102212999D02*
X111950001Y-102272999D01*
X110800000Y-101623000D02*
X111389999Y-102212999D01*
X111389999Y-102212999D02*
X111890001Y-102212999D01*
D24*
X116078000Y-105537000D02*
X115468400Y-104927400D01*
X148577227Y-105537000D02*
X116078000Y-105537000D01*
X154570054Y-111529827D02*
X148577227Y-105537000D01*
X154622576Y-111571713D02*
X154570054Y-111529827D01*
X154683102Y-111600860D02*
X154622576Y-111571713D01*
X154748596Y-111615809D02*
X154683102Y-111600860D01*
X155050024Y-113078619D02*
X154982846Y-113078620D01*
X155115518Y-113063671D02*
X155050024Y-113078619D01*
X155176044Y-113034523D02*
X155115518Y-113063671D01*
X155891444Y-112329762D02*
X155842848Y-112378357D01*
X155943967Y-112287876D02*
X155891444Y-112329762D01*
X156004493Y-112258729D02*
X155943967Y-112287876D01*
X154815775Y-111615809D02*
X154748596Y-111615809D01*
X156137166Y-112243780D02*
X156069987Y-112243780D01*
X156069987Y-112243780D02*
X156004493Y-112258729D01*
X156263186Y-112287876D02*
X156202660Y-112258729D01*
X156315709Y-112329762D02*
X156263186Y-112287876D01*
X155842848Y-112378357D02*
X155228567Y-112992639D01*
X158268437Y-115228210D02*
X156267114Y-113226887D01*
X156357595Y-112382284D02*
X156315709Y-112329762D01*
X154718320Y-112814095D02*
X154718321Y-112746917D01*
X156267114Y-113226887D02*
X156225228Y-113174364D01*
X156401691Y-112508304D02*
X156386742Y-112442810D01*
X156225228Y-112855145D02*
X156267114Y-112802622D01*
X156202660Y-112258729D02*
X156137166Y-112243780D01*
X156357595Y-112701503D02*
X156386742Y-112640977D01*
X155095437Y-111439346D02*
X155042914Y-111481232D01*
X156181132Y-113048344D02*
X156181132Y-112981165D01*
X156386742Y-112442810D02*
X156357595Y-112382284D01*
X156196081Y-113113838D02*
X156181132Y-113048344D01*
X155155963Y-111410199D02*
X155095437Y-111439346D01*
X156181132Y-112981165D02*
X156196081Y-112915671D01*
X156196081Y-112915671D02*
X156225228Y-112855145D01*
X156267114Y-112802622D02*
X156315709Y-112754026D01*
X156225228Y-113174364D02*
X156196081Y-113113838D01*
X156401691Y-112575483D02*
X156401691Y-112508304D01*
X155228567Y-112992639D02*
X155176044Y-113034523D01*
X156315709Y-112754026D02*
X156357595Y-112701503D01*
X156386742Y-112640977D02*
X156401691Y-112575483D01*
X154982846Y-113078620D02*
X154917350Y-113063671D01*
X154917350Y-113063671D02*
X154856826Y-113034524D01*
X154856826Y-113034524D02*
X154804303Y-112992639D01*
X154804303Y-112992639D02*
X154762416Y-112940115D01*
X154762416Y-112940115D02*
X154733270Y-112879590D01*
X154733270Y-112879590D02*
X154718320Y-112814095D01*
X154718321Y-112746917D02*
X154733269Y-112681422D01*
X154733269Y-112681422D02*
X154762417Y-112620897D01*
X154762417Y-112620897D02*
X154804302Y-112568373D01*
X154804302Y-112568373D02*
X155467179Y-111905497D01*
X154881269Y-111600860D02*
X154815775Y-111615809D01*
X155467179Y-111905497D02*
X155509065Y-111852974D01*
X155509065Y-111852974D02*
X155538212Y-111792448D01*
X155538212Y-111792448D02*
X155553161Y-111726954D01*
X155553161Y-111726954D02*
X155553161Y-111659775D01*
X155553161Y-111659775D02*
X155538212Y-111594281D01*
X155538212Y-111594281D02*
X155509065Y-111533755D01*
X154941795Y-111571713D02*
X154881269Y-111600860D01*
X155509065Y-111533755D02*
X155467179Y-111481232D01*
X155467179Y-111481232D02*
X155414656Y-111439346D01*
X155414656Y-111439346D02*
X155354130Y-111410199D01*
X155354130Y-111410199D02*
X155288636Y-111395250D01*
X155288636Y-111395250D02*
X155221457Y-111395250D01*
X154994318Y-111529827D02*
X154941795Y-111571713D01*
X155221457Y-111395250D02*
X155155963Y-111410199D01*
X155042914Y-111481232D02*
X154994318Y-111529827D01*
X115551485Y-103962200D02*
X114985800Y-103962200D01*
X116618285Y-105029000D02*
X115551485Y-103962200D01*
X149885400Y-105029000D02*
X116618285Y-105029000D01*
X159359600Y-114503200D02*
X149885400Y-105029000D01*
D25*
X96555999Y-109437999D02*
X97708001Y-109437999D01*
X97708001Y-109437999D02*
X98783002Y-110513000D01*
X96181997Y-109812001D02*
X96555999Y-109437999D01*
X91551998Y-109628000D02*
X91735999Y-109812001D01*
X90532000Y-109628000D02*
X91551998Y-109628000D01*
X91735999Y-109812001D02*
X96181997Y-109812001D01*
X98783002Y-110513000D02*
X102000000Y-110513000D01*
X99437000Y-104163000D02*
X102000000Y-104163000D01*
X97000000Y-106600000D02*
X99437000Y-104163000D01*
X92437988Y-108737988D02*
X92312000Y-108612000D01*
X94362988Y-108737988D02*
X92437988Y-108737988D01*
X94401929Y-108742376D02*
X94362988Y-108737988D01*
X94438917Y-108755319D02*
X94401929Y-108742376D01*
X94472098Y-108776168D02*
X94438917Y-108755319D01*
X94499808Y-108803878D02*
X94472098Y-108776168D01*
X94542375Y-108951930D02*
X94533600Y-108874047D01*
X94555318Y-108988918D02*
X94542375Y-108951930D01*
X94576167Y-109022099D02*
X94555318Y-108988918D01*
X94603877Y-109049809D02*
X94576167Y-109022099D01*
X94637058Y-109070658D02*
X94603877Y-109049809D01*
X94674046Y-109083601D02*
X94637058Y-109070658D01*
X94712988Y-109087988D02*
X94674046Y-109083601D01*
X95362988Y-109087988D02*
X94712988Y-109087988D01*
X95401929Y-109083601D02*
X95362988Y-109087988D01*
X95438917Y-109070658D02*
X95401929Y-109083601D01*
X95472098Y-109049809D02*
X95438917Y-109070658D01*
X95499808Y-109022099D02*
X95472098Y-109049809D01*
X96726243Y-108628903D02*
X96647072Y-108549732D01*
X96587503Y-108454929D02*
X96550524Y-108349248D01*
X96488472Y-108021046D02*
X96428903Y-107926243D01*
X96550524Y-108349248D02*
X96525451Y-108126727D01*
X96926727Y-108725451D02*
X96821046Y-108688472D01*
X97997955Y-108737988D02*
X97037988Y-108737988D01*
X96821046Y-108688472D02*
X96726243Y-108628903D01*
X96647072Y-108549732D02*
X96587503Y-108454929D01*
X96525451Y-108126727D02*
X96488472Y-108021046D01*
X96149248Y-107750524D02*
X96037988Y-107737988D01*
X98127983Y-108868016D02*
X97997955Y-108737988D01*
X99754984Y-108868016D02*
X98127983Y-108868016D01*
X95647072Y-107926243D02*
X95587503Y-108021046D01*
X100650000Y-107973000D02*
X99754984Y-108868016D01*
X102000000Y-107973000D02*
X100650000Y-107973000D01*
X97037988Y-108737988D02*
X96926727Y-108725451D01*
X96428903Y-107926243D02*
X96349732Y-107847072D01*
X96349732Y-107847072D02*
X96254929Y-107787503D01*
X94533600Y-108874047D02*
X94520657Y-108837059D01*
X96254929Y-107787503D02*
X96149248Y-107750524D01*
X94520657Y-108837059D02*
X94499808Y-108803878D01*
X96037988Y-107737988D02*
X95926727Y-107750524D01*
X95926727Y-107750524D02*
X95821046Y-107787503D01*
X95821046Y-107787503D02*
X95726243Y-107847072D01*
X95726243Y-107847072D02*
X95647072Y-107926243D01*
X95587503Y-108021046D02*
X95550524Y-108126727D01*
X95550524Y-108126727D02*
X95537988Y-108237988D01*
X95520657Y-108988918D02*
X95499808Y-109022099D01*
X95537988Y-108237988D02*
X95537988Y-108912988D01*
X95537988Y-108912988D02*
X95533600Y-108951930D01*
X95533600Y-108951930D02*
X95520657Y-108988918D01*
X92552000Y-104548000D02*
X92312000Y-104548000D01*
X94100000Y-103000000D02*
X92552000Y-104548000D01*
X95896000Y-103000000D02*
X94100000Y-103000000D01*
X97762941Y-103950485D02*
X97657260Y-103987464D01*
X97857744Y-103890916D02*
X97762941Y-103950485D01*
X97936915Y-103811745D02*
X97857744Y-103890916D01*
X97996484Y-103716942D02*
X97936915Y-103811745D01*
X95929378Y-102996239D02*
X95896000Y-103000000D01*
X98058536Y-102388739D02*
X98046000Y-102500000D01*
X98095515Y-102283058D02*
X98058536Y-102388739D01*
X98033463Y-103611261D02*
X97996484Y-103716942D01*
X98234255Y-102109084D02*
X98155084Y-102188255D01*
X98329058Y-102049515D02*
X98234255Y-102109084D01*
X98434739Y-102012536D02*
X98329058Y-102049515D01*
X98657260Y-102012536D02*
X98546000Y-102000000D01*
X98762941Y-102049515D02*
X98657260Y-102012536D01*
X99546000Y-103000000D02*
X99434739Y-102987463D01*
X98046000Y-103500000D02*
X98033463Y-103611261D01*
X96042239Y-102883378D02*
X96031145Y-102915082D01*
X99329058Y-102950484D02*
X99234255Y-102890915D01*
X99234255Y-102890915D02*
X99155084Y-102811744D01*
X98996484Y-102283058D02*
X98936915Y-102188255D01*
X99155084Y-102811744D02*
X99095515Y-102716941D01*
X95961082Y-102985145D02*
X95929378Y-102996239D01*
X99434739Y-102987463D02*
X99329058Y-102950484D01*
X99058536Y-102611260D02*
X99033463Y-102388739D01*
X98155084Y-102188255D02*
X98095515Y-102283058D01*
X99095515Y-102716941D02*
X99058536Y-102611260D01*
X98046000Y-102500000D02*
X98046000Y-103500000D01*
X99033463Y-102388739D02*
X98996484Y-102283058D01*
X102000000Y-101623000D02*
X100923000Y-101623000D01*
X95989523Y-102967274D02*
X95961082Y-102985145D01*
X100923000Y-101623000D02*
X99546000Y-103000000D01*
X96130917Y-102714854D02*
X96102476Y-102732725D01*
X98857744Y-102109084D02*
X98762941Y-102049515D01*
X96049760Y-102816621D02*
X96042239Y-102883378D01*
X98546000Y-102000000D02*
X98434739Y-102012536D01*
X98936915Y-102188255D02*
X98857744Y-102109084D01*
X97657260Y-103987464D02*
X97546000Y-104000000D01*
X97546000Y-104000000D02*
X97434739Y-103987464D01*
X97046000Y-102850000D02*
X97042239Y-102816621D01*
X97434739Y-103987464D02*
X97329058Y-103950485D01*
X97329058Y-103950485D02*
X97234255Y-103890916D01*
X97234255Y-103890916D02*
X97155084Y-103811745D01*
X97155084Y-103811745D02*
X97095515Y-103716942D01*
X97095515Y-103716942D02*
X97058536Y-103611261D01*
X96013274Y-102943523D02*
X95989523Y-102967274D01*
X97058536Y-103611261D02*
X97046000Y-103500000D01*
X97046000Y-103500000D02*
X97046000Y-102850000D01*
X97042239Y-102816621D02*
X97031145Y-102784917D01*
X97031145Y-102784917D02*
X97013274Y-102756476D01*
X97013274Y-102756476D02*
X96989523Y-102732725D01*
X96989523Y-102732725D02*
X96961082Y-102714854D01*
X96961082Y-102714854D02*
X96929378Y-102703760D01*
X96031145Y-102915082D02*
X96013274Y-102943523D01*
X96929378Y-102703760D02*
X96896000Y-102700000D01*
X96896000Y-102700000D02*
X96196000Y-102700000D01*
X96196000Y-102700000D02*
X96162621Y-102703760D01*
X96162621Y-102703760D02*
X96130917Y-102714854D01*
X96102476Y-102732725D02*
X96078725Y-102756476D01*
X96078725Y-102756476D02*
X96060854Y-102784917D01*
X96060854Y-102784917D02*
X96049760Y-102816621D01*
D23*
X167600000Y-101400000D02*
X165596628Y-103403372D01*
X165596628Y-103403372D02*
X164929085Y-103403372D01*
X164929085Y-103403372D02*
X164363400Y-103403372D01*
D24*
X164363400Y-105790398D02*
X164363400Y-103403372D01*
X172560400Y-113987398D02*
X164363400Y-105790398D01*
X172560400Y-115628200D02*
X172560400Y-113987398D01*
D23*
X166593000Y-102407000D02*
X167600000Y-101400000D01*
X164365000Y-102407000D02*
X166593000Y-102407000D01*
X167593000Y-101407000D02*
X167600000Y-101400000D01*
X164365000Y-101407000D02*
X167593000Y-101407000D01*
D28*
X176974907Y-92061425D02*
X176525425Y-92510907D01*
X176172270Y-93039442D01*
X175929012Y-93626719D01*
X175805000Y-94250168D01*
X175805000Y-94885832D01*
X175929012Y-95509281D01*
X176172270Y-96096558D01*
X176525425Y-96625093D01*
X176974907Y-97074575D01*
X177503442Y-97427730D01*
X178090719Y-97670988D01*
X178714168Y-97795000D01*
X179349832Y-97795000D01*
X179973281Y-97670988D01*
X180560558Y-97427730D01*
X181089093Y-97074575D01*
X181538575Y-96625093D01*
X181822000Y-96200916D01*
X181822000Y-98558713D01*
X181652269Y-98370412D01*
X181418920Y-98196359D01*
X181156099Y-98071175D01*
X181008890Y-98026524D01*
X180779000Y-98147845D01*
X180779000Y-99341000D01*
X180799000Y-99341000D01*
X180799000Y-99595000D01*
X180779000Y-99595000D01*
X180779000Y-100788155D01*
X181008890Y-100909476D01*
X181156099Y-100864825D01*
X181418920Y-100739641D01*
X181652269Y-100565588D01*
X181822000Y-100377287D01*
X181822000Y-102146100D01*
X181805475Y-102121368D01*
X181598632Y-101914525D01*
X181355411Y-101752010D01*
X181085158Y-101640068D01*
X180798260Y-101583000D01*
X180505740Y-101583000D01*
X180218842Y-101640068D01*
X179948589Y-101752010D01*
X179705368Y-101914525D01*
X179498525Y-102121368D01*
X179382000Y-102295760D01*
X179265475Y-102121368D01*
X179058632Y-101914525D01*
X178815411Y-101752010D01*
X178545158Y-101640068D01*
X178258260Y-101583000D01*
X177965740Y-101583000D01*
X177678842Y-101640068D01*
X177408589Y-101752010D01*
X177165368Y-101914525D01*
X176958525Y-102121368D01*
X176836805Y-102303534D01*
X176767178Y-102186645D01*
X176572269Y-101970412D01*
X176338920Y-101796359D01*
X176076099Y-101671175D01*
X175928890Y-101626524D01*
X175699000Y-101747845D01*
X175699000Y-102941000D01*
X175719000Y-102941000D01*
X175719000Y-103195000D01*
X175699000Y-103195000D01*
X175699000Y-104388155D01*
X175928890Y-104509476D01*
X176076099Y-104464825D01*
X176338920Y-104339641D01*
X176572269Y-104165588D01*
X176767178Y-103949355D01*
X176836805Y-103832466D01*
X176958525Y-104014632D01*
X177165368Y-104221475D01*
X177408589Y-104383990D01*
X177678842Y-104495932D01*
X177965740Y-104553000D01*
X178258260Y-104553000D01*
X178545158Y-104495932D01*
X178815411Y-104383990D01*
X179058632Y-104221475D01*
X179265475Y-104014632D01*
X179382000Y-103840240D01*
X179498525Y-104014632D01*
X179705368Y-104221475D01*
X179948589Y-104383990D01*
X180218842Y-104495932D01*
X180505740Y-104553000D01*
X180798260Y-104553000D01*
X181085158Y-104495932D01*
X181355411Y-104383990D01*
X181598632Y-104221475D01*
X181805475Y-104014632D01*
X181822000Y-103989900D01*
X181822001Y-115935085D01*
X181538575Y-115510907D01*
X181089093Y-115061425D01*
X180560558Y-114708270D01*
X179973281Y-114465012D01*
X179349832Y-114341000D01*
X178714168Y-114341000D01*
X178090719Y-114465012D01*
X177503442Y-114708270D01*
X176974907Y-115061425D01*
X176525425Y-115510907D01*
X176181845Y-116025112D01*
X176197472Y-115866450D01*
X176197472Y-115428950D01*
X176181008Y-115261792D01*
X176132250Y-115101058D01*
X176053071Y-114952925D01*
X175946515Y-114823085D01*
X175844400Y-114739282D01*
X175844400Y-110885125D01*
X175848076Y-110847800D01*
X175844400Y-110810475D01*
X175844400Y-110810467D01*
X175833403Y-110698814D01*
X175789946Y-110555553D01*
X175719374Y-110423524D01*
X175624401Y-110307799D01*
X175595403Y-110284001D01*
X174618600Y-109307199D01*
X174618600Y-109245061D01*
X174578826Y-109045102D01*
X174500805Y-108856744D01*
X174387537Y-108687226D01*
X174243374Y-108543063D01*
X174073856Y-108429795D01*
X173885498Y-108351774D01*
X173685539Y-108312000D01*
X173481661Y-108312000D01*
X173281702Y-108351774D01*
X173093344Y-108429795D01*
X172923826Y-108543063D01*
X172779663Y-108687226D01*
X172666395Y-108856744D01*
X172588374Y-109045102D01*
X172548600Y-109245061D01*
X172548600Y-109448939D01*
X172588374Y-109648898D01*
X172666395Y-109837256D01*
X172779663Y-110006774D01*
X172923826Y-110150937D01*
X173093344Y-110264205D01*
X173281702Y-110342226D01*
X173481661Y-110382000D01*
X173543799Y-110382000D01*
X174324401Y-111162603D01*
X174324400Y-114739282D01*
X174222285Y-114823085D01*
X174115729Y-114952925D01*
X174036550Y-115101058D01*
X173987792Y-115261792D01*
X173971328Y-115428950D01*
X173971328Y-115866450D01*
X173987792Y-116033608D01*
X174030562Y-116174601D01*
X173916939Y-116152000D01*
X173713061Y-116152000D01*
X173608894Y-116172720D01*
X173657008Y-116014108D01*
X173673472Y-115846950D01*
X173673472Y-115409450D01*
X173657008Y-115242292D01*
X173608250Y-115081558D01*
X173529071Y-114933425D01*
X173422515Y-114803585D01*
X173320400Y-114719782D01*
X173320400Y-114024731D01*
X173324077Y-113987398D01*
X173309403Y-113838412D01*
X173265946Y-113695151D01*
X173195374Y-113563122D01*
X173140027Y-113495682D01*
X173100401Y-113447397D01*
X173071403Y-113423599D01*
X166354167Y-106706363D01*
X178097000Y-106706363D01*
X178097000Y-106949637D01*
X178144460Y-107188236D01*
X178237557Y-107412992D01*
X178372713Y-107615267D01*
X178544733Y-107787287D01*
X178747008Y-107922443D01*
X178931580Y-107998895D01*
X178857099Y-108021489D01*
X178642551Y-108136167D01*
X178454498Y-108290498D01*
X178300167Y-108478552D01*
X178185489Y-108693100D01*
X178114870Y-108925899D01*
X178097000Y-109107336D01*
X178097000Y-109628665D01*
X178114870Y-109810102D01*
X178185489Y-110042901D01*
X178300168Y-110257449D01*
X178454499Y-110445502D01*
X178642552Y-110599833D01*
X178857100Y-110714511D01*
X179089899Y-110785130D01*
X179332000Y-110808975D01*
X179574102Y-110785130D01*
X179806901Y-110714511D01*
X180021449Y-110599833D01*
X180209502Y-110445502D01*
X180363833Y-110257449D01*
X180478511Y-110042900D01*
X180549130Y-109810101D01*
X180567000Y-109628664D01*
X180567000Y-109107335D01*
X180549130Y-108925898D01*
X180478511Y-108693099D01*
X180363833Y-108478551D01*
X180209502Y-108290498D01*
X180021448Y-108136167D01*
X179806900Y-108021489D01*
X179732419Y-107998895D01*
X179916992Y-107922443D01*
X180119267Y-107787287D01*
X180291287Y-107615267D01*
X180426443Y-107412992D01*
X180519540Y-107188236D01*
X180567000Y-106949637D01*
X180567000Y-106706363D01*
X180519540Y-106467764D01*
X180426443Y-106243008D01*
X180291287Y-106040733D01*
X180119267Y-105868713D01*
X179916992Y-105733557D01*
X179692236Y-105640460D01*
X179453637Y-105593000D01*
X179210363Y-105593000D01*
X178971764Y-105640460D01*
X178747008Y-105733557D01*
X178544733Y-105868713D01*
X178372713Y-106040733D01*
X178237557Y-106243008D01*
X178144460Y-106467764D01*
X178097000Y-106706363D01*
X166354167Y-106706363D01*
X165123400Y-105475597D01*
X165123400Y-104538372D01*
X165540877Y-104538372D01*
X165596628Y-104543863D01*
X165652379Y-104538372D01*
X165652380Y-104538372D01*
X165655426Y-104538072D01*
X170100000Y-104538072D01*
X170224482Y-104525812D01*
X170344180Y-104489502D01*
X170454494Y-104430537D01*
X170551185Y-104351185D01*
X170630537Y-104254494D01*
X170689502Y-104144180D01*
X170725812Y-104024482D01*
X170738072Y-103900000D01*
X170738072Y-98900000D01*
X170725812Y-98775518D01*
X170689502Y-98655820D01*
X170630537Y-98545506D01*
X170551185Y-98448815D01*
X170454494Y-98369463D01*
X170344180Y-98310498D01*
X170224482Y-98274188D01*
X170100000Y-98261928D01*
X165100000Y-98261928D01*
X164975518Y-98274188D01*
X164855820Y-98310498D01*
X164745506Y-98369463D01*
X164648815Y-98448815D01*
X164569463Y-98545506D01*
X164510498Y-98655820D01*
X164474188Y-98775518D01*
X164461928Y-98900000D01*
X164461928Y-100272000D01*
X164309248Y-100272000D01*
X164142501Y-100288423D01*
X163928553Y-100353324D01*
X163731377Y-100458716D01*
X163558551Y-100600551D01*
X163416716Y-100773377D01*
X163311324Y-100970553D01*
X163246423Y-101184501D01*
X163224509Y-101407000D01*
X163246423Y-101629499D01*
X163311324Y-101843447D01*
X163345294Y-101907000D01*
X163311324Y-101970553D01*
X163246423Y-102184501D01*
X163224509Y-102407000D01*
X163246423Y-102629499D01*
X163311324Y-102843447D01*
X163343524Y-102903689D01*
X163309724Y-102966925D01*
X163244823Y-103180873D01*
X163222909Y-103403372D01*
X163244823Y-103625871D01*
X163309724Y-103839819D01*
X163415116Y-104036995D01*
X163556951Y-104209821D01*
X163603401Y-104247941D01*
X163603400Y-105753075D01*
X163599724Y-105790398D01*
X163603400Y-105827720D01*
X163603400Y-105827730D01*
X163614397Y-105939383D01*
X163650130Y-106057180D01*
X163657854Y-106082644D01*
X163728426Y-106214674D01*
X163757095Y-106249607D01*
X163823399Y-106330399D01*
X163852403Y-106354202D01*
X171800401Y-114302201D01*
X171800401Y-114719782D01*
X171698285Y-114803585D01*
X171591729Y-114933425D01*
X171512550Y-115081558D01*
X171463792Y-115242292D01*
X171447328Y-115409450D01*
X171447328Y-115846950D01*
X171463792Y-116014108D01*
X171512550Y-116174842D01*
X171553730Y-116251883D01*
X171456898Y-116211774D01*
X171256939Y-116172000D01*
X171053061Y-116172000D01*
X170853102Y-116211774D01*
X170664744Y-116289795D01*
X170495226Y-116403063D01*
X170351063Y-116547226D01*
X170237795Y-116716744D01*
X170159774Y-116905102D01*
X170120000Y-117105061D01*
X170120000Y-117308939D01*
X170159774Y-117508898D01*
X170237795Y-117697256D01*
X170351063Y-117866774D01*
X170495226Y-118010937D01*
X170664744Y-118124205D01*
X170853102Y-118202226D01*
X171053061Y-118242000D01*
X171256939Y-118242000D01*
X171456898Y-118202226D01*
X171645256Y-118124205D01*
X171739228Y-118061415D01*
X171828125Y-118134371D01*
X171976258Y-118213550D01*
X172136992Y-118262308D01*
X172304150Y-118278772D01*
X172816650Y-118278772D01*
X172983808Y-118262308D01*
X173144542Y-118213550D01*
X173292675Y-118134371D01*
X173327860Y-118105496D01*
X173513102Y-118182226D01*
X173713061Y-118222000D01*
X173916939Y-118222000D01*
X174116898Y-118182226D01*
X174296185Y-118107962D01*
X174352125Y-118153871D01*
X174500258Y-118233050D01*
X174660992Y-118281808D01*
X174828150Y-118298272D01*
X175340650Y-118298272D01*
X175507808Y-118281808D01*
X175668542Y-118233050D01*
X175816675Y-118153871D01*
X175852473Y-118124493D01*
X175929012Y-118509281D01*
X176172270Y-119096558D01*
X176525425Y-119625093D01*
X176974907Y-120074575D01*
X177399083Y-120358000D01*
X163391748Y-120358000D01*
X163437130Y-120208397D01*
X163455000Y-120026960D01*
X163455000Y-119205631D01*
X163437130Y-119024194D01*
X163366511Y-118791395D01*
X163251833Y-118576847D01*
X163097502Y-118388794D01*
X162909448Y-118234463D01*
X162694900Y-118119785D01*
X162462101Y-118049166D01*
X162220000Y-118025321D01*
X161977898Y-118049166D01*
X161967965Y-118052179D01*
X162086949Y-117972677D01*
X162276381Y-117783245D01*
X162425216Y-117560497D01*
X162527736Y-117312993D01*
X162580000Y-117050244D01*
X162580000Y-116782348D01*
X162527736Y-116519599D01*
X162425216Y-116272095D01*
X162276381Y-116049347D01*
X162086949Y-115859915D01*
X161864201Y-115711080D01*
X161616697Y-115608560D01*
X161353948Y-115556296D01*
X161086052Y-115556296D01*
X160823303Y-115608560D01*
X160575799Y-115711080D01*
X160353051Y-115859915D01*
X160163619Y-116049347D01*
X160014784Y-116272095D01*
X159912264Y-116519599D01*
X159860000Y-116782348D01*
X159860000Y-117050244D01*
X159912264Y-117312993D01*
X160014784Y-117560497D01*
X160163619Y-117783245D01*
X160353051Y-117972677D01*
X160575799Y-118121512D01*
X160823303Y-118224032D01*
X161086052Y-118276296D01*
X161353948Y-118276296D01*
X161519768Y-118243312D01*
X161342498Y-118388794D01*
X161188167Y-118576848D01*
X161073489Y-118791396D01*
X161002870Y-119024195D01*
X160985000Y-119205632D01*
X160985000Y-120026961D01*
X161002870Y-120208398D01*
X161048251Y-120358000D01*
X156391749Y-120358000D01*
X156437130Y-120208398D01*
X156455000Y-120026961D01*
X156455000Y-119205632D01*
X156437130Y-119024195D01*
X156366511Y-118791395D01*
X156251833Y-118576847D01*
X156097502Y-118388794D01*
X155920232Y-118243312D01*
X156086052Y-118276296D01*
X156353948Y-118276296D01*
X156616697Y-118224032D01*
X156864201Y-118121512D01*
X157086949Y-117972677D01*
X157276381Y-117783245D01*
X157425216Y-117560497D01*
X157527736Y-117312993D01*
X157580000Y-117050244D01*
X157580000Y-116782348D01*
X157527736Y-116519599D01*
X157425216Y-116272095D01*
X157276381Y-116049347D01*
X157086949Y-115859915D01*
X156864201Y-115711080D01*
X156616697Y-115608560D01*
X156353948Y-115556296D01*
X156086052Y-115556296D01*
X155823303Y-115608560D01*
X155575799Y-115711080D01*
X155353051Y-115859915D01*
X155163619Y-116049347D01*
X155014784Y-116272095D01*
X154912264Y-116519599D01*
X154860000Y-116782348D01*
X154860000Y-117050244D01*
X154912264Y-117312993D01*
X155014784Y-117560497D01*
X155163619Y-117783245D01*
X155353051Y-117972677D01*
X155472035Y-118052179D01*
X155462102Y-118049166D01*
X155220000Y-118025321D01*
X154977899Y-118049166D01*
X154745100Y-118119785D01*
X154530552Y-118234463D01*
X154342499Y-118388794D01*
X154188168Y-118576847D01*
X154073489Y-118791395D01*
X154002870Y-119024194D01*
X153985000Y-119205631D01*
X153985000Y-120026960D01*
X154002870Y-120208397D01*
X154048252Y-120358000D01*
X122664917Y-120358000D01*
X123089093Y-120074575D01*
X123538575Y-119625093D01*
X123891730Y-119096558D01*
X124134988Y-118509281D01*
X124259000Y-117885832D01*
X124259000Y-117250168D01*
X124134988Y-116626719D01*
X123891730Y-116039442D01*
X123538575Y-115510907D01*
X123089093Y-115061425D01*
X122560558Y-114708270D01*
X121973281Y-114465012D01*
X121349832Y-114341000D01*
X120714168Y-114341000D01*
X120090719Y-114465012D01*
X119503442Y-114708270D01*
X118974907Y-115061425D01*
X118525425Y-115510907D01*
X118172270Y-116039442D01*
X117929012Y-116626719D01*
X117805000Y-117250168D01*
X117805000Y-117885832D01*
X117929012Y-118509281D01*
X118172270Y-119096558D01*
X118525425Y-119625093D01*
X118974907Y-120074575D01*
X119399083Y-120358000D01*
X115522077Y-120358000D01*
X115573355Y-120342445D01*
X115707874Y-120270543D01*
X115825780Y-120173780D01*
X115922543Y-120055874D01*
X115994445Y-119921355D01*
X116038722Y-119775394D01*
X116053672Y-119623600D01*
X116053672Y-119283600D01*
X116038722Y-119131806D01*
X115994445Y-118985845D01*
X115922543Y-118851326D01*
X115895600Y-118818496D01*
X115895600Y-117692229D01*
X115896385Y-117691585D01*
X115975737Y-117594894D01*
X116034702Y-117484580D01*
X116071012Y-117364882D01*
X116079511Y-117278585D01*
X116150847Y-117256946D01*
X116282876Y-117186374D01*
X116398601Y-117091401D01*
X116422404Y-117062397D01*
X118240004Y-115244798D01*
X118269001Y-115221001D01*
X118316623Y-115162974D01*
X118363974Y-115105277D01*
X118434546Y-114973247D01*
X118438012Y-114961820D01*
X118478003Y-114829986D01*
X118489000Y-114718333D01*
X118489000Y-114718324D01*
X118492676Y-114681001D01*
X118489000Y-114643678D01*
X118489000Y-114114711D01*
X118532937Y-114070774D01*
X118646205Y-113901256D01*
X118724226Y-113712898D01*
X118764000Y-113512939D01*
X118764000Y-113309061D01*
X118724226Y-113109102D01*
X118646205Y-112920744D01*
X118532937Y-112751226D01*
X118428711Y-112647000D01*
X119451817Y-112647000D01*
X119489139Y-112650676D01*
X119526461Y-112647000D01*
X119526472Y-112647000D01*
X119638125Y-112636003D01*
X119781386Y-112592546D01*
X119913415Y-112521974D01*
X120029140Y-112427001D01*
X120052943Y-112397998D01*
X121034003Y-111416938D01*
X121063001Y-111393140D01*
X121157974Y-111277415D01*
X121228546Y-111145386D01*
X121272003Y-111002125D01*
X121283000Y-110890472D01*
X121283000Y-110890463D01*
X121286676Y-110853140D01*
X121283000Y-110815817D01*
X121283000Y-110793260D01*
X121386261Y-110813800D01*
X121590139Y-110813800D01*
X121790098Y-110774026D01*
X121978456Y-110696005D01*
X122147974Y-110582737D01*
X122292137Y-110438574D01*
X122405405Y-110269056D01*
X122483426Y-110080698D01*
X122523200Y-109880739D01*
X122523200Y-109676861D01*
X122483426Y-109476902D01*
X122405405Y-109288544D01*
X122292137Y-109119026D01*
X122248200Y-109075089D01*
X122248200Y-107313411D01*
X122264601Y-107297010D01*
X122326739Y-107297010D01*
X122526698Y-107257236D01*
X122715056Y-107179215D01*
X122884574Y-107065947D01*
X123028737Y-106921784D01*
X123142005Y-106752266D01*
X123220026Y-106563908D01*
X123259800Y-106363949D01*
X123259800Y-106297000D01*
X148262426Y-106297000D01*
X153983524Y-112018099D01*
X153986570Y-112022522D01*
X154036373Y-112070948D01*
X154059051Y-112093626D01*
X154063185Y-112097019D01*
X154067007Y-112100735D01*
X154092018Y-112120681D01*
X154136324Y-112157042D01*
X154148336Y-112168084D01*
X154118851Y-112216503D01*
X154083926Y-112270395D01*
X154066112Y-112315169D01*
X154060102Y-112327649D01*
X154036194Y-112369511D01*
X154015843Y-112430398D01*
X153993800Y-112490667D01*
X153986394Y-112538291D01*
X153983306Y-112551821D01*
X153969321Y-112597920D01*
X153963027Y-112661807D01*
X153954945Y-112725508D01*
X153958321Y-112773571D01*
X153958321Y-112787438D01*
X153954944Y-112835526D01*
X153963026Y-112899204D01*
X153969315Y-112963069D01*
X153983307Y-113009198D01*
X153986394Y-113022721D01*
X153993796Y-113070325D01*
X154015850Y-113130628D01*
X154036205Y-113191521D01*
X154060098Y-113233354D01*
X154066113Y-113245845D01*
X154083933Y-113290632D01*
X154118846Y-113344504D01*
X154152223Y-113399316D01*
X154184839Y-113434800D01*
X154193498Y-113445659D01*
X154220830Y-113485346D01*
X154266851Y-113530093D01*
X154311604Y-113576119D01*
X154351292Y-113603451D01*
X154362139Y-113612101D01*
X154397613Y-113644708D01*
X154452438Y-113678094D01*
X154506318Y-113713012D01*
X154551092Y-113730826D01*
X154563582Y-113736841D01*
X154605431Y-113760742D01*
X154666315Y-113781092D01*
X154726601Y-113803141D01*
X154774226Y-113810548D01*
X154787743Y-113813633D01*
X154833872Y-113827625D01*
X154897752Y-113833916D01*
X154961427Y-113841996D01*
X155009507Y-113838619D01*
X155023372Y-113838619D01*
X155071435Y-113841995D01*
X155135123Y-113833914D01*
X155199021Y-113827619D01*
X155245129Y-113813632D01*
X155258640Y-113810548D01*
X155306268Y-113803141D01*
X155366544Y-113781095D01*
X155427431Y-113760745D01*
X155469287Y-113736840D01*
X155481772Y-113730828D01*
X155526544Y-113713015D01*
X155580416Y-113678103D01*
X155628858Y-113648604D01*
X155639889Y-113660605D01*
X155676223Y-113704878D01*
X155696201Y-113729929D01*
X155699928Y-113733762D01*
X155703315Y-113737889D01*
X155725953Y-113760527D01*
X155774414Y-113810366D01*
X155778840Y-113813414D01*
X157233437Y-115268012D01*
X157233437Y-115330149D01*
X157273211Y-115530108D01*
X157351232Y-115718466D01*
X157464500Y-115887984D01*
X157608663Y-116032147D01*
X157778181Y-116145415D01*
X157966539Y-116223436D01*
X158166498Y-116263210D01*
X158370376Y-116263210D01*
X158570335Y-116223436D01*
X158758693Y-116145415D01*
X158928211Y-116032147D01*
X159072374Y-115887984D01*
X159185642Y-115718466D01*
X159260311Y-115538200D01*
X159461539Y-115538200D01*
X159661498Y-115498426D01*
X159849856Y-115420405D01*
X160019374Y-115307137D01*
X160163537Y-115162974D01*
X160276805Y-114993456D01*
X160354826Y-114805098D01*
X160394600Y-114605139D01*
X160394600Y-114401261D01*
X160354826Y-114201302D01*
X160276805Y-114012944D01*
X160163537Y-113843426D01*
X160019374Y-113699263D01*
X159849856Y-113585995D01*
X159661498Y-113507974D01*
X159461539Y-113468200D01*
X159399402Y-113468200D01*
X150449204Y-104518003D01*
X150425401Y-104488999D01*
X150309676Y-104394026D01*
X150177647Y-104323454D01*
X150034386Y-104279997D01*
X149922733Y-104269000D01*
X149922722Y-104269000D01*
X149885400Y-104265324D01*
X149848078Y-104269000D01*
X130618632Y-104269000D01*
X130630537Y-104254494D01*
X130689502Y-104144180D01*
X130725812Y-104024482D01*
X130738072Y-103900000D01*
X130738072Y-101099999D01*
X148461928Y-101099999D01*
X148461928Y-101100001D01*
X148522225Y-101712208D01*
X148700800Y-102300889D01*
X148990788Y-102843420D01*
X149381048Y-103318953D01*
X149856581Y-103709213D01*
X150399112Y-103999201D01*
X150987793Y-104177776D01*
X151600000Y-104238073D01*
X155600000Y-104238073D01*
X156212207Y-104177776D01*
X156800888Y-103999201D01*
X157343419Y-103709213D01*
X157818952Y-103318953D01*
X158209212Y-102843420D01*
X158499200Y-102300889D01*
X158677775Y-101712208D01*
X158738072Y-101100001D01*
X158738072Y-101099999D01*
X158677775Y-100487792D01*
X158499200Y-99899111D01*
X158209212Y-99356580D01*
X157818952Y-98881047D01*
X157343419Y-98490787D01*
X156800888Y-98200799D01*
X156212207Y-98022224D01*
X155600000Y-97961927D01*
X151600000Y-97961927D01*
X150987793Y-98022224D01*
X150399112Y-98200799D01*
X149856581Y-98490787D01*
X149381048Y-98881047D01*
X148990788Y-99356580D01*
X148700800Y-99899111D01*
X148522225Y-100487792D01*
X148461928Y-101099999D01*
X130738072Y-101099999D01*
X130738072Y-98900000D01*
X130725812Y-98775518D01*
X130689502Y-98655820D01*
X130630537Y-98545506D01*
X130551185Y-98448815D01*
X130454494Y-98369463D01*
X130344180Y-98310498D01*
X130224482Y-98274188D01*
X130100000Y-98261928D01*
X125100000Y-98261928D01*
X124975518Y-98274188D01*
X124954380Y-98280600D01*
X123642248Y-98280600D01*
X123475501Y-98297023D01*
X123261553Y-98361924D01*
X123064377Y-98467316D01*
X122891551Y-98609151D01*
X122749716Y-98781977D01*
X122644324Y-98979153D01*
X122579423Y-99193101D01*
X122557509Y-99415600D01*
X122579423Y-99638099D01*
X122644324Y-99852047D01*
X122682570Y-99923600D01*
X122644324Y-99995153D01*
X122579423Y-100209101D01*
X122557509Y-100431600D01*
X122579423Y-100654099D01*
X122644324Y-100868047D01*
X122685525Y-100945130D01*
X122657024Y-100998453D01*
X122592123Y-101212401D01*
X122570209Y-101434900D01*
X122592123Y-101657399D01*
X122657024Y-101871347D01*
X122762416Y-102068523D01*
X122904251Y-102241349D01*
X123077077Y-102383184D01*
X123274253Y-102488576D01*
X123488201Y-102553477D01*
X123654948Y-102569900D01*
X124461928Y-102569900D01*
X124461928Y-103900000D01*
X124474188Y-104024482D01*
X124510498Y-104144180D01*
X124569463Y-104254494D01*
X124581368Y-104269000D01*
X117531898Y-104269000D01*
X117550726Y-104223545D01*
X117590500Y-104023586D01*
X117590500Y-103858600D01*
X119717689Y-103858600D01*
X119736226Y-103877137D01*
X119905744Y-103990405D01*
X120094102Y-104068426D01*
X120294061Y-104108200D01*
X120497939Y-104108200D01*
X120697898Y-104068426D01*
X120886256Y-103990405D01*
X121055774Y-103877137D01*
X121199937Y-103732974D01*
X121313205Y-103563456D01*
X121391226Y-103375098D01*
X121396801Y-103347068D01*
X121481434Y-103330234D01*
X121669792Y-103252213D01*
X121839310Y-103138945D01*
X121983473Y-102994782D01*
X122096741Y-102825264D01*
X122174762Y-102636906D01*
X122214536Y-102436947D01*
X122214536Y-102233069D01*
X122174762Y-102033110D01*
X122096741Y-101844752D01*
X121983473Y-101675234D01*
X121839310Y-101531071D01*
X121669792Y-101417803D01*
X121481434Y-101339782D01*
X121281475Y-101300008D01*
X121077597Y-101300008D01*
X120877638Y-101339782D01*
X120689280Y-101417803D01*
X120548305Y-101511999D01*
X119468123Y-101511999D01*
X119430800Y-101508323D01*
X119393477Y-101511999D01*
X119393468Y-101511999D01*
X119369822Y-101514328D01*
X119100400Y-101514328D01*
X118948606Y-101529278D01*
X118802645Y-101573555D01*
X118770400Y-101590790D01*
X118738155Y-101573555D01*
X118592194Y-101529278D01*
X118440400Y-101514328D01*
X118335648Y-101514328D01*
X121296976Y-98553001D01*
X122542679Y-98553001D01*
X122580001Y-98556677D01*
X122617323Y-98553001D01*
X122617334Y-98553001D01*
X122728987Y-98542004D01*
X122872248Y-98498547D01*
X123004277Y-98427975D01*
X123120002Y-98333002D01*
X123143805Y-98303998D01*
X124481003Y-96966800D01*
X124521463Y-97042494D01*
X124600815Y-97139185D01*
X124697506Y-97218537D01*
X124807820Y-97277502D01*
X124927518Y-97313812D01*
X125052000Y-97326072D01*
X126752000Y-97326072D01*
X126876482Y-97313812D01*
X126996180Y-97277502D01*
X127106494Y-97218537D01*
X127203185Y-97139185D01*
X127282537Y-97042494D01*
X127341502Y-96932180D01*
X127363513Y-96859620D01*
X127495368Y-96991475D01*
X127738589Y-97153990D01*
X128008842Y-97265932D01*
X128295740Y-97323000D01*
X128588260Y-97323000D01*
X128875158Y-97265932D01*
X129145411Y-97153990D01*
X129388632Y-96991475D01*
X129595475Y-96784632D01*
X129712000Y-96610240D01*
X129828525Y-96784632D01*
X130035368Y-96991475D01*
X130278589Y-97153990D01*
X130548842Y-97265932D01*
X130835740Y-97323000D01*
X131128260Y-97323000D01*
X131415158Y-97265932D01*
X131685411Y-97153990D01*
X131928632Y-96991475D01*
X132135475Y-96784632D01*
X132252000Y-96610240D01*
X132368525Y-96784632D01*
X132575368Y-96991475D01*
X132818589Y-97153990D01*
X133088842Y-97265932D01*
X133375740Y-97323000D01*
X133668260Y-97323000D01*
X133955158Y-97265932D01*
X134225411Y-97153990D01*
X134468632Y-96991475D01*
X134675475Y-96784632D01*
X134797195Y-96602466D01*
X134866822Y-96719355D01*
X135061731Y-96935588D01*
X135295080Y-97109641D01*
X135557901Y-97234825D01*
X135705110Y-97279476D01*
X135935000Y-97158155D01*
X135935000Y-95965000D01*
X135915000Y-95965000D01*
X135915000Y-95711000D01*
X135935000Y-95711000D01*
X135935000Y-95691000D01*
X136189000Y-95691000D01*
X136189000Y-95711000D01*
X136209000Y-95711000D01*
X136209000Y-95965000D01*
X136189000Y-95965000D01*
X136189000Y-97158155D01*
X136418890Y-97279476D01*
X136566099Y-97234825D01*
X136828920Y-97109641D01*
X137062269Y-96935588D01*
X137257178Y-96719355D01*
X137326805Y-96602466D01*
X137448525Y-96784632D01*
X137655368Y-96991475D01*
X137898589Y-97153990D01*
X138168842Y-97265932D01*
X138455740Y-97323000D01*
X138748260Y-97323000D01*
X139035158Y-97265932D01*
X139305411Y-97153990D01*
X139548632Y-96991475D01*
X139755475Y-96784632D01*
X139872000Y-96610240D01*
X139988525Y-96784632D01*
X140195368Y-96991475D01*
X140438589Y-97153990D01*
X140708842Y-97265932D01*
X140995740Y-97323000D01*
X141288260Y-97323000D01*
X141575158Y-97265932D01*
X141845411Y-97153990D01*
X142088632Y-96991475D01*
X142295475Y-96784632D01*
X142412000Y-96610240D01*
X142528525Y-96784632D01*
X142735368Y-96991475D01*
X142978589Y-97153990D01*
X143248842Y-97265932D01*
X143535740Y-97323000D01*
X143828260Y-97323000D01*
X144115158Y-97265932D01*
X144385411Y-97153990D01*
X144628632Y-96991475D01*
X144835475Y-96784632D01*
X144952000Y-96610240D01*
X145068525Y-96784632D01*
X145275368Y-96991475D01*
X145518589Y-97153990D01*
X145788842Y-97265932D01*
X146075740Y-97323000D01*
X146368260Y-97323000D01*
X146655158Y-97265932D01*
X146925411Y-97153990D01*
X147168632Y-96991475D01*
X147375475Y-96784632D01*
X147492000Y-96610240D01*
X147608525Y-96784632D01*
X147815368Y-96991475D01*
X148058589Y-97153990D01*
X148328842Y-97265932D01*
X148615740Y-97323000D01*
X148908260Y-97323000D01*
X149195158Y-97265932D01*
X149465411Y-97153990D01*
X149708632Y-96991475D01*
X149915475Y-96784632D01*
X150032000Y-96610240D01*
X150148525Y-96784632D01*
X150355368Y-96991475D01*
X150598589Y-97153990D01*
X150868842Y-97265932D01*
X151155740Y-97323000D01*
X151448260Y-97323000D01*
X151735158Y-97265932D01*
X152005411Y-97153990D01*
X152248632Y-96991475D01*
X152455475Y-96784632D01*
X152572000Y-96610240D01*
X152688525Y-96784632D01*
X152895368Y-96991475D01*
X153138589Y-97153990D01*
X153408842Y-97265932D01*
X153695740Y-97323000D01*
X153988260Y-97323000D01*
X154275158Y-97265932D01*
X154545411Y-97153990D01*
X154788632Y-96991475D01*
X154995475Y-96784632D01*
X155117195Y-96602466D01*
X155186822Y-96719355D01*
X155381731Y-96935588D01*
X155615080Y-97109641D01*
X155877901Y-97234825D01*
X156025110Y-97279476D01*
X156255000Y-97158155D01*
X156255000Y-95965000D01*
X156235000Y-95965000D01*
X156235000Y-95711000D01*
X156255000Y-95711000D01*
X156255000Y-95691000D01*
X156509000Y-95691000D01*
X156509000Y-95711000D01*
X156529000Y-95711000D01*
X156529000Y-95965000D01*
X156509000Y-95965000D01*
X156509000Y-97158155D01*
X156738890Y-97279476D01*
X156886099Y-97234825D01*
X157148920Y-97109641D01*
X157382269Y-96935588D01*
X157577178Y-96719355D01*
X157646805Y-96602466D01*
X157768525Y-96784632D01*
X157975368Y-96991475D01*
X158218589Y-97153990D01*
X158488842Y-97265932D01*
X158775740Y-97323000D01*
X159068260Y-97323000D01*
X159355158Y-97265932D01*
X159625411Y-97153990D01*
X159868632Y-96991475D01*
X160075475Y-96784632D01*
X160192000Y-96610240D01*
X160308525Y-96784632D01*
X160515368Y-96991475D01*
X160758589Y-97153990D01*
X161028842Y-97265932D01*
X161315740Y-97323000D01*
X161608260Y-97323000D01*
X161895158Y-97265932D01*
X162165411Y-97153990D01*
X162408632Y-96991475D01*
X162615475Y-96784632D01*
X162732000Y-96610240D01*
X162848525Y-96784632D01*
X163055368Y-96991475D01*
X163298589Y-97153990D01*
X163568842Y-97265932D01*
X163855740Y-97323000D01*
X164148260Y-97323000D01*
X164435158Y-97265932D01*
X164705411Y-97153990D01*
X164948632Y-96991475D01*
X165155475Y-96784632D01*
X165272000Y-96610240D01*
X165388525Y-96784632D01*
X165595368Y-96991475D01*
X165838589Y-97153990D01*
X166108842Y-97265932D01*
X166395740Y-97323000D01*
X166688260Y-97323000D01*
X166975158Y-97265932D01*
X167245411Y-97153990D01*
X167488632Y-96991475D01*
X167695475Y-96784632D01*
X167812000Y-96610240D01*
X167928525Y-96784632D01*
X168135368Y-96991475D01*
X168378589Y-97153990D01*
X168648842Y-97265932D01*
X168935740Y-97323000D01*
X169228260Y-97323000D01*
X169448408Y-97279209D01*
X170480200Y-98311002D01*
X170503999Y-98340001D01*
X170532997Y-98363799D01*
X170619723Y-98434974D01*
X170738375Y-98498395D01*
X170751753Y-98505546D01*
X170895014Y-98549003D01*
X171006667Y-98560000D01*
X171006677Y-98560000D01*
X171043999Y-98563676D01*
X171081322Y-98560000D01*
X171549640Y-98560000D01*
X171543928Y-98618000D01*
X171543928Y-100318000D01*
X171556188Y-100442482D01*
X171592498Y-100562180D01*
X171651463Y-100672494D01*
X171730815Y-100769185D01*
X171827506Y-100848537D01*
X171897001Y-100885683D01*
X171897000Y-101650317D01*
X171827506Y-101687463D01*
X171730815Y-101766815D01*
X171651463Y-101863506D01*
X171592498Y-101973820D01*
X171556188Y-102093518D01*
X171543928Y-102218000D01*
X171543928Y-103918000D01*
X171556188Y-104042482D01*
X171592498Y-104162180D01*
X171651463Y-104272494D01*
X171730815Y-104369185D01*
X171827506Y-104448537D01*
X171937820Y-104507502D01*
X172057518Y-104543812D01*
X172182000Y-104556072D01*
X173882000Y-104556072D01*
X174006482Y-104543812D01*
X174126180Y-104507502D01*
X174236494Y-104448537D01*
X174333185Y-104369185D01*
X174412537Y-104272494D01*
X174471502Y-104162180D01*
X174495966Y-104081534D01*
X174571731Y-104165588D01*
X174805080Y-104339641D01*
X175067901Y-104464825D01*
X175215110Y-104509476D01*
X175445000Y-104388155D01*
X175445000Y-103195000D01*
X175425000Y-103195000D01*
X175425000Y-102941000D01*
X175445000Y-102941000D01*
X175445000Y-101747845D01*
X175215110Y-101626524D01*
X175067901Y-101671175D01*
X174805080Y-101796359D01*
X174571731Y-101970412D01*
X174495966Y-102054466D01*
X174471502Y-101973820D01*
X174412537Y-101863506D01*
X174333185Y-101766815D01*
X174236494Y-101687463D01*
X174167000Y-101650317D01*
X174167000Y-100885683D01*
X174236494Y-100848537D01*
X174333185Y-100769185D01*
X174412537Y-100672494D01*
X174471502Y-100562180D01*
X174493513Y-100489620D01*
X174625368Y-100621475D01*
X174868589Y-100783990D01*
X175138842Y-100895932D01*
X175425740Y-100953000D01*
X175718260Y-100953000D01*
X176005158Y-100895932D01*
X176275411Y-100783990D01*
X176518632Y-100621475D01*
X176725475Y-100414632D01*
X176842000Y-100240240D01*
X176958525Y-100414632D01*
X177165368Y-100621475D01*
X177408589Y-100783990D01*
X177678842Y-100895932D01*
X177965740Y-100953000D01*
X178258260Y-100953000D01*
X178545158Y-100895932D01*
X178815411Y-100783990D01*
X179058632Y-100621475D01*
X179265475Y-100414632D01*
X179387195Y-100232466D01*
X179456822Y-100349355D01*
X179651731Y-100565588D01*
X179885080Y-100739641D01*
X180147901Y-100864825D01*
X180295110Y-100909476D01*
X180525000Y-100788155D01*
X180525000Y-99595000D01*
X180505000Y-99595000D01*
X180505000Y-99341000D01*
X180525000Y-99341000D01*
X180525000Y-98147845D01*
X180295110Y-98026524D01*
X180147901Y-98071175D01*
X179885080Y-98196359D01*
X179651731Y-98370412D01*
X179456822Y-98586645D01*
X179387195Y-98703534D01*
X179265475Y-98521368D01*
X179058632Y-98314525D01*
X178815411Y-98152010D01*
X178545158Y-98040068D01*
X178258260Y-97983000D01*
X177965740Y-97983000D01*
X177678842Y-98040068D01*
X177408589Y-98152010D01*
X177165368Y-98314525D01*
X176958525Y-98521368D01*
X176842000Y-98695760D01*
X176725475Y-98521368D01*
X176518632Y-98314525D01*
X176275411Y-98152010D01*
X176005158Y-98040068D01*
X175718260Y-97983000D01*
X175425740Y-97983000D01*
X175205592Y-98026791D01*
X174467804Y-97289003D01*
X174444001Y-97259999D01*
X174375576Y-97203844D01*
X174518890Y-97279476D01*
X174666099Y-97234825D01*
X174928920Y-97109641D01*
X175162269Y-96935588D01*
X175357178Y-96719355D01*
X175506157Y-96469252D01*
X175603481Y-96194891D01*
X175482814Y-95965000D01*
X174289000Y-95965000D01*
X174289000Y-95985000D01*
X174035000Y-95985000D01*
X174035000Y-95965000D01*
X174015000Y-95965000D01*
X174015000Y-95711000D01*
X174035000Y-95711000D01*
X174035000Y-95691000D01*
X174289000Y-95691000D01*
X174289000Y-95711000D01*
X175482814Y-95711000D01*
X175603481Y-95481109D01*
X175506157Y-95206748D01*
X175357178Y-94956645D01*
X175162269Y-94740412D01*
X174932594Y-94569100D01*
X175108632Y-94451475D01*
X175315475Y-94244632D01*
X175477990Y-94001411D01*
X175589932Y-93731158D01*
X175647000Y-93444260D01*
X175647000Y-93151740D01*
X175589932Y-92864842D01*
X175477990Y-92594589D01*
X175315475Y-92351368D01*
X175108632Y-92144525D01*
X174865411Y-91982010D01*
X174595158Y-91870068D01*
X174308260Y-91813000D01*
X174015740Y-91813000D01*
X173728842Y-91870068D01*
X173458589Y-91982010D01*
X173215368Y-92144525D01*
X173008525Y-92351368D01*
X172892000Y-92525760D01*
X172775475Y-92351368D01*
X172568632Y-92144525D01*
X172325411Y-91982010D01*
X172055158Y-91870068D01*
X171768260Y-91813000D01*
X171475740Y-91813000D01*
X171188842Y-91870068D01*
X170918589Y-91982010D01*
X170675368Y-92144525D01*
X170468525Y-92351368D01*
X170352000Y-92525760D01*
X170235475Y-92351368D01*
X170028632Y-92144525D01*
X169785411Y-91982010D01*
X169515158Y-91870068D01*
X169228260Y-91813000D01*
X168935740Y-91813000D01*
X168648842Y-91870068D01*
X168378589Y-91982010D01*
X168135368Y-92144525D01*
X167928525Y-92351368D01*
X167806805Y-92533534D01*
X167737178Y-92416645D01*
X167542269Y-92200412D01*
X167308920Y-92026359D01*
X167046099Y-91901175D01*
X166898890Y-91856524D01*
X166669000Y-91977845D01*
X166669000Y-93171000D01*
X166689000Y-93171000D01*
X166689000Y-93425000D01*
X166669000Y-93425000D01*
X166669000Y-93445000D01*
X166415000Y-93445000D01*
X166415000Y-93425000D01*
X166395000Y-93425000D01*
X166395000Y-93171000D01*
X166415000Y-93171000D01*
X166415000Y-91977845D01*
X166185110Y-91856524D01*
X166037901Y-91901175D01*
X165775080Y-92026359D01*
X165541731Y-92200412D01*
X165346822Y-92416645D01*
X165277195Y-92533534D01*
X165155475Y-92351368D01*
X164948632Y-92144525D01*
X164705411Y-91982010D01*
X164435158Y-91870068D01*
X164148260Y-91813000D01*
X163855740Y-91813000D01*
X163568842Y-91870068D01*
X163298589Y-91982010D01*
X163055368Y-92144525D01*
X162848525Y-92351368D01*
X162726805Y-92533534D01*
X162657178Y-92416645D01*
X162462269Y-92200412D01*
X162228920Y-92026359D01*
X161966099Y-91901175D01*
X161818890Y-91856524D01*
X161589000Y-91977845D01*
X161589000Y-93171000D01*
X161609000Y-93171000D01*
X161609000Y-93425000D01*
X161589000Y-93425000D01*
X161589000Y-93445000D01*
X161335000Y-93445000D01*
X161335000Y-93425000D01*
X161315000Y-93425000D01*
X161315000Y-93171000D01*
X161335000Y-93171000D01*
X161335000Y-91977845D01*
X161105110Y-91856524D01*
X160957901Y-91901175D01*
X160695080Y-92026359D01*
X160461731Y-92200412D01*
X160266822Y-92416645D01*
X160197195Y-92533534D01*
X160075475Y-92351368D01*
X159868632Y-92144525D01*
X159625411Y-91982010D01*
X159355158Y-91870068D01*
X159068260Y-91813000D01*
X158775740Y-91813000D01*
X158488842Y-91870068D01*
X158218589Y-91982010D01*
X157975368Y-92144525D01*
X157768525Y-92351368D01*
X157652000Y-92525760D01*
X157535475Y-92351368D01*
X157328632Y-92144525D01*
X157085411Y-91982010D01*
X156815158Y-91870068D01*
X156528260Y-91813000D01*
X156235740Y-91813000D01*
X155948842Y-91870068D01*
X155678589Y-91982010D01*
X155435368Y-92144525D01*
X155228525Y-92351368D01*
X155112000Y-92525760D01*
X154995475Y-92351368D01*
X154788632Y-92144525D01*
X154545411Y-91982010D01*
X154275158Y-91870068D01*
X153988260Y-91813000D01*
X153695740Y-91813000D01*
X153408842Y-91870068D01*
X153138589Y-91982010D01*
X152895368Y-92144525D01*
X152688525Y-92351368D01*
X152572000Y-92525760D01*
X152455475Y-92351368D01*
X152248632Y-92144525D01*
X152005411Y-91982010D01*
X151735158Y-91870068D01*
X151448260Y-91813000D01*
X151155740Y-91813000D01*
X150868842Y-91870068D01*
X150598589Y-91982010D01*
X150355368Y-92144525D01*
X150148525Y-92351368D01*
X150026805Y-92533534D01*
X149957178Y-92416645D01*
X149762269Y-92200412D01*
X149528920Y-92026359D01*
X149266099Y-91901175D01*
X149118890Y-91856524D01*
X148889000Y-91977845D01*
X148889000Y-93171000D01*
X148909000Y-93171000D01*
X148909000Y-93425000D01*
X148889000Y-93425000D01*
X148889000Y-93445000D01*
X148635000Y-93445000D01*
X148635000Y-93425000D01*
X148615000Y-93425000D01*
X148615000Y-93171000D01*
X148635000Y-93171000D01*
X148635000Y-91977845D01*
X148405110Y-91856524D01*
X148257901Y-91901175D01*
X147995080Y-92026359D01*
X147761731Y-92200412D01*
X147566822Y-92416645D01*
X147497195Y-92533534D01*
X147375475Y-92351368D01*
X147168632Y-92144525D01*
X146925411Y-91982010D01*
X146655158Y-91870068D01*
X146368260Y-91813000D01*
X146075740Y-91813000D01*
X145788842Y-91870068D01*
X145518589Y-91982010D01*
X145275368Y-92144525D01*
X145068525Y-92351368D01*
X144952000Y-92525760D01*
X144835475Y-92351368D01*
X144628632Y-92144525D01*
X144385411Y-91982010D01*
X144115158Y-91870068D01*
X143828260Y-91813000D01*
X143535740Y-91813000D01*
X143248842Y-91870068D01*
X142978589Y-91982010D01*
X142735368Y-92144525D01*
X142528525Y-92351368D01*
X142406805Y-92533534D01*
X142337178Y-92416645D01*
X142142269Y-92200412D01*
X141908920Y-92026359D01*
X141646099Y-91901175D01*
X141498890Y-91856524D01*
X141269000Y-91977845D01*
X141269000Y-93171000D01*
X141289000Y-93171000D01*
X141289000Y-93425000D01*
X141269000Y-93425000D01*
X141269000Y-93445000D01*
X141015000Y-93445000D01*
X141015000Y-93425000D01*
X140995000Y-93425000D01*
X140995000Y-93171000D01*
X141015000Y-93171000D01*
X141015000Y-91977845D01*
X140785110Y-91856524D01*
X140637901Y-91901175D01*
X140375080Y-92026359D01*
X140141731Y-92200412D01*
X139946822Y-92416645D01*
X139877195Y-92533534D01*
X139755475Y-92351368D01*
X139548632Y-92144525D01*
X139305411Y-91982010D01*
X139035158Y-91870068D01*
X138748260Y-91813000D01*
X138455740Y-91813000D01*
X138168842Y-91870068D01*
X137898589Y-91982010D01*
X137655368Y-92144525D01*
X137448525Y-92351368D01*
X137332000Y-92525760D01*
X137215475Y-92351368D01*
X137008632Y-92144525D01*
X136765411Y-91982010D01*
X136495158Y-91870068D01*
X136208260Y-91813000D01*
X135915740Y-91813000D01*
X135628842Y-91870068D01*
X135358589Y-91982010D01*
X135115368Y-92144525D01*
X134908525Y-92351368D01*
X134792000Y-92525760D01*
X134675475Y-92351368D01*
X134468632Y-92144525D01*
X134225411Y-91982010D01*
X133955158Y-91870068D01*
X133668260Y-91813000D01*
X133375740Y-91813000D01*
X133088842Y-91870068D01*
X132818589Y-91982010D01*
X132575368Y-92144525D01*
X132368525Y-92351368D01*
X132246805Y-92533534D01*
X132177178Y-92416645D01*
X131982269Y-92200412D01*
X131748920Y-92026359D01*
X131486099Y-91901175D01*
X131338890Y-91856524D01*
X131109000Y-91977845D01*
X131109000Y-93171000D01*
X131129000Y-93171000D01*
X131129000Y-93425000D01*
X131109000Y-93425000D01*
X131109000Y-93445000D01*
X130855000Y-93445000D01*
X130855000Y-93425000D01*
X130835000Y-93425000D01*
X130835000Y-93171000D01*
X130855000Y-93171000D01*
X130855000Y-91977845D01*
X130625110Y-91856524D01*
X130477901Y-91901175D01*
X130215080Y-92026359D01*
X129981731Y-92200412D01*
X129786822Y-92416645D01*
X129717195Y-92533534D01*
X129595475Y-92351368D01*
X129388632Y-92144525D01*
X129145411Y-91982010D01*
X128875158Y-91870068D01*
X128588260Y-91813000D01*
X128295740Y-91813000D01*
X128008842Y-91870068D01*
X127738589Y-91982010D01*
X127495368Y-92144525D01*
X127476893Y-92163000D01*
X126867107Y-92163000D01*
X126848632Y-92144525D01*
X126605411Y-91982010D01*
X126335158Y-91870068D01*
X126048260Y-91813000D01*
X125755740Y-91813000D01*
X125468842Y-91870068D01*
X125198589Y-91982010D01*
X124955368Y-92144525D01*
X124748525Y-92351368D01*
X124586010Y-92594589D01*
X124474068Y-92864842D01*
X124417000Y-93151740D01*
X124417000Y-93444260D01*
X124460791Y-93664408D01*
X124216002Y-93909197D01*
X124194660Y-93926712D01*
X124134988Y-93626719D01*
X123891730Y-93039442D01*
X123538575Y-92510907D01*
X123089093Y-92061425D01*
X122664917Y-91778000D01*
X177399083Y-91778000D01*
X176974907Y-92061425D01*
G04 #@! TA.AperFunction,Conductor*
D29*
G36*
X176974907Y-92061425D02*
G01*
X176525425Y-92510907D01*
X176172270Y-93039442D01*
X175929012Y-93626719D01*
X175805000Y-94250168D01*
X175805000Y-94885832D01*
X175929012Y-95509281D01*
X176172270Y-96096558D01*
X176525425Y-96625093D01*
X176974907Y-97074575D01*
X177503442Y-97427730D01*
X178090719Y-97670988D01*
X178714168Y-97795000D01*
X179349832Y-97795000D01*
X179973281Y-97670988D01*
X180560558Y-97427730D01*
X181089093Y-97074575D01*
X181538575Y-96625093D01*
X181822000Y-96200916D01*
X181822000Y-98558713D01*
X181652269Y-98370412D01*
X181418920Y-98196359D01*
X181156099Y-98071175D01*
X181008890Y-98026524D01*
X180779000Y-98147845D01*
X180779000Y-99341000D01*
X180799000Y-99341000D01*
X180799000Y-99595000D01*
X180779000Y-99595000D01*
X180779000Y-100788155D01*
X181008890Y-100909476D01*
X181156099Y-100864825D01*
X181418920Y-100739641D01*
X181652269Y-100565588D01*
X181822000Y-100377287D01*
X181822000Y-102146100D01*
X181805475Y-102121368D01*
X181598632Y-101914525D01*
X181355411Y-101752010D01*
X181085158Y-101640068D01*
X180798260Y-101583000D01*
X180505740Y-101583000D01*
X180218842Y-101640068D01*
X179948589Y-101752010D01*
X179705368Y-101914525D01*
X179498525Y-102121368D01*
X179382000Y-102295760D01*
X179265475Y-102121368D01*
X179058632Y-101914525D01*
X178815411Y-101752010D01*
X178545158Y-101640068D01*
X178258260Y-101583000D01*
X177965740Y-101583000D01*
X177678842Y-101640068D01*
X177408589Y-101752010D01*
X177165368Y-101914525D01*
X176958525Y-102121368D01*
X176836805Y-102303534D01*
X176767178Y-102186645D01*
X176572269Y-101970412D01*
X176338920Y-101796359D01*
X176076099Y-101671175D01*
X175928890Y-101626524D01*
X175699000Y-101747845D01*
X175699000Y-102941000D01*
X175719000Y-102941000D01*
X175719000Y-103195000D01*
X175699000Y-103195000D01*
X175699000Y-104388155D01*
X175928890Y-104509476D01*
X176076099Y-104464825D01*
X176338920Y-104339641D01*
X176572269Y-104165588D01*
X176767178Y-103949355D01*
X176836805Y-103832466D01*
X176958525Y-104014632D01*
X177165368Y-104221475D01*
X177408589Y-104383990D01*
X177678842Y-104495932D01*
X177965740Y-104553000D01*
X178258260Y-104553000D01*
X178545158Y-104495932D01*
X178815411Y-104383990D01*
X179058632Y-104221475D01*
X179265475Y-104014632D01*
X179382000Y-103840240D01*
X179498525Y-104014632D01*
X179705368Y-104221475D01*
X179948589Y-104383990D01*
X180218842Y-104495932D01*
X180505740Y-104553000D01*
X180798260Y-104553000D01*
X181085158Y-104495932D01*
X181355411Y-104383990D01*
X181598632Y-104221475D01*
X181805475Y-104014632D01*
X181822000Y-103989900D01*
X181822001Y-115935085D01*
X181538575Y-115510907D01*
X181089093Y-115061425D01*
X180560558Y-114708270D01*
X179973281Y-114465012D01*
X179349832Y-114341000D01*
X178714168Y-114341000D01*
X178090719Y-114465012D01*
X177503442Y-114708270D01*
X176974907Y-115061425D01*
X176525425Y-115510907D01*
X176181845Y-116025112D01*
X176197472Y-115866450D01*
X176197472Y-115428950D01*
X176181008Y-115261792D01*
X176132250Y-115101058D01*
X176053071Y-114952925D01*
X175946515Y-114823085D01*
X175844400Y-114739282D01*
X175844400Y-110885125D01*
X175848076Y-110847800D01*
X175844400Y-110810475D01*
X175844400Y-110810467D01*
X175833403Y-110698814D01*
X175789946Y-110555553D01*
X175719374Y-110423524D01*
X175624401Y-110307799D01*
X175595403Y-110284001D01*
X174618600Y-109307199D01*
X174618600Y-109245061D01*
X174578826Y-109045102D01*
X174500805Y-108856744D01*
X174387537Y-108687226D01*
X174243374Y-108543063D01*
X174073856Y-108429795D01*
X173885498Y-108351774D01*
X173685539Y-108312000D01*
X173481661Y-108312000D01*
X173281702Y-108351774D01*
X173093344Y-108429795D01*
X172923826Y-108543063D01*
X172779663Y-108687226D01*
X172666395Y-108856744D01*
X172588374Y-109045102D01*
X172548600Y-109245061D01*
X172548600Y-109448939D01*
X172588374Y-109648898D01*
X172666395Y-109837256D01*
X172779663Y-110006774D01*
X172923826Y-110150937D01*
X173093344Y-110264205D01*
X173281702Y-110342226D01*
X173481661Y-110382000D01*
X173543799Y-110382000D01*
X174324401Y-111162603D01*
X174324400Y-114739282D01*
X174222285Y-114823085D01*
X174115729Y-114952925D01*
X174036550Y-115101058D01*
X173987792Y-115261792D01*
X173971328Y-115428950D01*
X173971328Y-115866450D01*
X173987792Y-116033608D01*
X174030562Y-116174601D01*
X173916939Y-116152000D01*
X173713061Y-116152000D01*
X173608894Y-116172720D01*
X173657008Y-116014108D01*
X173673472Y-115846950D01*
X173673472Y-115409450D01*
X173657008Y-115242292D01*
X173608250Y-115081558D01*
X173529071Y-114933425D01*
X173422515Y-114803585D01*
X173320400Y-114719782D01*
X173320400Y-114024731D01*
X173324077Y-113987398D01*
X173309403Y-113838412D01*
X173265946Y-113695151D01*
X173195374Y-113563122D01*
X173140027Y-113495682D01*
X173100401Y-113447397D01*
X173071403Y-113423599D01*
X166354167Y-106706363D01*
X178097000Y-106706363D01*
X178097000Y-106949637D01*
X178144460Y-107188236D01*
X178237557Y-107412992D01*
X178372713Y-107615267D01*
X178544733Y-107787287D01*
X178747008Y-107922443D01*
X178931580Y-107998895D01*
X178857099Y-108021489D01*
X178642551Y-108136167D01*
X178454498Y-108290498D01*
X178300167Y-108478552D01*
X178185489Y-108693100D01*
X178114870Y-108925899D01*
X178097000Y-109107336D01*
X178097000Y-109628665D01*
X178114870Y-109810102D01*
X178185489Y-110042901D01*
X178300168Y-110257449D01*
X178454499Y-110445502D01*
X178642552Y-110599833D01*
X178857100Y-110714511D01*
X179089899Y-110785130D01*
X179332000Y-110808975D01*
X179574102Y-110785130D01*
X179806901Y-110714511D01*
X180021449Y-110599833D01*
X180209502Y-110445502D01*
X180363833Y-110257449D01*
X180478511Y-110042900D01*
X180549130Y-109810101D01*
X180567000Y-109628664D01*
X180567000Y-109107335D01*
X180549130Y-108925898D01*
X180478511Y-108693099D01*
X180363833Y-108478551D01*
X180209502Y-108290498D01*
X180021448Y-108136167D01*
X179806900Y-108021489D01*
X179732419Y-107998895D01*
X179916992Y-107922443D01*
X180119267Y-107787287D01*
X180291287Y-107615267D01*
X180426443Y-107412992D01*
X180519540Y-107188236D01*
X180567000Y-106949637D01*
X180567000Y-106706363D01*
X180519540Y-106467764D01*
X180426443Y-106243008D01*
X180291287Y-106040733D01*
X180119267Y-105868713D01*
X179916992Y-105733557D01*
X179692236Y-105640460D01*
X179453637Y-105593000D01*
X179210363Y-105593000D01*
X178971764Y-105640460D01*
X178747008Y-105733557D01*
X178544733Y-105868713D01*
X178372713Y-106040733D01*
X178237557Y-106243008D01*
X178144460Y-106467764D01*
X178097000Y-106706363D01*
X166354167Y-106706363D01*
X165123400Y-105475597D01*
X165123400Y-104538372D01*
X165540877Y-104538372D01*
X165596628Y-104543863D01*
X165652379Y-104538372D01*
X165652380Y-104538372D01*
X165655426Y-104538072D01*
X170100000Y-104538072D01*
X170224482Y-104525812D01*
X170344180Y-104489502D01*
X170454494Y-104430537D01*
X170551185Y-104351185D01*
X170630537Y-104254494D01*
X170689502Y-104144180D01*
X170725812Y-104024482D01*
X170738072Y-103900000D01*
X170738072Y-98900000D01*
X170725812Y-98775518D01*
X170689502Y-98655820D01*
X170630537Y-98545506D01*
X170551185Y-98448815D01*
X170454494Y-98369463D01*
X170344180Y-98310498D01*
X170224482Y-98274188D01*
X170100000Y-98261928D01*
X165100000Y-98261928D01*
X164975518Y-98274188D01*
X164855820Y-98310498D01*
X164745506Y-98369463D01*
X164648815Y-98448815D01*
X164569463Y-98545506D01*
X164510498Y-98655820D01*
X164474188Y-98775518D01*
X164461928Y-98900000D01*
X164461928Y-100272000D01*
X164309248Y-100272000D01*
X164142501Y-100288423D01*
X163928553Y-100353324D01*
X163731377Y-100458716D01*
X163558551Y-100600551D01*
X163416716Y-100773377D01*
X163311324Y-100970553D01*
X163246423Y-101184501D01*
X163224509Y-101407000D01*
X163246423Y-101629499D01*
X163311324Y-101843447D01*
X163345294Y-101907000D01*
X163311324Y-101970553D01*
X163246423Y-102184501D01*
X163224509Y-102407000D01*
X163246423Y-102629499D01*
X163311324Y-102843447D01*
X163343524Y-102903689D01*
X163309724Y-102966925D01*
X163244823Y-103180873D01*
X163222909Y-103403372D01*
X163244823Y-103625871D01*
X163309724Y-103839819D01*
X163415116Y-104036995D01*
X163556951Y-104209821D01*
X163603401Y-104247941D01*
X163603400Y-105753075D01*
X163599724Y-105790398D01*
X163603400Y-105827720D01*
X163603400Y-105827730D01*
X163614397Y-105939383D01*
X163650130Y-106057180D01*
X163657854Y-106082644D01*
X163728426Y-106214674D01*
X163757095Y-106249607D01*
X163823399Y-106330399D01*
X163852403Y-106354202D01*
X171800401Y-114302201D01*
X171800401Y-114719782D01*
X171698285Y-114803585D01*
X171591729Y-114933425D01*
X171512550Y-115081558D01*
X171463792Y-115242292D01*
X171447328Y-115409450D01*
X171447328Y-115846950D01*
X171463792Y-116014108D01*
X171512550Y-116174842D01*
X171553730Y-116251883D01*
X171456898Y-116211774D01*
X171256939Y-116172000D01*
X171053061Y-116172000D01*
X170853102Y-116211774D01*
X170664744Y-116289795D01*
X170495226Y-116403063D01*
X170351063Y-116547226D01*
X170237795Y-116716744D01*
X170159774Y-116905102D01*
X170120000Y-117105061D01*
X170120000Y-117308939D01*
X170159774Y-117508898D01*
X170237795Y-117697256D01*
X170351063Y-117866774D01*
X170495226Y-118010937D01*
X170664744Y-118124205D01*
X170853102Y-118202226D01*
X171053061Y-118242000D01*
X171256939Y-118242000D01*
X171456898Y-118202226D01*
X171645256Y-118124205D01*
X171739228Y-118061415D01*
X171828125Y-118134371D01*
X171976258Y-118213550D01*
X172136992Y-118262308D01*
X172304150Y-118278772D01*
X172816650Y-118278772D01*
X172983808Y-118262308D01*
X173144542Y-118213550D01*
X173292675Y-118134371D01*
X173327860Y-118105496D01*
X173513102Y-118182226D01*
X173713061Y-118222000D01*
X173916939Y-118222000D01*
X174116898Y-118182226D01*
X174296185Y-118107962D01*
X174352125Y-118153871D01*
X174500258Y-118233050D01*
X174660992Y-118281808D01*
X174828150Y-118298272D01*
X175340650Y-118298272D01*
X175507808Y-118281808D01*
X175668542Y-118233050D01*
X175816675Y-118153871D01*
X175852473Y-118124493D01*
X175929012Y-118509281D01*
X176172270Y-119096558D01*
X176525425Y-119625093D01*
X176974907Y-120074575D01*
X177399083Y-120358000D01*
X163391748Y-120358000D01*
X163437130Y-120208397D01*
X163455000Y-120026960D01*
X163455000Y-119205631D01*
X163437130Y-119024194D01*
X163366511Y-118791395D01*
X163251833Y-118576847D01*
X163097502Y-118388794D01*
X162909448Y-118234463D01*
X162694900Y-118119785D01*
X162462101Y-118049166D01*
X162220000Y-118025321D01*
X161977898Y-118049166D01*
X161967965Y-118052179D01*
X162086949Y-117972677D01*
X162276381Y-117783245D01*
X162425216Y-117560497D01*
X162527736Y-117312993D01*
X162580000Y-117050244D01*
X162580000Y-116782348D01*
X162527736Y-116519599D01*
X162425216Y-116272095D01*
X162276381Y-116049347D01*
X162086949Y-115859915D01*
X161864201Y-115711080D01*
X161616697Y-115608560D01*
X161353948Y-115556296D01*
X161086052Y-115556296D01*
X160823303Y-115608560D01*
X160575799Y-115711080D01*
X160353051Y-115859915D01*
X160163619Y-116049347D01*
X160014784Y-116272095D01*
X159912264Y-116519599D01*
X159860000Y-116782348D01*
X159860000Y-117050244D01*
X159912264Y-117312993D01*
X160014784Y-117560497D01*
X160163619Y-117783245D01*
X160353051Y-117972677D01*
X160575799Y-118121512D01*
X160823303Y-118224032D01*
X161086052Y-118276296D01*
X161353948Y-118276296D01*
X161519768Y-118243312D01*
X161342498Y-118388794D01*
X161188167Y-118576848D01*
X161073489Y-118791396D01*
X161002870Y-119024195D01*
X160985000Y-119205632D01*
X160985000Y-120026961D01*
X161002870Y-120208398D01*
X161048251Y-120358000D01*
X156391749Y-120358000D01*
X156437130Y-120208398D01*
X156455000Y-120026961D01*
X156455000Y-119205632D01*
X156437130Y-119024195D01*
X156366511Y-118791395D01*
X156251833Y-118576847D01*
X156097502Y-118388794D01*
X155920232Y-118243312D01*
X156086052Y-118276296D01*
X156353948Y-118276296D01*
X156616697Y-118224032D01*
X156864201Y-118121512D01*
X157086949Y-117972677D01*
X157276381Y-117783245D01*
X157425216Y-117560497D01*
X157527736Y-117312993D01*
X157580000Y-117050244D01*
X157580000Y-116782348D01*
X157527736Y-116519599D01*
X157425216Y-116272095D01*
X157276381Y-116049347D01*
X157086949Y-115859915D01*
X156864201Y-115711080D01*
X156616697Y-115608560D01*
X156353948Y-115556296D01*
X156086052Y-115556296D01*
X155823303Y-115608560D01*
X155575799Y-115711080D01*
X155353051Y-115859915D01*
X155163619Y-116049347D01*
X155014784Y-116272095D01*
X154912264Y-116519599D01*
X154860000Y-116782348D01*
X154860000Y-117050244D01*
X154912264Y-117312993D01*
X155014784Y-117560497D01*
X155163619Y-117783245D01*
X155353051Y-117972677D01*
X155472035Y-118052179D01*
X155462102Y-118049166D01*
X155220000Y-118025321D01*
X154977899Y-118049166D01*
X154745100Y-118119785D01*
X154530552Y-118234463D01*
X154342499Y-118388794D01*
X154188168Y-118576847D01*
X154073489Y-118791395D01*
X154002870Y-119024194D01*
X153985000Y-119205631D01*
X153985000Y-120026960D01*
X154002870Y-120208397D01*
X154048252Y-120358000D01*
X122664917Y-120358000D01*
X123089093Y-120074575D01*
X123538575Y-119625093D01*
X123891730Y-119096558D01*
X124134988Y-118509281D01*
X124259000Y-117885832D01*
X124259000Y-117250168D01*
X124134988Y-116626719D01*
X123891730Y-116039442D01*
X123538575Y-115510907D01*
X123089093Y-115061425D01*
X122560558Y-114708270D01*
X121973281Y-114465012D01*
X121349832Y-114341000D01*
X120714168Y-114341000D01*
X120090719Y-114465012D01*
X119503442Y-114708270D01*
X118974907Y-115061425D01*
X118525425Y-115510907D01*
X118172270Y-116039442D01*
X117929012Y-116626719D01*
X117805000Y-117250168D01*
X117805000Y-117885832D01*
X117929012Y-118509281D01*
X118172270Y-119096558D01*
X118525425Y-119625093D01*
X118974907Y-120074575D01*
X119399083Y-120358000D01*
X115522077Y-120358000D01*
X115573355Y-120342445D01*
X115707874Y-120270543D01*
X115825780Y-120173780D01*
X115922543Y-120055874D01*
X115994445Y-119921355D01*
X116038722Y-119775394D01*
X116053672Y-119623600D01*
X116053672Y-119283600D01*
X116038722Y-119131806D01*
X115994445Y-118985845D01*
X115922543Y-118851326D01*
X115895600Y-118818496D01*
X115895600Y-117692229D01*
X115896385Y-117691585D01*
X115975737Y-117594894D01*
X116034702Y-117484580D01*
X116071012Y-117364882D01*
X116079511Y-117278585D01*
X116150847Y-117256946D01*
X116282876Y-117186374D01*
X116398601Y-117091401D01*
X116422404Y-117062397D01*
X118240004Y-115244798D01*
X118269001Y-115221001D01*
X118316623Y-115162974D01*
X118363974Y-115105277D01*
X118434546Y-114973247D01*
X118438012Y-114961820D01*
X118478003Y-114829986D01*
X118489000Y-114718333D01*
X118489000Y-114718324D01*
X118492676Y-114681001D01*
X118489000Y-114643678D01*
X118489000Y-114114711D01*
X118532937Y-114070774D01*
X118646205Y-113901256D01*
X118724226Y-113712898D01*
X118764000Y-113512939D01*
X118764000Y-113309061D01*
X118724226Y-113109102D01*
X118646205Y-112920744D01*
X118532937Y-112751226D01*
X118428711Y-112647000D01*
X119451817Y-112647000D01*
X119489139Y-112650676D01*
X119526461Y-112647000D01*
X119526472Y-112647000D01*
X119638125Y-112636003D01*
X119781386Y-112592546D01*
X119913415Y-112521974D01*
X120029140Y-112427001D01*
X120052943Y-112397998D01*
X121034003Y-111416938D01*
X121063001Y-111393140D01*
X121157974Y-111277415D01*
X121228546Y-111145386D01*
X121272003Y-111002125D01*
X121283000Y-110890472D01*
X121283000Y-110890463D01*
X121286676Y-110853140D01*
X121283000Y-110815817D01*
X121283000Y-110793260D01*
X121386261Y-110813800D01*
X121590139Y-110813800D01*
X121790098Y-110774026D01*
X121978456Y-110696005D01*
X122147974Y-110582737D01*
X122292137Y-110438574D01*
X122405405Y-110269056D01*
X122483426Y-110080698D01*
X122523200Y-109880739D01*
X122523200Y-109676861D01*
X122483426Y-109476902D01*
X122405405Y-109288544D01*
X122292137Y-109119026D01*
X122248200Y-109075089D01*
X122248200Y-107313411D01*
X122264601Y-107297010D01*
X122326739Y-107297010D01*
X122526698Y-107257236D01*
X122715056Y-107179215D01*
X122884574Y-107065947D01*
X123028737Y-106921784D01*
X123142005Y-106752266D01*
X123220026Y-106563908D01*
X123259800Y-106363949D01*
X123259800Y-106297000D01*
X148262426Y-106297000D01*
X153983524Y-112018099D01*
X153986570Y-112022522D01*
X154036373Y-112070948D01*
X154059051Y-112093626D01*
X154063185Y-112097019D01*
X154067007Y-112100735D01*
X154092018Y-112120681D01*
X154136324Y-112157042D01*
X154148336Y-112168084D01*
X154118851Y-112216503D01*
X154083926Y-112270395D01*
X154066112Y-112315169D01*
X154060102Y-112327649D01*
X154036194Y-112369511D01*
X154015843Y-112430398D01*
X153993800Y-112490667D01*
X153986394Y-112538291D01*
X153983306Y-112551821D01*
X153969321Y-112597920D01*
X153963027Y-112661807D01*
X153954945Y-112725508D01*
X153958321Y-112773571D01*
X153958321Y-112787438D01*
X153954944Y-112835526D01*
X153963026Y-112899204D01*
X153969315Y-112963069D01*
X153983307Y-113009198D01*
X153986394Y-113022721D01*
X153993796Y-113070325D01*
X154015850Y-113130628D01*
X154036205Y-113191521D01*
X154060098Y-113233354D01*
X154066113Y-113245845D01*
X154083933Y-113290632D01*
X154118846Y-113344504D01*
X154152223Y-113399316D01*
X154184839Y-113434800D01*
X154193498Y-113445659D01*
X154220830Y-113485346D01*
X154266851Y-113530093D01*
X154311604Y-113576119D01*
X154351292Y-113603451D01*
X154362139Y-113612101D01*
X154397613Y-113644708D01*
X154452438Y-113678094D01*
X154506318Y-113713012D01*
X154551092Y-113730826D01*
X154563582Y-113736841D01*
X154605431Y-113760742D01*
X154666315Y-113781092D01*
X154726601Y-113803141D01*
X154774226Y-113810548D01*
X154787743Y-113813633D01*
X154833872Y-113827625D01*
X154897752Y-113833916D01*
X154961427Y-113841996D01*
X155009507Y-113838619D01*
X155023372Y-113838619D01*
X155071435Y-113841995D01*
X155135123Y-113833914D01*
X155199021Y-113827619D01*
X155245129Y-113813632D01*
X155258640Y-113810548D01*
X155306268Y-113803141D01*
X155366544Y-113781095D01*
X155427431Y-113760745D01*
X155469287Y-113736840D01*
X155481772Y-113730828D01*
X155526544Y-113713015D01*
X155580416Y-113678103D01*
X155628858Y-113648604D01*
X155639889Y-113660605D01*
X155676223Y-113704878D01*
X155696201Y-113729929D01*
X155699928Y-113733762D01*
X155703315Y-113737889D01*
X155725953Y-113760527D01*
X155774414Y-113810366D01*
X155778840Y-113813414D01*
X157233437Y-115268012D01*
X157233437Y-115330149D01*
X157273211Y-115530108D01*
X157351232Y-115718466D01*
X157464500Y-115887984D01*
X157608663Y-116032147D01*
X157778181Y-116145415D01*
X157966539Y-116223436D01*
X158166498Y-116263210D01*
X158370376Y-116263210D01*
X158570335Y-116223436D01*
X158758693Y-116145415D01*
X158928211Y-116032147D01*
X159072374Y-115887984D01*
X159185642Y-115718466D01*
X159260311Y-115538200D01*
X159461539Y-115538200D01*
X159661498Y-115498426D01*
X159849856Y-115420405D01*
X160019374Y-115307137D01*
X160163537Y-115162974D01*
X160276805Y-114993456D01*
X160354826Y-114805098D01*
X160394600Y-114605139D01*
X160394600Y-114401261D01*
X160354826Y-114201302D01*
X160276805Y-114012944D01*
X160163537Y-113843426D01*
X160019374Y-113699263D01*
X159849856Y-113585995D01*
X159661498Y-113507974D01*
X159461539Y-113468200D01*
X159399402Y-113468200D01*
X150449204Y-104518003D01*
X150425401Y-104488999D01*
X150309676Y-104394026D01*
X150177647Y-104323454D01*
X150034386Y-104279997D01*
X149922733Y-104269000D01*
X149922722Y-104269000D01*
X149885400Y-104265324D01*
X149848078Y-104269000D01*
X130618632Y-104269000D01*
X130630537Y-104254494D01*
X130689502Y-104144180D01*
X130725812Y-104024482D01*
X130738072Y-103900000D01*
X130738072Y-101099999D01*
X148461928Y-101099999D01*
X148461928Y-101100001D01*
X148522225Y-101712208D01*
X148700800Y-102300889D01*
X148990788Y-102843420D01*
X149381048Y-103318953D01*
X149856581Y-103709213D01*
X150399112Y-103999201D01*
X150987793Y-104177776D01*
X151600000Y-104238073D01*
X155600000Y-104238073D01*
X156212207Y-104177776D01*
X156800888Y-103999201D01*
X157343419Y-103709213D01*
X157818952Y-103318953D01*
X158209212Y-102843420D01*
X158499200Y-102300889D01*
X158677775Y-101712208D01*
X158738072Y-101100001D01*
X158738072Y-101099999D01*
X158677775Y-100487792D01*
X158499200Y-99899111D01*
X158209212Y-99356580D01*
X157818952Y-98881047D01*
X157343419Y-98490787D01*
X156800888Y-98200799D01*
X156212207Y-98022224D01*
X155600000Y-97961927D01*
X151600000Y-97961927D01*
X150987793Y-98022224D01*
X150399112Y-98200799D01*
X149856581Y-98490787D01*
X149381048Y-98881047D01*
X148990788Y-99356580D01*
X148700800Y-99899111D01*
X148522225Y-100487792D01*
X148461928Y-101099999D01*
X130738072Y-101099999D01*
X130738072Y-98900000D01*
X130725812Y-98775518D01*
X130689502Y-98655820D01*
X130630537Y-98545506D01*
X130551185Y-98448815D01*
X130454494Y-98369463D01*
X130344180Y-98310498D01*
X130224482Y-98274188D01*
X130100000Y-98261928D01*
X125100000Y-98261928D01*
X124975518Y-98274188D01*
X124954380Y-98280600D01*
X123642248Y-98280600D01*
X123475501Y-98297023D01*
X123261553Y-98361924D01*
X123064377Y-98467316D01*
X122891551Y-98609151D01*
X122749716Y-98781977D01*
X122644324Y-98979153D01*
X122579423Y-99193101D01*
X122557509Y-99415600D01*
X122579423Y-99638099D01*
X122644324Y-99852047D01*
X122682570Y-99923600D01*
X122644324Y-99995153D01*
X122579423Y-100209101D01*
X122557509Y-100431600D01*
X122579423Y-100654099D01*
X122644324Y-100868047D01*
X122685525Y-100945130D01*
X122657024Y-100998453D01*
X122592123Y-101212401D01*
X122570209Y-101434900D01*
X122592123Y-101657399D01*
X122657024Y-101871347D01*
X122762416Y-102068523D01*
X122904251Y-102241349D01*
X123077077Y-102383184D01*
X123274253Y-102488576D01*
X123488201Y-102553477D01*
X123654948Y-102569900D01*
X124461928Y-102569900D01*
X124461928Y-103900000D01*
X124474188Y-104024482D01*
X124510498Y-104144180D01*
X124569463Y-104254494D01*
X124581368Y-104269000D01*
X117531898Y-104269000D01*
X117550726Y-104223545D01*
X117590500Y-104023586D01*
X117590500Y-103858600D01*
X119717689Y-103858600D01*
X119736226Y-103877137D01*
X119905744Y-103990405D01*
X120094102Y-104068426D01*
X120294061Y-104108200D01*
X120497939Y-104108200D01*
X120697898Y-104068426D01*
X120886256Y-103990405D01*
X121055774Y-103877137D01*
X121199937Y-103732974D01*
X121313205Y-103563456D01*
X121391226Y-103375098D01*
X121396801Y-103347068D01*
X121481434Y-103330234D01*
X121669792Y-103252213D01*
X121839310Y-103138945D01*
X121983473Y-102994782D01*
X122096741Y-102825264D01*
X122174762Y-102636906D01*
X122214536Y-102436947D01*
X122214536Y-102233069D01*
X122174762Y-102033110D01*
X122096741Y-101844752D01*
X121983473Y-101675234D01*
X121839310Y-101531071D01*
X121669792Y-101417803D01*
X121481434Y-101339782D01*
X121281475Y-101300008D01*
X121077597Y-101300008D01*
X120877638Y-101339782D01*
X120689280Y-101417803D01*
X120548305Y-101511999D01*
X119468123Y-101511999D01*
X119430800Y-101508323D01*
X119393477Y-101511999D01*
X119393468Y-101511999D01*
X119369822Y-101514328D01*
X119100400Y-101514328D01*
X118948606Y-101529278D01*
X118802645Y-101573555D01*
X118770400Y-101590790D01*
X118738155Y-101573555D01*
X118592194Y-101529278D01*
X118440400Y-101514328D01*
X118335648Y-101514328D01*
X121296976Y-98553001D01*
X122542679Y-98553001D01*
X122580001Y-98556677D01*
X122617323Y-98553001D01*
X122617334Y-98553001D01*
X122728987Y-98542004D01*
X122872248Y-98498547D01*
X123004277Y-98427975D01*
X123120002Y-98333002D01*
X123143805Y-98303998D01*
X124481003Y-96966800D01*
X124521463Y-97042494D01*
X124600815Y-97139185D01*
X124697506Y-97218537D01*
X124807820Y-97277502D01*
X124927518Y-97313812D01*
X125052000Y-97326072D01*
X126752000Y-97326072D01*
X126876482Y-97313812D01*
X126996180Y-97277502D01*
X127106494Y-97218537D01*
X127203185Y-97139185D01*
X127282537Y-97042494D01*
X127341502Y-96932180D01*
X127363513Y-96859620D01*
X127495368Y-96991475D01*
X127738589Y-97153990D01*
X128008842Y-97265932D01*
X128295740Y-97323000D01*
X128588260Y-97323000D01*
X128875158Y-97265932D01*
X129145411Y-97153990D01*
X129388632Y-96991475D01*
X129595475Y-96784632D01*
X129712000Y-96610240D01*
X129828525Y-96784632D01*
X130035368Y-96991475D01*
X130278589Y-97153990D01*
X130548842Y-97265932D01*
X130835740Y-97323000D01*
X131128260Y-97323000D01*
X131415158Y-97265932D01*
X131685411Y-97153990D01*
X131928632Y-96991475D01*
X132135475Y-96784632D01*
X132252000Y-96610240D01*
X132368525Y-96784632D01*
X132575368Y-96991475D01*
X132818589Y-97153990D01*
X133088842Y-97265932D01*
X133375740Y-97323000D01*
X133668260Y-97323000D01*
X133955158Y-97265932D01*
X134225411Y-97153990D01*
X134468632Y-96991475D01*
X134675475Y-96784632D01*
X134797195Y-96602466D01*
X134866822Y-96719355D01*
X135061731Y-96935588D01*
X135295080Y-97109641D01*
X135557901Y-97234825D01*
X135705110Y-97279476D01*
X135935000Y-97158155D01*
X135935000Y-95965000D01*
X135915000Y-95965000D01*
X135915000Y-95711000D01*
X135935000Y-95711000D01*
X135935000Y-95691000D01*
X136189000Y-95691000D01*
X136189000Y-95711000D01*
X136209000Y-95711000D01*
X136209000Y-95965000D01*
X136189000Y-95965000D01*
X136189000Y-97158155D01*
X136418890Y-97279476D01*
X136566099Y-97234825D01*
X136828920Y-97109641D01*
X137062269Y-96935588D01*
X137257178Y-96719355D01*
X137326805Y-96602466D01*
X137448525Y-96784632D01*
X137655368Y-96991475D01*
X137898589Y-97153990D01*
X138168842Y-97265932D01*
X138455740Y-97323000D01*
X138748260Y-97323000D01*
X139035158Y-97265932D01*
X139305411Y-97153990D01*
X139548632Y-96991475D01*
X139755475Y-96784632D01*
X139872000Y-96610240D01*
X139988525Y-96784632D01*
X140195368Y-96991475D01*
X140438589Y-97153990D01*
X140708842Y-97265932D01*
X140995740Y-97323000D01*
X141288260Y-97323000D01*
X141575158Y-97265932D01*
X141845411Y-97153990D01*
X142088632Y-96991475D01*
X142295475Y-96784632D01*
X142412000Y-96610240D01*
X142528525Y-96784632D01*
X142735368Y-96991475D01*
X142978589Y-97153990D01*
X143248842Y-97265932D01*
X143535740Y-97323000D01*
X143828260Y-97323000D01*
X144115158Y-97265932D01*
X144385411Y-97153990D01*
X144628632Y-96991475D01*
X144835475Y-96784632D01*
X144952000Y-96610240D01*
X145068525Y-96784632D01*
X145275368Y-96991475D01*
X145518589Y-97153990D01*
X145788842Y-97265932D01*
X146075740Y-97323000D01*
X146368260Y-97323000D01*
X146655158Y-97265932D01*
X146925411Y-97153990D01*
X147168632Y-96991475D01*
X147375475Y-96784632D01*
X147492000Y-96610240D01*
X147608525Y-96784632D01*
X147815368Y-96991475D01*
X148058589Y-97153990D01*
X148328842Y-97265932D01*
X148615740Y-97323000D01*
X148908260Y-97323000D01*
X149195158Y-97265932D01*
X149465411Y-97153990D01*
X149708632Y-96991475D01*
X149915475Y-96784632D01*
X150032000Y-96610240D01*
X150148525Y-96784632D01*
X150355368Y-96991475D01*
X150598589Y-97153990D01*
X150868842Y-97265932D01*
X151155740Y-97323000D01*
X151448260Y-97323000D01*
X151735158Y-97265932D01*
X152005411Y-97153990D01*
X152248632Y-96991475D01*
X152455475Y-96784632D01*
X152572000Y-96610240D01*
X152688525Y-96784632D01*
X152895368Y-96991475D01*
X153138589Y-97153990D01*
X153408842Y-97265932D01*
X153695740Y-97323000D01*
X153988260Y-97323000D01*
X154275158Y-97265932D01*
X154545411Y-97153990D01*
X154788632Y-96991475D01*
X154995475Y-96784632D01*
X155117195Y-96602466D01*
X155186822Y-96719355D01*
X155381731Y-96935588D01*
X155615080Y-97109641D01*
X155877901Y-97234825D01*
X156025110Y-97279476D01*
X156255000Y-97158155D01*
X156255000Y-95965000D01*
X156235000Y-95965000D01*
X156235000Y-95711000D01*
X156255000Y-95711000D01*
X156255000Y-95691000D01*
X156509000Y-95691000D01*
X156509000Y-95711000D01*
X156529000Y-95711000D01*
X156529000Y-95965000D01*
X156509000Y-95965000D01*
X156509000Y-97158155D01*
X156738890Y-97279476D01*
X156886099Y-97234825D01*
X157148920Y-97109641D01*
X157382269Y-96935588D01*
X157577178Y-96719355D01*
X157646805Y-96602466D01*
X157768525Y-96784632D01*
X157975368Y-96991475D01*
X158218589Y-97153990D01*
X158488842Y-97265932D01*
X158775740Y-97323000D01*
X159068260Y-97323000D01*
X159355158Y-97265932D01*
X159625411Y-97153990D01*
X159868632Y-96991475D01*
X160075475Y-96784632D01*
X160192000Y-96610240D01*
X160308525Y-96784632D01*
X160515368Y-96991475D01*
X160758589Y-97153990D01*
X161028842Y-97265932D01*
X161315740Y-97323000D01*
X161608260Y-97323000D01*
X161895158Y-97265932D01*
X162165411Y-97153990D01*
X162408632Y-96991475D01*
X162615475Y-96784632D01*
X162732000Y-96610240D01*
X162848525Y-96784632D01*
X163055368Y-96991475D01*
X163298589Y-97153990D01*
X163568842Y-97265932D01*
X163855740Y-97323000D01*
X164148260Y-97323000D01*
X164435158Y-97265932D01*
X164705411Y-97153990D01*
X164948632Y-96991475D01*
X165155475Y-96784632D01*
X165272000Y-96610240D01*
X165388525Y-96784632D01*
X165595368Y-96991475D01*
X165838589Y-97153990D01*
X166108842Y-97265932D01*
X166395740Y-97323000D01*
X166688260Y-97323000D01*
X166975158Y-97265932D01*
X167245411Y-97153990D01*
X167488632Y-96991475D01*
X167695475Y-96784632D01*
X167812000Y-96610240D01*
X167928525Y-96784632D01*
X168135368Y-96991475D01*
X168378589Y-97153990D01*
X168648842Y-97265932D01*
X168935740Y-97323000D01*
X169228260Y-97323000D01*
X169448408Y-97279209D01*
X170480200Y-98311002D01*
X170503999Y-98340001D01*
X170532997Y-98363799D01*
X170619723Y-98434974D01*
X170738375Y-98498395D01*
X170751753Y-98505546D01*
X170895014Y-98549003D01*
X171006667Y-98560000D01*
X171006677Y-98560000D01*
X171043999Y-98563676D01*
X171081322Y-98560000D01*
X171549640Y-98560000D01*
X171543928Y-98618000D01*
X171543928Y-100318000D01*
X171556188Y-100442482D01*
X171592498Y-100562180D01*
X171651463Y-100672494D01*
X171730815Y-100769185D01*
X171827506Y-100848537D01*
X171897001Y-100885683D01*
X171897000Y-101650317D01*
X171827506Y-101687463D01*
X171730815Y-101766815D01*
X171651463Y-101863506D01*
X171592498Y-101973820D01*
X171556188Y-102093518D01*
X171543928Y-102218000D01*
X171543928Y-103918000D01*
X171556188Y-104042482D01*
X171592498Y-104162180D01*
X171651463Y-104272494D01*
X171730815Y-104369185D01*
X171827506Y-104448537D01*
X171937820Y-104507502D01*
X172057518Y-104543812D01*
X172182000Y-104556072D01*
X173882000Y-104556072D01*
X174006482Y-104543812D01*
X174126180Y-104507502D01*
X174236494Y-104448537D01*
X174333185Y-104369185D01*
X174412537Y-104272494D01*
X174471502Y-104162180D01*
X174495966Y-104081534D01*
X174571731Y-104165588D01*
X174805080Y-104339641D01*
X175067901Y-104464825D01*
X175215110Y-104509476D01*
X175445000Y-104388155D01*
X175445000Y-103195000D01*
X175425000Y-103195000D01*
X175425000Y-102941000D01*
X175445000Y-102941000D01*
X175445000Y-101747845D01*
X175215110Y-101626524D01*
X175067901Y-101671175D01*
X174805080Y-101796359D01*
X174571731Y-101970412D01*
X174495966Y-102054466D01*
X174471502Y-101973820D01*
X174412537Y-101863506D01*
X174333185Y-101766815D01*
X174236494Y-101687463D01*
X174167000Y-101650317D01*
X174167000Y-100885683D01*
X174236494Y-100848537D01*
X174333185Y-100769185D01*
X174412537Y-100672494D01*
X174471502Y-100562180D01*
X174493513Y-100489620D01*
X174625368Y-100621475D01*
X174868589Y-100783990D01*
X175138842Y-100895932D01*
X175425740Y-100953000D01*
X175718260Y-100953000D01*
X176005158Y-100895932D01*
X176275411Y-100783990D01*
X176518632Y-100621475D01*
X176725475Y-100414632D01*
X176842000Y-100240240D01*
X176958525Y-100414632D01*
X177165368Y-100621475D01*
X177408589Y-100783990D01*
X177678842Y-100895932D01*
X177965740Y-100953000D01*
X178258260Y-100953000D01*
X178545158Y-100895932D01*
X178815411Y-100783990D01*
X179058632Y-100621475D01*
X179265475Y-100414632D01*
X179387195Y-100232466D01*
X179456822Y-100349355D01*
X179651731Y-100565588D01*
X179885080Y-100739641D01*
X180147901Y-100864825D01*
X180295110Y-100909476D01*
X180525000Y-100788155D01*
X180525000Y-99595000D01*
X180505000Y-99595000D01*
X180505000Y-99341000D01*
X180525000Y-99341000D01*
X180525000Y-98147845D01*
X180295110Y-98026524D01*
X180147901Y-98071175D01*
X179885080Y-98196359D01*
X179651731Y-98370412D01*
X179456822Y-98586645D01*
X179387195Y-98703534D01*
X179265475Y-98521368D01*
X179058632Y-98314525D01*
X178815411Y-98152010D01*
X178545158Y-98040068D01*
X178258260Y-97983000D01*
X177965740Y-97983000D01*
X177678842Y-98040068D01*
X177408589Y-98152010D01*
X177165368Y-98314525D01*
X176958525Y-98521368D01*
X176842000Y-98695760D01*
X176725475Y-98521368D01*
X176518632Y-98314525D01*
X176275411Y-98152010D01*
X176005158Y-98040068D01*
X175718260Y-97983000D01*
X175425740Y-97983000D01*
X175205592Y-98026791D01*
X174467804Y-97289003D01*
X174444001Y-97259999D01*
X174375576Y-97203844D01*
X174518890Y-97279476D01*
X174666099Y-97234825D01*
X174928920Y-97109641D01*
X175162269Y-96935588D01*
X175357178Y-96719355D01*
X175506157Y-96469252D01*
X175603481Y-96194891D01*
X175482814Y-95965000D01*
X174289000Y-95965000D01*
X174289000Y-95985000D01*
X174035000Y-95985000D01*
X174035000Y-95965000D01*
X174015000Y-95965000D01*
X174015000Y-95711000D01*
X174035000Y-95711000D01*
X174035000Y-95691000D01*
X174289000Y-95691000D01*
X174289000Y-95711000D01*
X175482814Y-95711000D01*
X175603481Y-95481109D01*
X175506157Y-95206748D01*
X175357178Y-94956645D01*
X175162269Y-94740412D01*
X174932594Y-94569100D01*
X175108632Y-94451475D01*
X175315475Y-94244632D01*
X175477990Y-94001411D01*
X175589932Y-93731158D01*
X175647000Y-93444260D01*
X175647000Y-93151740D01*
X175589932Y-92864842D01*
X175477990Y-92594589D01*
X175315475Y-92351368D01*
X175108632Y-92144525D01*
X174865411Y-91982010D01*
X174595158Y-91870068D01*
X174308260Y-91813000D01*
X174015740Y-91813000D01*
X173728842Y-91870068D01*
X173458589Y-91982010D01*
X173215368Y-92144525D01*
X173008525Y-92351368D01*
X172892000Y-92525760D01*
X172775475Y-92351368D01*
X172568632Y-92144525D01*
X172325411Y-91982010D01*
X172055158Y-91870068D01*
X171768260Y-91813000D01*
X171475740Y-91813000D01*
X171188842Y-91870068D01*
X170918589Y-91982010D01*
X170675368Y-92144525D01*
X170468525Y-92351368D01*
X170352000Y-92525760D01*
X170235475Y-92351368D01*
X170028632Y-92144525D01*
X169785411Y-91982010D01*
X169515158Y-91870068D01*
X169228260Y-91813000D01*
X168935740Y-91813000D01*
X168648842Y-91870068D01*
X168378589Y-91982010D01*
X168135368Y-92144525D01*
X167928525Y-92351368D01*
X167806805Y-92533534D01*
X167737178Y-92416645D01*
X167542269Y-92200412D01*
X167308920Y-92026359D01*
X167046099Y-91901175D01*
X166898890Y-91856524D01*
X166669000Y-91977845D01*
X166669000Y-93171000D01*
X166689000Y-93171000D01*
X166689000Y-93425000D01*
X166669000Y-93425000D01*
X166669000Y-93445000D01*
X166415000Y-93445000D01*
X166415000Y-93425000D01*
X166395000Y-93425000D01*
X166395000Y-93171000D01*
X166415000Y-93171000D01*
X166415000Y-91977845D01*
X166185110Y-91856524D01*
X166037901Y-91901175D01*
X165775080Y-92026359D01*
X165541731Y-92200412D01*
X165346822Y-92416645D01*
X165277195Y-92533534D01*
X165155475Y-92351368D01*
X164948632Y-92144525D01*
X164705411Y-91982010D01*
X164435158Y-91870068D01*
X164148260Y-91813000D01*
X163855740Y-91813000D01*
X163568842Y-91870068D01*
X163298589Y-91982010D01*
X163055368Y-92144525D01*
X162848525Y-92351368D01*
X162726805Y-92533534D01*
X162657178Y-92416645D01*
X162462269Y-92200412D01*
X162228920Y-92026359D01*
X161966099Y-91901175D01*
X161818890Y-91856524D01*
X161589000Y-91977845D01*
X161589000Y-93171000D01*
X161609000Y-93171000D01*
X161609000Y-93425000D01*
X161589000Y-93425000D01*
X161589000Y-93445000D01*
X161335000Y-93445000D01*
X161335000Y-93425000D01*
X161315000Y-93425000D01*
X161315000Y-93171000D01*
X161335000Y-93171000D01*
X161335000Y-91977845D01*
X161105110Y-91856524D01*
X160957901Y-91901175D01*
X160695080Y-92026359D01*
X160461731Y-92200412D01*
X160266822Y-92416645D01*
X160197195Y-92533534D01*
X160075475Y-92351368D01*
X159868632Y-92144525D01*
X159625411Y-91982010D01*
X159355158Y-91870068D01*
X159068260Y-91813000D01*
X158775740Y-91813000D01*
X158488842Y-91870068D01*
X158218589Y-91982010D01*
X157975368Y-92144525D01*
X157768525Y-92351368D01*
X157652000Y-92525760D01*
X157535475Y-92351368D01*
X157328632Y-92144525D01*
X157085411Y-91982010D01*
X156815158Y-91870068D01*
X156528260Y-91813000D01*
X156235740Y-91813000D01*
X155948842Y-91870068D01*
X155678589Y-91982010D01*
X155435368Y-92144525D01*
X155228525Y-92351368D01*
X155112000Y-92525760D01*
X154995475Y-92351368D01*
X154788632Y-92144525D01*
X154545411Y-91982010D01*
X154275158Y-91870068D01*
X153988260Y-91813000D01*
X153695740Y-91813000D01*
X153408842Y-91870068D01*
X153138589Y-91982010D01*
X152895368Y-92144525D01*
X152688525Y-92351368D01*
X152572000Y-92525760D01*
X152455475Y-92351368D01*
X152248632Y-92144525D01*
X152005411Y-91982010D01*
X151735158Y-91870068D01*
X151448260Y-91813000D01*
X151155740Y-91813000D01*
X150868842Y-91870068D01*
X150598589Y-91982010D01*
X150355368Y-92144525D01*
X150148525Y-92351368D01*
X150026805Y-92533534D01*
X149957178Y-92416645D01*
X149762269Y-92200412D01*
X149528920Y-92026359D01*
X149266099Y-91901175D01*
X149118890Y-91856524D01*
X148889000Y-91977845D01*
X148889000Y-93171000D01*
X148909000Y-93171000D01*
X148909000Y-93425000D01*
X148889000Y-93425000D01*
X148889000Y-93445000D01*
X148635000Y-93445000D01*
X148635000Y-93425000D01*
X148615000Y-93425000D01*
X148615000Y-93171000D01*
X148635000Y-93171000D01*
X148635000Y-91977845D01*
X148405110Y-91856524D01*
X148257901Y-91901175D01*
X147995080Y-92026359D01*
X147761731Y-92200412D01*
X147566822Y-92416645D01*
X147497195Y-92533534D01*
X147375475Y-92351368D01*
X147168632Y-92144525D01*
X146925411Y-91982010D01*
X146655158Y-91870068D01*
X146368260Y-91813000D01*
X146075740Y-91813000D01*
X145788842Y-91870068D01*
X145518589Y-91982010D01*
X145275368Y-92144525D01*
X145068525Y-92351368D01*
X144952000Y-92525760D01*
X144835475Y-92351368D01*
X144628632Y-92144525D01*
X144385411Y-91982010D01*
X144115158Y-91870068D01*
X143828260Y-91813000D01*
X143535740Y-91813000D01*
X143248842Y-91870068D01*
X142978589Y-91982010D01*
X142735368Y-92144525D01*
X142528525Y-92351368D01*
X142406805Y-92533534D01*
X142337178Y-92416645D01*
X142142269Y-92200412D01*
X141908920Y-92026359D01*
X141646099Y-91901175D01*
X141498890Y-91856524D01*
X141269000Y-91977845D01*
X141269000Y-93171000D01*
X141289000Y-93171000D01*
X141289000Y-93425000D01*
X141269000Y-93425000D01*
X141269000Y-93445000D01*
X141015000Y-93445000D01*
X141015000Y-93425000D01*
X140995000Y-93425000D01*
X140995000Y-93171000D01*
X141015000Y-93171000D01*
X141015000Y-91977845D01*
X140785110Y-91856524D01*
X140637901Y-91901175D01*
X140375080Y-92026359D01*
X140141731Y-92200412D01*
X139946822Y-92416645D01*
X139877195Y-92533534D01*
X139755475Y-92351368D01*
X139548632Y-92144525D01*
X139305411Y-91982010D01*
X139035158Y-91870068D01*
X138748260Y-91813000D01*
X138455740Y-91813000D01*
X138168842Y-91870068D01*
X137898589Y-91982010D01*
X137655368Y-92144525D01*
X137448525Y-92351368D01*
X137332000Y-92525760D01*
X137215475Y-92351368D01*
X137008632Y-92144525D01*
X136765411Y-91982010D01*
X136495158Y-91870068D01*
X136208260Y-91813000D01*
X135915740Y-91813000D01*
X135628842Y-91870068D01*
X135358589Y-91982010D01*
X135115368Y-92144525D01*
X134908525Y-92351368D01*
X134792000Y-92525760D01*
X134675475Y-92351368D01*
X134468632Y-92144525D01*
X134225411Y-91982010D01*
X133955158Y-91870068D01*
X133668260Y-91813000D01*
X133375740Y-91813000D01*
X133088842Y-91870068D01*
X132818589Y-91982010D01*
X132575368Y-92144525D01*
X132368525Y-92351368D01*
X132246805Y-92533534D01*
X132177178Y-92416645D01*
X131982269Y-92200412D01*
X131748920Y-92026359D01*
X131486099Y-91901175D01*
X131338890Y-91856524D01*
X131109000Y-91977845D01*
X131109000Y-93171000D01*
X131129000Y-93171000D01*
X131129000Y-93425000D01*
X131109000Y-93425000D01*
X131109000Y-93445000D01*
X130855000Y-93445000D01*
X130855000Y-93425000D01*
X130835000Y-93425000D01*
X130835000Y-93171000D01*
X130855000Y-93171000D01*
X130855000Y-91977845D01*
X130625110Y-91856524D01*
X130477901Y-91901175D01*
X130215080Y-92026359D01*
X129981731Y-92200412D01*
X129786822Y-92416645D01*
X129717195Y-92533534D01*
X129595475Y-92351368D01*
X129388632Y-92144525D01*
X129145411Y-91982010D01*
X128875158Y-91870068D01*
X128588260Y-91813000D01*
X128295740Y-91813000D01*
X128008842Y-91870068D01*
X127738589Y-91982010D01*
X127495368Y-92144525D01*
X127476893Y-92163000D01*
X126867107Y-92163000D01*
X126848632Y-92144525D01*
X126605411Y-91982010D01*
X126335158Y-91870068D01*
X126048260Y-91813000D01*
X125755740Y-91813000D01*
X125468842Y-91870068D01*
X125198589Y-91982010D01*
X124955368Y-92144525D01*
X124748525Y-92351368D01*
X124586010Y-92594589D01*
X124474068Y-92864842D01*
X124417000Y-93151740D01*
X124417000Y-93444260D01*
X124460791Y-93664408D01*
X124216002Y-93909197D01*
X124194660Y-93926712D01*
X124134988Y-93626719D01*
X123891730Y-93039442D01*
X123538575Y-92510907D01*
X123089093Y-92061425D01*
X122664917Y-91778000D01*
X177399083Y-91778000D01*
X176974907Y-92061425D01*
G37*
G04 #@! TD.AperFunction*
D28*
X112866796Y-111305397D02*
X112897372Y-111325827D01*
X112634203Y-111588996D01*
X112605199Y-111612799D01*
X112557920Y-111670409D01*
X112510226Y-111728524D01*
X112453174Y-111835260D01*
X112439654Y-111860554D01*
X112396197Y-112003815D01*
X112385200Y-112115468D01*
X112385200Y-112115478D01*
X112381524Y-112152800D01*
X112385200Y-112190123D01*
X112385200Y-113025362D01*
X112301020Y-113050898D01*
X112190706Y-113109863D01*
X112094015Y-113189215D01*
X112014663Y-113285906D01*
X111955698Y-113396220D01*
X111919388Y-113515918D01*
X111907128Y-113640400D01*
X111907128Y-115040400D01*
X111919388Y-115164882D01*
X111955698Y-115284580D01*
X112014663Y-115394894D01*
X112094015Y-115491585D01*
X112190706Y-115570937D01*
X112301020Y-115629902D01*
X112420718Y-115666212D01*
X112545200Y-115678472D01*
X113630747Y-115678472D01*
X113619388Y-115715918D01*
X113607128Y-115840400D01*
X113607128Y-117240400D01*
X113619388Y-117364882D01*
X113655698Y-117484580D01*
X113714663Y-117594894D01*
X113794015Y-117691585D01*
X113890706Y-117770937D01*
X114001020Y-117829902D01*
X114120718Y-117866212D01*
X114245200Y-117878472D01*
X114375601Y-117878472D01*
X114375600Y-118818496D01*
X114348657Y-118851326D01*
X114276755Y-118985845D01*
X114232478Y-119131806D01*
X114217528Y-119283600D01*
X114217528Y-119623600D01*
X114232478Y-119775394D01*
X114276755Y-119921355D01*
X114348657Y-120055874D01*
X114445420Y-120173780D01*
X114563326Y-120270543D01*
X114697845Y-120342445D01*
X114749123Y-120358000D01*
X104227000Y-120358000D01*
X104227000Y-120282419D01*
X104238072Y-120170000D01*
X104238072Y-120023506D01*
X104564579Y-119697000D01*
X106218466Y-119697000D01*
X106278206Y-119715122D01*
X106430000Y-119730072D01*
X106770000Y-119730072D01*
X106921794Y-119715122D01*
X106981534Y-119697000D01*
X109092466Y-119697000D01*
X109152206Y-119715122D01*
X109304000Y-119730072D01*
X109644000Y-119730072D01*
X109795794Y-119715122D01*
X109941755Y-119670845D01*
X110076274Y-119598943D01*
X110194180Y-119502180D01*
X110290943Y-119384274D01*
X110362845Y-119249755D01*
X110407122Y-119103794D01*
X110422072Y-118952000D01*
X110422072Y-118672000D01*
X110407122Y-118520206D01*
X110362845Y-118374245D01*
X110340265Y-118332000D01*
X110362845Y-118289755D01*
X110407122Y-118143794D01*
X110422072Y-117992000D01*
X110422072Y-117712000D01*
X110407122Y-117560206D01*
X110384364Y-117485183D01*
X110384290Y-117484431D01*
X110383459Y-117433507D01*
X110375765Y-117397875D01*
X110372193Y-117361609D01*
X110359000Y-117318118D01*
X110359000Y-111531072D01*
X111650000Y-111531072D01*
X111774482Y-111518812D01*
X111894180Y-111482502D01*
X111993722Y-111429295D01*
X112190454Y-111468427D01*
X112394332Y-111468427D01*
X112594291Y-111428653D01*
X112782649Y-111350632D01*
X112860208Y-111298809D01*
X112866796Y-111305397D01*
G04 #@! TA.AperFunction,Conductor*
D29*
G36*
X112866796Y-111305397D02*
G01*
X112897372Y-111325827D01*
X112634203Y-111588996D01*
X112605199Y-111612799D01*
X112557920Y-111670409D01*
X112510226Y-111728524D01*
X112453174Y-111835260D01*
X112439654Y-111860554D01*
X112396197Y-112003815D01*
X112385200Y-112115468D01*
X112385200Y-112115478D01*
X112381524Y-112152800D01*
X112385200Y-112190123D01*
X112385200Y-113025362D01*
X112301020Y-113050898D01*
X112190706Y-113109863D01*
X112094015Y-113189215D01*
X112014663Y-113285906D01*
X111955698Y-113396220D01*
X111919388Y-113515918D01*
X111907128Y-113640400D01*
X111907128Y-115040400D01*
X111919388Y-115164882D01*
X111955698Y-115284580D01*
X112014663Y-115394894D01*
X112094015Y-115491585D01*
X112190706Y-115570937D01*
X112301020Y-115629902D01*
X112420718Y-115666212D01*
X112545200Y-115678472D01*
X113630747Y-115678472D01*
X113619388Y-115715918D01*
X113607128Y-115840400D01*
X113607128Y-117240400D01*
X113619388Y-117364882D01*
X113655698Y-117484580D01*
X113714663Y-117594894D01*
X113794015Y-117691585D01*
X113890706Y-117770937D01*
X114001020Y-117829902D01*
X114120718Y-117866212D01*
X114245200Y-117878472D01*
X114375601Y-117878472D01*
X114375600Y-118818496D01*
X114348657Y-118851326D01*
X114276755Y-118985845D01*
X114232478Y-119131806D01*
X114217528Y-119283600D01*
X114217528Y-119623600D01*
X114232478Y-119775394D01*
X114276755Y-119921355D01*
X114348657Y-120055874D01*
X114445420Y-120173780D01*
X114563326Y-120270543D01*
X114697845Y-120342445D01*
X114749123Y-120358000D01*
X104227000Y-120358000D01*
X104227000Y-120282419D01*
X104238072Y-120170000D01*
X104238072Y-120023506D01*
X104564579Y-119697000D01*
X106218466Y-119697000D01*
X106278206Y-119715122D01*
X106430000Y-119730072D01*
X106770000Y-119730072D01*
X106921794Y-119715122D01*
X106981534Y-119697000D01*
X109092466Y-119697000D01*
X109152206Y-119715122D01*
X109304000Y-119730072D01*
X109644000Y-119730072D01*
X109795794Y-119715122D01*
X109941755Y-119670845D01*
X110076274Y-119598943D01*
X110194180Y-119502180D01*
X110290943Y-119384274D01*
X110362845Y-119249755D01*
X110407122Y-119103794D01*
X110422072Y-118952000D01*
X110422072Y-118672000D01*
X110407122Y-118520206D01*
X110362845Y-118374245D01*
X110340265Y-118332000D01*
X110362845Y-118289755D01*
X110407122Y-118143794D01*
X110422072Y-117992000D01*
X110422072Y-117712000D01*
X110407122Y-117560206D01*
X110384364Y-117485183D01*
X110384290Y-117484431D01*
X110383459Y-117433507D01*
X110375765Y-117397875D01*
X110372193Y-117361609D01*
X110359000Y-117318118D01*
X110359000Y-111531072D01*
X111650000Y-111531072D01*
X111774482Y-111518812D01*
X111894180Y-111482502D01*
X111993722Y-111429295D01*
X112190454Y-111468427D01*
X112394332Y-111468427D01*
X112594291Y-111428653D01*
X112782649Y-111350632D01*
X112860208Y-111298809D01*
X112866796Y-111305397D01*
G37*
G04 #@! TD.AperFunction*
D28*
X118974907Y-92061425D02*
X118525425Y-92510907D01*
X118172270Y-93039442D01*
X117929012Y-93626719D01*
X117805000Y-94250168D01*
X117805000Y-94885832D01*
X117929012Y-95509281D01*
X118172270Y-96096558D01*
X118525425Y-96625093D01*
X118974907Y-97074575D01*
X119503442Y-97427730D01*
X120047348Y-97653023D01*
X116198745Y-101501628D01*
X115986100Y-101501628D01*
X115834306Y-101516578D01*
X115688345Y-101560855D01*
X115656100Y-101578090D01*
X115623855Y-101560855D01*
X115477894Y-101516578D01*
X115326100Y-101501628D01*
X114986100Y-101501628D01*
X114834306Y-101516578D01*
X114688345Y-101560855D01*
X114553826Y-101632757D01*
X114435920Y-101729520D01*
X114339157Y-101847426D01*
X114267255Y-101981945D01*
X114222978Y-102127906D01*
X114208028Y-102279700D01*
X114208028Y-102559700D01*
X114212314Y-102603217D01*
X114126636Y-102673531D01*
X114078169Y-102600994D01*
X113934006Y-102456831D01*
X113764488Y-102343563D01*
X113576130Y-102265542D01*
X113376171Y-102225768D01*
X113172293Y-102225768D01*
X112972334Y-102265542D01*
X112917076Y-102288431D01*
X112802457Y-102173812D01*
X112779437Y-102145762D01*
X112667519Y-102053913D01*
X112648537Y-102043767D01*
X112632338Y-101990366D01*
X112564088Y-101862679D01*
X112472238Y-101750761D01*
X112444193Y-101727745D01*
X112435260Y-101718812D01*
X112412239Y-101690761D01*
X112300321Y-101598912D01*
X112288072Y-101592365D01*
X112288072Y-101243000D01*
X112275812Y-101118518D01*
X112239502Y-100998820D01*
X112180537Y-100888506D01*
X112101185Y-100791815D01*
X112004494Y-100712463D01*
X111894180Y-100653498D01*
X111774482Y-100617188D01*
X111650000Y-100604928D01*
X109950000Y-100604928D01*
X109825518Y-100617188D01*
X109705820Y-100653498D01*
X109595506Y-100712463D01*
X109498815Y-100791815D01*
X109419463Y-100888506D01*
X109360498Y-100998820D01*
X109324188Y-101118518D01*
X109311928Y-101243000D01*
X109311928Y-102003000D01*
X109312707Y-102010909D01*
X109241158Y-102049153D01*
X109087365Y-102175367D01*
X109055733Y-102213911D01*
X108695901Y-102573742D01*
X108657367Y-102605366D01*
X108625744Y-102643899D01*
X108625743Y-102643900D01*
X108531153Y-102759159D01*
X108437367Y-102934620D01*
X108379614Y-103125005D01*
X108360113Y-103322999D01*
X108365000Y-103372617D01*
X108364999Y-108763393D01*
X108360113Y-108813001D01*
X108379614Y-109010995D01*
X108412383Y-109119019D01*
X108437367Y-109201380D01*
X108531152Y-109376841D01*
X108637813Y-109506809D01*
X108601805Y-109625508D01*
X108584719Y-109798998D01*
X108589001Y-109842477D01*
X108589000Y-117407051D01*
X108585155Y-117414245D01*
X108540878Y-117560206D01*
X108525928Y-117712000D01*
X108525928Y-117927000D01*
X107548072Y-117927000D01*
X107548072Y-117712000D01*
X107533122Y-117560206D01*
X107523343Y-117527970D01*
X107653794Y-117515122D01*
X107799755Y-117470845D01*
X107934274Y-117398943D01*
X108052180Y-117302180D01*
X108148943Y-117184274D01*
X108220845Y-117049755D01*
X108265122Y-116903794D01*
X108280072Y-116752000D01*
X108280072Y-116472000D01*
X108265122Y-116320206D01*
X108220845Y-116174245D01*
X108198265Y-116132000D01*
X108220845Y-116089755D01*
X108265122Y-115943794D01*
X108280072Y-115792000D01*
X108280072Y-115512000D01*
X108265122Y-115360206D01*
X108220845Y-115214245D01*
X108148943Y-115079726D01*
X108124315Y-115049717D01*
X108159786Y-115006496D01*
X108231225Y-114872842D01*
X108275218Y-114727819D01*
X108290072Y-114577000D01*
X108290072Y-114307000D01*
X108275218Y-114156181D01*
X108231225Y-114011158D01*
X108188914Y-113932000D01*
X108231225Y-113852842D01*
X108275218Y-113707819D01*
X108290072Y-113557000D01*
X108290072Y-113287000D01*
X108275218Y-113136181D01*
X108231225Y-112991158D01*
X108159786Y-112857504D01*
X108063644Y-112740356D01*
X107946496Y-112644214D01*
X107812842Y-112572775D01*
X107667819Y-112528782D01*
X107517000Y-112513928D01*
X107315729Y-112513928D01*
X104234078Y-109432279D01*
X104539357Y-109127000D01*
X108000000Y-109127000D01*
X108024776Y-109124560D01*
X108048601Y-109117333D01*
X108070557Y-109105597D01*
X108089803Y-109089803D01*
X108105597Y-109070557D01*
X108117333Y-109048601D01*
X108124560Y-109024776D01*
X108127000Y-109000000D01*
X108124560Y-108975224D01*
X108117333Y-108951399D01*
X108105597Y-108929443D01*
X108089803Y-108910197D01*
X106627000Y-107447394D01*
X106627000Y-107022370D01*
X106643847Y-107001842D01*
X106737632Y-106826382D01*
X106795385Y-106635996D01*
X106810000Y-106487610D01*
X106810000Y-106487608D01*
X106814886Y-106438003D01*
X106810000Y-106388398D01*
X106810000Y-101928107D01*
X106814886Y-101878499D01*
X106795385Y-101680504D01*
X106737632Y-101490119D01*
X106719477Y-101456153D01*
X106643847Y-101314659D01*
X106517633Y-101160866D01*
X106479099Y-101129242D01*
X105270762Y-99920906D01*
X105239134Y-99882367D01*
X105085341Y-99756153D01*
X104909881Y-99662368D01*
X104719495Y-99604615D01*
X104571109Y-99590000D01*
X104521501Y-99585114D01*
X104471893Y-99590000D01*
X104227000Y-99590000D01*
X104227000Y-98900000D01*
X104224560Y-98875224D01*
X104217333Y-98851399D01*
X104205597Y-98829443D01*
X104189803Y-98810197D01*
X104170557Y-98794403D01*
X104148601Y-98782667D01*
X104124776Y-98775440D01*
X104100000Y-98773000D01*
X102225340Y-98773000D01*
X102133300Y-91778000D01*
X119399083Y-91778000D01*
X118974907Y-92061425D01*
G04 #@! TA.AperFunction,Conductor*
D29*
G36*
X118974907Y-92061425D02*
G01*
X118525425Y-92510907D01*
X118172270Y-93039442D01*
X117929012Y-93626719D01*
X117805000Y-94250168D01*
X117805000Y-94885832D01*
X117929012Y-95509281D01*
X118172270Y-96096558D01*
X118525425Y-96625093D01*
X118974907Y-97074575D01*
X119503442Y-97427730D01*
X120047348Y-97653023D01*
X116198745Y-101501628D01*
X115986100Y-101501628D01*
X115834306Y-101516578D01*
X115688345Y-101560855D01*
X115656100Y-101578090D01*
X115623855Y-101560855D01*
X115477894Y-101516578D01*
X115326100Y-101501628D01*
X114986100Y-101501628D01*
X114834306Y-101516578D01*
X114688345Y-101560855D01*
X114553826Y-101632757D01*
X114435920Y-101729520D01*
X114339157Y-101847426D01*
X114267255Y-101981945D01*
X114222978Y-102127906D01*
X114208028Y-102279700D01*
X114208028Y-102559700D01*
X114212314Y-102603217D01*
X114126636Y-102673531D01*
X114078169Y-102600994D01*
X113934006Y-102456831D01*
X113764488Y-102343563D01*
X113576130Y-102265542D01*
X113376171Y-102225768D01*
X113172293Y-102225768D01*
X112972334Y-102265542D01*
X112917076Y-102288431D01*
X112802457Y-102173812D01*
X112779437Y-102145762D01*
X112667519Y-102053913D01*
X112648537Y-102043767D01*
X112632338Y-101990366D01*
X112564088Y-101862679D01*
X112472238Y-101750761D01*
X112444193Y-101727745D01*
X112435260Y-101718812D01*
X112412239Y-101690761D01*
X112300321Y-101598912D01*
X112288072Y-101592365D01*
X112288072Y-101243000D01*
X112275812Y-101118518D01*
X112239502Y-100998820D01*
X112180537Y-100888506D01*
X112101185Y-100791815D01*
X112004494Y-100712463D01*
X111894180Y-100653498D01*
X111774482Y-100617188D01*
X111650000Y-100604928D01*
X109950000Y-100604928D01*
X109825518Y-100617188D01*
X109705820Y-100653498D01*
X109595506Y-100712463D01*
X109498815Y-100791815D01*
X109419463Y-100888506D01*
X109360498Y-100998820D01*
X109324188Y-101118518D01*
X109311928Y-101243000D01*
X109311928Y-102003000D01*
X109312707Y-102010909D01*
X109241158Y-102049153D01*
X109087365Y-102175367D01*
X109055733Y-102213911D01*
X108695901Y-102573742D01*
X108657367Y-102605366D01*
X108625744Y-102643899D01*
X108625743Y-102643900D01*
X108531153Y-102759159D01*
X108437367Y-102934620D01*
X108379614Y-103125005D01*
X108360113Y-103322999D01*
X108365000Y-103372617D01*
X108364999Y-108763393D01*
X108360113Y-108813001D01*
X108379614Y-109010995D01*
X108412383Y-109119019D01*
X108437367Y-109201380D01*
X108531152Y-109376841D01*
X108637813Y-109506809D01*
X108601805Y-109625508D01*
X108584719Y-109798998D01*
X108589001Y-109842477D01*
X108589000Y-117407051D01*
X108585155Y-117414245D01*
X108540878Y-117560206D01*
X108525928Y-117712000D01*
X108525928Y-117927000D01*
X107548072Y-117927000D01*
X107548072Y-117712000D01*
X107533122Y-117560206D01*
X107523343Y-117527970D01*
X107653794Y-117515122D01*
X107799755Y-117470845D01*
X107934274Y-117398943D01*
X108052180Y-117302180D01*
X108148943Y-117184274D01*
X108220845Y-117049755D01*
X108265122Y-116903794D01*
X108280072Y-116752000D01*
X108280072Y-116472000D01*
X108265122Y-116320206D01*
X108220845Y-116174245D01*
X108198265Y-116132000D01*
X108220845Y-116089755D01*
X108265122Y-115943794D01*
X108280072Y-115792000D01*
X108280072Y-115512000D01*
X108265122Y-115360206D01*
X108220845Y-115214245D01*
X108148943Y-115079726D01*
X108124315Y-115049717D01*
X108159786Y-115006496D01*
X108231225Y-114872842D01*
X108275218Y-114727819D01*
X108290072Y-114577000D01*
X108290072Y-114307000D01*
X108275218Y-114156181D01*
X108231225Y-114011158D01*
X108188914Y-113932000D01*
X108231225Y-113852842D01*
X108275218Y-113707819D01*
X108290072Y-113557000D01*
X108290072Y-113287000D01*
X108275218Y-113136181D01*
X108231225Y-112991158D01*
X108159786Y-112857504D01*
X108063644Y-112740356D01*
X107946496Y-112644214D01*
X107812842Y-112572775D01*
X107667819Y-112528782D01*
X107517000Y-112513928D01*
X107315729Y-112513928D01*
X104234078Y-109432279D01*
X104539357Y-109127000D01*
X108000000Y-109127000D01*
X108024776Y-109124560D01*
X108048601Y-109117333D01*
X108070557Y-109105597D01*
X108089803Y-109089803D01*
X108105597Y-109070557D01*
X108117333Y-109048601D01*
X108124560Y-109024776D01*
X108127000Y-109000000D01*
X108124560Y-108975224D01*
X108117333Y-108951399D01*
X108105597Y-108929443D01*
X108089803Y-108910197D01*
X106627000Y-107447394D01*
X106627000Y-107022370D01*
X106643847Y-107001842D01*
X106737632Y-106826382D01*
X106795385Y-106635996D01*
X106810000Y-106487610D01*
X106810000Y-106487608D01*
X106814886Y-106438003D01*
X106810000Y-106388398D01*
X106810000Y-101928107D01*
X106814886Y-101878499D01*
X106795385Y-101680504D01*
X106737632Y-101490119D01*
X106719477Y-101456153D01*
X106643847Y-101314659D01*
X106517633Y-101160866D01*
X106479099Y-101129242D01*
X105270762Y-99920906D01*
X105239134Y-99882367D01*
X105085341Y-99756153D01*
X104909881Y-99662368D01*
X104719495Y-99604615D01*
X104571109Y-99590000D01*
X104521501Y-99585114D01*
X104471893Y-99590000D01*
X104227000Y-99590000D01*
X104227000Y-98900000D01*
X104224560Y-98875224D01*
X104217333Y-98851399D01*
X104205597Y-98829443D01*
X104189803Y-98810197D01*
X104170557Y-98794403D01*
X104148601Y-98782667D01*
X104124776Y-98775440D01*
X104100000Y-98773000D01*
X102225340Y-98773000D01*
X102133300Y-91778000D01*
X119399083Y-91778000D01*
X118974907Y-92061425D01*
G37*
G04 #@! TD.AperFunction*
D28*
X104858205Y-113933008D02*
X104881999Y-113962001D01*
X104910992Y-113985795D01*
X104910996Y-113985799D01*
X104935556Y-114005955D01*
X104932775Y-114011158D01*
X104888782Y-114156181D01*
X104873928Y-114307000D01*
X104873928Y-114577000D01*
X104888782Y-114727819D01*
X104932775Y-114872842D01*
X105004214Y-115006496D01*
X105039685Y-115049717D01*
X105015057Y-115079726D01*
X104943155Y-115214245D01*
X104898878Y-115360206D01*
X104883928Y-115512000D01*
X104883928Y-115792000D01*
X104898878Y-115943794D01*
X104943155Y-116089755D01*
X104965735Y-116132000D01*
X104943155Y-116174245D01*
X104898878Y-116320206D01*
X104883928Y-116472000D01*
X104883928Y-116752000D01*
X104898878Y-116903794D01*
X104943155Y-117049755D01*
X105015057Y-117184274D01*
X105111820Y-117302180D01*
X105229726Y-117398943D01*
X105364245Y-117470845D01*
X105510206Y-117515122D01*
X105662000Y-117530072D01*
X105675271Y-117530072D01*
X105675845Y-117530646D01*
X105666878Y-117560206D01*
X105651928Y-117712000D01*
X105651928Y-117927000D01*
X104241469Y-117927000D01*
X104227000Y-117925575D01*
X104227000Y-113301802D01*
X104858205Y-113933008D01*
G04 #@! TA.AperFunction,Conductor*
D29*
G36*
X104858205Y-113933008D02*
G01*
X104881999Y-113962001D01*
X104910992Y-113985795D01*
X104910996Y-113985799D01*
X104935556Y-114005955D01*
X104932775Y-114011158D01*
X104888782Y-114156181D01*
X104873928Y-114307000D01*
X104873928Y-114577000D01*
X104888782Y-114727819D01*
X104932775Y-114872842D01*
X105004214Y-115006496D01*
X105039685Y-115049717D01*
X105015057Y-115079726D01*
X104943155Y-115214245D01*
X104898878Y-115360206D01*
X104883928Y-115512000D01*
X104883928Y-115792000D01*
X104898878Y-115943794D01*
X104943155Y-116089755D01*
X104965735Y-116132000D01*
X104943155Y-116174245D01*
X104898878Y-116320206D01*
X104883928Y-116472000D01*
X104883928Y-116752000D01*
X104898878Y-116903794D01*
X104943155Y-117049755D01*
X105015057Y-117184274D01*
X105111820Y-117302180D01*
X105229726Y-117398943D01*
X105364245Y-117470845D01*
X105510206Y-117515122D01*
X105662000Y-117530072D01*
X105675271Y-117530072D01*
X105675845Y-117530646D01*
X105666878Y-117560206D01*
X105651928Y-117712000D01*
X105651928Y-117927000D01*
X104241469Y-117927000D01*
X104227000Y-117925575D01*
X104227000Y-113301802D01*
X104858205Y-113933008D01*
G37*
G04 #@! TD.AperFunction*
D28*
X115895726Y-113452937D02*
X116065244Y-113566205D01*
X116253602Y-113644226D01*
X116453561Y-113684000D01*
X116657439Y-113684000D01*
X116725339Y-113670494D01*
X116733774Y-113712898D01*
X116811795Y-113901256D01*
X116925063Y-114070774D01*
X116969000Y-114114711D01*
X116969000Y-114366198D01*
X115918742Y-115416457D01*
X115896385Y-115389215D01*
X115799694Y-115309863D01*
X115689380Y-115250898D01*
X115569682Y-115214588D01*
X115445200Y-115202328D01*
X114359653Y-115202328D01*
X114371012Y-115164882D01*
X114383272Y-115040400D01*
X114383272Y-113640400D01*
X114371012Y-113515918D01*
X114338579Y-113409000D01*
X115851789Y-113409000D01*
X115895726Y-113452937D01*
G04 #@! TA.AperFunction,Conductor*
D29*
G36*
X115895726Y-113452937D02*
G01*
X116065244Y-113566205D01*
X116253602Y-113644226D01*
X116453561Y-113684000D01*
X116657439Y-113684000D01*
X116725339Y-113670494D01*
X116733774Y-113712898D01*
X116811795Y-113901256D01*
X116925063Y-114070774D01*
X116969000Y-114114711D01*
X116969000Y-114366198D01*
X115918742Y-115416457D01*
X115896385Y-115389215D01*
X115799694Y-115309863D01*
X115689380Y-115250898D01*
X115569682Y-115214588D01*
X115445200Y-115202328D01*
X114359653Y-115202328D01*
X114371012Y-115164882D01*
X114383272Y-115040400D01*
X114383272Y-113640400D01*
X114371012Y-113515918D01*
X114338579Y-113409000D01*
X115851789Y-113409000D01*
X115895726Y-113452937D01*
G37*
G04 #@! TD.AperFunction*
D28*
X118658766Y-108288917D02*
X118658767Y-110180657D01*
X118614829Y-110224595D01*
X118501561Y-110394113D01*
X118423540Y-110582471D01*
X118383766Y-110782430D01*
X118383766Y-110986308D01*
X118411751Y-111127000D01*
X116400711Y-111127000D01*
X116356774Y-111083063D01*
X116187256Y-110969795D01*
X115998898Y-110891774D01*
X115804872Y-110853180D01*
X115804872Y-110523200D01*
X115789922Y-110371406D01*
X115745645Y-110225445D01*
X115673743Y-110090926D01*
X115576980Y-109973020D01*
X115459074Y-109876257D01*
X115324555Y-109804355D01*
X115304546Y-109798285D01*
X116839872Y-108262960D01*
X118656209Y-108262960D01*
X118658766Y-108288917D01*
G04 #@! TA.AperFunction,Conductor*
D29*
G36*
X118658766Y-108288917D02*
G01*
X118658767Y-110180657D01*
X118614829Y-110224595D01*
X118501561Y-110394113D01*
X118423540Y-110582471D01*
X118383766Y-110782430D01*
X118383766Y-110986308D01*
X118411751Y-111127000D01*
X116400711Y-111127000D01*
X116356774Y-111083063D01*
X116187256Y-110969795D01*
X115998898Y-110891774D01*
X115804872Y-110853180D01*
X115804872Y-110523200D01*
X115789922Y-110371406D01*
X115745645Y-110225445D01*
X115673743Y-110090926D01*
X115576980Y-109973020D01*
X115459074Y-109876257D01*
X115324555Y-109804355D01*
X115304546Y-109798285D01*
X116839872Y-108262960D01*
X118656209Y-108262960D01*
X118658766Y-108288917D01*
G37*
G04 #@! TD.AperFunction*
D28*
X104790000Y-102296855D02*
X104790000Y-103573000D01*
X103627000Y-103573000D01*
X103627000Y-102027000D01*
X104520145Y-102027000D01*
X104790000Y-102296855D01*
G04 #@! TA.AperFunction,Conductor*
D29*
G36*
X104790000Y-102296855D02*
G01*
X104790000Y-103573000D01*
X103627000Y-103573000D01*
X103627000Y-102027000D01*
X104520145Y-102027000D01*
X104790000Y-102296855D01*
G37*
G04 #@! TD.AperFunction*
D28*
X96396782Y-91864181D02*
X96381928Y-92015000D01*
X96381928Y-92033271D01*
X96183988Y-92231211D01*
X96154990Y-92255009D01*
X96131192Y-92284007D01*
X96131191Y-92284008D01*
X96060016Y-92370734D01*
X95989444Y-92502764D01*
X95966426Y-92578648D01*
X95945988Y-92646024D01*
X95941327Y-92693346D01*
X95931314Y-92795010D01*
X95934991Y-92832342D01*
X95934990Y-97290208D01*
X92935199Y-100290000D01*
X91087325Y-100290000D01*
X91050000Y-100286324D01*
X91012675Y-100290000D01*
X91012667Y-100290000D01*
X90901014Y-100300997D01*
X90757753Y-100344454D01*
X90625724Y-100415026D01*
X90509999Y-100509999D01*
X90486201Y-100538997D01*
X88788998Y-102236201D01*
X88760000Y-102259999D01*
X88736202Y-102288997D01*
X88736201Y-102288998D01*
X88665026Y-102375724D01*
X88594454Y-102507754D01*
X88572709Y-102579440D01*
X88550998Y-102651014D01*
X88540893Y-102753614D01*
X88536324Y-102800000D01*
X88540001Y-102837332D01*
X88540001Y-106280393D01*
X88410197Y-106410197D01*
X88394403Y-106429443D01*
X88382667Y-106451399D01*
X88375440Y-106475224D01*
X88373000Y-106500000D01*
X88373000Y-110189510D01*
X88214591Y-110158000D01*
X87769409Y-110158000D01*
X87332782Y-110244851D01*
X86921489Y-110415214D01*
X86551334Y-110662544D01*
X86236544Y-110977334D01*
X85989214Y-111347489D01*
X85818851Y-111758782D01*
X85732000Y-112195409D01*
X85732000Y-112640591D01*
X85818851Y-113077218D01*
X85989214Y-113488511D01*
X86236544Y-113858666D01*
X86551334Y-114173456D01*
X86921489Y-114420786D01*
X87332782Y-114591149D01*
X87769409Y-114678000D01*
X88214591Y-114678000D01*
X88651218Y-114591149D01*
X89062511Y-114420786D01*
X89432666Y-114173456D01*
X89649104Y-113957018D01*
X89629259Y-114254661D01*
X89674760Y-114603319D01*
X89787406Y-114936400D01*
X89899910Y-115146882D01*
X90179651Y-115260744D01*
X91242395Y-114198000D01*
X91601605Y-114198000D01*
X92664349Y-115260744D01*
X92944090Y-115146882D01*
X93099961Y-114831704D01*
X93191349Y-114492174D01*
X93214741Y-114141339D01*
X93169240Y-113792681D01*
X93056594Y-113459600D01*
X92944090Y-113249118D01*
X92664349Y-113135256D01*
X91601605Y-114198000D01*
X91242395Y-114198000D01*
X91228253Y-114183858D01*
X91407858Y-114004253D01*
X91422000Y-114018395D01*
X92484744Y-112955651D01*
X92370882Y-112675910D01*
X92055704Y-112520039D01*
X91716174Y-112428651D01*
X91365339Y-112405259D01*
X91016681Y-112450760D01*
X90683600Y-112563406D01*
X90473118Y-112675910D01*
X90359257Y-112955649D01*
X90243946Y-112840338D01*
X90204402Y-112879882D01*
X90252000Y-112640591D01*
X90252000Y-112195409D01*
X90165391Y-111760000D01*
X96318259Y-111760000D01*
X96352680Y-111783000D01*
X96249114Y-111852201D01*
X96056201Y-112045114D01*
X95904629Y-112271957D01*
X95800225Y-112524011D01*
X95747000Y-112791589D01*
X95747000Y-113064411D01*
X95800225Y-113331989D01*
X95904629Y-113584043D01*
X96056201Y-113810886D01*
X96249114Y-114003799D01*
X96475957Y-114155371D01*
X96728011Y-114259775D01*
X96995589Y-114313000D01*
X97268411Y-114313000D01*
X97535989Y-114259775D01*
X97788043Y-114155371D01*
X98014886Y-114003799D01*
X98207799Y-113810886D01*
X98289909Y-113688000D01*
X100413199Y-113688000D01*
X103273000Y-116547802D01*
X103273000Y-120358000D01*
X85566721Y-120358000D01*
X85087867Y-120311048D01*
X84660647Y-120182063D01*
X84266616Y-119972554D01*
X83920786Y-119690501D01*
X83636328Y-119346651D01*
X83424073Y-118954093D01*
X83292109Y-118527788D01*
X83242000Y-118051036D01*
X83242000Y-115440349D01*
X90359256Y-115440349D01*
X90473118Y-115720090D01*
X90788296Y-115875961D01*
X91127826Y-115967349D01*
X91478661Y-115990741D01*
X91827319Y-115945240D01*
X92160400Y-115832594D01*
X92370882Y-115720090D01*
X92484744Y-115440349D01*
X91422000Y-114377605D01*
X90359256Y-115440349D01*
X83242000Y-115440349D01*
X83242000Y-99495409D01*
X85732000Y-99495409D01*
X85732000Y-99940591D01*
X85818851Y-100377218D01*
X85989214Y-100788511D01*
X86236544Y-101158666D01*
X86551334Y-101473456D01*
X86921489Y-101720786D01*
X87332782Y-101891149D01*
X87769409Y-101978000D01*
X88214591Y-101978000D01*
X88651218Y-101891149D01*
X89062511Y-101720786D01*
X89432666Y-101473456D01*
X89747456Y-101158666D01*
X89994786Y-100788511D01*
X90165149Y-100377218D01*
X90252000Y-99940591D01*
X90252000Y-99495409D01*
X90204402Y-99256118D01*
X90243946Y-99295662D01*
X90359257Y-99180351D01*
X90473118Y-99460090D01*
X90788296Y-99615961D01*
X91127826Y-99707349D01*
X91478661Y-99730741D01*
X91827319Y-99685240D01*
X92160400Y-99572594D01*
X92370882Y-99460090D01*
X92484744Y-99180349D01*
X91422000Y-98117605D01*
X91407858Y-98131748D01*
X91228253Y-97952143D01*
X91242395Y-97938000D01*
X91601605Y-97938000D01*
X92664349Y-99000744D01*
X92944090Y-98886882D01*
X93099961Y-98571704D01*
X93191349Y-98232174D01*
X93214741Y-97881339D01*
X93169240Y-97532681D01*
X93056594Y-97199600D01*
X92944090Y-96989118D01*
X92664349Y-96875256D01*
X91601605Y-97938000D01*
X91242395Y-97938000D01*
X90179651Y-96875256D01*
X89899910Y-96989118D01*
X89744039Y-97304296D01*
X89652651Y-97643826D01*
X89629259Y-97994661D01*
X89653945Y-98183823D01*
X89432666Y-97962544D01*
X89062511Y-97715214D01*
X88651218Y-97544851D01*
X88214591Y-97458000D01*
X87769409Y-97458000D01*
X87332782Y-97544851D01*
X86921489Y-97715214D01*
X86551334Y-97962544D01*
X86236544Y-98277334D01*
X85989214Y-98647489D01*
X85818851Y-99058782D01*
X85732000Y-99495409D01*
X83242000Y-99495409D01*
X83242000Y-96695651D01*
X90359256Y-96695651D01*
X91422000Y-97758395D01*
X92484744Y-96695651D01*
X92370882Y-96415910D01*
X92055704Y-96260039D01*
X91716174Y-96168651D01*
X91365339Y-96145259D01*
X91016681Y-96190760D01*
X90683600Y-96303406D01*
X90473118Y-96415910D01*
X90359256Y-96695651D01*
X83242000Y-96695651D01*
X83242000Y-94102721D01*
X83288953Y-93623866D01*
X83417938Y-93196645D01*
X83627446Y-92802616D01*
X83909499Y-92456786D01*
X84253351Y-92172327D01*
X84645910Y-91960071D01*
X85072213Y-91828108D01*
X85548964Y-91778000D01*
X96422925Y-91778000D01*
X96396782Y-91864181D01*
G04 #@! TA.AperFunction,Conductor*
D29*
G36*
X96396782Y-91864181D02*
G01*
X96381928Y-92015000D01*
X96381928Y-92033271D01*
X96183988Y-92231211D01*
X96154990Y-92255009D01*
X96131192Y-92284007D01*
X96131191Y-92284008D01*
X96060016Y-92370734D01*
X95989444Y-92502764D01*
X95966426Y-92578648D01*
X95945988Y-92646024D01*
X95941327Y-92693346D01*
X95931314Y-92795010D01*
X95934991Y-92832342D01*
X95934990Y-97290208D01*
X92935199Y-100290000D01*
X91087325Y-100290000D01*
X91050000Y-100286324D01*
X91012675Y-100290000D01*
X91012667Y-100290000D01*
X90901014Y-100300997D01*
X90757753Y-100344454D01*
X90625724Y-100415026D01*
X90509999Y-100509999D01*
X90486201Y-100538997D01*
X88788998Y-102236201D01*
X88760000Y-102259999D01*
X88736202Y-102288997D01*
X88736201Y-102288998D01*
X88665026Y-102375724D01*
X88594454Y-102507754D01*
X88572709Y-102579440D01*
X88550998Y-102651014D01*
X88540893Y-102753614D01*
X88536324Y-102800000D01*
X88540001Y-102837332D01*
X88540001Y-106280393D01*
X88410197Y-106410197D01*
X88394403Y-106429443D01*
X88382667Y-106451399D01*
X88375440Y-106475224D01*
X88373000Y-106500000D01*
X88373000Y-110189510D01*
X88214591Y-110158000D01*
X87769409Y-110158000D01*
X87332782Y-110244851D01*
X86921489Y-110415214D01*
X86551334Y-110662544D01*
X86236544Y-110977334D01*
X85989214Y-111347489D01*
X85818851Y-111758782D01*
X85732000Y-112195409D01*
X85732000Y-112640591D01*
X85818851Y-113077218D01*
X85989214Y-113488511D01*
X86236544Y-113858666D01*
X86551334Y-114173456D01*
X86921489Y-114420786D01*
X87332782Y-114591149D01*
X87769409Y-114678000D01*
X88214591Y-114678000D01*
X88651218Y-114591149D01*
X89062511Y-114420786D01*
X89432666Y-114173456D01*
X89649104Y-113957018D01*
X89629259Y-114254661D01*
X89674760Y-114603319D01*
X89787406Y-114936400D01*
X89899910Y-115146882D01*
X90179651Y-115260744D01*
X91242395Y-114198000D01*
X91601605Y-114198000D01*
X92664349Y-115260744D01*
X92944090Y-115146882D01*
X93099961Y-114831704D01*
X93191349Y-114492174D01*
X93214741Y-114141339D01*
X93169240Y-113792681D01*
X93056594Y-113459600D01*
X92944090Y-113249118D01*
X92664349Y-113135256D01*
X91601605Y-114198000D01*
X91242395Y-114198000D01*
X91228253Y-114183858D01*
X91407858Y-114004253D01*
X91422000Y-114018395D01*
X92484744Y-112955651D01*
X92370882Y-112675910D01*
X92055704Y-112520039D01*
X91716174Y-112428651D01*
X91365339Y-112405259D01*
X91016681Y-112450760D01*
X90683600Y-112563406D01*
X90473118Y-112675910D01*
X90359257Y-112955649D01*
X90243946Y-112840338D01*
X90204402Y-112879882D01*
X90252000Y-112640591D01*
X90252000Y-112195409D01*
X90165391Y-111760000D01*
X96318259Y-111760000D01*
X96352680Y-111783000D01*
X96249114Y-111852201D01*
X96056201Y-112045114D01*
X95904629Y-112271957D01*
X95800225Y-112524011D01*
X95747000Y-112791589D01*
X95747000Y-113064411D01*
X95800225Y-113331989D01*
X95904629Y-113584043D01*
X96056201Y-113810886D01*
X96249114Y-114003799D01*
X96475957Y-114155371D01*
X96728011Y-114259775D01*
X96995589Y-114313000D01*
X97268411Y-114313000D01*
X97535989Y-114259775D01*
X97788043Y-114155371D01*
X98014886Y-114003799D01*
X98207799Y-113810886D01*
X98289909Y-113688000D01*
X100413199Y-113688000D01*
X103273000Y-116547802D01*
X103273000Y-120358000D01*
X85566721Y-120358000D01*
X85087867Y-120311048D01*
X84660647Y-120182063D01*
X84266616Y-119972554D01*
X83920786Y-119690501D01*
X83636328Y-119346651D01*
X83424073Y-118954093D01*
X83292109Y-118527788D01*
X83242000Y-118051036D01*
X83242000Y-115440349D01*
X90359256Y-115440349D01*
X90473118Y-115720090D01*
X90788296Y-115875961D01*
X91127826Y-115967349D01*
X91478661Y-115990741D01*
X91827319Y-115945240D01*
X92160400Y-115832594D01*
X92370882Y-115720090D01*
X92484744Y-115440349D01*
X91422000Y-114377605D01*
X90359256Y-115440349D01*
X83242000Y-115440349D01*
X83242000Y-99495409D01*
X85732000Y-99495409D01*
X85732000Y-99940591D01*
X85818851Y-100377218D01*
X85989214Y-100788511D01*
X86236544Y-101158666D01*
X86551334Y-101473456D01*
X86921489Y-101720786D01*
X87332782Y-101891149D01*
X87769409Y-101978000D01*
X88214591Y-101978000D01*
X88651218Y-101891149D01*
X89062511Y-101720786D01*
X89432666Y-101473456D01*
X89747456Y-101158666D01*
X89994786Y-100788511D01*
X90165149Y-100377218D01*
X90252000Y-99940591D01*
X90252000Y-99495409D01*
X90204402Y-99256118D01*
X90243946Y-99295662D01*
X90359257Y-99180351D01*
X90473118Y-99460090D01*
X90788296Y-99615961D01*
X91127826Y-99707349D01*
X91478661Y-99730741D01*
X91827319Y-99685240D01*
X92160400Y-99572594D01*
X92370882Y-99460090D01*
X92484744Y-99180349D01*
X91422000Y-98117605D01*
X91407858Y-98131748D01*
X91228253Y-97952143D01*
X91242395Y-97938000D01*
X91601605Y-97938000D01*
X92664349Y-99000744D01*
X92944090Y-98886882D01*
X93099961Y-98571704D01*
X93191349Y-98232174D01*
X93214741Y-97881339D01*
X93169240Y-97532681D01*
X93056594Y-97199600D01*
X92944090Y-96989118D01*
X92664349Y-96875256D01*
X91601605Y-97938000D01*
X91242395Y-97938000D01*
X90179651Y-96875256D01*
X89899910Y-96989118D01*
X89744039Y-97304296D01*
X89652651Y-97643826D01*
X89629259Y-97994661D01*
X89653945Y-98183823D01*
X89432666Y-97962544D01*
X89062511Y-97715214D01*
X88651218Y-97544851D01*
X88214591Y-97458000D01*
X87769409Y-97458000D01*
X87332782Y-97544851D01*
X86921489Y-97715214D01*
X86551334Y-97962544D01*
X86236544Y-98277334D01*
X85989214Y-98647489D01*
X85818851Y-99058782D01*
X85732000Y-99495409D01*
X83242000Y-99495409D01*
X83242000Y-96695651D01*
X90359256Y-96695651D01*
X91422000Y-97758395D01*
X92484744Y-96695651D01*
X92370882Y-96415910D01*
X92055704Y-96260039D01*
X91716174Y-96168651D01*
X91365339Y-96145259D01*
X91016681Y-96190760D01*
X90683600Y-96303406D01*
X90473118Y-96415910D01*
X90359256Y-96695651D01*
X83242000Y-96695651D01*
X83242000Y-94102721D01*
X83288953Y-93623866D01*
X83417938Y-93196645D01*
X83627446Y-92802616D01*
X83909499Y-92456786D01*
X84253351Y-92172327D01*
X84645910Y-91960071D01*
X85072213Y-91828108D01*
X85548964Y-91778000D01*
X96422925Y-91778000D01*
X96396782Y-91864181D01*
G37*
G04 #@! TD.AperFunction*
D28*
X102765000Y-111698061D02*
X102765000Y-111901939D01*
X102804774Y-112101898D01*
X102882795Y-112290256D01*
X102996063Y-112459774D01*
X103140226Y-112603937D01*
X103273000Y-112692654D01*
X103273000Y-114398198D01*
X101291804Y-112417003D01*
X101268001Y-112387999D01*
X101152276Y-112293026D01*
X101020247Y-112222454D01*
X100876986Y-112178997D01*
X100765333Y-112168000D01*
X100765322Y-112168000D01*
X100728000Y-112164324D01*
X100690678Y-112168000D01*
X98289909Y-112168000D01*
X98207799Y-112045114D01*
X98014886Y-111852201D01*
X97911320Y-111783000D01*
X98014886Y-111713799D01*
X98101685Y-111627000D01*
X102779135Y-111627000D01*
X102765000Y-111698061D01*
G04 #@! TA.AperFunction,Conductor*
D29*
G36*
X102765000Y-111698061D02*
G01*
X102765000Y-111901939D01*
X102804774Y-112101898D01*
X102882795Y-112290256D01*
X102996063Y-112459774D01*
X103140226Y-112603937D01*
X103273000Y-112692654D01*
X103273000Y-114398198D01*
X101291804Y-112417003D01*
X101268001Y-112387999D01*
X101152276Y-112293026D01*
X101020247Y-112222454D01*
X100876986Y-112178997D01*
X100765333Y-112168000D01*
X100765322Y-112168000D01*
X100728000Y-112164324D01*
X100690678Y-112168000D01*
X98289909Y-112168000D01*
X98207799Y-112045114D01*
X98014886Y-111852201D01*
X97911320Y-111783000D01*
X98014886Y-111713799D01*
X98101685Y-111627000D01*
X102779135Y-111627000D01*
X102765000Y-111698061D01*
G37*
G04 #@! TD.AperFunction*
D28*
X95800225Y-99611989D02*
X95904629Y-99864043D01*
X96056201Y-100090886D01*
X96249114Y-100283799D01*
X96352680Y-100353000D01*
X96249114Y-100422201D01*
X96056201Y-100615114D01*
X95904629Y-100841957D01*
X95800225Y-101094011D01*
X95747000Y-101361589D01*
X95747000Y-101634411D01*
X95794459Y-101873000D01*
X93544774Y-101873000D01*
X93539371Y-101859957D01*
X93481848Y-101773868D01*
X93542247Y-101755546D01*
X93674276Y-101684974D01*
X93790001Y-101590001D01*
X93813804Y-101560997D01*
X95794018Y-99580784D01*
X95800225Y-99611989D01*
G04 #@! TA.AperFunction,Conductor*
D29*
G36*
X95800225Y-99611989D02*
G01*
X95904629Y-99864043D01*
X96056201Y-100090886D01*
X96249114Y-100283799D01*
X96352680Y-100353000D01*
X96249114Y-100422201D01*
X96056201Y-100615114D01*
X95904629Y-100841957D01*
X95800225Y-101094011D01*
X95747000Y-101361589D01*
X95747000Y-101634411D01*
X95794459Y-101873000D01*
X93544774Y-101873000D01*
X93539371Y-101859957D01*
X93481848Y-101773868D01*
X93542247Y-101755546D01*
X93674276Y-101684974D01*
X93790001Y-101590001D01*
X93813804Y-101560997D01*
X95794018Y-99580784D01*
X95800225Y-99611989D01*
G37*
G04 #@! TD.AperFunction*
D28*
X101356009Y-98022512D02*
X101297355Y-98132245D01*
X101253078Y-98278206D01*
X101238128Y-98430000D01*
X101238128Y-98770000D01*
X101253078Y-98921794D01*
X101297355Y-99067755D01*
X101369257Y-99202274D01*
X101369574Y-99202660D01*
X101373008Y-99501460D01*
X101375733Y-99526206D01*
X101383234Y-99549946D01*
X101395221Y-99571766D01*
X101410540Y-99590000D01*
X100927623Y-99590000D01*
X100801939Y-99565000D01*
X100598061Y-99565000D01*
X100398102Y-99604774D01*
X100209744Y-99682795D01*
X100040226Y-99796063D01*
X99988110Y-99848179D01*
X99890256Y-99782795D01*
X99701898Y-99704774D01*
X99501939Y-99665000D01*
X99298061Y-99665000D01*
X99098102Y-99704774D01*
X98909744Y-99782795D01*
X98740226Y-99896063D01*
X98596063Y-100040226D01*
X98482795Y-100209744D01*
X98404774Y-100398102D01*
X98365000Y-100598061D01*
X98365000Y-100801939D01*
X98385514Y-100905073D01*
X98359371Y-100841957D01*
X98207799Y-100615114D01*
X98014886Y-100422201D01*
X97911320Y-100353000D01*
X98014886Y-100283799D01*
X98207799Y-100090886D01*
X98359371Y-99864043D01*
X98463775Y-99611989D01*
X98517000Y-99344411D01*
X98517000Y-99071589D01*
X98463775Y-98804011D01*
X98359371Y-98551957D01*
X98207799Y-98325114D01*
X98050000Y-98167315D01*
X98050000Y-94645761D01*
X98175000Y-94658072D01*
X98445000Y-94658072D01*
X98595819Y-94643218D01*
X98740842Y-94599225D01*
X98874496Y-94527786D01*
X98957093Y-94460000D01*
X99708894Y-94460000D01*
X99746216Y-94463676D01*
X99783538Y-94460000D01*
X99783549Y-94460000D01*
X99895202Y-94449003D01*
X99945165Y-94433847D01*
X99945386Y-94433891D01*
X100149264Y-94433891D01*
X100349223Y-94394117D01*
X100537581Y-94316096D01*
X100707099Y-94202828D01*
X100851262Y-94058665D01*
X100964530Y-93889147D01*
X101042551Y-93700789D01*
X101082325Y-93500830D01*
X101082325Y-93296952D01*
X101042551Y-93096993D01*
X100964530Y-92908635D01*
X100930616Y-92857879D01*
X100995226Y-92701898D01*
X101035000Y-92501939D01*
X101035000Y-92298061D01*
X100995226Y-92098102D01*
X100917205Y-91909744D01*
X100829177Y-91778000D01*
X101284233Y-91778000D01*
X101356009Y-98022512D01*
G04 #@! TA.AperFunction,Conductor*
D29*
G36*
X101356009Y-98022512D02*
G01*
X101297355Y-98132245D01*
X101253078Y-98278206D01*
X101238128Y-98430000D01*
X101238128Y-98770000D01*
X101253078Y-98921794D01*
X101297355Y-99067755D01*
X101369257Y-99202274D01*
X101369574Y-99202660D01*
X101373008Y-99501460D01*
X101375733Y-99526206D01*
X101383234Y-99549946D01*
X101395221Y-99571766D01*
X101410540Y-99590000D01*
X100927623Y-99590000D01*
X100801939Y-99565000D01*
X100598061Y-99565000D01*
X100398102Y-99604774D01*
X100209744Y-99682795D01*
X100040226Y-99796063D01*
X99988110Y-99848179D01*
X99890256Y-99782795D01*
X99701898Y-99704774D01*
X99501939Y-99665000D01*
X99298061Y-99665000D01*
X99098102Y-99704774D01*
X98909744Y-99782795D01*
X98740226Y-99896063D01*
X98596063Y-100040226D01*
X98482795Y-100209744D01*
X98404774Y-100398102D01*
X98365000Y-100598061D01*
X98365000Y-100801939D01*
X98385514Y-100905073D01*
X98359371Y-100841957D01*
X98207799Y-100615114D01*
X98014886Y-100422201D01*
X97911320Y-100353000D01*
X98014886Y-100283799D01*
X98207799Y-100090886D01*
X98359371Y-99864043D01*
X98463775Y-99611989D01*
X98517000Y-99344411D01*
X98517000Y-99071589D01*
X98463775Y-98804011D01*
X98359371Y-98551957D01*
X98207799Y-98325114D01*
X98050000Y-98167315D01*
X98050000Y-94645761D01*
X98175000Y-94658072D01*
X98445000Y-94658072D01*
X98595819Y-94643218D01*
X98740842Y-94599225D01*
X98874496Y-94527786D01*
X98957093Y-94460000D01*
X99708894Y-94460000D01*
X99746216Y-94463676D01*
X99783538Y-94460000D01*
X99783549Y-94460000D01*
X99895202Y-94449003D01*
X99945165Y-94433847D01*
X99945386Y-94433891D01*
X100149264Y-94433891D01*
X100349223Y-94394117D01*
X100537581Y-94316096D01*
X100707099Y-94202828D01*
X100851262Y-94058665D01*
X100964530Y-93889147D01*
X101042551Y-93700789D01*
X101082325Y-93500830D01*
X101082325Y-93296952D01*
X101042551Y-93096993D01*
X100964530Y-92908635D01*
X100930616Y-92857879D01*
X100995226Y-92701898D01*
X101035000Y-92501939D01*
X101035000Y-92298061D01*
X100995226Y-92098102D01*
X100917205Y-91909744D01*
X100829177Y-91778000D01*
X101284233Y-91778000D01*
X101356009Y-98022512D01*
G37*
G04 #@! TD.AperFunction*
M02*
