G04 #@! TF.GenerationSoftware,KiCad,Pcbnew,(5.1.10)-1*
G04 #@! TF.CreationDate,2021-09-04T12:41:49+02:00*
G04 #@! TF.ProjectId,POE_hat_and_USB,504f455f-6861-4745-9f61-6e645f555342,1.0*
G04 #@! TF.SameCoordinates,Original*
G04 #@! TF.FileFunction,Paste,Bot*
G04 #@! TF.FilePolarity,Positive*
%FSLAX46Y46*%
G04 Gerber Fmt 4.6, Leading zero omitted, Abs format (unit mm)*
G04 Created by KiCad (PCBNEW (5.1.10)-1) date 2021-09-04 12:41:49*
%MOMM*%
%LPD*%
G01*
G04 APERTURE LIST*
%ADD10R,1.000000X0.700000*%
%ADD11R,2.500000X3.300000*%
%ADD12R,1.200000X0.900000*%
%ADD13R,1.500000X1.900000*%
%ADD14R,0.400000X1.350000*%
%ADD15R,0.700000X0.450000*%
G04 APERTURE END LIST*
G36*
G01*
X175267200Y-117188200D02*
X174897200Y-117188200D01*
G75*
G02*
X174762200Y-117053200I0J135000D01*
G01*
X174762200Y-116783200D01*
G75*
G02*
X174897200Y-116648200I135000J0D01*
G01*
X175267200Y-116648200D01*
G75*
G02*
X175402200Y-116783200I0J-135000D01*
G01*
X175402200Y-117053200D01*
G75*
G02*
X175267200Y-117188200I-135000J0D01*
G01*
G37*
G36*
G01*
X175267200Y-116168200D02*
X174897200Y-116168200D01*
G75*
G02*
X174762200Y-116033200I0J135000D01*
G01*
X174762200Y-115763200D01*
G75*
G02*
X174897200Y-115628200I135000J0D01*
G01*
X175267200Y-115628200D01*
G75*
G02*
X175402200Y-115763200I0J-135000D01*
G01*
X175402200Y-116033200D01*
G75*
G02*
X175267200Y-116168200I-135000J0D01*
G01*
G37*
D10*
X105907000Y-107868000D03*
X105907000Y-111868000D03*
X99957000Y-111868000D03*
X99957000Y-107868000D03*
X99957000Y-102268000D03*
X99957000Y-106268000D03*
X105907000Y-106268000D03*
X105907000Y-102268000D03*
D11*
X156841400Y-108343700D03*
X150041400Y-108343700D03*
D12*
X169000000Y-108350000D03*
X169000000Y-111650000D03*
D13*
X159720000Y-119616296D03*
D14*
X158720000Y-116916296D03*
X158070000Y-116916296D03*
X157420000Y-116916296D03*
X160020000Y-116916296D03*
X159370000Y-116916296D03*
D13*
X157720000Y-119616296D03*
D15*
X177332000Y-112418000D03*
X177332000Y-111118000D03*
X179332000Y-111768000D03*
G36*
G01*
X117155500Y-108375101D02*
X117155500Y-107825099D01*
G75*
G02*
X117405499Y-107575100I249999J0D01*
G01*
X117955501Y-107575100D01*
G75*
G02*
X118205500Y-107825099I0J-249999D01*
G01*
X118205500Y-108375101D01*
G75*
G02*
X117955501Y-108625100I-249999J0D01*
G01*
X117405499Y-108625100D01*
G75*
G02*
X117155500Y-108375101I0J249999D01*
G01*
G37*
G36*
G01*
X117155500Y-109675101D02*
X117155500Y-109125099D01*
G75*
G02*
X117405499Y-108875100I249999J0D01*
G01*
X117955501Y-108875100D01*
G75*
G02*
X118205500Y-109125099I0J-249999D01*
G01*
X118205500Y-109675101D01*
G75*
G02*
X117955501Y-109925100I-249999J0D01*
G01*
X117405499Y-109925100D01*
G75*
G02*
X117155500Y-109675101I0J249999D01*
G01*
G37*
G36*
G01*
X115855500Y-108375101D02*
X115855500Y-107825099D01*
G75*
G02*
X116105499Y-107575100I249999J0D01*
G01*
X116655501Y-107575100D01*
G75*
G02*
X116905500Y-107825099I0J-249999D01*
G01*
X116905500Y-108375101D01*
G75*
G02*
X116655501Y-108625100I-249999J0D01*
G01*
X116105499Y-108625100D01*
G75*
G02*
X115855500Y-108375101I0J249999D01*
G01*
G37*
G36*
G01*
X115855500Y-109675101D02*
X115855500Y-109125099D01*
G75*
G02*
X116105499Y-108875100I249999J0D01*
G01*
X116655501Y-108875100D01*
G75*
G02*
X116905500Y-109125099I0J-249999D01*
G01*
X116905500Y-109675101D01*
G75*
G02*
X116655501Y-109925100I-249999J0D01*
G01*
X116105499Y-109925100D01*
G75*
G02*
X115855500Y-109675101I0J249999D01*
G01*
G37*
G36*
G01*
X115655500Y-111037600D02*
X115655500Y-110337600D01*
G75*
G02*
X115718000Y-110275100I62500J0D01*
G01*
X115843000Y-110275100D01*
G75*
G02*
X115905500Y-110337600I0J-62500D01*
G01*
X115905500Y-111037600D01*
G75*
G02*
X115843000Y-111100100I-62500J0D01*
G01*
X115718000Y-111100100D01*
G75*
G02*
X115655500Y-111037600I0J62500D01*
G01*
G37*
G36*
G01*
X116155500Y-111037600D02*
X116155500Y-110337600D01*
G75*
G02*
X116218000Y-110275100I62500J0D01*
G01*
X116343000Y-110275100D01*
G75*
G02*
X116405500Y-110337600I0J-62500D01*
G01*
X116405500Y-111037600D01*
G75*
G02*
X116343000Y-111100100I-62500J0D01*
G01*
X116218000Y-111100100D01*
G75*
G02*
X116155500Y-111037600I0J62500D01*
G01*
G37*
G36*
G01*
X116655500Y-111037600D02*
X116655500Y-110337600D01*
G75*
G02*
X116718000Y-110275100I62500J0D01*
G01*
X116843000Y-110275100D01*
G75*
G02*
X116905500Y-110337600I0J-62500D01*
G01*
X116905500Y-111037600D01*
G75*
G02*
X116843000Y-111100100I-62500J0D01*
G01*
X116718000Y-111100100D01*
G75*
G02*
X116655500Y-111037600I0J62500D01*
G01*
G37*
G36*
G01*
X117155500Y-111037600D02*
X117155500Y-110337600D01*
G75*
G02*
X117218000Y-110275100I62500J0D01*
G01*
X117343000Y-110275100D01*
G75*
G02*
X117405500Y-110337600I0J-62500D01*
G01*
X117405500Y-111037600D01*
G75*
G02*
X117343000Y-111100100I-62500J0D01*
G01*
X117218000Y-111100100D01*
G75*
G02*
X117155500Y-111037600I0J62500D01*
G01*
G37*
G36*
G01*
X117655500Y-111037600D02*
X117655500Y-110337600D01*
G75*
G02*
X117718000Y-110275100I62500J0D01*
G01*
X117843000Y-110275100D01*
G75*
G02*
X117905500Y-110337600I0J-62500D01*
G01*
X117905500Y-111037600D01*
G75*
G02*
X117843000Y-111100100I-62500J0D01*
G01*
X117718000Y-111100100D01*
G75*
G02*
X117655500Y-111037600I0J62500D01*
G01*
G37*
G36*
G01*
X118155500Y-111037600D02*
X118155500Y-110337600D01*
G75*
G02*
X118218000Y-110275100I62500J0D01*
G01*
X118343000Y-110275100D01*
G75*
G02*
X118405500Y-110337600I0J-62500D01*
G01*
X118405500Y-111037600D01*
G75*
G02*
X118343000Y-111100100I-62500J0D01*
G01*
X118218000Y-111100100D01*
G75*
G02*
X118155500Y-111037600I0J62500D01*
G01*
G37*
G36*
G01*
X118555500Y-110062600D02*
X118555500Y-109937600D01*
G75*
G02*
X118618000Y-109875100I62500J0D01*
G01*
X119318000Y-109875100D01*
G75*
G02*
X119380500Y-109937600I0J-62500D01*
G01*
X119380500Y-110062600D01*
G75*
G02*
X119318000Y-110125100I-62500J0D01*
G01*
X118618000Y-110125100D01*
G75*
G02*
X118555500Y-110062600I0J62500D01*
G01*
G37*
G36*
G01*
X118555500Y-109562600D02*
X118555500Y-109437600D01*
G75*
G02*
X118618000Y-109375100I62500J0D01*
G01*
X119318000Y-109375100D01*
G75*
G02*
X119380500Y-109437600I0J-62500D01*
G01*
X119380500Y-109562600D01*
G75*
G02*
X119318000Y-109625100I-62500J0D01*
G01*
X118618000Y-109625100D01*
G75*
G02*
X118555500Y-109562600I0J62500D01*
G01*
G37*
G36*
G01*
X118555500Y-109062600D02*
X118555500Y-108937600D01*
G75*
G02*
X118618000Y-108875100I62500J0D01*
G01*
X119318000Y-108875100D01*
G75*
G02*
X119380500Y-108937600I0J-62500D01*
G01*
X119380500Y-109062600D01*
G75*
G02*
X119318000Y-109125100I-62500J0D01*
G01*
X118618000Y-109125100D01*
G75*
G02*
X118555500Y-109062600I0J62500D01*
G01*
G37*
G36*
G01*
X118555500Y-108562600D02*
X118555500Y-108437600D01*
G75*
G02*
X118618000Y-108375100I62500J0D01*
G01*
X119318000Y-108375100D01*
G75*
G02*
X119380500Y-108437600I0J-62500D01*
G01*
X119380500Y-108562600D01*
G75*
G02*
X119318000Y-108625100I-62500J0D01*
G01*
X118618000Y-108625100D01*
G75*
G02*
X118555500Y-108562600I0J62500D01*
G01*
G37*
G36*
G01*
X118555500Y-108062600D02*
X118555500Y-107937600D01*
G75*
G02*
X118618000Y-107875100I62500J0D01*
G01*
X119318000Y-107875100D01*
G75*
G02*
X119380500Y-107937600I0J-62500D01*
G01*
X119380500Y-108062600D01*
G75*
G02*
X119318000Y-108125100I-62500J0D01*
G01*
X118618000Y-108125100D01*
G75*
G02*
X118555500Y-108062600I0J62500D01*
G01*
G37*
G36*
G01*
X118555500Y-107562600D02*
X118555500Y-107437600D01*
G75*
G02*
X118618000Y-107375100I62500J0D01*
G01*
X119318000Y-107375100D01*
G75*
G02*
X119380500Y-107437600I0J-62500D01*
G01*
X119380500Y-107562600D01*
G75*
G02*
X119318000Y-107625100I-62500J0D01*
G01*
X118618000Y-107625100D01*
G75*
G02*
X118555500Y-107562600I0J62500D01*
G01*
G37*
G36*
G01*
X118155500Y-107162600D02*
X118155500Y-106462600D01*
G75*
G02*
X118218000Y-106400100I62500J0D01*
G01*
X118343000Y-106400100D01*
G75*
G02*
X118405500Y-106462600I0J-62500D01*
G01*
X118405500Y-107162600D01*
G75*
G02*
X118343000Y-107225100I-62500J0D01*
G01*
X118218000Y-107225100D01*
G75*
G02*
X118155500Y-107162600I0J62500D01*
G01*
G37*
G36*
G01*
X117655500Y-107162600D02*
X117655500Y-106462600D01*
G75*
G02*
X117718000Y-106400100I62500J0D01*
G01*
X117843000Y-106400100D01*
G75*
G02*
X117905500Y-106462600I0J-62500D01*
G01*
X117905500Y-107162600D01*
G75*
G02*
X117843000Y-107225100I-62500J0D01*
G01*
X117718000Y-107225100D01*
G75*
G02*
X117655500Y-107162600I0J62500D01*
G01*
G37*
G36*
G01*
X117155500Y-107162600D02*
X117155500Y-106462600D01*
G75*
G02*
X117218000Y-106400100I62500J0D01*
G01*
X117343000Y-106400100D01*
G75*
G02*
X117405500Y-106462600I0J-62500D01*
G01*
X117405500Y-107162600D01*
G75*
G02*
X117343000Y-107225100I-62500J0D01*
G01*
X117218000Y-107225100D01*
G75*
G02*
X117155500Y-107162600I0J62500D01*
G01*
G37*
G36*
G01*
X116655500Y-107162600D02*
X116655500Y-106462600D01*
G75*
G02*
X116718000Y-106400100I62500J0D01*
G01*
X116843000Y-106400100D01*
G75*
G02*
X116905500Y-106462600I0J-62500D01*
G01*
X116905500Y-107162600D01*
G75*
G02*
X116843000Y-107225100I-62500J0D01*
G01*
X116718000Y-107225100D01*
G75*
G02*
X116655500Y-107162600I0J62500D01*
G01*
G37*
G36*
G01*
X116155500Y-107162600D02*
X116155500Y-106462600D01*
G75*
G02*
X116218000Y-106400100I62500J0D01*
G01*
X116343000Y-106400100D01*
G75*
G02*
X116405500Y-106462600I0J-62500D01*
G01*
X116405500Y-107162600D01*
G75*
G02*
X116343000Y-107225100I-62500J0D01*
G01*
X116218000Y-107225100D01*
G75*
G02*
X116155500Y-107162600I0J62500D01*
G01*
G37*
G36*
G01*
X115655500Y-107162600D02*
X115655500Y-106462600D01*
G75*
G02*
X115718000Y-106400100I62500J0D01*
G01*
X115843000Y-106400100D01*
G75*
G02*
X115905500Y-106462600I0J-62500D01*
G01*
X115905500Y-107162600D01*
G75*
G02*
X115843000Y-107225100I-62500J0D01*
G01*
X115718000Y-107225100D01*
G75*
G02*
X115655500Y-107162600I0J62500D01*
G01*
G37*
G36*
G01*
X114680500Y-107562600D02*
X114680500Y-107437600D01*
G75*
G02*
X114743000Y-107375100I62500J0D01*
G01*
X115443000Y-107375100D01*
G75*
G02*
X115505500Y-107437600I0J-62500D01*
G01*
X115505500Y-107562600D01*
G75*
G02*
X115443000Y-107625100I-62500J0D01*
G01*
X114743000Y-107625100D01*
G75*
G02*
X114680500Y-107562600I0J62500D01*
G01*
G37*
G36*
G01*
X114680500Y-108062600D02*
X114680500Y-107937600D01*
G75*
G02*
X114743000Y-107875100I62500J0D01*
G01*
X115443000Y-107875100D01*
G75*
G02*
X115505500Y-107937600I0J-62500D01*
G01*
X115505500Y-108062600D01*
G75*
G02*
X115443000Y-108125100I-62500J0D01*
G01*
X114743000Y-108125100D01*
G75*
G02*
X114680500Y-108062600I0J62500D01*
G01*
G37*
G36*
G01*
X114680500Y-108562600D02*
X114680500Y-108437600D01*
G75*
G02*
X114743000Y-108375100I62500J0D01*
G01*
X115443000Y-108375100D01*
G75*
G02*
X115505500Y-108437600I0J-62500D01*
G01*
X115505500Y-108562600D01*
G75*
G02*
X115443000Y-108625100I-62500J0D01*
G01*
X114743000Y-108625100D01*
G75*
G02*
X114680500Y-108562600I0J62500D01*
G01*
G37*
G36*
G01*
X114680500Y-109062600D02*
X114680500Y-108937600D01*
G75*
G02*
X114743000Y-108875100I62500J0D01*
G01*
X115443000Y-108875100D01*
G75*
G02*
X115505500Y-108937600I0J-62500D01*
G01*
X115505500Y-109062600D01*
G75*
G02*
X115443000Y-109125100I-62500J0D01*
G01*
X114743000Y-109125100D01*
G75*
G02*
X114680500Y-109062600I0J62500D01*
G01*
G37*
G36*
G01*
X114680500Y-109562600D02*
X114680500Y-109437600D01*
G75*
G02*
X114743000Y-109375100I62500J0D01*
G01*
X115443000Y-109375100D01*
G75*
G02*
X115505500Y-109437600I0J-62500D01*
G01*
X115505500Y-109562600D01*
G75*
G02*
X115443000Y-109625100I-62500J0D01*
G01*
X114743000Y-109625100D01*
G75*
G02*
X114680500Y-109562600I0J62500D01*
G01*
G37*
G36*
G01*
X114680500Y-110062600D02*
X114680500Y-109937600D01*
G75*
G02*
X114743000Y-109875100I62500J0D01*
G01*
X115443000Y-109875100D01*
G75*
G02*
X115505500Y-109937600I0J-62500D01*
G01*
X115505500Y-110062600D01*
G75*
G02*
X115443000Y-110125100I-62500J0D01*
G01*
X114743000Y-110125100D01*
G75*
G02*
X114680500Y-110062600I0J62500D01*
G01*
G37*
G36*
G01*
X103040000Y-120170000D02*
X103040000Y-119830000D01*
G75*
G02*
X103180000Y-119690000I140000J0D01*
G01*
X103460000Y-119690000D01*
G75*
G02*
X103600000Y-119830000I0J-140000D01*
G01*
X103600000Y-120170000D01*
G75*
G02*
X103460000Y-120310000I-140000J0D01*
G01*
X103180000Y-120310000D01*
G75*
G02*
X103040000Y-120170000I0J140000D01*
G01*
G37*
G36*
G01*
X104000000Y-120170000D02*
X104000000Y-119830000D01*
G75*
G02*
X104140000Y-119690000I140000J0D01*
G01*
X104420000Y-119690000D01*
G75*
G02*
X104560000Y-119830000I0J-140000D01*
G01*
X104560000Y-120170000D01*
G75*
G02*
X104420000Y-120310000I-140000J0D01*
G01*
X104140000Y-120310000D01*
G75*
G02*
X104000000Y-120170000I0J140000D01*
G01*
G37*
G36*
G01*
X100920000Y-98770000D02*
X100920000Y-98430000D01*
G75*
G02*
X101060000Y-98290000I140000J0D01*
G01*
X101340000Y-98290000D01*
G75*
G02*
X101480000Y-98430000I0J-140000D01*
G01*
X101480000Y-98770000D01*
G75*
G02*
X101340000Y-98910000I-140000J0D01*
G01*
X101060000Y-98910000D01*
G75*
G02*
X100920000Y-98770000I0J140000D01*
G01*
G37*
G36*
G01*
X101880000Y-98770000D02*
X101880000Y-98430000D01*
G75*
G02*
X102020000Y-98290000I140000J0D01*
G01*
X102300000Y-98290000D01*
G75*
G02*
X102440000Y-98430000I0J-140000D01*
G01*
X102440000Y-98770000D01*
G75*
G02*
X102300000Y-98910000I-140000J0D01*
G01*
X102020000Y-98910000D01*
G75*
G02*
X101880000Y-98770000I0J140000D01*
G01*
G37*
G36*
G01*
X125823800Y-109401000D02*
X125483800Y-109401000D01*
G75*
G02*
X125343800Y-109261000I0J140000D01*
G01*
X125343800Y-108981000D01*
G75*
G02*
X125483800Y-108841000I140000J0D01*
G01*
X125823800Y-108841000D01*
G75*
G02*
X125963800Y-108981000I0J-140000D01*
G01*
X125963800Y-109261000D01*
G75*
G02*
X125823800Y-109401000I-140000J0D01*
G01*
G37*
G36*
G01*
X125823800Y-110361000D02*
X125483800Y-110361000D01*
G75*
G02*
X125343800Y-110221000I0J140000D01*
G01*
X125343800Y-109941000D01*
G75*
G02*
X125483800Y-109801000I140000J0D01*
G01*
X125823800Y-109801000D01*
G75*
G02*
X125963800Y-109941000I0J-140000D01*
G01*
X125963800Y-110221000D01*
G75*
G02*
X125823800Y-110361000I-140000J0D01*
G01*
G37*
G36*
G01*
X116330100Y-102699700D02*
X115990100Y-102699700D01*
G75*
G02*
X115850100Y-102559700I0J140000D01*
G01*
X115850100Y-102279700D01*
G75*
G02*
X115990100Y-102139700I140000J0D01*
G01*
X116330100Y-102139700D01*
G75*
G02*
X116470100Y-102279700I0J-140000D01*
G01*
X116470100Y-102559700D01*
G75*
G02*
X116330100Y-102699700I-140000J0D01*
G01*
G37*
G36*
G01*
X116330100Y-101739700D02*
X115990100Y-101739700D01*
G75*
G02*
X115850100Y-101599700I0J140000D01*
G01*
X115850100Y-101319700D01*
G75*
G02*
X115990100Y-101179700I140000J0D01*
G01*
X116330100Y-101179700D01*
G75*
G02*
X116470100Y-101319700I0J-140000D01*
G01*
X116470100Y-101599700D01*
G75*
G02*
X116330100Y-101739700I-140000J0D01*
G01*
G37*
G36*
G01*
X114058880Y-112899920D02*
X114398880Y-112899920D01*
G75*
G02*
X114538880Y-113039920I0J-140000D01*
G01*
X114538880Y-113319920D01*
G75*
G02*
X114398880Y-113459920I-140000J0D01*
G01*
X114058880Y-113459920D01*
G75*
G02*
X113918880Y-113319920I0J140000D01*
G01*
X113918880Y-113039920D01*
G75*
G02*
X114058880Y-112899920I140000J0D01*
G01*
G37*
G36*
G01*
X114058880Y-113859920D02*
X114398880Y-113859920D01*
G75*
G02*
X114538880Y-113999920I0J-140000D01*
G01*
X114538880Y-114279920D01*
G75*
G02*
X114398880Y-114419920I-140000J0D01*
G01*
X114058880Y-114419920D01*
G75*
G02*
X113918880Y-114279920I0J140000D01*
G01*
X113918880Y-113999920D01*
G75*
G02*
X114058880Y-113859920I140000J0D01*
G01*
G37*
G36*
G01*
X115330100Y-102699700D02*
X114990100Y-102699700D01*
G75*
G02*
X114850100Y-102559700I0J140000D01*
G01*
X114850100Y-102279700D01*
G75*
G02*
X114990100Y-102139700I140000J0D01*
G01*
X115330100Y-102139700D01*
G75*
G02*
X115470100Y-102279700I0J-140000D01*
G01*
X115470100Y-102559700D01*
G75*
G02*
X115330100Y-102699700I-140000J0D01*
G01*
G37*
G36*
G01*
X115330100Y-101739700D02*
X114990100Y-101739700D01*
G75*
G02*
X114850100Y-101599700I0J140000D01*
G01*
X114850100Y-101319700D01*
G75*
G02*
X114990100Y-101179700I140000J0D01*
G01*
X115330100Y-101179700D01*
G75*
G02*
X115470100Y-101319700I0J-140000D01*
G01*
X115470100Y-101599700D01*
G75*
G02*
X115330100Y-101739700I-140000J0D01*
G01*
G37*
G36*
G01*
X119436400Y-101752400D02*
X119096400Y-101752400D01*
G75*
G02*
X118956400Y-101612400I0J140000D01*
G01*
X118956400Y-101332400D01*
G75*
G02*
X119096400Y-101192400I140000J0D01*
G01*
X119436400Y-101192400D01*
G75*
G02*
X119576400Y-101332400I0J-140000D01*
G01*
X119576400Y-101612400D01*
G75*
G02*
X119436400Y-101752400I-140000J0D01*
G01*
G37*
G36*
G01*
X119436400Y-102712400D02*
X119096400Y-102712400D01*
G75*
G02*
X118956400Y-102572400I0J140000D01*
G01*
X118956400Y-102292400D01*
G75*
G02*
X119096400Y-102152400I140000J0D01*
G01*
X119436400Y-102152400D01*
G75*
G02*
X119576400Y-102292400I0J-140000D01*
G01*
X119576400Y-102572400D01*
G75*
G02*
X119436400Y-102712400I-140000J0D01*
G01*
G37*
G36*
G01*
X118436400Y-102712400D02*
X118096400Y-102712400D01*
G75*
G02*
X117956400Y-102572400I0J140000D01*
G01*
X117956400Y-102292400D01*
G75*
G02*
X118096400Y-102152400I140000J0D01*
G01*
X118436400Y-102152400D01*
G75*
G02*
X118576400Y-102292400I0J-140000D01*
G01*
X118576400Y-102572400D01*
G75*
G02*
X118436400Y-102712400I-140000J0D01*
G01*
G37*
G36*
G01*
X118436400Y-101752400D02*
X118096400Y-101752400D01*
G75*
G02*
X117956400Y-101612400I0J140000D01*
G01*
X117956400Y-101332400D01*
G75*
G02*
X118096400Y-101192400I140000J0D01*
G01*
X118436400Y-101192400D01*
G75*
G02*
X118576400Y-101332400I0J-140000D01*
G01*
X118576400Y-101612400D01*
G75*
G02*
X118436400Y-101752400I-140000J0D01*
G01*
G37*
G36*
G01*
X126997280Y-109390840D02*
X126657280Y-109390840D01*
G75*
G02*
X126517280Y-109250840I0J140000D01*
G01*
X126517280Y-108970840D01*
G75*
G02*
X126657280Y-108830840I140000J0D01*
G01*
X126997280Y-108830840D01*
G75*
G02*
X127137280Y-108970840I0J-140000D01*
G01*
X127137280Y-109250840D01*
G75*
G02*
X126997280Y-109390840I-140000J0D01*
G01*
G37*
G36*
G01*
X126997280Y-110350840D02*
X126657280Y-110350840D01*
G75*
G02*
X126517280Y-110210840I0J140000D01*
G01*
X126517280Y-109930840D01*
G75*
G02*
X126657280Y-109790840I140000J0D01*
G01*
X126997280Y-109790840D01*
G75*
G02*
X127137280Y-109930840I0J-140000D01*
G01*
X127137280Y-110210840D01*
G75*
G02*
X126997280Y-110350840I-140000J0D01*
G01*
G37*
G36*
G01*
X123796400Y-109174100D02*
X123796400Y-108834100D01*
G75*
G02*
X123936400Y-108694100I140000J0D01*
G01*
X124216400Y-108694100D01*
G75*
G02*
X124356400Y-108834100I0J-140000D01*
G01*
X124356400Y-109174100D01*
G75*
G02*
X124216400Y-109314100I-140000J0D01*
G01*
X123936400Y-109314100D01*
G75*
G02*
X123796400Y-109174100I0J140000D01*
G01*
G37*
G36*
G01*
X122836400Y-109174100D02*
X122836400Y-108834100D01*
G75*
G02*
X122976400Y-108694100I140000J0D01*
G01*
X123256400Y-108694100D01*
G75*
G02*
X123396400Y-108834100I0J-140000D01*
G01*
X123396400Y-109174100D01*
G75*
G02*
X123256400Y-109314100I-140000J0D01*
G01*
X122976400Y-109314100D01*
G75*
G02*
X122836400Y-109174100I0J140000D01*
G01*
G37*
G36*
G01*
X172745400Y-117213600D02*
X172375400Y-117213600D01*
G75*
G02*
X172240400Y-117078600I0J135000D01*
G01*
X172240400Y-116808600D01*
G75*
G02*
X172375400Y-116673600I135000J0D01*
G01*
X172745400Y-116673600D01*
G75*
G02*
X172880400Y-116808600I0J-135000D01*
G01*
X172880400Y-117078600D01*
G75*
G02*
X172745400Y-117213600I-135000J0D01*
G01*
G37*
G36*
G01*
X172745400Y-116193600D02*
X172375400Y-116193600D01*
G75*
G02*
X172240400Y-116058600I0J135000D01*
G01*
X172240400Y-115788600D01*
G75*
G02*
X172375400Y-115653600I135000J0D01*
G01*
X172745400Y-115653600D01*
G75*
G02*
X172880400Y-115788600I0J-135000D01*
G01*
X172880400Y-116058600D01*
G75*
G02*
X172745400Y-116193600I-135000J0D01*
G01*
G37*
G36*
G01*
X170040000Y-98385000D02*
X170040000Y-98015000D01*
G75*
G02*
X170175000Y-97880000I135000J0D01*
G01*
X170445000Y-97880000D01*
G75*
G02*
X170580000Y-98015000I0J-135000D01*
G01*
X170580000Y-98385000D01*
G75*
G02*
X170445000Y-98520000I-135000J0D01*
G01*
X170175000Y-98520000D01*
G75*
G02*
X170040000Y-98385000I0J135000D01*
G01*
G37*
G36*
G01*
X169020000Y-98385000D02*
X169020000Y-98015000D01*
G75*
G02*
X169155000Y-97880000I135000J0D01*
G01*
X169425000Y-97880000D01*
G75*
G02*
X169560000Y-98015000I0J-135000D01*
G01*
X169560000Y-98385000D01*
G75*
G02*
X169425000Y-98520000I-135000J0D01*
G01*
X169155000Y-98520000D01*
G75*
G02*
X169020000Y-98385000I0J135000D01*
G01*
G37*
G36*
G01*
X175415000Y-111088000D02*
X175785000Y-111088000D01*
G75*
G02*
X175920000Y-111223000I0J-135000D01*
G01*
X175920000Y-111493000D01*
G75*
G02*
X175785000Y-111628000I-135000J0D01*
G01*
X175415000Y-111628000D01*
G75*
G02*
X175280000Y-111493000I0J135000D01*
G01*
X175280000Y-111223000D01*
G75*
G02*
X175415000Y-111088000I135000J0D01*
G01*
G37*
G36*
G01*
X175415000Y-112108000D02*
X175785000Y-112108000D01*
G75*
G02*
X175920000Y-112243000I0J-135000D01*
G01*
X175920000Y-112513000D01*
G75*
G02*
X175785000Y-112648000I-135000J0D01*
G01*
X175415000Y-112648000D01*
G75*
G02*
X175280000Y-112513000I0J135000D01*
G01*
X175280000Y-112243000D01*
G75*
G02*
X175415000Y-112108000I135000J0D01*
G01*
G37*
G36*
G01*
X176610000Y-106985000D02*
X176610000Y-106615000D01*
G75*
G02*
X176745000Y-106480000I135000J0D01*
G01*
X177015000Y-106480000D01*
G75*
G02*
X177150000Y-106615000I0J-135000D01*
G01*
X177150000Y-106985000D01*
G75*
G02*
X177015000Y-107120000I-135000J0D01*
G01*
X176745000Y-107120000D01*
G75*
G02*
X176610000Y-106985000I0J135000D01*
G01*
G37*
G36*
G01*
X177630000Y-106985000D02*
X177630000Y-106615000D01*
G75*
G02*
X177765000Y-106480000I135000J0D01*
G01*
X178035000Y-106480000D01*
G75*
G02*
X178170000Y-106615000I0J-135000D01*
G01*
X178170000Y-106985000D01*
G75*
G02*
X178035000Y-107120000I-135000J0D01*
G01*
X177765000Y-107120000D01*
G75*
G02*
X177630000Y-106985000I0J135000D01*
G01*
G37*
G36*
G01*
X113057520Y-114439920D02*
X112687520Y-114439920D01*
G75*
G02*
X112552520Y-114304920I0J135000D01*
G01*
X112552520Y-114034920D01*
G75*
G02*
X112687520Y-113899920I135000J0D01*
G01*
X113057520Y-113899920D01*
G75*
G02*
X113192520Y-114034920I0J-135000D01*
G01*
X113192520Y-114304920D01*
G75*
G02*
X113057520Y-114439920I-135000J0D01*
G01*
G37*
G36*
G01*
X113057520Y-113419920D02*
X112687520Y-113419920D01*
G75*
G02*
X112552520Y-113284920I0J135000D01*
G01*
X112552520Y-113014920D01*
G75*
G02*
X112687520Y-112879920I135000J0D01*
G01*
X113057520Y-112879920D01*
G75*
G02*
X113192520Y-113014920I0J-135000D01*
G01*
X113192520Y-113284920D01*
G75*
G02*
X113057520Y-113419920I-135000J0D01*
G01*
G37*
G36*
G01*
X115135440Y-115323200D02*
X115135440Y-114953200D01*
G75*
G02*
X115270440Y-114818200I135000J0D01*
G01*
X115540440Y-114818200D01*
G75*
G02*
X115675440Y-114953200I0J-135000D01*
G01*
X115675440Y-115323200D01*
G75*
G02*
X115540440Y-115458200I-135000J0D01*
G01*
X115270440Y-115458200D01*
G75*
G02*
X115135440Y-115323200I0J135000D01*
G01*
G37*
G36*
G01*
X116155440Y-115323200D02*
X116155440Y-114953200D01*
G75*
G02*
X116290440Y-114818200I135000J0D01*
G01*
X116560440Y-114818200D01*
G75*
G02*
X116695440Y-114953200I0J-135000D01*
G01*
X116695440Y-115323200D01*
G75*
G02*
X116560440Y-115458200I-135000J0D01*
G01*
X116290440Y-115458200D01*
G75*
G02*
X116155440Y-115323200I0J135000D01*
G01*
G37*
G36*
G01*
X115132400Y-116620900D02*
X115132400Y-116250900D01*
G75*
G02*
X115267400Y-116115900I135000J0D01*
G01*
X115537400Y-116115900D01*
G75*
G02*
X115672400Y-116250900I0J-135000D01*
G01*
X115672400Y-116620900D01*
G75*
G02*
X115537400Y-116755900I-135000J0D01*
G01*
X115267400Y-116755900D01*
G75*
G02*
X115132400Y-116620900I0J135000D01*
G01*
G37*
G36*
G01*
X116152400Y-116620900D02*
X116152400Y-116250900D01*
G75*
G02*
X116287400Y-116115900I135000J0D01*
G01*
X116557400Y-116115900D01*
G75*
G02*
X116692400Y-116250900I0J-135000D01*
G01*
X116692400Y-116620900D01*
G75*
G02*
X116557400Y-116755900I-135000J0D01*
G01*
X116287400Y-116755900D01*
G75*
G02*
X116152400Y-116620900I0J135000D01*
G01*
G37*
G36*
G01*
X116152400Y-117914000D02*
X116152400Y-117544000D01*
G75*
G02*
X116287400Y-117409000I135000J0D01*
G01*
X116557400Y-117409000D01*
G75*
G02*
X116692400Y-117544000I0J-135000D01*
G01*
X116692400Y-117914000D01*
G75*
G02*
X116557400Y-118049000I-135000J0D01*
G01*
X116287400Y-118049000D01*
G75*
G02*
X116152400Y-117914000I0J135000D01*
G01*
G37*
G36*
G01*
X115132400Y-117914000D02*
X115132400Y-117544000D01*
G75*
G02*
X115267400Y-117409000I135000J0D01*
G01*
X115537400Y-117409000D01*
G75*
G02*
X115672400Y-117544000I0J-135000D01*
G01*
X115672400Y-117914000D01*
G75*
G02*
X115537400Y-118049000I-135000J0D01*
G01*
X115267400Y-118049000D01*
G75*
G02*
X115132400Y-117914000I0J135000D01*
G01*
G37*
G36*
G01*
X123381800Y-110051000D02*
X123381800Y-110421000D01*
G75*
G02*
X123246800Y-110556000I-135000J0D01*
G01*
X122976800Y-110556000D01*
G75*
G02*
X122841800Y-110421000I0J135000D01*
G01*
X122841800Y-110051000D01*
G75*
G02*
X122976800Y-109916000I135000J0D01*
G01*
X123246800Y-109916000D01*
G75*
G02*
X123381800Y-110051000I0J-135000D01*
G01*
G37*
G36*
G01*
X124401800Y-110051000D02*
X124401800Y-110421000D01*
G75*
G02*
X124266800Y-110556000I-135000J0D01*
G01*
X123996800Y-110556000D01*
G75*
G02*
X123861800Y-110421000I0J135000D01*
G01*
X123861800Y-110051000D01*
G75*
G02*
X123996800Y-109916000I135000J0D01*
G01*
X124266800Y-109916000D01*
G75*
G02*
X124401800Y-110051000I0J-135000D01*
G01*
G37*
M02*
