G04 #@! TF.GenerationSoftware,KiCad,Pcbnew,(5.1.10)-1*
G04 #@! TF.CreationDate,2021-09-04T12:41:49+02:00*
G04 #@! TF.ProjectId,POE_hat_and_USB,504f455f-6861-4745-9f61-6e645f555342,1.0*
G04 #@! TF.SameCoordinates,Original*
G04 #@! TF.FileFunction,Legend,Bot*
G04 #@! TF.FilePolarity,Positive*
%FSLAX46Y46*%
G04 Gerber Fmt 4.6, Leading zero omitted, Abs format (unit mm)*
G04 Created by KiCad (PCBNEW (5.1.10)-1) date 2021-09-04 12:41:49*
%MOMM*%
%LPD*%
G01*
G04 APERTURE LIST*
%ADD10C,0.120000*%
%ADD11C,0.150000*%
%ADD12O,1.802000X1.802000*%
%ADD13C,2.802000*%
%ADD14O,1.302000X1.702000*%
%ADD15O,1.302000X1.302000*%
%ADD16C,1.602000*%
%ADD17C,3.352000*%
%ADD18C,2.402000*%
%ADD19O,1.302000X2.002000*%
%ADD20C,1.552000*%
%ADD21C,0.100000*%
G04 APERTURE END LIST*
D10*
X124572000Y-91968000D02*
X124572000Y-94568000D01*
X124572000Y-91968000D02*
X175492000Y-91968000D01*
X175492000Y-91968000D02*
X175492000Y-97168000D01*
X127172000Y-97168000D02*
X175492000Y-97168000D01*
X127172000Y-94568000D02*
X127172000Y-97168000D01*
X124572000Y-94568000D02*
X127172000Y-94568000D01*
X124572000Y-97168000D02*
X125902000Y-97168000D01*
X124572000Y-95838000D02*
X124572000Y-97168000D01*
X175462200Y-116561841D02*
X175462200Y-116254559D01*
X174702200Y-116561841D02*
X174702200Y-116254559D01*
X100632000Y-107468000D02*
X100632000Y-107268000D01*
X100632000Y-107268000D02*
X106432000Y-107268000D01*
X100632000Y-112268000D02*
X100632000Y-112468000D01*
X100632000Y-112468000D02*
X105232000Y-112468000D01*
X105232000Y-112468000D02*
X105232000Y-112268000D01*
X100632000Y-108368000D02*
X100632000Y-111368000D01*
X105232000Y-111368000D02*
X105232000Y-108368000D01*
X105232000Y-105768000D02*
X105232000Y-102768000D01*
X100632000Y-102768000D02*
X100632000Y-105768000D01*
X105232000Y-106868000D02*
X105232000Y-106668000D01*
X100632000Y-106868000D02*
X105232000Y-106868000D01*
X100632000Y-106668000D02*
X100632000Y-106868000D01*
X100632000Y-101668000D02*
X106432000Y-101668000D01*
X100632000Y-101868000D02*
X100632000Y-101668000D01*
X148641400Y-111593700D02*
X157041400Y-111593700D01*
X148641400Y-105093700D02*
X157041400Y-105093700D01*
X148641400Y-105093700D02*
X148641400Y-111593700D01*
X168000000Y-107750000D02*
X170000000Y-107750000D01*
X170000000Y-107750000D02*
X170000000Y-111650000D01*
X168000000Y-107750000D02*
X168000000Y-111650000D01*
X160420000Y-116066296D02*
X160420000Y-116516296D01*
X160420000Y-116066296D02*
X159970000Y-116066296D01*
X154820000Y-116616296D02*
X155270000Y-116616296D01*
X154820000Y-118466296D02*
X154820000Y-116616296D01*
X162620000Y-121016296D02*
X162620000Y-120766296D01*
X154820000Y-121016296D02*
X154820000Y-120766296D01*
X162620000Y-118466296D02*
X162620000Y-116616296D01*
X162620000Y-116616296D02*
X162170000Y-116616296D01*
X172000000Y-108600000D02*
X171400000Y-108600000D01*
X172700000Y-110700000D02*
X172700000Y-109300000D01*
X171400000Y-111400000D02*
X172000000Y-111400000D01*
X170700000Y-109300000D02*
X170700000Y-110700000D01*
X170700000Y-110700000D02*
G75*
G03*
X171400000Y-111400000I700000J0D01*
G01*
X172000000Y-111400000D02*
G75*
G03*
X172700000Y-110700000I0J700000D01*
G01*
X172700000Y-109300000D02*
G75*
G03*
X172000000Y-108600000I-700000J0D01*
G01*
X171400000Y-108600000D02*
G75*
G03*
X170700000Y-109300000I0J-700000D01*
G01*
X179062000Y-111268000D02*
X179062000Y-110608000D01*
X179062000Y-112928000D02*
X179062000Y-112268000D01*
X179062000Y-112928000D02*
X177032000Y-112928000D01*
X177652000Y-110608000D02*
X179062000Y-110608000D01*
X115395500Y-110860100D02*
X114920500Y-110860100D01*
X119140500Y-106640100D02*
X119140500Y-107115100D01*
X118665500Y-106640100D02*
X119140500Y-106640100D01*
X114920500Y-106640100D02*
X114920500Y-107115100D01*
X115395500Y-106640100D02*
X114920500Y-106640100D01*
X119140500Y-110860100D02*
X119140500Y-110385100D01*
X118665500Y-110860100D02*
X119140500Y-110860100D01*
X103692164Y-120360000D02*
X103907836Y-120360000D01*
X103692164Y-119640000D02*
X103907836Y-119640000D01*
X101572164Y-98960000D02*
X101787836Y-98960000D01*
X101572164Y-98240000D02*
X101787836Y-98240000D01*
X125293800Y-109708836D02*
X125293800Y-109493164D01*
X126013800Y-109708836D02*
X126013800Y-109493164D01*
X116520100Y-102047536D02*
X116520100Y-101831864D01*
X115800100Y-102047536D02*
X115800100Y-101831864D01*
X113868880Y-113552084D02*
X113868880Y-113767756D01*
X114588880Y-113552084D02*
X114588880Y-113767756D01*
X115520100Y-102047536D02*
X115520100Y-101831864D01*
X114800100Y-102047536D02*
X114800100Y-101831864D01*
X118906400Y-102060236D02*
X118906400Y-101844564D01*
X119626400Y-102060236D02*
X119626400Y-101844564D01*
X118626400Y-102060236D02*
X118626400Y-101844564D01*
X117906400Y-102060236D02*
X117906400Y-101844564D01*
X126467280Y-109698676D02*
X126467280Y-109483004D01*
X127187280Y-109698676D02*
X127187280Y-109483004D01*
X123488564Y-108644100D02*
X123704236Y-108644100D01*
X123488564Y-109364100D02*
X123704236Y-109364100D01*
X172940400Y-116587241D02*
X172940400Y-116279959D01*
X172180400Y-116587241D02*
X172180400Y-116279959D01*
X169646359Y-97820000D02*
X169953641Y-97820000D01*
X169646359Y-98580000D02*
X169953641Y-98580000D01*
X175220000Y-111714359D02*
X175220000Y-112021641D01*
X175980000Y-111714359D02*
X175980000Y-112021641D01*
X177236359Y-107180000D02*
X177543641Y-107180000D01*
X177236359Y-106420000D02*
X177543641Y-106420000D01*
X113252520Y-113813561D02*
X113252520Y-113506279D01*
X112492520Y-113813561D02*
X112492520Y-113506279D01*
X115761799Y-115518200D02*
X116069081Y-115518200D01*
X115761799Y-114758200D02*
X116069081Y-114758200D01*
X115758759Y-116815900D02*
X116066041Y-116815900D01*
X115758759Y-116055900D02*
X116066041Y-116055900D01*
X115758759Y-117349000D02*
X116066041Y-117349000D01*
X115758759Y-118109000D02*
X116066041Y-118109000D01*
X123775441Y-110616000D02*
X123468159Y-110616000D01*
X123775441Y-109856000D02*
X123468159Y-109856000D01*
D11*
X126228333Y-98339380D02*
X126228333Y-99053666D01*
X126275952Y-99196523D01*
X126371190Y-99291761D01*
X126514047Y-99339380D01*
X126609285Y-99339380D01*
X125228333Y-99339380D02*
X125799761Y-99339380D01*
X125514047Y-99339380D02*
X125514047Y-98339380D01*
X125609285Y-98482238D01*
X125704523Y-98577476D01*
X125799761Y-98625095D01*
X175717857Y-115259380D02*
X176051190Y-114783190D01*
X176289285Y-115259380D02*
X176289285Y-114259380D01*
X175908333Y-114259380D01*
X175813095Y-114307000D01*
X175765476Y-114354619D01*
X175717857Y-114449857D01*
X175717857Y-114592714D01*
X175765476Y-114687952D01*
X175813095Y-114735571D01*
X175908333Y-114783190D01*
X176289285Y-114783190D01*
X174765476Y-115259380D02*
X175336904Y-115259380D01*
X175051190Y-115259380D02*
X175051190Y-114259380D01*
X175146428Y-114402238D01*
X175241666Y-114497476D01*
X175336904Y-114545095D01*
X174432142Y-114259380D02*
X173813095Y-114259380D01*
X174146428Y-114640333D01*
X174003571Y-114640333D01*
X173908333Y-114687952D01*
X173860714Y-114735571D01*
X173813095Y-114830809D01*
X173813095Y-115068904D01*
X173860714Y-115164142D01*
X173908333Y-115211761D01*
X174003571Y-115259380D01*
X174289285Y-115259380D01*
X174384523Y-115211761D01*
X174432142Y-115164142D01*
X107538095Y-110352380D02*
X107538095Y-109352380D01*
X107300000Y-109352380D01*
X107157142Y-109400000D01*
X107061904Y-109495238D01*
X107014285Y-109590476D01*
X106966666Y-109780952D01*
X106966666Y-109923809D01*
X107014285Y-110114285D01*
X107061904Y-110209523D01*
X107157142Y-110304761D01*
X107300000Y-110352380D01*
X107538095Y-110352380D01*
X106014285Y-110352380D02*
X106585714Y-110352380D01*
X106300000Y-110352380D02*
X106300000Y-109352380D01*
X106395238Y-109495238D01*
X106490476Y-109590476D01*
X106585714Y-109638095D01*
X107438095Y-104752380D02*
X107438095Y-103752380D01*
X107200000Y-103752380D01*
X107057142Y-103800000D01*
X106961904Y-103895238D01*
X106914285Y-103990476D01*
X106866666Y-104180952D01*
X106866666Y-104323809D01*
X106914285Y-104514285D01*
X106961904Y-104609523D01*
X107057142Y-104704761D01*
X107200000Y-104752380D01*
X107438095Y-104752380D01*
X106485714Y-103847619D02*
X106438095Y-103800000D01*
X106342857Y-103752380D01*
X106104761Y-103752380D01*
X106009523Y-103800000D01*
X105961904Y-103847619D01*
X105914285Y-103942857D01*
X105914285Y-104038095D01*
X105961904Y-104180952D01*
X106533333Y-104752380D01*
X105914285Y-104752380D01*
X148007295Y-108859580D02*
X148007295Y-107859580D01*
X147769200Y-107859580D01*
X147626342Y-107907200D01*
X147531104Y-108002438D01*
X147483485Y-108097676D01*
X147435866Y-108288152D01*
X147435866Y-108431009D01*
X147483485Y-108621485D01*
X147531104Y-108716723D01*
X147626342Y-108811961D01*
X147769200Y-108859580D01*
X148007295Y-108859580D01*
X146531104Y-107859580D02*
X147007295Y-107859580D01*
X147054914Y-108335771D01*
X147007295Y-108288152D01*
X146912057Y-108240533D01*
X146673961Y-108240533D01*
X146578723Y-108288152D01*
X146531104Y-108335771D01*
X146483485Y-108431009D01*
X146483485Y-108669104D01*
X146531104Y-108764342D01*
X146578723Y-108811961D01*
X146673961Y-108859580D01*
X146912057Y-108859580D01*
X147007295Y-108811961D01*
X147054914Y-108764342D01*
X169743095Y-107019380D02*
X169743095Y-106019380D01*
X169505000Y-106019380D01*
X169362142Y-106067000D01*
X169266904Y-106162238D01*
X169219285Y-106257476D01*
X169171666Y-106447952D01*
X169171666Y-106590809D01*
X169219285Y-106781285D01*
X169266904Y-106876523D01*
X169362142Y-106971761D01*
X169505000Y-107019380D01*
X169743095Y-107019380D01*
X168600238Y-106447952D02*
X168695476Y-106400333D01*
X168743095Y-106352714D01*
X168790714Y-106257476D01*
X168790714Y-106209857D01*
X168743095Y-106114619D01*
X168695476Y-106067000D01*
X168600238Y-106019380D01*
X168409761Y-106019380D01*
X168314523Y-106067000D01*
X168266904Y-106114619D01*
X168219285Y-106209857D01*
X168219285Y-106257476D01*
X168266904Y-106352714D01*
X168314523Y-106400333D01*
X168409761Y-106447952D01*
X168600238Y-106447952D01*
X168695476Y-106495571D01*
X168743095Y-106543190D01*
X168790714Y-106638428D01*
X168790714Y-106828904D01*
X168743095Y-106924142D01*
X168695476Y-106971761D01*
X168600238Y-107019380D01*
X168409761Y-107019380D01*
X168314523Y-106971761D01*
X168266904Y-106924142D01*
X168219285Y-106828904D01*
X168219285Y-106638428D01*
X168266904Y-106543190D01*
X168314523Y-106495571D01*
X168409761Y-106447952D01*
X161068333Y-114729380D02*
X161068333Y-115443666D01*
X161115952Y-115586523D01*
X161211190Y-115681761D01*
X161354047Y-115729380D01*
X161449285Y-115729380D01*
X160449285Y-115157952D02*
X160544523Y-115110333D01*
X160592142Y-115062714D01*
X160639761Y-114967476D01*
X160639761Y-114919857D01*
X160592142Y-114824619D01*
X160544523Y-114777000D01*
X160449285Y-114729380D01*
X160258809Y-114729380D01*
X160163571Y-114777000D01*
X160115952Y-114824619D01*
X160068333Y-114919857D01*
X160068333Y-114967476D01*
X160115952Y-115062714D01*
X160163571Y-115110333D01*
X160258809Y-115157952D01*
X160449285Y-115157952D01*
X160544523Y-115205571D01*
X160592142Y-115253190D01*
X160639761Y-115348428D01*
X160639761Y-115538904D01*
X160592142Y-115634142D01*
X160544523Y-115681761D01*
X160449285Y-115729380D01*
X160258809Y-115729380D01*
X160163571Y-115681761D01*
X160115952Y-115634142D01*
X160068333Y-115538904D01*
X160068333Y-115348428D01*
X160115952Y-115253190D01*
X160163571Y-115205571D01*
X160258809Y-115157952D01*
X172518333Y-106889380D02*
X172518333Y-107603666D01*
X172565952Y-107746523D01*
X172661190Y-107841761D01*
X172804047Y-107889380D01*
X172899285Y-107889380D01*
X172042142Y-107889380D02*
X172042142Y-106889380D01*
X171661190Y-106889380D01*
X171565952Y-106937000D01*
X171518333Y-106984619D01*
X171470714Y-107079857D01*
X171470714Y-107222714D01*
X171518333Y-107317952D01*
X171565952Y-107365571D01*
X171661190Y-107413190D01*
X172042142Y-107413190D01*
X170518333Y-107889380D02*
X171089761Y-107889380D01*
X170804047Y-107889380D02*
X170804047Y-106889380D01*
X170899285Y-107032238D01*
X170994523Y-107127476D01*
X171089761Y-107175095D01*
X178377238Y-114265619D02*
X178472476Y-114218000D01*
X178567714Y-114122761D01*
X178710571Y-113979904D01*
X178805809Y-113932285D01*
X178901047Y-113932285D01*
X178853428Y-114170380D02*
X178948666Y-114122761D01*
X179043904Y-114027523D01*
X179091523Y-113837047D01*
X179091523Y-113503714D01*
X179043904Y-113313238D01*
X178948666Y-113218000D01*
X178853428Y-113170380D01*
X178662952Y-113170380D01*
X178567714Y-113218000D01*
X178472476Y-113313238D01*
X178424857Y-113503714D01*
X178424857Y-113837047D01*
X178472476Y-114027523D01*
X178567714Y-114122761D01*
X178662952Y-114170380D01*
X178853428Y-114170380D01*
X177472476Y-114170380D02*
X178043904Y-114170380D01*
X177758190Y-114170380D02*
X177758190Y-113170380D01*
X177853428Y-113313238D01*
X177948666Y-113408476D01*
X178043904Y-113456095D01*
X114806904Y-111149380D02*
X114806904Y-111958904D01*
X114759285Y-112054142D01*
X114711666Y-112101761D01*
X114616428Y-112149380D01*
X114425952Y-112149380D01*
X114330714Y-112101761D01*
X114283095Y-112054142D01*
X114235476Y-111958904D01*
X114235476Y-111149380D01*
X113806904Y-111244619D02*
X113759285Y-111197000D01*
X113664047Y-111149380D01*
X113425952Y-111149380D01*
X113330714Y-111197000D01*
X113283095Y-111244619D01*
X113235476Y-111339857D01*
X113235476Y-111435095D01*
X113283095Y-111577952D01*
X113854523Y-112149380D01*
X113235476Y-112149380D01*
X103966666Y-119157142D02*
X104014285Y-119204761D01*
X104157142Y-119252380D01*
X104252380Y-119252380D01*
X104395238Y-119204761D01*
X104490476Y-119109523D01*
X104538095Y-119014285D01*
X104585714Y-118823809D01*
X104585714Y-118680952D01*
X104538095Y-118490476D01*
X104490476Y-118395238D01*
X104395238Y-118300000D01*
X104252380Y-118252380D01*
X104157142Y-118252380D01*
X104014285Y-118300000D01*
X103966666Y-118347619D01*
X103490476Y-119252380D02*
X103300000Y-119252380D01*
X103204761Y-119204761D01*
X103157142Y-119157142D01*
X103061904Y-119014285D01*
X103014285Y-118823809D01*
X103014285Y-118442857D01*
X103061904Y-118347619D01*
X103109523Y-118300000D01*
X103204761Y-118252380D01*
X103395238Y-118252380D01*
X103490476Y-118300000D01*
X103538095Y-118347619D01*
X103585714Y-118442857D01*
X103585714Y-118680952D01*
X103538095Y-118776190D01*
X103490476Y-118823809D01*
X103395238Y-118871428D01*
X103204761Y-118871428D01*
X103109523Y-118823809D01*
X103061904Y-118776190D01*
X103014285Y-118680952D01*
X104742857Y-98957142D02*
X104790476Y-99004761D01*
X104933333Y-99052380D01*
X105028571Y-99052380D01*
X105171428Y-99004761D01*
X105266666Y-98909523D01*
X105314285Y-98814285D01*
X105361904Y-98623809D01*
X105361904Y-98480952D01*
X105314285Y-98290476D01*
X105266666Y-98195238D01*
X105171428Y-98100000D01*
X105028571Y-98052380D01*
X104933333Y-98052380D01*
X104790476Y-98100000D01*
X104742857Y-98147619D01*
X103790476Y-99052380D02*
X104361904Y-99052380D01*
X104076190Y-99052380D02*
X104076190Y-98052380D01*
X104171428Y-98195238D01*
X104266666Y-98290476D01*
X104361904Y-98338095D01*
X102885714Y-98052380D02*
X103361904Y-98052380D01*
X103409523Y-98528571D01*
X103361904Y-98480952D01*
X103266666Y-98433333D01*
X103028571Y-98433333D01*
X102933333Y-98480952D01*
X102885714Y-98528571D01*
X102838095Y-98623809D01*
X102838095Y-98861904D01*
X102885714Y-98957142D01*
X102933333Y-99004761D01*
X103028571Y-99052380D01*
X103266666Y-99052380D01*
X103361904Y-99004761D01*
X103409523Y-98957142D01*
X126032142Y-111394142D02*
X126079761Y-111346523D01*
X126127380Y-111203666D01*
X126127380Y-111108428D01*
X126079761Y-110965571D01*
X125984523Y-110870333D01*
X125889285Y-110822714D01*
X125698809Y-110775095D01*
X125555952Y-110775095D01*
X125365476Y-110822714D01*
X125270238Y-110870333D01*
X125175000Y-110965571D01*
X125127380Y-111108428D01*
X125127380Y-111203666D01*
X125175000Y-111346523D01*
X125222619Y-111394142D01*
X126127380Y-112346523D02*
X126127380Y-111775095D01*
X126127380Y-112060809D02*
X125127380Y-112060809D01*
X125270238Y-111965571D01*
X125365476Y-111870333D01*
X125413095Y-111775095D01*
X126127380Y-112822714D02*
X126127380Y-113013190D01*
X126079761Y-113108428D01*
X126032142Y-113156047D01*
X125889285Y-113251285D01*
X125698809Y-113298904D01*
X125317857Y-113298904D01*
X125222619Y-113251285D01*
X125175000Y-113203666D01*
X125127380Y-113108428D01*
X125127380Y-112917952D01*
X125175000Y-112822714D01*
X125222619Y-112775095D01*
X125317857Y-112727476D01*
X125555952Y-112727476D01*
X125651190Y-112775095D01*
X125698809Y-112822714D01*
X125746428Y-112917952D01*
X125746428Y-113108428D01*
X125698809Y-113203666D01*
X125651190Y-113251285D01*
X125555952Y-113298904D01*
X116532142Y-98794142D02*
X116579761Y-98746523D01*
X116627380Y-98603666D01*
X116627380Y-98508428D01*
X116579761Y-98365571D01*
X116484523Y-98270333D01*
X116389285Y-98222714D01*
X116198809Y-98175095D01*
X116055952Y-98175095D01*
X115865476Y-98222714D01*
X115770238Y-98270333D01*
X115675000Y-98365571D01*
X115627380Y-98508428D01*
X115627380Y-98603666D01*
X115675000Y-98746523D01*
X115722619Y-98794142D01*
X115722619Y-99175095D02*
X115675000Y-99222714D01*
X115627380Y-99317952D01*
X115627380Y-99556047D01*
X115675000Y-99651285D01*
X115722619Y-99698904D01*
X115817857Y-99746523D01*
X115913095Y-99746523D01*
X116055952Y-99698904D01*
X116627380Y-99127476D01*
X116627380Y-99746523D01*
X115627380Y-100365571D02*
X115627380Y-100460809D01*
X115675000Y-100556047D01*
X115722619Y-100603666D01*
X115817857Y-100651285D01*
X116008333Y-100698904D01*
X116246428Y-100698904D01*
X116436904Y-100651285D01*
X116532142Y-100603666D01*
X116579761Y-100556047D01*
X116627380Y-100460809D01*
X116627380Y-100365571D01*
X116579761Y-100270333D01*
X116532142Y-100222714D01*
X116436904Y-100175095D01*
X116246428Y-100127476D01*
X116008333Y-100127476D01*
X115817857Y-100175095D01*
X115722619Y-100222714D01*
X115675000Y-100270333D01*
X115627380Y-100365571D01*
X116797857Y-114004142D02*
X116845476Y-114051761D01*
X116988333Y-114099380D01*
X117083571Y-114099380D01*
X117226428Y-114051761D01*
X117321666Y-113956523D01*
X117369285Y-113861285D01*
X117416904Y-113670809D01*
X117416904Y-113527952D01*
X117369285Y-113337476D01*
X117321666Y-113242238D01*
X117226428Y-113147000D01*
X117083571Y-113099380D01*
X116988333Y-113099380D01*
X116845476Y-113147000D01*
X116797857Y-113194619D01*
X116416904Y-113194619D02*
X116369285Y-113147000D01*
X116274047Y-113099380D01*
X116035952Y-113099380D01*
X115940714Y-113147000D01*
X115893095Y-113194619D01*
X115845476Y-113289857D01*
X115845476Y-113385095D01*
X115893095Y-113527952D01*
X116464523Y-114099380D01*
X115845476Y-114099380D01*
X114893095Y-114099380D02*
X115464523Y-114099380D01*
X115178809Y-114099380D02*
X115178809Y-113099380D01*
X115274047Y-113242238D01*
X115369285Y-113337476D01*
X115464523Y-113385095D01*
X114962142Y-98794142D02*
X115009761Y-98746523D01*
X115057380Y-98603666D01*
X115057380Y-98508428D01*
X115009761Y-98365571D01*
X114914523Y-98270333D01*
X114819285Y-98222714D01*
X114628809Y-98175095D01*
X114485952Y-98175095D01*
X114295476Y-98222714D01*
X114200238Y-98270333D01*
X114105000Y-98365571D01*
X114057380Y-98508428D01*
X114057380Y-98603666D01*
X114105000Y-98746523D01*
X114152619Y-98794142D01*
X114152619Y-99175095D02*
X114105000Y-99222714D01*
X114057380Y-99317952D01*
X114057380Y-99556047D01*
X114105000Y-99651285D01*
X114152619Y-99698904D01*
X114247857Y-99746523D01*
X114343095Y-99746523D01*
X114485952Y-99698904D01*
X115057380Y-99127476D01*
X115057380Y-99746523D01*
X114152619Y-100127476D02*
X114105000Y-100175095D01*
X114057380Y-100270333D01*
X114057380Y-100508428D01*
X114105000Y-100603666D01*
X114152619Y-100651285D01*
X114247857Y-100698904D01*
X114343095Y-100698904D01*
X114485952Y-100651285D01*
X115057380Y-100079857D01*
X115057380Y-100698904D01*
X120212142Y-98794142D02*
X120259761Y-98746523D01*
X120307380Y-98603666D01*
X120307380Y-98508428D01*
X120259761Y-98365571D01*
X120164523Y-98270333D01*
X120069285Y-98222714D01*
X119878809Y-98175095D01*
X119735952Y-98175095D01*
X119545476Y-98222714D01*
X119450238Y-98270333D01*
X119355000Y-98365571D01*
X119307380Y-98508428D01*
X119307380Y-98603666D01*
X119355000Y-98746523D01*
X119402619Y-98794142D01*
X119402619Y-99175095D02*
X119355000Y-99222714D01*
X119307380Y-99317952D01*
X119307380Y-99556047D01*
X119355000Y-99651285D01*
X119402619Y-99698904D01*
X119497857Y-99746523D01*
X119593095Y-99746523D01*
X119735952Y-99698904D01*
X120307380Y-99127476D01*
X120307380Y-99746523D01*
X119640714Y-100603666D02*
X120307380Y-100603666D01*
X119259761Y-100365571D02*
X119974047Y-100127476D01*
X119974047Y-100746523D01*
X118652142Y-98794142D02*
X118699761Y-98746523D01*
X118747380Y-98603666D01*
X118747380Y-98508428D01*
X118699761Y-98365571D01*
X118604523Y-98270333D01*
X118509285Y-98222714D01*
X118318809Y-98175095D01*
X118175952Y-98175095D01*
X117985476Y-98222714D01*
X117890238Y-98270333D01*
X117795000Y-98365571D01*
X117747380Y-98508428D01*
X117747380Y-98603666D01*
X117795000Y-98746523D01*
X117842619Y-98794142D01*
X117842619Y-99175095D02*
X117795000Y-99222714D01*
X117747380Y-99317952D01*
X117747380Y-99556047D01*
X117795000Y-99651285D01*
X117842619Y-99698904D01*
X117937857Y-99746523D01*
X118033095Y-99746523D01*
X118175952Y-99698904D01*
X118747380Y-99127476D01*
X118747380Y-99746523D01*
X117747380Y-100603666D02*
X117747380Y-100413190D01*
X117795000Y-100317952D01*
X117842619Y-100270333D01*
X117985476Y-100175095D01*
X118175952Y-100127476D01*
X118556904Y-100127476D01*
X118652142Y-100175095D01*
X118699761Y-100222714D01*
X118747380Y-100317952D01*
X118747380Y-100508428D01*
X118699761Y-100603666D01*
X118652142Y-100651285D01*
X118556904Y-100698904D01*
X118318809Y-100698904D01*
X118223571Y-100651285D01*
X118175952Y-100603666D01*
X118128333Y-100508428D01*
X118128333Y-100317952D01*
X118175952Y-100222714D01*
X118223571Y-100175095D01*
X118318809Y-100127476D01*
X127492142Y-111394142D02*
X127539761Y-111346523D01*
X127587380Y-111203666D01*
X127587380Y-111108428D01*
X127539761Y-110965571D01*
X127444523Y-110870333D01*
X127349285Y-110822714D01*
X127158809Y-110775095D01*
X127015952Y-110775095D01*
X126825476Y-110822714D01*
X126730238Y-110870333D01*
X126635000Y-110965571D01*
X126587380Y-111108428D01*
X126587380Y-111203666D01*
X126635000Y-111346523D01*
X126682619Y-111394142D01*
X126682619Y-111775095D02*
X126635000Y-111822714D01*
X126587380Y-111917952D01*
X126587380Y-112156047D01*
X126635000Y-112251285D01*
X126682619Y-112298904D01*
X126777857Y-112346523D01*
X126873095Y-112346523D01*
X127015952Y-112298904D01*
X127587380Y-111727476D01*
X127587380Y-112346523D01*
X127015952Y-112917952D02*
X126968333Y-112822714D01*
X126920714Y-112775095D01*
X126825476Y-112727476D01*
X126777857Y-112727476D01*
X126682619Y-112775095D01*
X126635000Y-112822714D01*
X126587380Y-112917952D01*
X126587380Y-113108428D01*
X126635000Y-113203666D01*
X126682619Y-113251285D01*
X126777857Y-113298904D01*
X126825476Y-113298904D01*
X126920714Y-113251285D01*
X126968333Y-113203666D01*
X127015952Y-113108428D01*
X127015952Y-112917952D01*
X127063571Y-112822714D01*
X127111190Y-112775095D01*
X127206428Y-112727476D01*
X127396904Y-112727476D01*
X127492142Y-112775095D01*
X127539761Y-112822714D01*
X127587380Y-112917952D01*
X127587380Y-113108428D01*
X127539761Y-113203666D01*
X127492142Y-113251285D01*
X127396904Y-113298904D01*
X127206428Y-113298904D01*
X127111190Y-113251285D01*
X127063571Y-113203666D01*
X127015952Y-113108428D01*
X123707857Y-108184142D02*
X123755476Y-108231761D01*
X123898333Y-108279380D01*
X123993571Y-108279380D01*
X124136428Y-108231761D01*
X124231666Y-108136523D01*
X124279285Y-108041285D01*
X124326904Y-107850809D01*
X124326904Y-107707952D01*
X124279285Y-107517476D01*
X124231666Y-107422238D01*
X124136428Y-107327000D01*
X123993571Y-107279380D01*
X123898333Y-107279380D01*
X123755476Y-107327000D01*
X123707857Y-107374619D01*
X123326904Y-107374619D02*
X123279285Y-107327000D01*
X123184047Y-107279380D01*
X122945952Y-107279380D01*
X122850714Y-107327000D01*
X122803095Y-107374619D01*
X122755476Y-107469857D01*
X122755476Y-107565095D01*
X122803095Y-107707952D01*
X123374523Y-108279380D01*
X122755476Y-108279380D01*
X122279285Y-108279380D02*
X122088809Y-108279380D01*
X121993571Y-108231761D01*
X121945952Y-108184142D01*
X121850714Y-108041285D01*
X121803095Y-107850809D01*
X121803095Y-107469857D01*
X121850714Y-107374619D01*
X121898333Y-107327000D01*
X121993571Y-107279380D01*
X122184047Y-107279380D01*
X122279285Y-107327000D01*
X122326904Y-107374619D01*
X122374523Y-107469857D01*
X122374523Y-107707952D01*
X122326904Y-107803190D01*
X122279285Y-107850809D01*
X122184047Y-107898428D01*
X121993571Y-107898428D01*
X121898333Y-107850809D01*
X121850714Y-107803190D01*
X121803095Y-107707952D01*
X172471666Y-115219380D02*
X172805000Y-114743190D01*
X173043095Y-115219380D02*
X173043095Y-114219380D01*
X172662142Y-114219380D01*
X172566904Y-114267000D01*
X172519285Y-114314619D01*
X172471666Y-114409857D01*
X172471666Y-114552714D01*
X172519285Y-114647952D01*
X172566904Y-114695571D01*
X172662142Y-114743190D01*
X173043095Y-114743190D01*
X171995476Y-115219380D02*
X171805000Y-115219380D01*
X171709761Y-115171761D01*
X171662142Y-115124142D01*
X171566904Y-114981285D01*
X171519285Y-114790809D01*
X171519285Y-114409857D01*
X171566904Y-114314619D01*
X171614523Y-114267000D01*
X171709761Y-114219380D01*
X171900238Y-114219380D01*
X171995476Y-114267000D01*
X172043095Y-114314619D01*
X172090714Y-114409857D01*
X172090714Y-114647952D01*
X172043095Y-114743190D01*
X171995476Y-114790809D01*
X171900238Y-114838428D01*
X171709761Y-114838428D01*
X171614523Y-114790809D01*
X171566904Y-114743190D01*
X171519285Y-114647952D01*
X170442857Y-99899380D02*
X170776190Y-99423190D01*
X171014285Y-99899380D02*
X171014285Y-98899380D01*
X170633333Y-98899380D01*
X170538095Y-98947000D01*
X170490476Y-98994619D01*
X170442857Y-99089857D01*
X170442857Y-99232714D01*
X170490476Y-99327952D01*
X170538095Y-99375571D01*
X170633333Y-99423190D01*
X171014285Y-99423190D01*
X169490476Y-99899380D02*
X170061904Y-99899380D01*
X169776190Y-99899380D02*
X169776190Y-98899380D01*
X169871428Y-99042238D01*
X169966666Y-99137476D01*
X170061904Y-99185095D01*
X169109523Y-98994619D02*
X169061904Y-98947000D01*
X168966666Y-98899380D01*
X168728571Y-98899380D01*
X168633333Y-98947000D01*
X168585714Y-98994619D01*
X168538095Y-99089857D01*
X168538095Y-99185095D01*
X168585714Y-99327952D01*
X169157142Y-99899380D01*
X168538095Y-99899380D01*
X176242857Y-110452380D02*
X176576190Y-109976190D01*
X176814285Y-110452380D02*
X176814285Y-109452380D01*
X176433333Y-109452380D01*
X176338095Y-109500000D01*
X176290476Y-109547619D01*
X176242857Y-109642857D01*
X176242857Y-109785714D01*
X176290476Y-109880952D01*
X176338095Y-109928571D01*
X176433333Y-109976190D01*
X176814285Y-109976190D01*
X175290476Y-110452380D02*
X175861904Y-110452380D01*
X175576190Y-110452380D02*
X175576190Y-109452380D01*
X175671428Y-109595238D01*
X175766666Y-109690476D01*
X175861904Y-109738095D01*
X174433333Y-109785714D02*
X174433333Y-110452380D01*
X174671428Y-109404761D02*
X174909523Y-110119047D01*
X174290476Y-110119047D01*
X178057857Y-105979380D02*
X178391190Y-105503190D01*
X178629285Y-105979380D02*
X178629285Y-104979380D01*
X178248333Y-104979380D01*
X178153095Y-105027000D01*
X178105476Y-105074619D01*
X178057857Y-105169857D01*
X178057857Y-105312714D01*
X178105476Y-105407952D01*
X178153095Y-105455571D01*
X178248333Y-105503190D01*
X178629285Y-105503190D01*
X177105476Y-105979380D02*
X177676904Y-105979380D01*
X177391190Y-105979380D02*
X177391190Y-104979380D01*
X177486428Y-105122238D01*
X177581666Y-105217476D01*
X177676904Y-105265095D01*
X176200714Y-104979380D02*
X176676904Y-104979380D01*
X176724523Y-105455571D01*
X176676904Y-105407952D01*
X176581666Y-105360333D01*
X176343571Y-105360333D01*
X176248333Y-105407952D01*
X176200714Y-105455571D01*
X176153095Y-105550809D01*
X176153095Y-105788904D01*
X176200714Y-105884142D01*
X176248333Y-105931761D01*
X176343571Y-105979380D01*
X176581666Y-105979380D01*
X176676904Y-105931761D01*
X176724523Y-105884142D01*
X111437857Y-114109380D02*
X111771190Y-113633190D01*
X112009285Y-114109380D02*
X112009285Y-113109380D01*
X111628333Y-113109380D01*
X111533095Y-113157000D01*
X111485476Y-113204619D01*
X111437857Y-113299857D01*
X111437857Y-113442714D01*
X111485476Y-113537952D01*
X111533095Y-113585571D01*
X111628333Y-113633190D01*
X112009285Y-113633190D01*
X110485476Y-114109380D02*
X111056904Y-114109380D01*
X110771190Y-114109380D02*
X110771190Y-113109380D01*
X110866428Y-113252238D01*
X110961666Y-113347476D01*
X111056904Y-113395095D01*
X109628333Y-113109380D02*
X109818809Y-113109380D01*
X109914047Y-113157000D01*
X109961666Y-113204619D01*
X110056904Y-113347476D01*
X110104523Y-113537952D01*
X110104523Y-113918904D01*
X110056904Y-114014142D01*
X110009285Y-114061761D01*
X109914047Y-114109380D01*
X109723571Y-114109380D01*
X109628333Y-114061761D01*
X109580714Y-114014142D01*
X109533095Y-113918904D01*
X109533095Y-113680809D01*
X109580714Y-113585571D01*
X109628333Y-113537952D01*
X109723571Y-113490333D01*
X109914047Y-113490333D01*
X110009285Y-113537952D01*
X110056904Y-113585571D01*
X110104523Y-113680809D01*
X113977857Y-115809380D02*
X114311190Y-115333190D01*
X114549285Y-115809380D02*
X114549285Y-114809380D01*
X114168333Y-114809380D01*
X114073095Y-114857000D01*
X114025476Y-114904619D01*
X113977857Y-114999857D01*
X113977857Y-115142714D01*
X114025476Y-115237952D01*
X114073095Y-115285571D01*
X114168333Y-115333190D01*
X114549285Y-115333190D01*
X113025476Y-115809380D02*
X113596904Y-115809380D01*
X113311190Y-115809380D02*
X113311190Y-114809380D01*
X113406428Y-114952238D01*
X113501666Y-115047476D01*
X113596904Y-115095095D01*
X112692142Y-114809380D02*
X112025476Y-114809380D01*
X112454047Y-115809380D01*
X114017857Y-117349380D02*
X114351190Y-116873190D01*
X114589285Y-117349380D02*
X114589285Y-116349380D01*
X114208333Y-116349380D01*
X114113095Y-116397000D01*
X114065476Y-116444619D01*
X114017857Y-116539857D01*
X114017857Y-116682714D01*
X114065476Y-116777952D01*
X114113095Y-116825571D01*
X114208333Y-116873190D01*
X114589285Y-116873190D01*
X113065476Y-117349380D02*
X113636904Y-117349380D01*
X113351190Y-117349380D02*
X113351190Y-116349380D01*
X113446428Y-116492238D01*
X113541666Y-116587476D01*
X113636904Y-116635095D01*
X112494047Y-116777952D02*
X112589285Y-116730333D01*
X112636904Y-116682714D01*
X112684523Y-116587476D01*
X112684523Y-116539857D01*
X112636904Y-116444619D01*
X112589285Y-116397000D01*
X112494047Y-116349380D01*
X112303571Y-116349380D01*
X112208333Y-116397000D01*
X112160714Y-116444619D01*
X112113095Y-116539857D01*
X112113095Y-116587476D01*
X112160714Y-116682714D01*
X112208333Y-116730333D01*
X112303571Y-116777952D01*
X112494047Y-116777952D01*
X112589285Y-116825571D01*
X112636904Y-116873190D01*
X112684523Y-116968428D01*
X112684523Y-117158904D01*
X112636904Y-117254142D01*
X112589285Y-117301761D01*
X112494047Y-117349380D01*
X112303571Y-117349380D01*
X112208333Y-117301761D01*
X112160714Y-117254142D01*
X112113095Y-117158904D01*
X112113095Y-116968428D01*
X112160714Y-116873190D01*
X112208333Y-116825571D01*
X112303571Y-116777952D01*
X116617857Y-119529380D02*
X116951190Y-119053190D01*
X117189285Y-119529380D02*
X117189285Y-118529380D01*
X116808333Y-118529380D01*
X116713095Y-118577000D01*
X116665476Y-118624619D01*
X116617857Y-118719857D01*
X116617857Y-118862714D01*
X116665476Y-118957952D01*
X116713095Y-119005571D01*
X116808333Y-119053190D01*
X117189285Y-119053190D01*
X115665476Y-119529380D02*
X116236904Y-119529380D01*
X115951190Y-119529380D02*
X115951190Y-118529380D01*
X116046428Y-118672238D01*
X116141666Y-118767476D01*
X116236904Y-118815095D01*
X115189285Y-119529380D02*
X114998809Y-119529380D01*
X114903571Y-119481761D01*
X114855952Y-119434142D01*
X114760714Y-119291285D01*
X114713095Y-119100809D01*
X114713095Y-118719857D01*
X114760714Y-118624619D01*
X114808333Y-118577000D01*
X114903571Y-118529380D01*
X115094047Y-118529380D01*
X115189285Y-118577000D01*
X115236904Y-118624619D01*
X115284523Y-118719857D01*
X115284523Y-118957952D01*
X115236904Y-119053190D01*
X115189285Y-119100809D01*
X115094047Y-119148428D01*
X114903571Y-119148428D01*
X114808333Y-119100809D01*
X114760714Y-119053190D01*
X114713095Y-118957952D01*
X123787857Y-112009380D02*
X124121190Y-111533190D01*
X124359285Y-112009380D02*
X124359285Y-111009380D01*
X123978333Y-111009380D01*
X123883095Y-111057000D01*
X123835476Y-111104619D01*
X123787857Y-111199857D01*
X123787857Y-111342714D01*
X123835476Y-111437952D01*
X123883095Y-111485571D01*
X123978333Y-111533190D01*
X124359285Y-111533190D01*
X123406904Y-111104619D02*
X123359285Y-111057000D01*
X123264047Y-111009380D01*
X123025952Y-111009380D01*
X122930714Y-111057000D01*
X122883095Y-111104619D01*
X122835476Y-111199857D01*
X122835476Y-111295095D01*
X122883095Y-111437952D01*
X123454523Y-112009380D01*
X122835476Y-112009380D01*
X122216428Y-111009380D02*
X122121190Y-111009380D01*
X122025952Y-111057000D01*
X121978333Y-111104619D01*
X121930714Y-111199857D01*
X121883095Y-111390333D01*
X121883095Y-111628428D01*
X121930714Y-111818904D01*
X121978333Y-111914142D01*
X122025952Y-111961761D01*
X122121190Y-112009380D01*
X122216428Y-112009380D01*
X122311666Y-111961761D01*
X122359285Y-111914142D01*
X122406904Y-111818904D01*
X122454523Y-111628428D01*
X122454523Y-111390333D01*
X122406904Y-111199857D01*
X122359285Y-111104619D01*
X122311666Y-111057000D01*
X122216428Y-111009380D01*
%LPC*%
G36*
G01*
X151600000Y-98549000D02*
X155600000Y-98549000D01*
G75*
G02*
X158151000Y-101100000I0J-2551000D01*
G01*
X158151000Y-101100000D01*
G75*
G02*
X155600000Y-103651000I-2551000J0D01*
G01*
X151600000Y-103651000D01*
G75*
G02*
X149049000Y-101100000I0J2551000D01*
G01*
X149049000Y-101100000D01*
G75*
G02*
X151600000Y-98549000I2551000J0D01*
G01*
G37*
G36*
G01*
X125052000Y-94937000D02*
X126752000Y-94937000D01*
G75*
G02*
X126803000Y-94988000I0J-51000D01*
G01*
X126803000Y-96688000D01*
G75*
G02*
X126752000Y-96739000I-51000J0D01*
G01*
X125052000Y-96739000D01*
G75*
G02*
X125001000Y-96688000I0J51000D01*
G01*
X125001000Y-94988000D01*
G75*
G02*
X125052000Y-94937000I51000J0D01*
G01*
G37*
D12*
X125902000Y-93298000D03*
X128442000Y-95838000D03*
X128442000Y-93298000D03*
X130982000Y-95838000D03*
X130982000Y-93298000D03*
X133522000Y-95838000D03*
X133522000Y-93298000D03*
X136062000Y-95838000D03*
X136062000Y-93298000D03*
X138602000Y-95838000D03*
X138602000Y-93298000D03*
X141142000Y-95838000D03*
X141142000Y-93298000D03*
X143682000Y-95838000D03*
X143682000Y-93298000D03*
X146222000Y-95838000D03*
X146222000Y-93298000D03*
X148762000Y-95838000D03*
X148762000Y-93298000D03*
X151302000Y-95838000D03*
X151302000Y-93298000D03*
X153842000Y-95838000D03*
X153842000Y-93298000D03*
X156382000Y-95838000D03*
X156382000Y-93298000D03*
X158922000Y-95838000D03*
X158922000Y-93298000D03*
X161462000Y-95838000D03*
X161462000Y-93298000D03*
X164002000Y-95838000D03*
X164002000Y-93298000D03*
X166542000Y-95838000D03*
X166542000Y-93298000D03*
X169082000Y-95838000D03*
X169082000Y-93298000D03*
X171622000Y-95838000D03*
X171622000Y-93298000D03*
X174162000Y-95838000D03*
X174162000Y-93298000D03*
G36*
G01*
X175292700Y-117239200D02*
X174871700Y-117239200D01*
G75*
G02*
X174711200Y-117078700I0J160500D01*
G01*
X174711200Y-116757700D01*
G75*
G02*
X174871700Y-116597200I160500J0D01*
G01*
X175292700Y-116597200D01*
G75*
G02*
X175453200Y-116757700I0J-160500D01*
G01*
X175453200Y-117078700D01*
G75*
G02*
X175292700Y-117239200I-160500J0D01*
G01*
G37*
G36*
G01*
X175292700Y-116219200D02*
X174871700Y-116219200D01*
G75*
G02*
X174711200Y-116058700I0J160500D01*
G01*
X174711200Y-115737700D01*
G75*
G02*
X174871700Y-115577200I160500J0D01*
G01*
X175292700Y-115577200D01*
G75*
G02*
X175453200Y-115737700I0J-160500D01*
G01*
X175453200Y-116058700D01*
G75*
G02*
X175292700Y-116219200I-160500J0D01*
G01*
G37*
D13*
X121032000Y-94568000D03*
X179032000Y-94568000D03*
X179032000Y-117568000D03*
X121032000Y-117568000D03*
G36*
G01*
X106458000Y-107517999D02*
X106458000Y-108218001D01*
G75*
G02*
X106407001Y-108269000I-50999J0D01*
G01*
X105406999Y-108269000D01*
G75*
G02*
X105356000Y-108218001I0J50999D01*
G01*
X105356000Y-107517999D01*
G75*
G02*
X105406999Y-107467000I50999J0D01*
G01*
X106407001Y-107467000D01*
G75*
G02*
X106458000Y-107517999I0J-50999D01*
G01*
G37*
G36*
G01*
X106458000Y-111517999D02*
X106458000Y-112218001D01*
G75*
G02*
X106407001Y-112269000I-50999J0D01*
G01*
X105406999Y-112269000D01*
G75*
G02*
X105356000Y-112218001I0J50999D01*
G01*
X105356000Y-111517999D01*
G75*
G02*
X105406999Y-111467000I50999J0D01*
G01*
X106407001Y-111467000D01*
G75*
G02*
X106458000Y-111517999I0J-50999D01*
G01*
G37*
G36*
G01*
X100508000Y-111517999D02*
X100508000Y-112218001D01*
G75*
G02*
X100457001Y-112269000I-50999J0D01*
G01*
X99456999Y-112269000D01*
G75*
G02*
X99406000Y-112218001I0J50999D01*
G01*
X99406000Y-111517999D01*
G75*
G02*
X99456999Y-111467000I50999J0D01*
G01*
X100457001Y-111467000D01*
G75*
G02*
X100508000Y-111517999I0J-50999D01*
G01*
G37*
G36*
G01*
X100508000Y-107517999D02*
X100508000Y-108218001D01*
G75*
G02*
X100457001Y-108269000I-50999J0D01*
G01*
X99456999Y-108269000D01*
G75*
G02*
X99406000Y-108218001I0J50999D01*
G01*
X99406000Y-107517999D01*
G75*
G02*
X99456999Y-107467000I50999J0D01*
G01*
X100457001Y-107467000D01*
G75*
G02*
X100508000Y-107517999I0J-50999D01*
G01*
G37*
G36*
G01*
X100508000Y-101917999D02*
X100508000Y-102618001D01*
G75*
G02*
X100457001Y-102669000I-50999J0D01*
G01*
X99456999Y-102669000D01*
G75*
G02*
X99406000Y-102618001I0J50999D01*
G01*
X99406000Y-101917999D01*
G75*
G02*
X99456999Y-101867000I50999J0D01*
G01*
X100457001Y-101867000D01*
G75*
G02*
X100508000Y-101917999I0J-50999D01*
G01*
G37*
G36*
G01*
X100508000Y-105917999D02*
X100508000Y-106618001D01*
G75*
G02*
X100457001Y-106669000I-50999J0D01*
G01*
X99456999Y-106669000D01*
G75*
G02*
X99406000Y-106618001I0J50999D01*
G01*
X99406000Y-105917999D01*
G75*
G02*
X99456999Y-105867000I50999J0D01*
G01*
X100457001Y-105867000D01*
G75*
G02*
X100508000Y-105917999I0J-50999D01*
G01*
G37*
G36*
G01*
X106458000Y-105917999D02*
X106458000Y-106618001D01*
G75*
G02*
X106407001Y-106669000I-50999J0D01*
G01*
X105406999Y-106669000D01*
G75*
G02*
X105356000Y-106618001I0J50999D01*
G01*
X105356000Y-105917999D01*
G75*
G02*
X105406999Y-105867000I50999J0D01*
G01*
X106407001Y-105867000D01*
G75*
G02*
X106458000Y-105917999I0J-50999D01*
G01*
G37*
G36*
G01*
X106458000Y-101917999D02*
X106458000Y-102618001D01*
G75*
G02*
X106407001Y-102669000I-50999J0D01*
G01*
X105406999Y-102669000D01*
G75*
G02*
X105356000Y-102618001I0J50999D01*
G01*
X105356000Y-101917999D01*
G75*
G02*
X105406999Y-101867000I50999J0D01*
G01*
X106407001Y-101867000D01*
G75*
G02*
X106458000Y-101917999I0J-50999D01*
G01*
G37*
G36*
G01*
X155591400Y-106642700D02*
X158091400Y-106642700D01*
G75*
G02*
X158142400Y-106693700I0J-51000D01*
G01*
X158142400Y-109993700D01*
G75*
G02*
X158091400Y-110044700I-51000J0D01*
G01*
X155591400Y-110044700D01*
G75*
G02*
X155540400Y-109993700I0J51000D01*
G01*
X155540400Y-106693700D01*
G75*
G02*
X155591400Y-106642700I51000J0D01*
G01*
G37*
G36*
G01*
X148791400Y-106642700D02*
X151291400Y-106642700D01*
G75*
G02*
X151342400Y-106693700I0J-51000D01*
G01*
X151342400Y-109993700D01*
G75*
G02*
X151291400Y-110044700I-51000J0D01*
G01*
X148791400Y-110044700D01*
G75*
G02*
X148740400Y-109993700I0J51000D01*
G01*
X148740400Y-106693700D01*
G75*
G02*
X148791400Y-106642700I51000J0D01*
G01*
G37*
D14*
X179332000Y-109368000D03*
D15*
X179332000Y-106828000D03*
G36*
G01*
X168400000Y-107849000D02*
X169600000Y-107849000D01*
G75*
G02*
X169651000Y-107900000I0J-51000D01*
G01*
X169651000Y-108800000D01*
G75*
G02*
X169600000Y-108851000I-51000J0D01*
G01*
X168400000Y-108851000D01*
G75*
G02*
X168349000Y-108800000I0J51000D01*
G01*
X168349000Y-107900000D01*
G75*
G02*
X168400000Y-107849000I51000J0D01*
G01*
G37*
G36*
G01*
X168400000Y-111149000D02*
X169600000Y-111149000D01*
G75*
G02*
X169651000Y-111200000I0J-51000D01*
G01*
X169651000Y-112100000D01*
G75*
G02*
X169600000Y-112151000I-51000J0D01*
G01*
X168400000Y-112151000D01*
G75*
G02*
X168349000Y-112100000I0J51000D01*
G01*
X168349000Y-111200000D01*
G75*
G02*
X168400000Y-111149000I51000J0D01*
G01*
G37*
G36*
G01*
X91282000Y-110429000D02*
X89782000Y-110429000D01*
G75*
G02*
X89731000Y-110378000I0J51000D01*
G01*
X89731000Y-108878000D01*
G75*
G02*
X89782000Y-108827000I51000J0D01*
G01*
X91282000Y-108827000D01*
G75*
G02*
X91333000Y-108878000I0J-51000D01*
G01*
X91333000Y-110378000D01*
G75*
G02*
X91282000Y-110429000I-51000J0D01*
G01*
G37*
D16*
X90532000Y-107596000D03*
X90532000Y-105564000D03*
X90532000Y-103532000D03*
X92312000Y-108612000D03*
X92312000Y-106580000D03*
X92312000Y-104548000D03*
X92312000Y-102516000D03*
D17*
X87992000Y-112418000D03*
X87992000Y-99718000D03*
D18*
X91422000Y-97938000D03*
X91422000Y-114198000D03*
D16*
X97132000Y-112928000D03*
X97132000Y-110638000D03*
X97132000Y-101498000D03*
X97132000Y-99208000D03*
D12*
X180652000Y-103068000D03*
X178112000Y-103068000D03*
X175572000Y-103068000D03*
G36*
G01*
X173882000Y-103969000D02*
X172182000Y-103969000D01*
G75*
G02*
X172131000Y-103918000I0J51000D01*
G01*
X172131000Y-102218000D01*
G75*
G02*
X172182000Y-102167000I51000J0D01*
G01*
X173882000Y-102167000D01*
G75*
G02*
X173933000Y-102218000I0J-51000D01*
G01*
X173933000Y-103918000D01*
G75*
G02*
X173882000Y-103969000I-51000J0D01*
G01*
G37*
G36*
G01*
X173882000Y-100369000D02*
X172182000Y-100369000D01*
G75*
G02*
X172131000Y-100318000I0J51000D01*
G01*
X172131000Y-98618000D01*
G75*
G02*
X172182000Y-98567000I51000J0D01*
G01*
X173882000Y-98567000D01*
G75*
G02*
X173933000Y-98618000I0J-51000D01*
G01*
X173933000Y-100318000D01*
G75*
G02*
X173882000Y-100369000I-51000J0D01*
G01*
G37*
X175572000Y-99468000D03*
X178112000Y-99468000D03*
X180652000Y-99468000D03*
G36*
G01*
X162271000Y-118666295D02*
X162271000Y-120566297D01*
G75*
G02*
X162220001Y-120617296I-50999J0D01*
G01*
X161019999Y-120617296D01*
G75*
G02*
X160969000Y-120566297I0J50999D01*
G01*
X160969000Y-118666295D01*
G75*
G02*
X161019999Y-118615296I50999J0D01*
G01*
X162220001Y-118615296D01*
G75*
G02*
X162271000Y-118666295I0J-50999D01*
G01*
G37*
G36*
G01*
X156471000Y-118666295D02*
X156471000Y-120566297D01*
G75*
G02*
X156420001Y-120617296I-50999J0D01*
G01*
X155219999Y-120617296D01*
G75*
G02*
X155169000Y-120566297I0J50999D01*
G01*
X155169000Y-118666295D01*
G75*
G02*
X155219999Y-118615296I50999J0D01*
G01*
X156420001Y-118615296D01*
G75*
G02*
X156471000Y-118666295I0J-50999D01*
G01*
G37*
D19*
X155220000Y-119616296D03*
X162220000Y-119616296D03*
G36*
G01*
X160521000Y-118666296D02*
X160521000Y-120566296D01*
G75*
G02*
X160470000Y-120617296I-51000J0D01*
G01*
X158970000Y-120617296D01*
G75*
G02*
X158919000Y-120566296I0J51000D01*
G01*
X158919000Y-118666296D01*
G75*
G02*
X158970000Y-118615296I51000J0D01*
G01*
X160470000Y-118615296D01*
G75*
G02*
X160521000Y-118666296I0J-51000D01*
G01*
G37*
D20*
X156220000Y-116916296D03*
G36*
G01*
X158971000Y-116241296D02*
X158971000Y-117591296D01*
G75*
G02*
X158920000Y-117642296I-51000J0D01*
G01*
X158520000Y-117642296D01*
G75*
G02*
X158469000Y-117591296I0J51000D01*
G01*
X158469000Y-116241296D01*
G75*
G02*
X158520000Y-116190296I51000J0D01*
G01*
X158920000Y-116190296D01*
G75*
G02*
X158971000Y-116241296I0J-51000D01*
G01*
G37*
G36*
G01*
X158321000Y-116241296D02*
X158321000Y-117591296D01*
G75*
G02*
X158270000Y-117642296I-51000J0D01*
G01*
X157870000Y-117642296D01*
G75*
G02*
X157819000Y-117591296I0J51000D01*
G01*
X157819000Y-116241296D01*
G75*
G02*
X157870000Y-116190296I51000J0D01*
G01*
X158270000Y-116190296D01*
G75*
G02*
X158321000Y-116241296I0J-51000D01*
G01*
G37*
G36*
G01*
X157671000Y-116241296D02*
X157671000Y-117591296D01*
G75*
G02*
X157620000Y-117642296I-51000J0D01*
G01*
X157220000Y-117642296D01*
G75*
G02*
X157169000Y-117591296I0J51000D01*
G01*
X157169000Y-116241296D01*
G75*
G02*
X157220000Y-116190296I51000J0D01*
G01*
X157620000Y-116190296D01*
G75*
G02*
X157671000Y-116241296I0J-51000D01*
G01*
G37*
G36*
G01*
X160271000Y-116241296D02*
X160271000Y-117591296D01*
G75*
G02*
X160220000Y-117642296I-51000J0D01*
G01*
X159820000Y-117642296D01*
G75*
G02*
X159769000Y-117591296I0J51000D01*
G01*
X159769000Y-116241296D01*
G75*
G02*
X159820000Y-116190296I51000J0D01*
G01*
X160220000Y-116190296D01*
G75*
G02*
X160271000Y-116241296I0J-51000D01*
G01*
G37*
G36*
G01*
X159621000Y-116241296D02*
X159621000Y-117591296D01*
G75*
G02*
X159570000Y-117642296I-51000J0D01*
G01*
X159170000Y-117642296D01*
G75*
G02*
X159119000Y-117591296I0J51000D01*
G01*
X159119000Y-116241296D01*
G75*
G02*
X159170000Y-116190296I51000J0D01*
G01*
X159570000Y-116190296D01*
G75*
G02*
X159621000Y-116241296I0J-51000D01*
G01*
G37*
X161220000Y-116916296D03*
G36*
G01*
X158521000Y-118666296D02*
X158521000Y-120566296D01*
G75*
G02*
X158470000Y-120617296I-51000J0D01*
G01*
X156970000Y-120617296D01*
G75*
G02*
X156919000Y-120566296I0J51000D01*
G01*
X156919000Y-118666296D01*
G75*
G02*
X156970000Y-118615296I51000J0D01*
G01*
X158470000Y-118615296D01*
G75*
G02*
X158521000Y-118666296I0J-51000D01*
G01*
G37*
D21*
G36*
X172500020Y-109859950D02*
G01*
X172497118Y-109869517D01*
X172492405Y-109878334D01*
X172486062Y-109886062D01*
X172478334Y-109892405D01*
X172469517Y-109897118D01*
X172459950Y-109900020D01*
X172450000Y-109901000D01*
X170950000Y-109901000D01*
X170940050Y-109900020D01*
X170930483Y-109897118D01*
X170921666Y-109892405D01*
X170913938Y-109886062D01*
X170907595Y-109878334D01*
X170902882Y-109869517D01*
X170899980Y-109859950D01*
X170899000Y-109850000D01*
X170899000Y-109350000D01*
X170899602Y-109343888D01*
X170899602Y-109325466D01*
X170899848Y-109320467D01*
X170904658Y-109271636D01*
X170905392Y-109266686D01*
X170914964Y-109218561D01*
X170916180Y-109213705D01*
X170930424Y-109166750D01*
X170932110Y-109162039D01*
X170950887Y-109116706D01*
X170953027Y-109112180D01*
X170976158Y-109068907D01*
X170978731Y-109064616D01*
X171005991Y-109023817D01*
X171008973Y-109019796D01*
X171040101Y-108981867D01*
X171043462Y-108978159D01*
X171078159Y-108943462D01*
X171081867Y-108940101D01*
X171119796Y-108908973D01*
X171123817Y-108905991D01*
X171164616Y-108878731D01*
X171168907Y-108876158D01*
X171212180Y-108853027D01*
X171216706Y-108850887D01*
X171262039Y-108832110D01*
X171266750Y-108830424D01*
X171313705Y-108816180D01*
X171318561Y-108814964D01*
X171366686Y-108805392D01*
X171371636Y-108804658D01*
X171420467Y-108799848D01*
X171425466Y-108799602D01*
X171443888Y-108799602D01*
X171450000Y-108799000D01*
X171950000Y-108799000D01*
X171956112Y-108799602D01*
X171974534Y-108799602D01*
X171979533Y-108799848D01*
X172028364Y-108804658D01*
X172033314Y-108805392D01*
X172081439Y-108814964D01*
X172086295Y-108816180D01*
X172133250Y-108830424D01*
X172137961Y-108832110D01*
X172183294Y-108850887D01*
X172187820Y-108853027D01*
X172231093Y-108876158D01*
X172235384Y-108878731D01*
X172276183Y-108905991D01*
X172280204Y-108908973D01*
X172318133Y-108940101D01*
X172321841Y-108943462D01*
X172356538Y-108978159D01*
X172359899Y-108981867D01*
X172391027Y-109019796D01*
X172394009Y-109023817D01*
X172421269Y-109064616D01*
X172423842Y-109068907D01*
X172446973Y-109112180D01*
X172449113Y-109116706D01*
X172467890Y-109162039D01*
X172469576Y-109166750D01*
X172483820Y-109213705D01*
X172485036Y-109218561D01*
X172494608Y-109266686D01*
X172495342Y-109271636D01*
X172500152Y-109320467D01*
X172500398Y-109325466D01*
X172500398Y-109343888D01*
X172501000Y-109350000D01*
X172501000Y-109850000D01*
X172500020Y-109859950D01*
G37*
G36*
X172500398Y-110656112D02*
G01*
X172500398Y-110674534D01*
X172500152Y-110679533D01*
X172495342Y-110728364D01*
X172494608Y-110733314D01*
X172485036Y-110781439D01*
X172483820Y-110786295D01*
X172469576Y-110833250D01*
X172467890Y-110837961D01*
X172449113Y-110883294D01*
X172446973Y-110887820D01*
X172423842Y-110931093D01*
X172421269Y-110935384D01*
X172394009Y-110976183D01*
X172391027Y-110980204D01*
X172359899Y-111018133D01*
X172356538Y-111021841D01*
X172321841Y-111056538D01*
X172318133Y-111059899D01*
X172280204Y-111091027D01*
X172276183Y-111094009D01*
X172235384Y-111121269D01*
X172231093Y-111123842D01*
X172187820Y-111146973D01*
X172183294Y-111149113D01*
X172137961Y-111167890D01*
X172133250Y-111169576D01*
X172086295Y-111183820D01*
X172081439Y-111185036D01*
X172033314Y-111194608D01*
X172028364Y-111195342D01*
X171979533Y-111200152D01*
X171974534Y-111200398D01*
X171956112Y-111200398D01*
X171950000Y-111201000D01*
X171450000Y-111201000D01*
X171443888Y-111200398D01*
X171425466Y-111200398D01*
X171420467Y-111200152D01*
X171371636Y-111195342D01*
X171366686Y-111194608D01*
X171318561Y-111185036D01*
X171313705Y-111183820D01*
X171266750Y-111169576D01*
X171262039Y-111167890D01*
X171216706Y-111149113D01*
X171212180Y-111146973D01*
X171168907Y-111123842D01*
X171164616Y-111121269D01*
X171123817Y-111094009D01*
X171119796Y-111091027D01*
X171081867Y-111059899D01*
X171078159Y-111056538D01*
X171043462Y-111021841D01*
X171040101Y-111018133D01*
X171008973Y-110980204D01*
X171005991Y-110976183D01*
X170978731Y-110935384D01*
X170976158Y-110931093D01*
X170953027Y-110887820D01*
X170950887Y-110883294D01*
X170932110Y-110837961D01*
X170930424Y-110833250D01*
X170916180Y-110786295D01*
X170914964Y-110781439D01*
X170905392Y-110733314D01*
X170904658Y-110728364D01*
X170899848Y-110679533D01*
X170899602Y-110674534D01*
X170899602Y-110656112D01*
X170899000Y-110650000D01*
X170899000Y-110150000D01*
X170899980Y-110140050D01*
X170902882Y-110130483D01*
X170907595Y-110121666D01*
X170913938Y-110113938D01*
X170921666Y-110107595D01*
X170930483Y-110102882D01*
X170940050Y-110099980D01*
X170950000Y-110099000D01*
X172450000Y-110099000D01*
X172459950Y-110099980D01*
X172469517Y-110102882D01*
X172478334Y-110107595D01*
X172486062Y-110113938D01*
X172492405Y-110121666D01*
X172497118Y-110130483D01*
X172500020Y-110140050D01*
X172501000Y-110150000D01*
X172501000Y-110650000D01*
X172500398Y-110656112D01*
G37*
G36*
G01*
X177682000Y-112694000D02*
X176982000Y-112694000D01*
G75*
G02*
X176931000Y-112643000I0J51000D01*
G01*
X176931000Y-112193000D01*
G75*
G02*
X176982000Y-112142000I51000J0D01*
G01*
X177682000Y-112142000D01*
G75*
G02*
X177733000Y-112193000I0J-51000D01*
G01*
X177733000Y-112643000D01*
G75*
G02*
X177682000Y-112694000I-51000J0D01*
G01*
G37*
G36*
G01*
X177682000Y-111394000D02*
X176982000Y-111394000D01*
G75*
G02*
X176931000Y-111343000I0J51000D01*
G01*
X176931000Y-110893000D01*
G75*
G02*
X176982000Y-110842000I51000J0D01*
G01*
X177682000Y-110842000D01*
G75*
G02*
X177733000Y-110893000I0J-51000D01*
G01*
X177733000Y-111343000D01*
G75*
G02*
X177682000Y-111394000I-51000J0D01*
G01*
G37*
G36*
G01*
X179682000Y-112044000D02*
X178982000Y-112044000D01*
G75*
G02*
X178931000Y-111993000I0J51000D01*
G01*
X178931000Y-111543000D01*
G75*
G02*
X178982000Y-111492000I51000J0D01*
G01*
X179682000Y-111492000D01*
G75*
G02*
X179733000Y-111543000I0J-51000D01*
G01*
X179733000Y-111993000D01*
G75*
G02*
X179682000Y-112044000I-51000J0D01*
G01*
G37*
G36*
G01*
X115679500Y-110050100D02*
X115679500Y-107450100D01*
G75*
G02*
X115730500Y-107399100I51000J0D01*
G01*
X118330500Y-107399100D01*
G75*
G02*
X118381500Y-107450100I0J-51000D01*
G01*
X118381500Y-110050100D01*
G75*
G02*
X118330500Y-110101100I-51000J0D01*
G01*
X115730500Y-110101100D01*
G75*
G02*
X115679500Y-110050100I0J51000D01*
G01*
G37*
G36*
G01*
X115604500Y-111063100D02*
X115604500Y-110312100D01*
G75*
G02*
X115692500Y-110224100I88000J0D01*
G01*
X115868500Y-110224100D01*
G75*
G02*
X115956500Y-110312100I0J-88000D01*
G01*
X115956500Y-111063100D01*
G75*
G02*
X115868500Y-111151100I-88000J0D01*
G01*
X115692500Y-111151100D01*
G75*
G02*
X115604500Y-111063100I0J88000D01*
G01*
G37*
G36*
G01*
X116104500Y-111063100D02*
X116104500Y-110312100D01*
G75*
G02*
X116192500Y-110224100I88000J0D01*
G01*
X116368500Y-110224100D01*
G75*
G02*
X116456500Y-110312100I0J-88000D01*
G01*
X116456500Y-111063100D01*
G75*
G02*
X116368500Y-111151100I-88000J0D01*
G01*
X116192500Y-111151100D01*
G75*
G02*
X116104500Y-111063100I0J88000D01*
G01*
G37*
G36*
G01*
X116604500Y-111063100D02*
X116604500Y-110312100D01*
G75*
G02*
X116692500Y-110224100I88000J0D01*
G01*
X116868500Y-110224100D01*
G75*
G02*
X116956500Y-110312100I0J-88000D01*
G01*
X116956500Y-111063100D01*
G75*
G02*
X116868500Y-111151100I-88000J0D01*
G01*
X116692500Y-111151100D01*
G75*
G02*
X116604500Y-111063100I0J88000D01*
G01*
G37*
G36*
G01*
X117104500Y-111063100D02*
X117104500Y-110312100D01*
G75*
G02*
X117192500Y-110224100I88000J0D01*
G01*
X117368500Y-110224100D01*
G75*
G02*
X117456500Y-110312100I0J-88000D01*
G01*
X117456500Y-111063100D01*
G75*
G02*
X117368500Y-111151100I-88000J0D01*
G01*
X117192500Y-111151100D01*
G75*
G02*
X117104500Y-111063100I0J88000D01*
G01*
G37*
G36*
G01*
X117604500Y-111063100D02*
X117604500Y-110312100D01*
G75*
G02*
X117692500Y-110224100I88000J0D01*
G01*
X117868500Y-110224100D01*
G75*
G02*
X117956500Y-110312100I0J-88000D01*
G01*
X117956500Y-111063100D01*
G75*
G02*
X117868500Y-111151100I-88000J0D01*
G01*
X117692500Y-111151100D01*
G75*
G02*
X117604500Y-111063100I0J88000D01*
G01*
G37*
G36*
G01*
X118104500Y-111063100D02*
X118104500Y-110312100D01*
G75*
G02*
X118192500Y-110224100I88000J0D01*
G01*
X118368500Y-110224100D01*
G75*
G02*
X118456500Y-110312100I0J-88000D01*
G01*
X118456500Y-111063100D01*
G75*
G02*
X118368500Y-111151100I-88000J0D01*
G01*
X118192500Y-111151100D01*
G75*
G02*
X118104500Y-111063100I0J88000D01*
G01*
G37*
G36*
G01*
X118504500Y-110088100D02*
X118504500Y-109912100D01*
G75*
G02*
X118592500Y-109824100I88000J0D01*
G01*
X119343500Y-109824100D01*
G75*
G02*
X119431500Y-109912100I0J-88000D01*
G01*
X119431500Y-110088100D01*
G75*
G02*
X119343500Y-110176100I-88000J0D01*
G01*
X118592500Y-110176100D01*
G75*
G02*
X118504500Y-110088100I0J88000D01*
G01*
G37*
G36*
G01*
X118504500Y-109588100D02*
X118504500Y-109412100D01*
G75*
G02*
X118592500Y-109324100I88000J0D01*
G01*
X119343500Y-109324100D01*
G75*
G02*
X119431500Y-109412100I0J-88000D01*
G01*
X119431500Y-109588100D01*
G75*
G02*
X119343500Y-109676100I-88000J0D01*
G01*
X118592500Y-109676100D01*
G75*
G02*
X118504500Y-109588100I0J88000D01*
G01*
G37*
G36*
G01*
X118504500Y-109088100D02*
X118504500Y-108912100D01*
G75*
G02*
X118592500Y-108824100I88000J0D01*
G01*
X119343500Y-108824100D01*
G75*
G02*
X119431500Y-108912100I0J-88000D01*
G01*
X119431500Y-109088100D01*
G75*
G02*
X119343500Y-109176100I-88000J0D01*
G01*
X118592500Y-109176100D01*
G75*
G02*
X118504500Y-109088100I0J88000D01*
G01*
G37*
G36*
G01*
X118504500Y-108588100D02*
X118504500Y-108412100D01*
G75*
G02*
X118592500Y-108324100I88000J0D01*
G01*
X119343500Y-108324100D01*
G75*
G02*
X119431500Y-108412100I0J-88000D01*
G01*
X119431500Y-108588100D01*
G75*
G02*
X119343500Y-108676100I-88000J0D01*
G01*
X118592500Y-108676100D01*
G75*
G02*
X118504500Y-108588100I0J88000D01*
G01*
G37*
G36*
G01*
X118504500Y-108088100D02*
X118504500Y-107912100D01*
G75*
G02*
X118592500Y-107824100I88000J0D01*
G01*
X119343500Y-107824100D01*
G75*
G02*
X119431500Y-107912100I0J-88000D01*
G01*
X119431500Y-108088100D01*
G75*
G02*
X119343500Y-108176100I-88000J0D01*
G01*
X118592500Y-108176100D01*
G75*
G02*
X118504500Y-108088100I0J88000D01*
G01*
G37*
G36*
G01*
X118504500Y-107588100D02*
X118504500Y-107412100D01*
G75*
G02*
X118592500Y-107324100I88000J0D01*
G01*
X119343500Y-107324100D01*
G75*
G02*
X119431500Y-107412100I0J-88000D01*
G01*
X119431500Y-107588100D01*
G75*
G02*
X119343500Y-107676100I-88000J0D01*
G01*
X118592500Y-107676100D01*
G75*
G02*
X118504500Y-107588100I0J88000D01*
G01*
G37*
G36*
G01*
X118104500Y-107188100D02*
X118104500Y-106437100D01*
G75*
G02*
X118192500Y-106349100I88000J0D01*
G01*
X118368500Y-106349100D01*
G75*
G02*
X118456500Y-106437100I0J-88000D01*
G01*
X118456500Y-107188100D01*
G75*
G02*
X118368500Y-107276100I-88000J0D01*
G01*
X118192500Y-107276100D01*
G75*
G02*
X118104500Y-107188100I0J88000D01*
G01*
G37*
G36*
G01*
X117604500Y-107188100D02*
X117604500Y-106437100D01*
G75*
G02*
X117692500Y-106349100I88000J0D01*
G01*
X117868500Y-106349100D01*
G75*
G02*
X117956500Y-106437100I0J-88000D01*
G01*
X117956500Y-107188100D01*
G75*
G02*
X117868500Y-107276100I-88000J0D01*
G01*
X117692500Y-107276100D01*
G75*
G02*
X117604500Y-107188100I0J88000D01*
G01*
G37*
G36*
G01*
X117104500Y-107188100D02*
X117104500Y-106437100D01*
G75*
G02*
X117192500Y-106349100I88000J0D01*
G01*
X117368500Y-106349100D01*
G75*
G02*
X117456500Y-106437100I0J-88000D01*
G01*
X117456500Y-107188100D01*
G75*
G02*
X117368500Y-107276100I-88000J0D01*
G01*
X117192500Y-107276100D01*
G75*
G02*
X117104500Y-107188100I0J88000D01*
G01*
G37*
G36*
G01*
X116604500Y-107188100D02*
X116604500Y-106437100D01*
G75*
G02*
X116692500Y-106349100I88000J0D01*
G01*
X116868500Y-106349100D01*
G75*
G02*
X116956500Y-106437100I0J-88000D01*
G01*
X116956500Y-107188100D01*
G75*
G02*
X116868500Y-107276100I-88000J0D01*
G01*
X116692500Y-107276100D01*
G75*
G02*
X116604500Y-107188100I0J88000D01*
G01*
G37*
G36*
G01*
X116104500Y-107188100D02*
X116104500Y-106437100D01*
G75*
G02*
X116192500Y-106349100I88000J0D01*
G01*
X116368500Y-106349100D01*
G75*
G02*
X116456500Y-106437100I0J-88000D01*
G01*
X116456500Y-107188100D01*
G75*
G02*
X116368500Y-107276100I-88000J0D01*
G01*
X116192500Y-107276100D01*
G75*
G02*
X116104500Y-107188100I0J88000D01*
G01*
G37*
G36*
G01*
X115604500Y-107188100D02*
X115604500Y-106437100D01*
G75*
G02*
X115692500Y-106349100I88000J0D01*
G01*
X115868500Y-106349100D01*
G75*
G02*
X115956500Y-106437100I0J-88000D01*
G01*
X115956500Y-107188100D01*
G75*
G02*
X115868500Y-107276100I-88000J0D01*
G01*
X115692500Y-107276100D01*
G75*
G02*
X115604500Y-107188100I0J88000D01*
G01*
G37*
G36*
G01*
X114629500Y-107588100D02*
X114629500Y-107412100D01*
G75*
G02*
X114717500Y-107324100I88000J0D01*
G01*
X115468500Y-107324100D01*
G75*
G02*
X115556500Y-107412100I0J-88000D01*
G01*
X115556500Y-107588100D01*
G75*
G02*
X115468500Y-107676100I-88000J0D01*
G01*
X114717500Y-107676100D01*
G75*
G02*
X114629500Y-107588100I0J88000D01*
G01*
G37*
G36*
G01*
X114629500Y-108088100D02*
X114629500Y-107912100D01*
G75*
G02*
X114717500Y-107824100I88000J0D01*
G01*
X115468500Y-107824100D01*
G75*
G02*
X115556500Y-107912100I0J-88000D01*
G01*
X115556500Y-108088100D01*
G75*
G02*
X115468500Y-108176100I-88000J0D01*
G01*
X114717500Y-108176100D01*
G75*
G02*
X114629500Y-108088100I0J88000D01*
G01*
G37*
G36*
G01*
X114629500Y-108588100D02*
X114629500Y-108412100D01*
G75*
G02*
X114717500Y-108324100I88000J0D01*
G01*
X115468500Y-108324100D01*
G75*
G02*
X115556500Y-108412100I0J-88000D01*
G01*
X115556500Y-108588100D01*
G75*
G02*
X115468500Y-108676100I-88000J0D01*
G01*
X114717500Y-108676100D01*
G75*
G02*
X114629500Y-108588100I0J88000D01*
G01*
G37*
G36*
G01*
X114629500Y-109088100D02*
X114629500Y-108912100D01*
G75*
G02*
X114717500Y-108824100I88000J0D01*
G01*
X115468500Y-108824100D01*
G75*
G02*
X115556500Y-108912100I0J-88000D01*
G01*
X115556500Y-109088100D01*
G75*
G02*
X115468500Y-109176100I-88000J0D01*
G01*
X114717500Y-109176100D01*
G75*
G02*
X114629500Y-109088100I0J88000D01*
G01*
G37*
G36*
G01*
X114629500Y-109588100D02*
X114629500Y-109412100D01*
G75*
G02*
X114717500Y-109324100I88000J0D01*
G01*
X115468500Y-109324100D01*
G75*
G02*
X115556500Y-109412100I0J-88000D01*
G01*
X115556500Y-109588100D01*
G75*
G02*
X115468500Y-109676100I-88000J0D01*
G01*
X114717500Y-109676100D01*
G75*
G02*
X114629500Y-109588100I0J88000D01*
G01*
G37*
G36*
G01*
X114629500Y-110088100D02*
X114629500Y-109912100D01*
G75*
G02*
X114717500Y-109824100I88000J0D01*
G01*
X115468500Y-109824100D01*
G75*
G02*
X115556500Y-109912100I0J-88000D01*
G01*
X115556500Y-110088100D01*
G75*
G02*
X115468500Y-110176100I-88000J0D01*
G01*
X114717500Y-110176100D01*
G75*
G02*
X114629500Y-110088100I0J88000D01*
G01*
G37*
G36*
G01*
X102989000Y-120195500D02*
X102989000Y-119804500D01*
G75*
G02*
X103154500Y-119639000I165500J0D01*
G01*
X103485500Y-119639000D01*
G75*
G02*
X103651000Y-119804500I0J-165500D01*
G01*
X103651000Y-120195500D01*
G75*
G02*
X103485500Y-120361000I-165500J0D01*
G01*
X103154500Y-120361000D01*
G75*
G02*
X102989000Y-120195500I0J165500D01*
G01*
G37*
G36*
G01*
X103949000Y-120195500D02*
X103949000Y-119804500D01*
G75*
G02*
X104114500Y-119639000I165500J0D01*
G01*
X104445500Y-119639000D01*
G75*
G02*
X104611000Y-119804500I0J-165500D01*
G01*
X104611000Y-120195500D01*
G75*
G02*
X104445500Y-120361000I-165500J0D01*
G01*
X104114500Y-120361000D01*
G75*
G02*
X103949000Y-120195500I0J165500D01*
G01*
G37*
G36*
G01*
X100869000Y-98795500D02*
X100869000Y-98404500D01*
G75*
G02*
X101034500Y-98239000I165500J0D01*
G01*
X101365500Y-98239000D01*
G75*
G02*
X101531000Y-98404500I0J-165500D01*
G01*
X101531000Y-98795500D01*
G75*
G02*
X101365500Y-98961000I-165500J0D01*
G01*
X101034500Y-98961000D01*
G75*
G02*
X100869000Y-98795500I0J165500D01*
G01*
G37*
G36*
G01*
X101829000Y-98795500D02*
X101829000Y-98404500D01*
G75*
G02*
X101994500Y-98239000I165500J0D01*
G01*
X102325500Y-98239000D01*
G75*
G02*
X102491000Y-98404500I0J-165500D01*
G01*
X102491000Y-98795500D01*
G75*
G02*
X102325500Y-98961000I-165500J0D01*
G01*
X101994500Y-98961000D01*
G75*
G02*
X101829000Y-98795500I0J165500D01*
G01*
G37*
G36*
G01*
X125849300Y-109452000D02*
X125458300Y-109452000D01*
G75*
G02*
X125292800Y-109286500I0J165500D01*
G01*
X125292800Y-108955500D01*
G75*
G02*
X125458300Y-108790000I165500J0D01*
G01*
X125849300Y-108790000D01*
G75*
G02*
X126014800Y-108955500I0J-165500D01*
G01*
X126014800Y-109286500D01*
G75*
G02*
X125849300Y-109452000I-165500J0D01*
G01*
G37*
G36*
G01*
X125849300Y-110412000D02*
X125458300Y-110412000D01*
G75*
G02*
X125292800Y-110246500I0J165500D01*
G01*
X125292800Y-109915500D01*
G75*
G02*
X125458300Y-109750000I165500J0D01*
G01*
X125849300Y-109750000D01*
G75*
G02*
X126014800Y-109915500I0J-165500D01*
G01*
X126014800Y-110246500D01*
G75*
G02*
X125849300Y-110412000I-165500J0D01*
G01*
G37*
G36*
G01*
X116355600Y-102750700D02*
X115964600Y-102750700D01*
G75*
G02*
X115799100Y-102585200I0J165500D01*
G01*
X115799100Y-102254200D01*
G75*
G02*
X115964600Y-102088700I165500J0D01*
G01*
X116355600Y-102088700D01*
G75*
G02*
X116521100Y-102254200I0J-165500D01*
G01*
X116521100Y-102585200D01*
G75*
G02*
X116355600Y-102750700I-165500J0D01*
G01*
G37*
G36*
G01*
X116355600Y-101790700D02*
X115964600Y-101790700D01*
G75*
G02*
X115799100Y-101625200I0J165500D01*
G01*
X115799100Y-101294200D01*
G75*
G02*
X115964600Y-101128700I165500J0D01*
G01*
X116355600Y-101128700D01*
G75*
G02*
X116521100Y-101294200I0J-165500D01*
G01*
X116521100Y-101625200D01*
G75*
G02*
X116355600Y-101790700I-165500J0D01*
G01*
G37*
G36*
G01*
X114033380Y-112848920D02*
X114424380Y-112848920D01*
G75*
G02*
X114589880Y-113014420I0J-165500D01*
G01*
X114589880Y-113345420D01*
G75*
G02*
X114424380Y-113510920I-165500J0D01*
G01*
X114033380Y-113510920D01*
G75*
G02*
X113867880Y-113345420I0J165500D01*
G01*
X113867880Y-113014420D01*
G75*
G02*
X114033380Y-112848920I165500J0D01*
G01*
G37*
G36*
G01*
X114033380Y-113808920D02*
X114424380Y-113808920D01*
G75*
G02*
X114589880Y-113974420I0J-165500D01*
G01*
X114589880Y-114305420D01*
G75*
G02*
X114424380Y-114470920I-165500J0D01*
G01*
X114033380Y-114470920D01*
G75*
G02*
X113867880Y-114305420I0J165500D01*
G01*
X113867880Y-113974420D01*
G75*
G02*
X114033380Y-113808920I165500J0D01*
G01*
G37*
G36*
G01*
X115355600Y-102750700D02*
X114964600Y-102750700D01*
G75*
G02*
X114799100Y-102585200I0J165500D01*
G01*
X114799100Y-102254200D01*
G75*
G02*
X114964600Y-102088700I165500J0D01*
G01*
X115355600Y-102088700D01*
G75*
G02*
X115521100Y-102254200I0J-165500D01*
G01*
X115521100Y-102585200D01*
G75*
G02*
X115355600Y-102750700I-165500J0D01*
G01*
G37*
G36*
G01*
X115355600Y-101790700D02*
X114964600Y-101790700D01*
G75*
G02*
X114799100Y-101625200I0J165500D01*
G01*
X114799100Y-101294200D01*
G75*
G02*
X114964600Y-101128700I165500J0D01*
G01*
X115355600Y-101128700D01*
G75*
G02*
X115521100Y-101294200I0J-165500D01*
G01*
X115521100Y-101625200D01*
G75*
G02*
X115355600Y-101790700I-165500J0D01*
G01*
G37*
G36*
G01*
X119461900Y-101803400D02*
X119070900Y-101803400D01*
G75*
G02*
X118905400Y-101637900I0J165500D01*
G01*
X118905400Y-101306900D01*
G75*
G02*
X119070900Y-101141400I165500J0D01*
G01*
X119461900Y-101141400D01*
G75*
G02*
X119627400Y-101306900I0J-165500D01*
G01*
X119627400Y-101637900D01*
G75*
G02*
X119461900Y-101803400I-165500J0D01*
G01*
G37*
G36*
G01*
X119461900Y-102763400D02*
X119070900Y-102763400D01*
G75*
G02*
X118905400Y-102597900I0J165500D01*
G01*
X118905400Y-102266900D01*
G75*
G02*
X119070900Y-102101400I165500J0D01*
G01*
X119461900Y-102101400D01*
G75*
G02*
X119627400Y-102266900I0J-165500D01*
G01*
X119627400Y-102597900D01*
G75*
G02*
X119461900Y-102763400I-165500J0D01*
G01*
G37*
G36*
G01*
X118461900Y-102763400D02*
X118070900Y-102763400D01*
G75*
G02*
X117905400Y-102597900I0J165500D01*
G01*
X117905400Y-102266900D01*
G75*
G02*
X118070900Y-102101400I165500J0D01*
G01*
X118461900Y-102101400D01*
G75*
G02*
X118627400Y-102266900I0J-165500D01*
G01*
X118627400Y-102597900D01*
G75*
G02*
X118461900Y-102763400I-165500J0D01*
G01*
G37*
G36*
G01*
X118461900Y-101803400D02*
X118070900Y-101803400D01*
G75*
G02*
X117905400Y-101637900I0J165500D01*
G01*
X117905400Y-101306900D01*
G75*
G02*
X118070900Y-101141400I165500J0D01*
G01*
X118461900Y-101141400D01*
G75*
G02*
X118627400Y-101306900I0J-165500D01*
G01*
X118627400Y-101637900D01*
G75*
G02*
X118461900Y-101803400I-165500J0D01*
G01*
G37*
G36*
G01*
X127022780Y-109441840D02*
X126631780Y-109441840D01*
G75*
G02*
X126466280Y-109276340I0J165500D01*
G01*
X126466280Y-108945340D01*
G75*
G02*
X126631780Y-108779840I165500J0D01*
G01*
X127022780Y-108779840D01*
G75*
G02*
X127188280Y-108945340I0J-165500D01*
G01*
X127188280Y-109276340D01*
G75*
G02*
X127022780Y-109441840I-165500J0D01*
G01*
G37*
G36*
G01*
X127022780Y-110401840D02*
X126631780Y-110401840D01*
G75*
G02*
X126466280Y-110236340I0J165500D01*
G01*
X126466280Y-109905340D01*
G75*
G02*
X126631780Y-109739840I165500J0D01*
G01*
X127022780Y-109739840D01*
G75*
G02*
X127188280Y-109905340I0J-165500D01*
G01*
X127188280Y-110236340D01*
G75*
G02*
X127022780Y-110401840I-165500J0D01*
G01*
G37*
G36*
G01*
X123745400Y-109199600D02*
X123745400Y-108808600D01*
G75*
G02*
X123910900Y-108643100I165500J0D01*
G01*
X124241900Y-108643100D01*
G75*
G02*
X124407400Y-108808600I0J-165500D01*
G01*
X124407400Y-109199600D01*
G75*
G02*
X124241900Y-109365100I-165500J0D01*
G01*
X123910900Y-109365100D01*
G75*
G02*
X123745400Y-109199600I0J165500D01*
G01*
G37*
G36*
G01*
X122785400Y-109199600D02*
X122785400Y-108808600D01*
G75*
G02*
X122950900Y-108643100I165500J0D01*
G01*
X123281900Y-108643100D01*
G75*
G02*
X123447400Y-108808600I0J-165500D01*
G01*
X123447400Y-109199600D01*
G75*
G02*
X123281900Y-109365100I-165500J0D01*
G01*
X122950900Y-109365100D01*
G75*
G02*
X122785400Y-109199600I0J165500D01*
G01*
G37*
G36*
G01*
X172770900Y-117264600D02*
X172349900Y-117264600D01*
G75*
G02*
X172189400Y-117104100I0J160500D01*
G01*
X172189400Y-116783100D01*
G75*
G02*
X172349900Y-116622600I160500J0D01*
G01*
X172770900Y-116622600D01*
G75*
G02*
X172931400Y-116783100I0J-160500D01*
G01*
X172931400Y-117104100D01*
G75*
G02*
X172770900Y-117264600I-160500J0D01*
G01*
G37*
G36*
G01*
X172770900Y-116244600D02*
X172349900Y-116244600D01*
G75*
G02*
X172189400Y-116084100I0J160500D01*
G01*
X172189400Y-115763100D01*
G75*
G02*
X172349900Y-115602600I160500J0D01*
G01*
X172770900Y-115602600D01*
G75*
G02*
X172931400Y-115763100I0J-160500D01*
G01*
X172931400Y-116084100D01*
G75*
G02*
X172770900Y-116244600I-160500J0D01*
G01*
G37*
G36*
G01*
X169989000Y-98410500D02*
X169989000Y-97989500D01*
G75*
G02*
X170149500Y-97829000I160500J0D01*
G01*
X170470500Y-97829000D01*
G75*
G02*
X170631000Y-97989500I0J-160500D01*
G01*
X170631000Y-98410500D01*
G75*
G02*
X170470500Y-98571000I-160500J0D01*
G01*
X170149500Y-98571000D01*
G75*
G02*
X169989000Y-98410500I0J160500D01*
G01*
G37*
G36*
G01*
X168969000Y-98410500D02*
X168969000Y-97989500D01*
G75*
G02*
X169129500Y-97829000I160500J0D01*
G01*
X169450500Y-97829000D01*
G75*
G02*
X169611000Y-97989500I0J-160500D01*
G01*
X169611000Y-98410500D01*
G75*
G02*
X169450500Y-98571000I-160500J0D01*
G01*
X169129500Y-98571000D01*
G75*
G02*
X168969000Y-98410500I0J160500D01*
G01*
G37*
G36*
G01*
X175389500Y-111037000D02*
X175810500Y-111037000D01*
G75*
G02*
X175971000Y-111197500I0J-160500D01*
G01*
X175971000Y-111518500D01*
G75*
G02*
X175810500Y-111679000I-160500J0D01*
G01*
X175389500Y-111679000D01*
G75*
G02*
X175229000Y-111518500I0J160500D01*
G01*
X175229000Y-111197500D01*
G75*
G02*
X175389500Y-111037000I160500J0D01*
G01*
G37*
G36*
G01*
X175389500Y-112057000D02*
X175810500Y-112057000D01*
G75*
G02*
X175971000Y-112217500I0J-160500D01*
G01*
X175971000Y-112538500D01*
G75*
G02*
X175810500Y-112699000I-160500J0D01*
G01*
X175389500Y-112699000D01*
G75*
G02*
X175229000Y-112538500I0J160500D01*
G01*
X175229000Y-112217500D01*
G75*
G02*
X175389500Y-112057000I160500J0D01*
G01*
G37*
G36*
G01*
X176559000Y-107010500D02*
X176559000Y-106589500D01*
G75*
G02*
X176719500Y-106429000I160500J0D01*
G01*
X177040500Y-106429000D01*
G75*
G02*
X177201000Y-106589500I0J-160500D01*
G01*
X177201000Y-107010500D01*
G75*
G02*
X177040500Y-107171000I-160500J0D01*
G01*
X176719500Y-107171000D01*
G75*
G02*
X176559000Y-107010500I0J160500D01*
G01*
G37*
G36*
G01*
X177579000Y-107010500D02*
X177579000Y-106589500D01*
G75*
G02*
X177739500Y-106429000I160500J0D01*
G01*
X178060500Y-106429000D01*
G75*
G02*
X178221000Y-106589500I0J-160500D01*
G01*
X178221000Y-107010500D01*
G75*
G02*
X178060500Y-107171000I-160500J0D01*
G01*
X177739500Y-107171000D01*
G75*
G02*
X177579000Y-107010500I0J160500D01*
G01*
G37*
G36*
G01*
X113083020Y-114490920D02*
X112662020Y-114490920D01*
G75*
G02*
X112501520Y-114330420I0J160500D01*
G01*
X112501520Y-114009420D01*
G75*
G02*
X112662020Y-113848920I160500J0D01*
G01*
X113083020Y-113848920D01*
G75*
G02*
X113243520Y-114009420I0J-160500D01*
G01*
X113243520Y-114330420D01*
G75*
G02*
X113083020Y-114490920I-160500J0D01*
G01*
G37*
G36*
G01*
X113083020Y-113470920D02*
X112662020Y-113470920D01*
G75*
G02*
X112501520Y-113310420I0J160500D01*
G01*
X112501520Y-112989420D01*
G75*
G02*
X112662020Y-112828920I160500J0D01*
G01*
X113083020Y-112828920D01*
G75*
G02*
X113243520Y-112989420I0J-160500D01*
G01*
X113243520Y-113310420D01*
G75*
G02*
X113083020Y-113470920I-160500J0D01*
G01*
G37*
G36*
G01*
X115084440Y-115348700D02*
X115084440Y-114927700D01*
G75*
G02*
X115244940Y-114767200I160500J0D01*
G01*
X115565940Y-114767200D01*
G75*
G02*
X115726440Y-114927700I0J-160500D01*
G01*
X115726440Y-115348700D01*
G75*
G02*
X115565940Y-115509200I-160500J0D01*
G01*
X115244940Y-115509200D01*
G75*
G02*
X115084440Y-115348700I0J160500D01*
G01*
G37*
G36*
G01*
X116104440Y-115348700D02*
X116104440Y-114927700D01*
G75*
G02*
X116264940Y-114767200I160500J0D01*
G01*
X116585940Y-114767200D01*
G75*
G02*
X116746440Y-114927700I0J-160500D01*
G01*
X116746440Y-115348700D01*
G75*
G02*
X116585940Y-115509200I-160500J0D01*
G01*
X116264940Y-115509200D01*
G75*
G02*
X116104440Y-115348700I0J160500D01*
G01*
G37*
G36*
G01*
X115081400Y-116646400D02*
X115081400Y-116225400D01*
G75*
G02*
X115241900Y-116064900I160500J0D01*
G01*
X115562900Y-116064900D01*
G75*
G02*
X115723400Y-116225400I0J-160500D01*
G01*
X115723400Y-116646400D01*
G75*
G02*
X115562900Y-116806900I-160500J0D01*
G01*
X115241900Y-116806900D01*
G75*
G02*
X115081400Y-116646400I0J160500D01*
G01*
G37*
G36*
G01*
X116101400Y-116646400D02*
X116101400Y-116225400D01*
G75*
G02*
X116261900Y-116064900I160500J0D01*
G01*
X116582900Y-116064900D01*
G75*
G02*
X116743400Y-116225400I0J-160500D01*
G01*
X116743400Y-116646400D01*
G75*
G02*
X116582900Y-116806900I-160500J0D01*
G01*
X116261900Y-116806900D01*
G75*
G02*
X116101400Y-116646400I0J160500D01*
G01*
G37*
G36*
G01*
X116101400Y-117939500D02*
X116101400Y-117518500D01*
G75*
G02*
X116261900Y-117358000I160500J0D01*
G01*
X116582900Y-117358000D01*
G75*
G02*
X116743400Y-117518500I0J-160500D01*
G01*
X116743400Y-117939500D01*
G75*
G02*
X116582900Y-118100000I-160500J0D01*
G01*
X116261900Y-118100000D01*
G75*
G02*
X116101400Y-117939500I0J160500D01*
G01*
G37*
G36*
G01*
X115081400Y-117939500D02*
X115081400Y-117518500D01*
G75*
G02*
X115241900Y-117358000I160500J0D01*
G01*
X115562900Y-117358000D01*
G75*
G02*
X115723400Y-117518500I0J-160500D01*
G01*
X115723400Y-117939500D01*
G75*
G02*
X115562900Y-118100000I-160500J0D01*
G01*
X115241900Y-118100000D01*
G75*
G02*
X115081400Y-117939500I0J160500D01*
G01*
G37*
G36*
G01*
X123432800Y-110025500D02*
X123432800Y-110446500D01*
G75*
G02*
X123272300Y-110607000I-160500J0D01*
G01*
X122951300Y-110607000D01*
G75*
G02*
X122790800Y-110446500I0J160500D01*
G01*
X122790800Y-110025500D01*
G75*
G02*
X122951300Y-109865000I160500J0D01*
G01*
X123272300Y-109865000D01*
G75*
G02*
X123432800Y-110025500I0J-160500D01*
G01*
G37*
G36*
G01*
X124452800Y-110025500D02*
X124452800Y-110446500D01*
G75*
G02*
X124292300Y-110607000I-160500J0D01*
G01*
X123971300Y-110607000D01*
G75*
G02*
X123810800Y-110446500I0J160500D01*
G01*
X123810800Y-110025500D01*
G75*
G02*
X123971300Y-109865000I160500J0D01*
G01*
X124292300Y-109865000D01*
G75*
G02*
X124452800Y-110025500I0J-160500D01*
G01*
G37*
M02*
