M48
; DRILL file {KiCad (5.1.10)-1} date 09/04/21 12:41:55
; FORMAT={-:-/ absolute / inch / decimal}
; #@! TF.CreationDate,2021-09-04T12:41:55+02:00
; #@! TF.GenerationSoftware,Kicad,Pcbnew,(5.1.10)-1
; #@! TF.FileFunction,Plated,1,2,PTH
FMAT,2
INCH
T1C0.0157
T2C0.0236
T3C0.0276
T4C0.0335
T5C0.0350
T6C0.0394
T7C0.0618
%
G90
G05
T1
X3.3465Y-3.6417
X3.3465Y-3.7402
X3.3465Y-3.8386
X3.3465Y-3.937
X3.3465Y-4.0354
X3.3465Y-4.1339
X3.3465Y-4.626
X3.3465Y-4.7244
X3.4449Y-3.6417
X3.4449Y-3.7402
X3.4449Y-4.7244
X3.4646Y-4.252
X3.4646Y-4.2913
X3.4646Y-4.3307
X3.5433Y-3.6417
X3.5433Y-3.7402
X3.5433Y-4.7244
X3.6417Y-3.6417
X3.6417Y-3.7402
X3.6417Y-4.7244
X3.7047Y-3.9961
X3.7402Y-3.6417
X3.7402Y-3.7402
X3.7402Y-3.8386
X3.7402Y-4.4291
X3.7402Y-4.5276
X3.7402Y-4.7244
X3.7677Y-3.9252
X3.7677Y-3.9961
X3.8189Y-4.1969
X3.8386Y-4.626
X3.8386Y-4.7244
X3.8701Y-3.7638
X3.8701Y-3.8031
X3.8701Y-3.8425
X3.9094Y-3.7244
X3.9134Y-3.9646
X3.937Y-3.6378
X3.937Y-3.9882
X3.937Y-4.626
X3.937Y-4.7244
X3.9389Y-3.6771
X3.9646Y-3.9606
X3.9803Y-3.7244
X3.9803Y-3.7638
X3.9803Y-3.8031
X3.9803Y-3.8425
X3.9882Y-4.4016
X4.0354Y-4.4016
X4.0354Y-4.4646
X4.0354Y-4.626
X4.0354Y-4.7244
X4.045Y-3.785
X4.045Y-3.835
X4.0787Y-4.0276
X4.0787Y-4.0669
X4.0866Y-4.4016
X4.095Y-3.835
X4.1142Y-4.3189
X4.1142Y-4.4921
X4.1181Y-4.0276
X4.1181Y-4.0669
X4.125Y-3.655
X4.143Y-4.724
X4.225Y-3.755
X4.325Y-3.655
X4.421Y-4.3478
X4.424Y-4.2515
X4.425Y-3.755
X4.4304Y-4.0946
X4.4596Y-4.0654
X4.4611Y-4.6688
X4.4695Y-4.3505
X4.525Y-3.655
X4.527Y-4.093
X4.546Y-4.131
X4.555Y-4.405
X4.585Y-4.485
X4.5888Y-4.0914
X4.5888Y-4.435
X4.6075Y-4.2815
X4.625Y-3.755
X4.635Y-4.465
X4.7015Y-4.3655
X4.731Y-4.2324
X4.74Y-4.058
X4.745Y-3.995
X4.745Y-4.2895
X4.7708Y-4.0289
X4.783Y-4.322
X4.812Y-4.1835
X4.87Y-3.914
X4.87Y-3.954
X4.8705Y-3.9935
X5.125Y-4.255
X5.125Y-4.355
X5.125Y-4.455
X5.225Y-4.255
X5.225Y-4.355
X5.225Y-4.455
X5.225Y-4.555
X5.225Y-4.655
X5.325Y-3.955
X5.325Y-4.055
X5.325Y-4.255
X5.325Y-4.355
X5.325Y-4.455
X5.325Y-4.555
X5.325Y-4.655
X5.425Y-3.955
X5.425Y-4.055
X5.425Y-4.255
X5.425Y-4.355
X5.425Y-4.455
X5.425Y-4.555
X5.425Y-4.655
X5.525Y-3.955
X5.525Y-4.055
X5.525Y-4.255
X5.525Y-4.355
X5.525Y-4.455
X5.525Y-4.555
X5.525Y-4.655
X5.625Y-3.955
X5.625Y-4.055
X5.625Y-4.255
X5.625Y-4.355
X5.625Y-4.455
X5.625Y-4.555
X5.625Y-4.655
X5.725Y-4.055
X5.725Y-4.255
X5.725Y-4.355
X5.725Y-4.455
X5.725Y-4.555
X5.725Y-4.655
X5.825Y-4.455
X5.825Y-4.555
X5.825Y-4.655
X5.925Y-4.455
X5.925Y-4.555
X5.925Y-4.655
X6.025Y-4.455
X6.025Y-4.555
X6.025Y-4.655
X6.16Y-4.536
X6.231Y-4.5365
X6.274Y-4.508
X6.325Y-3.955
X6.325Y-4.055
X6.325Y-4.455
X6.4173Y-4.5984
X6.425Y-3.955
X6.425Y-4.355
X6.425Y-4.455
X6.4528Y-4.7126
X6.471Y-4.071
X6.4711Y-3.9924
X6.4711Y-4.0318
X6.525Y-4.355
X6.525Y-4.455
X6.6063Y-4.7126
X6.6417Y-4.5551
X6.6496Y-4.1457
X6.7008Y-4.437
X6.7384Y-4.6144
X6.7402Y-4.0315
X6.7717Y-4.7126
X6.834Y-4.305
X6.8431Y-4.6137
X6.8898Y-4.1457
X6.9252Y-4.7126
X6.9312Y-4.5159
X6.9652Y-4.2609
X7.0118Y-4.3858
X7.1181Y-4.3307
X7.1183Y-4.1833
X7.1378Y-4.4331
X7.1378Y-4.5079
T3
X7.0603Y-4.2058
X7.0603Y-4.3058
T4
X6.1504Y-4.603
X6.3472Y-4.603
T5
X3.5643Y-4.0761
X3.5643Y-4.1561
X3.5643Y-4.2361
X3.5643Y-4.3161
X3.6343Y-4.0361
X3.6343Y-4.1161
X3.6343Y-4.1961
X3.6343Y-4.2761
X3.8241Y-3.9058
X3.8241Y-3.996
X3.8241Y-4.3558
X3.8241Y-4.446
T6
X4.9568Y-3.6731
X4.9568Y-3.7731
X5.0568Y-3.6731
X5.0568Y-3.7731
X5.1568Y-3.6731
X5.1568Y-3.7731
X5.2568Y-3.6731
X5.2568Y-3.7731
X5.3568Y-3.6731
X5.3568Y-3.7731
X5.4568Y-3.6731
X5.4568Y-3.7731
X5.5568Y-3.6731
X5.5568Y-3.7731
X5.6568Y-3.6731
X5.6568Y-3.7731
X5.7568Y-3.6731
X5.7568Y-3.7731
X5.8568Y-3.6731
X5.8568Y-3.7731
X5.9568Y-3.6731
X5.9568Y-3.7731
X6.0568Y-3.6731
X6.0568Y-3.7731
X6.1568Y-3.6731
X6.1568Y-3.7731
X6.2568Y-3.6731
X6.2568Y-3.7731
X6.3568Y-3.6731
X6.3568Y-3.7731
X6.4568Y-3.6731
X6.4568Y-3.7731
X6.5568Y-3.6731
X6.5568Y-3.7731
X6.6568Y-3.6731
X6.6568Y-3.7731
X6.7568Y-3.6731
X6.7568Y-3.7731
X6.8123Y-3.9161
X6.8123Y-4.0578
X6.8568Y-3.6731
X6.8568Y-3.7731
X6.9123Y-3.9161
X6.9123Y-4.0578
X7.0123Y-3.9161
X7.0123Y-4.0578
X7.1123Y-3.9161
X7.1123Y-4.0578
T7
X3.5993Y-3.8558
X3.5993Y-4.496
T2
G00X6.111Y-4.7231
M15
G01X6.111Y-4.6955
M16
G05
G00X6.3866Y-4.6955
M15
G01X6.3866Y-4.7231
M16
G05
T0
M30
