%FSLAX45Y45*%
G04 Gerber Fmt 4.5, Leading zero omitted, Abs format (unit mm)*
G04 Created by KiCad (PCBNEW (5.1.9)-1) date 2021-04-20 17:01:52*
%MOMM*%
%LPD*%
G01*
G04 APERTURE LIST*
%TA.AperFunction,Profile*%
%ADD10C,0.150000*%
%TD*%
%ADD11C,0.200000*%
%ADD12C,0.300000*%
G04 APERTURE END LIST*
D10*
X17903200Y-12106800D02*
X17953200Y-12106800D01*
X18253200Y-9406800D02*
X18253200Y-11806800D01*
X8553200Y-9106800D02*
X17953200Y-9106800D01*
X8253200Y-11806800D02*
X8253200Y-9406800D01*
X8253200Y-9406800D02*
G75*
G02*
X8553200Y-9106800I300000J0D01*
G01*
X8553200Y-12106800D02*
G75*
G02*
X8253200Y-11806800I0J300000D01*
G01*
X18253200Y-11806800D02*
G75*
G02*
X17953200Y-12106800I-300000J0D01*
G01*
X17953200Y-9106800D02*
G75*
G02*
X18253200Y-9406800I0J-300000D01*
G01*
X8553200Y-12106800D02*
X17903200Y-12106800D01*
D11*
X12458200Y-10081800D02*
X12488200Y-10111800D01*
X12488200Y-10081800D02*
X12458200Y-10111800D01*
X12458200Y-10191800D02*
X12488200Y-10221800D01*
X12488200Y-10191800D02*
X12458200Y-10221800D01*
X12458200Y-10321800D02*
X12488200Y-10351800D01*
X12488200Y-10321800D02*
X12458200Y-10351800D01*
X12458200Y-10441800D02*
X12488200Y-10471800D01*
X12488200Y-10441800D02*
X12458200Y-10471800D01*
X12578200Y-10081800D02*
X12608200Y-10111800D01*
X12608200Y-10081800D02*
X12578200Y-10111800D01*
X12578200Y-10191800D02*
X12608200Y-10221800D01*
X12608200Y-10191800D02*
X12578200Y-10221800D01*
X12578200Y-10321800D02*
X12608200Y-10351800D01*
X12608200Y-10321800D02*
X12578200Y-10351800D01*
X12578200Y-10441800D02*
X12608200Y-10471800D01*
X12608200Y-10441800D02*
X12578200Y-10471800D01*
X8520000Y-9250000D02*
G75*
G03*
X8520000Y-9250000I-20000J0D01*
G01*
X8520000Y-9500000D02*
G75*
G03*
X8520000Y-9500000I-20000J0D01*
G01*
X8520000Y-9750000D02*
G75*
G03*
X8520000Y-9750000I-20000J0D01*
G01*
X8520000Y-10000000D02*
G75*
G03*
X8520000Y-10000000I-20000J0D01*
G01*
X8520000Y-10250000D02*
G75*
G03*
X8520000Y-10250000I-20000J0D01*
G01*
X8520000Y-10500000D02*
G75*
G03*
X8520000Y-10500000I-20000J0D01*
G01*
X8520000Y-11750000D02*
G75*
G03*
X8520000Y-11750000I-20000J0D01*
G01*
X8520000Y-12000000D02*
G75*
G03*
X8520000Y-12000000I-20000J0D01*
G01*
X8770000Y-9250000D02*
G75*
G03*
X8770000Y-9250000I-20000J0D01*
G01*
X8770000Y-9500000D02*
G75*
G03*
X8770000Y-9500000I-20000J0D01*
G01*
X8770000Y-12000000D02*
G75*
G03*
X8770000Y-12000000I-20000J0D01*
G01*
X8820000Y-10800000D02*
G75*
G03*
X8820000Y-10800000I-20000J0D01*
G01*
X8820000Y-10900000D02*
G75*
G03*
X8820000Y-10900000I-20000J0D01*
G01*
X8820000Y-11000000D02*
G75*
G03*
X8820000Y-11000000I-20000J0D01*
G01*
X9020000Y-9250000D02*
G75*
G03*
X9020000Y-9250000I-20000J0D01*
G01*
X9020000Y-9500000D02*
G75*
G03*
X9020000Y-9500000I-20000J0D01*
G01*
X9020000Y-12000000D02*
G75*
G03*
X9020000Y-12000000I-20000J0D01*
G01*
X9270000Y-9250000D02*
G75*
G03*
X9270000Y-9250000I-20000J0D01*
G01*
X9270000Y-9500000D02*
G75*
G03*
X9270000Y-9500000I-20000J0D01*
G01*
X9270000Y-12000000D02*
G75*
G03*
X9270000Y-12000000I-20000J0D01*
G01*
X9430000Y-10150000D02*
G75*
G03*
X9430000Y-10150000I-20000J0D01*
G01*
X9520000Y-9250000D02*
G75*
G03*
X9520000Y-9250000I-20000J0D01*
G01*
X9520000Y-9500000D02*
G75*
G03*
X9520000Y-9500000I-20000J0D01*
G01*
X9520000Y-9750000D02*
G75*
G03*
X9520000Y-9750000I-20000J0D01*
G01*
X9520000Y-11250000D02*
G75*
G03*
X9520000Y-11250000I-20000J0D01*
G01*
X9520000Y-11500000D02*
G75*
G03*
X9520000Y-11500000I-20000J0D01*
G01*
X9520000Y-12000000D02*
G75*
G03*
X9520000Y-12000000I-20000J0D01*
G01*
X9590000Y-9970000D02*
G75*
G03*
X9590000Y-9970000I-20000J0D01*
G01*
X9590000Y-10150000D02*
G75*
G03*
X9590000Y-10150000I-20000J0D01*
G01*
X9720000Y-10660000D02*
G75*
G03*
X9720000Y-10660000I-20000J0D01*
G01*
X9770000Y-11750000D02*
G75*
G03*
X9770000Y-11750000I-20000J0D01*
G01*
X9770000Y-12000000D02*
G75*
G03*
X9770000Y-12000000I-20000J0D01*
G01*
X9850000Y-9560000D02*
G75*
G03*
X9850000Y-9560000I-20000J0D01*
G01*
X9850000Y-9660000D02*
G75*
G03*
X9850000Y-9660000I-20000J0D01*
G01*
X9850000Y-9760000D02*
G75*
G03*
X9850000Y-9760000I-20000J0D01*
G01*
X9950000Y-9460000D02*
G75*
G03*
X9950000Y-9460000I-20000J0D01*
G01*
X9960000Y-10070000D02*
G75*
G03*
X9960000Y-10070000I-20000J0D01*
G01*
X10020000Y-9240000D02*
G75*
G03*
X10020000Y-9240000I-20000J0D01*
G01*
X10020000Y-10130000D02*
G75*
G03*
X10020000Y-10130000I-20000J0D01*
G01*
X10020000Y-11750000D02*
G75*
G03*
X10020000Y-11750000I-20000J0D01*
G01*
X10020000Y-12000000D02*
G75*
G03*
X10020000Y-12000000I-20000J0D01*
G01*
X10024733Y-9339889D02*
G75*
G03*
X10024733Y-9339889I-20000J0D01*
G01*
X10090000Y-10060000D02*
G75*
G03*
X10090000Y-10060000I-20000J0D01*
G01*
X10130000Y-9460000D02*
G75*
G03*
X10130000Y-9460000I-20000J0D01*
G01*
X10130000Y-9560000D02*
G75*
G03*
X10130000Y-9560000I-20000J0D01*
G01*
X10130000Y-9660000D02*
G75*
G03*
X10130000Y-9660000I-20000J0D01*
G01*
X10130000Y-9760000D02*
G75*
G03*
X10130000Y-9760000I-20000J0D01*
G01*
X10150000Y-11180000D02*
G75*
G03*
X10150000Y-11180000I-20000J0D01*
G01*
X10270000Y-11180000D02*
G75*
G03*
X10270000Y-11180000I-20000J0D01*
G01*
X10270000Y-11340000D02*
G75*
G03*
X10270000Y-11340000I-20000J0D01*
G01*
X10270000Y-11750000D02*
G75*
G03*
X10270000Y-11750000I-20000J0D01*
G01*
X10270000Y-12000000D02*
G75*
G03*
X10270000Y-12000000I-20000J0D01*
G01*
X10380000Y-10230000D02*
G75*
G03*
X10380000Y-10230000I-20000J0D01*
G01*
X10380000Y-10330000D02*
G75*
G03*
X10380000Y-10330000I-20000J0D01*
G01*
X10400000Y-11180000D02*
G75*
G03*
X10400000Y-11180000I-20000J0D01*
G01*
X10470000Y-10970000D02*
G75*
G03*
X10470000Y-10970000I-20000J0D01*
G01*
X10470000Y-11410000D02*
G75*
G03*
X10470000Y-11410000I-20000J0D01*
G01*
X10470000Y-11750000D02*
G75*
G03*
X10470000Y-11750000I-20000J0D01*
G01*
X10480000Y-10230000D02*
G75*
G03*
X10480000Y-10230000I-20000J0D01*
G01*
X10480000Y-10330000D02*
G75*
G03*
X10480000Y-10330000I-20000J0D01*
G01*
X10630000Y-10030000D02*
G75*
G03*
X10630000Y-10030000I-20000J0D01*
G01*
X10740000Y-9830000D02*
G75*
G03*
X10740000Y-9830000I-20000J0D01*
G01*
X10742607Y-9485001D02*
G75*
G03*
X10742607Y-9485001I-20000J0D01*
G01*
X10781347Y-9728672D02*
G75*
G03*
X10781347Y-9728672I-20000J0D01*
G01*
X10830000Y-10970000D02*
G75*
G03*
X10830000Y-10970000I-20000J0D01*
G01*
X10840000Y-9412389D02*
G75*
G03*
X10840000Y-9412389I-20000J0D01*
G01*
X10847392Y-9807307D02*
G75*
G03*
X10847392Y-9807307I-20000J0D01*
G01*
X10880000Y-11750000D02*
G75*
G03*
X10880000Y-11750000I-20000J0D01*
G01*
X10916829Y-9879270D02*
G75*
G03*
X10916829Y-9879270I-20000J0D01*
G01*
X10992500Y-9310765D02*
G75*
G03*
X10992500Y-9310765I-20000J0D01*
G01*
X11070000Y-11750000D02*
G75*
G03*
X11070000Y-11750000I-20000J0D01*
G01*
X11090711Y-9269289D02*
G75*
G03*
X11090711Y-9269289I-20000J0D01*
G01*
X11100000Y-9630000D02*
G75*
G03*
X11100000Y-9630000I-20000J0D01*
G01*
X11160000Y-11190000D02*
G75*
G03*
X11160000Y-11190000I-20000J0D01*
G01*
X11160000Y-11660000D02*
G75*
G03*
X11160000Y-11660000I-20000J0D01*
G01*
X11170000Y-9334998D02*
G75*
G03*
X11170000Y-9334998I-20000J0D01*
G01*
X11170000Y-9710000D02*
G75*
G03*
X11170000Y-9710000I-20000J0D01*
G01*
X11300000Y-9890000D02*
G75*
G03*
X11300000Y-9890000I-20000J0D01*
G01*
X11370000Y-10250000D02*
G75*
G03*
X11370000Y-10250000I-20000J0D01*
G01*
X11400000Y-9409998D02*
G75*
G03*
X11400000Y-9409998I-20000J0D01*
G01*
X11407496Y-9604998D02*
G75*
G03*
X11407496Y-9604998I-20000J0D01*
G01*
X11437500Y-9700391D02*
G75*
G03*
X11437500Y-9700391I-20000J0D01*
G01*
X11490000Y-9960000D02*
G75*
G03*
X11490000Y-9960000I-20000J0D01*
G01*
X11501963Y-9530568D02*
G75*
G03*
X11501963Y-9530568I-20000J0D01*
G01*
X11560000Y-9190000D02*
G75*
G03*
X11560000Y-9190000I-20000J0D01*
G01*
X11750000Y-9920000D02*
G75*
G03*
X11750000Y-9920000I-20000J0D01*
G01*
X11750000Y-10110000D02*
G75*
G03*
X11750000Y-10110000I-20000J0D01*
G01*
X11770000Y-9490000D02*
G75*
G03*
X11770000Y-9490000I-20000J0D01*
G01*
X11810000Y-9660000D02*
G75*
G03*
X11810000Y-9660000I-20000J0D01*
G01*
X11820000Y-10530000D02*
G75*
G03*
X11820000Y-10530000I-20000J0D01*
G01*
X11820000Y-11400000D02*
G75*
G03*
X11820000Y-11400000I-20000J0D01*
G01*
X11860000Y-9210000D02*
G75*
G03*
X11860000Y-9210000I-20000J0D01*
G01*
X11860000Y-12000000D02*
G75*
G03*
X11860000Y-12000000I-20000J0D01*
G01*
X11890000Y-9920000D02*
G75*
G03*
X11890000Y-9920000I-20000J0D01*
G01*
X11890000Y-10110000D02*
G75*
G03*
X11890000Y-10110000I-20000J0D01*
G01*
X12390000Y-9210000D02*
G75*
G03*
X12390000Y-9210000I-20000J0D01*
G01*
X12390000Y-12000000D02*
G75*
G03*
X12390000Y-12000000I-20000J0D01*
G01*
X12620000Y-10800000D02*
G75*
G03*
X12620000Y-10800000I-20000J0D01*
G01*
X12620000Y-10900000D02*
G75*
G03*
X12620000Y-10900000I-20000J0D01*
G01*
X12620000Y-11700000D02*
G75*
G03*
X12620000Y-11700000I-20000J0D01*
G01*
X12620000Y-11800000D02*
G75*
G03*
X12620000Y-11800000I-20000J0D01*
G01*
X12720000Y-10800000D02*
G75*
G03*
X12720000Y-10800000I-20000J0D01*
G01*
X12720000Y-10900000D02*
G75*
G03*
X12720000Y-10900000I-20000J0D01*
G01*
X12720000Y-11700000D02*
G75*
G03*
X12720000Y-11700000I-20000J0D01*
G01*
X12720000Y-11800000D02*
G75*
G03*
X12720000Y-11800000I-20000J0D01*
G01*
X12820000Y-10800000D02*
G75*
G03*
X12820000Y-10800000I-20000J0D01*
G01*
X12820000Y-10900000D02*
G75*
G03*
X12820000Y-10900000I-20000J0D01*
G01*
X12820000Y-11700000D02*
G75*
G03*
X12820000Y-11700000I-20000J0D01*
G01*
X12820000Y-11800000D02*
G75*
G03*
X12820000Y-11800000I-20000J0D01*
G01*
X12820000Y-11800000D02*
G75*
G03*
X12820000Y-11800000I-20000J0D01*
G01*
X12920000Y-10800000D02*
G75*
G03*
X12920000Y-10800000I-20000J0D01*
G01*
X12920000Y-10900000D02*
G75*
G03*
X12920000Y-10900000I-20000J0D01*
G01*
X12920000Y-11000000D02*
G75*
G03*
X12920000Y-11000000I-20000J0D01*
G01*
X12920000Y-11100000D02*
G75*
G03*
X12920000Y-11100000I-20000J0D01*
G01*
X12920000Y-11200000D02*
G75*
G03*
X12920000Y-11200000I-20000J0D01*
G01*
X12920000Y-11300000D02*
G75*
G03*
X12920000Y-11300000I-20000J0D01*
G01*
X12920000Y-11400000D02*
G75*
G03*
X12920000Y-11400000I-20000J0D01*
G01*
X12920000Y-11500000D02*
G75*
G03*
X12920000Y-11500000I-20000J0D01*
G01*
X12920000Y-11600000D02*
G75*
G03*
X12920000Y-11600000I-20000J0D01*
G01*
X12920000Y-11700000D02*
G75*
G03*
X12920000Y-11700000I-20000J0D01*
G01*
X12920000Y-11800000D02*
G75*
G03*
X12920000Y-11800000I-20000J0D01*
G01*
X13020000Y-10800000D02*
G75*
G03*
X13020000Y-10800000I-20000J0D01*
G01*
X13020000Y-10900000D02*
G75*
G03*
X13020000Y-10900000I-20000J0D01*
G01*
X13020000Y-11000000D02*
G75*
G03*
X13020000Y-11000000I-20000J0D01*
G01*
X13020000Y-11100000D02*
G75*
G03*
X13020000Y-11100000I-20000J0D01*
G01*
X13020000Y-11200000D02*
G75*
G03*
X13020000Y-11200000I-20000J0D01*
G01*
X13020000Y-11300000D02*
G75*
G03*
X13020000Y-11300000I-20000J0D01*
G01*
X13020000Y-11400000D02*
G75*
G03*
X13020000Y-11400000I-20000J0D01*
G01*
X13020000Y-11500000D02*
G75*
G03*
X13020000Y-11500000I-20000J0D01*
G01*
X13020000Y-11600000D02*
G75*
G03*
X13020000Y-11600000I-20000J0D01*
G01*
X13020000Y-11700000D02*
G75*
G03*
X13020000Y-11700000I-20000J0D01*
G01*
X13020000Y-11800000D02*
G75*
G03*
X13020000Y-11800000I-20000J0D01*
G01*
X13220000Y-10500000D02*
G75*
G03*
X13220000Y-10500000I-20000J0D01*
G01*
X13220000Y-10590000D02*
G75*
G03*
X13220000Y-10590000I-20000J0D01*
G01*
X13320000Y-10500000D02*
G75*
G03*
X13320000Y-10500000I-20000J0D01*
G01*
X13320000Y-10590000D02*
G75*
G03*
X13320000Y-10590000I-20000J0D01*
G01*
X13320000Y-10800000D02*
G75*
G03*
X13320000Y-10800000I-20000J0D01*
G01*
X13320000Y-10900000D02*
G75*
G03*
X13320000Y-10900000I-20000J0D01*
G01*
X13320000Y-11000000D02*
G75*
G03*
X13320000Y-11000000I-20000J0D01*
G01*
X13320000Y-11100000D02*
G75*
G03*
X13320000Y-11100000I-20000J0D01*
G01*
X13320000Y-11200000D02*
G75*
G03*
X13320000Y-11200000I-20000J0D01*
G01*
X13320000Y-11300000D02*
G75*
G03*
X13320000Y-11300000I-20000J0D01*
G01*
X13320000Y-11400000D02*
G75*
G03*
X13320000Y-11400000I-20000J0D01*
G01*
X13320000Y-11500000D02*
G75*
G03*
X13320000Y-11500000I-20000J0D01*
G01*
X13320000Y-11600000D02*
G75*
G03*
X13320000Y-11600000I-20000J0D01*
G01*
X13320000Y-11700000D02*
G75*
G03*
X13320000Y-11700000I-20000J0D01*
G01*
X13320000Y-11800000D02*
G75*
G03*
X13320000Y-11800000I-20000J0D01*
G01*
X13420000Y-10500000D02*
G75*
G03*
X13420000Y-10500000I-20000J0D01*
G01*
X13420000Y-10590000D02*
G75*
G03*
X13420000Y-10590000I-20000J0D01*
G01*
X13420000Y-10800000D02*
G75*
G03*
X13420000Y-10800000I-20000J0D01*
G01*
X13420000Y-10900000D02*
G75*
G03*
X13420000Y-10900000I-20000J0D01*
G01*
X13420000Y-11000000D02*
G75*
G03*
X13420000Y-11000000I-20000J0D01*
G01*
X13420000Y-11100000D02*
G75*
G03*
X13420000Y-11100000I-20000J0D01*
G01*
X13420000Y-11200000D02*
G75*
G03*
X13420000Y-11200000I-20000J0D01*
G01*
X13420000Y-11300000D02*
G75*
G03*
X13420000Y-11300000I-20000J0D01*
G01*
X13420000Y-11400000D02*
G75*
G03*
X13420000Y-11400000I-20000J0D01*
G01*
X13420000Y-11500000D02*
G75*
G03*
X13420000Y-11500000I-20000J0D01*
G01*
X13420000Y-11600000D02*
G75*
G03*
X13420000Y-11600000I-20000J0D01*
G01*
X13420000Y-11700000D02*
G75*
G03*
X13420000Y-11700000I-20000J0D01*
G01*
X13420000Y-11800000D02*
G75*
G03*
X13420000Y-11800000I-20000J0D01*
G01*
X13520000Y-11700000D02*
G75*
G03*
X13520000Y-11700000I-20000J0D01*
G01*
X13520000Y-11800000D02*
G75*
G03*
X13520000Y-11800000I-20000J0D01*
G01*
X13523200Y-10796800D02*
G75*
G03*
X13523200Y-10796800I-20000J0D01*
G01*
X13523200Y-10896800D02*
G75*
G03*
X13523200Y-10896800I-20000J0D01*
G01*
X13620000Y-10800000D02*
G75*
G03*
X13620000Y-10800000I-20000J0D01*
G01*
X13620000Y-10900000D02*
G75*
G03*
X13620000Y-10900000I-20000J0D01*
G01*
X13620000Y-11700000D02*
G75*
G03*
X13620000Y-11700000I-20000J0D01*
G01*
X13620000Y-11800000D02*
G75*
G03*
X13620000Y-11800000I-20000J0D01*
G01*
X13630000Y-10380000D02*
G75*
G03*
X13630000Y-10380000I-20000J0D01*
G01*
X13630000Y-10590000D02*
G75*
G03*
X13630000Y-10590000I-20000J0D01*
G01*
X13720000Y-10800000D02*
G75*
G03*
X13720000Y-10800000I-20000J0D01*
G01*
X13720000Y-10900000D02*
G75*
G03*
X13720000Y-10900000I-20000J0D01*
G01*
X13720000Y-11700000D02*
G75*
G03*
X13720000Y-11700000I-20000J0D01*
G01*
X13720000Y-11800000D02*
G75*
G03*
X13720000Y-11800000I-20000J0D01*
G01*
X13760000Y-10590000D02*
G75*
G03*
X13760000Y-10590000I-20000J0D01*
G01*
X13840000Y-9930000D02*
G75*
G03*
X13840000Y-9930000I-20000J0D01*
G01*
X13840000Y-10160000D02*
G75*
G03*
X13840000Y-10160000I-20000J0D01*
G01*
X13840000Y-10380000D02*
G75*
G03*
X13840000Y-10380000I-20000J0D01*
G01*
X13910000Y-10910000D02*
G75*
G03*
X13910000Y-10910000I-20000J0D01*
G01*
X13970000Y-9920000D02*
G75*
G03*
X13970000Y-9920000I-20000J0D01*
G01*
X13970000Y-10010000D02*
G75*
G03*
X13970000Y-10010000I-20000J0D01*
G01*
X13970000Y-10110000D02*
G75*
G03*
X13970000Y-10110000I-20000J0D01*
G01*
X13970000Y-10210000D02*
G75*
G03*
X13970000Y-10210000I-20000J0D01*
G01*
X13970000Y-10310000D02*
G75*
G03*
X13970000Y-10310000I-20000J0D01*
G01*
X14070000Y-10310000D02*
G75*
G03*
X14070000Y-10310000I-20000J0D01*
G01*
X14170000Y-10310000D02*
G75*
G03*
X14170000Y-10310000I-20000J0D01*
G01*
X14270000Y-10310000D02*
G75*
G03*
X14270000Y-10310000I-20000J0D01*
G01*
X14370000Y-10310000D02*
G75*
G03*
X14370000Y-10310000I-20000J0D01*
G01*
X14380000Y-11970000D02*
G75*
G03*
X14380000Y-11970000I-20000J0D01*
G01*
X14470000Y-10310000D02*
G75*
G03*
X14470000Y-10310000I-20000J0D01*
G01*
X14570000Y-9920000D02*
G75*
G03*
X14570000Y-9920000I-20000J0D01*
G01*
X14570000Y-10010000D02*
G75*
G03*
X14570000Y-10010000I-20000J0D01*
G01*
X14570000Y-10110000D02*
G75*
G03*
X14570000Y-10110000I-20000J0D01*
G01*
X14570000Y-10210000D02*
G75*
G03*
X14570000Y-10210000I-20000J0D01*
G01*
X14570000Y-10310000D02*
G75*
G03*
X14570000Y-10310000I-20000J0D01*
G01*
X14650000Y-11330000D02*
G75*
G03*
X14650000Y-11330000I-20000J0D01*
G01*
X14650000Y-11760000D02*
G75*
G03*
X14650000Y-11760000I-20000J0D01*
G01*
X14710000Y-10050000D02*
G75*
G03*
X14710000Y-10050000I-20000J0D01*
G01*
X14710000Y-10450000D02*
G75*
G03*
X14710000Y-10450000I-20000J0D01*
G01*
X14710000Y-11020000D02*
G75*
G03*
X14710000Y-11020000I-20000J0D01*
G01*
X14780000Y-9730000D02*
G75*
G03*
X14780000Y-9730000I-20000J0D01*
G01*
X14970000Y-9820000D02*
G75*
G03*
X14970000Y-9820000I-20000J0D01*
G01*
X14970000Y-10330000D02*
G75*
G03*
X14970000Y-10330000I-20000J0D01*
G01*
X15010000Y-11540000D02*
G75*
G03*
X15010000Y-11540000I-20000J0D01*
G01*
X15060000Y-9940000D02*
G75*
G03*
X15060000Y-9940000I-20000J0D01*
G01*
X15210000Y-10330000D02*
G75*
G03*
X15210000Y-10330000I-20000J0D01*
G01*
X15211265Y-10228735D02*
G75*
G03*
X15211265Y-10228735I-20000J0D01*
G01*
X15400000Y-11030000D02*
G75*
G03*
X15400000Y-11030000I-20000J0D01*
G01*
X15480000Y-11760000D02*
G75*
G03*
X15480000Y-11760000I-20000J0D01*
G01*
X15585310Y-10134690D02*
G75*
G03*
X15585310Y-10134690I-20000J0D01*
G01*
X15590000Y-10250000D02*
G75*
G03*
X15590000Y-10250000I-20000J0D01*
G01*
X15590000Y-10360000D02*
G75*
G03*
X15590000Y-10360000I-20000J0D01*
G01*
X15660000Y-9850000D02*
G75*
G03*
X15660000Y-9850000I-20000J0D01*
G01*
X15680000Y-11030000D02*
G75*
G03*
X15680000Y-11030000I-20000J0D01*
G01*
X15690000Y-10550000D02*
G75*
G03*
X15690000Y-10550000I-20000J0D01*
G01*
X15690000Y-11460000D02*
G75*
G03*
X15690000Y-11460000I-20000J0D01*
G01*
X15762000Y-11532000D02*
G75*
G03*
X15762000Y-11532000I-20000J0D01*
G01*
X16010000Y-10860000D02*
G75*
G03*
X16010000Y-10860000I-20000J0D01*
G01*
X16010000Y-11000000D02*
G75*
G03*
X16010000Y-11000000I-20000J0D01*
G01*
X16040000Y-9760000D02*
G75*
G03*
X16040000Y-9760000I-20000J0D01*
G01*
X16120000Y-10320004D02*
G75*
G03*
X16120000Y-10320004I-20000J0D01*
G01*
X16120000Y-10770000D02*
G75*
G03*
X16120000Y-10770000I-20000J0D01*
G01*
X16130000Y-10570002D02*
G75*
G03*
X16130000Y-10570002I-20000J0D01*
G01*
X16178983Y-10427183D02*
G75*
G03*
X16178983Y-10427183I-20000J0D01*
G01*
X16240000Y-9740000D02*
G75*
G03*
X16240000Y-9740000I-20000J0D01*
G01*
X16270000Y-10930000D02*
G75*
G03*
X16270000Y-10930000I-20000J0D01*
G01*
X16320000Y-11680000D02*
G75*
G03*
X16320000Y-11680000I-20000J0D01*
G01*
X16330000Y-10640000D02*
G75*
G03*
X16330000Y-10640000I-20000J0D01*
G01*
X16410000Y-11970000D02*
G75*
G03*
X16410000Y-11970000I-20000J0D01*
G01*
X16420000Y-11090000D02*
G75*
G03*
X16420000Y-11090000I-20000J0D01*
G01*
X16450000Y-10540000D02*
G75*
G03*
X16450000Y-10540000I-20000J0D01*
G01*
X16590000Y-9770000D02*
G75*
G03*
X16590000Y-9770000I-20000J0D01*
G01*
X16710000Y-10780000D02*
G75*
G03*
X16710000Y-10780000I-20000J0D01*
G01*
X16710000Y-10880000D02*
G75*
G03*
X16710000Y-10880000I-20000J0D01*
G01*
X16710000Y-10980000D02*
G75*
G03*
X16710000Y-10980000I-20000J0D01*
G01*
X16800000Y-11970000D02*
G75*
G03*
X16800000Y-11970000I-20000J0D01*
G01*
X16880000Y-11000000D02*
G75*
G03*
X16880000Y-11000000I-20000J0D01*
G01*
X16890000Y-11570000D02*
G75*
G03*
X16890000Y-11570000I-20000J0D01*
G01*
X16910000Y-10530000D02*
G75*
G03*
X16910000Y-10530000I-20000J0D01*
G01*
X17040000Y-11270000D02*
G75*
G03*
X17040000Y-11270000I-20000J0D01*
G01*
X17140000Y-10240000D02*
G75*
G03*
X17140000Y-10240000I-20000J0D01*
G01*
X17140000Y-10760000D02*
G75*
G03*
X17140000Y-10760000I-20000J0D01*
G01*
X17220000Y-11970000D02*
G75*
G03*
X17220000Y-11970000I-20000J0D01*
G01*
X17270000Y-11230000D02*
G75*
G03*
X17270000Y-11230000I-20000J0D01*
G01*
X17520000Y-10530000D02*
G75*
G03*
X17520000Y-10530000I-20000J0D01*
G01*
X17520000Y-10950000D02*
G75*
G03*
X17520000Y-10950000I-20000J0D01*
G01*
X17610000Y-11450000D02*
G75*
G03*
X17610000Y-11450000I-20000J0D01*
G01*
X17610000Y-11970000D02*
G75*
G03*
X17610000Y-11970000I-20000J0D01*
G01*
X17830000Y-11140000D02*
G75*
G03*
X17830000Y-11140000I-20000J0D01*
G01*
X18070000Y-10530000D02*
G75*
G03*
X18070000Y-10530000I-20000J0D01*
G01*
X18100000Y-11000000D02*
G75*
G03*
X18100000Y-11000000I-20000J0D01*
G01*
X18150000Y-11260000D02*
G75*
G03*
X18150000Y-11260000I-20000J0D01*
G01*
X18150000Y-11450000D02*
G75*
G03*
X18150000Y-11450000I-20000J0D01*
G01*
X15522000Y-11931630D02*
X15522000Y-11991630D01*
X15492000Y-11961630D02*
X15552000Y-11961630D01*
X15542000Y-11996630D02*
X15542000Y-11926630D01*
X15502000Y-11996630D02*
X15502000Y-11926630D01*
X15542000Y-11926630D02*
G75*
G03*
X15502000Y-11926630I-20000J0D01*
G01*
X15502000Y-11996630D02*
G75*
G03*
X15542000Y-11996630I20000J0D01*
G01*
X16222000Y-11931630D02*
X16222000Y-11991630D01*
X16192000Y-11961630D02*
X16252000Y-11961630D01*
X16202000Y-11926630D02*
X16202000Y-11996630D01*
X16242000Y-11926630D02*
X16242000Y-11996630D01*
X16202000Y-11996630D02*
G75*
G03*
X16242000Y-11996630I20000J0D01*
G01*
X16242000Y-11926630D02*
G75*
G03*
X16202000Y-11926630I-20000J0D01*
G01*
X17957949Y-10707549D02*
X17957949Y-10658051D01*
X17908451Y-10658051D01*
X17908451Y-10707549D01*
X17957949Y-10707549D01*
X17957949Y-10961549D02*
X17957949Y-10912051D01*
X17908451Y-10912051D01*
X17908451Y-10961549D01*
X17957949Y-10961549D01*
X15622000Y-11734130D02*
X15664500Y-11691630D01*
X15622000Y-11649130D01*
X15579500Y-11691630D01*
X15622000Y-11734130D01*
X16122000Y-11734130D02*
X16164500Y-11691630D01*
X16122000Y-11649130D01*
X16079500Y-11691630D01*
X16122000Y-11734130D01*
X9008700Y-10308700D02*
X9097700Y-10397700D01*
X9097700Y-10308700D02*
X9008700Y-10397700D01*
X9097700Y-10353200D02*
G75*
G03*
X9097700Y-10353200I-44500J0D01*
G01*
X9008700Y-10511900D02*
X9097700Y-10600900D01*
X9097700Y-10511900D02*
X9008700Y-10600900D01*
X9097700Y-10556400D02*
G75*
G03*
X9097700Y-10556400I-44500J0D01*
G01*
X9008700Y-10715100D02*
X9097700Y-10804100D01*
X9097700Y-10715100D02*
X9008700Y-10804100D01*
X9097700Y-10759600D02*
G75*
G03*
X9097700Y-10759600I-44500J0D01*
G01*
X9008700Y-10918300D02*
X9097700Y-11007300D01*
X9097700Y-10918300D02*
X9008700Y-11007300D01*
X9097700Y-10962800D02*
G75*
G03*
X9097700Y-10962800I-44500J0D01*
G01*
X9186700Y-10207100D02*
X9275700Y-10296100D01*
X9275700Y-10207100D02*
X9186700Y-10296100D01*
X9275700Y-10251600D02*
G75*
G03*
X9275700Y-10251600I-44500J0D01*
G01*
X9186700Y-10410300D02*
X9275700Y-10499300D01*
X9275700Y-10410300D02*
X9186700Y-10499300D01*
X9275700Y-10454800D02*
G75*
G03*
X9275700Y-10454800I-44500J0D01*
G01*
X9186700Y-10613500D02*
X9275700Y-10702500D01*
X9275700Y-10613500D02*
X9186700Y-10702500D01*
X9275700Y-10658000D02*
G75*
G03*
X9275700Y-10658000I-44500J0D01*
G01*
X9186700Y-10816700D02*
X9275700Y-10905700D01*
X9275700Y-10816700D02*
X9186700Y-10905700D01*
X9275700Y-10861200D02*
G75*
G03*
X9275700Y-10861200I-44500J0D01*
G01*
X9668700Y-9876300D02*
X9757700Y-9965300D01*
X9757700Y-9876300D02*
X9668700Y-9965300D01*
X9757700Y-9920800D02*
G75*
G03*
X9757700Y-9920800I-44500J0D01*
G01*
X9668700Y-10105300D02*
X9757700Y-10194300D01*
X9757700Y-10105300D02*
X9668700Y-10194300D01*
X9757700Y-10149800D02*
G75*
G03*
X9757700Y-10149800I-44500J0D01*
G01*
X9668700Y-11019300D02*
X9757700Y-11108300D01*
X9757700Y-11019300D02*
X9668700Y-11108300D01*
X9757700Y-11063800D02*
G75*
G03*
X9757700Y-11063800I-44500J0D01*
G01*
X9668700Y-11248300D02*
X9757700Y-11337300D01*
X9757700Y-11248300D02*
X9668700Y-11337300D01*
X9757700Y-11292800D02*
G75*
G03*
X9757700Y-11292800I-44500J0D01*
G01*
X15474500Y-11132300D02*
X15569500Y-11227300D01*
X15569500Y-11132300D02*
X15474500Y-11227300D01*
X15522000Y-11132300D02*
X15522000Y-11227300D01*
X15474500Y-11179800D02*
X15569500Y-11179800D01*
X15724500Y-11132300D02*
X15819500Y-11227300D01*
X15819500Y-11132300D02*
X15724500Y-11227300D01*
X15772000Y-11132300D02*
X15772000Y-11227300D01*
X15724500Y-11179800D02*
X15819500Y-11179800D01*
X15924500Y-11132300D02*
X16019500Y-11227300D01*
X16019500Y-11132300D02*
X15924500Y-11227300D01*
X15972000Y-11132300D02*
X15972000Y-11227300D01*
X15924500Y-11179800D02*
X16019500Y-11179800D01*
X16174500Y-11132300D02*
X16269500Y-11227300D01*
X16269500Y-11132300D02*
X16174500Y-11227300D01*
X16222000Y-11132300D02*
X16222000Y-11227300D01*
X16174500Y-11179800D02*
X16269500Y-11179800D01*
X12540200Y-9279800D02*
X12640200Y-9379800D01*
X12640200Y-9279800D02*
X12540200Y-9379800D01*
X12625556Y-9365156D02*
X12625556Y-9294444D01*
X12554844Y-9294444D01*
X12554844Y-9365156D01*
X12625556Y-9365156D01*
X12540200Y-9533800D02*
X12640200Y-9633800D01*
X12640200Y-9533800D02*
X12540200Y-9633800D01*
X12625556Y-9619156D02*
X12625556Y-9548444D01*
X12554844Y-9548444D01*
X12554844Y-9619156D01*
X12625556Y-9619156D01*
X12794200Y-9279800D02*
X12894200Y-9379800D01*
X12894200Y-9279800D02*
X12794200Y-9379800D01*
X12879556Y-9365156D02*
X12879556Y-9294444D01*
X12808844Y-9294444D01*
X12808844Y-9365156D01*
X12879556Y-9365156D01*
X12794200Y-9533800D02*
X12894200Y-9633800D01*
X12894200Y-9533800D02*
X12794200Y-9633800D01*
X12879556Y-9619156D02*
X12879556Y-9548444D01*
X12808844Y-9548444D01*
X12808844Y-9619156D01*
X12879556Y-9619156D01*
X13048200Y-9279800D02*
X13148200Y-9379800D01*
X13148200Y-9279800D02*
X13048200Y-9379800D01*
X13133556Y-9365156D02*
X13133556Y-9294444D01*
X13062844Y-9294444D01*
X13062844Y-9365156D01*
X13133556Y-9365156D01*
X13048200Y-9533800D02*
X13148200Y-9633800D01*
X13148200Y-9533800D02*
X13048200Y-9633800D01*
X13133556Y-9619156D02*
X13133556Y-9548444D01*
X13062844Y-9548444D01*
X13062844Y-9619156D01*
X13133556Y-9619156D01*
X13302200Y-9279800D02*
X13402200Y-9379800D01*
X13402200Y-9279800D02*
X13302200Y-9379800D01*
X13387556Y-9365156D02*
X13387556Y-9294444D01*
X13316844Y-9294444D01*
X13316844Y-9365156D01*
X13387556Y-9365156D01*
X13302200Y-9533800D02*
X13402200Y-9633800D01*
X13402200Y-9533800D02*
X13302200Y-9633800D01*
X13387556Y-9619156D02*
X13387556Y-9548444D01*
X13316844Y-9548444D01*
X13316844Y-9619156D01*
X13387556Y-9619156D01*
X13556200Y-9279800D02*
X13656200Y-9379800D01*
X13656200Y-9279800D02*
X13556200Y-9379800D01*
X13641556Y-9365156D02*
X13641556Y-9294444D01*
X13570844Y-9294444D01*
X13570844Y-9365156D01*
X13641556Y-9365156D01*
X13556200Y-9533800D02*
X13656200Y-9633800D01*
X13656200Y-9533800D02*
X13556200Y-9633800D01*
X13641556Y-9619156D02*
X13641556Y-9548444D01*
X13570844Y-9548444D01*
X13570844Y-9619156D01*
X13641556Y-9619156D01*
X13810200Y-9279800D02*
X13910200Y-9379800D01*
X13910200Y-9279800D02*
X13810200Y-9379800D01*
X13895556Y-9365156D02*
X13895556Y-9294444D01*
X13824844Y-9294444D01*
X13824844Y-9365156D01*
X13895556Y-9365156D01*
X13810200Y-9533800D02*
X13910200Y-9633800D01*
X13910200Y-9533800D02*
X13810200Y-9633800D01*
X13895556Y-9619156D02*
X13895556Y-9548444D01*
X13824844Y-9548444D01*
X13824844Y-9619156D01*
X13895556Y-9619156D01*
X14064200Y-9279800D02*
X14164200Y-9379800D01*
X14164200Y-9279800D02*
X14064200Y-9379800D01*
X14149556Y-9365156D02*
X14149556Y-9294444D01*
X14078844Y-9294444D01*
X14078844Y-9365156D01*
X14149556Y-9365156D01*
X14064200Y-9533800D02*
X14164200Y-9633800D01*
X14164200Y-9533800D02*
X14064200Y-9633800D01*
X14149556Y-9619156D02*
X14149556Y-9548444D01*
X14078844Y-9548444D01*
X14078844Y-9619156D01*
X14149556Y-9619156D01*
X14318200Y-9279800D02*
X14418200Y-9379800D01*
X14418200Y-9279800D02*
X14318200Y-9379800D01*
X14403556Y-9365156D02*
X14403556Y-9294444D01*
X14332844Y-9294444D01*
X14332844Y-9365156D01*
X14403556Y-9365156D01*
X14318200Y-9533800D02*
X14418200Y-9633800D01*
X14418200Y-9533800D02*
X14318200Y-9633800D01*
X14403556Y-9619156D02*
X14403556Y-9548444D01*
X14332844Y-9548444D01*
X14332844Y-9619156D01*
X14403556Y-9619156D01*
X14572200Y-9279800D02*
X14672200Y-9379800D01*
X14672200Y-9279800D02*
X14572200Y-9379800D01*
X14657556Y-9365156D02*
X14657556Y-9294444D01*
X14586844Y-9294444D01*
X14586844Y-9365156D01*
X14657556Y-9365156D01*
X14572200Y-9533800D02*
X14672200Y-9633800D01*
X14672200Y-9533800D02*
X14572200Y-9633800D01*
X14657556Y-9619156D02*
X14657556Y-9548444D01*
X14586844Y-9548444D01*
X14586844Y-9619156D01*
X14657556Y-9619156D01*
X14826200Y-9279800D02*
X14926200Y-9379800D01*
X14926200Y-9279800D02*
X14826200Y-9379800D01*
X14911556Y-9365156D02*
X14911556Y-9294444D01*
X14840844Y-9294444D01*
X14840844Y-9365156D01*
X14911556Y-9365156D01*
X14826200Y-9533800D02*
X14926200Y-9633800D01*
X14926200Y-9533800D02*
X14826200Y-9633800D01*
X14911556Y-9619156D02*
X14911556Y-9548444D01*
X14840844Y-9548444D01*
X14840844Y-9619156D01*
X14911556Y-9619156D01*
X15080200Y-9279800D02*
X15180200Y-9379800D01*
X15180200Y-9279800D02*
X15080200Y-9379800D01*
X15165556Y-9365156D02*
X15165556Y-9294444D01*
X15094844Y-9294444D01*
X15094844Y-9365156D01*
X15165556Y-9365156D01*
X15080200Y-9533800D02*
X15180200Y-9633800D01*
X15180200Y-9533800D02*
X15080200Y-9633800D01*
X15165556Y-9619156D02*
X15165556Y-9548444D01*
X15094844Y-9548444D01*
X15094844Y-9619156D01*
X15165556Y-9619156D01*
X15334200Y-9279800D02*
X15434200Y-9379800D01*
X15434200Y-9279800D02*
X15334200Y-9379800D01*
X15419556Y-9365156D02*
X15419556Y-9294444D01*
X15348844Y-9294444D01*
X15348844Y-9365156D01*
X15419556Y-9365156D01*
X15334200Y-9533800D02*
X15434200Y-9633800D01*
X15434200Y-9533800D02*
X15334200Y-9633800D01*
X15419556Y-9619156D02*
X15419556Y-9548444D01*
X15348844Y-9548444D01*
X15348844Y-9619156D01*
X15419556Y-9619156D01*
X15588200Y-9279800D02*
X15688200Y-9379800D01*
X15688200Y-9279800D02*
X15588200Y-9379800D01*
X15673556Y-9365156D02*
X15673556Y-9294444D01*
X15602844Y-9294444D01*
X15602844Y-9365156D01*
X15673556Y-9365156D01*
X15588200Y-9533800D02*
X15688200Y-9633800D01*
X15688200Y-9533800D02*
X15588200Y-9633800D01*
X15673556Y-9619156D02*
X15673556Y-9548444D01*
X15602844Y-9548444D01*
X15602844Y-9619156D01*
X15673556Y-9619156D01*
X15842200Y-9279800D02*
X15942200Y-9379800D01*
X15942200Y-9279800D02*
X15842200Y-9379800D01*
X15927556Y-9365156D02*
X15927556Y-9294444D01*
X15856844Y-9294444D01*
X15856844Y-9365156D01*
X15927556Y-9365156D01*
X15842200Y-9533800D02*
X15942200Y-9633800D01*
X15942200Y-9533800D02*
X15842200Y-9633800D01*
X15927556Y-9619156D02*
X15927556Y-9548444D01*
X15856844Y-9548444D01*
X15856844Y-9619156D01*
X15927556Y-9619156D01*
X16096200Y-9279800D02*
X16196200Y-9379800D01*
X16196200Y-9279800D02*
X16096200Y-9379800D01*
X16181556Y-9365156D02*
X16181556Y-9294444D01*
X16110844Y-9294444D01*
X16110844Y-9365156D01*
X16181556Y-9365156D01*
X16096200Y-9533800D02*
X16196200Y-9633800D01*
X16196200Y-9533800D02*
X16096200Y-9633800D01*
X16181556Y-9619156D02*
X16181556Y-9548444D01*
X16110844Y-9548444D01*
X16110844Y-9619156D01*
X16181556Y-9619156D01*
X16350200Y-9279800D02*
X16450200Y-9379800D01*
X16450200Y-9279800D02*
X16350200Y-9379800D01*
X16435556Y-9365156D02*
X16435556Y-9294444D01*
X16364844Y-9294444D01*
X16364844Y-9365156D01*
X16435556Y-9365156D01*
X16350200Y-9533800D02*
X16450200Y-9633800D01*
X16450200Y-9533800D02*
X16350200Y-9633800D01*
X16435556Y-9619156D02*
X16435556Y-9548444D01*
X16364844Y-9548444D01*
X16364844Y-9619156D01*
X16435556Y-9619156D01*
X16604200Y-9279800D02*
X16704200Y-9379800D01*
X16704200Y-9279800D02*
X16604200Y-9379800D01*
X16689556Y-9365156D02*
X16689556Y-9294444D01*
X16618844Y-9294444D01*
X16618844Y-9365156D01*
X16689556Y-9365156D01*
X16604200Y-9533800D02*
X16704200Y-9633800D01*
X16704200Y-9533800D02*
X16604200Y-9633800D01*
X16689556Y-9619156D02*
X16689556Y-9548444D01*
X16618844Y-9548444D01*
X16618844Y-9619156D01*
X16689556Y-9619156D01*
X16858200Y-9279800D02*
X16958200Y-9379800D01*
X16958200Y-9279800D02*
X16858200Y-9379800D01*
X16943556Y-9365156D02*
X16943556Y-9294444D01*
X16872844Y-9294444D01*
X16872844Y-9365156D01*
X16943556Y-9365156D01*
X16858200Y-9533800D02*
X16958200Y-9633800D01*
X16958200Y-9533800D02*
X16858200Y-9633800D01*
X16943556Y-9619156D02*
X16943556Y-9548444D01*
X16872844Y-9548444D01*
X16872844Y-9619156D01*
X16943556Y-9619156D01*
X17112200Y-9279800D02*
X17212200Y-9379800D01*
X17212200Y-9279800D02*
X17112200Y-9379800D01*
X17197556Y-9365156D02*
X17197556Y-9294444D01*
X17126844Y-9294444D01*
X17126844Y-9365156D01*
X17197556Y-9365156D01*
X17112200Y-9533800D02*
X17212200Y-9633800D01*
X17212200Y-9533800D02*
X17112200Y-9633800D01*
X17197556Y-9619156D02*
X17197556Y-9548444D01*
X17126844Y-9548444D01*
X17126844Y-9619156D01*
X17197556Y-9619156D01*
X17253200Y-9896800D02*
X17353200Y-9996800D01*
X17353200Y-9896800D02*
X17253200Y-9996800D01*
X17338556Y-9982156D02*
X17338556Y-9911444D01*
X17267844Y-9911444D01*
X17267844Y-9982156D01*
X17338556Y-9982156D01*
X17253200Y-10256800D02*
X17353200Y-10356800D01*
X17353200Y-10256800D02*
X17253200Y-10356800D01*
X17338556Y-10342156D02*
X17338556Y-10271444D01*
X17267844Y-10271444D01*
X17267844Y-10342156D01*
X17338556Y-10342156D01*
X17366200Y-9279800D02*
X17466200Y-9379800D01*
X17466200Y-9279800D02*
X17366200Y-9379800D01*
X17451556Y-9365156D02*
X17451556Y-9294444D01*
X17380844Y-9294444D01*
X17380844Y-9365156D01*
X17451556Y-9365156D01*
X17366200Y-9533800D02*
X17466200Y-9633800D01*
X17466200Y-9533800D02*
X17366200Y-9633800D01*
X17451556Y-9619156D02*
X17451556Y-9548444D01*
X17380844Y-9548444D01*
X17380844Y-9619156D01*
X17451556Y-9619156D01*
X17507200Y-9896800D02*
X17607200Y-9996800D01*
X17607200Y-9896800D02*
X17507200Y-9996800D01*
X17592556Y-9982156D02*
X17592556Y-9911444D01*
X17521844Y-9911444D01*
X17521844Y-9982156D01*
X17592556Y-9982156D01*
X17507200Y-10256800D02*
X17607200Y-10356800D01*
X17607200Y-10256800D02*
X17507200Y-10356800D01*
X17592556Y-10342156D02*
X17592556Y-10271444D01*
X17521844Y-10271444D01*
X17521844Y-10342156D01*
X17592556Y-10342156D01*
X17761200Y-9896800D02*
X17861200Y-9996800D01*
X17861200Y-9896800D02*
X17761200Y-9996800D01*
X17846556Y-9982156D02*
X17846556Y-9911444D01*
X17775844Y-9911444D01*
X17775844Y-9982156D01*
X17846556Y-9982156D01*
X17761200Y-10256800D02*
X17861200Y-10356800D01*
X17861200Y-10256800D02*
X17761200Y-10356800D01*
X17846556Y-10342156D02*
X17846556Y-10271444D01*
X17775844Y-10271444D01*
X17775844Y-10342156D01*
X17846556Y-10342156D01*
X18015200Y-9896800D02*
X18115200Y-9996800D01*
X18115200Y-9896800D02*
X18015200Y-9996800D01*
X18100556Y-9982156D02*
X18100556Y-9911444D01*
X18029844Y-9911444D01*
X18029844Y-9982156D01*
X18100556Y-9982156D01*
X18015200Y-10256800D02*
X18115200Y-10356800D01*
X18115200Y-10256800D02*
X18015200Y-10356800D01*
X18100556Y-10342156D02*
X18100556Y-10271444D01*
X18029844Y-10271444D01*
X18029844Y-10342156D01*
X18100556Y-10342156D01*
X9063700Y-9715300D02*
X9220700Y-9872300D01*
X9220700Y-9715300D02*
X9063700Y-9872300D01*
X9142200Y-9872300D02*
X9220700Y-9793800D01*
X9142200Y-9715300D01*
X9063700Y-9793800D01*
X9142200Y-9872300D01*
X9063700Y-11341300D02*
X9220700Y-11498300D01*
X9220700Y-11341300D02*
X9063700Y-11498300D01*
X9142200Y-11498300D02*
X9220700Y-11419800D01*
X9142200Y-11341300D01*
X9063700Y-11419800D01*
X9142200Y-11498300D01*
X15215000Y-11335800D02*
X15215000Y-11565800D01*
X15100000Y-11450800D02*
X15330000Y-11450800D01*
X15330000Y-11450800D02*
G75*
G03*
X15330000Y-11450800I-115000J0D01*
G01*
X16529000Y-11335800D02*
X16529000Y-11565800D01*
X16414000Y-11450800D02*
X16644000Y-11450800D01*
X16644000Y-11450800D02*
G75*
G03*
X16644000Y-11450800I-115000J0D01*
G01*
D12*
X8532128Y-12580014D02*
X8532128Y-12280014D01*
X8603557Y-12280014D01*
X8646414Y-12294300D01*
X8674986Y-12322871D01*
X8689271Y-12351443D01*
X8703557Y-12408586D01*
X8703557Y-12451443D01*
X8689271Y-12508586D01*
X8674986Y-12537157D01*
X8646414Y-12565729D01*
X8603557Y-12580014D01*
X8532128Y-12580014D01*
X8832128Y-12580014D02*
X8832128Y-12380014D01*
X8832128Y-12437157D02*
X8846414Y-12408586D01*
X8860700Y-12394300D01*
X8889271Y-12380014D01*
X8917843Y-12380014D01*
X9017843Y-12580014D02*
X9017843Y-12380014D01*
X9017843Y-12280014D02*
X9003557Y-12294300D01*
X9017843Y-12308586D01*
X9032128Y-12294300D01*
X9017843Y-12280014D01*
X9017843Y-12308586D01*
X9203557Y-12580014D02*
X9174986Y-12565729D01*
X9160700Y-12537157D01*
X9160700Y-12280014D01*
X9360700Y-12580014D02*
X9332128Y-12565729D01*
X9317843Y-12537157D01*
X9317843Y-12280014D01*
X9703557Y-12580014D02*
X9703557Y-12280014D01*
X9803557Y-12494300D01*
X9903557Y-12280014D01*
X9903557Y-12580014D01*
X10174986Y-12580014D02*
X10174986Y-12422871D01*
X10160700Y-12394300D01*
X10132128Y-12380014D01*
X10074986Y-12380014D01*
X10046414Y-12394300D01*
X10174986Y-12565729D02*
X10146414Y-12580014D01*
X10074986Y-12580014D01*
X10046414Y-12565729D01*
X10032128Y-12537157D01*
X10032128Y-12508586D01*
X10046414Y-12480014D01*
X10074986Y-12465729D01*
X10146414Y-12465729D01*
X10174986Y-12451443D01*
X10317843Y-12380014D02*
X10317843Y-12680014D01*
X10317843Y-12394300D02*
X10346414Y-12380014D01*
X10403557Y-12380014D01*
X10432128Y-12394300D01*
X10446414Y-12408586D01*
X10460700Y-12437157D01*
X10460700Y-12522871D01*
X10446414Y-12551443D01*
X10432128Y-12565729D01*
X10403557Y-12580014D01*
X10346414Y-12580014D01*
X10317843Y-12565729D01*
X10589271Y-12551443D02*
X10603557Y-12565729D01*
X10589271Y-12580014D01*
X10574986Y-12565729D01*
X10589271Y-12551443D01*
X10589271Y-12580014D01*
X10589271Y-12394300D02*
X10603557Y-12408586D01*
X10589271Y-12422871D01*
X10574986Y-12408586D01*
X10589271Y-12394300D01*
X10589271Y-12422871D01*
X8215700Y-13059300D02*
X8245700Y-13089300D01*
X8245700Y-13059300D02*
X8215700Y-13089300D01*
X8589271Y-12910014D02*
X8617843Y-12910014D01*
X8646414Y-12924300D01*
X8660700Y-12938586D01*
X8674986Y-12967157D01*
X8689271Y-13024300D01*
X8689271Y-13095729D01*
X8674986Y-13152871D01*
X8660700Y-13181443D01*
X8646414Y-13195729D01*
X8617843Y-13210014D01*
X8589271Y-13210014D01*
X8560700Y-13195729D01*
X8546414Y-13181443D01*
X8532128Y-13152871D01*
X8517843Y-13095729D01*
X8517843Y-13024300D01*
X8532128Y-12967157D01*
X8546414Y-12938586D01*
X8560700Y-12924300D01*
X8589271Y-12910014D01*
X8817843Y-13181443D02*
X8832128Y-13195729D01*
X8817843Y-13210014D01*
X8803557Y-13195729D01*
X8817843Y-13181443D01*
X8817843Y-13210014D01*
X8932128Y-12910014D02*
X9117843Y-12910014D01*
X9017843Y-13024300D01*
X9060700Y-13024300D01*
X9089271Y-13038586D01*
X9103557Y-13052871D01*
X9117843Y-13081443D01*
X9117843Y-13152871D01*
X9103557Y-13181443D01*
X9089271Y-13195729D01*
X9060700Y-13210014D01*
X8974986Y-13210014D01*
X8946414Y-13195729D01*
X8932128Y-13181443D01*
X9303557Y-12910014D02*
X9332128Y-12910014D01*
X9360700Y-12924300D01*
X9374986Y-12938586D01*
X9389271Y-12967157D01*
X9403557Y-13024300D01*
X9403557Y-13095729D01*
X9389271Y-13152871D01*
X9374986Y-13181443D01*
X9360700Y-13195729D01*
X9332128Y-13210014D01*
X9303557Y-13210014D01*
X9274986Y-13195729D01*
X9260700Y-13181443D01*
X9246414Y-13152871D01*
X9232128Y-13095729D01*
X9232128Y-13024300D01*
X9246414Y-12967157D01*
X9260700Y-12938586D01*
X9274986Y-12924300D01*
X9303557Y-12910014D01*
X9532128Y-13210014D02*
X9532128Y-13010014D01*
X9532128Y-13038586D02*
X9546414Y-13024300D01*
X9574986Y-13010014D01*
X9617843Y-13010014D01*
X9646414Y-13024300D01*
X9660700Y-13052871D01*
X9660700Y-13210014D01*
X9660700Y-13052871D02*
X9674986Y-13024300D01*
X9703557Y-13010014D01*
X9746414Y-13010014D01*
X9774986Y-13024300D01*
X9789271Y-13052871D01*
X9789271Y-13210014D01*
X9932128Y-13210014D02*
X9932128Y-13010014D01*
X9932128Y-13038586D02*
X9946414Y-13024300D01*
X9974986Y-13010014D01*
X10017843Y-13010014D01*
X10046414Y-13024300D01*
X10060700Y-13052871D01*
X10060700Y-13210014D01*
X10060700Y-13052871D02*
X10074986Y-13024300D01*
X10103557Y-13010014D01*
X10146414Y-13010014D01*
X10174986Y-13024300D01*
X10189271Y-13052871D01*
X10189271Y-13210014D01*
X10774986Y-12895729D02*
X10517843Y-13281443D01*
X11160700Y-12910014D02*
X11189271Y-12910014D01*
X11217843Y-12924300D01*
X11232128Y-12938586D01*
X11246414Y-12967157D01*
X11260700Y-13024300D01*
X11260700Y-13095729D01*
X11246414Y-13152871D01*
X11232128Y-13181443D01*
X11217843Y-13195729D01*
X11189271Y-13210014D01*
X11160700Y-13210014D01*
X11132128Y-13195729D01*
X11117843Y-13181443D01*
X11103557Y-13152871D01*
X11089271Y-13095729D01*
X11089271Y-13024300D01*
X11103557Y-12967157D01*
X11117843Y-12938586D01*
X11132128Y-12924300D01*
X11160700Y-12910014D01*
X11389271Y-13181443D02*
X11403557Y-13195729D01*
X11389271Y-13210014D01*
X11374986Y-13195729D01*
X11389271Y-13181443D01*
X11389271Y-13210014D01*
X11589271Y-12910014D02*
X11617843Y-12910014D01*
X11646414Y-12924300D01*
X11660700Y-12938586D01*
X11674986Y-12967157D01*
X11689271Y-13024300D01*
X11689271Y-13095729D01*
X11674986Y-13152871D01*
X11660700Y-13181443D01*
X11646414Y-13195729D01*
X11617843Y-13210014D01*
X11589271Y-13210014D01*
X11560700Y-13195729D01*
X11546414Y-13181443D01*
X11532128Y-13152871D01*
X11517843Y-13095729D01*
X11517843Y-13024300D01*
X11532128Y-12967157D01*
X11546414Y-12938586D01*
X11560700Y-12924300D01*
X11589271Y-12910014D01*
X11974986Y-13210014D02*
X11803557Y-13210014D01*
X11889271Y-13210014D02*
X11889271Y-12910014D01*
X11860700Y-12952871D01*
X11832128Y-12981443D01*
X11803557Y-12995729D01*
X12089271Y-12938586D02*
X12103557Y-12924300D01*
X12132128Y-12910014D01*
X12203557Y-12910014D01*
X12232128Y-12924300D01*
X12246414Y-12938586D01*
X12260700Y-12967157D01*
X12260700Y-12995729D01*
X12246414Y-13038586D01*
X12074986Y-13210014D01*
X12260700Y-13210014D01*
X12374986Y-12910014D02*
X12374986Y-12967157D01*
X12489271Y-12910014D02*
X12489271Y-12967157D01*
X12932128Y-13324300D02*
X12917843Y-13310014D01*
X12889271Y-13267157D01*
X12874986Y-13238586D01*
X12860700Y-13195729D01*
X12846414Y-13124300D01*
X12846414Y-13067157D01*
X12860700Y-12995729D01*
X12874986Y-12952871D01*
X12889271Y-12924300D01*
X12917843Y-12881443D01*
X12932128Y-12867157D01*
X13089271Y-13038586D02*
X13060700Y-13024300D01*
X13046414Y-13010014D01*
X13032128Y-12981443D01*
X13032128Y-12967157D01*
X13046414Y-12938586D01*
X13060700Y-12924300D01*
X13089271Y-12910014D01*
X13146414Y-12910014D01*
X13174986Y-12924300D01*
X13189271Y-12938586D01*
X13203557Y-12967157D01*
X13203557Y-12981443D01*
X13189271Y-13010014D01*
X13174986Y-13024300D01*
X13146414Y-13038586D01*
X13089271Y-13038586D01*
X13060700Y-13052871D01*
X13046414Y-13067157D01*
X13032128Y-13095729D01*
X13032128Y-13152871D01*
X13046414Y-13181443D01*
X13060700Y-13195729D01*
X13089271Y-13210014D01*
X13146414Y-13210014D01*
X13174986Y-13195729D01*
X13189271Y-13181443D01*
X13203557Y-13152871D01*
X13203557Y-13095729D01*
X13189271Y-13067157D01*
X13174986Y-13052871D01*
X13146414Y-13038586D01*
X13560700Y-13210014D02*
X13560700Y-12910014D01*
X13689271Y-13210014D02*
X13689271Y-13052871D01*
X13674986Y-13024300D01*
X13646414Y-13010014D01*
X13603557Y-13010014D01*
X13574986Y-13024300D01*
X13560700Y-13038586D01*
X13874986Y-13210014D02*
X13846414Y-13195729D01*
X13832128Y-13181443D01*
X13817843Y-13152871D01*
X13817843Y-13067157D01*
X13832128Y-13038586D01*
X13846414Y-13024300D01*
X13874986Y-13010014D01*
X13917843Y-13010014D01*
X13946414Y-13024300D01*
X13960700Y-13038586D01*
X13974986Y-13067157D01*
X13974986Y-13152871D01*
X13960700Y-13181443D01*
X13946414Y-13195729D01*
X13917843Y-13210014D01*
X13874986Y-13210014D01*
X14146414Y-13210014D02*
X14117843Y-13195729D01*
X14103557Y-13167157D01*
X14103557Y-12910014D01*
X14374986Y-13195729D02*
X14346414Y-13210014D01*
X14289271Y-13210014D01*
X14260700Y-13195729D01*
X14246414Y-13167157D01*
X14246414Y-13052871D01*
X14260700Y-13024300D01*
X14289271Y-13010014D01*
X14346414Y-13010014D01*
X14374986Y-13024300D01*
X14389271Y-13052871D01*
X14389271Y-13081443D01*
X14246414Y-13110014D01*
X14503557Y-13195729D02*
X14532128Y-13210014D01*
X14589271Y-13210014D01*
X14617843Y-13195729D01*
X14632128Y-13167157D01*
X14632128Y-13152871D01*
X14617843Y-13124300D01*
X14589271Y-13110014D01*
X14546414Y-13110014D01*
X14517843Y-13095729D01*
X14503557Y-13067157D01*
X14503557Y-13052871D01*
X14517843Y-13024300D01*
X14546414Y-13010014D01*
X14589271Y-13010014D01*
X14617843Y-13024300D01*
X14732128Y-13324300D02*
X14746414Y-13310014D01*
X14774986Y-13267157D01*
X14789271Y-13238586D01*
X14803557Y-13195729D01*
X14817843Y-13124300D01*
X14817843Y-13067157D01*
X14803557Y-12995729D01*
X14789271Y-12952871D01*
X14774986Y-12924300D01*
X14746414Y-12881443D01*
X14732128Y-12867157D01*
X8245700Y-13470300D02*
G75*
G03*
X8245700Y-13470300I-20000J0D01*
G01*
X8589271Y-13306014D02*
X8617843Y-13306014D01*
X8646414Y-13320300D01*
X8660700Y-13334586D01*
X8674986Y-13363157D01*
X8689271Y-13420300D01*
X8689271Y-13491729D01*
X8674986Y-13548871D01*
X8660700Y-13577443D01*
X8646414Y-13591729D01*
X8617843Y-13606014D01*
X8589271Y-13606014D01*
X8560700Y-13591729D01*
X8546414Y-13577443D01*
X8532128Y-13548871D01*
X8517843Y-13491729D01*
X8517843Y-13420300D01*
X8532128Y-13363157D01*
X8546414Y-13334586D01*
X8560700Y-13320300D01*
X8589271Y-13306014D01*
X8817843Y-13577443D02*
X8832128Y-13591729D01*
X8817843Y-13606014D01*
X8803557Y-13591729D01*
X8817843Y-13577443D01*
X8817843Y-13606014D01*
X9089271Y-13406014D02*
X9089271Y-13606014D01*
X9017843Y-13291729D02*
X8946414Y-13506014D01*
X9132128Y-13506014D01*
X9303557Y-13306014D02*
X9332128Y-13306014D01*
X9360700Y-13320300D01*
X9374986Y-13334586D01*
X9389271Y-13363157D01*
X9403557Y-13420300D01*
X9403557Y-13491729D01*
X9389271Y-13548871D01*
X9374986Y-13577443D01*
X9360700Y-13591729D01*
X9332128Y-13606014D01*
X9303557Y-13606014D01*
X9274986Y-13591729D01*
X9260700Y-13577443D01*
X9246414Y-13548871D01*
X9232128Y-13491729D01*
X9232128Y-13420300D01*
X9246414Y-13363157D01*
X9260700Y-13334586D01*
X9274986Y-13320300D01*
X9303557Y-13306014D01*
X9532128Y-13606014D02*
X9532128Y-13406014D01*
X9532128Y-13434586D02*
X9546414Y-13420300D01*
X9574986Y-13406014D01*
X9617843Y-13406014D01*
X9646414Y-13420300D01*
X9660700Y-13448871D01*
X9660700Y-13606014D01*
X9660700Y-13448871D02*
X9674986Y-13420300D01*
X9703557Y-13406014D01*
X9746414Y-13406014D01*
X9774986Y-13420300D01*
X9789271Y-13448871D01*
X9789271Y-13606014D01*
X9932128Y-13606014D02*
X9932128Y-13406014D01*
X9932128Y-13434586D02*
X9946414Y-13420300D01*
X9974986Y-13406014D01*
X10017843Y-13406014D01*
X10046414Y-13420300D01*
X10060700Y-13448871D01*
X10060700Y-13606014D01*
X10060700Y-13448871D02*
X10074986Y-13420300D01*
X10103557Y-13406014D01*
X10146414Y-13406014D01*
X10174986Y-13420300D01*
X10189271Y-13448871D01*
X10189271Y-13606014D01*
X10774986Y-13291729D02*
X10517843Y-13677443D01*
X11160700Y-13306014D02*
X11189271Y-13306014D01*
X11217843Y-13320300D01*
X11232128Y-13334586D01*
X11246414Y-13363157D01*
X11260700Y-13420300D01*
X11260700Y-13491729D01*
X11246414Y-13548871D01*
X11232128Y-13577443D01*
X11217843Y-13591729D01*
X11189271Y-13606014D01*
X11160700Y-13606014D01*
X11132128Y-13591729D01*
X11117843Y-13577443D01*
X11103557Y-13548871D01*
X11089271Y-13491729D01*
X11089271Y-13420300D01*
X11103557Y-13363157D01*
X11117843Y-13334586D01*
X11132128Y-13320300D01*
X11160700Y-13306014D01*
X11389271Y-13577443D02*
X11403557Y-13591729D01*
X11389271Y-13606014D01*
X11374986Y-13591729D01*
X11389271Y-13577443D01*
X11389271Y-13606014D01*
X11589271Y-13306014D02*
X11617843Y-13306014D01*
X11646414Y-13320300D01*
X11660700Y-13334586D01*
X11674986Y-13363157D01*
X11689271Y-13420300D01*
X11689271Y-13491729D01*
X11674986Y-13548871D01*
X11660700Y-13577443D01*
X11646414Y-13591729D01*
X11617843Y-13606014D01*
X11589271Y-13606014D01*
X11560700Y-13591729D01*
X11546414Y-13577443D01*
X11532128Y-13548871D01*
X11517843Y-13491729D01*
X11517843Y-13420300D01*
X11532128Y-13363157D01*
X11546414Y-13334586D01*
X11560700Y-13320300D01*
X11589271Y-13306014D01*
X11974986Y-13606014D02*
X11803557Y-13606014D01*
X11889271Y-13606014D02*
X11889271Y-13306014D01*
X11860700Y-13348871D01*
X11832128Y-13377443D01*
X11803557Y-13391729D01*
X12232128Y-13306014D02*
X12174986Y-13306014D01*
X12146414Y-13320300D01*
X12132128Y-13334586D01*
X12103557Y-13377443D01*
X12089271Y-13434586D01*
X12089271Y-13548871D01*
X12103557Y-13577443D01*
X12117843Y-13591729D01*
X12146414Y-13606014D01*
X12203557Y-13606014D01*
X12232128Y-13591729D01*
X12246414Y-13577443D01*
X12260700Y-13548871D01*
X12260700Y-13477443D01*
X12246414Y-13448871D01*
X12232128Y-13434586D01*
X12203557Y-13420300D01*
X12146414Y-13420300D01*
X12117843Y-13434586D01*
X12103557Y-13448871D01*
X12089271Y-13477443D01*
X12374986Y-13306014D02*
X12374986Y-13363157D01*
X12489271Y-13306014D02*
X12489271Y-13363157D01*
X12932128Y-13720300D02*
X12917843Y-13706014D01*
X12889271Y-13663157D01*
X12874986Y-13634586D01*
X12860700Y-13591729D01*
X12846414Y-13520300D01*
X12846414Y-13463157D01*
X12860700Y-13391729D01*
X12874986Y-13348871D01*
X12889271Y-13320300D01*
X12917843Y-13277443D01*
X12932128Y-13263157D01*
X13032128Y-13334586D02*
X13046414Y-13320300D01*
X13074986Y-13306014D01*
X13146414Y-13306014D01*
X13174986Y-13320300D01*
X13189271Y-13334586D01*
X13203557Y-13363157D01*
X13203557Y-13391729D01*
X13189271Y-13434586D01*
X13017843Y-13606014D01*
X13203557Y-13606014D01*
X13474986Y-13306014D02*
X13332128Y-13306014D01*
X13317843Y-13448871D01*
X13332128Y-13434586D01*
X13360700Y-13420300D01*
X13432128Y-13420300D01*
X13460700Y-13434586D01*
X13474986Y-13448871D01*
X13489271Y-13477443D01*
X13489271Y-13548871D01*
X13474986Y-13577443D01*
X13460700Y-13591729D01*
X13432128Y-13606014D01*
X13360700Y-13606014D01*
X13332128Y-13591729D01*
X13317843Y-13577443D01*
X13589271Y-13306014D02*
X13774986Y-13306014D01*
X13674986Y-13420300D01*
X13717843Y-13420300D01*
X13746414Y-13434586D01*
X13760700Y-13448871D01*
X13774986Y-13477443D01*
X13774986Y-13548871D01*
X13760700Y-13577443D01*
X13746414Y-13591729D01*
X13717843Y-13606014D01*
X13632128Y-13606014D01*
X13603557Y-13591729D01*
X13589271Y-13577443D01*
X14132128Y-13606014D02*
X14132128Y-13306014D01*
X14260700Y-13606014D02*
X14260700Y-13448871D01*
X14246414Y-13420300D01*
X14217843Y-13406014D01*
X14174986Y-13406014D01*
X14146414Y-13420300D01*
X14132128Y-13434586D01*
X14446414Y-13606014D02*
X14417843Y-13591729D01*
X14403557Y-13577443D01*
X14389271Y-13548871D01*
X14389271Y-13463157D01*
X14403557Y-13434586D01*
X14417843Y-13420300D01*
X14446414Y-13406014D01*
X14489271Y-13406014D01*
X14517843Y-13420300D01*
X14532128Y-13434586D01*
X14546414Y-13463157D01*
X14546414Y-13548871D01*
X14532128Y-13577443D01*
X14517843Y-13591729D01*
X14489271Y-13606014D01*
X14446414Y-13606014D01*
X14717843Y-13606014D02*
X14689271Y-13591729D01*
X14674986Y-13563157D01*
X14674986Y-13306014D01*
X14946414Y-13591729D02*
X14917843Y-13606014D01*
X14860700Y-13606014D01*
X14832128Y-13591729D01*
X14817843Y-13563157D01*
X14817843Y-13448871D01*
X14832128Y-13420300D01*
X14860700Y-13406014D01*
X14917843Y-13406014D01*
X14946414Y-13420300D01*
X14960700Y-13448871D01*
X14960700Y-13477443D01*
X14817843Y-13506014D01*
X15074986Y-13591729D02*
X15103557Y-13606014D01*
X15160700Y-13606014D01*
X15189271Y-13591729D01*
X15203557Y-13563157D01*
X15203557Y-13548871D01*
X15189271Y-13520300D01*
X15160700Y-13506014D01*
X15117843Y-13506014D01*
X15089271Y-13491729D01*
X15074986Y-13463157D01*
X15074986Y-13448871D01*
X15089271Y-13420300D01*
X15117843Y-13406014D01*
X15160700Y-13406014D01*
X15189271Y-13420300D01*
X15303557Y-13720300D02*
X15317843Y-13706014D01*
X15346414Y-13663157D01*
X15360700Y-13634586D01*
X15374986Y-13591729D01*
X15389271Y-13520300D01*
X15389271Y-13463157D01*
X15374986Y-13391729D01*
X15360700Y-13348871D01*
X15346414Y-13320300D01*
X15317843Y-13277443D01*
X15303557Y-13263157D01*
X8215700Y-13836300D02*
X8215700Y-13896300D01*
X8185700Y-13866300D02*
X8245700Y-13866300D01*
X8589271Y-13702014D02*
X8617843Y-13702014D01*
X8646414Y-13716300D01*
X8660700Y-13730586D01*
X8674986Y-13759157D01*
X8689271Y-13816300D01*
X8689271Y-13887729D01*
X8674986Y-13944871D01*
X8660700Y-13973443D01*
X8646414Y-13987729D01*
X8617843Y-14002014D01*
X8589271Y-14002014D01*
X8560700Y-13987729D01*
X8546414Y-13973443D01*
X8532128Y-13944871D01*
X8517843Y-13887729D01*
X8517843Y-13816300D01*
X8532128Y-13759157D01*
X8546414Y-13730586D01*
X8560700Y-13716300D01*
X8589271Y-13702014D01*
X8817843Y-13973443D02*
X8832128Y-13987729D01*
X8817843Y-14002014D01*
X8803557Y-13987729D01*
X8817843Y-13973443D01*
X8817843Y-14002014D01*
X9089271Y-13702014D02*
X9032128Y-13702014D01*
X9003557Y-13716300D01*
X8989271Y-13730586D01*
X8960700Y-13773443D01*
X8946414Y-13830586D01*
X8946414Y-13944871D01*
X8960700Y-13973443D01*
X8974986Y-13987729D01*
X9003557Y-14002014D01*
X9060700Y-14002014D01*
X9089271Y-13987729D01*
X9103557Y-13973443D01*
X9117843Y-13944871D01*
X9117843Y-13873443D01*
X9103557Y-13844871D01*
X9089271Y-13830586D01*
X9060700Y-13816300D01*
X9003557Y-13816300D01*
X8974986Y-13830586D01*
X8960700Y-13844871D01*
X8946414Y-13873443D01*
X9303557Y-13702014D02*
X9332128Y-13702014D01*
X9360700Y-13716300D01*
X9374986Y-13730586D01*
X9389271Y-13759157D01*
X9403557Y-13816300D01*
X9403557Y-13887729D01*
X9389271Y-13944871D01*
X9374986Y-13973443D01*
X9360700Y-13987729D01*
X9332128Y-14002014D01*
X9303557Y-14002014D01*
X9274986Y-13987729D01*
X9260700Y-13973443D01*
X9246414Y-13944871D01*
X9232128Y-13887729D01*
X9232128Y-13816300D01*
X9246414Y-13759157D01*
X9260700Y-13730586D01*
X9274986Y-13716300D01*
X9303557Y-13702014D01*
X9532128Y-14002014D02*
X9532128Y-13802014D01*
X9532128Y-13830586D02*
X9546414Y-13816300D01*
X9574986Y-13802014D01*
X9617843Y-13802014D01*
X9646414Y-13816300D01*
X9660700Y-13844871D01*
X9660700Y-14002014D01*
X9660700Y-13844871D02*
X9674986Y-13816300D01*
X9703557Y-13802014D01*
X9746414Y-13802014D01*
X9774986Y-13816300D01*
X9789271Y-13844871D01*
X9789271Y-14002014D01*
X9932128Y-14002014D02*
X9932128Y-13802014D01*
X9932128Y-13830586D02*
X9946414Y-13816300D01*
X9974986Y-13802014D01*
X10017843Y-13802014D01*
X10046414Y-13816300D01*
X10060700Y-13844871D01*
X10060700Y-14002014D01*
X10060700Y-13844871D02*
X10074986Y-13816300D01*
X10103557Y-13802014D01*
X10146414Y-13802014D01*
X10174986Y-13816300D01*
X10189271Y-13844871D01*
X10189271Y-14002014D01*
X10774986Y-13687729D02*
X10517843Y-14073443D01*
X11160700Y-13702014D02*
X11189271Y-13702014D01*
X11217843Y-13716300D01*
X11232128Y-13730586D01*
X11246414Y-13759157D01*
X11260700Y-13816300D01*
X11260700Y-13887729D01*
X11246414Y-13944871D01*
X11232128Y-13973443D01*
X11217843Y-13987729D01*
X11189271Y-14002014D01*
X11160700Y-14002014D01*
X11132128Y-13987729D01*
X11117843Y-13973443D01*
X11103557Y-13944871D01*
X11089271Y-13887729D01*
X11089271Y-13816300D01*
X11103557Y-13759157D01*
X11117843Y-13730586D01*
X11132128Y-13716300D01*
X11160700Y-13702014D01*
X11389271Y-13973443D02*
X11403557Y-13987729D01*
X11389271Y-14002014D01*
X11374986Y-13987729D01*
X11389271Y-13973443D01*
X11389271Y-14002014D01*
X11589271Y-13702014D02*
X11617843Y-13702014D01*
X11646414Y-13716300D01*
X11660700Y-13730586D01*
X11674986Y-13759157D01*
X11689271Y-13816300D01*
X11689271Y-13887729D01*
X11674986Y-13944871D01*
X11660700Y-13973443D01*
X11646414Y-13987729D01*
X11617843Y-14002014D01*
X11589271Y-14002014D01*
X11560700Y-13987729D01*
X11546414Y-13973443D01*
X11532128Y-13944871D01*
X11517843Y-13887729D01*
X11517843Y-13816300D01*
X11532128Y-13759157D01*
X11546414Y-13730586D01*
X11560700Y-13716300D01*
X11589271Y-13702014D01*
X11803557Y-13730586D02*
X11817843Y-13716300D01*
X11846414Y-13702014D01*
X11917843Y-13702014D01*
X11946414Y-13716300D01*
X11960700Y-13730586D01*
X11974986Y-13759157D01*
X11974986Y-13787729D01*
X11960700Y-13830586D01*
X11789271Y-14002014D01*
X11974986Y-14002014D01*
X12232128Y-13802014D02*
X12232128Y-14002014D01*
X12160700Y-13687729D02*
X12089271Y-13902014D01*
X12274986Y-13902014D01*
X12374986Y-13702014D02*
X12374986Y-13759157D01*
X12489271Y-13702014D02*
X12489271Y-13759157D01*
X12932128Y-14116300D02*
X12917843Y-14102014D01*
X12889271Y-14059157D01*
X12874986Y-14030586D01*
X12860700Y-13987729D01*
X12846414Y-13916300D01*
X12846414Y-13859157D01*
X12860700Y-13787729D01*
X12874986Y-13744871D01*
X12889271Y-13716300D01*
X12917843Y-13673443D01*
X12932128Y-13659157D01*
X13103557Y-13702014D02*
X13132128Y-13702014D01*
X13160700Y-13716300D01*
X13174986Y-13730586D01*
X13189271Y-13759157D01*
X13203557Y-13816300D01*
X13203557Y-13887729D01*
X13189271Y-13944871D01*
X13174986Y-13973443D01*
X13160700Y-13987729D01*
X13132128Y-14002014D01*
X13103557Y-14002014D01*
X13074986Y-13987729D01*
X13060700Y-13973443D01*
X13046414Y-13944871D01*
X13032128Y-13887729D01*
X13032128Y-13816300D01*
X13046414Y-13759157D01*
X13060700Y-13730586D01*
X13074986Y-13716300D01*
X13103557Y-13702014D01*
X13560700Y-14002014D02*
X13560700Y-13702014D01*
X13689271Y-14002014D02*
X13689271Y-13844871D01*
X13674986Y-13816300D01*
X13646414Y-13802014D01*
X13603557Y-13802014D01*
X13574986Y-13816300D01*
X13560700Y-13830586D01*
X13874986Y-14002014D02*
X13846414Y-13987729D01*
X13832128Y-13973443D01*
X13817843Y-13944871D01*
X13817843Y-13859157D01*
X13832128Y-13830586D01*
X13846414Y-13816300D01*
X13874986Y-13802014D01*
X13917843Y-13802014D01*
X13946414Y-13816300D01*
X13960700Y-13830586D01*
X13974986Y-13859157D01*
X13974986Y-13944871D01*
X13960700Y-13973443D01*
X13946414Y-13987729D01*
X13917843Y-14002014D01*
X13874986Y-14002014D01*
X14146414Y-14002014D02*
X14117843Y-13987729D01*
X14103557Y-13959157D01*
X14103557Y-13702014D01*
X14374986Y-13987729D02*
X14346414Y-14002014D01*
X14289271Y-14002014D01*
X14260700Y-13987729D01*
X14246414Y-13959157D01*
X14246414Y-13844871D01*
X14260700Y-13816300D01*
X14289271Y-13802014D01*
X14346414Y-13802014D01*
X14374986Y-13816300D01*
X14389271Y-13844871D01*
X14389271Y-13873443D01*
X14246414Y-13902014D01*
X14503557Y-13987729D02*
X14532128Y-14002014D01*
X14589271Y-14002014D01*
X14617843Y-13987729D01*
X14632128Y-13959157D01*
X14632128Y-13944871D01*
X14617843Y-13916300D01*
X14589271Y-13902014D01*
X14546414Y-13902014D01*
X14517843Y-13887729D01*
X14503557Y-13859157D01*
X14503557Y-13844871D01*
X14517843Y-13816300D01*
X14546414Y-13802014D01*
X14589271Y-13802014D01*
X14617843Y-13816300D01*
X14989271Y-13887729D02*
X15217843Y-13887729D01*
X15103557Y-14002014D02*
X15103557Y-13773443D01*
X15574986Y-13730586D02*
X15589271Y-13716300D01*
X15617843Y-13702014D01*
X15689271Y-13702014D01*
X15717843Y-13716300D01*
X15732128Y-13730586D01*
X15746414Y-13759157D01*
X15746414Y-13787729D01*
X15732128Y-13830586D01*
X15560700Y-14002014D01*
X15746414Y-14002014D01*
X16089271Y-13987729D02*
X16117843Y-14002014D01*
X16174986Y-14002014D01*
X16203557Y-13987729D01*
X16217843Y-13959157D01*
X16217843Y-13944871D01*
X16203557Y-13916300D01*
X16174986Y-13902014D01*
X16132128Y-13902014D01*
X16103557Y-13887729D01*
X16089271Y-13859157D01*
X16089271Y-13844871D01*
X16103557Y-13816300D01*
X16132128Y-13802014D01*
X16174986Y-13802014D01*
X16203557Y-13816300D01*
X16389271Y-14002014D02*
X16360700Y-13987729D01*
X16346414Y-13959157D01*
X16346414Y-13702014D01*
X16546414Y-14002014D02*
X16517843Y-13987729D01*
X16503557Y-13973443D01*
X16489271Y-13944871D01*
X16489271Y-13859157D01*
X16503557Y-13830586D01*
X16517843Y-13816300D01*
X16546414Y-13802014D01*
X16589271Y-13802014D01*
X16617843Y-13816300D01*
X16632128Y-13830586D01*
X16646414Y-13859157D01*
X16646414Y-13944871D01*
X16632128Y-13973443D01*
X16617843Y-13987729D01*
X16589271Y-14002014D01*
X16546414Y-14002014D01*
X16732128Y-13802014D02*
X16846414Y-13802014D01*
X16774986Y-13702014D02*
X16774986Y-13959157D01*
X16789271Y-13987729D01*
X16817843Y-14002014D01*
X16846414Y-14002014D01*
X16932128Y-13987729D02*
X16960700Y-14002014D01*
X17017843Y-14002014D01*
X17046414Y-13987729D01*
X17060700Y-13959157D01*
X17060700Y-13944871D01*
X17046414Y-13916300D01*
X17017843Y-13902014D01*
X16974986Y-13902014D01*
X16946414Y-13887729D01*
X16932128Y-13859157D01*
X16932128Y-13844871D01*
X16946414Y-13816300D01*
X16974986Y-13802014D01*
X17017843Y-13802014D01*
X17046414Y-13816300D01*
X17160700Y-14116300D02*
X17174986Y-14102014D01*
X17203557Y-14059157D01*
X17217843Y-14030586D01*
X17232128Y-13987729D01*
X17246414Y-13916300D01*
X17246414Y-13859157D01*
X17232128Y-13787729D01*
X17217843Y-13744871D01*
X17203557Y-13716300D01*
X17174986Y-13673443D01*
X17160700Y-13659157D01*
X8235449Y-14287049D02*
X8235449Y-14237551D01*
X8185951Y-14237551D01*
X8185951Y-14287049D01*
X8235449Y-14287049D01*
X8589271Y-14098014D02*
X8617843Y-14098014D01*
X8646414Y-14112300D01*
X8660700Y-14126586D01*
X8674986Y-14155157D01*
X8689271Y-14212300D01*
X8689271Y-14283729D01*
X8674986Y-14340871D01*
X8660700Y-14369443D01*
X8646414Y-14383729D01*
X8617843Y-14398014D01*
X8589271Y-14398014D01*
X8560700Y-14383729D01*
X8546414Y-14369443D01*
X8532128Y-14340871D01*
X8517843Y-14283729D01*
X8517843Y-14212300D01*
X8532128Y-14155157D01*
X8546414Y-14126586D01*
X8560700Y-14112300D01*
X8589271Y-14098014D01*
X8817843Y-14369443D02*
X8832128Y-14383729D01*
X8817843Y-14398014D01*
X8803557Y-14383729D01*
X8817843Y-14369443D01*
X8817843Y-14398014D01*
X8932128Y-14098014D02*
X9132128Y-14098014D01*
X9003557Y-14398014D01*
X9303557Y-14098014D02*
X9332128Y-14098014D01*
X9360700Y-14112300D01*
X9374986Y-14126586D01*
X9389271Y-14155157D01*
X9403557Y-14212300D01*
X9403557Y-14283729D01*
X9389271Y-14340871D01*
X9374986Y-14369443D01*
X9360700Y-14383729D01*
X9332128Y-14398014D01*
X9303557Y-14398014D01*
X9274986Y-14383729D01*
X9260700Y-14369443D01*
X9246414Y-14340871D01*
X9232128Y-14283729D01*
X9232128Y-14212300D01*
X9246414Y-14155157D01*
X9260700Y-14126586D01*
X9274986Y-14112300D01*
X9303557Y-14098014D01*
X9532128Y-14398014D02*
X9532128Y-14198014D01*
X9532128Y-14226586D02*
X9546414Y-14212300D01*
X9574986Y-14198014D01*
X9617843Y-14198014D01*
X9646414Y-14212300D01*
X9660700Y-14240871D01*
X9660700Y-14398014D01*
X9660700Y-14240871D02*
X9674986Y-14212300D01*
X9703557Y-14198014D01*
X9746414Y-14198014D01*
X9774986Y-14212300D01*
X9789271Y-14240871D01*
X9789271Y-14398014D01*
X9932128Y-14398014D02*
X9932128Y-14198014D01*
X9932128Y-14226586D02*
X9946414Y-14212300D01*
X9974986Y-14198014D01*
X10017843Y-14198014D01*
X10046414Y-14212300D01*
X10060700Y-14240871D01*
X10060700Y-14398014D01*
X10060700Y-14240871D02*
X10074986Y-14212300D01*
X10103557Y-14198014D01*
X10146414Y-14198014D01*
X10174986Y-14212300D01*
X10189271Y-14240871D01*
X10189271Y-14398014D01*
X10774986Y-14083729D02*
X10517843Y-14469443D01*
X11160700Y-14098014D02*
X11189271Y-14098014D01*
X11217843Y-14112300D01*
X11232128Y-14126586D01*
X11246414Y-14155157D01*
X11260700Y-14212300D01*
X11260700Y-14283729D01*
X11246414Y-14340871D01*
X11232128Y-14369443D01*
X11217843Y-14383729D01*
X11189271Y-14398014D01*
X11160700Y-14398014D01*
X11132128Y-14383729D01*
X11117843Y-14369443D01*
X11103557Y-14340871D01*
X11089271Y-14283729D01*
X11089271Y-14212300D01*
X11103557Y-14155157D01*
X11117843Y-14126586D01*
X11132128Y-14112300D01*
X11160700Y-14098014D01*
X11389271Y-14369443D02*
X11403557Y-14383729D01*
X11389271Y-14398014D01*
X11374986Y-14383729D01*
X11389271Y-14369443D01*
X11389271Y-14398014D01*
X11589271Y-14098014D02*
X11617843Y-14098014D01*
X11646414Y-14112300D01*
X11660700Y-14126586D01*
X11674986Y-14155157D01*
X11689271Y-14212300D01*
X11689271Y-14283729D01*
X11674986Y-14340871D01*
X11660700Y-14369443D01*
X11646414Y-14383729D01*
X11617843Y-14398014D01*
X11589271Y-14398014D01*
X11560700Y-14383729D01*
X11546414Y-14369443D01*
X11532128Y-14340871D01*
X11517843Y-14283729D01*
X11517843Y-14212300D01*
X11532128Y-14155157D01*
X11546414Y-14126586D01*
X11560700Y-14112300D01*
X11589271Y-14098014D01*
X11803557Y-14126586D02*
X11817843Y-14112300D01*
X11846414Y-14098014D01*
X11917843Y-14098014D01*
X11946414Y-14112300D01*
X11960700Y-14126586D01*
X11974986Y-14155157D01*
X11974986Y-14183729D01*
X11960700Y-14226586D01*
X11789271Y-14398014D01*
X11974986Y-14398014D01*
X12146414Y-14226586D02*
X12117843Y-14212300D01*
X12103557Y-14198014D01*
X12089271Y-14169443D01*
X12089271Y-14155157D01*
X12103557Y-14126586D01*
X12117843Y-14112300D01*
X12146414Y-14098014D01*
X12203557Y-14098014D01*
X12232128Y-14112300D01*
X12246414Y-14126586D01*
X12260700Y-14155157D01*
X12260700Y-14169443D01*
X12246414Y-14198014D01*
X12232128Y-14212300D01*
X12203557Y-14226586D01*
X12146414Y-14226586D01*
X12117843Y-14240871D01*
X12103557Y-14255157D01*
X12089271Y-14283729D01*
X12089271Y-14340871D01*
X12103557Y-14369443D01*
X12117843Y-14383729D01*
X12146414Y-14398014D01*
X12203557Y-14398014D01*
X12232128Y-14383729D01*
X12246414Y-14369443D01*
X12260700Y-14340871D01*
X12260700Y-14283729D01*
X12246414Y-14255157D01*
X12232128Y-14240871D01*
X12203557Y-14226586D01*
X12374986Y-14098014D02*
X12374986Y-14155157D01*
X12489271Y-14098014D02*
X12489271Y-14155157D01*
X12932128Y-14512300D02*
X12917843Y-14498014D01*
X12889271Y-14455157D01*
X12874986Y-14426586D01*
X12860700Y-14383729D01*
X12846414Y-14312300D01*
X12846414Y-14255157D01*
X12860700Y-14183729D01*
X12874986Y-14140871D01*
X12889271Y-14112300D01*
X12917843Y-14069443D01*
X12932128Y-14055157D01*
X13032128Y-14126586D02*
X13046414Y-14112300D01*
X13074986Y-14098014D01*
X13146414Y-14098014D01*
X13174986Y-14112300D01*
X13189271Y-14126586D01*
X13203557Y-14155157D01*
X13203557Y-14183729D01*
X13189271Y-14226586D01*
X13017843Y-14398014D01*
X13203557Y-14398014D01*
X13560700Y-14398014D02*
X13560700Y-14098014D01*
X13689271Y-14398014D02*
X13689271Y-14240871D01*
X13674986Y-14212300D01*
X13646414Y-14198014D01*
X13603557Y-14198014D01*
X13574986Y-14212300D01*
X13560700Y-14226586D01*
X13874986Y-14398014D02*
X13846414Y-14383729D01*
X13832128Y-14369443D01*
X13817843Y-14340871D01*
X13817843Y-14255157D01*
X13832128Y-14226586D01*
X13846414Y-14212300D01*
X13874986Y-14198014D01*
X13917843Y-14198014D01*
X13946414Y-14212300D01*
X13960700Y-14226586D01*
X13974986Y-14255157D01*
X13974986Y-14340871D01*
X13960700Y-14369443D01*
X13946414Y-14383729D01*
X13917843Y-14398014D01*
X13874986Y-14398014D01*
X14146414Y-14398014D02*
X14117843Y-14383729D01*
X14103557Y-14355157D01*
X14103557Y-14098014D01*
X14374986Y-14383729D02*
X14346414Y-14398014D01*
X14289271Y-14398014D01*
X14260700Y-14383729D01*
X14246414Y-14355157D01*
X14246414Y-14240871D01*
X14260700Y-14212300D01*
X14289271Y-14198014D01*
X14346414Y-14198014D01*
X14374986Y-14212300D01*
X14389271Y-14240871D01*
X14389271Y-14269443D01*
X14246414Y-14298014D01*
X14503557Y-14383729D02*
X14532128Y-14398014D01*
X14589271Y-14398014D01*
X14617843Y-14383729D01*
X14632128Y-14355157D01*
X14632128Y-14340871D01*
X14617843Y-14312300D01*
X14589271Y-14298014D01*
X14546414Y-14298014D01*
X14517843Y-14283729D01*
X14503557Y-14255157D01*
X14503557Y-14240871D01*
X14517843Y-14212300D01*
X14546414Y-14198014D01*
X14589271Y-14198014D01*
X14617843Y-14212300D01*
X14732128Y-14512300D02*
X14746414Y-14498014D01*
X14774986Y-14455157D01*
X14789271Y-14426586D01*
X14803557Y-14383729D01*
X14817843Y-14312300D01*
X14817843Y-14255157D01*
X14803557Y-14183729D01*
X14789271Y-14140871D01*
X14774986Y-14112300D01*
X14746414Y-14069443D01*
X14732128Y-14055157D01*
X8203200Y-14700800D02*
X8245700Y-14658300D01*
X8203200Y-14615800D01*
X8160700Y-14658300D01*
X8203200Y-14700800D01*
X8589271Y-14494014D02*
X8617843Y-14494014D01*
X8646414Y-14508300D01*
X8660700Y-14522586D01*
X8674986Y-14551157D01*
X8689271Y-14608300D01*
X8689271Y-14679729D01*
X8674986Y-14736871D01*
X8660700Y-14765443D01*
X8646414Y-14779729D01*
X8617843Y-14794014D01*
X8589271Y-14794014D01*
X8560700Y-14779729D01*
X8546414Y-14765443D01*
X8532128Y-14736871D01*
X8517843Y-14679729D01*
X8517843Y-14608300D01*
X8532128Y-14551157D01*
X8546414Y-14522586D01*
X8560700Y-14508300D01*
X8589271Y-14494014D01*
X8817843Y-14765443D02*
X8832128Y-14779729D01*
X8817843Y-14794014D01*
X8803557Y-14779729D01*
X8817843Y-14765443D01*
X8817843Y-14794014D01*
X9003557Y-14622586D02*
X8974986Y-14608300D01*
X8960700Y-14594014D01*
X8946414Y-14565443D01*
X8946414Y-14551157D01*
X8960700Y-14522586D01*
X8974986Y-14508300D01*
X9003557Y-14494014D01*
X9060700Y-14494014D01*
X9089271Y-14508300D01*
X9103557Y-14522586D01*
X9117843Y-14551157D01*
X9117843Y-14565443D01*
X9103557Y-14594014D01*
X9089271Y-14608300D01*
X9060700Y-14622586D01*
X9003557Y-14622586D01*
X8974986Y-14636871D01*
X8960700Y-14651157D01*
X8946414Y-14679729D01*
X8946414Y-14736871D01*
X8960700Y-14765443D01*
X8974986Y-14779729D01*
X9003557Y-14794014D01*
X9060700Y-14794014D01*
X9089271Y-14779729D01*
X9103557Y-14765443D01*
X9117843Y-14736871D01*
X9117843Y-14679729D01*
X9103557Y-14651157D01*
X9089271Y-14636871D01*
X9060700Y-14622586D01*
X9389271Y-14494014D02*
X9246414Y-14494014D01*
X9232128Y-14636871D01*
X9246414Y-14622586D01*
X9274986Y-14608300D01*
X9346414Y-14608300D01*
X9374986Y-14622586D01*
X9389271Y-14636871D01*
X9403557Y-14665443D01*
X9403557Y-14736871D01*
X9389271Y-14765443D01*
X9374986Y-14779729D01*
X9346414Y-14794014D01*
X9274986Y-14794014D01*
X9246414Y-14779729D01*
X9232128Y-14765443D01*
X9532128Y-14794014D02*
X9532128Y-14594014D01*
X9532128Y-14622586D02*
X9546414Y-14608300D01*
X9574986Y-14594014D01*
X9617843Y-14594014D01*
X9646414Y-14608300D01*
X9660700Y-14636871D01*
X9660700Y-14794014D01*
X9660700Y-14636871D02*
X9674986Y-14608300D01*
X9703557Y-14594014D01*
X9746414Y-14594014D01*
X9774986Y-14608300D01*
X9789271Y-14636871D01*
X9789271Y-14794014D01*
X9932128Y-14794014D02*
X9932128Y-14594014D01*
X9932128Y-14622586D02*
X9946414Y-14608300D01*
X9974986Y-14594014D01*
X10017843Y-14594014D01*
X10046414Y-14608300D01*
X10060700Y-14636871D01*
X10060700Y-14794014D01*
X10060700Y-14636871D02*
X10074986Y-14608300D01*
X10103557Y-14594014D01*
X10146414Y-14594014D01*
X10174986Y-14608300D01*
X10189271Y-14636871D01*
X10189271Y-14794014D01*
X10774986Y-14479729D02*
X10517843Y-14865443D01*
X11160700Y-14494014D02*
X11189271Y-14494014D01*
X11217843Y-14508300D01*
X11232128Y-14522586D01*
X11246414Y-14551157D01*
X11260700Y-14608300D01*
X11260700Y-14679729D01*
X11246414Y-14736871D01*
X11232128Y-14765443D01*
X11217843Y-14779729D01*
X11189271Y-14794014D01*
X11160700Y-14794014D01*
X11132128Y-14779729D01*
X11117843Y-14765443D01*
X11103557Y-14736871D01*
X11089271Y-14679729D01*
X11089271Y-14608300D01*
X11103557Y-14551157D01*
X11117843Y-14522586D01*
X11132128Y-14508300D01*
X11160700Y-14494014D01*
X11389271Y-14765443D02*
X11403557Y-14779729D01*
X11389271Y-14794014D01*
X11374986Y-14779729D01*
X11389271Y-14765443D01*
X11389271Y-14794014D01*
X11589271Y-14494014D02*
X11617843Y-14494014D01*
X11646414Y-14508300D01*
X11660700Y-14522586D01*
X11674986Y-14551157D01*
X11689271Y-14608300D01*
X11689271Y-14679729D01*
X11674986Y-14736871D01*
X11660700Y-14765443D01*
X11646414Y-14779729D01*
X11617843Y-14794014D01*
X11589271Y-14794014D01*
X11560700Y-14779729D01*
X11546414Y-14765443D01*
X11532128Y-14736871D01*
X11517843Y-14679729D01*
X11517843Y-14608300D01*
X11532128Y-14551157D01*
X11546414Y-14522586D01*
X11560700Y-14508300D01*
X11589271Y-14494014D01*
X11789271Y-14494014D02*
X11974986Y-14494014D01*
X11874986Y-14608300D01*
X11917843Y-14608300D01*
X11946414Y-14622586D01*
X11960700Y-14636871D01*
X11974986Y-14665443D01*
X11974986Y-14736871D01*
X11960700Y-14765443D01*
X11946414Y-14779729D01*
X11917843Y-14794014D01*
X11832128Y-14794014D01*
X11803557Y-14779729D01*
X11789271Y-14765443D01*
X12074986Y-14494014D02*
X12260700Y-14494014D01*
X12160700Y-14608300D01*
X12203557Y-14608300D01*
X12232128Y-14622586D01*
X12246414Y-14636871D01*
X12260700Y-14665443D01*
X12260700Y-14736871D01*
X12246414Y-14765443D01*
X12232128Y-14779729D01*
X12203557Y-14794014D01*
X12117843Y-14794014D01*
X12089271Y-14779729D01*
X12074986Y-14765443D01*
X12374986Y-14494014D02*
X12374986Y-14551157D01*
X12489271Y-14494014D02*
X12489271Y-14551157D01*
X12932128Y-14908300D02*
X12917843Y-14894014D01*
X12889271Y-14851157D01*
X12874986Y-14822586D01*
X12860700Y-14779729D01*
X12846414Y-14708300D01*
X12846414Y-14651157D01*
X12860700Y-14579729D01*
X12874986Y-14536871D01*
X12889271Y-14508300D01*
X12917843Y-14465443D01*
X12932128Y-14451157D01*
X13032128Y-14522586D02*
X13046414Y-14508300D01*
X13074986Y-14494014D01*
X13146414Y-14494014D01*
X13174986Y-14508300D01*
X13189271Y-14522586D01*
X13203557Y-14551157D01*
X13203557Y-14579729D01*
X13189271Y-14622586D01*
X13017843Y-14794014D01*
X13203557Y-14794014D01*
X13560700Y-14794014D02*
X13560700Y-14494014D01*
X13689271Y-14794014D02*
X13689271Y-14636871D01*
X13674986Y-14608300D01*
X13646414Y-14594014D01*
X13603557Y-14594014D01*
X13574986Y-14608300D01*
X13560700Y-14622586D01*
X13874986Y-14794014D02*
X13846414Y-14779729D01*
X13832128Y-14765443D01*
X13817843Y-14736871D01*
X13817843Y-14651157D01*
X13832128Y-14622586D01*
X13846414Y-14608300D01*
X13874986Y-14594014D01*
X13917843Y-14594014D01*
X13946414Y-14608300D01*
X13960700Y-14622586D01*
X13974986Y-14651157D01*
X13974986Y-14736871D01*
X13960700Y-14765443D01*
X13946414Y-14779729D01*
X13917843Y-14794014D01*
X13874986Y-14794014D01*
X14146414Y-14794014D02*
X14117843Y-14779729D01*
X14103557Y-14751157D01*
X14103557Y-14494014D01*
X14374986Y-14779729D02*
X14346414Y-14794014D01*
X14289271Y-14794014D01*
X14260700Y-14779729D01*
X14246414Y-14751157D01*
X14246414Y-14636871D01*
X14260700Y-14608300D01*
X14289271Y-14594014D01*
X14346414Y-14594014D01*
X14374986Y-14608300D01*
X14389271Y-14636871D01*
X14389271Y-14665443D01*
X14246414Y-14694014D01*
X14503557Y-14779729D02*
X14532128Y-14794014D01*
X14589271Y-14794014D01*
X14617843Y-14779729D01*
X14632128Y-14751157D01*
X14632128Y-14736871D01*
X14617843Y-14708300D01*
X14589271Y-14694014D01*
X14546414Y-14694014D01*
X14517843Y-14679729D01*
X14503557Y-14651157D01*
X14503557Y-14636871D01*
X14517843Y-14608300D01*
X14546414Y-14594014D01*
X14589271Y-14594014D01*
X14617843Y-14608300D01*
X14732128Y-14908300D02*
X14746414Y-14894014D01*
X14774986Y-14851157D01*
X14789271Y-14822586D01*
X14803557Y-14779729D01*
X14817843Y-14708300D01*
X14817843Y-14651157D01*
X14803557Y-14579729D01*
X14789271Y-14536871D01*
X14774986Y-14508300D01*
X14746414Y-14465443D01*
X14732128Y-14451157D01*
X8156700Y-15009800D02*
X8245700Y-15098800D01*
X8245700Y-15009800D02*
X8156700Y-15098800D01*
X8245700Y-15054300D02*
G75*
G03*
X8245700Y-15054300I-44500J0D01*
G01*
X8589271Y-14890014D02*
X8617843Y-14890014D01*
X8646414Y-14904300D01*
X8660700Y-14918586D01*
X8674986Y-14947157D01*
X8689271Y-15004300D01*
X8689271Y-15075729D01*
X8674986Y-15132871D01*
X8660700Y-15161443D01*
X8646414Y-15175729D01*
X8617843Y-15190014D01*
X8589271Y-15190014D01*
X8560700Y-15175729D01*
X8546414Y-15161443D01*
X8532128Y-15132871D01*
X8517843Y-15075729D01*
X8517843Y-15004300D01*
X8532128Y-14947157D01*
X8546414Y-14918586D01*
X8560700Y-14904300D01*
X8589271Y-14890014D01*
X8817843Y-15161443D02*
X8832128Y-15175729D01*
X8817843Y-15190014D01*
X8803557Y-15175729D01*
X8817843Y-15161443D01*
X8817843Y-15190014D01*
X9003557Y-15018586D02*
X8974986Y-15004300D01*
X8960700Y-14990014D01*
X8946414Y-14961443D01*
X8946414Y-14947157D01*
X8960700Y-14918586D01*
X8974986Y-14904300D01*
X9003557Y-14890014D01*
X9060700Y-14890014D01*
X9089271Y-14904300D01*
X9103557Y-14918586D01*
X9117843Y-14947157D01*
X9117843Y-14961443D01*
X9103557Y-14990014D01*
X9089271Y-15004300D01*
X9060700Y-15018586D01*
X9003557Y-15018586D01*
X8974986Y-15032871D01*
X8960700Y-15047157D01*
X8946414Y-15075729D01*
X8946414Y-15132871D01*
X8960700Y-15161443D01*
X8974986Y-15175729D01*
X9003557Y-15190014D01*
X9060700Y-15190014D01*
X9089271Y-15175729D01*
X9103557Y-15161443D01*
X9117843Y-15132871D01*
X9117843Y-15075729D01*
X9103557Y-15047157D01*
X9089271Y-15032871D01*
X9060700Y-15018586D01*
X9260700Y-15190014D02*
X9317843Y-15190014D01*
X9346414Y-15175729D01*
X9360700Y-15161443D01*
X9389271Y-15118586D01*
X9403557Y-15061443D01*
X9403557Y-14947157D01*
X9389271Y-14918586D01*
X9374986Y-14904300D01*
X9346414Y-14890014D01*
X9289271Y-14890014D01*
X9260700Y-14904300D01*
X9246414Y-14918586D01*
X9232128Y-14947157D01*
X9232128Y-15018586D01*
X9246414Y-15047157D01*
X9260700Y-15061443D01*
X9289271Y-15075729D01*
X9346414Y-15075729D01*
X9374986Y-15061443D01*
X9389271Y-15047157D01*
X9403557Y-15018586D01*
X9532128Y-15190014D02*
X9532128Y-14990014D01*
X9532128Y-15018586D02*
X9546414Y-15004300D01*
X9574986Y-14990014D01*
X9617843Y-14990014D01*
X9646414Y-15004300D01*
X9660700Y-15032871D01*
X9660700Y-15190014D01*
X9660700Y-15032871D02*
X9674986Y-15004300D01*
X9703557Y-14990014D01*
X9746414Y-14990014D01*
X9774986Y-15004300D01*
X9789271Y-15032871D01*
X9789271Y-15190014D01*
X9932128Y-15190014D02*
X9932128Y-14990014D01*
X9932128Y-15018586D02*
X9946414Y-15004300D01*
X9974986Y-14990014D01*
X10017843Y-14990014D01*
X10046414Y-15004300D01*
X10060700Y-15032871D01*
X10060700Y-15190014D01*
X10060700Y-15032871D02*
X10074986Y-15004300D01*
X10103557Y-14990014D01*
X10146414Y-14990014D01*
X10174986Y-15004300D01*
X10189271Y-15032871D01*
X10189271Y-15190014D01*
X10774986Y-14875729D02*
X10517843Y-15261443D01*
X11160700Y-14890014D02*
X11189271Y-14890014D01*
X11217843Y-14904300D01*
X11232128Y-14918586D01*
X11246414Y-14947157D01*
X11260700Y-15004300D01*
X11260700Y-15075729D01*
X11246414Y-15132871D01*
X11232128Y-15161443D01*
X11217843Y-15175729D01*
X11189271Y-15190014D01*
X11160700Y-15190014D01*
X11132128Y-15175729D01*
X11117843Y-15161443D01*
X11103557Y-15132871D01*
X11089271Y-15075729D01*
X11089271Y-15004300D01*
X11103557Y-14947157D01*
X11117843Y-14918586D01*
X11132128Y-14904300D01*
X11160700Y-14890014D01*
X11389271Y-15161443D02*
X11403557Y-15175729D01*
X11389271Y-15190014D01*
X11374986Y-15175729D01*
X11389271Y-15161443D01*
X11389271Y-15190014D01*
X11589271Y-14890014D02*
X11617843Y-14890014D01*
X11646414Y-14904300D01*
X11660700Y-14918586D01*
X11674986Y-14947157D01*
X11689271Y-15004300D01*
X11689271Y-15075729D01*
X11674986Y-15132871D01*
X11660700Y-15161443D01*
X11646414Y-15175729D01*
X11617843Y-15190014D01*
X11589271Y-15190014D01*
X11560700Y-15175729D01*
X11546414Y-15161443D01*
X11532128Y-15132871D01*
X11517843Y-15075729D01*
X11517843Y-15004300D01*
X11532128Y-14947157D01*
X11546414Y-14918586D01*
X11560700Y-14904300D01*
X11589271Y-14890014D01*
X11789271Y-14890014D02*
X11974986Y-14890014D01*
X11874986Y-15004300D01*
X11917843Y-15004300D01*
X11946414Y-15018586D01*
X11960700Y-15032871D01*
X11974986Y-15061443D01*
X11974986Y-15132871D01*
X11960700Y-15161443D01*
X11946414Y-15175729D01*
X11917843Y-15190014D01*
X11832128Y-15190014D01*
X11803557Y-15175729D01*
X11789271Y-15161443D01*
X12246414Y-14890014D02*
X12103557Y-14890014D01*
X12089271Y-15032871D01*
X12103557Y-15018586D01*
X12132128Y-15004300D01*
X12203557Y-15004300D01*
X12232128Y-15018586D01*
X12246414Y-15032871D01*
X12260700Y-15061443D01*
X12260700Y-15132871D01*
X12246414Y-15161443D01*
X12232128Y-15175729D01*
X12203557Y-15190014D01*
X12132128Y-15190014D01*
X12103557Y-15175729D01*
X12089271Y-15161443D01*
X12374986Y-14890014D02*
X12374986Y-14947157D01*
X12489271Y-14890014D02*
X12489271Y-14947157D01*
X12932128Y-15304300D02*
X12917843Y-15290014D01*
X12889271Y-15247157D01*
X12874986Y-15218586D01*
X12860700Y-15175729D01*
X12846414Y-15104300D01*
X12846414Y-15047157D01*
X12860700Y-14975729D01*
X12874986Y-14932871D01*
X12889271Y-14904300D01*
X12917843Y-14861443D01*
X12932128Y-14847157D01*
X13203557Y-15190014D02*
X13032128Y-15190014D01*
X13117843Y-15190014D02*
X13117843Y-14890014D01*
X13089271Y-14932871D01*
X13060700Y-14961443D01*
X13032128Y-14975729D01*
X13317843Y-14918586D02*
X13332128Y-14904300D01*
X13360700Y-14890014D01*
X13432128Y-14890014D01*
X13460700Y-14904300D01*
X13474986Y-14918586D01*
X13489271Y-14947157D01*
X13489271Y-14975729D01*
X13474986Y-15018586D01*
X13303557Y-15190014D01*
X13489271Y-15190014D01*
X13846414Y-15190014D02*
X13846414Y-14890014D01*
X13974986Y-15190014D02*
X13974986Y-15032871D01*
X13960700Y-15004300D01*
X13932128Y-14990014D01*
X13889271Y-14990014D01*
X13860700Y-15004300D01*
X13846414Y-15018586D01*
X14160700Y-15190014D02*
X14132128Y-15175729D01*
X14117843Y-15161443D01*
X14103557Y-15132871D01*
X14103557Y-15047157D01*
X14117843Y-15018586D01*
X14132128Y-15004300D01*
X14160700Y-14990014D01*
X14203557Y-14990014D01*
X14232128Y-15004300D01*
X14246414Y-15018586D01*
X14260700Y-15047157D01*
X14260700Y-15132871D01*
X14246414Y-15161443D01*
X14232128Y-15175729D01*
X14203557Y-15190014D01*
X14160700Y-15190014D01*
X14432128Y-15190014D02*
X14403557Y-15175729D01*
X14389271Y-15147157D01*
X14389271Y-14890014D01*
X14660700Y-15175729D02*
X14632128Y-15190014D01*
X14574986Y-15190014D01*
X14546414Y-15175729D01*
X14532128Y-15147157D01*
X14532128Y-15032871D01*
X14546414Y-15004300D01*
X14574986Y-14990014D01*
X14632128Y-14990014D01*
X14660700Y-15004300D01*
X14674986Y-15032871D01*
X14674986Y-15061443D01*
X14532128Y-15090014D01*
X14789271Y-15175729D02*
X14817843Y-15190014D01*
X14874986Y-15190014D01*
X14903557Y-15175729D01*
X14917843Y-15147157D01*
X14917843Y-15132871D01*
X14903557Y-15104300D01*
X14874986Y-15090014D01*
X14832128Y-15090014D01*
X14803557Y-15075729D01*
X14789271Y-15047157D01*
X14789271Y-15032871D01*
X14803557Y-15004300D01*
X14832128Y-14990014D01*
X14874986Y-14990014D01*
X14903557Y-15004300D01*
X15017843Y-15304300D02*
X15032128Y-15290014D01*
X15060700Y-15247157D01*
X15074986Y-15218586D01*
X15089271Y-15175729D01*
X15103557Y-15104300D01*
X15103557Y-15047157D01*
X15089271Y-14975729D01*
X15074986Y-14932871D01*
X15060700Y-14904300D01*
X15032128Y-14861443D01*
X15017843Y-14847157D01*
X8150700Y-15402800D02*
X8245700Y-15497800D01*
X8245700Y-15402800D02*
X8150700Y-15497800D01*
X8198200Y-15402800D02*
X8198200Y-15497800D01*
X8150700Y-15450300D02*
X8245700Y-15450300D01*
X8589271Y-15286014D02*
X8617843Y-15286014D01*
X8646414Y-15300300D01*
X8660700Y-15314586D01*
X8674986Y-15343157D01*
X8689271Y-15400300D01*
X8689271Y-15471729D01*
X8674986Y-15528871D01*
X8660700Y-15557443D01*
X8646414Y-15571729D01*
X8617843Y-15586014D01*
X8589271Y-15586014D01*
X8560700Y-15571729D01*
X8546414Y-15557443D01*
X8532128Y-15528871D01*
X8517843Y-15471729D01*
X8517843Y-15400300D01*
X8532128Y-15343157D01*
X8546414Y-15314586D01*
X8560700Y-15300300D01*
X8589271Y-15286014D01*
X8817843Y-15557443D02*
X8832128Y-15571729D01*
X8817843Y-15586014D01*
X8803557Y-15571729D01*
X8817843Y-15557443D01*
X8817843Y-15586014D01*
X8974986Y-15586014D02*
X9032128Y-15586014D01*
X9060700Y-15571729D01*
X9074986Y-15557443D01*
X9103557Y-15514586D01*
X9117843Y-15457443D01*
X9117843Y-15343157D01*
X9103557Y-15314586D01*
X9089271Y-15300300D01*
X9060700Y-15286014D01*
X9003557Y-15286014D01*
X8974986Y-15300300D01*
X8960700Y-15314586D01*
X8946414Y-15343157D01*
X8946414Y-15414586D01*
X8960700Y-15443157D01*
X8974986Y-15457443D01*
X9003557Y-15471729D01*
X9060700Y-15471729D01*
X9089271Y-15457443D01*
X9103557Y-15443157D01*
X9117843Y-15414586D01*
X9389271Y-15286014D02*
X9246414Y-15286014D01*
X9232128Y-15428871D01*
X9246414Y-15414586D01*
X9274986Y-15400300D01*
X9346414Y-15400300D01*
X9374986Y-15414586D01*
X9389271Y-15428871D01*
X9403557Y-15457443D01*
X9403557Y-15528871D01*
X9389271Y-15557443D01*
X9374986Y-15571729D01*
X9346414Y-15586014D01*
X9274986Y-15586014D01*
X9246414Y-15571729D01*
X9232128Y-15557443D01*
X9532128Y-15586014D02*
X9532128Y-15386014D01*
X9532128Y-15414586D02*
X9546414Y-15400300D01*
X9574986Y-15386014D01*
X9617843Y-15386014D01*
X9646414Y-15400300D01*
X9660700Y-15428871D01*
X9660700Y-15586014D01*
X9660700Y-15428871D02*
X9674986Y-15400300D01*
X9703557Y-15386014D01*
X9746414Y-15386014D01*
X9774986Y-15400300D01*
X9789271Y-15428871D01*
X9789271Y-15586014D01*
X9932128Y-15586014D02*
X9932128Y-15386014D01*
X9932128Y-15414586D02*
X9946414Y-15400300D01*
X9974986Y-15386014D01*
X10017843Y-15386014D01*
X10046414Y-15400300D01*
X10060700Y-15428871D01*
X10060700Y-15586014D01*
X10060700Y-15428871D02*
X10074986Y-15400300D01*
X10103557Y-15386014D01*
X10146414Y-15386014D01*
X10174986Y-15400300D01*
X10189271Y-15428871D01*
X10189271Y-15586014D01*
X10774986Y-15271729D02*
X10517843Y-15657443D01*
X11160700Y-15286014D02*
X11189271Y-15286014D01*
X11217843Y-15300300D01*
X11232128Y-15314586D01*
X11246414Y-15343157D01*
X11260700Y-15400300D01*
X11260700Y-15471729D01*
X11246414Y-15528871D01*
X11232128Y-15557443D01*
X11217843Y-15571729D01*
X11189271Y-15586014D01*
X11160700Y-15586014D01*
X11132128Y-15571729D01*
X11117843Y-15557443D01*
X11103557Y-15528871D01*
X11089271Y-15471729D01*
X11089271Y-15400300D01*
X11103557Y-15343157D01*
X11117843Y-15314586D01*
X11132128Y-15300300D01*
X11160700Y-15286014D01*
X11389271Y-15557443D02*
X11403557Y-15571729D01*
X11389271Y-15586014D01*
X11374986Y-15571729D01*
X11389271Y-15557443D01*
X11389271Y-15586014D01*
X11589271Y-15286014D02*
X11617843Y-15286014D01*
X11646414Y-15300300D01*
X11660700Y-15314586D01*
X11674986Y-15343157D01*
X11689271Y-15400300D01*
X11689271Y-15471729D01*
X11674986Y-15528871D01*
X11660700Y-15557443D01*
X11646414Y-15571729D01*
X11617843Y-15586014D01*
X11589271Y-15586014D01*
X11560700Y-15571729D01*
X11546414Y-15557443D01*
X11532128Y-15528871D01*
X11517843Y-15471729D01*
X11517843Y-15400300D01*
X11532128Y-15343157D01*
X11546414Y-15314586D01*
X11560700Y-15300300D01*
X11589271Y-15286014D01*
X11789271Y-15286014D02*
X11974986Y-15286014D01*
X11874986Y-15400300D01*
X11917843Y-15400300D01*
X11946414Y-15414586D01*
X11960700Y-15428871D01*
X11974986Y-15457443D01*
X11974986Y-15528871D01*
X11960700Y-15557443D01*
X11946414Y-15571729D01*
X11917843Y-15586014D01*
X11832128Y-15586014D01*
X11803557Y-15571729D01*
X11789271Y-15557443D01*
X12074986Y-15286014D02*
X12274986Y-15286014D01*
X12146414Y-15586014D01*
X12374986Y-15286014D02*
X12374986Y-15343157D01*
X12489271Y-15286014D02*
X12489271Y-15343157D01*
X12932128Y-15700300D02*
X12917843Y-15686014D01*
X12889271Y-15643157D01*
X12874986Y-15614586D01*
X12860700Y-15571729D01*
X12846414Y-15500300D01*
X12846414Y-15443157D01*
X12860700Y-15371729D01*
X12874986Y-15328871D01*
X12889271Y-15300300D01*
X12917843Y-15257443D01*
X12932128Y-15243157D01*
X13174986Y-15386014D02*
X13174986Y-15586014D01*
X13103557Y-15271729D02*
X13032128Y-15486014D01*
X13217843Y-15486014D01*
X13560700Y-15586014D02*
X13560700Y-15286014D01*
X13689271Y-15586014D02*
X13689271Y-15428871D01*
X13674986Y-15400300D01*
X13646414Y-15386014D01*
X13603557Y-15386014D01*
X13574986Y-15400300D01*
X13560700Y-15414586D01*
X13874986Y-15586014D02*
X13846414Y-15571729D01*
X13832128Y-15557443D01*
X13817843Y-15528871D01*
X13817843Y-15443157D01*
X13832128Y-15414586D01*
X13846414Y-15400300D01*
X13874986Y-15386014D01*
X13917843Y-15386014D01*
X13946414Y-15400300D01*
X13960700Y-15414586D01*
X13974986Y-15443157D01*
X13974986Y-15528871D01*
X13960700Y-15557443D01*
X13946414Y-15571729D01*
X13917843Y-15586014D01*
X13874986Y-15586014D01*
X14146414Y-15586014D02*
X14117843Y-15571729D01*
X14103557Y-15543157D01*
X14103557Y-15286014D01*
X14374986Y-15571729D02*
X14346414Y-15586014D01*
X14289271Y-15586014D01*
X14260700Y-15571729D01*
X14246414Y-15543157D01*
X14246414Y-15428871D01*
X14260700Y-15400300D01*
X14289271Y-15386014D01*
X14346414Y-15386014D01*
X14374986Y-15400300D01*
X14389271Y-15428871D01*
X14389271Y-15457443D01*
X14246414Y-15486014D01*
X14503557Y-15571729D02*
X14532128Y-15586014D01*
X14589271Y-15586014D01*
X14617843Y-15571729D01*
X14632128Y-15543157D01*
X14632128Y-15528871D01*
X14617843Y-15500300D01*
X14589271Y-15486014D01*
X14546414Y-15486014D01*
X14517843Y-15471729D01*
X14503557Y-15443157D01*
X14503557Y-15428871D01*
X14517843Y-15400300D01*
X14546414Y-15386014D01*
X14589271Y-15386014D01*
X14617843Y-15400300D01*
X14732128Y-15700300D02*
X14746414Y-15686014D01*
X14774986Y-15643157D01*
X14789271Y-15614586D01*
X14803557Y-15571729D01*
X14817843Y-15500300D01*
X14817843Y-15443157D01*
X14803557Y-15371729D01*
X14789271Y-15328871D01*
X14774986Y-15300300D01*
X14746414Y-15257443D01*
X14732128Y-15243157D01*
X8145700Y-15796300D02*
X8245700Y-15896300D01*
X8245700Y-15796300D02*
X8145700Y-15896300D01*
X8231056Y-15881656D02*
X8231056Y-15810944D01*
X8160344Y-15810944D01*
X8160344Y-15881656D01*
X8231056Y-15881656D01*
X8689271Y-15982014D02*
X8517843Y-15982014D01*
X8603557Y-15982014D02*
X8603557Y-15682014D01*
X8574986Y-15724871D01*
X8546414Y-15753443D01*
X8517843Y-15767729D01*
X8817843Y-15953443D02*
X8832128Y-15967729D01*
X8817843Y-15982014D01*
X8803557Y-15967729D01*
X8817843Y-15953443D01*
X8817843Y-15982014D01*
X9017843Y-15682014D02*
X9046414Y-15682014D01*
X9074986Y-15696300D01*
X9089271Y-15710586D01*
X9103557Y-15739157D01*
X9117843Y-15796300D01*
X9117843Y-15867729D01*
X9103557Y-15924871D01*
X9089271Y-15953443D01*
X9074986Y-15967729D01*
X9046414Y-15982014D01*
X9017843Y-15982014D01*
X8989271Y-15967729D01*
X8974986Y-15953443D01*
X8960700Y-15924871D01*
X8946414Y-15867729D01*
X8946414Y-15796300D01*
X8960700Y-15739157D01*
X8974986Y-15710586D01*
X8989271Y-15696300D01*
X9017843Y-15682014D01*
X9303557Y-15682014D02*
X9332128Y-15682014D01*
X9360700Y-15696300D01*
X9374986Y-15710586D01*
X9389271Y-15739157D01*
X9403557Y-15796300D01*
X9403557Y-15867729D01*
X9389271Y-15924871D01*
X9374986Y-15953443D01*
X9360700Y-15967729D01*
X9332128Y-15982014D01*
X9303557Y-15982014D01*
X9274986Y-15967729D01*
X9260700Y-15953443D01*
X9246414Y-15924871D01*
X9232128Y-15867729D01*
X9232128Y-15796300D01*
X9246414Y-15739157D01*
X9260700Y-15710586D01*
X9274986Y-15696300D01*
X9303557Y-15682014D01*
X9532128Y-15982014D02*
X9532128Y-15782014D01*
X9532128Y-15810586D02*
X9546414Y-15796300D01*
X9574986Y-15782014D01*
X9617843Y-15782014D01*
X9646414Y-15796300D01*
X9660700Y-15824871D01*
X9660700Y-15982014D01*
X9660700Y-15824871D02*
X9674986Y-15796300D01*
X9703557Y-15782014D01*
X9746414Y-15782014D01*
X9774986Y-15796300D01*
X9789271Y-15824871D01*
X9789271Y-15982014D01*
X9932128Y-15982014D02*
X9932128Y-15782014D01*
X9932128Y-15810586D02*
X9946414Y-15796300D01*
X9974986Y-15782014D01*
X10017843Y-15782014D01*
X10046414Y-15796300D01*
X10060700Y-15824871D01*
X10060700Y-15982014D01*
X10060700Y-15824871D02*
X10074986Y-15796300D01*
X10103557Y-15782014D01*
X10146414Y-15782014D01*
X10174986Y-15796300D01*
X10189271Y-15824871D01*
X10189271Y-15982014D01*
X10774986Y-15667729D02*
X10517843Y-16053443D01*
X11160700Y-15682014D02*
X11189271Y-15682014D01*
X11217843Y-15696300D01*
X11232128Y-15710586D01*
X11246414Y-15739157D01*
X11260700Y-15796300D01*
X11260700Y-15867729D01*
X11246414Y-15924871D01*
X11232128Y-15953443D01*
X11217843Y-15967729D01*
X11189271Y-15982014D01*
X11160700Y-15982014D01*
X11132128Y-15967729D01*
X11117843Y-15953443D01*
X11103557Y-15924871D01*
X11089271Y-15867729D01*
X11089271Y-15796300D01*
X11103557Y-15739157D01*
X11117843Y-15710586D01*
X11132128Y-15696300D01*
X11160700Y-15682014D01*
X11389271Y-15953443D02*
X11403557Y-15967729D01*
X11389271Y-15982014D01*
X11374986Y-15967729D01*
X11389271Y-15953443D01*
X11389271Y-15982014D01*
X11589271Y-15682014D02*
X11617843Y-15682014D01*
X11646414Y-15696300D01*
X11660700Y-15710586D01*
X11674986Y-15739157D01*
X11689271Y-15796300D01*
X11689271Y-15867729D01*
X11674986Y-15924871D01*
X11660700Y-15953443D01*
X11646414Y-15967729D01*
X11617843Y-15982014D01*
X11589271Y-15982014D01*
X11560700Y-15967729D01*
X11546414Y-15953443D01*
X11532128Y-15924871D01*
X11517843Y-15867729D01*
X11517843Y-15796300D01*
X11532128Y-15739157D01*
X11546414Y-15710586D01*
X11560700Y-15696300D01*
X11589271Y-15682014D01*
X11789271Y-15682014D02*
X11974986Y-15682014D01*
X11874986Y-15796300D01*
X11917843Y-15796300D01*
X11946414Y-15810586D01*
X11960700Y-15824871D01*
X11974986Y-15853443D01*
X11974986Y-15924871D01*
X11960700Y-15953443D01*
X11946414Y-15967729D01*
X11917843Y-15982014D01*
X11832128Y-15982014D01*
X11803557Y-15967729D01*
X11789271Y-15953443D01*
X12117843Y-15982014D02*
X12174986Y-15982014D01*
X12203557Y-15967729D01*
X12217843Y-15953443D01*
X12246414Y-15910586D01*
X12260700Y-15853443D01*
X12260700Y-15739157D01*
X12246414Y-15710586D01*
X12232128Y-15696300D01*
X12203557Y-15682014D01*
X12146414Y-15682014D01*
X12117843Y-15696300D01*
X12103557Y-15710586D01*
X12089271Y-15739157D01*
X12089271Y-15810586D01*
X12103557Y-15839157D01*
X12117843Y-15853443D01*
X12146414Y-15867729D01*
X12203557Y-15867729D01*
X12232128Y-15853443D01*
X12246414Y-15839157D01*
X12260700Y-15810586D01*
X12374986Y-15682014D02*
X12374986Y-15739157D01*
X12489271Y-15682014D02*
X12489271Y-15739157D01*
X12932128Y-16096300D02*
X12917843Y-16082014D01*
X12889271Y-16039157D01*
X12874986Y-16010586D01*
X12860700Y-15967729D01*
X12846414Y-15896300D01*
X12846414Y-15839157D01*
X12860700Y-15767729D01*
X12874986Y-15724871D01*
X12889271Y-15696300D01*
X12917843Y-15653443D01*
X12932128Y-15639157D01*
X13174986Y-15782014D02*
X13174986Y-15982014D01*
X13103557Y-15667729D02*
X13032128Y-15882014D01*
X13217843Y-15882014D01*
X13374986Y-15810586D02*
X13346414Y-15796300D01*
X13332128Y-15782014D01*
X13317843Y-15753443D01*
X13317843Y-15739157D01*
X13332128Y-15710586D01*
X13346414Y-15696300D01*
X13374986Y-15682014D01*
X13432128Y-15682014D01*
X13460700Y-15696300D01*
X13474986Y-15710586D01*
X13489271Y-15739157D01*
X13489271Y-15753443D01*
X13474986Y-15782014D01*
X13460700Y-15796300D01*
X13432128Y-15810586D01*
X13374986Y-15810586D01*
X13346414Y-15824871D01*
X13332128Y-15839157D01*
X13317843Y-15867729D01*
X13317843Y-15924871D01*
X13332128Y-15953443D01*
X13346414Y-15967729D01*
X13374986Y-15982014D01*
X13432128Y-15982014D01*
X13460700Y-15967729D01*
X13474986Y-15953443D01*
X13489271Y-15924871D01*
X13489271Y-15867729D01*
X13474986Y-15839157D01*
X13460700Y-15824871D01*
X13432128Y-15810586D01*
X13846414Y-15982014D02*
X13846414Y-15682014D01*
X13974986Y-15982014D02*
X13974986Y-15824871D01*
X13960700Y-15796300D01*
X13932128Y-15782014D01*
X13889271Y-15782014D01*
X13860700Y-15796300D01*
X13846414Y-15810586D01*
X14160700Y-15982014D02*
X14132128Y-15967729D01*
X14117843Y-15953443D01*
X14103557Y-15924871D01*
X14103557Y-15839157D01*
X14117843Y-15810586D01*
X14132128Y-15796300D01*
X14160700Y-15782014D01*
X14203557Y-15782014D01*
X14232128Y-15796300D01*
X14246414Y-15810586D01*
X14260700Y-15839157D01*
X14260700Y-15924871D01*
X14246414Y-15953443D01*
X14232128Y-15967729D01*
X14203557Y-15982014D01*
X14160700Y-15982014D01*
X14432128Y-15982014D02*
X14403557Y-15967729D01*
X14389271Y-15939157D01*
X14389271Y-15682014D01*
X14660700Y-15967729D02*
X14632128Y-15982014D01*
X14574986Y-15982014D01*
X14546414Y-15967729D01*
X14532128Y-15939157D01*
X14532128Y-15824871D01*
X14546414Y-15796300D01*
X14574986Y-15782014D01*
X14632128Y-15782014D01*
X14660700Y-15796300D01*
X14674986Y-15824871D01*
X14674986Y-15853443D01*
X14532128Y-15882014D01*
X14789271Y-15967729D02*
X14817843Y-15982014D01*
X14874986Y-15982014D01*
X14903557Y-15967729D01*
X14917843Y-15939157D01*
X14917843Y-15924871D01*
X14903557Y-15896300D01*
X14874986Y-15882014D01*
X14832128Y-15882014D01*
X14803557Y-15867729D01*
X14789271Y-15839157D01*
X14789271Y-15824871D01*
X14803557Y-15796300D01*
X14832128Y-15782014D01*
X14874986Y-15782014D01*
X14903557Y-15796300D01*
X15017843Y-16096300D02*
X15032128Y-16082014D01*
X15060700Y-16039157D01*
X15074986Y-16010586D01*
X15089271Y-15967729D01*
X15103557Y-15896300D01*
X15103557Y-15839157D01*
X15089271Y-15767729D01*
X15074986Y-15724871D01*
X15060700Y-15696300D01*
X15032128Y-15653443D01*
X15017843Y-15639157D01*
X8088700Y-16163800D02*
X8245700Y-16320800D01*
X8245700Y-16163800D02*
X8088700Y-16320800D01*
X8167200Y-16320800D02*
X8245700Y-16242300D01*
X8167200Y-16163800D01*
X8088700Y-16242300D01*
X8167200Y-16320800D01*
X8689271Y-16378014D02*
X8517843Y-16378014D01*
X8603557Y-16378014D02*
X8603557Y-16078014D01*
X8574986Y-16120871D01*
X8546414Y-16149443D01*
X8517843Y-16163729D01*
X8817843Y-16349443D02*
X8832128Y-16363729D01*
X8817843Y-16378014D01*
X8803557Y-16363729D01*
X8817843Y-16349443D01*
X8817843Y-16378014D01*
X9103557Y-16078014D02*
X8960700Y-16078014D01*
X8946414Y-16220871D01*
X8960700Y-16206586D01*
X8989271Y-16192300D01*
X9060700Y-16192300D01*
X9089271Y-16206586D01*
X9103557Y-16220871D01*
X9117843Y-16249443D01*
X9117843Y-16320871D01*
X9103557Y-16349443D01*
X9089271Y-16363729D01*
X9060700Y-16378014D01*
X8989271Y-16378014D01*
X8960700Y-16363729D01*
X8946414Y-16349443D01*
X9217843Y-16078014D02*
X9417843Y-16078014D01*
X9289271Y-16378014D01*
X9532128Y-16378014D02*
X9532128Y-16178014D01*
X9532128Y-16206586D02*
X9546414Y-16192300D01*
X9574986Y-16178014D01*
X9617843Y-16178014D01*
X9646414Y-16192300D01*
X9660700Y-16220871D01*
X9660700Y-16378014D01*
X9660700Y-16220871D02*
X9674986Y-16192300D01*
X9703557Y-16178014D01*
X9746414Y-16178014D01*
X9774986Y-16192300D01*
X9789271Y-16220871D01*
X9789271Y-16378014D01*
X9932128Y-16378014D02*
X9932128Y-16178014D01*
X9932128Y-16206586D02*
X9946414Y-16192300D01*
X9974986Y-16178014D01*
X10017843Y-16178014D01*
X10046414Y-16192300D01*
X10060700Y-16220871D01*
X10060700Y-16378014D01*
X10060700Y-16220871D02*
X10074986Y-16192300D01*
X10103557Y-16178014D01*
X10146414Y-16178014D01*
X10174986Y-16192300D01*
X10189271Y-16220871D01*
X10189271Y-16378014D01*
X10774986Y-16063729D02*
X10517843Y-16449443D01*
X11160700Y-16078014D02*
X11189271Y-16078014D01*
X11217843Y-16092300D01*
X11232128Y-16106586D01*
X11246414Y-16135157D01*
X11260700Y-16192300D01*
X11260700Y-16263729D01*
X11246414Y-16320871D01*
X11232128Y-16349443D01*
X11217843Y-16363729D01*
X11189271Y-16378014D01*
X11160700Y-16378014D01*
X11132128Y-16363729D01*
X11117843Y-16349443D01*
X11103557Y-16320871D01*
X11089271Y-16263729D01*
X11089271Y-16192300D01*
X11103557Y-16135157D01*
X11117843Y-16106586D01*
X11132128Y-16092300D01*
X11160700Y-16078014D01*
X11389271Y-16349443D02*
X11403557Y-16363729D01*
X11389271Y-16378014D01*
X11374986Y-16363729D01*
X11389271Y-16349443D01*
X11389271Y-16378014D01*
X11589271Y-16078014D02*
X11617843Y-16078014D01*
X11646414Y-16092300D01*
X11660700Y-16106586D01*
X11674986Y-16135157D01*
X11689271Y-16192300D01*
X11689271Y-16263729D01*
X11674986Y-16320871D01*
X11660700Y-16349443D01*
X11646414Y-16363729D01*
X11617843Y-16378014D01*
X11589271Y-16378014D01*
X11560700Y-16363729D01*
X11546414Y-16349443D01*
X11532128Y-16320871D01*
X11517843Y-16263729D01*
X11517843Y-16192300D01*
X11532128Y-16135157D01*
X11546414Y-16106586D01*
X11560700Y-16092300D01*
X11589271Y-16078014D01*
X11946414Y-16078014D02*
X11889271Y-16078014D01*
X11860700Y-16092300D01*
X11846414Y-16106586D01*
X11817843Y-16149443D01*
X11803557Y-16206586D01*
X11803557Y-16320871D01*
X11817843Y-16349443D01*
X11832128Y-16363729D01*
X11860700Y-16378014D01*
X11917843Y-16378014D01*
X11946414Y-16363729D01*
X11960700Y-16349443D01*
X11974986Y-16320871D01*
X11974986Y-16249443D01*
X11960700Y-16220871D01*
X11946414Y-16206586D01*
X11917843Y-16192300D01*
X11860700Y-16192300D01*
X11832128Y-16206586D01*
X11817843Y-16220871D01*
X11803557Y-16249443D01*
X12089271Y-16106586D02*
X12103557Y-16092300D01*
X12132128Y-16078014D01*
X12203557Y-16078014D01*
X12232128Y-16092300D01*
X12246414Y-16106586D01*
X12260700Y-16135157D01*
X12260700Y-16163729D01*
X12246414Y-16206586D01*
X12074986Y-16378014D01*
X12260700Y-16378014D01*
X12374986Y-16078014D02*
X12374986Y-16135157D01*
X12489271Y-16078014D02*
X12489271Y-16135157D01*
X12932128Y-16492300D02*
X12917843Y-16478014D01*
X12889271Y-16435157D01*
X12874986Y-16406586D01*
X12860700Y-16363729D01*
X12846414Y-16292300D01*
X12846414Y-16235157D01*
X12860700Y-16163729D01*
X12874986Y-16120871D01*
X12889271Y-16092300D01*
X12917843Y-16049443D01*
X12932128Y-16035157D01*
X13032128Y-16106586D02*
X13046414Y-16092300D01*
X13074986Y-16078014D01*
X13146414Y-16078014D01*
X13174986Y-16092300D01*
X13189271Y-16106586D01*
X13203557Y-16135157D01*
X13203557Y-16163729D01*
X13189271Y-16206586D01*
X13017843Y-16378014D01*
X13203557Y-16378014D01*
X13560700Y-16378014D02*
X13560700Y-16078014D01*
X13689271Y-16378014D02*
X13689271Y-16220871D01*
X13674986Y-16192300D01*
X13646414Y-16178014D01*
X13603557Y-16178014D01*
X13574986Y-16192300D01*
X13560700Y-16206586D01*
X13874986Y-16378014D02*
X13846414Y-16363729D01*
X13832128Y-16349443D01*
X13817843Y-16320871D01*
X13817843Y-16235157D01*
X13832128Y-16206586D01*
X13846414Y-16192300D01*
X13874986Y-16178014D01*
X13917843Y-16178014D01*
X13946414Y-16192300D01*
X13960700Y-16206586D01*
X13974986Y-16235157D01*
X13974986Y-16320871D01*
X13960700Y-16349443D01*
X13946414Y-16363729D01*
X13917843Y-16378014D01*
X13874986Y-16378014D01*
X14146414Y-16378014D02*
X14117843Y-16363729D01*
X14103557Y-16335157D01*
X14103557Y-16078014D01*
X14374986Y-16363729D02*
X14346414Y-16378014D01*
X14289271Y-16378014D01*
X14260700Y-16363729D01*
X14246414Y-16335157D01*
X14246414Y-16220871D01*
X14260700Y-16192300D01*
X14289271Y-16178014D01*
X14346414Y-16178014D01*
X14374986Y-16192300D01*
X14389271Y-16220871D01*
X14389271Y-16249443D01*
X14246414Y-16278014D01*
X14503557Y-16363729D02*
X14532128Y-16378014D01*
X14589271Y-16378014D01*
X14617843Y-16363729D01*
X14632128Y-16335157D01*
X14632128Y-16320871D01*
X14617843Y-16292300D01*
X14589271Y-16278014D01*
X14546414Y-16278014D01*
X14517843Y-16263729D01*
X14503557Y-16235157D01*
X14503557Y-16220871D01*
X14517843Y-16192300D01*
X14546414Y-16178014D01*
X14589271Y-16178014D01*
X14617843Y-16192300D01*
X14732128Y-16492300D02*
X14746414Y-16478014D01*
X14774986Y-16435157D01*
X14789271Y-16406586D01*
X14803557Y-16363729D01*
X14817843Y-16292300D01*
X14817843Y-16235157D01*
X14803557Y-16163729D01*
X14789271Y-16120871D01*
X14774986Y-16092300D01*
X14746414Y-16049443D01*
X14732128Y-16035157D01*
X8130700Y-16523300D02*
X8130700Y-16753300D01*
X8015700Y-16638300D02*
X8245700Y-16638300D01*
X8245700Y-16638300D02*
G75*
G03*
X8245700Y-16638300I-115000J0D01*
G01*
X8517843Y-16502586D02*
X8532128Y-16488300D01*
X8560700Y-16474014D01*
X8632128Y-16474014D01*
X8660700Y-16488300D01*
X8674986Y-16502586D01*
X8689271Y-16531157D01*
X8689271Y-16559729D01*
X8674986Y-16602586D01*
X8503557Y-16774014D01*
X8689271Y-16774014D01*
X8817843Y-16745443D02*
X8832128Y-16759729D01*
X8817843Y-16774014D01*
X8803557Y-16759729D01*
X8817843Y-16745443D01*
X8817843Y-16774014D01*
X8932128Y-16474014D02*
X9117843Y-16474014D01*
X9017843Y-16588300D01*
X9060700Y-16588300D01*
X9089271Y-16602586D01*
X9103557Y-16616871D01*
X9117843Y-16645443D01*
X9117843Y-16716871D01*
X9103557Y-16745443D01*
X9089271Y-16759729D01*
X9060700Y-16774014D01*
X8974986Y-16774014D01*
X8946414Y-16759729D01*
X8932128Y-16745443D01*
X9303557Y-16474014D02*
X9332128Y-16474014D01*
X9360700Y-16488300D01*
X9374986Y-16502586D01*
X9389271Y-16531157D01*
X9403557Y-16588300D01*
X9403557Y-16659729D01*
X9389271Y-16716871D01*
X9374986Y-16745443D01*
X9360700Y-16759729D01*
X9332128Y-16774014D01*
X9303557Y-16774014D01*
X9274986Y-16759729D01*
X9260700Y-16745443D01*
X9246414Y-16716871D01*
X9232128Y-16659729D01*
X9232128Y-16588300D01*
X9246414Y-16531157D01*
X9260700Y-16502586D01*
X9274986Y-16488300D01*
X9303557Y-16474014D01*
X9532128Y-16774014D02*
X9532128Y-16574014D01*
X9532128Y-16602586D02*
X9546414Y-16588300D01*
X9574986Y-16574014D01*
X9617843Y-16574014D01*
X9646414Y-16588300D01*
X9660700Y-16616871D01*
X9660700Y-16774014D01*
X9660700Y-16616871D02*
X9674986Y-16588300D01*
X9703557Y-16574014D01*
X9746414Y-16574014D01*
X9774986Y-16588300D01*
X9789271Y-16616871D01*
X9789271Y-16774014D01*
X9932128Y-16774014D02*
X9932128Y-16574014D01*
X9932128Y-16602586D02*
X9946414Y-16588300D01*
X9974986Y-16574014D01*
X10017843Y-16574014D01*
X10046414Y-16588300D01*
X10060700Y-16616871D01*
X10060700Y-16774014D01*
X10060700Y-16616871D02*
X10074986Y-16588300D01*
X10103557Y-16574014D01*
X10146414Y-16574014D01*
X10174986Y-16588300D01*
X10189271Y-16616871D01*
X10189271Y-16774014D01*
X10774986Y-16459729D02*
X10517843Y-16845443D01*
X11160700Y-16474014D02*
X11189271Y-16474014D01*
X11217843Y-16488300D01*
X11232128Y-16502586D01*
X11246414Y-16531157D01*
X11260700Y-16588300D01*
X11260700Y-16659729D01*
X11246414Y-16716871D01*
X11232128Y-16745443D01*
X11217843Y-16759729D01*
X11189271Y-16774014D01*
X11160700Y-16774014D01*
X11132128Y-16759729D01*
X11117843Y-16745443D01*
X11103557Y-16716871D01*
X11089271Y-16659729D01*
X11089271Y-16588300D01*
X11103557Y-16531157D01*
X11117843Y-16502586D01*
X11132128Y-16488300D01*
X11160700Y-16474014D01*
X11389271Y-16745443D02*
X11403557Y-16759729D01*
X11389271Y-16774014D01*
X11374986Y-16759729D01*
X11389271Y-16745443D01*
X11389271Y-16774014D01*
X11589271Y-16474014D02*
X11617843Y-16474014D01*
X11646414Y-16488300D01*
X11660700Y-16502586D01*
X11674986Y-16531157D01*
X11689271Y-16588300D01*
X11689271Y-16659729D01*
X11674986Y-16716871D01*
X11660700Y-16745443D01*
X11646414Y-16759729D01*
X11617843Y-16774014D01*
X11589271Y-16774014D01*
X11560700Y-16759729D01*
X11546414Y-16745443D01*
X11532128Y-16716871D01*
X11517843Y-16659729D01*
X11517843Y-16588300D01*
X11532128Y-16531157D01*
X11546414Y-16502586D01*
X11560700Y-16488300D01*
X11589271Y-16474014D01*
X11832128Y-16774014D02*
X11889271Y-16774014D01*
X11917843Y-16759729D01*
X11932128Y-16745443D01*
X11960700Y-16702586D01*
X11974986Y-16645443D01*
X11974986Y-16531157D01*
X11960700Y-16502586D01*
X11946414Y-16488300D01*
X11917843Y-16474014D01*
X11860700Y-16474014D01*
X11832128Y-16488300D01*
X11817843Y-16502586D01*
X11803557Y-16531157D01*
X11803557Y-16602586D01*
X11817843Y-16631157D01*
X11832128Y-16645443D01*
X11860700Y-16659729D01*
X11917843Y-16659729D01*
X11946414Y-16645443D01*
X11960700Y-16631157D01*
X11974986Y-16602586D01*
X12260700Y-16774014D02*
X12089271Y-16774014D01*
X12174986Y-16774014D02*
X12174986Y-16474014D01*
X12146414Y-16516871D01*
X12117843Y-16545443D01*
X12089271Y-16559729D01*
X12374986Y-16474014D02*
X12374986Y-16531157D01*
X12489271Y-16474014D02*
X12489271Y-16531157D01*
X12932128Y-16888300D02*
X12917843Y-16874014D01*
X12889271Y-16831157D01*
X12874986Y-16802586D01*
X12860700Y-16759729D01*
X12846414Y-16688300D01*
X12846414Y-16631157D01*
X12860700Y-16559729D01*
X12874986Y-16516871D01*
X12889271Y-16488300D01*
X12917843Y-16445443D01*
X12932128Y-16431157D01*
X13032128Y-16502586D02*
X13046414Y-16488300D01*
X13074986Y-16474014D01*
X13146414Y-16474014D01*
X13174986Y-16488300D01*
X13189271Y-16502586D01*
X13203557Y-16531157D01*
X13203557Y-16559729D01*
X13189271Y-16602586D01*
X13017843Y-16774014D01*
X13203557Y-16774014D01*
X13560700Y-16774014D02*
X13560700Y-16474014D01*
X13689271Y-16774014D02*
X13689271Y-16616871D01*
X13674986Y-16588300D01*
X13646414Y-16574014D01*
X13603557Y-16574014D01*
X13574986Y-16588300D01*
X13560700Y-16602586D01*
X13874986Y-16774014D02*
X13846414Y-16759729D01*
X13832128Y-16745443D01*
X13817843Y-16716871D01*
X13817843Y-16631157D01*
X13832128Y-16602586D01*
X13846414Y-16588300D01*
X13874986Y-16574014D01*
X13917843Y-16574014D01*
X13946414Y-16588300D01*
X13960700Y-16602586D01*
X13974986Y-16631157D01*
X13974986Y-16716871D01*
X13960700Y-16745443D01*
X13946414Y-16759729D01*
X13917843Y-16774014D01*
X13874986Y-16774014D01*
X14146414Y-16774014D02*
X14117843Y-16759729D01*
X14103557Y-16731157D01*
X14103557Y-16474014D01*
X14374986Y-16759729D02*
X14346414Y-16774014D01*
X14289271Y-16774014D01*
X14260700Y-16759729D01*
X14246414Y-16731157D01*
X14246414Y-16616871D01*
X14260700Y-16588300D01*
X14289271Y-16574014D01*
X14346414Y-16574014D01*
X14374986Y-16588300D01*
X14389271Y-16616871D01*
X14389271Y-16645443D01*
X14246414Y-16674014D01*
X14503557Y-16759729D02*
X14532128Y-16774014D01*
X14589271Y-16774014D01*
X14617843Y-16759729D01*
X14632128Y-16731157D01*
X14632128Y-16716871D01*
X14617843Y-16688300D01*
X14589271Y-16674014D01*
X14546414Y-16674014D01*
X14517843Y-16659729D01*
X14503557Y-16631157D01*
X14503557Y-16616871D01*
X14517843Y-16588300D01*
X14546414Y-16574014D01*
X14589271Y-16574014D01*
X14617843Y-16588300D01*
X14732128Y-16888300D02*
X14746414Y-16874014D01*
X14774986Y-16831157D01*
X14789271Y-16802586D01*
X14803557Y-16759729D01*
X14817843Y-16688300D01*
X14817843Y-16631157D01*
X14803557Y-16559729D01*
X14789271Y-16516871D01*
X14774986Y-16488300D01*
X14746414Y-16445443D01*
X14732128Y-16431157D01*
M02*
