G04 #@! TF.GenerationSoftware,KiCad,Pcbnew,(5.1.10)-1*
G04 #@! TF.CreationDate,2021-09-04T12:41:49+02:00*
G04 #@! TF.ProjectId,POE_hat_and_USB,504f455f-6861-4745-9f61-6e645f555342,1.0*
G04 #@! TF.SameCoordinates,Original*
G04 #@! TF.FileFunction,Legend,Top*
G04 #@! TF.FilePolarity,Positive*
%FSLAX46Y46*%
G04 Gerber Fmt 4.6, Leading zero omitted, Abs format (unit mm)*
G04 Created by KiCad (PCBNEW (5.1.10)-1) date 2021-09-04 12:41:49*
%MOMM*%
%LPD*%
G01*
G04 APERTURE LIST*
%ADD10C,0.187500*%
%ADD11C,0.120000*%
%ADD12C,0.150000*%
%ADD13O,1.802000X1.802000*%
%ADD14C,2.802000*%
%ADD15O,1.302000X1.702000*%
%ADD16O,1.302000X1.302000*%
%ADD17C,1.602000*%
%ADD18C,3.352000*%
%ADD19C,2.402000*%
%ADD20O,1.302000X2.002000*%
%ADD21C,1.552000*%
G04 APERTURE END LIST*
D10*
X175421485Y-114588800D02*
X174671485Y-114588800D01*
X174671485Y-114303085D01*
X174707200Y-114231657D01*
X174742914Y-114195942D01*
X174814342Y-114160228D01*
X174921485Y-114160228D01*
X174992914Y-114195942D01*
X175028628Y-114231657D01*
X175064342Y-114303085D01*
X175064342Y-114588800D01*
X174671485Y-113910228D02*
X175421485Y-113731657D01*
X174885771Y-113588800D01*
X175421485Y-113445942D01*
X174671485Y-113267371D01*
X175421485Y-112553085D02*
X175064342Y-112803085D01*
X175421485Y-112981657D02*
X174671485Y-112981657D01*
X174671485Y-112695942D01*
X174707200Y-112624514D01*
X174742914Y-112588800D01*
X174814342Y-112553085D01*
X174921485Y-112553085D01*
X174992914Y-112588800D01*
X175028628Y-112624514D01*
X175064342Y-112695942D01*
X175064342Y-112981657D01*
X172779885Y-114610057D02*
X172029885Y-114610057D01*
X172029885Y-114324342D01*
X172065600Y-114252914D01*
X172101314Y-114217200D01*
X172172742Y-114181485D01*
X172279885Y-114181485D01*
X172351314Y-114217200D01*
X172387028Y-114252914D01*
X172422742Y-114324342D01*
X172422742Y-114610057D01*
X172029885Y-113717200D02*
X172029885Y-113574342D01*
X172065600Y-113502914D01*
X172137028Y-113431485D01*
X172279885Y-113395771D01*
X172529885Y-113395771D01*
X172672742Y-113431485D01*
X172744171Y-113502914D01*
X172779885Y-113574342D01*
X172779885Y-113717200D01*
X172744171Y-113788628D01*
X172672742Y-113860057D01*
X172529885Y-113895771D01*
X172279885Y-113895771D01*
X172137028Y-113860057D01*
X172065600Y-113788628D01*
X172029885Y-113717200D01*
X172387028Y-113074342D02*
X172387028Y-112824342D01*
X172779885Y-112717200D02*
X172779885Y-113074342D01*
X172029885Y-113074342D01*
X172029885Y-112717200D01*
X172779885Y-111824342D02*
X172029885Y-111824342D01*
X172029885Y-111538628D01*
X172065600Y-111467200D01*
X172101314Y-111431485D01*
X172172742Y-111395771D01*
X172279885Y-111395771D01*
X172351314Y-111431485D01*
X172387028Y-111467200D01*
X172422742Y-111538628D01*
X172422742Y-111824342D01*
X172029885Y-111145771D02*
X172779885Y-110967200D01*
X172244171Y-110824342D01*
X172779885Y-110681485D01*
X172029885Y-110502914D01*
X172779885Y-109788628D02*
X172422742Y-110038628D01*
X172779885Y-110217200D02*
X172029885Y-110217200D01*
X172029885Y-109931485D01*
X172065600Y-109860057D01*
X172101314Y-109824342D01*
X172172742Y-109788628D01*
X172279885Y-109788628D01*
X172351314Y-109824342D01*
X172387028Y-109860057D01*
X172422742Y-109931485D01*
X172422742Y-110217200D01*
D11*
X130600000Y-98400000D02*
X164600000Y-98400000D01*
X164600000Y-120400000D02*
X130600000Y-120400000D01*
X170600000Y-104400000D02*
X170600000Y-114400000D01*
X124600000Y-104400000D02*
X124600000Y-114400000D01*
X115645200Y-117440400D02*
X115645200Y-113440400D01*
X112345200Y-117440400D02*
X115645200Y-117440400D01*
X111600000Y-111093000D02*
X110000000Y-111093000D01*
X110000000Y-111093000D02*
X110000000Y-112618000D01*
X110000000Y-112618000D02*
X102800000Y-112618000D01*
X102800000Y-112618000D02*
X102800000Y-111093000D01*
X110000000Y-101043000D02*
X110000000Y-99518000D01*
X110000000Y-99518000D02*
X102800000Y-99518000D01*
X102800000Y-99518000D02*
X102800000Y-101043000D01*
X176759719Y-109680331D02*
X175847552Y-110592499D01*
X175847552Y-110592499D02*
X176837501Y-111582448D01*
X176837501Y-111582448D02*
X177749669Y-110670281D01*
X177749456Y-110670150D02*
G75*
G03*
X176759719Y-109680331I1582544J2572150D01*
G01*
X82422000Y-114433000D02*
X82422000Y-97703000D01*
X82422000Y-114433000D02*
X90032000Y-114433000D01*
X82422000Y-97703000D02*
X90032000Y-97703000D01*
X98392000Y-114433000D02*
X98392000Y-97703000D01*
X98392000Y-114433000D02*
X92832000Y-114433000D01*
X98392000Y-97703000D02*
X92832000Y-97703000D01*
X89832000Y-114628000D02*
X90332000Y-115128000D01*
X90332000Y-115128000D02*
X89332000Y-115128000D01*
X89332000Y-115128000D02*
X89832000Y-114628000D01*
X171702000Y-104398000D02*
X171702000Y-103068000D01*
X173032000Y-104398000D02*
X171702000Y-104398000D01*
X174302000Y-104398000D02*
X174302000Y-101738000D01*
X174302000Y-101738000D02*
X181982000Y-101738000D01*
X174302000Y-104398000D02*
X181982000Y-104398000D01*
X181982000Y-104398000D02*
X181982000Y-101738000D01*
X181982000Y-100798000D02*
X181982000Y-98138000D01*
X174302000Y-100798000D02*
X181982000Y-100798000D01*
X174302000Y-98138000D02*
X181982000Y-98138000D01*
X174302000Y-100798000D02*
X174302000Y-98138000D01*
X173032000Y-100798000D02*
X171702000Y-100798000D01*
X171702000Y-100798000D02*
X171702000Y-99468000D01*
X106192000Y-116024164D02*
X106192000Y-116239836D01*
X105472000Y-116024164D02*
X105472000Y-116239836D01*
X106240000Y-118224164D02*
X106240000Y-118439836D01*
X106960000Y-118224164D02*
X106960000Y-118439836D01*
X106972000Y-116024164D02*
X106972000Y-116239836D01*
X107692000Y-116024164D02*
X107692000Y-116239836D01*
X103692164Y-120360000D02*
X103907836Y-120360000D01*
X103692164Y-119640000D02*
X103907836Y-119640000D01*
X109834000Y-118224164D02*
X109834000Y-118439836D01*
X109114000Y-118224164D02*
X109114000Y-118439836D01*
X101568364Y-98960000D02*
X101784036Y-98960000D01*
X101568364Y-98240000D02*
X101784036Y-98240000D01*
X116516100Y-102047536D02*
X116516100Y-101831864D01*
X115796100Y-102047536D02*
X115796100Y-101831864D01*
X114796100Y-102047536D02*
X114796100Y-101831864D01*
X115516100Y-102047536D02*
X115516100Y-101831864D01*
X118910400Y-102060236D02*
X118910400Y-101844564D01*
X119630400Y-102060236D02*
X119630400Y-101844564D01*
X117910400Y-102060236D02*
X117910400Y-101844564D01*
X118630400Y-102060236D02*
X118630400Y-101844564D01*
X114763436Y-119093600D02*
X114547764Y-119093600D01*
X114763436Y-119813600D02*
X114547764Y-119813600D01*
X115258964Y-111053200D02*
X115474636Y-111053200D01*
X115258964Y-110333200D02*
X115474636Y-110333200D01*
X97953641Y-92580000D02*
X97646359Y-92580000D01*
X97953641Y-91820000D02*
X97646359Y-91820000D01*
X97953641Y-93320000D02*
X97646359Y-93320000D01*
X97953641Y-94080000D02*
X97646359Y-94080000D01*
X106212000Y-113778359D02*
X106212000Y-114085641D01*
X105452000Y-113778359D02*
X105452000Y-114085641D01*
X107712000Y-113778359D02*
X107712000Y-114085641D01*
X106952000Y-113778359D02*
X106952000Y-114085641D01*
X171825400Y-115615700D02*
X171825400Y-117900700D01*
X171825400Y-117900700D02*
X173295400Y-117900700D01*
X173295400Y-117900700D02*
X173295400Y-115615700D01*
X175819400Y-117920200D02*
X175819400Y-115635200D01*
X174349400Y-117920200D02*
X175819400Y-117920200D01*
X174349400Y-115635200D02*
X174349400Y-117920200D01*
D12*
X145766066Y-109875580D02*
X145766066Y-108875580D01*
X146099400Y-109589866D01*
X146432733Y-108875580D01*
X146432733Y-109875580D01*
X147099400Y-108875580D02*
X147289876Y-108875580D01*
X147385114Y-108923200D01*
X147480352Y-109018438D01*
X147527971Y-109208914D01*
X147527971Y-109542247D01*
X147480352Y-109732723D01*
X147385114Y-109827961D01*
X147289876Y-109875580D01*
X147099400Y-109875580D01*
X147004161Y-109827961D01*
X146908923Y-109732723D01*
X146861304Y-109542247D01*
X146861304Y-109208914D01*
X146908923Y-109018438D01*
X147004161Y-108923200D01*
X147099400Y-108875580D01*
X147956542Y-109875580D02*
X147956542Y-108875580D01*
X148194638Y-108875580D01*
X148337495Y-108923200D01*
X148432733Y-109018438D01*
X148480352Y-109113676D01*
X148527971Y-109304152D01*
X148527971Y-109447009D01*
X148480352Y-109637485D01*
X148432733Y-109732723D01*
X148337495Y-109827961D01*
X148194638Y-109875580D01*
X147956542Y-109875580D01*
X149480352Y-109875580D02*
X148908923Y-109875580D01*
X149194638Y-109875580D02*
X149194638Y-108875580D01*
X149099400Y-109018438D01*
X149004161Y-109113676D01*
X148908923Y-109161295D01*
X113519009Y-112396590D02*
X113519009Y-112872780D01*
X113185676Y-111872780D02*
X113519009Y-112396590D01*
X113852342Y-111872780D01*
X114138057Y-111968019D02*
X114185676Y-111920400D01*
X114280914Y-111872780D01*
X114519009Y-111872780D01*
X114614247Y-111920400D01*
X114661866Y-111968019D01*
X114709485Y-112063257D01*
X114709485Y-112158495D01*
X114661866Y-112301352D01*
X114090438Y-112872780D01*
X114709485Y-112872780D01*
X105138095Y-105520380D02*
X105709523Y-105520380D01*
X105423809Y-106520380D02*
X105423809Y-105520380D01*
X106614285Y-106520380D02*
X106280952Y-106044190D01*
X106042857Y-106520380D02*
X106042857Y-105520380D01*
X106423809Y-105520380D01*
X106519047Y-105568000D01*
X106566666Y-105615619D01*
X106614285Y-105710857D01*
X106614285Y-105853714D01*
X106566666Y-105948952D01*
X106519047Y-105996571D01*
X106423809Y-106044190D01*
X106042857Y-106044190D01*
X107566666Y-106520380D02*
X106995238Y-106520380D01*
X107280952Y-106520380D02*
X107280952Y-105520380D01*
X107185714Y-105663238D01*
X107090476Y-105758476D01*
X106995238Y-105806095D01*
X174445704Y-108783380D02*
X174445704Y-107783380D01*
X174683800Y-107783380D01*
X174826657Y-107831000D01*
X174921895Y-107926238D01*
X174969514Y-108021476D01*
X175017133Y-108211952D01*
X175017133Y-108354809D01*
X174969514Y-108545285D01*
X174921895Y-108640523D01*
X174826657Y-108735761D01*
X174683800Y-108783380D01*
X174445704Y-108783380D01*
X175350466Y-107783380D02*
X176017133Y-107783380D01*
X175588561Y-108783380D01*
X90166666Y-94452380D02*
X90166666Y-95166666D01*
X90119047Y-95309523D01*
X90023809Y-95404761D01*
X89880952Y-95452380D01*
X89785714Y-95452380D01*
X90595238Y-94547619D02*
X90642857Y-94500000D01*
X90738095Y-94452380D01*
X90976190Y-94452380D01*
X91071428Y-94500000D01*
X91119047Y-94547619D01*
X91166666Y-94642857D01*
X91166666Y-94738095D01*
X91119047Y-94880952D01*
X90547619Y-95452380D01*
X91166666Y-95452380D01*
X172716866Y-105040180D02*
X172716866Y-105754466D01*
X172669247Y-105897323D01*
X172574009Y-105992561D01*
X172431152Y-106040180D01*
X172335914Y-106040180D01*
X173097819Y-105040180D02*
X173716866Y-105040180D01*
X173383533Y-105421133D01*
X173526390Y-105421133D01*
X173621628Y-105468752D01*
X173669247Y-105516371D01*
X173716866Y-105611609D01*
X173716866Y-105849704D01*
X173669247Y-105944942D01*
X173621628Y-105992561D01*
X173526390Y-106040180D01*
X173240676Y-106040180D01*
X173145438Y-105992561D01*
X173097819Y-105944942D01*
X175841066Y-96607380D02*
X175841066Y-97321666D01*
X175793447Y-97464523D01*
X175698209Y-97559761D01*
X175555352Y-97607380D01*
X175460114Y-97607380D01*
X176745828Y-96940714D02*
X176745828Y-97607380D01*
X176507733Y-96559761D02*
X176269638Y-97274047D01*
X176888685Y-97274047D01*
X104033333Y-116457142D02*
X103985714Y-116504761D01*
X103842857Y-116552380D01*
X103747619Y-116552380D01*
X103604761Y-116504761D01*
X103509523Y-116409523D01*
X103461904Y-116314285D01*
X103414285Y-116123809D01*
X103414285Y-115980952D01*
X103461904Y-115790476D01*
X103509523Y-115695238D01*
X103604761Y-115600000D01*
X103747619Y-115552380D01*
X103842857Y-115552380D01*
X103985714Y-115600000D01*
X104033333Y-115647619D01*
X104366666Y-115552380D02*
X104985714Y-115552380D01*
X104652380Y-115933333D01*
X104795238Y-115933333D01*
X104890476Y-115980952D01*
X104938095Y-116028571D01*
X104985714Y-116123809D01*
X104985714Y-116361904D01*
X104938095Y-116457142D01*
X104890476Y-116504761D01*
X104795238Y-116552380D01*
X104509523Y-116552380D01*
X104414285Y-116504761D01*
X104366666Y-116457142D01*
X106448333Y-120304142D02*
X106400714Y-120351761D01*
X106257857Y-120399380D01*
X106162619Y-120399380D01*
X106019761Y-120351761D01*
X105924523Y-120256523D01*
X105876904Y-120161285D01*
X105829285Y-119970809D01*
X105829285Y-119827952D01*
X105876904Y-119637476D01*
X105924523Y-119542238D01*
X106019761Y-119447000D01*
X106162619Y-119399380D01*
X106257857Y-119399380D01*
X106400714Y-119447000D01*
X106448333Y-119494619D01*
X107353095Y-119399380D02*
X106876904Y-119399380D01*
X106829285Y-119875571D01*
X106876904Y-119827952D01*
X106972142Y-119780333D01*
X107210238Y-119780333D01*
X107305476Y-119827952D01*
X107353095Y-119875571D01*
X107400714Y-119970809D01*
X107400714Y-120208904D01*
X107353095Y-120304142D01*
X107305476Y-120351761D01*
X107210238Y-120399380D01*
X106972142Y-120399380D01*
X106876904Y-120351761D01*
X106829285Y-120304142D01*
X108733333Y-116457142D02*
X108685714Y-116504761D01*
X108542857Y-116552380D01*
X108447619Y-116552380D01*
X108304761Y-116504761D01*
X108209523Y-116409523D01*
X108161904Y-116314285D01*
X108114285Y-116123809D01*
X108114285Y-115980952D01*
X108161904Y-115790476D01*
X108209523Y-115695238D01*
X108304761Y-115600000D01*
X108447619Y-115552380D01*
X108542857Y-115552380D01*
X108685714Y-115600000D01*
X108733333Y-115647619D01*
X109066666Y-115552380D02*
X109733333Y-115552380D01*
X109304761Y-116552380D01*
X103157142Y-119197142D02*
X103109523Y-119244761D01*
X102966666Y-119292380D01*
X102871428Y-119292380D01*
X102728571Y-119244761D01*
X102633333Y-119149523D01*
X102585714Y-119054285D01*
X102538095Y-118863809D01*
X102538095Y-118720952D01*
X102585714Y-118530476D01*
X102633333Y-118435238D01*
X102728571Y-118340000D01*
X102871428Y-118292380D01*
X102966666Y-118292380D01*
X103109523Y-118340000D01*
X103157142Y-118387619D01*
X104109523Y-119292380D02*
X103538095Y-119292380D01*
X103823809Y-119292380D02*
X103823809Y-118292380D01*
X103728571Y-118435238D01*
X103633333Y-118530476D01*
X103538095Y-118578095D01*
X104728571Y-118292380D02*
X104823809Y-118292380D01*
X104919047Y-118340000D01*
X104966666Y-118387619D01*
X105014285Y-118482857D01*
X105061904Y-118673333D01*
X105061904Y-118911428D01*
X105014285Y-119101904D01*
X104966666Y-119197142D01*
X104919047Y-119244761D01*
X104823809Y-119292380D01*
X104728571Y-119292380D01*
X104633333Y-119244761D01*
X104585714Y-119197142D01*
X104538095Y-119101904D01*
X104490476Y-118911428D01*
X104490476Y-118673333D01*
X104538095Y-118482857D01*
X104585714Y-118387619D01*
X104633333Y-118340000D01*
X104728571Y-118292380D01*
X108842142Y-120294142D02*
X108794523Y-120341761D01*
X108651666Y-120389380D01*
X108556428Y-120389380D01*
X108413571Y-120341761D01*
X108318333Y-120246523D01*
X108270714Y-120151285D01*
X108223095Y-119960809D01*
X108223095Y-119817952D01*
X108270714Y-119627476D01*
X108318333Y-119532238D01*
X108413571Y-119437000D01*
X108556428Y-119389380D01*
X108651666Y-119389380D01*
X108794523Y-119437000D01*
X108842142Y-119484619D01*
X109794523Y-120389380D02*
X109223095Y-120389380D01*
X109508809Y-120389380D02*
X109508809Y-119389380D01*
X109413571Y-119532238D01*
X109318333Y-119627476D01*
X109223095Y-119675095D01*
X110175476Y-119484619D02*
X110223095Y-119437000D01*
X110318333Y-119389380D01*
X110556428Y-119389380D01*
X110651666Y-119437000D01*
X110699285Y-119484619D01*
X110746904Y-119579857D01*
X110746904Y-119675095D01*
X110699285Y-119817952D01*
X110127857Y-120389380D01*
X110746904Y-120389380D01*
X99633342Y-97857142D02*
X99585723Y-97904761D01*
X99442866Y-97952380D01*
X99347628Y-97952380D01*
X99204771Y-97904761D01*
X99109533Y-97809523D01*
X99061914Y-97714285D01*
X99014295Y-97523809D01*
X99014295Y-97380952D01*
X99061914Y-97190476D01*
X99109533Y-97095238D01*
X99204771Y-97000000D01*
X99347628Y-96952380D01*
X99442866Y-96952380D01*
X99585723Y-97000000D01*
X99633342Y-97047619D01*
X100585723Y-97952380D02*
X100014295Y-97952380D01*
X100300009Y-97952380D02*
X100300009Y-96952380D01*
X100204771Y-97095238D01*
X100109533Y-97190476D01*
X100014295Y-97238095D01*
X101442866Y-97285714D02*
X101442866Y-97952380D01*
X101204771Y-96904761D02*
X100966676Y-97619047D01*
X101585723Y-97619047D01*
X116536742Y-100033057D02*
X116584361Y-100080676D01*
X116631980Y-100223533D01*
X116631980Y-100318771D01*
X116584361Y-100461628D01*
X116489123Y-100556866D01*
X116393885Y-100604485D01*
X116203409Y-100652104D01*
X116060552Y-100652104D01*
X115870076Y-100604485D01*
X115774838Y-100556866D01*
X115679600Y-100461628D01*
X115631980Y-100318771D01*
X115631980Y-100223533D01*
X115679600Y-100080676D01*
X115727219Y-100033057D01*
X115727219Y-99652104D02*
X115679600Y-99604485D01*
X115631980Y-99509247D01*
X115631980Y-99271152D01*
X115679600Y-99175914D01*
X115727219Y-99128295D01*
X115822457Y-99080676D01*
X115917695Y-99080676D01*
X116060552Y-99128295D01*
X116631980Y-99699723D01*
X116631980Y-99080676D01*
X115631980Y-98747342D02*
X115631980Y-98080676D01*
X116631980Y-98509247D01*
X114860342Y-100033057D02*
X114907961Y-100080676D01*
X114955580Y-100223533D01*
X114955580Y-100318771D01*
X114907961Y-100461628D01*
X114812723Y-100556866D01*
X114717485Y-100604485D01*
X114527009Y-100652104D01*
X114384152Y-100652104D01*
X114193676Y-100604485D01*
X114098438Y-100556866D01*
X114003200Y-100461628D01*
X113955580Y-100318771D01*
X113955580Y-100223533D01*
X114003200Y-100080676D01*
X114050819Y-100033057D01*
X113955580Y-99699723D02*
X113955580Y-99080676D01*
X114336533Y-99414009D01*
X114336533Y-99271152D01*
X114384152Y-99175914D01*
X114431771Y-99128295D01*
X114527009Y-99080676D01*
X114765104Y-99080676D01*
X114860342Y-99128295D01*
X114907961Y-99175914D01*
X114955580Y-99271152D01*
X114955580Y-99556866D01*
X114907961Y-99652104D01*
X114860342Y-99699723D01*
X113955580Y-98461628D02*
X113955580Y-98366390D01*
X114003200Y-98271152D01*
X114050819Y-98223533D01*
X114146057Y-98175914D01*
X114336533Y-98128295D01*
X114574628Y-98128295D01*
X114765104Y-98175914D01*
X114860342Y-98223533D01*
X114907961Y-98271152D01*
X114955580Y-98366390D01*
X114955580Y-98461628D01*
X114907961Y-98556866D01*
X114860342Y-98604485D01*
X114765104Y-98652104D01*
X114574628Y-98699723D01*
X114336533Y-98699723D01*
X114146057Y-98652104D01*
X114050819Y-98604485D01*
X114003200Y-98556866D01*
X113955580Y-98461628D01*
X120143542Y-100058457D02*
X120191161Y-100106076D01*
X120238780Y-100248933D01*
X120238780Y-100344171D01*
X120191161Y-100487028D01*
X120095923Y-100582266D01*
X120000685Y-100629885D01*
X119810209Y-100677504D01*
X119667352Y-100677504D01*
X119476876Y-100629885D01*
X119381638Y-100582266D01*
X119286400Y-100487028D01*
X119238780Y-100344171D01*
X119238780Y-100248933D01*
X119286400Y-100106076D01*
X119334019Y-100058457D01*
X119238780Y-99725123D02*
X119238780Y-99106076D01*
X119619733Y-99439409D01*
X119619733Y-99296552D01*
X119667352Y-99201314D01*
X119714971Y-99153695D01*
X119810209Y-99106076D01*
X120048304Y-99106076D01*
X120143542Y-99153695D01*
X120191161Y-99201314D01*
X120238780Y-99296552D01*
X120238780Y-99582266D01*
X120191161Y-99677504D01*
X120143542Y-99725123D01*
X120238780Y-98153695D02*
X120238780Y-98725123D01*
X120238780Y-98439409D02*
X119238780Y-98439409D01*
X119381638Y-98534647D01*
X119476876Y-98629885D01*
X119524495Y-98725123D01*
X118619542Y-100058457D02*
X118667161Y-100106076D01*
X118714780Y-100248933D01*
X118714780Y-100344171D01*
X118667161Y-100487028D01*
X118571923Y-100582266D01*
X118476685Y-100629885D01*
X118286209Y-100677504D01*
X118143352Y-100677504D01*
X117952876Y-100629885D01*
X117857638Y-100582266D01*
X117762400Y-100487028D01*
X117714780Y-100344171D01*
X117714780Y-100248933D01*
X117762400Y-100106076D01*
X117810019Y-100058457D01*
X117714780Y-99725123D02*
X117714780Y-99106076D01*
X118095733Y-99439409D01*
X118095733Y-99296552D01*
X118143352Y-99201314D01*
X118190971Y-99153695D01*
X118286209Y-99106076D01*
X118524304Y-99106076D01*
X118619542Y-99153695D01*
X118667161Y-99201314D01*
X118714780Y-99296552D01*
X118714780Y-99582266D01*
X118667161Y-99677504D01*
X118619542Y-99725123D01*
X117714780Y-98772742D02*
X117714780Y-98153695D01*
X118095733Y-98487028D01*
X118095733Y-98344171D01*
X118143352Y-98248933D01*
X118190971Y-98201314D01*
X118286209Y-98153695D01*
X118524304Y-98153695D01*
X118619542Y-98201314D01*
X118667161Y-98248933D01*
X118714780Y-98344171D01*
X118714780Y-98629885D01*
X118667161Y-98725123D01*
X118619542Y-98772742D01*
X116501942Y-119813342D02*
X116454323Y-119860961D01*
X116311466Y-119908580D01*
X116216228Y-119908580D01*
X116073371Y-119860961D01*
X115978133Y-119765723D01*
X115930514Y-119670485D01*
X115882895Y-119480009D01*
X115882895Y-119337152D01*
X115930514Y-119146676D01*
X115978133Y-119051438D01*
X116073371Y-118956200D01*
X116216228Y-118908580D01*
X116311466Y-118908580D01*
X116454323Y-118956200D01*
X116501942Y-119003819D01*
X116835276Y-118908580D02*
X117454323Y-118908580D01*
X117120990Y-119289533D01*
X117263847Y-119289533D01*
X117359085Y-119337152D01*
X117406704Y-119384771D01*
X117454323Y-119480009D01*
X117454323Y-119718104D01*
X117406704Y-119813342D01*
X117359085Y-119860961D01*
X117263847Y-119908580D01*
X116978133Y-119908580D01*
X116882895Y-119860961D01*
X116835276Y-119813342D01*
X118359085Y-118908580D02*
X117882895Y-118908580D01*
X117835276Y-119384771D01*
X117882895Y-119337152D01*
X117978133Y-119289533D01*
X118216228Y-119289533D01*
X118311466Y-119337152D01*
X118359085Y-119384771D01*
X118406704Y-119480009D01*
X118406704Y-119718104D01*
X118359085Y-119813342D01*
X118311466Y-119860961D01*
X118216228Y-119908580D01*
X117978133Y-119908580D01*
X117882895Y-119860961D01*
X117835276Y-119813342D01*
X114723942Y-109780342D02*
X114676323Y-109827961D01*
X114533466Y-109875580D01*
X114438228Y-109875580D01*
X114295371Y-109827961D01*
X114200133Y-109732723D01*
X114152514Y-109637485D01*
X114104895Y-109447009D01*
X114104895Y-109304152D01*
X114152514Y-109113676D01*
X114200133Y-109018438D01*
X114295371Y-108923200D01*
X114438228Y-108875580D01*
X114533466Y-108875580D01*
X114676323Y-108923200D01*
X114723942Y-108970819D01*
X115057276Y-108875580D02*
X115676323Y-108875580D01*
X115342990Y-109256533D01*
X115485847Y-109256533D01*
X115581085Y-109304152D01*
X115628704Y-109351771D01*
X115676323Y-109447009D01*
X115676323Y-109685104D01*
X115628704Y-109780342D01*
X115581085Y-109827961D01*
X115485847Y-109875580D01*
X115200133Y-109875580D01*
X115104895Y-109827961D01*
X115057276Y-109780342D01*
X116533466Y-108875580D02*
X116342990Y-108875580D01*
X116247752Y-108923200D01*
X116200133Y-108970819D01*
X116104895Y-109113676D01*
X116057276Y-109304152D01*
X116057276Y-109685104D01*
X116104895Y-109780342D01*
X116152514Y-109827961D01*
X116247752Y-109875580D01*
X116438228Y-109875580D01*
X116533466Y-109827961D01*
X116581085Y-109780342D01*
X116628704Y-109685104D01*
X116628704Y-109447009D01*
X116581085Y-109351771D01*
X116533466Y-109304152D01*
X116438228Y-109256533D01*
X116247752Y-109256533D01*
X116152514Y-109304152D01*
X116104895Y-109351771D01*
X116057276Y-109447009D01*
X95633333Y-92652380D02*
X95300000Y-92176190D01*
X95061904Y-92652380D02*
X95061904Y-91652380D01*
X95442857Y-91652380D01*
X95538095Y-91700000D01*
X95585714Y-91747619D01*
X95633333Y-91842857D01*
X95633333Y-91985714D01*
X95585714Y-92080952D01*
X95538095Y-92128571D01*
X95442857Y-92176190D01*
X95061904Y-92176190D01*
X96585714Y-92652380D02*
X96014285Y-92652380D01*
X96300000Y-92652380D02*
X96300000Y-91652380D01*
X96204761Y-91795238D01*
X96109523Y-91890476D01*
X96014285Y-91938095D01*
X95633333Y-94152380D02*
X95300000Y-93676190D01*
X95061904Y-94152380D02*
X95061904Y-93152380D01*
X95442857Y-93152380D01*
X95538095Y-93200000D01*
X95585714Y-93247619D01*
X95633333Y-93342857D01*
X95633333Y-93485714D01*
X95585714Y-93580952D01*
X95538095Y-93628571D01*
X95442857Y-93676190D01*
X95061904Y-93676190D01*
X96014285Y-93247619D02*
X96061904Y-93200000D01*
X96157142Y-93152380D01*
X96395238Y-93152380D01*
X96490476Y-93200000D01*
X96538095Y-93247619D01*
X96585714Y-93342857D01*
X96585714Y-93438095D01*
X96538095Y-93580952D01*
X95966666Y-94152380D01*
X96585714Y-94152380D01*
X104033333Y-114452380D02*
X103700000Y-113976190D01*
X103461904Y-114452380D02*
X103461904Y-113452380D01*
X103842857Y-113452380D01*
X103938095Y-113500000D01*
X103985714Y-113547619D01*
X104033333Y-113642857D01*
X104033333Y-113785714D01*
X103985714Y-113880952D01*
X103938095Y-113928571D01*
X103842857Y-113976190D01*
X103461904Y-113976190D01*
X104890476Y-113452380D02*
X104700000Y-113452380D01*
X104604761Y-113500000D01*
X104557142Y-113547619D01*
X104461904Y-113690476D01*
X104414285Y-113880952D01*
X104414285Y-114261904D01*
X104461904Y-114357142D01*
X104509523Y-114404761D01*
X104604761Y-114452380D01*
X104795238Y-114452380D01*
X104890476Y-114404761D01*
X104938095Y-114357142D01*
X104985714Y-114261904D01*
X104985714Y-114023809D01*
X104938095Y-113928571D01*
X104890476Y-113880952D01*
X104795238Y-113833333D01*
X104604761Y-113833333D01*
X104509523Y-113880952D01*
X104461904Y-113928571D01*
X104414285Y-114023809D01*
X108733333Y-114352380D02*
X108400000Y-113876190D01*
X108161904Y-114352380D02*
X108161904Y-113352380D01*
X108542857Y-113352380D01*
X108638095Y-113400000D01*
X108685714Y-113447619D01*
X108733333Y-113542857D01*
X108733333Y-113685714D01*
X108685714Y-113780952D01*
X108638095Y-113828571D01*
X108542857Y-113876190D01*
X108161904Y-113876190D01*
X109304761Y-113780952D02*
X109209523Y-113733333D01*
X109161904Y-113685714D01*
X109114285Y-113590476D01*
X109114285Y-113542857D01*
X109161904Y-113447619D01*
X109209523Y-113400000D01*
X109304761Y-113352380D01*
X109495238Y-113352380D01*
X109590476Y-113400000D01*
X109638095Y-113447619D01*
X109685714Y-113542857D01*
X109685714Y-113590476D01*
X109638095Y-113685714D01*
X109590476Y-113733333D01*
X109495238Y-113780952D01*
X109304761Y-113780952D01*
X109209523Y-113828571D01*
X109161904Y-113876190D01*
X109114285Y-113971428D01*
X109114285Y-114161904D01*
X109161904Y-114257142D01*
X109209523Y-114304761D01*
X109304761Y-114352380D01*
X109495238Y-114352380D01*
X109590476Y-114304761D01*
X109638095Y-114257142D01*
X109685714Y-114161904D01*
X109685714Y-113971428D01*
X109638095Y-113876190D01*
X109590476Y-113828571D01*
X109495238Y-113780952D01*
X171829504Y-119197380D02*
X171829504Y-118197380D01*
X172067600Y-118197380D01*
X172210457Y-118245000D01*
X172305695Y-118340238D01*
X172353314Y-118435476D01*
X172400933Y-118625952D01*
X172400933Y-118768809D01*
X172353314Y-118959285D01*
X172305695Y-119054523D01*
X172210457Y-119149761D01*
X172067600Y-119197380D01*
X171829504Y-119197380D01*
X173258076Y-118530714D02*
X173258076Y-119197380D01*
X173019980Y-118149761D02*
X172781885Y-118864047D01*
X173400933Y-118864047D01*
X174394904Y-119248180D02*
X174394904Y-118248180D01*
X174633000Y-118248180D01*
X174775857Y-118295800D01*
X174871095Y-118391038D01*
X174918714Y-118486276D01*
X174966333Y-118676752D01*
X174966333Y-118819609D01*
X174918714Y-119010085D01*
X174871095Y-119105323D01*
X174775857Y-119200561D01*
X174633000Y-119248180D01*
X174394904Y-119248180D01*
X175823476Y-118248180D02*
X175633000Y-118248180D01*
X175537761Y-118295800D01*
X175490142Y-118343419D01*
X175394904Y-118486276D01*
X175347285Y-118676752D01*
X175347285Y-119057704D01*
X175394904Y-119152942D01*
X175442523Y-119200561D01*
X175537761Y-119248180D01*
X175728238Y-119248180D01*
X175823476Y-119200561D01*
X175871095Y-119152942D01*
X175918714Y-119057704D01*
X175918714Y-118819609D01*
X175871095Y-118724371D01*
X175823476Y-118676752D01*
X175728238Y-118629133D01*
X175537761Y-118629133D01*
X175442523Y-118676752D01*
X175394904Y-118724371D01*
X175347285Y-118819609D01*
%LPC*%
G36*
G01*
X165100000Y-98849000D02*
X170100000Y-98849000D01*
G75*
G02*
X170151000Y-98900000I0J-51000D01*
G01*
X170151000Y-103900000D01*
G75*
G02*
X170100000Y-103951000I-51000J0D01*
G01*
X165100000Y-103951000D01*
G75*
G02*
X165049000Y-103900000I0J51000D01*
G01*
X165049000Y-98900000D01*
G75*
G02*
X165100000Y-98849000I51000J0D01*
G01*
G37*
G36*
G01*
X165100000Y-114849000D02*
X170100000Y-114849000D01*
G75*
G02*
X170151000Y-114900000I0J-51000D01*
G01*
X170151000Y-119900000D01*
G75*
G02*
X170100000Y-119951000I-51000J0D01*
G01*
X165100000Y-119951000D01*
G75*
G02*
X165049000Y-119900000I0J51000D01*
G01*
X165049000Y-114900000D01*
G75*
G02*
X165100000Y-114849000I51000J0D01*
G01*
G37*
G36*
G01*
X125100000Y-98849000D02*
X130100000Y-98849000D01*
G75*
G02*
X130151000Y-98900000I0J-51000D01*
G01*
X130151000Y-103900000D01*
G75*
G02*
X130100000Y-103951000I-51000J0D01*
G01*
X125100000Y-103951000D01*
G75*
G02*
X125049000Y-103900000I0J51000D01*
G01*
X125049000Y-98900000D01*
G75*
G02*
X125100000Y-98849000I51000J0D01*
G01*
G37*
G36*
G01*
X125100000Y-114849000D02*
X130100000Y-114849000D01*
G75*
G02*
X130151000Y-114900000I0J-51000D01*
G01*
X130151000Y-119900000D01*
G75*
G02*
X130100000Y-119951000I-51000J0D01*
G01*
X125100000Y-119951000D01*
G75*
G02*
X125049000Y-119900000I0J51000D01*
G01*
X125049000Y-114900000D01*
G75*
G02*
X125100000Y-114849000I51000J0D01*
G01*
G37*
G36*
G01*
X151600000Y-98549000D02*
X155600000Y-98549000D01*
G75*
G02*
X158151000Y-101100000I0J-2551000D01*
G01*
X158151000Y-101100000D01*
G75*
G02*
X155600000Y-103651000I-2551000J0D01*
G01*
X151600000Y-103651000D01*
G75*
G02*
X149049000Y-101100000I0J2551000D01*
G01*
X149049000Y-101100000D01*
G75*
G02*
X151600000Y-98549000I2551000J0D01*
G01*
G37*
G36*
G01*
X113745201Y-117291400D02*
X112545199Y-117291400D01*
G75*
G02*
X112494200Y-117240401I0J50999D01*
G01*
X112494200Y-115840399D01*
G75*
G02*
X112545199Y-115789400I50999J0D01*
G01*
X113745201Y-115789400D01*
G75*
G02*
X113796200Y-115840399I0J-50999D01*
G01*
X113796200Y-117240401D01*
G75*
G02*
X113745201Y-117291400I-50999J0D01*
G01*
G37*
G36*
G01*
X113745201Y-115091400D02*
X112545199Y-115091400D01*
G75*
G02*
X112494200Y-115040401I0J50999D01*
G01*
X112494200Y-113640399D01*
G75*
G02*
X112545199Y-113589400I50999J0D01*
G01*
X113745201Y-113589400D01*
G75*
G02*
X113796200Y-113640399I0J-50999D01*
G01*
X113796200Y-115040401D01*
G75*
G02*
X113745201Y-115091400I-50999J0D01*
G01*
G37*
G36*
G01*
X115445201Y-115091400D02*
X114245199Y-115091400D01*
G75*
G02*
X114194200Y-115040401I0J50999D01*
G01*
X114194200Y-113640399D01*
G75*
G02*
X114245199Y-113589400I50999J0D01*
G01*
X115445201Y-113589400D01*
G75*
G02*
X115496200Y-113640399I0J-50999D01*
G01*
X115496200Y-115040401D01*
G75*
G02*
X115445201Y-115091400I-50999J0D01*
G01*
G37*
G36*
G01*
X115445201Y-117291400D02*
X114245199Y-117291400D01*
G75*
G02*
X114194200Y-117240401I0J50999D01*
G01*
X114194200Y-115840399D01*
G75*
G02*
X114245199Y-115789400I50999J0D01*
G01*
X115445201Y-115789400D01*
G75*
G02*
X115496200Y-115840399I0J-50999D01*
G01*
X115496200Y-117240401D01*
G75*
G02*
X115445201Y-117291400I-50999J0D01*
G01*
G37*
G36*
G01*
X125052000Y-94937000D02*
X126752000Y-94937000D01*
G75*
G02*
X126803000Y-94988000I0J-51000D01*
G01*
X126803000Y-96688000D01*
G75*
G02*
X126752000Y-96739000I-51000J0D01*
G01*
X125052000Y-96739000D01*
G75*
G02*
X125001000Y-96688000I0J51000D01*
G01*
X125001000Y-94988000D01*
G75*
G02*
X125052000Y-94937000I51000J0D01*
G01*
G37*
D13*
X125902000Y-93298000D03*
X128442000Y-95838000D03*
X128442000Y-93298000D03*
X130982000Y-95838000D03*
X130982000Y-93298000D03*
X133522000Y-95838000D03*
X133522000Y-93298000D03*
X136062000Y-95838000D03*
X136062000Y-93298000D03*
X138602000Y-95838000D03*
X138602000Y-93298000D03*
X141142000Y-95838000D03*
X141142000Y-93298000D03*
X143682000Y-95838000D03*
X143682000Y-93298000D03*
X146222000Y-95838000D03*
X146222000Y-93298000D03*
X148762000Y-95838000D03*
X148762000Y-93298000D03*
X151302000Y-95838000D03*
X151302000Y-93298000D03*
X153842000Y-95838000D03*
X153842000Y-93298000D03*
X156382000Y-95838000D03*
X156382000Y-93298000D03*
X158922000Y-95838000D03*
X158922000Y-93298000D03*
X161462000Y-95838000D03*
X161462000Y-93298000D03*
X164002000Y-95838000D03*
X164002000Y-93298000D03*
X166542000Y-95838000D03*
X166542000Y-93298000D03*
X169082000Y-95838000D03*
X169082000Y-93298000D03*
X171622000Y-95838000D03*
X171622000Y-93298000D03*
X174162000Y-95838000D03*
X174162000Y-93298000D03*
G36*
G01*
X111701000Y-110133000D02*
X111701000Y-110893000D01*
G75*
G02*
X111650000Y-110944000I-51000J0D01*
G01*
X109950000Y-110944000D01*
G75*
G02*
X109899000Y-110893000I0J51000D01*
G01*
X109899000Y-110133000D01*
G75*
G02*
X109950000Y-110082000I51000J0D01*
G01*
X111650000Y-110082000D01*
G75*
G02*
X111701000Y-110133000I0J-51000D01*
G01*
G37*
G36*
G01*
X111701000Y-108863000D02*
X111701000Y-109623000D01*
G75*
G02*
X111650000Y-109674000I-51000J0D01*
G01*
X109950000Y-109674000D01*
G75*
G02*
X109899000Y-109623000I0J51000D01*
G01*
X109899000Y-108863000D01*
G75*
G02*
X109950000Y-108812000I51000J0D01*
G01*
X111650000Y-108812000D01*
G75*
G02*
X111701000Y-108863000I0J-51000D01*
G01*
G37*
G36*
G01*
X111701000Y-107593000D02*
X111701000Y-108353000D01*
G75*
G02*
X111650000Y-108404000I-51000J0D01*
G01*
X109950000Y-108404000D01*
G75*
G02*
X109899000Y-108353000I0J51000D01*
G01*
X109899000Y-107593000D01*
G75*
G02*
X109950000Y-107542000I51000J0D01*
G01*
X111650000Y-107542000D01*
G75*
G02*
X111701000Y-107593000I0J-51000D01*
G01*
G37*
G36*
G01*
X111701000Y-106323000D02*
X111701000Y-107083000D01*
G75*
G02*
X111650000Y-107134000I-51000J0D01*
G01*
X109950000Y-107134000D01*
G75*
G02*
X109899000Y-107083000I0J51000D01*
G01*
X109899000Y-106323000D01*
G75*
G02*
X109950000Y-106272000I51000J0D01*
G01*
X111650000Y-106272000D01*
G75*
G02*
X111701000Y-106323000I0J-51000D01*
G01*
G37*
G36*
G01*
X111701000Y-102513000D02*
X111701000Y-103273000D01*
G75*
G02*
X111650000Y-103324000I-51000J0D01*
G01*
X109950000Y-103324000D01*
G75*
G02*
X109899000Y-103273000I0J51000D01*
G01*
X109899000Y-102513000D01*
G75*
G02*
X109950000Y-102462000I51000J0D01*
G01*
X111650000Y-102462000D01*
G75*
G02*
X111701000Y-102513000I0J-51000D01*
G01*
G37*
G36*
G01*
X111701000Y-105053000D02*
X111701000Y-105813000D01*
G75*
G02*
X111650000Y-105864000I-51000J0D01*
G01*
X109950000Y-105864000D01*
G75*
G02*
X109899000Y-105813000I0J51000D01*
G01*
X109899000Y-105053000D01*
G75*
G02*
X109950000Y-105002000I51000J0D01*
G01*
X111650000Y-105002000D01*
G75*
G02*
X111701000Y-105053000I0J-51000D01*
G01*
G37*
G36*
G01*
X111701000Y-103783000D02*
X111701000Y-104543000D01*
G75*
G02*
X111650000Y-104594000I-51000J0D01*
G01*
X109950000Y-104594000D01*
G75*
G02*
X109899000Y-104543000I0J51000D01*
G01*
X109899000Y-103783000D01*
G75*
G02*
X109950000Y-103732000I51000J0D01*
G01*
X111650000Y-103732000D01*
G75*
G02*
X111701000Y-103783000I0J-51000D01*
G01*
G37*
G36*
G01*
X111701000Y-101243000D02*
X111701000Y-102003000D01*
G75*
G02*
X111650000Y-102054000I-51000J0D01*
G01*
X109950000Y-102054000D01*
G75*
G02*
X109899000Y-102003000I0J51000D01*
G01*
X109899000Y-101243000D01*
G75*
G02*
X109950000Y-101192000I51000J0D01*
G01*
X111650000Y-101192000D01*
G75*
G02*
X111701000Y-101243000I0J-51000D01*
G01*
G37*
G36*
G01*
X102901000Y-107593000D02*
X102901000Y-108353000D01*
G75*
G02*
X102850000Y-108404000I-51000J0D01*
G01*
X101150000Y-108404000D01*
G75*
G02*
X101099000Y-108353000I0J51000D01*
G01*
X101099000Y-107593000D01*
G75*
G02*
X101150000Y-107542000I51000J0D01*
G01*
X102850000Y-107542000D01*
G75*
G02*
X102901000Y-107593000I0J-51000D01*
G01*
G37*
G36*
G01*
X102901000Y-103783000D02*
X102901000Y-104543000D01*
G75*
G02*
X102850000Y-104594000I-51000J0D01*
G01*
X101150000Y-104594000D01*
G75*
G02*
X101099000Y-104543000I0J51000D01*
G01*
X101099000Y-103783000D01*
G75*
G02*
X101150000Y-103732000I51000J0D01*
G01*
X102850000Y-103732000D01*
G75*
G02*
X102901000Y-103783000I0J-51000D01*
G01*
G37*
G36*
G01*
X102901000Y-101243000D02*
X102901000Y-102003000D01*
G75*
G02*
X102850000Y-102054000I-51000J0D01*
G01*
X101150000Y-102054000D01*
G75*
G02*
X101099000Y-102003000I0J51000D01*
G01*
X101099000Y-101243000D01*
G75*
G02*
X101150000Y-101192000I51000J0D01*
G01*
X102850000Y-101192000D01*
G75*
G02*
X102901000Y-101243000I0J-51000D01*
G01*
G37*
G36*
G01*
X102901000Y-108863000D02*
X102901000Y-109623000D01*
G75*
G02*
X102850000Y-109674000I-51000J0D01*
G01*
X101150000Y-109674000D01*
G75*
G02*
X101099000Y-109623000I0J51000D01*
G01*
X101099000Y-108863000D01*
G75*
G02*
X101150000Y-108812000I51000J0D01*
G01*
X102850000Y-108812000D01*
G75*
G02*
X102901000Y-108863000I0J-51000D01*
G01*
G37*
G36*
G01*
X102901000Y-102513000D02*
X102901000Y-103273000D01*
G75*
G02*
X102850000Y-103324000I-51000J0D01*
G01*
X101150000Y-103324000D01*
G75*
G02*
X101099000Y-103273000I0J51000D01*
G01*
X101099000Y-102513000D01*
G75*
G02*
X101150000Y-102462000I51000J0D01*
G01*
X102850000Y-102462000D01*
G75*
G02*
X102901000Y-102513000I0J-51000D01*
G01*
G37*
G36*
G01*
X102901000Y-106323000D02*
X102901000Y-107083000D01*
G75*
G02*
X102850000Y-107134000I-51000J0D01*
G01*
X101150000Y-107134000D01*
G75*
G02*
X101099000Y-107083000I0J51000D01*
G01*
X101099000Y-106323000D01*
G75*
G02*
X101150000Y-106272000I51000J0D01*
G01*
X102850000Y-106272000D01*
G75*
G02*
X102901000Y-106323000I0J-51000D01*
G01*
G37*
G36*
G01*
X102901000Y-110133000D02*
X102901000Y-110893000D01*
G75*
G02*
X102850000Y-110944000I-51000J0D01*
G01*
X101150000Y-110944000D01*
G75*
G02*
X101099000Y-110893000I0J51000D01*
G01*
X101099000Y-110133000D01*
G75*
G02*
X101150000Y-110082000I51000J0D01*
G01*
X102850000Y-110082000D01*
G75*
G02*
X102901000Y-110133000I0J-51000D01*
G01*
G37*
G36*
G01*
X102901000Y-105053000D02*
X102901000Y-105813000D01*
G75*
G02*
X102850000Y-105864000I-51000J0D01*
G01*
X101150000Y-105864000D01*
G75*
G02*
X101099000Y-105813000I0J51000D01*
G01*
X101099000Y-105053000D01*
G75*
G02*
X101150000Y-105002000I51000J0D01*
G01*
X102850000Y-105002000D01*
G75*
G02*
X102901000Y-105053000I0J-51000D01*
G01*
G37*
D14*
X121032000Y-94568000D03*
X179032000Y-94568000D03*
X179032000Y-117568000D03*
X121032000Y-117568000D03*
D15*
X179332000Y-109368000D03*
D16*
X179332000Y-106828000D03*
G36*
G01*
X91282000Y-110429000D02*
X89782000Y-110429000D01*
G75*
G02*
X89731000Y-110378000I0J51000D01*
G01*
X89731000Y-108878000D01*
G75*
G02*
X89782000Y-108827000I51000J0D01*
G01*
X91282000Y-108827000D01*
G75*
G02*
X91333000Y-108878000I0J-51000D01*
G01*
X91333000Y-110378000D01*
G75*
G02*
X91282000Y-110429000I-51000J0D01*
G01*
G37*
D17*
X90532000Y-107596000D03*
X90532000Y-105564000D03*
X90532000Y-103532000D03*
X92312000Y-108612000D03*
X92312000Y-106580000D03*
X92312000Y-104548000D03*
X92312000Y-102516000D03*
D18*
X87992000Y-112418000D03*
X87992000Y-99718000D03*
D19*
X91422000Y-97938000D03*
X91422000Y-114198000D03*
D17*
X97132000Y-112928000D03*
X97132000Y-110638000D03*
X97132000Y-101498000D03*
X97132000Y-99208000D03*
D13*
X180652000Y-103068000D03*
X178112000Y-103068000D03*
X175572000Y-103068000D03*
G36*
G01*
X173882000Y-103969000D02*
X172182000Y-103969000D01*
G75*
G02*
X172131000Y-103918000I0J51000D01*
G01*
X172131000Y-102218000D01*
G75*
G02*
X172182000Y-102167000I51000J0D01*
G01*
X173882000Y-102167000D01*
G75*
G02*
X173933000Y-102218000I0J-51000D01*
G01*
X173933000Y-103918000D01*
G75*
G02*
X173882000Y-103969000I-51000J0D01*
G01*
G37*
G36*
G01*
X173882000Y-100369000D02*
X172182000Y-100369000D01*
G75*
G02*
X172131000Y-100318000I0J51000D01*
G01*
X172131000Y-98618000D01*
G75*
G02*
X172182000Y-98567000I51000J0D01*
G01*
X173882000Y-98567000D01*
G75*
G02*
X173933000Y-98618000I0J-51000D01*
G01*
X173933000Y-100318000D01*
G75*
G02*
X173882000Y-100369000I-51000J0D01*
G01*
G37*
X175572000Y-99468000D03*
X178112000Y-99468000D03*
X180652000Y-99468000D03*
D20*
X155220000Y-119616296D03*
X162220000Y-119616296D03*
D21*
X156220000Y-116916296D03*
X161220000Y-116916296D03*
G36*
G01*
X105636500Y-115321000D02*
X106027500Y-115321000D01*
G75*
G02*
X106193000Y-115486500I0J-165500D01*
G01*
X106193000Y-115817500D01*
G75*
G02*
X106027500Y-115983000I-165500J0D01*
G01*
X105636500Y-115983000D01*
G75*
G02*
X105471000Y-115817500I0J165500D01*
G01*
X105471000Y-115486500D01*
G75*
G02*
X105636500Y-115321000I165500J0D01*
G01*
G37*
G36*
G01*
X105636500Y-116281000D02*
X106027500Y-116281000D01*
G75*
G02*
X106193000Y-116446500I0J-165500D01*
G01*
X106193000Y-116777500D01*
G75*
G02*
X106027500Y-116943000I-165500J0D01*
G01*
X105636500Y-116943000D01*
G75*
G02*
X105471000Y-116777500I0J165500D01*
G01*
X105471000Y-116446500D01*
G75*
G02*
X105636500Y-116281000I165500J0D01*
G01*
G37*
G36*
G01*
X106404500Y-118481000D02*
X106795500Y-118481000D01*
G75*
G02*
X106961000Y-118646500I0J-165500D01*
G01*
X106961000Y-118977500D01*
G75*
G02*
X106795500Y-119143000I-165500J0D01*
G01*
X106404500Y-119143000D01*
G75*
G02*
X106239000Y-118977500I0J165500D01*
G01*
X106239000Y-118646500D01*
G75*
G02*
X106404500Y-118481000I165500J0D01*
G01*
G37*
G36*
G01*
X106404500Y-117521000D02*
X106795500Y-117521000D01*
G75*
G02*
X106961000Y-117686500I0J-165500D01*
G01*
X106961000Y-118017500D01*
G75*
G02*
X106795500Y-118183000I-165500J0D01*
G01*
X106404500Y-118183000D01*
G75*
G02*
X106239000Y-118017500I0J165500D01*
G01*
X106239000Y-117686500D01*
G75*
G02*
X106404500Y-117521000I165500J0D01*
G01*
G37*
G36*
G01*
X107136500Y-116281000D02*
X107527500Y-116281000D01*
G75*
G02*
X107693000Y-116446500I0J-165500D01*
G01*
X107693000Y-116777500D01*
G75*
G02*
X107527500Y-116943000I-165500J0D01*
G01*
X107136500Y-116943000D01*
G75*
G02*
X106971000Y-116777500I0J165500D01*
G01*
X106971000Y-116446500D01*
G75*
G02*
X107136500Y-116281000I165500J0D01*
G01*
G37*
G36*
G01*
X107136500Y-115321000D02*
X107527500Y-115321000D01*
G75*
G02*
X107693000Y-115486500I0J-165500D01*
G01*
X107693000Y-115817500D01*
G75*
G02*
X107527500Y-115983000I-165500J0D01*
G01*
X107136500Y-115983000D01*
G75*
G02*
X106971000Y-115817500I0J165500D01*
G01*
X106971000Y-115486500D01*
G75*
G02*
X107136500Y-115321000I165500J0D01*
G01*
G37*
G36*
G01*
X103949000Y-120195500D02*
X103949000Y-119804500D01*
G75*
G02*
X104114500Y-119639000I165500J0D01*
G01*
X104445500Y-119639000D01*
G75*
G02*
X104611000Y-119804500I0J-165500D01*
G01*
X104611000Y-120195500D01*
G75*
G02*
X104445500Y-120361000I-165500J0D01*
G01*
X104114500Y-120361000D01*
G75*
G02*
X103949000Y-120195500I0J165500D01*
G01*
G37*
G36*
G01*
X102989000Y-120195500D02*
X102989000Y-119804500D01*
G75*
G02*
X103154500Y-119639000I165500J0D01*
G01*
X103485500Y-119639000D01*
G75*
G02*
X103651000Y-119804500I0J-165500D01*
G01*
X103651000Y-120195500D01*
G75*
G02*
X103485500Y-120361000I-165500J0D01*
G01*
X103154500Y-120361000D01*
G75*
G02*
X102989000Y-120195500I0J165500D01*
G01*
G37*
G36*
G01*
X109278500Y-117521000D02*
X109669500Y-117521000D01*
G75*
G02*
X109835000Y-117686500I0J-165500D01*
G01*
X109835000Y-118017500D01*
G75*
G02*
X109669500Y-118183000I-165500J0D01*
G01*
X109278500Y-118183000D01*
G75*
G02*
X109113000Y-118017500I0J165500D01*
G01*
X109113000Y-117686500D01*
G75*
G02*
X109278500Y-117521000I165500J0D01*
G01*
G37*
G36*
G01*
X109278500Y-118481000D02*
X109669500Y-118481000D01*
G75*
G02*
X109835000Y-118646500I0J-165500D01*
G01*
X109835000Y-118977500D01*
G75*
G02*
X109669500Y-119143000I-165500J0D01*
G01*
X109278500Y-119143000D01*
G75*
G02*
X109113000Y-118977500I0J165500D01*
G01*
X109113000Y-118646500D01*
G75*
G02*
X109278500Y-118481000I165500J0D01*
G01*
G37*
G36*
G01*
X101825200Y-98795500D02*
X101825200Y-98404500D01*
G75*
G02*
X101990700Y-98239000I165500J0D01*
G01*
X102321700Y-98239000D01*
G75*
G02*
X102487200Y-98404500I0J-165500D01*
G01*
X102487200Y-98795500D01*
G75*
G02*
X102321700Y-98961000I-165500J0D01*
G01*
X101990700Y-98961000D01*
G75*
G02*
X101825200Y-98795500I0J165500D01*
G01*
G37*
G36*
G01*
X100865200Y-98795500D02*
X100865200Y-98404500D01*
G75*
G02*
X101030700Y-98239000I165500J0D01*
G01*
X101361700Y-98239000D01*
G75*
G02*
X101527200Y-98404500I0J-165500D01*
G01*
X101527200Y-98795500D01*
G75*
G02*
X101361700Y-98961000I-165500J0D01*
G01*
X101030700Y-98961000D01*
G75*
G02*
X100865200Y-98795500I0J165500D01*
G01*
G37*
G36*
G01*
X116351600Y-101790700D02*
X115960600Y-101790700D01*
G75*
G02*
X115795100Y-101625200I0J165500D01*
G01*
X115795100Y-101294200D01*
G75*
G02*
X115960600Y-101128700I165500J0D01*
G01*
X116351600Y-101128700D01*
G75*
G02*
X116517100Y-101294200I0J-165500D01*
G01*
X116517100Y-101625200D01*
G75*
G02*
X116351600Y-101790700I-165500J0D01*
G01*
G37*
G36*
G01*
X116351600Y-102750700D02*
X115960600Y-102750700D01*
G75*
G02*
X115795100Y-102585200I0J165500D01*
G01*
X115795100Y-102254200D01*
G75*
G02*
X115960600Y-102088700I165500J0D01*
G01*
X116351600Y-102088700D01*
G75*
G02*
X116517100Y-102254200I0J-165500D01*
G01*
X116517100Y-102585200D01*
G75*
G02*
X116351600Y-102750700I-165500J0D01*
G01*
G37*
G36*
G01*
X115351600Y-102750700D02*
X114960600Y-102750700D01*
G75*
G02*
X114795100Y-102585200I0J165500D01*
G01*
X114795100Y-102254200D01*
G75*
G02*
X114960600Y-102088700I165500J0D01*
G01*
X115351600Y-102088700D01*
G75*
G02*
X115517100Y-102254200I0J-165500D01*
G01*
X115517100Y-102585200D01*
G75*
G02*
X115351600Y-102750700I-165500J0D01*
G01*
G37*
G36*
G01*
X115351600Y-101790700D02*
X114960600Y-101790700D01*
G75*
G02*
X114795100Y-101625200I0J165500D01*
G01*
X114795100Y-101294200D01*
G75*
G02*
X114960600Y-101128700I165500J0D01*
G01*
X115351600Y-101128700D01*
G75*
G02*
X115517100Y-101294200I0J-165500D01*
G01*
X115517100Y-101625200D01*
G75*
G02*
X115351600Y-101790700I-165500J0D01*
G01*
G37*
G36*
G01*
X119465900Y-102763400D02*
X119074900Y-102763400D01*
G75*
G02*
X118909400Y-102597900I0J165500D01*
G01*
X118909400Y-102266900D01*
G75*
G02*
X119074900Y-102101400I165500J0D01*
G01*
X119465900Y-102101400D01*
G75*
G02*
X119631400Y-102266900I0J-165500D01*
G01*
X119631400Y-102597900D01*
G75*
G02*
X119465900Y-102763400I-165500J0D01*
G01*
G37*
G36*
G01*
X119465900Y-101803400D02*
X119074900Y-101803400D01*
G75*
G02*
X118909400Y-101637900I0J165500D01*
G01*
X118909400Y-101306900D01*
G75*
G02*
X119074900Y-101141400I165500J0D01*
G01*
X119465900Y-101141400D01*
G75*
G02*
X119631400Y-101306900I0J-165500D01*
G01*
X119631400Y-101637900D01*
G75*
G02*
X119465900Y-101803400I-165500J0D01*
G01*
G37*
G36*
G01*
X118465900Y-102763400D02*
X118074900Y-102763400D01*
G75*
G02*
X117909400Y-102597900I0J165500D01*
G01*
X117909400Y-102266900D01*
G75*
G02*
X118074900Y-102101400I165500J0D01*
G01*
X118465900Y-102101400D01*
G75*
G02*
X118631400Y-102266900I0J-165500D01*
G01*
X118631400Y-102597900D01*
G75*
G02*
X118465900Y-102763400I-165500J0D01*
G01*
G37*
G36*
G01*
X118465900Y-101803400D02*
X118074900Y-101803400D01*
G75*
G02*
X117909400Y-101637900I0J165500D01*
G01*
X117909400Y-101306900D01*
G75*
G02*
X118074900Y-101141400I165500J0D01*
G01*
X118465900Y-101141400D01*
G75*
G02*
X118631400Y-101306900I0J-165500D01*
G01*
X118631400Y-101637900D01*
G75*
G02*
X118465900Y-101803400I-165500J0D01*
G01*
G37*
G36*
G01*
X114506600Y-119258100D02*
X114506600Y-119649100D01*
G75*
G02*
X114341100Y-119814600I-165500J0D01*
G01*
X114010100Y-119814600D01*
G75*
G02*
X113844600Y-119649100I0J165500D01*
G01*
X113844600Y-119258100D01*
G75*
G02*
X114010100Y-119092600I165500J0D01*
G01*
X114341100Y-119092600D01*
G75*
G02*
X114506600Y-119258100I0J-165500D01*
G01*
G37*
G36*
G01*
X115466600Y-119258100D02*
X115466600Y-119649100D01*
G75*
G02*
X115301100Y-119814600I-165500J0D01*
G01*
X114970100Y-119814600D01*
G75*
G02*
X114804600Y-119649100I0J165500D01*
G01*
X114804600Y-119258100D01*
G75*
G02*
X114970100Y-119092600I165500J0D01*
G01*
X115301100Y-119092600D01*
G75*
G02*
X115466600Y-119258100I0J-165500D01*
G01*
G37*
G36*
G01*
X115515800Y-110888700D02*
X115515800Y-110497700D01*
G75*
G02*
X115681300Y-110332200I165500J0D01*
G01*
X116012300Y-110332200D01*
G75*
G02*
X116177800Y-110497700I0J-165500D01*
G01*
X116177800Y-110888700D01*
G75*
G02*
X116012300Y-111054200I-165500J0D01*
G01*
X115681300Y-111054200D01*
G75*
G02*
X115515800Y-110888700I0J165500D01*
G01*
G37*
G36*
G01*
X114555800Y-110888700D02*
X114555800Y-110497700D01*
G75*
G02*
X114721300Y-110332200I165500J0D01*
G01*
X115052300Y-110332200D01*
G75*
G02*
X115217800Y-110497700I0J-165500D01*
G01*
X115217800Y-110888700D01*
G75*
G02*
X115052300Y-111054200I-165500J0D01*
G01*
X114721300Y-111054200D01*
G75*
G02*
X114555800Y-110888700I0J165500D01*
G01*
G37*
G36*
G01*
X98631000Y-91989500D02*
X98631000Y-92410500D01*
G75*
G02*
X98470500Y-92571000I-160500J0D01*
G01*
X98149500Y-92571000D01*
G75*
G02*
X97989000Y-92410500I0J160500D01*
G01*
X97989000Y-91989500D01*
G75*
G02*
X98149500Y-91829000I160500J0D01*
G01*
X98470500Y-91829000D01*
G75*
G02*
X98631000Y-91989500I0J-160500D01*
G01*
G37*
G36*
G01*
X97611000Y-91989500D02*
X97611000Y-92410500D01*
G75*
G02*
X97450500Y-92571000I-160500J0D01*
G01*
X97129500Y-92571000D01*
G75*
G02*
X96969000Y-92410500I0J160500D01*
G01*
X96969000Y-91989500D01*
G75*
G02*
X97129500Y-91829000I160500J0D01*
G01*
X97450500Y-91829000D01*
G75*
G02*
X97611000Y-91989500I0J-160500D01*
G01*
G37*
G36*
G01*
X97611000Y-93489500D02*
X97611000Y-93910500D01*
G75*
G02*
X97450500Y-94071000I-160500J0D01*
G01*
X97129500Y-94071000D01*
G75*
G02*
X96969000Y-93910500I0J160500D01*
G01*
X96969000Y-93489500D01*
G75*
G02*
X97129500Y-93329000I160500J0D01*
G01*
X97450500Y-93329000D01*
G75*
G02*
X97611000Y-93489500I0J-160500D01*
G01*
G37*
G36*
G01*
X98631000Y-93489500D02*
X98631000Y-93910500D01*
G75*
G02*
X98470500Y-94071000I-160500J0D01*
G01*
X98149500Y-94071000D01*
G75*
G02*
X97989000Y-93910500I0J160500D01*
G01*
X97989000Y-93489500D01*
G75*
G02*
X98149500Y-93329000I160500J0D01*
G01*
X98470500Y-93329000D01*
G75*
G02*
X98631000Y-93489500I0J-160500D01*
G01*
G37*
G36*
G01*
X105621500Y-113101000D02*
X106042500Y-113101000D01*
G75*
G02*
X106203000Y-113261500I0J-160500D01*
G01*
X106203000Y-113582500D01*
G75*
G02*
X106042500Y-113743000I-160500J0D01*
G01*
X105621500Y-113743000D01*
G75*
G02*
X105461000Y-113582500I0J160500D01*
G01*
X105461000Y-113261500D01*
G75*
G02*
X105621500Y-113101000I160500J0D01*
G01*
G37*
G36*
G01*
X105621500Y-114121000D02*
X106042500Y-114121000D01*
G75*
G02*
X106203000Y-114281500I0J-160500D01*
G01*
X106203000Y-114602500D01*
G75*
G02*
X106042500Y-114763000I-160500J0D01*
G01*
X105621500Y-114763000D01*
G75*
G02*
X105461000Y-114602500I0J160500D01*
G01*
X105461000Y-114281500D01*
G75*
G02*
X105621500Y-114121000I160500J0D01*
G01*
G37*
G36*
G01*
X107121500Y-113101000D02*
X107542500Y-113101000D01*
G75*
G02*
X107703000Y-113261500I0J-160500D01*
G01*
X107703000Y-113582500D01*
G75*
G02*
X107542500Y-113743000I-160500J0D01*
G01*
X107121500Y-113743000D01*
G75*
G02*
X106961000Y-113582500I0J160500D01*
G01*
X106961000Y-113261500D01*
G75*
G02*
X107121500Y-113101000I160500J0D01*
G01*
G37*
G36*
G01*
X107121500Y-114121000D02*
X107542500Y-114121000D01*
G75*
G02*
X107703000Y-114281500I0J-160500D01*
G01*
X107703000Y-114602500D01*
G75*
G02*
X107542500Y-114763000I-160500J0D01*
G01*
X107121500Y-114763000D01*
G75*
G02*
X106961000Y-114602500I0J160500D01*
G01*
X106961000Y-114281500D01*
G75*
G02*
X107121500Y-114121000I160500J0D01*
G01*
G37*
G36*
G01*
X172842150Y-116116700D02*
X172278650Y-116116700D01*
G75*
G02*
X172034400Y-115872450I0J244250D01*
G01*
X172034400Y-115383950D01*
G75*
G02*
X172278650Y-115139700I244250J0D01*
G01*
X172842150Y-115139700D01*
G75*
G02*
X173086400Y-115383950I0J-244250D01*
G01*
X173086400Y-115872450D01*
G75*
G02*
X172842150Y-116116700I-244250J0D01*
G01*
G37*
G36*
G01*
X172842150Y-117691700D02*
X172278650Y-117691700D01*
G75*
G02*
X172034400Y-117447450I0J244250D01*
G01*
X172034400Y-116958950D01*
G75*
G02*
X172278650Y-116714700I244250J0D01*
G01*
X172842150Y-116714700D01*
G75*
G02*
X173086400Y-116958950I0J-244250D01*
G01*
X173086400Y-117447450D01*
G75*
G02*
X172842150Y-117691700I-244250J0D01*
G01*
G37*
G36*
G01*
X175366150Y-117711200D02*
X174802650Y-117711200D01*
G75*
G02*
X174558400Y-117466950I0J244250D01*
G01*
X174558400Y-116978450D01*
G75*
G02*
X174802650Y-116734200I244250J0D01*
G01*
X175366150Y-116734200D01*
G75*
G02*
X175610400Y-116978450I0J-244250D01*
G01*
X175610400Y-117466950D01*
G75*
G02*
X175366150Y-117711200I-244250J0D01*
G01*
G37*
G36*
G01*
X175366150Y-116136200D02*
X174802650Y-116136200D01*
G75*
G02*
X174558400Y-115891950I0J244250D01*
G01*
X174558400Y-115403450D01*
G75*
G02*
X174802650Y-115159200I244250J0D01*
G01*
X175366150Y-115159200D01*
G75*
G02*
X175610400Y-115403450I0J-244250D01*
G01*
X175610400Y-115891950D01*
G75*
G02*
X175366150Y-116136200I-244250J0D01*
G01*
G37*
M02*
