G04 #@! TF.GenerationSoftware,KiCad,Pcbnew,(5.1.10)-1*
G04 #@! TF.CreationDate,2021-09-04T12:41:49+02:00*
G04 #@! TF.ProjectId,POE_hat_and_USB,504f455f-6861-4745-9f61-6e645f555342,1.0*
G04 #@! TF.SameCoordinates,Original*
G04 #@! TF.FileFunction,Copper,L2,Bot*
G04 #@! TF.FilePolarity,Positive*
%FSLAX46Y46*%
G04 Gerber Fmt 4.6, Leading zero omitted, Abs format (unit mm)*
G04 Created by KiCad (PCBNEW (5.1.10)-1) date 2021-09-04 12:41:49*
%MOMM*%
%LPD*%
G01*
G04 APERTURE LIST*
G04 #@! TA.AperFunction,ComponentPad*
%ADD10R,1.700000X1.700000*%
G04 #@! TD*
G04 #@! TA.AperFunction,ComponentPad*
%ADD11O,1.700000X1.700000*%
G04 #@! TD*
G04 #@! TA.AperFunction,SMDPad,CuDef*
%ADD12R,1.000000X0.700000*%
G04 #@! TD*
G04 #@! TA.AperFunction,SMDPad,CuDef*
%ADD13R,2.500000X3.300000*%
G04 #@! TD*
G04 #@! TA.AperFunction,ComponentPad*
%ADD14O,1.200000X1.600000*%
G04 #@! TD*
G04 #@! TA.AperFunction,ComponentPad*
%ADD15O,1.200000X1.200000*%
G04 #@! TD*
G04 #@! TA.AperFunction,SMDPad,CuDef*
%ADD16R,1.200000X0.900000*%
G04 #@! TD*
G04 #@! TA.AperFunction,ComponentPad*
%ADD17R,1.500000X1.500000*%
G04 #@! TD*
G04 #@! TA.AperFunction,ComponentPad*
%ADD18C,1.500000*%
G04 #@! TD*
G04 #@! TA.AperFunction,ComponentPad*
%ADD19C,2.300000*%
G04 #@! TD*
G04 #@! TA.AperFunction,SMDPad,CuDef*
%ADD20R,1.200000X1.900000*%
G04 #@! TD*
G04 #@! TA.AperFunction,ComponentPad*
%ADD21O,1.200000X1.900000*%
G04 #@! TD*
G04 #@! TA.AperFunction,SMDPad,CuDef*
%ADD22R,1.500000X1.900000*%
G04 #@! TD*
G04 #@! TA.AperFunction,ComponentPad*
%ADD23C,1.450000*%
G04 #@! TD*
G04 #@! TA.AperFunction,SMDPad,CuDef*
%ADD24R,0.400000X1.350000*%
G04 #@! TD*
G04 #@! TA.AperFunction,SMDPad,CuDef*
%ADD25C,0.100000*%
G04 #@! TD*
G04 #@! TA.AperFunction,SMDPad,CuDef*
%ADD26R,0.700000X0.450000*%
G04 #@! TD*
G04 #@! TA.AperFunction,SMDPad,CuDef*
%ADD27R,2.600000X2.600000*%
G04 #@! TD*
G04 #@! TA.AperFunction,ViaPad*
%ADD28C,0.800000*%
G04 #@! TD*
G04 #@! TA.AperFunction,Conductor*
%ADD29C,1.000000*%
G04 #@! TD*
G04 #@! TA.AperFunction,Conductor*
%ADD30C,0.500000*%
G04 #@! TD*
G04 #@! TA.AperFunction,Conductor*
%ADD31C,0.750000*%
G04 #@! TD*
G04 #@! TA.AperFunction,Conductor*
%ADD32C,0.250000*%
G04 #@! TD*
G04 #@! TA.AperFunction,Conductor*
%ADD33C,0.200000*%
G04 #@! TD*
G04 #@! TA.AperFunction,Conductor*
%ADD34C,0.254000*%
G04 #@! TD*
G04 #@! TA.AperFunction,Conductor*
%ADD35C,0.100000*%
G04 #@! TD*
G04 APERTURE END LIST*
G04 #@! TA.AperFunction,WasherPad*
G36*
G01*
X151600000Y-98600000D02*
X155600000Y-98600000D01*
G75*
G02*
X158100000Y-101100000I0J-2500000D01*
G01*
X158100000Y-101100000D01*
G75*
G02*
X155600000Y-103600000I-2500000J0D01*
G01*
X151600000Y-103600000D01*
G75*
G02*
X149100000Y-101100000I0J2500000D01*
G01*
X149100000Y-101100000D01*
G75*
G02*
X151600000Y-98600000I2500000J0D01*
G01*
G37*
G04 #@! TD.AperFunction*
D10*
X125902000Y-95838000D03*
D11*
X125902000Y-93298000D03*
X128442000Y-95838000D03*
X128442000Y-93298000D03*
X130982000Y-95838000D03*
X130982000Y-93298000D03*
X133522000Y-95838000D03*
X133522000Y-93298000D03*
X136062000Y-95838000D03*
X136062000Y-93298000D03*
X138602000Y-95838000D03*
X138602000Y-93298000D03*
X141142000Y-95838000D03*
X141142000Y-93298000D03*
X143682000Y-95838000D03*
X143682000Y-93298000D03*
X146222000Y-95838000D03*
X146222000Y-93298000D03*
X148762000Y-95838000D03*
X148762000Y-93298000D03*
X151302000Y-95838000D03*
X151302000Y-93298000D03*
X153842000Y-95838000D03*
X153842000Y-93298000D03*
X156382000Y-95838000D03*
X156382000Y-93298000D03*
X158922000Y-95838000D03*
X158922000Y-93298000D03*
X161462000Y-95838000D03*
X161462000Y-93298000D03*
X164002000Y-95838000D03*
X164002000Y-93298000D03*
X166542000Y-95838000D03*
X166542000Y-93298000D03*
X169082000Y-95838000D03*
X169082000Y-93298000D03*
X171622000Y-95838000D03*
X171622000Y-93298000D03*
X174162000Y-95838000D03*
X174162000Y-93298000D03*
G04 #@! TA.AperFunction,SMDPad,CuDef*
G36*
G01*
X175267200Y-117188200D02*
X174897200Y-117188200D01*
G75*
G02*
X174762200Y-117053200I0J135000D01*
G01*
X174762200Y-116783200D01*
G75*
G02*
X174897200Y-116648200I135000J0D01*
G01*
X175267200Y-116648200D01*
G75*
G02*
X175402200Y-116783200I0J-135000D01*
G01*
X175402200Y-117053200D01*
G75*
G02*
X175267200Y-117188200I-135000J0D01*
G01*
G37*
G04 #@! TD.AperFunction*
G04 #@! TA.AperFunction,SMDPad,CuDef*
G36*
G01*
X175267200Y-116168200D02*
X174897200Y-116168200D01*
G75*
G02*
X174762200Y-116033200I0J135000D01*
G01*
X174762200Y-115763200D01*
G75*
G02*
X174897200Y-115628200I135000J0D01*
G01*
X175267200Y-115628200D01*
G75*
G02*
X175402200Y-115763200I0J-135000D01*
G01*
X175402200Y-116033200D01*
G75*
G02*
X175267200Y-116168200I-135000J0D01*
G01*
G37*
G04 #@! TD.AperFunction*
D12*
X105907000Y-107868000D03*
X105907000Y-111868000D03*
X99957000Y-111868000D03*
X99957000Y-107868000D03*
X99957000Y-102268000D03*
X99957000Y-106268000D03*
X105907000Y-106268000D03*
X105907000Y-102268000D03*
D13*
X156841400Y-108343700D03*
X150041400Y-108343700D03*
D14*
X179332000Y-109368000D03*
D15*
X179332000Y-106828000D03*
D16*
X169000000Y-108350000D03*
X169000000Y-111650000D03*
D17*
X90532000Y-109628000D03*
D18*
X90532000Y-107596000D03*
X90532000Y-105564000D03*
X90532000Y-103532000D03*
X92312000Y-108612000D03*
X92312000Y-106580000D03*
X92312000Y-104548000D03*
X92312000Y-102516000D03*
D19*
X91422000Y-97938000D03*
X91422000Y-114198000D03*
D18*
X97132000Y-112928000D03*
X97132000Y-110638000D03*
X97132000Y-101498000D03*
X97132000Y-99208000D03*
D11*
X180652000Y-103068000D03*
X178112000Y-103068000D03*
X175572000Y-103068000D03*
D10*
X173032000Y-103068000D03*
X173032000Y-99468000D03*
D11*
X175572000Y-99468000D03*
X178112000Y-99468000D03*
X180652000Y-99468000D03*
D20*
X161620000Y-119616296D03*
X155820000Y-119616296D03*
D21*
X155220000Y-119616296D03*
X162220000Y-119616296D03*
D22*
X159720000Y-119616296D03*
D23*
X156220000Y-116916296D03*
D24*
X158720000Y-116916296D03*
X158070000Y-116916296D03*
X157420000Y-116916296D03*
X160020000Y-116916296D03*
X159370000Y-116916296D03*
D23*
X161220000Y-116916296D03*
D22*
X157720000Y-119616296D03*
G04 #@! TA.AperFunction,SMDPad,CuDef*
D25*
G36*
X170950000Y-109850000D02*
G01*
X170950000Y-109350000D01*
X170950602Y-109350000D01*
X170950602Y-109325466D01*
X170955412Y-109276635D01*
X170964984Y-109228510D01*
X170979228Y-109181555D01*
X170998005Y-109136222D01*
X171021136Y-109092949D01*
X171048396Y-109052150D01*
X171079524Y-109014221D01*
X171114221Y-108979524D01*
X171152150Y-108948396D01*
X171192949Y-108921136D01*
X171236222Y-108898005D01*
X171281555Y-108879228D01*
X171328510Y-108864984D01*
X171376635Y-108855412D01*
X171425466Y-108850602D01*
X171450000Y-108850602D01*
X171450000Y-108850000D01*
X171950000Y-108850000D01*
X171950000Y-108850602D01*
X171974534Y-108850602D01*
X172023365Y-108855412D01*
X172071490Y-108864984D01*
X172118445Y-108879228D01*
X172163778Y-108898005D01*
X172207051Y-108921136D01*
X172247850Y-108948396D01*
X172285779Y-108979524D01*
X172320476Y-109014221D01*
X172351604Y-109052150D01*
X172378864Y-109092949D01*
X172401995Y-109136222D01*
X172420772Y-109181555D01*
X172435016Y-109228510D01*
X172444588Y-109276635D01*
X172449398Y-109325466D01*
X172449398Y-109350000D01*
X172450000Y-109350000D01*
X172450000Y-109850000D01*
X170950000Y-109850000D01*
G37*
G04 #@! TD.AperFunction*
G04 #@! TA.AperFunction,SMDPad,CuDef*
G36*
X172449398Y-110650000D02*
G01*
X172449398Y-110674534D01*
X172444588Y-110723365D01*
X172435016Y-110771490D01*
X172420772Y-110818445D01*
X172401995Y-110863778D01*
X172378864Y-110907051D01*
X172351604Y-110947850D01*
X172320476Y-110985779D01*
X172285779Y-111020476D01*
X172247850Y-111051604D01*
X172207051Y-111078864D01*
X172163778Y-111101995D01*
X172118445Y-111120772D01*
X172071490Y-111135016D01*
X172023365Y-111144588D01*
X171974534Y-111149398D01*
X171950000Y-111149398D01*
X171950000Y-111150000D01*
X171450000Y-111150000D01*
X171450000Y-111149398D01*
X171425466Y-111149398D01*
X171376635Y-111144588D01*
X171328510Y-111135016D01*
X171281555Y-111120772D01*
X171236222Y-111101995D01*
X171192949Y-111078864D01*
X171152150Y-111051604D01*
X171114221Y-111020476D01*
X171079524Y-110985779D01*
X171048396Y-110947850D01*
X171021136Y-110907051D01*
X170998005Y-110863778D01*
X170979228Y-110818445D01*
X170964984Y-110771490D01*
X170955412Y-110723365D01*
X170950602Y-110674534D01*
X170950602Y-110650000D01*
X170950000Y-110650000D01*
X170950000Y-110150000D01*
X172450000Y-110150000D01*
X172450000Y-110650000D01*
X172449398Y-110650000D01*
G37*
G04 #@! TD.AperFunction*
D26*
X177332000Y-112418000D03*
X177332000Y-111118000D03*
X179332000Y-111768000D03*
D27*
X117030500Y-108750100D03*
G04 #@! TA.AperFunction,SMDPad,CuDef*
G36*
G01*
X115655500Y-111037600D02*
X115655500Y-110337600D01*
G75*
G02*
X115718000Y-110275100I62500J0D01*
G01*
X115843000Y-110275100D01*
G75*
G02*
X115905500Y-110337600I0J-62500D01*
G01*
X115905500Y-111037600D01*
G75*
G02*
X115843000Y-111100100I-62500J0D01*
G01*
X115718000Y-111100100D01*
G75*
G02*
X115655500Y-111037600I0J62500D01*
G01*
G37*
G04 #@! TD.AperFunction*
G04 #@! TA.AperFunction,SMDPad,CuDef*
G36*
G01*
X116155500Y-111037600D02*
X116155500Y-110337600D01*
G75*
G02*
X116218000Y-110275100I62500J0D01*
G01*
X116343000Y-110275100D01*
G75*
G02*
X116405500Y-110337600I0J-62500D01*
G01*
X116405500Y-111037600D01*
G75*
G02*
X116343000Y-111100100I-62500J0D01*
G01*
X116218000Y-111100100D01*
G75*
G02*
X116155500Y-111037600I0J62500D01*
G01*
G37*
G04 #@! TD.AperFunction*
G04 #@! TA.AperFunction,SMDPad,CuDef*
G36*
G01*
X116655500Y-111037600D02*
X116655500Y-110337600D01*
G75*
G02*
X116718000Y-110275100I62500J0D01*
G01*
X116843000Y-110275100D01*
G75*
G02*
X116905500Y-110337600I0J-62500D01*
G01*
X116905500Y-111037600D01*
G75*
G02*
X116843000Y-111100100I-62500J0D01*
G01*
X116718000Y-111100100D01*
G75*
G02*
X116655500Y-111037600I0J62500D01*
G01*
G37*
G04 #@! TD.AperFunction*
G04 #@! TA.AperFunction,SMDPad,CuDef*
G36*
G01*
X117155500Y-111037600D02*
X117155500Y-110337600D01*
G75*
G02*
X117218000Y-110275100I62500J0D01*
G01*
X117343000Y-110275100D01*
G75*
G02*
X117405500Y-110337600I0J-62500D01*
G01*
X117405500Y-111037600D01*
G75*
G02*
X117343000Y-111100100I-62500J0D01*
G01*
X117218000Y-111100100D01*
G75*
G02*
X117155500Y-111037600I0J62500D01*
G01*
G37*
G04 #@! TD.AperFunction*
G04 #@! TA.AperFunction,SMDPad,CuDef*
G36*
G01*
X117655500Y-111037600D02*
X117655500Y-110337600D01*
G75*
G02*
X117718000Y-110275100I62500J0D01*
G01*
X117843000Y-110275100D01*
G75*
G02*
X117905500Y-110337600I0J-62500D01*
G01*
X117905500Y-111037600D01*
G75*
G02*
X117843000Y-111100100I-62500J0D01*
G01*
X117718000Y-111100100D01*
G75*
G02*
X117655500Y-111037600I0J62500D01*
G01*
G37*
G04 #@! TD.AperFunction*
G04 #@! TA.AperFunction,SMDPad,CuDef*
G36*
G01*
X118155500Y-111037600D02*
X118155500Y-110337600D01*
G75*
G02*
X118218000Y-110275100I62500J0D01*
G01*
X118343000Y-110275100D01*
G75*
G02*
X118405500Y-110337600I0J-62500D01*
G01*
X118405500Y-111037600D01*
G75*
G02*
X118343000Y-111100100I-62500J0D01*
G01*
X118218000Y-111100100D01*
G75*
G02*
X118155500Y-111037600I0J62500D01*
G01*
G37*
G04 #@! TD.AperFunction*
G04 #@! TA.AperFunction,SMDPad,CuDef*
G36*
G01*
X118555500Y-110062600D02*
X118555500Y-109937600D01*
G75*
G02*
X118618000Y-109875100I62500J0D01*
G01*
X119318000Y-109875100D01*
G75*
G02*
X119380500Y-109937600I0J-62500D01*
G01*
X119380500Y-110062600D01*
G75*
G02*
X119318000Y-110125100I-62500J0D01*
G01*
X118618000Y-110125100D01*
G75*
G02*
X118555500Y-110062600I0J62500D01*
G01*
G37*
G04 #@! TD.AperFunction*
G04 #@! TA.AperFunction,SMDPad,CuDef*
G36*
G01*
X118555500Y-109562600D02*
X118555500Y-109437600D01*
G75*
G02*
X118618000Y-109375100I62500J0D01*
G01*
X119318000Y-109375100D01*
G75*
G02*
X119380500Y-109437600I0J-62500D01*
G01*
X119380500Y-109562600D01*
G75*
G02*
X119318000Y-109625100I-62500J0D01*
G01*
X118618000Y-109625100D01*
G75*
G02*
X118555500Y-109562600I0J62500D01*
G01*
G37*
G04 #@! TD.AperFunction*
G04 #@! TA.AperFunction,SMDPad,CuDef*
G36*
G01*
X118555500Y-109062600D02*
X118555500Y-108937600D01*
G75*
G02*
X118618000Y-108875100I62500J0D01*
G01*
X119318000Y-108875100D01*
G75*
G02*
X119380500Y-108937600I0J-62500D01*
G01*
X119380500Y-109062600D01*
G75*
G02*
X119318000Y-109125100I-62500J0D01*
G01*
X118618000Y-109125100D01*
G75*
G02*
X118555500Y-109062600I0J62500D01*
G01*
G37*
G04 #@! TD.AperFunction*
G04 #@! TA.AperFunction,SMDPad,CuDef*
G36*
G01*
X118555500Y-108562600D02*
X118555500Y-108437600D01*
G75*
G02*
X118618000Y-108375100I62500J0D01*
G01*
X119318000Y-108375100D01*
G75*
G02*
X119380500Y-108437600I0J-62500D01*
G01*
X119380500Y-108562600D01*
G75*
G02*
X119318000Y-108625100I-62500J0D01*
G01*
X118618000Y-108625100D01*
G75*
G02*
X118555500Y-108562600I0J62500D01*
G01*
G37*
G04 #@! TD.AperFunction*
G04 #@! TA.AperFunction,SMDPad,CuDef*
G36*
G01*
X118555500Y-108062600D02*
X118555500Y-107937600D01*
G75*
G02*
X118618000Y-107875100I62500J0D01*
G01*
X119318000Y-107875100D01*
G75*
G02*
X119380500Y-107937600I0J-62500D01*
G01*
X119380500Y-108062600D01*
G75*
G02*
X119318000Y-108125100I-62500J0D01*
G01*
X118618000Y-108125100D01*
G75*
G02*
X118555500Y-108062600I0J62500D01*
G01*
G37*
G04 #@! TD.AperFunction*
G04 #@! TA.AperFunction,SMDPad,CuDef*
G36*
G01*
X118555500Y-107562600D02*
X118555500Y-107437600D01*
G75*
G02*
X118618000Y-107375100I62500J0D01*
G01*
X119318000Y-107375100D01*
G75*
G02*
X119380500Y-107437600I0J-62500D01*
G01*
X119380500Y-107562600D01*
G75*
G02*
X119318000Y-107625100I-62500J0D01*
G01*
X118618000Y-107625100D01*
G75*
G02*
X118555500Y-107562600I0J62500D01*
G01*
G37*
G04 #@! TD.AperFunction*
G04 #@! TA.AperFunction,SMDPad,CuDef*
G36*
G01*
X118155500Y-107162600D02*
X118155500Y-106462600D01*
G75*
G02*
X118218000Y-106400100I62500J0D01*
G01*
X118343000Y-106400100D01*
G75*
G02*
X118405500Y-106462600I0J-62500D01*
G01*
X118405500Y-107162600D01*
G75*
G02*
X118343000Y-107225100I-62500J0D01*
G01*
X118218000Y-107225100D01*
G75*
G02*
X118155500Y-107162600I0J62500D01*
G01*
G37*
G04 #@! TD.AperFunction*
G04 #@! TA.AperFunction,SMDPad,CuDef*
G36*
G01*
X117655500Y-107162600D02*
X117655500Y-106462600D01*
G75*
G02*
X117718000Y-106400100I62500J0D01*
G01*
X117843000Y-106400100D01*
G75*
G02*
X117905500Y-106462600I0J-62500D01*
G01*
X117905500Y-107162600D01*
G75*
G02*
X117843000Y-107225100I-62500J0D01*
G01*
X117718000Y-107225100D01*
G75*
G02*
X117655500Y-107162600I0J62500D01*
G01*
G37*
G04 #@! TD.AperFunction*
G04 #@! TA.AperFunction,SMDPad,CuDef*
G36*
G01*
X117155500Y-107162600D02*
X117155500Y-106462600D01*
G75*
G02*
X117218000Y-106400100I62500J0D01*
G01*
X117343000Y-106400100D01*
G75*
G02*
X117405500Y-106462600I0J-62500D01*
G01*
X117405500Y-107162600D01*
G75*
G02*
X117343000Y-107225100I-62500J0D01*
G01*
X117218000Y-107225100D01*
G75*
G02*
X117155500Y-107162600I0J62500D01*
G01*
G37*
G04 #@! TD.AperFunction*
G04 #@! TA.AperFunction,SMDPad,CuDef*
G36*
G01*
X116655500Y-107162600D02*
X116655500Y-106462600D01*
G75*
G02*
X116718000Y-106400100I62500J0D01*
G01*
X116843000Y-106400100D01*
G75*
G02*
X116905500Y-106462600I0J-62500D01*
G01*
X116905500Y-107162600D01*
G75*
G02*
X116843000Y-107225100I-62500J0D01*
G01*
X116718000Y-107225100D01*
G75*
G02*
X116655500Y-107162600I0J62500D01*
G01*
G37*
G04 #@! TD.AperFunction*
G04 #@! TA.AperFunction,SMDPad,CuDef*
G36*
G01*
X116155500Y-107162600D02*
X116155500Y-106462600D01*
G75*
G02*
X116218000Y-106400100I62500J0D01*
G01*
X116343000Y-106400100D01*
G75*
G02*
X116405500Y-106462600I0J-62500D01*
G01*
X116405500Y-107162600D01*
G75*
G02*
X116343000Y-107225100I-62500J0D01*
G01*
X116218000Y-107225100D01*
G75*
G02*
X116155500Y-107162600I0J62500D01*
G01*
G37*
G04 #@! TD.AperFunction*
G04 #@! TA.AperFunction,SMDPad,CuDef*
G36*
G01*
X115655500Y-107162600D02*
X115655500Y-106462600D01*
G75*
G02*
X115718000Y-106400100I62500J0D01*
G01*
X115843000Y-106400100D01*
G75*
G02*
X115905500Y-106462600I0J-62500D01*
G01*
X115905500Y-107162600D01*
G75*
G02*
X115843000Y-107225100I-62500J0D01*
G01*
X115718000Y-107225100D01*
G75*
G02*
X115655500Y-107162600I0J62500D01*
G01*
G37*
G04 #@! TD.AperFunction*
G04 #@! TA.AperFunction,SMDPad,CuDef*
G36*
G01*
X114680500Y-107562600D02*
X114680500Y-107437600D01*
G75*
G02*
X114743000Y-107375100I62500J0D01*
G01*
X115443000Y-107375100D01*
G75*
G02*
X115505500Y-107437600I0J-62500D01*
G01*
X115505500Y-107562600D01*
G75*
G02*
X115443000Y-107625100I-62500J0D01*
G01*
X114743000Y-107625100D01*
G75*
G02*
X114680500Y-107562600I0J62500D01*
G01*
G37*
G04 #@! TD.AperFunction*
G04 #@! TA.AperFunction,SMDPad,CuDef*
G36*
G01*
X114680500Y-108062600D02*
X114680500Y-107937600D01*
G75*
G02*
X114743000Y-107875100I62500J0D01*
G01*
X115443000Y-107875100D01*
G75*
G02*
X115505500Y-107937600I0J-62500D01*
G01*
X115505500Y-108062600D01*
G75*
G02*
X115443000Y-108125100I-62500J0D01*
G01*
X114743000Y-108125100D01*
G75*
G02*
X114680500Y-108062600I0J62500D01*
G01*
G37*
G04 #@! TD.AperFunction*
G04 #@! TA.AperFunction,SMDPad,CuDef*
G36*
G01*
X114680500Y-108562600D02*
X114680500Y-108437600D01*
G75*
G02*
X114743000Y-108375100I62500J0D01*
G01*
X115443000Y-108375100D01*
G75*
G02*
X115505500Y-108437600I0J-62500D01*
G01*
X115505500Y-108562600D01*
G75*
G02*
X115443000Y-108625100I-62500J0D01*
G01*
X114743000Y-108625100D01*
G75*
G02*
X114680500Y-108562600I0J62500D01*
G01*
G37*
G04 #@! TD.AperFunction*
G04 #@! TA.AperFunction,SMDPad,CuDef*
G36*
G01*
X114680500Y-109062600D02*
X114680500Y-108937600D01*
G75*
G02*
X114743000Y-108875100I62500J0D01*
G01*
X115443000Y-108875100D01*
G75*
G02*
X115505500Y-108937600I0J-62500D01*
G01*
X115505500Y-109062600D01*
G75*
G02*
X115443000Y-109125100I-62500J0D01*
G01*
X114743000Y-109125100D01*
G75*
G02*
X114680500Y-109062600I0J62500D01*
G01*
G37*
G04 #@! TD.AperFunction*
G04 #@! TA.AperFunction,SMDPad,CuDef*
G36*
G01*
X114680500Y-109562600D02*
X114680500Y-109437600D01*
G75*
G02*
X114743000Y-109375100I62500J0D01*
G01*
X115443000Y-109375100D01*
G75*
G02*
X115505500Y-109437600I0J-62500D01*
G01*
X115505500Y-109562600D01*
G75*
G02*
X115443000Y-109625100I-62500J0D01*
G01*
X114743000Y-109625100D01*
G75*
G02*
X114680500Y-109562600I0J62500D01*
G01*
G37*
G04 #@! TD.AperFunction*
G04 #@! TA.AperFunction,SMDPad,CuDef*
G36*
G01*
X114680500Y-110062600D02*
X114680500Y-109937600D01*
G75*
G02*
X114743000Y-109875100I62500J0D01*
G01*
X115443000Y-109875100D01*
G75*
G02*
X115505500Y-109937600I0J-62500D01*
G01*
X115505500Y-110062600D01*
G75*
G02*
X115443000Y-110125100I-62500J0D01*
G01*
X114743000Y-110125100D01*
G75*
G02*
X114680500Y-110062600I0J62500D01*
G01*
G37*
G04 #@! TD.AperFunction*
G04 #@! TA.AperFunction,SMDPad,CuDef*
G36*
G01*
X103040000Y-120170000D02*
X103040000Y-119830000D01*
G75*
G02*
X103180000Y-119690000I140000J0D01*
G01*
X103460000Y-119690000D01*
G75*
G02*
X103600000Y-119830000I0J-140000D01*
G01*
X103600000Y-120170000D01*
G75*
G02*
X103460000Y-120310000I-140000J0D01*
G01*
X103180000Y-120310000D01*
G75*
G02*
X103040000Y-120170000I0J140000D01*
G01*
G37*
G04 #@! TD.AperFunction*
G04 #@! TA.AperFunction,SMDPad,CuDef*
G36*
G01*
X104000000Y-120170000D02*
X104000000Y-119830000D01*
G75*
G02*
X104140000Y-119690000I140000J0D01*
G01*
X104420000Y-119690000D01*
G75*
G02*
X104560000Y-119830000I0J-140000D01*
G01*
X104560000Y-120170000D01*
G75*
G02*
X104420000Y-120310000I-140000J0D01*
G01*
X104140000Y-120310000D01*
G75*
G02*
X104000000Y-120170000I0J140000D01*
G01*
G37*
G04 #@! TD.AperFunction*
G04 #@! TA.AperFunction,SMDPad,CuDef*
G36*
G01*
X100920000Y-98770000D02*
X100920000Y-98430000D01*
G75*
G02*
X101060000Y-98290000I140000J0D01*
G01*
X101340000Y-98290000D01*
G75*
G02*
X101480000Y-98430000I0J-140000D01*
G01*
X101480000Y-98770000D01*
G75*
G02*
X101340000Y-98910000I-140000J0D01*
G01*
X101060000Y-98910000D01*
G75*
G02*
X100920000Y-98770000I0J140000D01*
G01*
G37*
G04 #@! TD.AperFunction*
G04 #@! TA.AperFunction,SMDPad,CuDef*
G36*
G01*
X101880000Y-98770000D02*
X101880000Y-98430000D01*
G75*
G02*
X102020000Y-98290000I140000J0D01*
G01*
X102300000Y-98290000D01*
G75*
G02*
X102440000Y-98430000I0J-140000D01*
G01*
X102440000Y-98770000D01*
G75*
G02*
X102300000Y-98910000I-140000J0D01*
G01*
X102020000Y-98910000D01*
G75*
G02*
X101880000Y-98770000I0J140000D01*
G01*
G37*
G04 #@! TD.AperFunction*
G04 #@! TA.AperFunction,SMDPad,CuDef*
G36*
G01*
X125823800Y-109401000D02*
X125483800Y-109401000D01*
G75*
G02*
X125343800Y-109261000I0J140000D01*
G01*
X125343800Y-108981000D01*
G75*
G02*
X125483800Y-108841000I140000J0D01*
G01*
X125823800Y-108841000D01*
G75*
G02*
X125963800Y-108981000I0J-140000D01*
G01*
X125963800Y-109261000D01*
G75*
G02*
X125823800Y-109401000I-140000J0D01*
G01*
G37*
G04 #@! TD.AperFunction*
G04 #@! TA.AperFunction,SMDPad,CuDef*
G36*
G01*
X125823800Y-110361000D02*
X125483800Y-110361000D01*
G75*
G02*
X125343800Y-110221000I0J140000D01*
G01*
X125343800Y-109941000D01*
G75*
G02*
X125483800Y-109801000I140000J0D01*
G01*
X125823800Y-109801000D01*
G75*
G02*
X125963800Y-109941000I0J-140000D01*
G01*
X125963800Y-110221000D01*
G75*
G02*
X125823800Y-110361000I-140000J0D01*
G01*
G37*
G04 #@! TD.AperFunction*
G04 #@! TA.AperFunction,SMDPad,CuDef*
G36*
G01*
X116330100Y-102699700D02*
X115990100Y-102699700D01*
G75*
G02*
X115850100Y-102559700I0J140000D01*
G01*
X115850100Y-102279700D01*
G75*
G02*
X115990100Y-102139700I140000J0D01*
G01*
X116330100Y-102139700D01*
G75*
G02*
X116470100Y-102279700I0J-140000D01*
G01*
X116470100Y-102559700D01*
G75*
G02*
X116330100Y-102699700I-140000J0D01*
G01*
G37*
G04 #@! TD.AperFunction*
G04 #@! TA.AperFunction,SMDPad,CuDef*
G36*
G01*
X116330100Y-101739700D02*
X115990100Y-101739700D01*
G75*
G02*
X115850100Y-101599700I0J140000D01*
G01*
X115850100Y-101319700D01*
G75*
G02*
X115990100Y-101179700I140000J0D01*
G01*
X116330100Y-101179700D01*
G75*
G02*
X116470100Y-101319700I0J-140000D01*
G01*
X116470100Y-101599700D01*
G75*
G02*
X116330100Y-101739700I-140000J0D01*
G01*
G37*
G04 #@! TD.AperFunction*
G04 #@! TA.AperFunction,SMDPad,CuDef*
G36*
G01*
X114058880Y-112899920D02*
X114398880Y-112899920D01*
G75*
G02*
X114538880Y-113039920I0J-140000D01*
G01*
X114538880Y-113319920D01*
G75*
G02*
X114398880Y-113459920I-140000J0D01*
G01*
X114058880Y-113459920D01*
G75*
G02*
X113918880Y-113319920I0J140000D01*
G01*
X113918880Y-113039920D01*
G75*
G02*
X114058880Y-112899920I140000J0D01*
G01*
G37*
G04 #@! TD.AperFunction*
G04 #@! TA.AperFunction,SMDPad,CuDef*
G36*
G01*
X114058880Y-113859920D02*
X114398880Y-113859920D01*
G75*
G02*
X114538880Y-113999920I0J-140000D01*
G01*
X114538880Y-114279920D01*
G75*
G02*
X114398880Y-114419920I-140000J0D01*
G01*
X114058880Y-114419920D01*
G75*
G02*
X113918880Y-114279920I0J140000D01*
G01*
X113918880Y-113999920D01*
G75*
G02*
X114058880Y-113859920I140000J0D01*
G01*
G37*
G04 #@! TD.AperFunction*
G04 #@! TA.AperFunction,SMDPad,CuDef*
G36*
G01*
X115330100Y-102699700D02*
X114990100Y-102699700D01*
G75*
G02*
X114850100Y-102559700I0J140000D01*
G01*
X114850100Y-102279700D01*
G75*
G02*
X114990100Y-102139700I140000J0D01*
G01*
X115330100Y-102139700D01*
G75*
G02*
X115470100Y-102279700I0J-140000D01*
G01*
X115470100Y-102559700D01*
G75*
G02*
X115330100Y-102699700I-140000J0D01*
G01*
G37*
G04 #@! TD.AperFunction*
G04 #@! TA.AperFunction,SMDPad,CuDef*
G36*
G01*
X115330100Y-101739700D02*
X114990100Y-101739700D01*
G75*
G02*
X114850100Y-101599700I0J140000D01*
G01*
X114850100Y-101319700D01*
G75*
G02*
X114990100Y-101179700I140000J0D01*
G01*
X115330100Y-101179700D01*
G75*
G02*
X115470100Y-101319700I0J-140000D01*
G01*
X115470100Y-101599700D01*
G75*
G02*
X115330100Y-101739700I-140000J0D01*
G01*
G37*
G04 #@! TD.AperFunction*
G04 #@! TA.AperFunction,SMDPad,CuDef*
G36*
G01*
X119436400Y-101752400D02*
X119096400Y-101752400D01*
G75*
G02*
X118956400Y-101612400I0J140000D01*
G01*
X118956400Y-101332400D01*
G75*
G02*
X119096400Y-101192400I140000J0D01*
G01*
X119436400Y-101192400D01*
G75*
G02*
X119576400Y-101332400I0J-140000D01*
G01*
X119576400Y-101612400D01*
G75*
G02*
X119436400Y-101752400I-140000J0D01*
G01*
G37*
G04 #@! TD.AperFunction*
G04 #@! TA.AperFunction,SMDPad,CuDef*
G36*
G01*
X119436400Y-102712400D02*
X119096400Y-102712400D01*
G75*
G02*
X118956400Y-102572400I0J140000D01*
G01*
X118956400Y-102292400D01*
G75*
G02*
X119096400Y-102152400I140000J0D01*
G01*
X119436400Y-102152400D01*
G75*
G02*
X119576400Y-102292400I0J-140000D01*
G01*
X119576400Y-102572400D01*
G75*
G02*
X119436400Y-102712400I-140000J0D01*
G01*
G37*
G04 #@! TD.AperFunction*
G04 #@! TA.AperFunction,SMDPad,CuDef*
G36*
G01*
X118436400Y-102712400D02*
X118096400Y-102712400D01*
G75*
G02*
X117956400Y-102572400I0J140000D01*
G01*
X117956400Y-102292400D01*
G75*
G02*
X118096400Y-102152400I140000J0D01*
G01*
X118436400Y-102152400D01*
G75*
G02*
X118576400Y-102292400I0J-140000D01*
G01*
X118576400Y-102572400D01*
G75*
G02*
X118436400Y-102712400I-140000J0D01*
G01*
G37*
G04 #@! TD.AperFunction*
G04 #@! TA.AperFunction,SMDPad,CuDef*
G36*
G01*
X118436400Y-101752400D02*
X118096400Y-101752400D01*
G75*
G02*
X117956400Y-101612400I0J140000D01*
G01*
X117956400Y-101332400D01*
G75*
G02*
X118096400Y-101192400I140000J0D01*
G01*
X118436400Y-101192400D01*
G75*
G02*
X118576400Y-101332400I0J-140000D01*
G01*
X118576400Y-101612400D01*
G75*
G02*
X118436400Y-101752400I-140000J0D01*
G01*
G37*
G04 #@! TD.AperFunction*
G04 #@! TA.AperFunction,SMDPad,CuDef*
G36*
G01*
X126997280Y-109390840D02*
X126657280Y-109390840D01*
G75*
G02*
X126517280Y-109250840I0J140000D01*
G01*
X126517280Y-108970840D01*
G75*
G02*
X126657280Y-108830840I140000J0D01*
G01*
X126997280Y-108830840D01*
G75*
G02*
X127137280Y-108970840I0J-140000D01*
G01*
X127137280Y-109250840D01*
G75*
G02*
X126997280Y-109390840I-140000J0D01*
G01*
G37*
G04 #@! TD.AperFunction*
G04 #@! TA.AperFunction,SMDPad,CuDef*
G36*
G01*
X126997280Y-110350840D02*
X126657280Y-110350840D01*
G75*
G02*
X126517280Y-110210840I0J140000D01*
G01*
X126517280Y-109930840D01*
G75*
G02*
X126657280Y-109790840I140000J0D01*
G01*
X126997280Y-109790840D01*
G75*
G02*
X127137280Y-109930840I0J-140000D01*
G01*
X127137280Y-110210840D01*
G75*
G02*
X126997280Y-110350840I-140000J0D01*
G01*
G37*
G04 #@! TD.AperFunction*
G04 #@! TA.AperFunction,SMDPad,CuDef*
G36*
G01*
X123796400Y-109174100D02*
X123796400Y-108834100D01*
G75*
G02*
X123936400Y-108694100I140000J0D01*
G01*
X124216400Y-108694100D01*
G75*
G02*
X124356400Y-108834100I0J-140000D01*
G01*
X124356400Y-109174100D01*
G75*
G02*
X124216400Y-109314100I-140000J0D01*
G01*
X123936400Y-109314100D01*
G75*
G02*
X123796400Y-109174100I0J140000D01*
G01*
G37*
G04 #@! TD.AperFunction*
G04 #@! TA.AperFunction,SMDPad,CuDef*
G36*
G01*
X122836400Y-109174100D02*
X122836400Y-108834100D01*
G75*
G02*
X122976400Y-108694100I140000J0D01*
G01*
X123256400Y-108694100D01*
G75*
G02*
X123396400Y-108834100I0J-140000D01*
G01*
X123396400Y-109174100D01*
G75*
G02*
X123256400Y-109314100I-140000J0D01*
G01*
X122976400Y-109314100D01*
G75*
G02*
X122836400Y-109174100I0J140000D01*
G01*
G37*
G04 #@! TD.AperFunction*
G04 #@! TA.AperFunction,SMDPad,CuDef*
G36*
G01*
X172745400Y-117213600D02*
X172375400Y-117213600D01*
G75*
G02*
X172240400Y-117078600I0J135000D01*
G01*
X172240400Y-116808600D01*
G75*
G02*
X172375400Y-116673600I135000J0D01*
G01*
X172745400Y-116673600D01*
G75*
G02*
X172880400Y-116808600I0J-135000D01*
G01*
X172880400Y-117078600D01*
G75*
G02*
X172745400Y-117213600I-135000J0D01*
G01*
G37*
G04 #@! TD.AperFunction*
G04 #@! TA.AperFunction,SMDPad,CuDef*
G36*
G01*
X172745400Y-116193600D02*
X172375400Y-116193600D01*
G75*
G02*
X172240400Y-116058600I0J135000D01*
G01*
X172240400Y-115788600D01*
G75*
G02*
X172375400Y-115653600I135000J0D01*
G01*
X172745400Y-115653600D01*
G75*
G02*
X172880400Y-115788600I0J-135000D01*
G01*
X172880400Y-116058600D01*
G75*
G02*
X172745400Y-116193600I-135000J0D01*
G01*
G37*
G04 #@! TD.AperFunction*
G04 #@! TA.AperFunction,SMDPad,CuDef*
G36*
G01*
X170040000Y-98385000D02*
X170040000Y-98015000D01*
G75*
G02*
X170175000Y-97880000I135000J0D01*
G01*
X170445000Y-97880000D01*
G75*
G02*
X170580000Y-98015000I0J-135000D01*
G01*
X170580000Y-98385000D01*
G75*
G02*
X170445000Y-98520000I-135000J0D01*
G01*
X170175000Y-98520000D01*
G75*
G02*
X170040000Y-98385000I0J135000D01*
G01*
G37*
G04 #@! TD.AperFunction*
G04 #@! TA.AperFunction,SMDPad,CuDef*
G36*
G01*
X169020000Y-98385000D02*
X169020000Y-98015000D01*
G75*
G02*
X169155000Y-97880000I135000J0D01*
G01*
X169425000Y-97880000D01*
G75*
G02*
X169560000Y-98015000I0J-135000D01*
G01*
X169560000Y-98385000D01*
G75*
G02*
X169425000Y-98520000I-135000J0D01*
G01*
X169155000Y-98520000D01*
G75*
G02*
X169020000Y-98385000I0J135000D01*
G01*
G37*
G04 #@! TD.AperFunction*
G04 #@! TA.AperFunction,SMDPad,CuDef*
G36*
G01*
X175415000Y-111088000D02*
X175785000Y-111088000D01*
G75*
G02*
X175920000Y-111223000I0J-135000D01*
G01*
X175920000Y-111493000D01*
G75*
G02*
X175785000Y-111628000I-135000J0D01*
G01*
X175415000Y-111628000D01*
G75*
G02*
X175280000Y-111493000I0J135000D01*
G01*
X175280000Y-111223000D01*
G75*
G02*
X175415000Y-111088000I135000J0D01*
G01*
G37*
G04 #@! TD.AperFunction*
G04 #@! TA.AperFunction,SMDPad,CuDef*
G36*
G01*
X175415000Y-112108000D02*
X175785000Y-112108000D01*
G75*
G02*
X175920000Y-112243000I0J-135000D01*
G01*
X175920000Y-112513000D01*
G75*
G02*
X175785000Y-112648000I-135000J0D01*
G01*
X175415000Y-112648000D01*
G75*
G02*
X175280000Y-112513000I0J135000D01*
G01*
X175280000Y-112243000D01*
G75*
G02*
X175415000Y-112108000I135000J0D01*
G01*
G37*
G04 #@! TD.AperFunction*
G04 #@! TA.AperFunction,SMDPad,CuDef*
G36*
G01*
X176610000Y-106985000D02*
X176610000Y-106615000D01*
G75*
G02*
X176745000Y-106480000I135000J0D01*
G01*
X177015000Y-106480000D01*
G75*
G02*
X177150000Y-106615000I0J-135000D01*
G01*
X177150000Y-106985000D01*
G75*
G02*
X177015000Y-107120000I-135000J0D01*
G01*
X176745000Y-107120000D01*
G75*
G02*
X176610000Y-106985000I0J135000D01*
G01*
G37*
G04 #@! TD.AperFunction*
G04 #@! TA.AperFunction,SMDPad,CuDef*
G36*
G01*
X177630000Y-106985000D02*
X177630000Y-106615000D01*
G75*
G02*
X177765000Y-106480000I135000J0D01*
G01*
X178035000Y-106480000D01*
G75*
G02*
X178170000Y-106615000I0J-135000D01*
G01*
X178170000Y-106985000D01*
G75*
G02*
X178035000Y-107120000I-135000J0D01*
G01*
X177765000Y-107120000D01*
G75*
G02*
X177630000Y-106985000I0J135000D01*
G01*
G37*
G04 #@! TD.AperFunction*
G04 #@! TA.AperFunction,SMDPad,CuDef*
G36*
G01*
X113057520Y-114439920D02*
X112687520Y-114439920D01*
G75*
G02*
X112552520Y-114304920I0J135000D01*
G01*
X112552520Y-114034920D01*
G75*
G02*
X112687520Y-113899920I135000J0D01*
G01*
X113057520Y-113899920D01*
G75*
G02*
X113192520Y-114034920I0J-135000D01*
G01*
X113192520Y-114304920D01*
G75*
G02*
X113057520Y-114439920I-135000J0D01*
G01*
G37*
G04 #@! TD.AperFunction*
G04 #@! TA.AperFunction,SMDPad,CuDef*
G36*
G01*
X113057520Y-113419920D02*
X112687520Y-113419920D01*
G75*
G02*
X112552520Y-113284920I0J135000D01*
G01*
X112552520Y-113014920D01*
G75*
G02*
X112687520Y-112879920I135000J0D01*
G01*
X113057520Y-112879920D01*
G75*
G02*
X113192520Y-113014920I0J-135000D01*
G01*
X113192520Y-113284920D01*
G75*
G02*
X113057520Y-113419920I-135000J0D01*
G01*
G37*
G04 #@! TD.AperFunction*
G04 #@! TA.AperFunction,SMDPad,CuDef*
G36*
G01*
X115135440Y-115323200D02*
X115135440Y-114953200D01*
G75*
G02*
X115270440Y-114818200I135000J0D01*
G01*
X115540440Y-114818200D01*
G75*
G02*
X115675440Y-114953200I0J-135000D01*
G01*
X115675440Y-115323200D01*
G75*
G02*
X115540440Y-115458200I-135000J0D01*
G01*
X115270440Y-115458200D01*
G75*
G02*
X115135440Y-115323200I0J135000D01*
G01*
G37*
G04 #@! TD.AperFunction*
G04 #@! TA.AperFunction,SMDPad,CuDef*
G36*
G01*
X116155440Y-115323200D02*
X116155440Y-114953200D01*
G75*
G02*
X116290440Y-114818200I135000J0D01*
G01*
X116560440Y-114818200D01*
G75*
G02*
X116695440Y-114953200I0J-135000D01*
G01*
X116695440Y-115323200D01*
G75*
G02*
X116560440Y-115458200I-135000J0D01*
G01*
X116290440Y-115458200D01*
G75*
G02*
X116155440Y-115323200I0J135000D01*
G01*
G37*
G04 #@! TD.AperFunction*
G04 #@! TA.AperFunction,SMDPad,CuDef*
G36*
G01*
X115132400Y-116620900D02*
X115132400Y-116250900D01*
G75*
G02*
X115267400Y-116115900I135000J0D01*
G01*
X115537400Y-116115900D01*
G75*
G02*
X115672400Y-116250900I0J-135000D01*
G01*
X115672400Y-116620900D01*
G75*
G02*
X115537400Y-116755900I-135000J0D01*
G01*
X115267400Y-116755900D01*
G75*
G02*
X115132400Y-116620900I0J135000D01*
G01*
G37*
G04 #@! TD.AperFunction*
G04 #@! TA.AperFunction,SMDPad,CuDef*
G36*
G01*
X116152400Y-116620900D02*
X116152400Y-116250900D01*
G75*
G02*
X116287400Y-116115900I135000J0D01*
G01*
X116557400Y-116115900D01*
G75*
G02*
X116692400Y-116250900I0J-135000D01*
G01*
X116692400Y-116620900D01*
G75*
G02*
X116557400Y-116755900I-135000J0D01*
G01*
X116287400Y-116755900D01*
G75*
G02*
X116152400Y-116620900I0J135000D01*
G01*
G37*
G04 #@! TD.AperFunction*
G04 #@! TA.AperFunction,SMDPad,CuDef*
G36*
G01*
X116152400Y-117914000D02*
X116152400Y-117544000D01*
G75*
G02*
X116287400Y-117409000I135000J0D01*
G01*
X116557400Y-117409000D01*
G75*
G02*
X116692400Y-117544000I0J-135000D01*
G01*
X116692400Y-117914000D01*
G75*
G02*
X116557400Y-118049000I-135000J0D01*
G01*
X116287400Y-118049000D01*
G75*
G02*
X116152400Y-117914000I0J135000D01*
G01*
G37*
G04 #@! TD.AperFunction*
G04 #@! TA.AperFunction,SMDPad,CuDef*
G36*
G01*
X115132400Y-117914000D02*
X115132400Y-117544000D01*
G75*
G02*
X115267400Y-117409000I135000J0D01*
G01*
X115537400Y-117409000D01*
G75*
G02*
X115672400Y-117544000I0J-135000D01*
G01*
X115672400Y-117914000D01*
G75*
G02*
X115537400Y-118049000I-135000J0D01*
G01*
X115267400Y-118049000D01*
G75*
G02*
X115132400Y-117914000I0J135000D01*
G01*
G37*
G04 #@! TD.AperFunction*
G04 #@! TA.AperFunction,SMDPad,CuDef*
G36*
G01*
X123381800Y-110051000D02*
X123381800Y-110421000D01*
G75*
G02*
X123246800Y-110556000I-135000J0D01*
G01*
X122976800Y-110556000D01*
G75*
G02*
X122841800Y-110421000I0J135000D01*
G01*
X122841800Y-110051000D01*
G75*
G02*
X122976800Y-109916000I135000J0D01*
G01*
X123246800Y-109916000D01*
G75*
G02*
X123381800Y-110051000I0J-135000D01*
G01*
G37*
G04 #@! TD.AperFunction*
G04 #@! TA.AperFunction,SMDPad,CuDef*
G36*
G01*
X124401800Y-110051000D02*
X124401800Y-110421000D01*
G75*
G02*
X124266800Y-110556000I-135000J0D01*
G01*
X123996800Y-110556000D01*
G75*
G02*
X123861800Y-110421000I0J135000D01*
G01*
X123861800Y-110051000D01*
G75*
G02*
X123996800Y-109916000I135000J0D01*
G01*
X124266800Y-109916000D01*
G75*
G02*
X124401800Y-110051000I0J-135000D01*
G01*
G37*
G04 #@! TD.AperFunction*
D28*
X120396000Y-103073200D03*
X173583600Y-109347000D03*
X175000000Y-105300000D03*
X176915000Y-108227000D03*
X180805000Y-106257000D03*
X180800000Y-110000000D03*
X163900000Y-119700000D03*
X104500000Y-109700000D03*
X181300000Y-114500000D03*
X175900000Y-119700000D03*
X172000000Y-119700000D03*
X167800000Y-119700000D03*
X168700000Y-115700000D03*
X170200000Y-112700000D03*
X176052400Y-114703200D03*
X168900000Y-105300000D03*
X171200000Y-102400000D03*
X178100000Y-111400000D03*
X163000000Y-116800000D03*
X181300000Y-112600000D03*
X104500000Y-114100000D03*
X156464000Y-115214400D03*
X113310700Y-118588700D03*
X105232200Y-119989600D03*
X102743000Y-96139000D03*
X102743000Y-97409000D03*
X104013000Y-97409000D03*
X117030500Y-108750100D03*
X120523000Y-101473000D03*
X116459000Y-113919000D03*
X104775000Y-92837000D03*
X109855000Y-92837000D03*
X114935000Y-92837000D03*
X107315000Y-95377000D03*
X112395000Y-95377000D03*
X117475000Y-95377000D03*
X132715000Y-118237000D03*
X135255000Y-118237000D03*
X137795000Y-118237000D03*
X140335000Y-118237000D03*
X142875000Y-118237000D03*
X145415000Y-118237000D03*
X147955000Y-118237000D03*
X150495000Y-118237000D03*
X153035000Y-118237000D03*
X132715000Y-115697000D03*
X135255000Y-115697000D03*
X137795000Y-115697000D03*
X140335000Y-115697000D03*
X142875000Y-115697000D03*
X145415000Y-115697000D03*
X147955000Y-115697000D03*
X150495000Y-115697000D03*
X153035000Y-115697000D03*
X132715000Y-113157000D03*
X132715000Y-108077000D03*
X135255000Y-108077000D03*
X135255000Y-110617000D03*
X135255000Y-113157000D03*
X137795000Y-113157000D03*
X137795000Y-110617000D03*
X137795000Y-108077000D03*
X140335000Y-108077000D03*
X140335000Y-110617000D03*
X140335000Y-113157000D03*
X142875000Y-113157000D03*
X142875000Y-110617000D03*
X142875000Y-108077000D03*
X145415000Y-108077000D03*
X145415000Y-110617000D03*
X145415000Y-113157000D03*
X147955000Y-113157000D03*
X150495000Y-113157000D03*
X153035000Y-113157000D03*
X163195000Y-113157000D03*
X163195000Y-110617000D03*
X165735000Y-110617000D03*
X165735000Y-113157000D03*
X135255000Y-100457000D03*
X135255000Y-102997000D03*
X137795000Y-102997000D03*
X137795000Y-100457000D03*
X140335000Y-100457000D03*
X140335000Y-102997000D03*
X142875000Y-100457000D03*
X142875000Y-102997000D03*
X145415000Y-102997000D03*
X160655000Y-102997000D03*
X160655000Y-100457000D03*
X163195000Y-100457000D03*
X160655000Y-113157000D03*
X130175000Y-108077000D03*
X130175000Y-113157000D03*
X132715000Y-110617000D03*
X130175000Y-110617000D03*
X123710700Y-101434900D03*
X123698000Y-100431600D03*
X123698000Y-99415600D03*
X102500000Y-113400000D03*
X101300000Y-111800000D03*
X102500000Y-111800000D03*
X95700000Y-101500000D03*
X95700000Y-99700000D03*
X94100000Y-101500000D03*
X101100000Y-97600000D03*
X101100000Y-96600000D03*
X101100000Y-95600000D03*
X101100000Y-94600000D03*
X98300000Y-95600000D03*
X98300000Y-96600000D03*
X98300000Y-97600000D03*
X99300000Y-94600000D03*
X102500000Y-117500000D03*
X100000000Y-117500000D03*
X97500000Y-117500000D03*
X97500000Y-120000000D03*
X100000000Y-120000000D03*
X102500000Y-120000000D03*
X95000000Y-120000000D03*
X92500000Y-120000000D03*
X90000000Y-120000000D03*
X87500000Y-120000000D03*
X85000000Y-120000000D03*
X85000000Y-117500000D03*
X85000000Y-105000000D03*
X85000000Y-102500000D03*
X85000000Y-100000000D03*
X85000000Y-97500000D03*
X85000000Y-95000000D03*
X85000000Y-92500000D03*
X87500000Y-92500000D03*
X87500000Y-95000000D03*
X90000000Y-95000000D03*
X92500000Y-95000000D03*
X92500000Y-92500000D03*
X90000000Y-92500000D03*
X95000000Y-95000000D03*
X95000000Y-92500000D03*
X95000000Y-97500000D03*
X95000000Y-115000000D03*
X95000000Y-112500000D03*
X88000000Y-108000000D03*
X88000000Y-109000000D03*
X88000000Y-110000000D03*
X120167400Y-107502960D03*
X113526570Y-110501460D03*
X119418766Y-110884369D03*
X120523000Y-108953300D03*
X115697000Y-111887000D03*
X116555500Y-103921647D03*
X121179536Y-102335008D03*
X117729000Y-113411000D03*
X116555500Y-112649000D03*
X100000000Y-101300000D03*
X99400000Y-100700000D03*
X100700000Y-100600000D03*
X103600000Y-103300000D03*
X104600000Y-103300000D03*
X104600000Y-102300000D03*
X103600000Y-102300000D03*
X103800000Y-111800000D03*
X171155000Y-117207000D03*
X173815000Y-117187000D03*
X100000000Y-92400000D03*
X100047325Y-93398891D03*
X121488200Y-109778800D03*
X122224800Y-106262010D03*
X112292393Y-110433427D03*
X112369598Y-107988102D03*
X112531768Y-104003232D03*
X113274232Y-103260768D03*
X158268437Y-115228210D03*
X115468400Y-104927400D03*
X159359600Y-114503200D03*
X114985800Y-103962200D03*
X97000000Y-106600000D03*
X164365000Y-101407000D03*
X164365000Y-102407000D03*
X164363400Y-103403372D03*
D29*
X170000000Y-109350000D02*
X169000000Y-108350000D01*
X171700000Y-109350000D02*
X170000000Y-109350000D01*
D30*
X174250000Y-106800000D02*
X171700000Y-109350000D01*
X176880000Y-106800000D02*
X174250000Y-106800000D01*
X150041400Y-105604100D02*
X150041400Y-108343700D01*
X142237300Y-97800000D02*
X150041400Y-105604100D01*
X125353998Y-97800000D02*
X142237300Y-97800000D01*
X124382001Y-96828003D02*
X125353998Y-97800000D01*
X124382001Y-94817999D02*
X124382001Y-96828003D01*
X125902000Y-93298000D02*
X124382001Y-94817999D01*
D31*
X153025900Y-111328200D02*
X150041400Y-108343700D01*
X158927800Y-111328200D02*
X153025900Y-111328200D01*
X163431001Y-106824999D02*
X158927800Y-111328200D01*
X167474999Y-106824999D02*
X163431001Y-106824999D01*
X169000000Y-108350000D02*
X167474999Y-106824999D01*
D32*
X171703000Y-109347000D02*
X171700000Y-109350000D01*
X173583600Y-109347000D02*
X171703000Y-109347000D01*
X117780500Y-106812600D02*
X117780500Y-105688700D01*
X117780500Y-105688700D02*
X120396000Y-103073200D01*
X102300000Y-99800000D02*
X102300000Y-98900000D01*
X98830000Y-99800000D02*
X102300000Y-99800000D01*
X97132000Y-101498000D02*
X98830000Y-99800000D01*
X115830510Y-107550110D02*
X117030500Y-108750100D01*
X115555510Y-107550110D02*
X115830510Y-107550110D01*
X115505500Y-107500100D02*
X115555510Y-107550110D01*
X115093000Y-107500100D02*
X115505500Y-107500100D01*
X125498800Y-108966000D02*
X125653800Y-109121000D01*
X124101800Y-108966000D02*
X125498800Y-108966000D01*
X126817120Y-109121000D02*
X126827280Y-109110840D01*
X125653800Y-109121000D02*
X126817120Y-109121000D01*
X157420000Y-116916296D02*
X157420000Y-116170400D01*
X157420000Y-116170400D02*
X156464000Y-115214400D01*
X115555490Y-107550090D02*
X115603512Y-107550090D01*
X115505500Y-107500100D02*
X115555490Y-107550090D01*
X114850100Y-101459700D02*
X115160100Y-101459700D01*
X114260798Y-102049002D02*
X114850100Y-101459700D01*
X114260798Y-106667898D02*
X114260798Y-102049002D01*
X115093000Y-107500100D02*
X114260798Y-106667898D01*
X118266400Y-101472400D02*
X119266400Y-101472400D01*
X166542000Y-96842000D02*
X166542000Y-95838000D01*
X178884000Y-101300000D02*
X171000000Y-101300000D01*
X171000000Y-101300000D02*
X166542000Y-96842000D01*
X180652000Y-103068000D02*
X178884000Y-101300000D01*
X169290000Y-96046000D02*
X169082000Y-95838000D01*
X169290000Y-98200000D02*
X169290000Y-96046000D01*
X173577001Y-97793001D02*
X171622000Y-95838000D01*
X181827001Y-110433001D02*
X181827001Y-98903999D01*
X179286992Y-112973010D02*
X181827001Y-110433001D01*
X180716003Y-97793001D02*
X173577001Y-97793001D01*
X175224456Y-112973010D02*
X179286992Y-112973010D01*
X174954990Y-112703544D02*
X175224456Y-112973010D01*
X174954990Y-112003010D02*
X174954990Y-112703544D01*
X181827001Y-98903999D02*
X180716003Y-97793001D01*
X175600000Y-111358000D02*
X174954990Y-112003010D01*
D29*
X105396998Y-107868000D02*
X105907000Y-107868000D01*
X104706999Y-107178001D02*
X105396998Y-107868000D01*
X104706999Y-105357999D02*
X104706999Y-107178001D01*
X105700001Y-102299999D02*
X105700001Y-104364997D01*
X105700001Y-104364997D02*
X104706999Y-105357999D01*
X105732000Y-102268000D02*
X105700001Y-102299999D01*
X105907000Y-102268000D02*
X105732000Y-102268000D01*
X108759400Y-99415600D02*
X123698000Y-99415600D01*
X105907000Y-102268000D02*
X108759400Y-99415600D01*
X123698000Y-101422200D02*
X123710700Y-101434900D01*
X123698000Y-99415600D02*
X123698000Y-101422200D01*
D32*
X125498800Y-110236000D02*
X125653800Y-110081000D01*
X124131800Y-110236000D02*
X125498800Y-110236000D01*
X126817120Y-110081000D02*
X126827280Y-110070840D01*
X125653800Y-110081000D02*
X126817120Y-110081000D01*
D30*
X115402400Y-116435900D02*
X115402400Y-117729000D01*
D32*
X120164540Y-107500100D02*
X120167400Y-107502960D01*
X118968000Y-107500100D02*
X120164540Y-107500100D01*
X111429800Y-112598230D02*
X113526570Y-110501460D01*
X111429800Y-118331800D02*
X111429800Y-112598230D01*
X112465000Y-119367000D02*
X111429800Y-118331800D01*
X115402400Y-116435900D02*
X115402400Y-117859600D01*
X113895000Y-119367000D02*
X112465000Y-119367000D01*
X114027930Y-110000100D02*
X113526570Y-110501460D01*
X115402400Y-117859600D02*
X113895000Y-119367000D01*
X115093000Y-110000100D02*
X114027930Y-110000100D01*
X124131800Y-110556000D02*
X123245391Y-111442409D01*
X119976806Y-111442409D02*
X119418766Y-110884369D01*
X124131800Y-110236000D02*
X124131800Y-110556000D01*
X123245391Y-111442409D02*
X119976806Y-111442409D01*
X116160100Y-102419700D02*
X115160100Y-102419700D01*
X118968000Y-109000100D02*
X120476200Y-109000100D01*
X120535700Y-108966000D02*
X120523000Y-108953300D01*
X120476200Y-109000100D02*
X120523000Y-108953300D01*
X120573800Y-109004100D02*
X120523000Y-108953300D01*
X123116400Y-109004100D02*
X120573800Y-109004100D01*
X116280500Y-110687600D02*
X116280500Y-111303500D01*
X116280500Y-111303500D02*
X115697000Y-111887000D01*
X114681000Y-111887000D02*
X115697000Y-111887000D01*
X114228880Y-112339120D02*
X114681000Y-111887000D01*
X114228880Y-113179920D02*
X114228880Y-112339120D01*
X116555500Y-103921647D02*
X116437753Y-103803900D01*
X116780500Y-104146647D02*
X116437753Y-103803900D01*
X116780500Y-106812600D02*
X116780500Y-104146647D01*
X116160100Y-103526248D02*
X116160100Y-102419700D01*
X116437752Y-103803900D02*
X116160100Y-103526248D01*
X116437753Y-103803900D02*
X116437752Y-103803900D01*
X121179536Y-103635864D02*
X121179536Y-102335008D01*
X118280500Y-106812600D02*
X118280500Y-105853876D01*
X118724445Y-105409931D02*
X119405469Y-105409931D01*
X119405469Y-105409931D02*
X121179536Y-103635864D01*
X118280500Y-105853876D02*
X118724445Y-105409931D01*
X117280500Y-110687600D02*
X117317615Y-110724715D01*
X117280500Y-110687600D02*
X117280500Y-112962500D01*
X117280500Y-112962500D02*
X117729000Y-113411000D01*
X116780500Y-112424000D02*
X116555500Y-112649000D01*
X116780500Y-110687600D02*
X116780500Y-112424000D01*
D29*
X91548000Y-102516000D02*
X92312000Y-102516000D01*
X90532000Y-103532000D02*
X91548000Y-102516000D01*
D31*
X99957000Y-111868000D02*
X99957000Y-112968000D01*
X99957000Y-112968000D02*
X96125000Y-116800000D01*
X96125000Y-116800000D02*
X87600000Y-116800000D01*
X87600000Y-116800000D02*
X84700000Y-113900000D01*
X84700000Y-113900000D02*
X84700000Y-109364000D01*
X84700000Y-109364000D02*
X90532000Y-103532000D01*
D29*
X92045999Y-106313999D02*
X92312000Y-106580000D01*
X91281999Y-106313999D02*
X92045999Y-106313999D01*
X90532000Y-105564000D02*
X91281999Y-106313999D01*
D30*
X95020000Y-106580000D02*
X92312000Y-106580000D01*
X96200000Y-105400000D02*
X95020000Y-106580000D01*
X97489000Y-105400000D02*
X96200000Y-105400000D01*
X99957000Y-107868000D02*
X97489000Y-105400000D01*
D31*
X99957000Y-101343000D02*
X100000000Y-101300000D01*
X99957000Y-102268000D02*
X99957000Y-101343000D01*
X100000000Y-101300000D02*
X99400000Y-100700000D01*
X99500000Y-100600000D02*
X99400000Y-100700000D01*
X100700000Y-100600000D02*
X99500000Y-100600000D01*
X100000000Y-101300000D02*
X100700000Y-100600000D01*
X100632000Y-106268000D02*
X103600000Y-103300000D01*
X99957000Y-106268000D02*
X100632000Y-106268000D01*
X104600000Y-103300000D02*
X104600000Y-102300000D01*
D32*
X103300000Y-103600000D02*
X103600000Y-103300000D01*
X103300000Y-111300000D02*
X103300000Y-103600000D01*
X103800000Y-111800000D02*
X103300000Y-111300000D01*
X171418400Y-116943600D02*
X171155000Y-117207000D01*
X172560400Y-116943600D02*
X171418400Y-116943600D01*
X174083800Y-116918200D02*
X173815000Y-117187000D01*
X175082200Y-116918200D02*
X174083800Y-116918200D01*
D31*
X179332000Y-111768000D02*
X179332000Y-109368000D01*
X177928000Y-106828000D02*
X177900000Y-106800000D01*
X179332000Y-106828000D02*
X177928000Y-106828000D01*
D29*
X170000000Y-110650000D02*
X169000000Y-111650000D01*
X171700000Y-110650000D02*
X170000000Y-110650000D01*
D30*
X164592705Y-118091297D02*
X169000000Y-113684002D01*
X169000000Y-113684002D02*
X169000000Y-111650000D01*
X160655999Y-118091297D02*
X164592705Y-118091297D01*
X160020000Y-117455298D02*
X160655999Y-118091297D01*
X160020000Y-116916296D02*
X160020000Y-117455298D01*
D32*
X147460000Y-94600000D02*
X146222000Y-95838000D01*
X170300000Y-95100000D02*
X169800000Y-94600000D01*
X170300000Y-98400000D02*
X170300000Y-95100000D01*
X171368000Y-99468000D02*
X170300000Y-98400000D01*
X169800000Y-94600000D02*
X147460000Y-94600000D01*
X173032000Y-99468000D02*
X171368000Y-99468000D01*
X145046999Y-94662999D02*
X146222000Y-95838000D01*
X127877999Y-94662999D02*
X145046999Y-94662999D01*
X126702998Y-95838000D02*
X127877999Y-94662999D01*
X125902000Y-95838000D02*
X126702998Y-95838000D01*
X155820000Y-117316296D02*
X156220000Y-116916296D01*
X177292000Y-112378000D02*
X177332000Y-112418000D01*
X175600000Y-112378000D02*
X177292000Y-112378000D01*
X101290000Y-92400000D02*
X106814997Y-97924997D01*
X106814997Y-97924997D02*
X124010548Y-97924997D01*
X124010548Y-97924997D02*
X124985720Y-98900169D01*
X124985720Y-104574094D02*
X121331853Y-108227961D01*
X121331853Y-108227961D02*
X119700661Y-108227961D01*
X100000000Y-92400000D02*
X101290000Y-92400000D01*
X119700661Y-108227961D02*
X119428522Y-108500100D01*
X119428522Y-108500100D02*
X118968000Y-108500100D01*
X124985720Y-98900169D02*
X124985720Y-104574094D01*
X118968000Y-109500100D02*
X119743910Y-109500100D01*
X120022610Y-109778800D02*
X121488200Y-109778800D01*
X119743910Y-109500100D02*
X120022610Y-109778800D01*
X124535709Y-103951101D02*
X122224800Y-106262010D01*
X123824148Y-98375008D02*
X124535709Y-99086569D01*
X124535709Y-99086569D02*
X124535709Y-103951101D01*
X100047325Y-93398891D02*
X101526891Y-93398891D01*
X101526891Y-93398891D02*
X106503008Y-98375008D01*
X106503008Y-98375008D02*
X123824148Y-98375008D01*
X113157000Y-112865440D02*
X112872520Y-113149920D01*
X113157000Y-112141000D02*
X113157000Y-112865440D01*
X113919000Y-111379000D02*
X113157000Y-112141000D01*
X115089100Y-111379000D02*
X113919000Y-111379000D01*
X115780500Y-110687600D02*
X115089100Y-111379000D01*
D30*
X116425440Y-116432860D02*
X116422400Y-116435900D01*
X116425440Y-115138200D02*
X116425440Y-116432860D01*
D32*
X117780500Y-112389496D02*
X117780500Y-110687600D01*
X118454002Y-113062998D02*
X117780500Y-112389496D01*
X117074804Y-115138200D02*
X118454002Y-113759002D01*
X118454002Y-113759002D02*
X118454002Y-113062998D01*
X116425440Y-115138200D02*
X117074804Y-115138200D01*
X118904013Y-112876598D02*
X118904013Y-114927387D01*
X118280500Y-112253085D02*
X118904013Y-112876598D01*
X118904013Y-114927387D02*
X116422400Y-117409000D01*
X116422400Y-117409000D02*
X116422400Y-117729000D01*
X118280500Y-110687600D02*
X118280500Y-112253085D01*
X123111800Y-110236000D02*
X122843999Y-110503801D01*
X119607499Y-110000100D02*
X118968000Y-110000100D01*
X120111200Y-110503801D02*
X119607499Y-110000100D01*
X122843999Y-110503801D02*
X120111200Y-110503801D01*
X115092468Y-109499568D02*
X113226252Y-109499568D01*
X115093000Y-109500100D02*
X115092468Y-109499568D01*
X113226252Y-109499568D02*
X112292393Y-110433427D01*
X115093000Y-109000100D02*
X113381596Y-109000100D01*
X113381596Y-109000100D02*
X112369598Y-107988102D01*
D33*
X114531449Y-108500100D02*
X115093000Y-108500100D01*
X112531768Y-104003232D02*
X112531768Y-106500419D01*
X112531768Y-106500419D02*
X114531449Y-108500100D01*
X113274232Y-103260768D02*
X113274232Y-106606500D01*
X113274232Y-106606500D02*
X114667832Y-108000100D01*
X114667832Y-108000100D02*
X115093000Y-108000100D01*
D32*
X158720000Y-116916296D02*
X158720000Y-115679773D01*
X158720000Y-115679773D02*
X158268437Y-115228210D01*
X115468400Y-105511600D02*
X115468400Y-104927400D01*
X116280500Y-106323700D02*
X115468400Y-105511600D01*
X116280500Y-106812600D02*
X116280500Y-106323700D01*
X159370000Y-115991296D02*
X159370000Y-116916296D01*
X159370000Y-114513600D02*
X159370000Y-115991296D01*
X159359600Y-114503200D02*
X159370000Y-114513600D01*
X114743399Y-104204601D02*
X114985800Y-103962200D01*
X114743399Y-105775499D02*
X114743399Y-104204601D01*
X115780500Y-106812600D02*
X114743399Y-105775499D01*
D30*
X89421999Y-110828001D02*
X92771999Y-110828001D01*
X92771999Y-110828001D02*
X97000000Y-106600000D01*
X89331999Y-110738001D02*
X89421999Y-110828001D01*
X89331999Y-107735341D02*
X89331999Y-110738001D01*
X89471340Y-107596000D02*
X89331999Y-107735341D01*
X90532000Y-107596000D02*
X89471340Y-107596000D01*
D32*
X118266400Y-102432400D02*
X119266400Y-102432400D01*
X117280500Y-106812600D02*
X117280500Y-103418300D01*
X117280500Y-103418300D02*
X118266400Y-102432400D01*
D29*
X156841400Y-108343700D02*
X159423072Y-108343700D01*
X159423072Y-108343700D02*
X164363400Y-103403372D01*
X164365000Y-103401772D02*
X164363400Y-103403372D01*
X164365000Y-101407000D02*
X164365000Y-103401772D01*
D34*
X177364160Y-107671847D02*
X177539620Y-107765632D01*
X177691232Y-107811623D01*
X177730006Y-107823385D01*
X177928000Y-107842886D01*
X177977608Y-107838000D01*
X178620630Y-107838000D01*
X178747008Y-107922443D01*
X178931580Y-107998895D01*
X178857099Y-108021489D01*
X178642551Y-108136167D01*
X178454498Y-108290498D01*
X178300167Y-108478552D01*
X178185489Y-108693100D01*
X178114870Y-108925899D01*
X178097000Y-109107336D01*
X178097000Y-109628665D01*
X178114870Y-109810102D01*
X178185489Y-110042901D01*
X178300168Y-110257449D01*
X178322001Y-110284052D01*
X178322000Y-111673000D01*
X178049333Y-111673000D01*
X178036494Y-111662463D01*
X177926180Y-111603498D01*
X177806482Y-111567188D01*
X177682000Y-111554928D01*
X176982000Y-111554928D01*
X176857518Y-111567188D01*
X176737820Y-111603498D01*
X176710689Y-111618000D01*
X176545761Y-111618000D01*
X176558072Y-111493000D01*
X176558072Y-111223000D01*
X176543218Y-111072181D01*
X176499225Y-110927158D01*
X176427786Y-110793504D01*
X176331644Y-110676356D01*
X176214496Y-110580214D01*
X176080842Y-110508775D01*
X175935819Y-110464782D01*
X175785000Y-110449928D01*
X175415000Y-110449928D01*
X175264181Y-110464782D01*
X175119158Y-110508775D01*
X174985504Y-110580214D01*
X174868356Y-110676356D01*
X174772214Y-110793504D01*
X174700775Y-110927158D01*
X174656782Y-111072181D01*
X174641928Y-111223000D01*
X174641928Y-111241271D01*
X174443992Y-111439207D01*
X174414989Y-111463009D01*
X174378269Y-111507753D01*
X174320016Y-111578734D01*
X174263299Y-111684844D01*
X174249444Y-111710764D01*
X174205987Y-111854025D01*
X174194990Y-111965678D01*
X174194990Y-111965688D01*
X174191314Y-112003010D01*
X174194990Y-112040332D01*
X174194990Y-112666222D01*
X174191314Y-112703544D01*
X174194990Y-112740866D01*
X174194990Y-112740877D01*
X174205987Y-112852530D01*
X174229335Y-112929497D01*
X174249444Y-112995790D01*
X174320016Y-113127820D01*
X174389757Y-113212799D01*
X174414990Y-113243545D01*
X174443987Y-113267342D01*
X174660656Y-113484012D01*
X174684455Y-113513011D01*
X174800180Y-113607984D01*
X174932209Y-113678556D01*
X175075470Y-113722013D01*
X175187123Y-113733010D01*
X175187132Y-113733010D01*
X175224455Y-113736686D01*
X175261778Y-113733010D01*
X179249670Y-113733010D01*
X179286992Y-113736686D01*
X179324314Y-113733010D01*
X179324325Y-113733010D01*
X179435978Y-113722013D01*
X179579239Y-113678556D01*
X179711268Y-113607984D01*
X179826993Y-113513011D01*
X179850796Y-113484007D01*
X181822001Y-111512803D01*
X181822001Y-115935085D01*
X181538575Y-115510907D01*
X181089093Y-115061425D01*
X180560558Y-114708270D01*
X179973281Y-114465012D01*
X179349832Y-114341000D01*
X178714168Y-114341000D01*
X178090719Y-114465012D01*
X177503442Y-114708270D01*
X176974907Y-115061425D01*
X176525425Y-115510907D01*
X176172270Y-116039442D01*
X175983671Y-116494761D01*
X175981425Y-116487358D01*
X175909986Y-116353704D01*
X175813844Y-116236556D01*
X175696696Y-116140414D01*
X175563042Y-116068975D01*
X175418019Y-116024982D01*
X175267200Y-116010128D01*
X174897200Y-116010128D01*
X174746381Y-116024982D01*
X174601358Y-116068975D01*
X174467704Y-116140414D01*
X174446032Y-116158200D01*
X174121133Y-116158200D01*
X174083800Y-116154523D01*
X174046467Y-116158200D01*
X173980683Y-116164679D01*
X173916939Y-116152000D01*
X173713061Y-116152000D01*
X173513102Y-116191774D01*
X173324744Y-116269795D01*
X173307780Y-116281130D01*
X173292044Y-116261956D01*
X173174896Y-116165814D01*
X173041242Y-116094375D01*
X172896219Y-116050382D01*
X172745400Y-116035528D01*
X172375400Y-116035528D01*
X172224581Y-116050382D01*
X172079558Y-116094375D01*
X171945904Y-116165814D01*
X171924232Y-116183600D01*
X171455723Y-116183600D01*
X171418400Y-116179924D01*
X171381077Y-116183600D01*
X171381067Y-116183600D01*
X171337051Y-116187935D01*
X171256939Y-116172000D01*
X171053061Y-116172000D01*
X170853102Y-116211774D01*
X170664744Y-116289795D01*
X170495226Y-116403063D01*
X170351063Y-116547226D01*
X170237795Y-116716744D01*
X170159774Y-116905102D01*
X170120000Y-117105061D01*
X170120000Y-117308939D01*
X170159774Y-117508898D01*
X170237795Y-117697256D01*
X170351063Y-117866774D01*
X170495226Y-118010937D01*
X170664744Y-118124205D01*
X170853102Y-118202226D01*
X171053061Y-118242000D01*
X171256939Y-118242000D01*
X171456898Y-118202226D01*
X171645256Y-118124205D01*
X171814774Y-118010937D01*
X171958937Y-117866774D01*
X172027088Y-117764779D01*
X172079558Y-117792825D01*
X172224581Y-117836818D01*
X172375400Y-117851672D01*
X172745400Y-117851672D01*
X172896219Y-117836818D01*
X172986177Y-117809529D01*
X173011063Y-117846774D01*
X173155226Y-117990937D01*
X173324744Y-118104205D01*
X173513102Y-118182226D01*
X173713061Y-118222000D01*
X173916939Y-118222000D01*
X174116898Y-118182226D01*
X174305256Y-118104205D01*
X174474774Y-117990937D01*
X174618937Y-117846774D01*
X174660058Y-117785232D01*
X174746381Y-117811418D01*
X174897200Y-117826272D01*
X175267200Y-117826272D01*
X175418019Y-117811418D01*
X175563042Y-117767425D01*
X175696696Y-117695986D01*
X175805000Y-117607102D01*
X175805000Y-117885832D01*
X175929012Y-118509281D01*
X176172270Y-119096558D01*
X176525425Y-119625093D01*
X176974907Y-120074575D01*
X177399083Y-120358000D01*
X163391748Y-120358000D01*
X163437130Y-120208397D01*
X163455000Y-120026960D01*
X163455000Y-119205631D01*
X163437130Y-119024194D01*
X163422601Y-118976297D01*
X164549236Y-118976297D01*
X164592705Y-118980578D01*
X164636174Y-118976297D01*
X164636182Y-118976297D01*
X164766195Y-118963492D01*
X164933018Y-118912886D01*
X165086764Y-118830708D01*
X165221522Y-118720114D01*
X165249239Y-118686341D01*
X169595050Y-114340530D01*
X169628817Y-114312819D01*
X169694337Y-114232984D01*
X169735130Y-114183277D01*
X169739411Y-114178061D01*
X169821589Y-114024315D01*
X169872195Y-113857492D01*
X169885000Y-113727479D01*
X169885000Y-113727469D01*
X169889281Y-113684003D01*
X169885000Y-113640537D01*
X169885000Y-112667683D01*
X169954494Y-112630537D01*
X170051185Y-112551185D01*
X170130537Y-112454494D01*
X170189502Y-112344180D01*
X170225812Y-112224482D01*
X170238072Y-112100000D01*
X170238072Y-112017060D01*
X170470132Y-111785000D01*
X171394249Y-111785000D01*
X171400991Y-111785664D01*
X171425550Y-111785664D01*
X171450000Y-111788072D01*
X171950000Y-111788072D01*
X171974450Y-111785664D01*
X171999009Y-111785664D01*
X172123490Y-111773404D01*
X172219623Y-111754282D01*
X172339319Y-111717973D01*
X172429875Y-111680464D01*
X172540192Y-111621498D01*
X172621691Y-111567042D01*
X172718382Y-111487690D01*
X172787690Y-111418382D01*
X172867042Y-111321691D01*
X172921498Y-111240192D01*
X172980464Y-111129875D01*
X173017973Y-111039319D01*
X173054282Y-110919623D01*
X173073404Y-110823490D01*
X173085664Y-110699009D01*
X173085664Y-110674450D01*
X173088072Y-110650000D01*
X173088072Y-110260682D01*
X173093344Y-110264205D01*
X173281702Y-110342226D01*
X173481661Y-110382000D01*
X173685539Y-110382000D01*
X173885498Y-110342226D01*
X174073856Y-110264205D01*
X174243374Y-110150937D01*
X174387537Y-110006774D01*
X174500805Y-109837256D01*
X174578826Y-109648898D01*
X174618600Y-109448939D01*
X174618600Y-109245061D01*
X174578826Y-109045102D01*
X174500805Y-108856744D01*
X174387537Y-108687226D01*
X174243374Y-108543063D01*
X174073856Y-108429795D01*
X173930970Y-108370609D01*
X174616579Y-107685000D01*
X176422545Y-107685000D01*
X176449158Y-107699225D01*
X176594181Y-107743218D01*
X176745000Y-107758072D01*
X177015000Y-107758072D01*
X177165819Y-107743218D01*
X177310842Y-107699225D01*
X177363333Y-107671168D01*
X177364160Y-107671847D01*
G04 #@! TA.AperFunction,Conductor*
D35*
G36*
X177364160Y-107671847D02*
G01*
X177539620Y-107765632D01*
X177691232Y-107811623D01*
X177730006Y-107823385D01*
X177928000Y-107842886D01*
X177977608Y-107838000D01*
X178620630Y-107838000D01*
X178747008Y-107922443D01*
X178931580Y-107998895D01*
X178857099Y-108021489D01*
X178642551Y-108136167D01*
X178454498Y-108290498D01*
X178300167Y-108478552D01*
X178185489Y-108693100D01*
X178114870Y-108925899D01*
X178097000Y-109107336D01*
X178097000Y-109628665D01*
X178114870Y-109810102D01*
X178185489Y-110042901D01*
X178300168Y-110257449D01*
X178322001Y-110284052D01*
X178322000Y-111673000D01*
X178049333Y-111673000D01*
X178036494Y-111662463D01*
X177926180Y-111603498D01*
X177806482Y-111567188D01*
X177682000Y-111554928D01*
X176982000Y-111554928D01*
X176857518Y-111567188D01*
X176737820Y-111603498D01*
X176710689Y-111618000D01*
X176545761Y-111618000D01*
X176558072Y-111493000D01*
X176558072Y-111223000D01*
X176543218Y-111072181D01*
X176499225Y-110927158D01*
X176427786Y-110793504D01*
X176331644Y-110676356D01*
X176214496Y-110580214D01*
X176080842Y-110508775D01*
X175935819Y-110464782D01*
X175785000Y-110449928D01*
X175415000Y-110449928D01*
X175264181Y-110464782D01*
X175119158Y-110508775D01*
X174985504Y-110580214D01*
X174868356Y-110676356D01*
X174772214Y-110793504D01*
X174700775Y-110927158D01*
X174656782Y-111072181D01*
X174641928Y-111223000D01*
X174641928Y-111241271D01*
X174443992Y-111439207D01*
X174414989Y-111463009D01*
X174378269Y-111507753D01*
X174320016Y-111578734D01*
X174263299Y-111684844D01*
X174249444Y-111710764D01*
X174205987Y-111854025D01*
X174194990Y-111965678D01*
X174194990Y-111965688D01*
X174191314Y-112003010D01*
X174194990Y-112040332D01*
X174194990Y-112666222D01*
X174191314Y-112703544D01*
X174194990Y-112740866D01*
X174194990Y-112740877D01*
X174205987Y-112852530D01*
X174229335Y-112929497D01*
X174249444Y-112995790D01*
X174320016Y-113127820D01*
X174389757Y-113212799D01*
X174414990Y-113243545D01*
X174443987Y-113267342D01*
X174660656Y-113484012D01*
X174684455Y-113513011D01*
X174800180Y-113607984D01*
X174932209Y-113678556D01*
X175075470Y-113722013D01*
X175187123Y-113733010D01*
X175187132Y-113733010D01*
X175224455Y-113736686D01*
X175261778Y-113733010D01*
X179249670Y-113733010D01*
X179286992Y-113736686D01*
X179324314Y-113733010D01*
X179324325Y-113733010D01*
X179435978Y-113722013D01*
X179579239Y-113678556D01*
X179711268Y-113607984D01*
X179826993Y-113513011D01*
X179850796Y-113484007D01*
X181822001Y-111512803D01*
X181822001Y-115935085D01*
X181538575Y-115510907D01*
X181089093Y-115061425D01*
X180560558Y-114708270D01*
X179973281Y-114465012D01*
X179349832Y-114341000D01*
X178714168Y-114341000D01*
X178090719Y-114465012D01*
X177503442Y-114708270D01*
X176974907Y-115061425D01*
X176525425Y-115510907D01*
X176172270Y-116039442D01*
X175983671Y-116494761D01*
X175981425Y-116487358D01*
X175909986Y-116353704D01*
X175813844Y-116236556D01*
X175696696Y-116140414D01*
X175563042Y-116068975D01*
X175418019Y-116024982D01*
X175267200Y-116010128D01*
X174897200Y-116010128D01*
X174746381Y-116024982D01*
X174601358Y-116068975D01*
X174467704Y-116140414D01*
X174446032Y-116158200D01*
X174121133Y-116158200D01*
X174083800Y-116154523D01*
X174046467Y-116158200D01*
X173980683Y-116164679D01*
X173916939Y-116152000D01*
X173713061Y-116152000D01*
X173513102Y-116191774D01*
X173324744Y-116269795D01*
X173307780Y-116281130D01*
X173292044Y-116261956D01*
X173174896Y-116165814D01*
X173041242Y-116094375D01*
X172896219Y-116050382D01*
X172745400Y-116035528D01*
X172375400Y-116035528D01*
X172224581Y-116050382D01*
X172079558Y-116094375D01*
X171945904Y-116165814D01*
X171924232Y-116183600D01*
X171455723Y-116183600D01*
X171418400Y-116179924D01*
X171381077Y-116183600D01*
X171381067Y-116183600D01*
X171337051Y-116187935D01*
X171256939Y-116172000D01*
X171053061Y-116172000D01*
X170853102Y-116211774D01*
X170664744Y-116289795D01*
X170495226Y-116403063D01*
X170351063Y-116547226D01*
X170237795Y-116716744D01*
X170159774Y-116905102D01*
X170120000Y-117105061D01*
X170120000Y-117308939D01*
X170159774Y-117508898D01*
X170237795Y-117697256D01*
X170351063Y-117866774D01*
X170495226Y-118010937D01*
X170664744Y-118124205D01*
X170853102Y-118202226D01*
X171053061Y-118242000D01*
X171256939Y-118242000D01*
X171456898Y-118202226D01*
X171645256Y-118124205D01*
X171814774Y-118010937D01*
X171958937Y-117866774D01*
X172027088Y-117764779D01*
X172079558Y-117792825D01*
X172224581Y-117836818D01*
X172375400Y-117851672D01*
X172745400Y-117851672D01*
X172896219Y-117836818D01*
X172986177Y-117809529D01*
X173011063Y-117846774D01*
X173155226Y-117990937D01*
X173324744Y-118104205D01*
X173513102Y-118182226D01*
X173713061Y-118222000D01*
X173916939Y-118222000D01*
X174116898Y-118182226D01*
X174305256Y-118104205D01*
X174474774Y-117990937D01*
X174618937Y-117846774D01*
X174660058Y-117785232D01*
X174746381Y-117811418D01*
X174897200Y-117826272D01*
X175267200Y-117826272D01*
X175418019Y-117811418D01*
X175563042Y-117767425D01*
X175696696Y-117695986D01*
X175805000Y-117607102D01*
X175805000Y-117885832D01*
X175929012Y-118509281D01*
X176172270Y-119096558D01*
X176525425Y-119625093D01*
X176974907Y-120074575D01*
X177399083Y-120358000D01*
X163391748Y-120358000D01*
X163437130Y-120208397D01*
X163455000Y-120026960D01*
X163455000Y-119205631D01*
X163437130Y-119024194D01*
X163422601Y-118976297D01*
X164549236Y-118976297D01*
X164592705Y-118980578D01*
X164636174Y-118976297D01*
X164636182Y-118976297D01*
X164766195Y-118963492D01*
X164933018Y-118912886D01*
X165086764Y-118830708D01*
X165221522Y-118720114D01*
X165249239Y-118686341D01*
X169595050Y-114340530D01*
X169628817Y-114312819D01*
X169694337Y-114232984D01*
X169735130Y-114183277D01*
X169739411Y-114178061D01*
X169821589Y-114024315D01*
X169872195Y-113857492D01*
X169885000Y-113727479D01*
X169885000Y-113727469D01*
X169889281Y-113684003D01*
X169885000Y-113640537D01*
X169885000Y-112667683D01*
X169954494Y-112630537D01*
X170051185Y-112551185D01*
X170130537Y-112454494D01*
X170189502Y-112344180D01*
X170225812Y-112224482D01*
X170238072Y-112100000D01*
X170238072Y-112017060D01*
X170470132Y-111785000D01*
X171394249Y-111785000D01*
X171400991Y-111785664D01*
X171425550Y-111785664D01*
X171450000Y-111788072D01*
X171950000Y-111788072D01*
X171974450Y-111785664D01*
X171999009Y-111785664D01*
X172123490Y-111773404D01*
X172219623Y-111754282D01*
X172339319Y-111717973D01*
X172429875Y-111680464D01*
X172540192Y-111621498D01*
X172621691Y-111567042D01*
X172718382Y-111487690D01*
X172787690Y-111418382D01*
X172867042Y-111321691D01*
X172921498Y-111240192D01*
X172980464Y-111129875D01*
X173017973Y-111039319D01*
X173054282Y-110919623D01*
X173073404Y-110823490D01*
X173085664Y-110699009D01*
X173085664Y-110674450D01*
X173088072Y-110650000D01*
X173088072Y-110260682D01*
X173093344Y-110264205D01*
X173281702Y-110342226D01*
X173481661Y-110382000D01*
X173685539Y-110382000D01*
X173885498Y-110342226D01*
X174073856Y-110264205D01*
X174243374Y-110150937D01*
X174387537Y-110006774D01*
X174500805Y-109837256D01*
X174578826Y-109648898D01*
X174618600Y-109448939D01*
X174618600Y-109245061D01*
X174578826Y-109045102D01*
X174500805Y-108856744D01*
X174387537Y-108687226D01*
X174243374Y-108543063D01*
X174073856Y-108429795D01*
X173930970Y-108370609D01*
X174616579Y-107685000D01*
X176422545Y-107685000D01*
X176449158Y-107699225D01*
X176594181Y-107743218D01*
X176745000Y-107758072D01*
X177015000Y-107758072D01*
X177165819Y-107743218D01*
X177310842Y-107699225D01*
X177363333Y-107671168D01*
X177364160Y-107671847D01*
G37*
G04 #@! TD.AperFunction*
D34*
X122563001Y-101366439D02*
X122557509Y-101422200D01*
X122579423Y-101644698D01*
X122644324Y-101858646D01*
X122682166Y-101929443D01*
X122749717Y-102055823D01*
X122891552Y-102228649D01*
X122934855Y-102264187D01*
X122947557Y-102276889D01*
X123077078Y-102383184D01*
X123274254Y-102488576D01*
X123488202Y-102553477D01*
X123710700Y-102575391D01*
X123775710Y-102568988D01*
X123775710Y-103636298D01*
X122184999Y-105227010D01*
X122122861Y-105227010D01*
X121922902Y-105266784D01*
X121734544Y-105344805D01*
X121565026Y-105458073D01*
X121420863Y-105602236D01*
X121307595Y-105771754D01*
X121229574Y-105960112D01*
X121189800Y-106160071D01*
X121189800Y-106363949D01*
X121229574Y-106563908D01*
X121307595Y-106752266D01*
X121420863Y-106921784D01*
X121492046Y-106992967D01*
X121182755Y-107302258D01*
X121162626Y-107201062D01*
X121084605Y-107012704D01*
X120971337Y-106843186D01*
X120827174Y-106699023D01*
X120657656Y-106585755D01*
X120469298Y-106507734D01*
X120269339Y-106467960D01*
X120065461Y-106467960D01*
X119865502Y-106507734D01*
X119677144Y-106585755D01*
X119507626Y-106699023D01*
X119466549Y-106740100D01*
X119349191Y-106740100D01*
X119318000Y-106737028D01*
X119043572Y-106737028D01*
X119043572Y-106462600D01*
X119040500Y-106431409D01*
X119040500Y-106169931D01*
X119368147Y-106169931D01*
X119405469Y-106173607D01*
X119442791Y-106169931D01*
X119442802Y-106169931D01*
X119554455Y-106158934D01*
X119697716Y-106115477D01*
X119829745Y-106044905D01*
X119945470Y-105949932D01*
X119969273Y-105920928D01*
X121690540Y-104199662D01*
X121719537Y-104175865D01*
X121814510Y-104060140D01*
X121885082Y-103928111D01*
X121928539Y-103784850D01*
X121939536Y-103673197D01*
X121939536Y-103673196D01*
X121943213Y-103635864D01*
X121939536Y-103598531D01*
X121939536Y-103038719D01*
X121983473Y-102994782D01*
X122096741Y-102825264D01*
X122174762Y-102636906D01*
X122214536Y-102436947D01*
X122214536Y-102233069D01*
X122174762Y-102033110D01*
X122096741Y-101844752D01*
X121983473Y-101675234D01*
X121839310Y-101531071D01*
X121669792Y-101417803D01*
X121481434Y-101339782D01*
X121281475Y-101300008D01*
X121077597Y-101300008D01*
X120877638Y-101339782D01*
X120689280Y-101417803D01*
X120519762Y-101531071D01*
X120375599Y-101675234D01*
X120262331Y-101844752D01*
X120184310Y-102033110D01*
X120178735Y-102061140D01*
X120175605Y-102061762D01*
X120155245Y-101994645D01*
X120083343Y-101860126D01*
X119986580Y-101742220D01*
X119868674Y-101645457D01*
X119734155Y-101573555D01*
X119588194Y-101529278D01*
X119436400Y-101514328D01*
X119096400Y-101514328D01*
X118944606Y-101529278D01*
X118798645Y-101573555D01*
X118766400Y-101590790D01*
X118734155Y-101573555D01*
X118588194Y-101529278D01*
X118436400Y-101514328D01*
X118096400Y-101514328D01*
X117944606Y-101529278D01*
X117798645Y-101573555D01*
X117664126Y-101645457D01*
X117546220Y-101742220D01*
X117449457Y-101860126D01*
X117377555Y-101994645D01*
X117333278Y-102140606D01*
X117318328Y-102292400D01*
X117318328Y-102305670D01*
X117108172Y-102515827D01*
X117108172Y-102279700D01*
X117093222Y-102127906D01*
X117048945Y-101981945D01*
X116977043Y-101847426D01*
X116880280Y-101729520D01*
X116762374Y-101632757D01*
X116627855Y-101560855D01*
X116481894Y-101516578D01*
X116330100Y-101501628D01*
X115990100Y-101501628D01*
X115838306Y-101516578D01*
X115692345Y-101560855D01*
X115660100Y-101578090D01*
X115627855Y-101560855D01*
X115481894Y-101516578D01*
X115330100Y-101501628D01*
X114990100Y-101501628D01*
X114838306Y-101516578D01*
X114692345Y-101560855D01*
X114557826Y-101632757D01*
X114439920Y-101729520D01*
X114343157Y-101847426D01*
X114271255Y-101981945D01*
X114226978Y-102127906D01*
X114212028Y-102279700D01*
X114212028Y-102559700D01*
X114226978Y-102711494D01*
X114271255Y-102857455D01*
X114343157Y-102991974D01*
X114425228Y-103091978D01*
X114326026Y-103158263D01*
X114309232Y-103175057D01*
X114309232Y-103158829D01*
X114269458Y-102958870D01*
X114191437Y-102770512D01*
X114078169Y-102600994D01*
X113934006Y-102456831D01*
X113764488Y-102343563D01*
X113576130Y-102265542D01*
X113376171Y-102225768D01*
X113172293Y-102225768D01*
X112972334Y-102265542D01*
X112783976Y-102343563D01*
X112614458Y-102456831D01*
X112470295Y-102600994D01*
X112357027Y-102770512D01*
X112279006Y-102958870D01*
X112270854Y-102999854D01*
X112229870Y-103008006D01*
X112041512Y-103086027D01*
X111871994Y-103199295D01*
X111727831Y-103343458D01*
X111614563Y-103512976D01*
X111536542Y-103701334D01*
X111496768Y-103901293D01*
X111496768Y-104105171D01*
X111536542Y-104305130D01*
X111614563Y-104493488D01*
X111727831Y-104663006D01*
X111796768Y-104731943D01*
X111796769Y-106464304D01*
X111793212Y-106500419D01*
X111807403Y-106644504D01*
X111839739Y-106751098D01*
X111849432Y-106783052D01*
X111917682Y-106910739D01*
X112006048Y-107018413D01*
X111879342Y-107070897D01*
X111709824Y-107184165D01*
X111565661Y-107328328D01*
X111452393Y-107497846D01*
X111374372Y-107686204D01*
X111334598Y-107886163D01*
X111334598Y-108090041D01*
X111374372Y-108290000D01*
X111452393Y-108478358D01*
X111565661Y-108647876D01*
X111709824Y-108792039D01*
X111879342Y-108905307D01*
X112067700Y-108983328D01*
X112267659Y-109023102D01*
X112329797Y-109023102D01*
X112478856Y-109172162D01*
X112252591Y-109398427D01*
X112190454Y-109398427D01*
X111990495Y-109438201D01*
X111802137Y-109516222D01*
X111632619Y-109629490D01*
X111488456Y-109773653D01*
X111375188Y-109943171D01*
X111297167Y-110131529D01*
X111257393Y-110331488D01*
X111257393Y-110535366D01*
X111297167Y-110735325D01*
X111375188Y-110923683D01*
X111488456Y-111093201D01*
X111632619Y-111237364D01*
X111682521Y-111270707D01*
X110918798Y-112034431D01*
X110889800Y-112058229D01*
X110866002Y-112087227D01*
X110866001Y-112087228D01*
X110794826Y-112173954D01*
X110724254Y-112305984D01*
X110703016Y-112376000D01*
X110680798Y-112449244D01*
X110670758Y-112551185D01*
X110666124Y-112598230D01*
X110669801Y-112635562D01*
X110669800Y-118294477D01*
X110666124Y-118331800D01*
X110669800Y-118369122D01*
X110669800Y-118369132D01*
X110680797Y-118480785D01*
X110722419Y-118617997D01*
X110724254Y-118624046D01*
X110794826Y-118756076D01*
X110800073Y-118762469D01*
X110889799Y-118871801D01*
X110918802Y-118895604D01*
X111901201Y-119878003D01*
X111924999Y-119907001D01*
X111953997Y-119930799D01*
X112040723Y-120001974D01*
X112168400Y-120070219D01*
X112172753Y-120072546D01*
X112316014Y-120116003D01*
X112427667Y-120127000D01*
X112427677Y-120127000D01*
X112465000Y-120130676D01*
X112502323Y-120127000D01*
X113857678Y-120127000D01*
X113895000Y-120130676D01*
X113932322Y-120127000D01*
X113932333Y-120127000D01*
X114043986Y-120116003D01*
X114187247Y-120072546D01*
X114319276Y-120001974D01*
X114435001Y-119907001D01*
X114458804Y-119877997D01*
X115662002Y-118674800D01*
X115688219Y-118672218D01*
X115833242Y-118628225D01*
X115912400Y-118585914D01*
X115991558Y-118628225D01*
X116136581Y-118672218D01*
X116287400Y-118687072D01*
X116557400Y-118687072D01*
X116708219Y-118672218D01*
X116853242Y-118628225D01*
X116986896Y-118556786D01*
X117104044Y-118460644D01*
X117200186Y-118343496D01*
X117271625Y-118209842D01*
X117315618Y-118064819D01*
X117330472Y-117914000D01*
X117330472Y-117575729D01*
X117841989Y-117064212D01*
X117805000Y-117250168D01*
X117805000Y-117885832D01*
X117929012Y-118509281D01*
X118172270Y-119096558D01*
X118525425Y-119625093D01*
X118974907Y-120074575D01*
X119399083Y-120358000D01*
X104227000Y-120358000D01*
X104227000Y-120282419D01*
X104238072Y-120170000D01*
X104238072Y-119830000D01*
X104227000Y-119717581D01*
X104227000Y-112743407D01*
X104290256Y-112717205D01*
X104459774Y-112603937D01*
X104603937Y-112459774D01*
X104717205Y-112290256D01*
X104795226Y-112101898D01*
X104835000Y-111901939D01*
X104835000Y-111698061D01*
X104795226Y-111498102D01*
X104717205Y-111309744D01*
X104603937Y-111140226D01*
X104459774Y-110996063D01*
X104290256Y-110882795D01*
X104227000Y-110856593D01*
X104227000Y-109127000D01*
X108000000Y-109127000D01*
X108024776Y-109124560D01*
X108048601Y-109117333D01*
X108070557Y-109105597D01*
X108089803Y-109089803D01*
X108105597Y-109070557D01*
X108117333Y-109048601D01*
X108124560Y-109024776D01*
X108127000Y-109000000D01*
X108124560Y-108975224D01*
X108117333Y-108951399D01*
X108105597Y-108929443D01*
X108089803Y-108910197D01*
X107047478Y-107867872D01*
X107045072Y-107843439D01*
X107045072Y-107518000D01*
X107032812Y-107393518D01*
X106996502Y-107273820D01*
X106937537Y-107163506D01*
X106858185Y-107066815D01*
X106761494Y-106987463D01*
X106651180Y-106928498D01*
X106588168Y-106909384D01*
X106581787Y-106902841D01*
X106561261Y-106888752D01*
X106538380Y-106878938D01*
X106514025Y-106873777D01*
X106489130Y-106873466D01*
X106464654Y-106878018D01*
X106463485Y-106878485D01*
X106343447Y-106814324D01*
X106129499Y-106749423D01*
X105962752Y-106733000D01*
X105867129Y-106733000D01*
X105841999Y-106707870D01*
X105841999Y-105828130D01*
X106463141Y-105206989D01*
X106506450Y-105171446D01*
X106648285Y-104998620D01*
X106753677Y-104801444D01*
X106818578Y-104587496D01*
X106835001Y-104420749D01*
X106840492Y-104364997D01*
X106835001Y-104309245D01*
X106835001Y-103088212D01*
X106858185Y-103069185D01*
X106937537Y-102972494D01*
X106996502Y-102862180D01*
X107030706Y-102749425D01*
X109229532Y-100550600D01*
X122563001Y-100550600D01*
X122563001Y-101366439D01*
G04 #@! TA.AperFunction,Conductor*
D35*
G36*
X122563001Y-101366439D02*
G01*
X122557509Y-101422200D01*
X122579423Y-101644698D01*
X122644324Y-101858646D01*
X122682166Y-101929443D01*
X122749717Y-102055823D01*
X122891552Y-102228649D01*
X122934855Y-102264187D01*
X122947557Y-102276889D01*
X123077078Y-102383184D01*
X123274254Y-102488576D01*
X123488202Y-102553477D01*
X123710700Y-102575391D01*
X123775710Y-102568988D01*
X123775710Y-103636298D01*
X122184999Y-105227010D01*
X122122861Y-105227010D01*
X121922902Y-105266784D01*
X121734544Y-105344805D01*
X121565026Y-105458073D01*
X121420863Y-105602236D01*
X121307595Y-105771754D01*
X121229574Y-105960112D01*
X121189800Y-106160071D01*
X121189800Y-106363949D01*
X121229574Y-106563908D01*
X121307595Y-106752266D01*
X121420863Y-106921784D01*
X121492046Y-106992967D01*
X121182755Y-107302258D01*
X121162626Y-107201062D01*
X121084605Y-107012704D01*
X120971337Y-106843186D01*
X120827174Y-106699023D01*
X120657656Y-106585755D01*
X120469298Y-106507734D01*
X120269339Y-106467960D01*
X120065461Y-106467960D01*
X119865502Y-106507734D01*
X119677144Y-106585755D01*
X119507626Y-106699023D01*
X119466549Y-106740100D01*
X119349191Y-106740100D01*
X119318000Y-106737028D01*
X119043572Y-106737028D01*
X119043572Y-106462600D01*
X119040500Y-106431409D01*
X119040500Y-106169931D01*
X119368147Y-106169931D01*
X119405469Y-106173607D01*
X119442791Y-106169931D01*
X119442802Y-106169931D01*
X119554455Y-106158934D01*
X119697716Y-106115477D01*
X119829745Y-106044905D01*
X119945470Y-105949932D01*
X119969273Y-105920928D01*
X121690540Y-104199662D01*
X121719537Y-104175865D01*
X121814510Y-104060140D01*
X121885082Y-103928111D01*
X121928539Y-103784850D01*
X121939536Y-103673197D01*
X121939536Y-103673196D01*
X121943213Y-103635864D01*
X121939536Y-103598531D01*
X121939536Y-103038719D01*
X121983473Y-102994782D01*
X122096741Y-102825264D01*
X122174762Y-102636906D01*
X122214536Y-102436947D01*
X122214536Y-102233069D01*
X122174762Y-102033110D01*
X122096741Y-101844752D01*
X121983473Y-101675234D01*
X121839310Y-101531071D01*
X121669792Y-101417803D01*
X121481434Y-101339782D01*
X121281475Y-101300008D01*
X121077597Y-101300008D01*
X120877638Y-101339782D01*
X120689280Y-101417803D01*
X120519762Y-101531071D01*
X120375599Y-101675234D01*
X120262331Y-101844752D01*
X120184310Y-102033110D01*
X120178735Y-102061140D01*
X120175605Y-102061762D01*
X120155245Y-101994645D01*
X120083343Y-101860126D01*
X119986580Y-101742220D01*
X119868674Y-101645457D01*
X119734155Y-101573555D01*
X119588194Y-101529278D01*
X119436400Y-101514328D01*
X119096400Y-101514328D01*
X118944606Y-101529278D01*
X118798645Y-101573555D01*
X118766400Y-101590790D01*
X118734155Y-101573555D01*
X118588194Y-101529278D01*
X118436400Y-101514328D01*
X118096400Y-101514328D01*
X117944606Y-101529278D01*
X117798645Y-101573555D01*
X117664126Y-101645457D01*
X117546220Y-101742220D01*
X117449457Y-101860126D01*
X117377555Y-101994645D01*
X117333278Y-102140606D01*
X117318328Y-102292400D01*
X117318328Y-102305670D01*
X117108172Y-102515827D01*
X117108172Y-102279700D01*
X117093222Y-102127906D01*
X117048945Y-101981945D01*
X116977043Y-101847426D01*
X116880280Y-101729520D01*
X116762374Y-101632757D01*
X116627855Y-101560855D01*
X116481894Y-101516578D01*
X116330100Y-101501628D01*
X115990100Y-101501628D01*
X115838306Y-101516578D01*
X115692345Y-101560855D01*
X115660100Y-101578090D01*
X115627855Y-101560855D01*
X115481894Y-101516578D01*
X115330100Y-101501628D01*
X114990100Y-101501628D01*
X114838306Y-101516578D01*
X114692345Y-101560855D01*
X114557826Y-101632757D01*
X114439920Y-101729520D01*
X114343157Y-101847426D01*
X114271255Y-101981945D01*
X114226978Y-102127906D01*
X114212028Y-102279700D01*
X114212028Y-102559700D01*
X114226978Y-102711494D01*
X114271255Y-102857455D01*
X114343157Y-102991974D01*
X114425228Y-103091978D01*
X114326026Y-103158263D01*
X114309232Y-103175057D01*
X114309232Y-103158829D01*
X114269458Y-102958870D01*
X114191437Y-102770512D01*
X114078169Y-102600994D01*
X113934006Y-102456831D01*
X113764488Y-102343563D01*
X113576130Y-102265542D01*
X113376171Y-102225768D01*
X113172293Y-102225768D01*
X112972334Y-102265542D01*
X112783976Y-102343563D01*
X112614458Y-102456831D01*
X112470295Y-102600994D01*
X112357027Y-102770512D01*
X112279006Y-102958870D01*
X112270854Y-102999854D01*
X112229870Y-103008006D01*
X112041512Y-103086027D01*
X111871994Y-103199295D01*
X111727831Y-103343458D01*
X111614563Y-103512976D01*
X111536542Y-103701334D01*
X111496768Y-103901293D01*
X111496768Y-104105171D01*
X111536542Y-104305130D01*
X111614563Y-104493488D01*
X111727831Y-104663006D01*
X111796768Y-104731943D01*
X111796769Y-106464304D01*
X111793212Y-106500419D01*
X111807403Y-106644504D01*
X111839739Y-106751098D01*
X111849432Y-106783052D01*
X111917682Y-106910739D01*
X112006048Y-107018413D01*
X111879342Y-107070897D01*
X111709824Y-107184165D01*
X111565661Y-107328328D01*
X111452393Y-107497846D01*
X111374372Y-107686204D01*
X111334598Y-107886163D01*
X111334598Y-108090041D01*
X111374372Y-108290000D01*
X111452393Y-108478358D01*
X111565661Y-108647876D01*
X111709824Y-108792039D01*
X111879342Y-108905307D01*
X112067700Y-108983328D01*
X112267659Y-109023102D01*
X112329797Y-109023102D01*
X112478856Y-109172162D01*
X112252591Y-109398427D01*
X112190454Y-109398427D01*
X111990495Y-109438201D01*
X111802137Y-109516222D01*
X111632619Y-109629490D01*
X111488456Y-109773653D01*
X111375188Y-109943171D01*
X111297167Y-110131529D01*
X111257393Y-110331488D01*
X111257393Y-110535366D01*
X111297167Y-110735325D01*
X111375188Y-110923683D01*
X111488456Y-111093201D01*
X111632619Y-111237364D01*
X111682521Y-111270707D01*
X110918798Y-112034431D01*
X110889800Y-112058229D01*
X110866002Y-112087227D01*
X110866001Y-112087228D01*
X110794826Y-112173954D01*
X110724254Y-112305984D01*
X110703016Y-112376000D01*
X110680798Y-112449244D01*
X110670758Y-112551185D01*
X110666124Y-112598230D01*
X110669801Y-112635562D01*
X110669800Y-118294477D01*
X110666124Y-118331800D01*
X110669800Y-118369122D01*
X110669800Y-118369132D01*
X110680797Y-118480785D01*
X110722419Y-118617997D01*
X110724254Y-118624046D01*
X110794826Y-118756076D01*
X110800073Y-118762469D01*
X110889799Y-118871801D01*
X110918802Y-118895604D01*
X111901201Y-119878003D01*
X111924999Y-119907001D01*
X111953997Y-119930799D01*
X112040723Y-120001974D01*
X112168400Y-120070219D01*
X112172753Y-120072546D01*
X112316014Y-120116003D01*
X112427667Y-120127000D01*
X112427677Y-120127000D01*
X112465000Y-120130676D01*
X112502323Y-120127000D01*
X113857678Y-120127000D01*
X113895000Y-120130676D01*
X113932322Y-120127000D01*
X113932333Y-120127000D01*
X114043986Y-120116003D01*
X114187247Y-120072546D01*
X114319276Y-120001974D01*
X114435001Y-119907001D01*
X114458804Y-119877997D01*
X115662002Y-118674800D01*
X115688219Y-118672218D01*
X115833242Y-118628225D01*
X115912400Y-118585914D01*
X115991558Y-118628225D01*
X116136581Y-118672218D01*
X116287400Y-118687072D01*
X116557400Y-118687072D01*
X116708219Y-118672218D01*
X116853242Y-118628225D01*
X116986896Y-118556786D01*
X117104044Y-118460644D01*
X117200186Y-118343496D01*
X117271625Y-118209842D01*
X117315618Y-118064819D01*
X117330472Y-117914000D01*
X117330472Y-117575729D01*
X117841989Y-117064212D01*
X117805000Y-117250168D01*
X117805000Y-117885832D01*
X117929012Y-118509281D01*
X118172270Y-119096558D01*
X118525425Y-119625093D01*
X118974907Y-120074575D01*
X119399083Y-120358000D01*
X104227000Y-120358000D01*
X104227000Y-120282419D01*
X104238072Y-120170000D01*
X104238072Y-119830000D01*
X104227000Y-119717581D01*
X104227000Y-112743407D01*
X104290256Y-112717205D01*
X104459774Y-112603937D01*
X104603937Y-112459774D01*
X104717205Y-112290256D01*
X104795226Y-112101898D01*
X104835000Y-111901939D01*
X104835000Y-111698061D01*
X104795226Y-111498102D01*
X104717205Y-111309744D01*
X104603937Y-111140226D01*
X104459774Y-110996063D01*
X104290256Y-110882795D01*
X104227000Y-110856593D01*
X104227000Y-109127000D01*
X108000000Y-109127000D01*
X108024776Y-109124560D01*
X108048601Y-109117333D01*
X108070557Y-109105597D01*
X108089803Y-109089803D01*
X108105597Y-109070557D01*
X108117333Y-109048601D01*
X108124560Y-109024776D01*
X108127000Y-109000000D01*
X108124560Y-108975224D01*
X108117333Y-108951399D01*
X108105597Y-108929443D01*
X108089803Y-108910197D01*
X107047478Y-107867872D01*
X107045072Y-107843439D01*
X107045072Y-107518000D01*
X107032812Y-107393518D01*
X106996502Y-107273820D01*
X106937537Y-107163506D01*
X106858185Y-107066815D01*
X106761494Y-106987463D01*
X106651180Y-106928498D01*
X106588168Y-106909384D01*
X106581787Y-106902841D01*
X106561261Y-106888752D01*
X106538380Y-106878938D01*
X106514025Y-106873777D01*
X106489130Y-106873466D01*
X106464654Y-106878018D01*
X106463485Y-106878485D01*
X106343447Y-106814324D01*
X106129499Y-106749423D01*
X105962752Y-106733000D01*
X105867129Y-106733000D01*
X105841999Y-106707870D01*
X105841999Y-105828130D01*
X106463141Y-105206989D01*
X106506450Y-105171446D01*
X106648285Y-104998620D01*
X106753677Y-104801444D01*
X106818578Y-104587496D01*
X106835001Y-104420749D01*
X106840492Y-104364997D01*
X106835001Y-104309245D01*
X106835001Y-103088212D01*
X106858185Y-103069185D01*
X106937537Y-102972494D01*
X106996502Y-102862180D01*
X107030706Y-102749425D01*
X109229532Y-100550600D01*
X122563001Y-100550600D01*
X122563001Y-101366439D01*
G37*
G04 #@! TD.AperFunction*
D34*
X149156400Y-105970679D02*
X149156400Y-106055628D01*
X148791400Y-106055628D01*
X148666918Y-106067888D01*
X148547220Y-106104198D01*
X148436906Y-106163163D01*
X148340215Y-106242515D01*
X148260863Y-106339206D01*
X148201898Y-106449520D01*
X148165588Y-106569218D01*
X148153328Y-106693700D01*
X148153328Y-109993700D01*
X148165588Y-110118182D01*
X148201898Y-110237880D01*
X148260863Y-110348194D01*
X148340215Y-110444885D01*
X148436906Y-110524237D01*
X148547220Y-110583202D01*
X148666918Y-110619512D01*
X148791400Y-110631772D01*
X150901117Y-110631772D01*
X152276639Y-112007294D01*
X152308267Y-112045833D01*
X152462060Y-112172047D01*
X152637520Y-112265832D01*
X152827906Y-112323585D01*
X152976292Y-112338200D01*
X152976294Y-112338200D01*
X153025899Y-112343086D01*
X153075504Y-112338200D01*
X158878192Y-112338200D01*
X158927800Y-112343086D01*
X159125794Y-112323585D01*
X159166371Y-112311276D01*
X159316180Y-112265832D01*
X159491640Y-112172047D01*
X159645433Y-112045833D01*
X159677061Y-112007294D01*
X163849357Y-107834999D01*
X167056644Y-107834999D01*
X167761928Y-108540283D01*
X167761928Y-108800000D01*
X167774188Y-108924482D01*
X167810498Y-109044180D01*
X167869463Y-109154494D01*
X167948815Y-109251185D01*
X168045506Y-109330537D01*
X168155820Y-109389502D01*
X168275518Y-109425812D01*
X168400000Y-109438072D01*
X168482940Y-109438072D01*
X169044867Y-110000000D01*
X168482940Y-110561928D01*
X168400000Y-110561928D01*
X168275518Y-110574188D01*
X168155820Y-110610498D01*
X168045506Y-110669463D01*
X167948815Y-110748815D01*
X167869463Y-110845506D01*
X167810498Y-110955820D01*
X167774188Y-111075518D01*
X167761928Y-111200000D01*
X167761928Y-112100000D01*
X167774188Y-112224482D01*
X167810498Y-112344180D01*
X167869463Y-112454494D01*
X167948815Y-112551185D01*
X168045506Y-112630537D01*
X168115000Y-112667683D01*
X168115000Y-113317423D01*
X164226127Y-117206297D01*
X162548959Y-117206297D01*
X162580000Y-117050244D01*
X162580000Y-116782348D01*
X162527736Y-116519599D01*
X162425216Y-116272095D01*
X162276381Y-116049347D01*
X162086949Y-115859915D01*
X161864201Y-115711080D01*
X161616697Y-115608560D01*
X161353948Y-115556296D01*
X161086052Y-115556296D01*
X160823303Y-115608560D01*
X160575799Y-115711080D01*
X160575295Y-115711417D01*
X160574494Y-115710759D01*
X160464180Y-115651794D01*
X160344482Y-115615484D01*
X160220000Y-115603224D01*
X160130000Y-115603224D01*
X160130000Y-115196511D01*
X160163537Y-115162974D01*
X160276805Y-114993456D01*
X160354826Y-114805098D01*
X160394600Y-114605139D01*
X160394600Y-114401261D01*
X160354826Y-114201302D01*
X160276805Y-114012944D01*
X160163537Y-113843426D01*
X160019374Y-113699263D01*
X159849856Y-113585995D01*
X159661498Y-113507974D01*
X159461539Y-113468200D01*
X159257661Y-113468200D01*
X159057702Y-113507974D01*
X158869344Y-113585995D01*
X158699826Y-113699263D01*
X158555663Y-113843426D01*
X158442395Y-114012944D01*
X158367726Y-114193210D01*
X158166498Y-114193210D01*
X157966539Y-114232984D01*
X157778181Y-114311005D01*
X157608663Y-114424273D01*
X157464500Y-114568436D01*
X157351232Y-114737954D01*
X157273211Y-114926312D01*
X157233437Y-115126271D01*
X157233437Y-115330149D01*
X157273211Y-115530108D01*
X157351232Y-115718466D01*
X157407950Y-115803350D01*
X157339463Y-115886802D01*
X157280498Y-115997116D01*
X157267383Y-116040349D01*
X157086949Y-115859915D01*
X156864201Y-115711080D01*
X156616697Y-115608560D01*
X156353948Y-115556296D01*
X156086052Y-115556296D01*
X155823303Y-115608560D01*
X155575799Y-115711080D01*
X155353051Y-115859915D01*
X155163619Y-116049347D01*
X155014784Y-116272095D01*
X154912264Y-116519599D01*
X154860000Y-116782348D01*
X154860000Y-117050244D01*
X154912264Y-117312993D01*
X155014784Y-117560497D01*
X155163619Y-117783245D01*
X155353051Y-117972677D01*
X155436183Y-118028224D01*
X155249475Y-118028224D01*
X155220000Y-118025321D01*
X154977899Y-118049166D01*
X154745100Y-118119785D01*
X154530552Y-118234463D01*
X154342499Y-118388794D01*
X154188168Y-118576847D01*
X154073489Y-118791395D01*
X154002870Y-119024194D01*
X153985000Y-119205631D01*
X153985000Y-120026960D01*
X154002870Y-120208397D01*
X154048252Y-120358000D01*
X122664917Y-120358000D01*
X123089093Y-120074575D01*
X123538575Y-119625093D01*
X123891730Y-119096558D01*
X124134988Y-118509281D01*
X124259000Y-117885832D01*
X124259000Y-117250168D01*
X124134988Y-116626719D01*
X123891730Y-116039442D01*
X123538575Y-115510907D01*
X123089093Y-115061425D01*
X122560558Y-114708270D01*
X121973281Y-114465012D01*
X121349832Y-114341000D01*
X120714168Y-114341000D01*
X120090719Y-114465012D01*
X119664013Y-114641759D01*
X119664013Y-112913931D01*
X119667690Y-112876598D01*
X119656865Y-112766686D01*
X119653016Y-112727612D01*
X119609559Y-112584351D01*
X119538987Y-112452322D01*
X119444014Y-112336597D01*
X119415017Y-112312800D01*
X119040500Y-111938284D01*
X119040500Y-111847962D01*
X119116868Y-111879595D01*
X119316827Y-111919369D01*
X119378964Y-111919369D01*
X119413006Y-111953411D01*
X119436805Y-111982410D01*
X119552530Y-112077383D01*
X119684559Y-112147955D01*
X119827820Y-112191412D01*
X119939473Y-112202409D01*
X119939481Y-112202409D01*
X119976806Y-112206085D01*
X120014131Y-112202409D01*
X123208069Y-112202409D01*
X123245391Y-112206085D01*
X123282713Y-112202409D01*
X123282724Y-112202409D01*
X123394377Y-112191412D01*
X123537638Y-112147955D01*
X123669667Y-112077383D01*
X123785392Y-111982410D01*
X123809194Y-111953407D01*
X124642803Y-111119799D01*
X124671801Y-111096001D01*
X124702248Y-111058901D01*
X124778893Y-110996000D01*
X125452609Y-110996000D01*
X125483800Y-110999072D01*
X125492668Y-110999072D01*
X125498800Y-110999676D01*
X125504932Y-110999072D01*
X125823800Y-110999072D01*
X125975594Y-110984122D01*
X126121555Y-110939845D01*
X126250044Y-110871166D01*
X126359525Y-110929685D01*
X126505486Y-110973962D01*
X126657280Y-110988912D01*
X126997280Y-110988912D01*
X127149074Y-110973962D01*
X127295035Y-110929685D01*
X127429554Y-110857783D01*
X127547460Y-110761020D01*
X127644223Y-110643114D01*
X127716125Y-110508595D01*
X127760402Y-110362634D01*
X127775352Y-110210840D01*
X127775352Y-109930840D01*
X127760402Y-109779046D01*
X127716125Y-109633085D01*
X127644223Y-109498566D01*
X127547460Y-109380660D01*
X127429554Y-109283897D01*
X127295035Y-109211995D01*
X127149074Y-109167718D01*
X126997280Y-109152768D01*
X126657280Y-109152768D01*
X126505486Y-109167718D01*
X126359525Y-109211995D01*
X126231036Y-109280674D01*
X126121555Y-109222155D01*
X125975594Y-109177878D01*
X125823800Y-109162928D01*
X125483800Y-109162928D01*
X125332006Y-109177878D01*
X125186045Y-109222155D01*
X125051526Y-109294057D01*
X124933620Y-109390820D01*
X124863715Y-109476000D01*
X124778893Y-109476000D01*
X124696296Y-109408214D01*
X124562642Y-109336775D01*
X124417619Y-109292782D01*
X124266800Y-109277928D01*
X124024246Y-109277928D01*
X124034472Y-109174100D01*
X124034472Y-108834100D01*
X124019522Y-108682306D01*
X123975245Y-108536345D01*
X123903343Y-108401826D01*
X123806580Y-108283920D01*
X123688674Y-108187157D01*
X123554155Y-108115255D01*
X123408194Y-108070978D01*
X123256400Y-108056028D01*
X122976400Y-108056028D01*
X122824606Y-108070978D01*
X122678645Y-108115255D01*
X122544126Y-108187157D01*
X122474741Y-108244100D01*
X122390515Y-108244100D01*
X125496723Y-105137893D01*
X125525721Y-105114095D01*
X125620694Y-104998370D01*
X125691266Y-104866341D01*
X125734723Y-104723080D01*
X125745720Y-104611427D01*
X125745720Y-104611418D01*
X125749396Y-104574095D01*
X125745720Y-104536772D01*
X125745720Y-98937491D01*
X125749396Y-98900168D01*
X125745720Y-98862845D01*
X125745720Y-98862836D01*
X125734723Y-98751183D01*
X125714647Y-98685000D01*
X141870722Y-98685000D01*
X149156400Y-105970679D01*
G04 #@! TA.AperFunction,Conductor*
D35*
G36*
X149156400Y-105970679D02*
G01*
X149156400Y-106055628D01*
X148791400Y-106055628D01*
X148666918Y-106067888D01*
X148547220Y-106104198D01*
X148436906Y-106163163D01*
X148340215Y-106242515D01*
X148260863Y-106339206D01*
X148201898Y-106449520D01*
X148165588Y-106569218D01*
X148153328Y-106693700D01*
X148153328Y-109993700D01*
X148165588Y-110118182D01*
X148201898Y-110237880D01*
X148260863Y-110348194D01*
X148340215Y-110444885D01*
X148436906Y-110524237D01*
X148547220Y-110583202D01*
X148666918Y-110619512D01*
X148791400Y-110631772D01*
X150901117Y-110631772D01*
X152276639Y-112007294D01*
X152308267Y-112045833D01*
X152462060Y-112172047D01*
X152637520Y-112265832D01*
X152827906Y-112323585D01*
X152976292Y-112338200D01*
X152976294Y-112338200D01*
X153025899Y-112343086D01*
X153075504Y-112338200D01*
X158878192Y-112338200D01*
X158927800Y-112343086D01*
X159125794Y-112323585D01*
X159166371Y-112311276D01*
X159316180Y-112265832D01*
X159491640Y-112172047D01*
X159645433Y-112045833D01*
X159677061Y-112007294D01*
X163849357Y-107834999D01*
X167056644Y-107834999D01*
X167761928Y-108540283D01*
X167761928Y-108800000D01*
X167774188Y-108924482D01*
X167810498Y-109044180D01*
X167869463Y-109154494D01*
X167948815Y-109251185D01*
X168045506Y-109330537D01*
X168155820Y-109389502D01*
X168275518Y-109425812D01*
X168400000Y-109438072D01*
X168482940Y-109438072D01*
X169044867Y-110000000D01*
X168482940Y-110561928D01*
X168400000Y-110561928D01*
X168275518Y-110574188D01*
X168155820Y-110610498D01*
X168045506Y-110669463D01*
X167948815Y-110748815D01*
X167869463Y-110845506D01*
X167810498Y-110955820D01*
X167774188Y-111075518D01*
X167761928Y-111200000D01*
X167761928Y-112100000D01*
X167774188Y-112224482D01*
X167810498Y-112344180D01*
X167869463Y-112454494D01*
X167948815Y-112551185D01*
X168045506Y-112630537D01*
X168115000Y-112667683D01*
X168115000Y-113317423D01*
X164226127Y-117206297D01*
X162548959Y-117206297D01*
X162580000Y-117050244D01*
X162580000Y-116782348D01*
X162527736Y-116519599D01*
X162425216Y-116272095D01*
X162276381Y-116049347D01*
X162086949Y-115859915D01*
X161864201Y-115711080D01*
X161616697Y-115608560D01*
X161353948Y-115556296D01*
X161086052Y-115556296D01*
X160823303Y-115608560D01*
X160575799Y-115711080D01*
X160575295Y-115711417D01*
X160574494Y-115710759D01*
X160464180Y-115651794D01*
X160344482Y-115615484D01*
X160220000Y-115603224D01*
X160130000Y-115603224D01*
X160130000Y-115196511D01*
X160163537Y-115162974D01*
X160276805Y-114993456D01*
X160354826Y-114805098D01*
X160394600Y-114605139D01*
X160394600Y-114401261D01*
X160354826Y-114201302D01*
X160276805Y-114012944D01*
X160163537Y-113843426D01*
X160019374Y-113699263D01*
X159849856Y-113585995D01*
X159661498Y-113507974D01*
X159461539Y-113468200D01*
X159257661Y-113468200D01*
X159057702Y-113507974D01*
X158869344Y-113585995D01*
X158699826Y-113699263D01*
X158555663Y-113843426D01*
X158442395Y-114012944D01*
X158367726Y-114193210D01*
X158166498Y-114193210D01*
X157966539Y-114232984D01*
X157778181Y-114311005D01*
X157608663Y-114424273D01*
X157464500Y-114568436D01*
X157351232Y-114737954D01*
X157273211Y-114926312D01*
X157233437Y-115126271D01*
X157233437Y-115330149D01*
X157273211Y-115530108D01*
X157351232Y-115718466D01*
X157407950Y-115803350D01*
X157339463Y-115886802D01*
X157280498Y-115997116D01*
X157267383Y-116040349D01*
X157086949Y-115859915D01*
X156864201Y-115711080D01*
X156616697Y-115608560D01*
X156353948Y-115556296D01*
X156086052Y-115556296D01*
X155823303Y-115608560D01*
X155575799Y-115711080D01*
X155353051Y-115859915D01*
X155163619Y-116049347D01*
X155014784Y-116272095D01*
X154912264Y-116519599D01*
X154860000Y-116782348D01*
X154860000Y-117050244D01*
X154912264Y-117312993D01*
X155014784Y-117560497D01*
X155163619Y-117783245D01*
X155353051Y-117972677D01*
X155436183Y-118028224D01*
X155249475Y-118028224D01*
X155220000Y-118025321D01*
X154977899Y-118049166D01*
X154745100Y-118119785D01*
X154530552Y-118234463D01*
X154342499Y-118388794D01*
X154188168Y-118576847D01*
X154073489Y-118791395D01*
X154002870Y-119024194D01*
X153985000Y-119205631D01*
X153985000Y-120026960D01*
X154002870Y-120208397D01*
X154048252Y-120358000D01*
X122664917Y-120358000D01*
X123089093Y-120074575D01*
X123538575Y-119625093D01*
X123891730Y-119096558D01*
X124134988Y-118509281D01*
X124259000Y-117885832D01*
X124259000Y-117250168D01*
X124134988Y-116626719D01*
X123891730Y-116039442D01*
X123538575Y-115510907D01*
X123089093Y-115061425D01*
X122560558Y-114708270D01*
X121973281Y-114465012D01*
X121349832Y-114341000D01*
X120714168Y-114341000D01*
X120090719Y-114465012D01*
X119664013Y-114641759D01*
X119664013Y-112913931D01*
X119667690Y-112876598D01*
X119656865Y-112766686D01*
X119653016Y-112727612D01*
X119609559Y-112584351D01*
X119538987Y-112452322D01*
X119444014Y-112336597D01*
X119415017Y-112312800D01*
X119040500Y-111938284D01*
X119040500Y-111847962D01*
X119116868Y-111879595D01*
X119316827Y-111919369D01*
X119378964Y-111919369D01*
X119413006Y-111953411D01*
X119436805Y-111982410D01*
X119552530Y-112077383D01*
X119684559Y-112147955D01*
X119827820Y-112191412D01*
X119939473Y-112202409D01*
X119939481Y-112202409D01*
X119976806Y-112206085D01*
X120014131Y-112202409D01*
X123208069Y-112202409D01*
X123245391Y-112206085D01*
X123282713Y-112202409D01*
X123282724Y-112202409D01*
X123394377Y-112191412D01*
X123537638Y-112147955D01*
X123669667Y-112077383D01*
X123785392Y-111982410D01*
X123809194Y-111953407D01*
X124642803Y-111119799D01*
X124671801Y-111096001D01*
X124702248Y-111058901D01*
X124778893Y-110996000D01*
X125452609Y-110996000D01*
X125483800Y-110999072D01*
X125492668Y-110999072D01*
X125498800Y-110999676D01*
X125504932Y-110999072D01*
X125823800Y-110999072D01*
X125975594Y-110984122D01*
X126121555Y-110939845D01*
X126250044Y-110871166D01*
X126359525Y-110929685D01*
X126505486Y-110973962D01*
X126657280Y-110988912D01*
X126997280Y-110988912D01*
X127149074Y-110973962D01*
X127295035Y-110929685D01*
X127429554Y-110857783D01*
X127547460Y-110761020D01*
X127644223Y-110643114D01*
X127716125Y-110508595D01*
X127760402Y-110362634D01*
X127775352Y-110210840D01*
X127775352Y-109930840D01*
X127760402Y-109779046D01*
X127716125Y-109633085D01*
X127644223Y-109498566D01*
X127547460Y-109380660D01*
X127429554Y-109283897D01*
X127295035Y-109211995D01*
X127149074Y-109167718D01*
X126997280Y-109152768D01*
X126657280Y-109152768D01*
X126505486Y-109167718D01*
X126359525Y-109211995D01*
X126231036Y-109280674D01*
X126121555Y-109222155D01*
X125975594Y-109177878D01*
X125823800Y-109162928D01*
X125483800Y-109162928D01*
X125332006Y-109177878D01*
X125186045Y-109222155D01*
X125051526Y-109294057D01*
X124933620Y-109390820D01*
X124863715Y-109476000D01*
X124778893Y-109476000D01*
X124696296Y-109408214D01*
X124562642Y-109336775D01*
X124417619Y-109292782D01*
X124266800Y-109277928D01*
X124024246Y-109277928D01*
X124034472Y-109174100D01*
X124034472Y-108834100D01*
X124019522Y-108682306D01*
X123975245Y-108536345D01*
X123903343Y-108401826D01*
X123806580Y-108283920D01*
X123688674Y-108187157D01*
X123554155Y-108115255D01*
X123408194Y-108070978D01*
X123256400Y-108056028D01*
X122976400Y-108056028D01*
X122824606Y-108070978D01*
X122678645Y-108115255D01*
X122544126Y-108187157D01*
X122474741Y-108244100D01*
X122390515Y-108244100D01*
X125496723Y-105137893D01*
X125525721Y-105114095D01*
X125620694Y-104998370D01*
X125691266Y-104866341D01*
X125734723Y-104723080D01*
X125745720Y-104611427D01*
X125745720Y-104611418D01*
X125749396Y-104574095D01*
X125745720Y-104536772D01*
X125745720Y-98937491D01*
X125749396Y-98900168D01*
X125745720Y-98862845D01*
X125745720Y-98862836D01*
X125734723Y-98751183D01*
X125714647Y-98685000D01*
X141870722Y-98685000D01*
X149156400Y-105970679D01*
G37*
G04 #@! TD.AperFunction*
D34*
X115206744Y-112804205D02*
X115395102Y-112882226D01*
X115552856Y-112913605D01*
X115560274Y-112950898D01*
X115638295Y-113139256D01*
X115751563Y-113308774D01*
X115895726Y-113452937D01*
X116065244Y-113566205D01*
X116253602Y-113644226D01*
X116453561Y-113684000D01*
X116657439Y-113684000D01*
X116725339Y-113670494D01*
X116733774Y-113712898D01*
X116811795Y-113901256D01*
X116925063Y-114070774D01*
X116996246Y-114141957D01*
X116884269Y-114253934D01*
X116856282Y-114238975D01*
X116711259Y-114194982D01*
X116560440Y-114180128D01*
X116290440Y-114180128D01*
X116139621Y-114194982D01*
X115994598Y-114238975D01*
X115860944Y-114310414D01*
X115743796Y-114406556D01*
X115647654Y-114523704D01*
X115576215Y-114657358D01*
X115532222Y-114802381D01*
X115517368Y-114953200D01*
X115517368Y-115323200D01*
X115532222Y-115474019D01*
X115533377Y-115477828D01*
X115267400Y-115477828D01*
X115116581Y-115492682D01*
X114971558Y-115536675D01*
X114837904Y-115608114D01*
X114720756Y-115704256D01*
X114624614Y-115821404D01*
X114553175Y-115955058D01*
X114509182Y-116100081D01*
X114494328Y-116250900D01*
X114494328Y-116620900D01*
X114509182Y-116771719D01*
X114517400Y-116798811D01*
X114517401Y-117366088D01*
X114509182Y-117393181D01*
X114494328Y-117544000D01*
X114494328Y-117692870D01*
X113580199Y-118607000D01*
X112779802Y-118607000D01*
X112189800Y-118016999D01*
X112189800Y-113871715D01*
X112258024Y-113927706D01*
X112391678Y-113999145D01*
X112536701Y-114043138D01*
X112687520Y-114057992D01*
X113057520Y-114057992D01*
X113208339Y-114043138D01*
X113353362Y-113999145D01*
X113487016Y-113927706D01*
X113532954Y-113890005D01*
X113626606Y-113966863D01*
X113761125Y-114038765D01*
X113907086Y-114083042D01*
X114058880Y-114097992D01*
X114398880Y-114097992D01*
X114550674Y-114083042D01*
X114696635Y-114038765D01*
X114831154Y-113966863D01*
X114949060Y-113870100D01*
X115045823Y-113752194D01*
X115117725Y-113617675D01*
X115162002Y-113471714D01*
X115176952Y-113319920D01*
X115176952Y-113039920D01*
X115162002Y-112888126D01*
X115118699Y-112745375D01*
X115206744Y-112804205D01*
G04 #@! TA.AperFunction,Conductor*
D35*
G36*
X115206744Y-112804205D02*
G01*
X115395102Y-112882226D01*
X115552856Y-112913605D01*
X115560274Y-112950898D01*
X115638295Y-113139256D01*
X115751563Y-113308774D01*
X115895726Y-113452937D01*
X116065244Y-113566205D01*
X116253602Y-113644226D01*
X116453561Y-113684000D01*
X116657439Y-113684000D01*
X116725339Y-113670494D01*
X116733774Y-113712898D01*
X116811795Y-113901256D01*
X116925063Y-114070774D01*
X116996246Y-114141957D01*
X116884269Y-114253934D01*
X116856282Y-114238975D01*
X116711259Y-114194982D01*
X116560440Y-114180128D01*
X116290440Y-114180128D01*
X116139621Y-114194982D01*
X115994598Y-114238975D01*
X115860944Y-114310414D01*
X115743796Y-114406556D01*
X115647654Y-114523704D01*
X115576215Y-114657358D01*
X115532222Y-114802381D01*
X115517368Y-114953200D01*
X115517368Y-115323200D01*
X115532222Y-115474019D01*
X115533377Y-115477828D01*
X115267400Y-115477828D01*
X115116581Y-115492682D01*
X114971558Y-115536675D01*
X114837904Y-115608114D01*
X114720756Y-115704256D01*
X114624614Y-115821404D01*
X114553175Y-115955058D01*
X114509182Y-116100081D01*
X114494328Y-116250900D01*
X114494328Y-116620900D01*
X114509182Y-116771719D01*
X114517400Y-116798811D01*
X114517401Y-117366088D01*
X114509182Y-117393181D01*
X114494328Y-117544000D01*
X114494328Y-117692870D01*
X113580199Y-118607000D01*
X112779802Y-118607000D01*
X112189800Y-118016999D01*
X112189800Y-113871715D01*
X112258024Y-113927706D01*
X112391678Y-113999145D01*
X112536701Y-114043138D01*
X112687520Y-114057992D01*
X113057520Y-114057992D01*
X113208339Y-114043138D01*
X113353362Y-113999145D01*
X113487016Y-113927706D01*
X113532954Y-113890005D01*
X113626606Y-113966863D01*
X113761125Y-114038765D01*
X113907086Y-114083042D01*
X114058880Y-114097992D01*
X114398880Y-114097992D01*
X114550674Y-114083042D01*
X114696635Y-114038765D01*
X114831154Y-113966863D01*
X114949060Y-113870100D01*
X115045823Y-113752194D01*
X115117725Y-113617675D01*
X115162002Y-113471714D01*
X115176952Y-113319920D01*
X115176952Y-113039920D01*
X115162002Y-112888126D01*
X115118699Y-112745375D01*
X115206744Y-112804205D01*
G37*
G04 #@! TD.AperFunction*
D34*
X156509000Y-95711000D02*
X156529000Y-95711000D01*
X156529000Y-95965000D01*
X156509000Y-95965000D01*
X156509000Y-97158155D01*
X156738890Y-97279476D01*
X156886099Y-97234825D01*
X157148920Y-97109641D01*
X157382269Y-96935588D01*
X157577178Y-96719355D01*
X157646805Y-96602466D01*
X157768525Y-96784632D01*
X157975368Y-96991475D01*
X158218589Y-97153990D01*
X158488842Y-97265932D01*
X158775740Y-97323000D01*
X159068260Y-97323000D01*
X159355158Y-97265932D01*
X159625411Y-97153990D01*
X159868632Y-96991475D01*
X160075475Y-96784632D01*
X160192000Y-96610240D01*
X160308525Y-96784632D01*
X160515368Y-96991475D01*
X160758589Y-97153990D01*
X161028842Y-97265932D01*
X161315740Y-97323000D01*
X161608260Y-97323000D01*
X161895158Y-97265932D01*
X162165411Y-97153990D01*
X162408632Y-96991475D01*
X162615475Y-96784632D01*
X162732000Y-96610240D01*
X162848525Y-96784632D01*
X163055368Y-96991475D01*
X163298589Y-97153990D01*
X163568842Y-97265932D01*
X163855740Y-97323000D01*
X164148260Y-97323000D01*
X164435158Y-97265932D01*
X164705411Y-97153990D01*
X164948632Y-96991475D01*
X165155475Y-96784632D01*
X165272000Y-96610240D01*
X165388525Y-96784632D01*
X165595368Y-96991475D01*
X165838589Y-97153990D01*
X165849401Y-97158469D01*
X165907026Y-97266276D01*
X165935339Y-97300775D01*
X166001999Y-97382001D01*
X166031003Y-97405804D01*
X170436200Y-101811002D01*
X170459999Y-101840001D01*
X170488997Y-101863799D01*
X170575723Y-101934974D01*
X170651025Y-101975224D01*
X170707753Y-102005546D01*
X170851014Y-102049003D01*
X170962667Y-102060000D01*
X170962676Y-102060000D01*
X170999999Y-102063676D01*
X171037322Y-102060000D01*
X171566356Y-102060000D01*
X171556188Y-102093518D01*
X171543928Y-102218000D01*
X171543928Y-103918000D01*
X171556188Y-104042482D01*
X171592498Y-104162180D01*
X171651463Y-104272494D01*
X171730815Y-104369185D01*
X171827506Y-104448537D01*
X171937820Y-104507502D01*
X172057518Y-104543812D01*
X172182000Y-104556072D01*
X173882000Y-104556072D01*
X174006482Y-104543812D01*
X174126180Y-104507502D01*
X174236494Y-104448537D01*
X174333185Y-104369185D01*
X174412537Y-104272494D01*
X174471502Y-104162180D01*
X174495966Y-104081534D01*
X174571731Y-104165588D01*
X174805080Y-104339641D01*
X175067901Y-104464825D01*
X175215110Y-104509476D01*
X175445000Y-104388155D01*
X175445000Y-103195000D01*
X175425000Y-103195000D01*
X175425000Y-102941000D01*
X175445000Y-102941000D01*
X175445000Y-102921000D01*
X175699000Y-102921000D01*
X175699000Y-102941000D01*
X175719000Y-102941000D01*
X175719000Y-103195000D01*
X175699000Y-103195000D01*
X175699000Y-104388155D01*
X175928890Y-104509476D01*
X176076099Y-104464825D01*
X176338920Y-104339641D01*
X176572269Y-104165588D01*
X176767178Y-103949355D01*
X176836805Y-103832466D01*
X176958525Y-104014632D01*
X177165368Y-104221475D01*
X177408589Y-104383990D01*
X177678842Y-104495932D01*
X177965740Y-104553000D01*
X178258260Y-104553000D01*
X178545158Y-104495932D01*
X178815411Y-104383990D01*
X179058632Y-104221475D01*
X179265475Y-104014632D01*
X179382000Y-103840240D01*
X179498525Y-104014632D01*
X179705368Y-104221475D01*
X179948589Y-104383990D01*
X180218842Y-104495932D01*
X180505740Y-104553000D01*
X180798260Y-104553000D01*
X181067002Y-104499544D01*
X181067001Y-110118199D01*
X180342000Y-110843200D01*
X180342000Y-110284053D01*
X180363833Y-110257449D01*
X180478511Y-110042900D01*
X180549130Y-109810101D01*
X180567000Y-109628664D01*
X180567000Y-109107335D01*
X180549130Y-108925898D01*
X180478511Y-108693099D01*
X180363833Y-108478551D01*
X180209502Y-108290498D01*
X180021448Y-108136167D01*
X179806900Y-108021489D01*
X179732419Y-107998895D01*
X179916992Y-107922443D01*
X180119267Y-107787287D01*
X180291287Y-107615267D01*
X180426443Y-107412992D01*
X180519540Y-107188236D01*
X180567000Y-106949637D01*
X180567000Y-106706363D01*
X180519540Y-106467764D01*
X180426443Y-106243008D01*
X180291287Y-106040733D01*
X180119267Y-105868713D01*
X179916992Y-105733557D01*
X179692236Y-105640460D01*
X179453637Y-105593000D01*
X179210363Y-105593000D01*
X178971764Y-105640460D01*
X178747008Y-105733557D01*
X178620630Y-105818000D01*
X178142118Y-105818000D01*
X178097994Y-105804615D01*
X177900000Y-105785114D01*
X177702006Y-105804615D01*
X177511621Y-105862368D01*
X177375305Y-105935231D01*
X177310842Y-105900775D01*
X177165819Y-105856782D01*
X177015000Y-105841928D01*
X176745000Y-105841928D01*
X176594181Y-105856782D01*
X176449158Y-105900775D01*
X176422545Y-105915000D01*
X174293469Y-105915000D01*
X174250000Y-105910719D01*
X174206531Y-105915000D01*
X174206523Y-105915000D01*
X174076510Y-105927805D01*
X173909686Y-105978411D01*
X173755941Y-106060589D01*
X173654953Y-106143468D01*
X173654951Y-106143470D01*
X173621183Y-106171183D01*
X173593470Y-106204951D01*
X171586494Y-108211928D01*
X171450000Y-108211928D01*
X171425550Y-108214336D01*
X171400991Y-108214336D01*
X171394249Y-108215000D01*
X170470132Y-108215000D01*
X170238072Y-107982940D01*
X170238072Y-107900000D01*
X170225812Y-107775518D01*
X170189502Y-107655820D01*
X170130537Y-107545506D01*
X170051185Y-107448815D01*
X169954494Y-107369463D01*
X169844180Y-107310498D01*
X169724482Y-107274188D01*
X169600000Y-107261928D01*
X169340283Y-107261928D01*
X168224260Y-106145905D01*
X168192632Y-106107366D01*
X168038839Y-105981152D01*
X167863379Y-105887367D01*
X167672993Y-105829614D01*
X167524607Y-105814999D01*
X167474999Y-105810113D01*
X167425391Y-105814999D01*
X163556905Y-105814999D01*
X165128141Y-104243763D01*
X165171449Y-104208221D01*
X165313284Y-104035395D01*
X165418676Y-103838219D01*
X165483577Y-103624271D01*
X165500000Y-103457524D01*
X165500000Y-103457523D01*
X165505491Y-103401772D01*
X165500000Y-103346020D01*
X165500000Y-101351248D01*
X165483577Y-101184501D01*
X165418676Y-100970553D01*
X165313284Y-100773377D01*
X165171449Y-100600551D01*
X164998623Y-100458716D01*
X164801446Y-100353324D01*
X164587498Y-100288423D01*
X164365000Y-100266509D01*
X164142501Y-100288423D01*
X163928553Y-100353324D01*
X163731377Y-100458716D01*
X163558551Y-100600551D01*
X163416716Y-100773377D01*
X163311324Y-100970554D01*
X163246423Y-101184502D01*
X163230000Y-101351249D01*
X163230001Y-102931639D01*
X158952941Y-107208700D01*
X158729472Y-107208700D01*
X158729472Y-106693700D01*
X158717212Y-106569218D01*
X158680902Y-106449520D01*
X158621937Y-106339206D01*
X158542585Y-106242515D01*
X158445894Y-106163163D01*
X158335580Y-106104198D01*
X158215882Y-106067888D01*
X158091400Y-106055628D01*
X155591400Y-106055628D01*
X155466918Y-106067888D01*
X155347220Y-106104198D01*
X155236906Y-106163163D01*
X155140215Y-106242515D01*
X155060863Y-106339206D01*
X155001898Y-106449520D01*
X154965588Y-106569218D01*
X154953328Y-106693700D01*
X154953328Y-109993700D01*
X154965588Y-110118182D01*
X155001898Y-110237880D01*
X155044831Y-110318200D01*
X153444255Y-110318200D01*
X151929472Y-108803417D01*
X151929472Y-106693700D01*
X151917212Y-106569218D01*
X151880902Y-106449520D01*
X151821937Y-106339206D01*
X151742585Y-106242515D01*
X151645894Y-106163163D01*
X151535580Y-106104198D01*
X151415882Y-106067888D01*
X151291400Y-106055628D01*
X150926400Y-106055628D01*
X150926400Y-105647566D01*
X150930681Y-105604099D01*
X150926400Y-105560633D01*
X150926400Y-105560623D01*
X150913595Y-105430610D01*
X150862989Y-105263787D01*
X150780811Y-105110041D01*
X150734594Y-105053726D01*
X150697932Y-105009053D01*
X150697930Y-105009051D01*
X150670217Y-104975283D01*
X150636451Y-104947572D01*
X146788878Y-101099999D01*
X148461928Y-101099999D01*
X148461928Y-101100001D01*
X148522225Y-101712208D01*
X148700800Y-102300889D01*
X148990788Y-102843420D01*
X149381048Y-103318953D01*
X149856581Y-103709213D01*
X150399112Y-103999201D01*
X150987793Y-104177776D01*
X151600000Y-104238073D01*
X155600000Y-104238073D01*
X156212207Y-104177776D01*
X156800888Y-103999201D01*
X157343419Y-103709213D01*
X157818952Y-103318953D01*
X158209212Y-102843420D01*
X158499200Y-102300889D01*
X158677775Y-101712208D01*
X158738072Y-101100001D01*
X158738072Y-101099999D01*
X158677775Y-100487792D01*
X158499200Y-99899111D01*
X158209212Y-99356580D01*
X157818952Y-98881047D01*
X157343419Y-98490787D01*
X156800888Y-98200799D01*
X156212207Y-98022224D01*
X155600000Y-97961927D01*
X151600000Y-97961927D01*
X150987793Y-98022224D01*
X150399112Y-98200799D01*
X149856581Y-98490787D01*
X149381048Y-98881047D01*
X148990788Y-99356580D01*
X148700800Y-99899111D01*
X148522225Y-100487792D01*
X148461928Y-101099999D01*
X146788878Y-101099999D01*
X142893834Y-97204956D01*
X142866117Y-97171183D01*
X142731359Y-97060589D01*
X142577613Y-96978411D01*
X142410790Y-96927805D01*
X142280777Y-96915000D01*
X142280769Y-96915000D01*
X142237300Y-96910719D01*
X142193831Y-96915000D01*
X142165107Y-96915000D01*
X142295475Y-96784632D01*
X142412000Y-96610240D01*
X142528525Y-96784632D01*
X142735368Y-96991475D01*
X142978589Y-97153990D01*
X143248842Y-97265932D01*
X143535740Y-97323000D01*
X143828260Y-97323000D01*
X144115158Y-97265932D01*
X144385411Y-97153990D01*
X144628632Y-96991475D01*
X144835475Y-96784632D01*
X144952000Y-96610240D01*
X145068525Y-96784632D01*
X145275368Y-96991475D01*
X145518589Y-97153990D01*
X145788842Y-97265932D01*
X146075740Y-97323000D01*
X146368260Y-97323000D01*
X146655158Y-97265932D01*
X146925411Y-97153990D01*
X147168632Y-96991475D01*
X147375475Y-96784632D01*
X147492000Y-96610240D01*
X147608525Y-96784632D01*
X147815368Y-96991475D01*
X148058589Y-97153990D01*
X148328842Y-97265932D01*
X148615740Y-97323000D01*
X148908260Y-97323000D01*
X149195158Y-97265932D01*
X149465411Y-97153990D01*
X149708632Y-96991475D01*
X149915475Y-96784632D01*
X150032000Y-96610240D01*
X150148525Y-96784632D01*
X150355368Y-96991475D01*
X150598589Y-97153990D01*
X150868842Y-97265932D01*
X151155740Y-97323000D01*
X151448260Y-97323000D01*
X151735158Y-97265932D01*
X152005411Y-97153990D01*
X152248632Y-96991475D01*
X152455475Y-96784632D01*
X152572000Y-96610240D01*
X152688525Y-96784632D01*
X152895368Y-96991475D01*
X153138589Y-97153990D01*
X153408842Y-97265932D01*
X153695740Y-97323000D01*
X153988260Y-97323000D01*
X154275158Y-97265932D01*
X154545411Y-97153990D01*
X154788632Y-96991475D01*
X154995475Y-96784632D01*
X155117195Y-96602466D01*
X155186822Y-96719355D01*
X155381731Y-96935588D01*
X155615080Y-97109641D01*
X155877901Y-97234825D01*
X156025110Y-97279476D01*
X156255000Y-97158155D01*
X156255000Y-95965000D01*
X156235000Y-95965000D01*
X156235000Y-95711000D01*
X156255000Y-95711000D01*
X156255000Y-95691000D01*
X156509000Y-95691000D01*
X156509000Y-95711000D01*
G04 #@! TA.AperFunction,Conductor*
D35*
G36*
X156509000Y-95711000D02*
G01*
X156529000Y-95711000D01*
X156529000Y-95965000D01*
X156509000Y-95965000D01*
X156509000Y-97158155D01*
X156738890Y-97279476D01*
X156886099Y-97234825D01*
X157148920Y-97109641D01*
X157382269Y-96935588D01*
X157577178Y-96719355D01*
X157646805Y-96602466D01*
X157768525Y-96784632D01*
X157975368Y-96991475D01*
X158218589Y-97153990D01*
X158488842Y-97265932D01*
X158775740Y-97323000D01*
X159068260Y-97323000D01*
X159355158Y-97265932D01*
X159625411Y-97153990D01*
X159868632Y-96991475D01*
X160075475Y-96784632D01*
X160192000Y-96610240D01*
X160308525Y-96784632D01*
X160515368Y-96991475D01*
X160758589Y-97153990D01*
X161028842Y-97265932D01*
X161315740Y-97323000D01*
X161608260Y-97323000D01*
X161895158Y-97265932D01*
X162165411Y-97153990D01*
X162408632Y-96991475D01*
X162615475Y-96784632D01*
X162732000Y-96610240D01*
X162848525Y-96784632D01*
X163055368Y-96991475D01*
X163298589Y-97153990D01*
X163568842Y-97265932D01*
X163855740Y-97323000D01*
X164148260Y-97323000D01*
X164435158Y-97265932D01*
X164705411Y-97153990D01*
X164948632Y-96991475D01*
X165155475Y-96784632D01*
X165272000Y-96610240D01*
X165388525Y-96784632D01*
X165595368Y-96991475D01*
X165838589Y-97153990D01*
X165849401Y-97158469D01*
X165907026Y-97266276D01*
X165935339Y-97300775D01*
X166001999Y-97382001D01*
X166031003Y-97405804D01*
X170436200Y-101811002D01*
X170459999Y-101840001D01*
X170488997Y-101863799D01*
X170575723Y-101934974D01*
X170651025Y-101975224D01*
X170707753Y-102005546D01*
X170851014Y-102049003D01*
X170962667Y-102060000D01*
X170962676Y-102060000D01*
X170999999Y-102063676D01*
X171037322Y-102060000D01*
X171566356Y-102060000D01*
X171556188Y-102093518D01*
X171543928Y-102218000D01*
X171543928Y-103918000D01*
X171556188Y-104042482D01*
X171592498Y-104162180D01*
X171651463Y-104272494D01*
X171730815Y-104369185D01*
X171827506Y-104448537D01*
X171937820Y-104507502D01*
X172057518Y-104543812D01*
X172182000Y-104556072D01*
X173882000Y-104556072D01*
X174006482Y-104543812D01*
X174126180Y-104507502D01*
X174236494Y-104448537D01*
X174333185Y-104369185D01*
X174412537Y-104272494D01*
X174471502Y-104162180D01*
X174495966Y-104081534D01*
X174571731Y-104165588D01*
X174805080Y-104339641D01*
X175067901Y-104464825D01*
X175215110Y-104509476D01*
X175445000Y-104388155D01*
X175445000Y-103195000D01*
X175425000Y-103195000D01*
X175425000Y-102941000D01*
X175445000Y-102941000D01*
X175445000Y-102921000D01*
X175699000Y-102921000D01*
X175699000Y-102941000D01*
X175719000Y-102941000D01*
X175719000Y-103195000D01*
X175699000Y-103195000D01*
X175699000Y-104388155D01*
X175928890Y-104509476D01*
X176076099Y-104464825D01*
X176338920Y-104339641D01*
X176572269Y-104165588D01*
X176767178Y-103949355D01*
X176836805Y-103832466D01*
X176958525Y-104014632D01*
X177165368Y-104221475D01*
X177408589Y-104383990D01*
X177678842Y-104495932D01*
X177965740Y-104553000D01*
X178258260Y-104553000D01*
X178545158Y-104495932D01*
X178815411Y-104383990D01*
X179058632Y-104221475D01*
X179265475Y-104014632D01*
X179382000Y-103840240D01*
X179498525Y-104014632D01*
X179705368Y-104221475D01*
X179948589Y-104383990D01*
X180218842Y-104495932D01*
X180505740Y-104553000D01*
X180798260Y-104553000D01*
X181067002Y-104499544D01*
X181067001Y-110118199D01*
X180342000Y-110843200D01*
X180342000Y-110284053D01*
X180363833Y-110257449D01*
X180478511Y-110042900D01*
X180549130Y-109810101D01*
X180567000Y-109628664D01*
X180567000Y-109107335D01*
X180549130Y-108925898D01*
X180478511Y-108693099D01*
X180363833Y-108478551D01*
X180209502Y-108290498D01*
X180021448Y-108136167D01*
X179806900Y-108021489D01*
X179732419Y-107998895D01*
X179916992Y-107922443D01*
X180119267Y-107787287D01*
X180291287Y-107615267D01*
X180426443Y-107412992D01*
X180519540Y-107188236D01*
X180567000Y-106949637D01*
X180567000Y-106706363D01*
X180519540Y-106467764D01*
X180426443Y-106243008D01*
X180291287Y-106040733D01*
X180119267Y-105868713D01*
X179916992Y-105733557D01*
X179692236Y-105640460D01*
X179453637Y-105593000D01*
X179210363Y-105593000D01*
X178971764Y-105640460D01*
X178747008Y-105733557D01*
X178620630Y-105818000D01*
X178142118Y-105818000D01*
X178097994Y-105804615D01*
X177900000Y-105785114D01*
X177702006Y-105804615D01*
X177511621Y-105862368D01*
X177375305Y-105935231D01*
X177310842Y-105900775D01*
X177165819Y-105856782D01*
X177015000Y-105841928D01*
X176745000Y-105841928D01*
X176594181Y-105856782D01*
X176449158Y-105900775D01*
X176422545Y-105915000D01*
X174293469Y-105915000D01*
X174250000Y-105910719D01*
X174206531Y-105915000D01*
X174206523Y-105915000D01*
X174076510Y-105927805D01*
X173909686Y-105978411D01*
X173755941Y-106060589D01*
X173654953Y-106143468D01*
X173654951Y-106143470D01*
X173621183Y-106171183D01*
X173593470Y-106204951D01*
X171586494Y-108211928D01*
X171450000Y-108211928D01*
X171425550Y-108214336D01*
X171400991Y-108214336D01*
X171394249Y-108215000D01*
X170470132Y-108215000D01*
X170238072Y-107982940D01*
X170238072Y-107900000D01*
X170225812Y-107775518D01*
X170189502Y-107655820D01*
X170130537Y-107545506D01*
X170051185Y-107448815D01*
X169954494Y-107369463D01*
X169844180Y-107310498D01*
X169724482Y-107274188D01*
X169600000Y-107261928D01*
X169340283Y-107261928D01*
X168224260Y-106145905D01*
X168192632Y-106107366D01*
X168038839Y-105981152D01*
X167863379Y-105887367D01*
X167672993Y-105829614D01*
X167524607Y-105814999D01*
X167474999Y-105810113D01*
X167425391Y-105814999D01*
X163556905Y-105814999D01*
X165128141Y-104243763D01*
X165171449Y-104208221D01*
X165313284Y-104035395D01*
X165418676Y-103838219D01*
X165483577Y-103624271D01*
X165500000Y-103457524D01*
X165500000Y-103457523D01*
X165505491Y-103401772D01*
X165500000Y-103346020D01*
X165500000Y-101351248D01*
X165483577Y-101184501D01*
X165418676Y-100970553D01*
X165313284Y-100773377D01*
X165171449Y-100600551D01*
X164998623Y-100458716D01*
X164801446Y-100353324D01*
X164587498Y-100288423D01*
X164365000Y-100266509D01*
X164142501Y-100288423D01*
X163928553Y-100353324D01*
X163731377Y-100458716D01*
X163558551Y-100600551D01*
X163416716Y-100773377D01*
X163311324Y-100970554D01*
X163246423Y-101184502D01*
X163230000Y-101351249D01*
X163230001Y-102931639D01*
X158952941Y-107208700D01*
X158729472Y-107208700D01*
X158729472Y-106693700D01*
X158717212Y-106569218D01*
X158680902Y-106449520D01*
X158621937Y-106339206D01*
X158542585Y-106242515D01*
X158445894Y-106163163D01*
X158335580Y-106104198D01*
X158215882Y-106067888D01*
X158091400Y-106055628D01*
X155591400Y-106055628D01*
X155466918Y-106067888D01*
X155347220Y-106104198D01*
X155236906Y-106163163D01*
X155140215Y-106242515D01*
X155060863Y-106339206D01*
X155001898Y-106449520D01*
X154965588Y-106569218D01*
X154953328Y-106693700D01*
X154953328Y-109993700D01*
X154965588Y-110118182D01*
X155001898Y-110237880D01*
X155044831Y-110318200D01*
X153444255Y-110318200D01*
X151929472Y-108803417D01*
X151929472Y-106693700D01*
X151917212Y-106569218D01*
X151880902Y-106449520D01*
X151821937Y-106339206D01*
X151742585Y-106242515D01*
X151645894Y-106163163D01*
X151535580Y-106104198D01*
X151415882Y-106067888D01*
X151291400Y-106055628D01*
X150926400Y-106055628D01*
X150926400Y-105647566D01*
X150930681Y-105604099D01*
X150926400Y-105560633D01*
X150926400Y-105560623D01*
X150913595Y-105430610D01*
X150862989Y-105263787D01*
X150780811Y-105110041D01*
X150734594Y-105053726D01*
X150697932Y-105009053D01*
X150697930Y-105009051D01*
X150670217Y-104975283D01*
X150636451Y-104947572D01*
X146788878Y-101099999D01*
X148461928Y-101099999D01*
X148461928Y-101100001D01*
X148522225Y-101712208D01*
X148700800Y-102300889D01*
X148990788Y-102843420D01*
X149381048Y-103318953D01*
X149856581Y-103709213D01*
X150399112Y-103999201D01*
X150987793Y-104177776D01*
X151600000Y-104238073D01*
X155600000Y-104238073D01*
X156212207Y-104177776D01*
X156800888Y-103999201D01*
X157343419Y-103709213D01*
X157818952Y-103318953D01*
X158209212Y-102843420D01*
X158499200Y-102300889D01*
X158677775Y-101712208D01*
X158738072Y-101100001D01*
X158738072Y-101099999D01*
X158677775Y-100487792D01*
X158499200Y-99899111D01*
X158209212Y-99356580D01*
X157818952Y-98881047D01*
X157343419Y-98490787D01*
X156800888Y-98200799D01*
X156212207Y-98022224D01*
X155600000Y-97961927D01*
X151600000Y-97961927D01*
X150987793Y-98022224D01*
X150399112Y-98200799D01*
X149856581Y-98490787D01*
X149381048Y-98881047D01*
X148990788Y-99356580D01*
X148700800Y-99899111D01*
X148522225Y-100487792D01*
X148461928Y-101099999D01*
X146788878Y-101099999D01*
X142893834Y-97204956D01*
X142866117Y-97171183D01*
X142731359Y-97060589D01*
X142577613Y-96978411D01*
X142410790Y-96927805D01*
X142280777Y-96915000D01*
X142280769Y-96915000D01*
X142237300Y-96910719D01*
X142193831Y-96915000D01*
X142165107Y-96915000D01*
X142295475Y-96784632D01*
X142412000Y-96610240D01*
X142528525Y-96784632D01*
X142735368Y-96991475D01*
X142978589Y-97153990D01*
X143248842Y-97265932D01*
X143535740Y-97323000D01*
X143828260Y-97323000D01*
X144115158Y-97265932D01*
X144385411Y-97153990D01*
X144628632Y-96991475D01*
X144835475Y-96784632D01*
X144952000Y-96610240D01*
X145068525Y-96784632D01*
X145275368Y-96991475D01*
X145518589Y-97153990D01*
X145788842Y-97265932D01*
X146075740Y-97323000D01*
X146368260Y-97323000D01*
X146655158Y-97265932D01*
X146925411Y-97153990D01*
X147168632Y-96991475D01*
X147375475Y-96784632D01*
X147492000Y-96610240D01*
X147608525Y-96784632D01*
X147815368Y-96991475D01*
X148058589Y-97153990D01*
X148328842Y-97265932D01*
X148615740Y-97323000D01*
X148908260Y-97323000D01*
X149195158Y-97265932D01*
X149465411Y-97153990D01*
X149708632Y-96991475D01*
X149915475Y-96784632D01*
X150032000Y-96610240D01*
X150148525Y-96784632D01*
X150355368Y-96991475D01*
X150598589Y-97153990D01*
X150868842Y-97265932D01*
X151155740Y-97323000D01*
X151448260Y-97323000D01*
X151735158Y-97265932D01*
X152005411Y-97153990D01*
X152248632Y-96991475D01*
X152455475Y-96784632D01*
X152572000Y-96610240D01*
X152688525Y-96784632D01*
X152895368Y-96991475D01*
X153138589Y-97153990D01*
X153408842Y-97265932D01*
X153695740Y-97323000D01*
X153988260Y-97323000D01*
X154275158Y-97265932D01*
X154545411Y-97153990D01*
X154788632Y-96991475D01*
X154995475Y-96784632D01*
X155117195Y-96602466D01*
X155186822Y-96719355D01*
X155381731Y-96935588D01*
X155615080Y-97109641D01*
X155877901Y-97234825D01*
X156025110Y-97279476D01*
X156255000Y-97158155D01*
X156255000Y-95965000D01*
X156235000Y-95965000D01*
X156235000Y-95711000D01*
X156255000Y-95711000D01*
X156255000Y-95691000D01*
X156509000Y-95691000D01*
X156509000Y-95711000D01*
G37*
G04 #@! TD.AperFunction*
D34*
X117581325Y-107849711D02*
X117718000Y-107863172D01*
X117843000Y-107863172D01*
X117925559Y-107855041D01*
X117917428Y-107937600D01*
X117917428Y-108062600D01*
X117930889Y-108199275D01*
X117946307Y-108250100D01*
X117930889Y-108300925D01*
X117917428Y-108437600D01*
X117917428Y-108562600D01*
X117930889Y-108699275D01*
X117946307Y-108750100D01*
X117930889Y-108800925D01*
X117917428Y-108937600D01*
X117917428Y-109062600D01*
X117930889Y-109199275D01*
X117946307Y-109250100D01*
X117930889Y-109300925D01*
X117917428Y-109437600D01*
X117917428Y-109562600D01*
X117925559Y-109645159D01*
X117843000Y-109637028D01*
X117718000Y-109637028D01*
X117581325Y-109650489D01*
X117530500Y-109665907D01*
X117479675Y-109650489D01*
X117343000Y-109637028D01*
X117218000Y-109637028D01*
X117081325Y-109650489D01*
X117030500Y-109665907D01*
X116979675Y-109650489D01*
X116843000Y-109637028D01*
X116718000Y-109637028D01*
X116581325Y-109650489D01*
X116530500Y-109665907D01*
X116479675Y-109650489D01*
X116343000Y-109637028D01*
X116218000Y-109637028D01*
X116135441Y-109645159D01*
X116143572Y-109562600D01*
X116143572Y-109437600D01*
X116130111Y-109300925D01*
X116114693Y-109250100D01*
X116130111Y-109199275D01*
X116143572Y-109062600D01*
X116143572Y-108937600D01*
X116130111Y-108800925D01*
X116114693Y-108750100D01*
X116130111Y-108699275D01*
X116143572Y-108562600D01*
X116143572Y-108437600D01*
X116130111Y-108300925D01*
X116114693Y-108250100D01*
X116130111Y-108199275D01*
X116143572Y-108062600D01*
X116143572Y-107937600D01*
X116135441Y-107855041D01*
X116218000Y-107863172D01*
X116343000Y-107863172D01*
X116479675Y-107849711D01*
X116530500Y-107834293D01*
X116581325Y-107849711D01*
X116718000Y-107863172D01*
X116843000Y-107863172D01*
X116979675Y-107849711D01*
X117030500Y-107834293D01*
X117081325Y-107849711D01*
X117218000Y-107863172D01*
X117343000Y-107863172D01*
X117479675Y-107849711D01*
X117530500Y-107834293D01*
X117581325Y-107849711D01*
G04 #@! TA.AperFunction,Conductor*
D35*
G36*
X117581325Y-107849711D02*
G01*
X117718000Y-107863172D01*
X117843000Y-107863172D01*
X117925559Y-107855041D01*
X117917428Y-107937600D01*
X117917428Y-108062600D01*
X117930889Y-108199275D01*
X117946307Y-108250100D01*
X117930889Y-108300925D01*
X117917428Y-108437600D01*
X117917428Y-108562600D01*
X117930889Y-108699275D01*
X117946307Y-108750100D01*
X117930889Y-108800925D01*
X117917428Y-108937600D01*
X117917428Y-109062600D01*
X117930889Y-109199275D01*
X117946307Y-109250100D01*
X117930889Y-109300925D01*
X117917428Y-109437600D01*
X117917428Y-109562600D01*
X117925559Y-109645159D01*
X117843000Y-109637028D01*
X117718000Y-109637028D01*
X117581325Y-109650489D01*
X117530500Y-109665907D01*
X117479675Y-109650489D01*
X117343000Y-109637028D01*
X117218000Y-109637028D01*
X117081325Y-109650489D01*
X117030500Y-109665907D01*
X116979675Y-109650489D01*
X116843000Y-109637028D01*
X116718000Y-109637028D01*
X116581325Y-109650489D01*
X116530500Y-109665907D01*
X116479675Y-109650489D01*
X116343000Y-109637028D01*
X116218000Y-109637028D01*
X116135441Y-109645159D01*
X116143572Y-109562600D01*
X116143572Y-109437600D01*
X116130111Y-109300925D01*
X116114693Y-109250100D01*
X116130111Y-109199275D01*
X116143572Y-109062600D01*
X116143572Y-108937600D01*
X116130111Y-108800925D01*
X116114693Y-108750100D01*
X116130111Y-108699275D01*
X116143572Y-108562600D01*
X116143572Y-108437600D01*
X116130111Y-108300925D01*
X116114693Y-108250100D01*
X116130111Y-108199275D01*
X116143572Y-108062600D01*
X116143572Y-107937600D01*
X116135441Y-107855041D01*
X116218000Y-107863172D01*
X116343000Y-107863172D01*
X116479675Y-107849711D01*
X116530500Y-107834293D01*
X116581325Y-107849711D01*
X116718000Y-107863172D01*
X116843000Y-107863172D01*
X116979675Y-107849711D01*
X117030500Y-107834293D01*
X117081325Y-107849711D01*
X117218000Y-107863172D01*
X117343000Y-107863172D01*
X117479675Y-107849711D01*
X117530500Y-107834293D01*
X117581325Y-107849711D01*
G37*
G04 #@! TD.AperFunction*
D34*
X114029659Y-106040733D02*
X114037853Y-106067745D01*
X114108425Y-106199775D01*
X114138286Y-106236160D01*
X114203398Y-106315500D01*
X114232401Y-106339303D01*
X115017428Y-107124330D01*
X115017428Y-107162600D01*
X115024758Y-107237028D01*
X114944207Y-107237028D01*
X114009232Y-106302054D01*
X114009232Y-105973393D01*
X114029659Y-106040733D01*
G04 #@! TA.AperFunction,Conductor*
D35*
G36*
X114029659Y-106040733D02*
G01*
X114037853Y-106067745D01*
X114108425Y-106199775D01*
X114138286Y-106236160D01*
X114203398Y-106315500D01*
X114232401Y-106339303D01*
X115017428Y-107124330D01*
X115017428Y-107162600D01*
X115024758Y-107237028D01*
X114944207Y-107237028D01*
X114009232Y-106302054D01*
X114009232Y-105973393D01*
X114029659Y-106040733D01*
G37*
G04 #@! TD.AperFunction*
D34*
X180779000Y-99341000D02*
X180799000Y-99341000D01*
X180799000Y-99595000D01*
X180779000Y-99595000D01*
X180779000Y-100788155D01*
X181008890Y-100909476D01*
X181067002Y-100891850D01*
X181067002Y-101636456D01*
X180798260Y-101583000D01*
X180505740Y-101583000D01*
X180285592Y-101626790D01*
X179447804Y-100789003D01*
X179424001Y-100759999D01*
X179308276Y-100665026D01*
X179176247Y-100594454D01*
X179106738Y-100573369D01*
X179265475Y-100414632D01*
X179387195Y-100232466D01*
X179456822Y-100349355D01*
X179651731Y-100565588D01*
X179885080Y-100739641D01*
X180147901Y-100864825D01*
X180295110Y-100909476D01*
X180525000Y-100788155D01*
X180525000Y-99595000D01*
X180505000Y-99595000D01*
X180505000Y-99341000D01*
X180525000Y-99341000D01*
X180525000Y-99321000D01*
X180779000Y-99321000D01*
X180779000Y-99341000D01*
G04 #@! TA.AperFunction,Conductor*
D35*
G36*
X180779000Y-99341000D02*
G01*
X180799000Y-99341000D01*
X180799000Y-99595000D01*
X180779000Y-99595000D01*
X180779000Y-100788155D01*
X181008890Y-100909476D01*
X181067002Y-100891850D01*
X181067002Y-101636456D01*
X180798260Y-101583000D01*
X180505740Y-101583000D01*
X180285592Y-101626790D01*
X179447804Y-100789003D01*
X179424001Y-100759999D01*
X179308276Y-100665026D01*
X179176247Y-100594454D01*
X179106738Y-100573369D01*
X179265475Y-100414632D01*
X179387195Y-100232466D01*
X179456822Y-100349355D01*
X179651731Y-100565588D01*
X179885080Y-100739641D01*
X180147901Y-100864825D01*
X180295110Y-100909476D01*
X180525000Y-100788155D01*
X180525000Y-99595000D01*
X180505000Y-99595000D01*
X180505000Y-99341000D01*
X180525000Y-99341000D01*
X180525000Y-99321000D01*
X180779000Y-99321000D01*
X180779000Y-99341000D01*
G37*
G04 #@! TD.AperFunction*
D34*
X105939208Y-98886010D02*
X105963007Y-98915009D01*
X105992005Y-98938807D01*
X106078731Y-99009982D01*
X106159182Y-99052984D01*
X106210761Y-99080554D01*
X106354022Y-99124011D01*
X106465675Y-99135008D01*
X106465684Y-99135008D01*
X106503007Y-99138684D01*
X106540330Y-99135008D01*
X107434860Y-99135008D01*
X105396869Y-101173000D01*
X104227000Y-101173000D01*
X104227000Y-98900000D01*
X104224560Y-98875224D01*
X104217333Y-98851399D01*
X104205597Y-98829443D01*
X104189803Y-98810197D01*
X104170557Y-98794403D01*
X104148601Y-98782667D01*
X104124776Y-98775440D01*
X104100000Y-98773000D01*
X102225340Y-98773000D01*
X102177329Y-95124130D01*
X105939208Y-98886010D01*
G04 #@! TA.AperFunction,Conductor*
D35*
G36*
X105939208Y-98886010D02*
G01*
X105963007Y-98915009D01*
X105992005Y-98938807D01*
X106078731Y-99009982D01*
X106159182Y-99052984D01*
X106210761Y-99080554D01*
X106354022Y-99124011D01*
X106465675Y-99135008D01*
X106465684Y-99135008D01*
X106503007Y-99138684D01*
X106540330Y-99135008D01*
X107434860Y-99135008D01*
X105396869Y-101173000D01*
X104227000Y-101173000D01*
X104227000Y-98900000D01*
X104224560Y-98875224D01*
X104217333Y-98851399D01*
X104205597Y-98829443D01*
X104189803Y-98810197D01*
X104170557Y-98794403D01*
X104148601Y-98782667D01*
X104124776Y-98775440D01*
X104100000Y-98773000D01*
X102225340Y-98773000D01*
X102177329Y-95124130D01*
X105939208Y-98886010D01*
G37*
G04 #@! TD.AperFunction*
D34*
X118974907Y-92061425D02*
X118525425Y-92510907D01*
X118172270Y-93039442D01*
X117929012Y-93626719D01*
X117805000Y-94250168D01*
X117805000Y-94885832D01*
X117929012Y-95509281D01*
X118172270Y-96096558D01*
X118525425Y-96625093D01*
X118974907Y-97074575D01*
X119110233Y-97164997D01*
X107129799Y-97164997D01*
X102138507Y-92173706D01*
X102133300Y-91778000D01*
X119399083Y-91778000D01*
X118974907Y-92061425D01*
G04 #@! TA.AperFunction,Conductor*
D35*
G36*
X118974907Y-92061425D02*
G01*
X118525425Y-92510907D01*
X118172270Y-93039442D01*
X117929012Y-93626719D01*
X117805000Y-94250168D01*
X117805000Y-94885832D01*
X117929012Y-95509281D01*
X118172270Y-96096558D01*
X118525425Y-96625093D01*
X118974907Y-97074575D01*
X119110233Y-97164997D01*
X107129799Y-97164997D01*
X102138507Y-92173706D01*
X102133300Y-91778000D01*
X119399083Y-91778000D01*
X118974907Y-92061425D01*
G37*
G04 #@! TD.AperFunction*
D34*
X176974907Y-92061425D02*
X176525425Y-92510907D01*
X176172270Y-93039442D01*
X175929012Y-93626719D01*
X175805000Y-94250168D01*
X175805000Y-94885832D01*
X175929012Y-95509281D01*
X176172270Y-96096558D01*
X176525425Y-96625093D01*
X176933333Y-97033001D01*
X175031670Y-97033001D01*
X175162269Y-96935588D01*
X175357178Y-96719355D01*
X175506157Y-96469252D01*
X175603481Y-96194891D01*
X175482814Y-95965000D01*
X174289000Y-95965000D01*
X174289000Y-95985000D01*
X174035000Y-95985000D01*
X174035000Y-95965000D01*
X174015000Y-95965000D01*
X174015000Y-95711000D01*
X174035000Y-95711000D01*
X174035000Y-95691000D01*
X174289000Y-95691000D01*
X174289000Y-95711000D01*
X175482814Y-95711000D01*
X175603481Y-95481109D01*
X175506157Y-95206748D01*
X175357178Y-94956645D01*
X175162269Y-94740412D01*
X174932594Y-94569100D01*
X175108632Y-94451475D01*
X175315475Y-94244632D01*
X175477990Y-94001411D01*
X175589932Y-93731158D01*
X175647000Y-93444260D01*
X175647000Y-93151740D01*
X175589932Y-92864842D01*
X175477990Y-92594589D01*
X175315475Y-92351368D01*
X175108632Y-92144525D01*
X174865411Y-91982010D01*
X174595158Y-91870068D01*
X174308260Y-91813000D01*
X174015740Y-91813000D01*
X173728842Y-91870068D01*
X173458589Y-91982010D01*
X173215368Y-92144525D01*
X173008525Y-92351368D01*
X172892000Y-92525760D01*
X172775475Y-92351368D01*
X172568632Y-92144525D01*
X172325411Y-91982010D01*
X172055158Y-91870068D01*
X171768260Y-91813000D01*
X171475740Y-91813000D01*
X171188842Y-91870068D01*
X170918589Y-91982010D01*
X170675368Y-92144525D01*
X170468525Y-92351368D01*
X170352000Y-92525760D01*
X170235475Y-92351368D01*
X170028632Y-92144525D01*
X169785411Y-91982010D01*
X169515158Y-91870068D01*
X169228260Y-91813000D01*
X168935740Y-91813000D01*
X168648842Y-91870068D01*
X168378589Y-91982010D01*
X168135368Y-92144525D01*
X167928525Y-92351368D01*
X167806805Y-92533534D01*
X167737178Y-92416645D01*
X167542269Y-92200412D01*
X167308920Y-92026359D01*
X167046099Y-91901175D01*
X166898890Y-91856524D01*
X166669000Y-91977845D01*
X166669000Y-93171000D01*
X166689000Y-93171000D01*
X166689000Y-93425000D01*
X166669000Y-93425000D01*
X166669000Y-93445000D01*
X166415000Y-93445000D01*
X166415000Y-93425000D01*
X166395000Y-93425000D01*
X166395000Y-93171000D01*
X166415000Y-93171000D01*
X166415000Y-91977845D01*
X166185110Y-91856524D01*
X166037901Y-91901175D01*
X165775080Y-92026359D01*
X165541731Y-92200412D01*
X165346822Y-92416645D01*
X165277195Y-92533534D01*
X165155475Y-92351368D01*
X164948632Y-92144525D01*
X164705411Y-91982010D01*
X164435158Y-91870068D01*
X164148260Y-91813000D01*
X163855740Y-91813000D01*
X163568842Y-91870068D01*
X163298589Y-91982010D01*
X163055368Y-92144525D01*
X162848525Y-92351368D01*
X162726805Y-92533534D01*
X162657178Y-92416645D01*
X162462269Y-92200412D01*
X162228920Y-92026359D01*
X161966099Y-91901175D01*
X161818890Y-91856524D01*
X161589000Y-91977845D01*
X161589000Y-93171000D01*
X161609000Y-93171000D01*
X161609000Y-93425000D01*
X161589000Y-93425000D01*
X161589000Y-93445000D01*
X161335000Y-93445000D01*
X161335000Y-93425000D01*
X161315000Y-93425000D01*
X161315000Y-93171000D01*
X161335000Y-93171000D01*
X161335000Y-91977845D01*
X161105110Y-91856524D01*
X160957901Y-91901175D01*
X160695080Y-92026359D01*
X160461731Y-92200412D01*
X160266822Y-92416645D01*
X160197195Y-92533534D01*
X160075475Y-92351368D01*
X159868632Y-92144525D01*
X159625411Y-91982010D01*
X159355158Y-91870068D01*
X159068260Y-91813000D01*
X158775740Y-91813000D01*
X158488842Y-91870068D01*
X158218589Y-91982010D01*
X157975368Y-92144525D01*
X157768525Y-92351368D01*
X157652000Y-92525760D01*
X157535475Y-92351368D01*
X157328632Y-92144525D01*
X157085411Y-91982010D01*
X156815158Y-91870068D01*
X156528260Y-91813000D01*
X156235740Y-91813000D01*
X155948842Y-91870068D01*
X155678589Y-91982010D01*
X155435368Y-92144525D01*
X155228525Y-92351368D01*
X155112000Y-92525760D01*
X154995475Y-92351368D01*
X154788632Y-92144525D01*
X154545411Y-91982010D01*
X154275158Y-91870068D01*
X153988260Y-91813000D01*
X153695740Y-91813000D01*
X153408842Y-91870068D01*
X153138589Y-91982010D01*
X152895368Y-92144525D01*
X152688525Y-92351368D01*
X152572000Y-92525760D01*
X152455475Y-92351368D01*
X152248632Y-92144525D01*
X152005411Y-91982010D01*
X151735158Y-91870068D01*
X151448260Y-91813000D01*
X151155740Y-91813000D01*
X150868842Y-91870068D01*
X150598589Y-91982010D01*
X150355368Y-92144525D01*
X150148525Y-92351368D01*
X150026805Y-92533534D01*
X149957178Y-92416645D01*
X149762269Y-92200412D01*
X149528920Y-92026359D01*
X149266099Y-91901175D01*
X149118890Y-91856524D01*
X148889000Y-91977845D01*
X148889000Y-93171000D01*
X148909000Y-93171000D01*
X148909000Y-93425000D01*
X148889000Y-93425000D01*
X148889000Y-93445000D01*
X148635000Y-93445000D01*
X148635000Y-93425000D01*
X148615000Y-93425000D01*
X148615000Y-93171000D01*
X148635000Y-93171000D01*
X148635000Y-91977845D01*
X148405110Y-91856524D01*
X148257901Y-91901175D01*
X147995080Y-92026359D01*
X147761731Y-92200412D01*
X147566822Y-92416645D01*
X147497195Y-92533534D01*
X147375475Y-92351368D01*
X147168632Y-92144525D01*
X146925411Y-91982010D01*
X146655158Y-91870068D01*
X146368260Y-91813000D01*
X146075740Y-91813000D01*
X145788842Y-91870068D01*
X145518589Y-91982010D01*
X145275368Y-92144525D01*
X145068525Y-92351368D01*
X144952000Y-92525760D01*
X144835475Y-92351368D01*
X144628632Y-92144525D01*
X144385411Y-91982010D01*
X144115158Y-91870068D01*
X143828260Y-91813000D01*
X143535740Y-91813000D01*
X143248842Y-91870068D01*
X142978589Y-91982010D01*
X142735368Y-92144525D01*
X142528525Y-92351368D01*
X142406805Y-92533534D01*
X142337178Y-92416645D01*
X142142269Y-92200412D01*
X141908920Y-92026359D01*
X141646099Y-91901175D01*
X141498890Y-91856524D01*
X141269000Y-91977845D01*
X141269000Y-93171000D01*
X141289000Y-93171000D01*
X141289000Y-93425000D01*
X141269000Y-93425000D01*
X141269000Y-93445000D01*
X141015000Y-93445000D01*
X141015000Y-93425000D01*
X140995000Y-93425000D01*
X140995000Y-93171000D01*
X141015000Y-93171000D01*
X141015000Y-91977845D01*
X140785110Y-91856524D01*
X140637901Y-91901175D01*
X140375080Y-92026359D01*
X140141731Y-92200412D01*
X139946822Y-92416645D01*
X139877195Y-92533534D01*
X139755475Y-92351368D01*
X139548632Y-92144525D01*
X139305411Y-91982010D01*
X139035158Y-91870068D01*
X138748260Y-91813000D01*
X138455740Y-91813000D01*
X138168842Y-91870068D01*
X137898589Y-91982010D01*
X137655368Y-92144525D01*
X137448525Y-92351368D01*
X137332000Y-92525760D01*
X137215475Y-92351368D01*
X137008632Y-92144525D01*
X136765411Y-91982010D01*
X136495158Y-91870068D01*
X136208260Y-91813000D01*
X135915740Y-91813000D01*
X135628842Y-91870068D01*
X135358589Y-91982010D01*
X135115368Y-92144525D01*
X134908525Y-92351368D01*
X134792000Y-92525760D01*
X134675475Y-92351368D01*
X134468632Y-92144525D01*
X134225411Y-91982010D01*
X133955158Y-91870068D01*
X133668260Y-91813000D01*
X133375740Y-91813000D01*
X133088842Y-91870068D01*
X132818589Y-91982010D01*
X132575368Y-92144525D01*
X132368525Y-92351368D01*
X132246805Y-92533534D01*
X132177178Y-92416645D01*
X131982269Y-92200412D01*
X131748920Y-92026359D01*
X131486099Y-91901175D01*
X131338890Y-91856524D01*
X131109000Y-91977845D01*
X131109000Y-93171000D01*
X131129000Y-93171000D01*
X131129000Y-93425000D01*
X131109000Y-93425000D01*
X131109000Y-93445000D01*
X130855000Y-93445000D01*
X130855000Y-93425000D01*
X130835000Y-93425000D01*
X130835000Y-93171000D01*
X130855000Y-93171000D01*
X130855000Y-91977845D01*
X130625110Y-91856524D01*
X130477901Y-91901175D01*
X130215080Y-92026359D01*
X129981731Y-92200412D01*
X129786822Y-92416645D01*
X129717195Y-92533534D01*
X129595475Y-92351368D01*
X129388632Y-92144525D01*
X129145411Y-91982010D01*
X128875158Y-91870068D01*
X128588260Y-91813000D01*
X128295740Y-91813000D01*
X128008842Y-91870068D01*
X127738589Y-91982010D01*
X127495368Y-92144525D01*
X127288525Y-92351368D01*
X127172000Y-92525760D01*
X127055475Y-92351368D01*
X126848632Y-92144525D01*
X126605411Y-91982010D01*
X126335158Y-91870068D01*
X126048260Y-91813000D01*
X125755740Y-91813000D01*
X125468842Y-91870068D01*
X125198589Y-91982010D01*
X124955368Y-92144525D01*
X124748525Y-92351368D01*
X124586010Y-92594589D01*
X124474068Y-92864842D01*
X124417000Y-93151740D01*
X124417000Y-93444260D01*
X124431461Y-93516960D01*
X124165966Y-93782456D01*
X124134988Y-93626719D01*
X123891730Y-93039442D01*
X123538575Y-92510907D01*
X123089093Y-92061425D01*
X122664917Y-91778000D01*
X177399083Y-91778000D01*
X176974907Y-92061425D01*
G04 #@! TA.AperFunction,Conductor*
D35*
G36*
X176974907Y-92061425D02*
G01*
X176525425Y-92510907D01*
X176172270Y-93039442D01*
X175929012Y-93626719D01*
X175805000Y-94250168D01*
X175805000Y-94885832D01*
X175929012Y-95509281D01*
X176172270Y-96096558D01*
X176525425Y-96625093D01*
X176933333Y-97033001D01*
X175031670Y-97033001D01*
X175162269Y-96935588D01*
X175357178Y-96719355D01*
X175506157Y-96469252D01*
X175603481Y-96194891D01*
X175482814Y-95965000D01*
X174289000Y-95965000D01*
X174289000Y-95985000D01*
X174035000Y-95985000D01*
X174035000Y-95965000D01*
X174015000Y-95965000D01*
X174015000Y-95711000D01*
X174035000Y-95711000D01*
X174035000Y-95691000D01*
X174289000Y-95691000D01*
X174289000Y-95711000D01*
X175482814Y-95711000D01*
X175603481Y-95481109D01*
X175506157Y-95206748D01*
X175357178Y-94956645D01*
X175162269Y-94740412D01*
X174932594Y-94569100D01*
X175108632Y-94451475D01*
X175315475Y-94244632D01*
X175477990Y-94001411D01*
X175589932Y-93731158D01*
X175647000Y-93444260D01*
X175647000Y-93151740D01*
X175589932Y-92864842D01*
X175477990Y-92594589D01*
X175315475Y-92351368D01*
X175108632Y-92144525D01*
X174865411Y-91982010D01*
X174595158Y-91870068D01*
X174308260Y-91813000D01*
X174015740Y-91813000D01*
X173728842Y-91870068D01*
X173458589Y-91982010D01*
X173215368Y-92144525D01*
X173008525Y-92351368D01*
X172892000Y-92525760D01*
X172775475Y-92351368D01*
X172568632Y-92144525D01*
X172325411Y-91982010D01*
X172055158Y-91870068D01*
X171768260Y-91813000D01*
X171475740Y-91813000D01*
X171188842Y-91870068D01*
X170918589Y-91982010D01*
X170675368Y-92144525D01*
X170468525Y-92351368D01*
X170352000Y-92525760D01*
X170235475Y-92351368D01*
X170028632Y-92144525D01*
X169785411Y-91982010D01*
X169515158Y-91870068D01*
X169228260Y-91813000D01*
X168935740Y-91813000D01*
X168648842Y-91870068D01*
X168378589Y-91982010D01*
X168135368Y-92144525D01*
X167928525Y-92351368D01*
X167806805Y-92533534D01*
X167737178Y-92416645D01*
X167542269Y-92200412D01*
X167308920Y-92026359D01*
X167046099Y-91901175D01*
X166898890Y-91856524D01*
X166669000Y-91977845D01*
X166669000Y-93171000D01*
X166689000Y-93171000D01*
X166689000Y-93425000D01*
X166669000Y-93425000D01*
X166669000Y-93445000D01*
X166415000Y-93445000D01*
X166415000Y-93425000D01*
X166395000Y-93425000D01*
X166395000Y-93171000D01*
X166415000Y-93171000D01*
X166415000Y-91977845D01*
X166185110Y-91856524D01*
X166037901Y-91901175D01*
X165775080Y-92026359D01*
X165541731Y-92200412D01*
X165346822Y-92416645D01*
X165277195Y-92533534D01*
X165155475Y-92351368D01*
X164948632Y-92144525D01*
X164705411Y-91982010D01*
X164435158Y-91870068D01*
X164148260Y-91813000D01*
X163855740Y-91813000D01*
X163568842Y-91870068D01*
X163298589Y-91982010D01*
X163055368Y-92144525D01*
X162848525Y-92351368D01*
X162726805Y-92533534D01*
X162657178Y-92416645D01*
X162462269Y-92200412D01*
X162228920Y-92026359D01*
X161966099Y-91901175D01*
X161818890Y-91856524D01*
X161589000Y-91977845D01*
X161589000Y-93171000D01*
X161609000Y-93171000D01*
X161609000Y-93425000D01*
X161589000Y-93425000D01*
X161589000Y-93445000D01*
X161335000Y-93445000D01*
X161335000Y-93425000D01*
X161315000Y-93425000D01*
X161315000Y-93171000D01*
X161335000Y-93171000D01*
X161335000Y-91977845D01*
X161105110Y-91856524D01*
X160957901Y-91901175D01*
X160695080Y-92026359D01*
X160461731Y-92200412D01*
X160266822Y-92416645D01*
X160197195Y-92533534D01*
X160075475Y-92351368D01*
X159868632Y-92144525D01*
X159625411Y-91982010D01*
X159355158Y-91870068D01*
X159068260Y-91813000D01*
X158775740Y-91813000D01*
X158488842Y-91870068D01*
X158218589Y-91982010D01*
X157975368Y-92144525D01*
X157768525Y-92351368D01*
X157652000Y-92525760D01*
X157535475Y-92351368D01*
X157328632Y-92144525D01*
X157085411Y-91982010D01*
X156815158Y-91870068D01*
X156528260Y-91813000D01*
X156235740Y-91813000D01*
X155948842Y-91870068D01*
X155678589Y-91982010D01*
X155435368Y-92144525D01*
X155228525Y-92351368D01*
X155112000Y-92525760D01*
X154995475Y-92351368D01*
X154788632Y-92144525D01*
X154545411Y-91982010D01*
X154275158Y-91870068D01*
X153988260Y-91813000D01*
X153695740Y-91813000D01*
X153408842Y-91870068D01*
X153138589Y-91982010D01*
X152895368Y-92144525D01*
X152688525Y-92351368D01*
X152572000Y-92525760D01*
X152455475Y-92351368D01*
X152248632Y-92144525D01*
X152005411Y-91982010D01*
X151735158Y-91870068D01*
X151448260Y-91813000D01*
X151155740Y-91813000D01*
X150868842Y-91870068D01*
X150598589Y-91982010D01*
X150355368Y-92144525D01*
X150148525Y-92351368D01*
X150026805Y-92533534D01*
X149957178Y-92416645D01*
X149762269Y-92200412D01*
X149528920Y-92026359D01*
X149266099Y-91901175D01*
X149118890Y-91856524D01*
X148889000Y-91977845D01*
X148889000Y-93171000D01*
X148909000Y-93171000D01*
X148909000Y-93425000D01*
X148889000Y-93425000D01*
X148889000Y-93445000D01*
X148635000Y-93445000D01*
X148635000Y-93425000D01*
X148615000Y-93425000D01*
X148615000Y-93171000D01*
X148635000Y-93171000D01*
X148635000Y-91977845D01*
X148405110Y-91856524D01*
X148257901Y-91901175D01*
X147995080Y-92026359D01*
X147761731Y-92200412D01*
X147566822Y-92416645D01*
X147497195Y-92533534D01*
X147375475Y-92351368D01*
X147168632Y-92144525D01*
X146925411Y-91982010D01*
X146655158Y-91870068D01*
X146368260Y-91813000D01*
X146075740Y-91813000D01*
X145788842Y-91870068D01*
X145518589Y-91982010D01*
X145275368Y-92144525D01*
X145068525Y-92351368D01*
X144952000Y-92525760D01*
X144835475Y-92351368D01*
X144628632Y-92144525D01*
X144385411Y-91982010D01*
X144115158Y-91870068D01*
X143828260Y-91813000D01*
X143535740Y-91813000D01*
X143248842Y-91870068D01*
X142978589Y-91982010D01*
X142735368Y-92144525D01*
X142528525Y-92351368D01*
X142406805Y-92533534D01*
X142337178Y-92416645D01*
X142142269Y-92200412D01*
X141908920Y-92026359D01*
X141646099Y-91901175D01*
X141498890Y-91856524D01*
X141269000Y-91977845D01*
X141269000Y-93171000D01*
X141289000Y-93171000D01*
X141289000Y-93425000D01*
X141269000Y-93425000D01*
X141269000Y-93445000D01*
X141015000Y-93445000D01*
X141015000Y-93425000D01*
X140995000Y-93425000D01*
X140995000Y-93171000D01*
X141015000Y-93171000D01*
X141015000Y-91977845D01*
X140785110Y-91856524D01*
X140637901Y-91901175D01*
X140375080Y-92026359D01*
X140141731Y-92200412D01*
X139946822Y-92416645D01*
X139877195Y-92533534D01*
X139755475Y-92351368D01*
X139548632Y-92144525D01*
X139305411Y-91982010D01*
X139035158Y-91870068D01*
X138748260Y-91813000D01*
X138455740Y-91813000D01*
X138168842Y-91870068D01*
X137898589Y-91982010D01*
X137655368Y-92144525D01*
X137448525Y-92351368D01*
X137332000Y-92525760D01*
X137215475Y-92351368D01*
X137008632Y-92144525D01*
X136765411Y-91982010D01*
X136495158Y-91870068D01*
X136208260Y-91813000D01*
X135915740Y-91813000D01*
X135628842Y-91870068D01*
X135358589Y-91982010D01*
X135115368Y-92144525D01*
X134908525Y-92351368D01*
X134792000Y-92525760D01*
X134675475Y-92351368D01*
X134468632Y-92144525D01*
X134225411Y-91982010D01*
X133955158Y-91870068D01*
X133668260Y-91813000D01*
X133375740Y-91813000D01*
X133088842Y-91870068D01*
X132818589Y-91982010D01*
X132575368Y-92144525D01*
X132368525Y-92351368D01*
X132246805Y-92533534D01*
X132177178Y-92416645D01*
X131982269Y-92200412D01*
X131748920Y-92026359D01*
X131486099Y-91901175D01*
X131338890Y-91856524D01*
X131109000Y-91977845D01*
X131109000Y-93171000D01*
X131129000Y-93171000D01*
X131129000Y-93425000D01*
X131109000Y-93425000D01*
X131109000Y-93445000D01*
X130855000Y-93445000D01*
X130855000Y-93425000D01*
X130835000Y-93425000D01*
X130835000Y-93171000D01*
X130855000Y-93171000D01*
X130855000Y-91977845D01*
X130625110Y-91856524D01*
X130477901Y-91901175D01*
X130215080Y-92026359D01*
X129981731Y-92200412D01*
X129786822Y-92416645D01*
X129717195Y-92533534D01*
X129595475Y-92351368D01*
X129388632Y-92144525D01*
X129145411Y-91982010D01*
X128875158Y-91870068D01*
X128588260Y-91813000D01*
X128295740Y-91813000D01*
X128008842Y-91870068D01*
X127738589Y-91982010D01*
X127495368Y-92144525D01*
X127288525Y-92351368D01*
X127172000Y-92525760D01*
X127055475Y-92351368D01*
X126848632Y-92144525D01*
X126605411Y-91982010D01*
X126335158Y-91870068D01*
X126048260Y-91813000D01*
X125755740Y-91813000D01*
X125468842Y-91870068D01*
X125198589Y-91982010D01*
X124955368Y-92144525D01*
X124748525Y-92351368D01*
X124586010Y-92594589D01*
X124474068Y-92864842D01*
X124417000Y-93151740D01*
X124417000Y-93444260D01*
X124431461Y-93516960D01*
X124165966Y-93782456D01*
X124134988Y-93626719D01*
X123891730Y-93039442D01*
X123538575Y-92510907D01*
X123089093Y-92061425D01*
X122664917Y-91778000D01*
X177399083Y-91778000D01*
X176974907Y-92061425D01*
G37*
G04 #@! TD.AperFunction*
D34*
X136189000Y-95711000D02*
X136209000Y-95711000D01*
X136209000Y-95965000D01*
X136189000Y-95965000D01*
X136189000Y-95985000D01*
X135935000Y-95985000D01*
X135935000Y-95965000D01*
X135915000Y-95965000D01*
X135915000Y-95711000D01*
X135935000Y-95711000D01*
X135935000Y-95691000D01*
X136189000Y-95691000D01*
X136189000Y-95711000D01*
G04 #@! TA.AperFunction,Conductor*
D35*
G36*
X136189000Y-95711000D02*
G01*
X136209000Y-95711000D01*
X136209000Y-95965000D01*
X136189000Y-95965000D01*
X136189000Y-95985000D01*
X135935000Y-95985000D01*
X135935000Y-95965000D01*
X135915000Y-95965000D01*
X135915000Y-95711000D01*
X135935000Y-95711000D01*
X135935000Y-95691000D01*
X136189000Y-95691000D01*
X136189000Y-95711000D01*
G37*
G04 #@! TD.AperFunction*
D34*
X104581424Y-102077501D02*
X104559510Y-102299999D01*
X104565001Y-102355751D01*
X104565002Y-103573000D01*
X103627000Y-103573000D01*
X103627000Y-102027000D01*
X104596743Y-102027000D01*
X104581424Y-102077501D01*
G04 #@! TA.AperFunction,Conductor*
D35*
G36*
X104581424Y-102077501D02*
G01*
X104559510Y-102299999D01*
X104565001Y-102355751D01*
X104565002Y-103573000D01*
X103627000Y-103573000D01*
X103627000Y-102027000D01*
X104596743Y-102027000D01*
X104581424Y-102077501D01*
G37*
G04 #@! TD.AperFunction*
D34*
X99082795Y-91909744D02*
X99004774Y-92098102D01*
X98965000Y-92298061D01*
X98965000Y-92501939D01*
X99004774Y-92701898D01*
X99082795Y-92890256D01*
X99116709Y-92941012D01*
X99052099Y-93096993D01*
X99012325Y-93296952D01*
X99012325Y-93500830D01*
X99052099Y-93700789D01*
X99130120Y-93889147D01*
X99243388Y-94058665D01*
X99387551Y-94202828D01*
X99557069Y-94316096D01*
X99745427Y-94394117D01*
X99945386Y-94433891D01*
X100149264Y-94433891D01*
X100349223Y-94394117D01*
X100537581Y-94316096D01*
X100707099Y-94202828D01*
X100751036Y-94158891D01*
X101212090Y-94158891D01*
X101312048Y-94258849D01*
X101355897Y-98029830D01*
X101301155Y-98132245D01*
X101256878Y-98278206D01*
X101241928Y-98430000D01*
X101241928Y-98770000D01*
X101256878Y-98921794D01*
X101292736Y-99040000D01*
X98867333Y-99040000D01*
X98830000Y-99036323D01*
X98792667Y-99040000D01*
X98681014Y-99050997D01*
X98537753Y-99094454D01*
X98517000Y-99105547D01*
X98517000Y-99071589D01*
X98463775Y-98804011D01*
X98359371Y-98551957D01*
X98207799Y-98325114D01*
X98014886Y-98132201D01*
X97788043Y-97980629D01*
X97535989Y-97876225D01*
X97268411Y-97823000D01*
X96995589Y-97823000D01*
X96728011Y-97876225D01*
X96475957Y-97980629D01*
X96249114Y-98132201D01*
X96056201Y-98325114D01*
X95904629Y-98551957D01*
X95800225Y-98804011D01*
X95747000Y-99071589D01*
X95747000Y-99344411D01*
X95800225Y-99611989D01*
X95904629Y-99864043D01*
X96056201Y-100090886D01*
X96249114Y-100283799D01*
X96352680Y-100353000D01*
X96249114Y-100422201D01*
X96056201Y-100615114D01*
X95904629Y-100841957D01*
X95800225Y-101094011D01*
X95747000Y-101361589D01*
X95747000Y-101634411D01*
X95794459Y-101873000D01*
X93544774Y-101873000D01*
X93539371Y-101859957D01*
X93387799Y-101633114D01*
X93194886Y-101440201D01*
X92968043Y-101288629D01*
X92715989Y-101184225D01*
X92448411Y-101131000D01*
X92175589Y-101131000D01*
X91908011Y-101184225D01*
X91655957Y-101288629D01*
X91522117Y-101378058D01*
X91492248Y-101381000D01*
X91325501Y-101397423D01*
X91111553Y-101462324D01*
X90914377Y-101567716D01*
X90741551Y-101709551D01*
X90706008Y-101752860D01*
X90291080Y-102167788D01*
X90128011Y-102200225D01*
X89875957Y-102304629D01*
X89649114Y-102456201D01*
X89456201Y-102649114D01*
X89304629Y-102875957D01*
X89200225Y-103128011D01*
X89147000Y-103395589D01*
X89147000Y-103488644D01*
X84020901Y-108614744D01*
X83982368Y-108646367D01*
X83950745Y-108684900D01*
X83950744Y-108684901D01*
X83856154Y-108800160D01*
X83762368Y-108975621D01*
X83704615Y-109166006D01*
X83685114Y-109364000D01*
X83690001Y-109413618D01*
X83690000Y-113850392D01*
X83685114Y-113900000D01*
X83695338Y-114003799D01*
X83704615Y-114097993D01*
X83762368Y-114288379D01*
X83856153Y-114463840D01*
X83982367Y-114617633D01*
X84020906Y-114649261D01*
X86850739Y-117479094D01*
X86882367Y-117517633D01*
X87036160Y-117643847D01*
X87211620Y-117737632D01*
X87402006Y-117795385D01*
X87550392Y-117810000D01*
X87550394Y-117810000D01*
X87599999Y-117814886D01*
X87649604Y-117810000D01*
X96075392Y-117810000D01*
X96125000Y-117814886D01*
X96322994Y-117795385D01*
X96338844Y-117790577D01*
X96513380Y-117737632D01*
X96688840Y-117643847D01*
X96842633Y-117517633D01*
X96874261Y-117479094D01*
X100636094Y-113717261D01*
X100674633Y-113685633D01*
X100800847Y-113531840D01*
X100894632Y-113356380D01*
X100952385Y-113165994D01*
X100967000Y-113017608D01*
X100967000Y-113017606D01*
X100971886Y-112968001D01*
X100967000Y-112918396D01*
X100967000Y-112597518D01*
X100987537Y-112572494D01*
X101046502Y-112462180D01*
X101082812Y-112342482D01*
X101095072Y-112218000D01*
X101095072Y-111627000D01*
X102613031Y-111627000D01*
X102665026Y-111724276D01*
X102693345Y-111758782D01*
X102759999Y-111840001D01*
X102765000Y-111844105D01*
X102765000Y-111901939D01*
X102804774Y-112101898D01*
X102882795Y-112290256D01*
X102996063Y-112459774D01*
X103140226Y-112603937D01*
X103273000Y-112692654D01*
X103273000Y-120358000D01*
X85566721Y-120358000D01*
X85087867Y-120311048D01*
X84660647Y-120182063D01*
X84266616Y-119972554D01*
X83920786Y-119690501D01*
X83636328Y-119346651D01*
X83424073Y-118954093D01*
X83292109Y-118527788D01*
X83242000Y-118051036D01*
X83242000Y-99495409D01*
X85732000Y-99495409D01*
X85732000Y-99940591D01*
X85818851Y-100377218D01*
X85989214Y-100788511D01*
X86236544Y-101158666D01*
X86551334Y-101473456D01*
X86921489Y-101720786D01*
X87332782Y-101891149D01*
X87769409Y-101978000D01*
X88214591Y-101978000D01*
X88651218Y-101891149D01*
X89062511Y-101720786D01*
X89432666Y-101473456D01*
X89747456Y-101158666D01*
X89994786Y-100788511D01*
X90165149Y-100377218D01*
X90252000Y-99940591D01*
X90252000Y-99495409D01*
X90204402Y-99256118D01*
X90243946Y-99295662D01*
X90359257Y-99180351D01*
X90473118Y-99460090D01*
X90788296Y-99615961D01*
X91127826Y-99707349D01*
X91478661Y-99730741D01*
X91827319Y-99685240D01*
X92160400Y-99572594D01*
X92370882Y-99460090D01*
X92484744Y-99180349D01*
X91422000Y-98117605D01*
X91407858Y-98131748D01*
X91228253Y-97952143D01*
X91242395Y-97938000D01*
X91601605Y-97938000D01*
X92664349Y-99000744D01*
X92944090Y-98886882D01*
X93099961Y-98571704D01*
X93191349Y-98232174D01*
X93214741Y-97881339D01*
X93169240Y-97532681D01*
X93056594Y-97199600D01*
X92944090Y-96989118D01*
X92664349Y-96875256D01*
X91601605Y-97938000D01*
X91242395Y-97938000D01*
X90179651Y-96875256D01*
X89899910Y-96989118D01*
X89744039Y-97304296D01*
X89652651Y-97643826D01*
X89629259Y-97994661D01*
X89653945Y-98183823D01*
X89432666Y-97962544D01*
X89062511Y-97715214D01*
X88651218Y-97544851D01*
X88214591Y-97458000D01*
X87769409Y-97458000D01*
X87332782Y-97544851D01*
X86921489Y-97715214D01*
X86551334Y-97962544D01*
X86236544Y-98277334D01*
X85989214Y-98647489D01*
X85818851Y-99058782D01*
X85732000Y-99495409D01*
X83242000Y-99495409D01*
X83242000Y-96695651D01*
X90359256Y-96695651D01*
X91422000Y-97758395D01*
X92484744Y-96695651D01*
X92370882Y-96415910D01*
X92055704Y-96260039D01*
X91716174Y-96168651D01*
X91365339Y-96145259D01*
X91016681Y-96190760D01*
X90683600Y-96303406D01*
X90473118Y-96415910D01*
X90359256Y-96695651D01*
X83242000Y-96695651D01*
X83242000Y-94102721D01*
X83288953Y-93623866D01*
X83417938Y-93196645D01*
X83627446Y-92802616D01*
X83909499Y-92456786D01*
X84253351Y-92172327D01*
X84645910Y-91960071D01*
X85072213Y-91828108D01*
X85548964Y-91778000D01*
X99170823Y-91778000D01*
X99082795Y-91909744D01*
G04 #@! TA.AperFunction,Conductor*
D35*
G36*
X99082795Y-91909744D02*
G01*
X99004774Y-92098102D01*
X98965000Y-92298061D01*
X98965000Y-92501939D01*
X99004774Y-92701898D01*
X99082795Y-92890256D01*
X99116709Y-92941012D01*
X99052099Y-93096993D01*
X99012325Y-93296952D01*
X99012325Y-93500830D01*
X99052099Y-93700789D01*
X99130120Y-93889147D01*
X99243388Y-94058665D01*
X99387551Y-94202828D01*
X99557069Y-94316096D01*
X99745427Y-94394117D01*
X99945386Y-94433891D01*
X100149264Y-94433891D01*
X100349223Y-94394117D01*
X100537581Y-94316096D01*
X100707099Y-94202828D01*
X100751036Y-94158891D01*
X101212090Y-94158891D01*
X101312048Y-94258849D01*
X101355897Y-98029830D01*
X101301155Y-98132245D01*
X101256878Y-98278206D01*
X101241928Y-98430000D01*
X101241928Y-98770000D01*
X101256878Y-98921794D01*
X101292736Y-99040000D01*
X98867333Y-99040000D01*
X98830000Y-99036323D01*
X98792667Y-99040000D01*
X98681014Y-99050997D01*
X98537753Y-99094454D01*
X98517000Y-99105547D01*
X98517000Y-99071589D01*
X98463775Y-98804011D01*
X98359371Y-98551957D01*
X98207799Y-98325114D01*
X98014886Y-98132201D01*
X97788043Y-97980629D01*
X97535989Y-97876225D01*
X97268411Y-97823000D01*
X96995589Y-97823000D01*
X96728011Y-97876225D01*
X96475957Y-97980629D01*
X96249114Y-98132201D01*
X96056201Y-98325114D01*
X95904629Y-98551957D01*
X95800225Y-98804011D01*
X95747000Y-99071589D01*
X95747000Y-99344411D01*
X95800225Y-99611989D01*
X95904629Y-99864043D01*
X96056201Y-100090886D01*
X96249114Y-100283799D01*
X96352680Y-100353000D01*
X96249114Y-100422201D01*
X96056201Y-100615114D01*
X95904629Y-100841957D01*
X95800225Y-101094011D01*
X95747000Y-101361589D01*
X95747000Y-101634411D01*
X95794459Y-101873000D01*
X93544774Y-101873000D01*
X93539371Y-101859957D01*
X93387799Y-101633114D01*
X93194886Y-101440201D01*
X92968043Y-101288629D01*
X92715989Y-101184225D01*
X92448411Y-101131000D01*
X92175589Y-101131000D01*
X91908011Y-101184225D01*
X91655957Y-101288629D01*
X91522117Y-101378058D01*
X91492248Y-101381000D01*
X91325501Y-101397423D01*
X91111553Y-101462324D01*
X90914377Y-101567716D01*
X90741551Y-101709551D01*
X90706008Y-101752860D01*
X90291080Y-102167788D01*
X90128011Y-102200225D01*
X89875957Y-102304629D01*
X89649114Y-102456201D01*
X89456201Y-102649114D01*
X89304629Y-102875957D01*
X89200225Y-103128011D01*
X89147000Y-103395589D01*
X89147000Y-103488644D01*
X84020901Y-108614744D01*
X83982368Y-108646367D01*
X83950745Y-108684900D01*
X83950744Y-108684901D01*
X83856154Y-108800160D01*
X83762368Y-108975621D01*
X83704615Y-109166006D01*
X83685114Y-109364000D01*
X83690001Y-109413618D01*
X83690000Y-113850392D01*
X83685114Y-113900000D01*
X83695338Y-114003799D01*
X83704615Y-114097993D01*
X83762368Y-114288379D01*
X83856153Y-114463840D01*
X83982367Y-114617633D01*
X84020906Y-114649261D01*
X86850739Y-117479094D01*
X86882367Y-117517633D01*
X87036160Y-117643847D01*
X87211620Y-117737632D01*
X87402006Y-117795385D01*
X87550392Y-117810000D01*
X87550394Y-117810000D01*
X87599999Y-117814886D01*
X87649604Y-117810000D01*
X96075392Y-117810000D01*
X96125000Y-117814886D01*
X96322994Y-117795385D01*
X96338844Y-117790577D01*
X96513380Y-117737632D01*
X96688840Y-117643847D01*
X96842633Y-117517633D01*
X96874261Y-117479094D01*
X100636094Y-113717261D01*
X100674633Y-113685633D01*
X100800847Y-113531840D01*
X100894632Y-113356380D01*
X100952385Y-113165994D01*
X100967000Y-113017608D01*
X100967000Y-113017606D01*
X100971886Y-112968001D01*
X100967000Y-112918396D01*
X100967000Y-112597518D01*
X100987537Y-112572494D01*
X101046502Y-112462180D01*
X101082812Y-112342482D01*
X101095072Y-112218000D01*
X101095072Y-111627000D01*
X102613031Y-111627000D01*
X102665026Y-111724276D01*
X102693345Y-111758782D01*
X102759999Y-111840001D01*
X102765000Y-111844105D01*
X102765000Y-111901939D01*
X102804774Y-112101898D01*
X102882795Y-112290256D01*
X102996063Y-112459774D01*
X103140226Y-112603937D01*
X103273000Y-112692654D01*
X103273000Y-120358000D01*
X85566721Y-120358000D01*
X85087867Y-120311048D01*
X84660647Y-120182063D01*
X84266616Y-119972554D01*
X83920786Y-119690501D01*
X83636328Y-119346651D01*
X83424073Y-118954093D01*
X83292109Y-118527788D01*
X83242000Y-118051036D01*
X83242000Y-99495409D01*
X85732000Y-99495409D01*
X85732000Y-99940591D01*
X85818851Y-100377218D01*
X85989214Y-100788511D01*
X86236544Y-101158666D01*
X86551334Y-101473456D01*
X86921489Y-101720786D01*
X87332782Y-101891149D01*
X87769409Y-101978000D01*
X88214591Y-101978000D01*
X88651218Y-101891149D01*
X89062511Y-101720786D01*
X89432666Y-101473456D01*
X89747456Y-101158666D01*
X89994786Y-100788511D01*
X90165149Y-100377218D01*
X90252000Y-99940591D01*
X90252000Y-99495409D01*
X90204402Y-99256118D01*
X90243946Y-99295662D01*
X90359257Y-99180351D01*
X90473118Y-99460090D01*
X90788296Y-99615961D01*
X91127826Y-99707349D01*
X91478661Y-99730741D01*
X91827319Y-99685240D01*
X92160400Y-99572594D01*
X92370882Y-99460090D01*
X92484744Y-99180349D01*
X91422000Y-98117605D01*
X91407858Y-98131748D01*
X91228253Y-97952143D01*
X91242395Y-97938000D01*
X91601605Y-97938000D01*
X92664349Y-99000744D01*
X92944090Y-98886882D01*
X93099961Y-98571704D01*
X93191349Y-98232174D01*
X93214741Y-97881339D01*
X93169240Y-97532681D01*
X93056594Y-97199600D01*
X92944090Y-96989118D01*
X92664349Y-96875256D01*
X91601605Y-97938000D01*
X91242395Y-97938000D01*
X90179651Y-96875256D01*
X89899910Y-96989118D01*
X89744039Y-97304296D01*
X89652651Y-97643826D01*
X89629259Y-97994661D01*
X89653945Y-98183823D01*
X89432666Y-97962544D01*
X89062511Y-97715214D01*
X88651218Y-97544851D01*
X88214591Y-97458000D01*
X87769409Y-97458000D01*
X87332782Y-97544851D01*
X86921489Y-97715214D01*
X86551334Y-97962544D01*
X86236544Y-98277334D01*
X85989214Y-98647489D01*
X85818851Y-99058782D01*
X85732000Y-99495409D01*
X83242000Y-99495409D01*
X83242000Y-96695651D01*
X90359256Y-96695651D01*
X91422000Y-97758395D01*
X92484744Y-96695651D01*
X92370882Y-96415910D01*
X92055704Y-96260039D01*
X91716174Y-96168651D01*
X91365339Y-96145259D01*
X91016681Y-96190760D01*
X90683600Y-96303406D01*
X90473118Y-96415910D01*
X90359256Y-96695651D01*
X83242000Y-96695651D01*
X83242000Y-94102721D01*
X83288953Y-93623866D01*
X83417938Y-93196645D01*
X83627446Y-92802616D01*
X83909499Y-92456786D01*
X84253351Y-92172327D01*
X84645910Y-91960071D01*
X85072213Y-91828108D01*
X85548964Y-91778000D01*
X99170823Y-91778000D01*
X99082795Y-91909744D01*
G37*
G04 #@! TD.AperFunction*
D34*
X88373000Y-110189510D02*
X88214591Y-110158000D01*
X87769409Y-110158000D01*
X87332782Y-110244851D01*
X86921489Y-110415214D01*
X86551334Y-110662544D01*
X86236544Y-110977334D01*
X85989214Y-111347489D01*
X85818851Y-111758782D01*
X85732000Y-112195409D01*
X85732000Y-112640591D01*
X85818851Y-113077218D01*
X85989214Y-113488511D01*
X86236544Y-113858666D01*
X86551334Y-114173456D01*
X86921489Y-114420786D01*
X87332782Y-114591149D01*
X87769409Y-114678000D01*
X88214591Y-114678000D01*
X88651218Y-114591149D01*
X89062511Y-114420786D01*
X89432666Y-114173456D01*
X89649104Y-113957018D01*
X89629259Y-114254661D01*
X89674760Y-114603319D01*
X89787406Y-114936400D01*
X89899910Y-115146882D01*
X90179651Y-115260744D01*
X91242395Y-114198000D01*
X91601605Y-114198000D01*
X92664349Y-115260744D01*
X92944090Y-115146882D01*
X93099961Y-114831704D01*
X93191349Y-114492174D01*
X93214741Y-114141339D01*
X93169240Y-113792681D01*
X93056594Y-113459600D01*
X92944090Y-113249118D01*
X92664349Y-113135256D01*
X91601605Y-114198000D01*
X91242395Y-114198000D01*
X91228253Y-114183858D01*
X91407858Y-114004253D01*
X91422000Y-114018395D01*
X92484744Y-112955651D01*
X92370882Y-112675910D01*
X92055704Y-112520039D01*
X91716174Y-112428651D01*
X91365339Y-112405259D01*
X91016681Y-112450760D01*
X90683600Y-112563406D01*
X90473118Y-112675910D01*
X90359257Y-112955649D01*
X90243946Y-112840338D01*
X90204402Y-112879882D01*
X90252000Y-112640591D01*
X90252000Y-112195409D01*
X90165149Y-111758782D01*
X90146186Y-111713001D01*
X92728530Y-111713001D01*
X92771999Y-111717282D01*
X92815468Y-111713001D01*
X92815476Y-111713001D01*
X92945489Y-111700196D01*
X93112312Y-111649590D01*
X93154575Y-111627000D01*
X96162315Y-111627000D01*
X96249114Y-111713799D01*
X96352680Y-111783000D01*
X96249114Y-111852201D01*
X96056201Y-112045114D01*
X95904629Y-112271957D01*
X95800225Y-112524011D01*
X95747000Y-112791589D01*
X95747000Y-113064411D01*
X95800225Y-113331989D01*
X95904629Y-113584043D01*
X96056201Y-113810886D01*
X96249114Y-114003799D01*
X96475957Y-114155371D01*
X96728011Y-114259775D01*
X96995589Y-114313000D01*
X97183645Y-114313000D01*
X95706645Y-115790000D01*
X92240088Y-115790000D01*
X92370882Y-115720090D01*
X92484744Y-115440349D01*
X91422000Y-114377605D01*
X90359256Y-115440349D01*
X90473118Y-115720090D01*
X90614479Y-115790000D01*
X88018355Y-115790000D01*
X85710000Y-113481645D01*
X85710000Y-109782355D01*
X88373000Y-107119356D01*
X88373000Y-110189510D01*
G04 #@! TA.AperFunction,Conductor*
D35*
G36*
X88373000Y-110189510D02*
G01*
X88214591Y-110158000D01*
X87769409Y-110158000D01*
X87332782Y-110244851D01*
X86921489Y-110415214D01*
X86551334Y-110662544D01*
X86236544Y-110977334D01*
X85989214Y-111347489D01*
X85818851Y-111758782D01*
X85732000Y-112195409D01*
X85732000Y-112640591D01*
X85818851Y-113077218D01*
X85989214Y-113488511D01*
X86236544Y-113858666D01*
X86551334Y-114173456D01*
X86921489Y-114420786D01*
X87332782Y-114591149D01*
X87769409Y-114678000D01*
X88214591Y-114678000D01*
X88651218Y-114591149D01*
X89062511Y-114420786D01*
X89432666Y-114173456D01*
X89649104Y-113957018D01*
X89629259Y-114254661D01*
X89674760Y-114603319D01*
X89787406Y-114936400D01*
X89899910Y-115146882D01*
X90179651Y-115260744D01*
X91242395Y-114198000D01*
X91601605Y-114198000D01*
X92664349Y-115260744D01*
X92944090Y-115146882D01*
X93099961Y-114831704D01*
X93191349Y-114492174D01*
X93214741Y-114141339D01*
X93169240Y-113792681D01*
X93056594Y-113459600D01*
X92944090Y-113249118D01*
X92664349Y-113135256D01*
X91601605Y-114198000D01*
X91242395Y-114198000D01*
X91228253Y-114183858D01*
X91407858Y-114004253D01*
X91422000Y-114018395D01*
X92484744Y-112955651D01*
X92370882Y-112675910D01*
X92055704Y-112520039D01*
X91716174Y-112428651D01*
X91365339Y-112405259D01*
X91016681Y-112450760D01*
X90683600Y-112563406D01*
X90473118Y-112675910D01*
X90359257Y-112955649D01*
X90243946Y-112840338D01*
X90204402Y-112879882D01*
X90252000Y-112640591D01*
X90252000Y-112195409D01*
X90165149Y-111758782D01*
X90146186Y-111713001D01*
X92728530Y-111713001D01*
X92771999Y-111717282D01*
X92815468Y-111713001D01*
X92815476Y-111713001D01*
X92945489Y-111700196D01*
X93112312Y-111649590D01*
X93154575Y-111627000D01*
X96162315Y-111627000D01*
X96249114Y-111713799D01*
X96352680Y-111783000D01*
X96249114Y-111852201D01*
X96056201Y-112045114D01*
X95904629Y-112271957D01*
X95800225Y-112524011D01*
X95747000Y-112791589D01*
X95747000Y-113064411D01*
X95800225Y-113331989D01*
X95904629Y-113584043D01*
X96056201Y-113810886D01*
X96249114Y-114003799D01*
X96475957Y-114155371D01*
X96728011Y-114259775D01*
X96995589Y-114313000D01*
X97183645Y-114313000D01*
X95706645Y-115790000D01*
X92240088Y-115790000D01*
X92370882Y-115720090D01*
X92484744Y-115440349D01*
X91422000Y-114377605D01*
X90359256Y-115440349D01*
X90473118Y-115720090D01*
X90614479Y-115790000D01*
X88018355Y-115790000D01*
X85710000Y-113481645D01*
X85710000Y-109782355D01*
X88373000Y-107119356D01*
X88373000Y-110189510D01*
G37*
G04 #@! TD.AperFunction*
M02*
