G04 #@! TF.GenerationSoftware,KiCad,Pcbnew,(5.1.9)-1*
G04 #@! TF.CreationDate,2021-04-20T16:59:57+02:00*
G04 #@! TF.ProjectId,POE_hat_and_USB,504f455f-6861-4745-9f61-6e645f555342,1.0*
G04 #@! TF.SameCoordinates,Original*
G04 #@! TF.FileFunction,Paste,Top*
G04 #@! TF.FilePolarity,Positive*
%FSLAX46Y46*%
G04 Gerber Fmt 4.6, Leading zero omitted, Abs format (unit mm)*
G04 Created by KiCad (PCBNEW (5.1.9)-1) date 2021-04-20 16:59:57*
%MOMM*%
%LPD*%
G01*
G04 APERTURE LIST*
%ADD10R,1.800000X2.100000*%
%ADD11R,1.700000X0.760000*%
%ADD12R,2.800000X5.300000*%
G04 APERTURE END LIST*
D10*
X103182000Y-93782000D03*
X103182000Y-96682000D03*
X105482000Y-96682000D03*
X105482000Y-93782000D03*
D11*
X110800000Y-110513000D03*
X110800000Y-109243000D03*
X110800000Y-107973000D03*
X110800000Y-106703000D03*
X110800000Y-102893000D03*
X110800000Y-105433000D03*
X110800000Y-104163000D03*
X110800000Y-101623000D03*
X102000000Y-107973000D03*
X102000000Y-104163000D03*
X102000000Y-101623000D03*
X102000000Y-109243000D03*
X102000000Y-102893000D03*
X102000000Y-106703000D03*
X102000000Y-110513000D03*
X102000000Y-105433000D03*
G36*
G01*
X143947000Y-116620000D02*
X144317000Y-116620000D01*
G75*
G02*
X144452000Y-116755000I0J-135000D01*
G01*
X144452000Y-117025000D01*
G75*
G02*
X144317000Y-117160000I-135000J0D01*
G01*
X143947000Y-117160000D01*
G75*
G02*
X143812000Y-117025000I0J135000D01*
G01*
X143812000Y-116755000D01*
G75*
G02*
X143947000Y-116620000I135000J0D01*
G01*
G37*
G36*
G01*
X143947000Y-117640000D02*
X144317000Y-117640000D01*
G75*
G02*
X144452000Y-117775000I0J-135000D01*
G01*
X144452000Y-118045000D01*
G75*
G02*
X144317000Y-118180000I-135000J0D01*
G01*
X143947000Y-118180000D01*
G75*
G02*
X143812000Y-118045000I0J135000D01*
G01*
X143812000Y-117775000D01*
G75*
G02*
X143947000Y-117640000I135000J0D01*
G01*
G37*
G36*
G01*
X155707000Y-108218000D02*
X154757000Y-108218000D01*
G75*
G02*
X154507000Y-107968000I0J250000D01*
G01*
X154507000Y-107468000D01*
G75*
G02*
X154757000Y-107218000I250000J0D01*
G01*
X155707000Y-107218000D01*
G75*
G02*
X155957000Y-107468000I0J-250000D01*
G01*
X155957000Y-107968000D01*
G75*
G02*
X155707000Y-108218000I-250000J0D01*
G01*
G37*
G36*
G01*
X155707000Y-106318000D02*
X154757000Y-106318000D01*
G75*
G02*
X154507000Y-106068000I0J250000D01*
G01*
X154507000Y-105568000D01*
G75*
G02*
X154757000Y-105318000I250000J0D01*
G01*
X155707000Y-105318000D01*
G75*
G02*
X155957000Y-105568000I0J-250000D01*
G01*
X155957000Y-106068000D01*
G75*
G02*
X155707000Y-106318000I-250000J0D01*
G01*
G37*
G36*
G01*
X140957000Y-112457000D02*
X139707000Y-112457000D01*
G75*
G02*
X139457000Y-112207000I0J250000D01*
G01*
X139457000Y-111457000D01*
G75*
G02*
X139707000Y-111207000I250000J0D01*
G01*
X140957000Y-111207000D01*
G75*
G02*
X141207000Y-111457000I0J-250000D01*
G01*
X141207000Y-112207000D01*
G75*
G02*
X140957000Y-112457000I-250000J0D01*
G01*
G37*
G36*
G01*
X140957000Y-115257000D02*
X139707000Y-115257000D01*
G75*
G02*
X139457000Y-115007000I0J250000D01*
G01*
X139457000Y-114257000D01*
G75*
G02*
X139707000Y-114007000I250000J0D01*
G01*
X140957000Y-114007000D01*
G75*
G02*
X141207000Y-114257000I0J-250000D01*
G01*
X141207000Y-115007000D01*
G75*
G02*
X140957000Y-115257000I-250000J0D01*
G01*
G37*
G36*
G01*
X144757000Y-115257000D02*
X143507000Y-115257000D01*
G75*
G02*
X143257000Y-115007000I0J250000D01*
G01*
X143257000Y-114257000D01*
G75*
G02*
X143507000Y-114007000I250000J0D01*
G01*
X144757000Y-114007000D01*
G75*
G02*
X145007000Y-114257000I0J-250000D01*
G01*
X145007000Y-115007000D01*
G75*
G02*
X144757000Y-115257000I-250000J0D01*
G01*
G37*
G36*
G01*
X144757000Y-112457000D02*
X143507000Y-112457000D01*
G75*
G02*
X143257000Y-112207000I0J250000D01*
G01*
X143257000Y-111457000D01*
G75*
G02*
X143507000Y-111207000I250000J0D01*
G01*
X144757000Y-111207000D01*
G75*
G02*
X145007000Y-111457000I0J-250000D01*
G01*
X145007000Y-112207000D01*
G75*
G02*
X144757000Y-112457000I-250000J0D01*
G01*
G37*
G36*
G01*
X165275000Y-101775000D02*
X166525000Y-101775000D01*
G75*
G02*
X166775000Y-102025000I0J-250000D01*
G01*
X166775000Y-102775000D01*
G75*
G02*
X166525000Y-103025000I-250000J0D01*
G01*
X165275000Y-103025000D01*
G75*
G02*
X165025000Y-102775000I0J250000D01*
G01*
X165025000Y-102025000D01*
G75*
G02*
X165275000Y-101775000I250000J0D01*
G01*
G37*
G36*
G01*
X165275000Y-104575000D02*
X166525000Y-104575000D01*
G75*
G02*
X166775000Y-104825000I0J-250000D01*
G01*
X166775000Y-105575000D01*
G75*
G02*
X166525000Y-105825000I-250000J0D01*
G01*
X165275000Y-105825000D01*
G75*
G02*
X165025000Y-105575000I0J250000D01*
G01*
X165025000Y-104825000D01*
G75*
G02*
X165275000Y-104575000I250000J0D01*
G01*
G37*
G36*
G01*
X169207000Y-119443000D02*
X170457000Y-119443000D01*
G75*
G02*
X170707000Y-119693000I0J-250000D01*
G01*
X170707000Y-120443000D01*
G75*
G02*
X170457000Y-120693000I-250000J0D01*
G01*
X169207000Y-120693000D01*
G75*
G02*
X168957000Y-120443000I0J250000D01*
G01*
X168957000Y-119693000D01*
G75*
G02*
X169207000Y-119443000I250000J0D01*
G01*
G37*
G36*
G01*
X169207000Y-116643000D02*
X170457000Y-116643000D01*
G75*
G02*
X170707000Y-116893000I0J-250000D01*
G01*
X170707000Y-117643000D01*
G75*
G02*
X170457000Y-117893000I-250000J0D01*
G01*
X169207000Y-117893000D01*
G75*
G02*
X168957000Y-117643000I0J250000D01*
G01*
X168957000Y-116893000D01*
G75*
G02*
X169207000Y-116643000I250000J0D01*
G01*
G37*
G36*
G01*
X111625001Y-96175000D02*
X111074999Y-96175000D01*
G75*
G02*
X110825000Y-95925001I0J249999D01*
G01*
X110825000Y-95374999D01*
G75*
G02*
X111074999Y-95125000I249999J0D01*
G01*
X111625001Y-95125000D01*
G75*
G02*
X111875000Y-95374999I0J-249999D01*
G01*
X111875000Y-95925001D01*
G75*
G02*
X111625001Y-96175000I-249999J0D01*
G01*
G37*
G36*
G01*
X110325001Y-96175000D02*
X109774999Y-96175000D01*
G75*
G02*
X109525000Y-95925001I0J249999D01*
G01*
X109525000Y-95374999D01*
G75*
G02*
X109774999Y-95125000I249999J0D01*
G01*
X110325001Y-95125000D01*
G75*
G02*
X110575000Y-95374999I0J-249999D01*
G01*
X110575000Y-95925001D01*
G75*
G02*
X110325001Y-96175000I-249999J0D01*
G01*
G37*
G36*
G01*
X111625001Y-97475000D02*
X111074999Y-97475000D01*
G75*
G02*
X110825000Y-97225001I0J249999D01*
G01*
X110825000Y-96674999D01*
G75*
G02*
X111074999Y-96425000I249999J0D01*
G01*
X111625001Y-96425000D01*
G75*
G02*
X111875000Y-96674999I0J-249999D01*
G01*
X111875000Y-97225001D01*
G75*
G02*
X111625001Y-97475000I-249999J0D01*
G01*
G37*
G36*
G01*
X110325001Y-97475000D02*
X109774999Y-97475000D01*
G75*
G02*
X109525000Y-97225001I0J249999D01*
G01*
X109525000Y-96674999D01*
G75*
G02*
X109774999Y-96425000I249999J0D01*
G01*
X110325001Y-96425000D01*
G75*
G02*
X110575000Y-96674999I0J-249999D01*
G01*
X110575000Y-97225001D01*
G75*
G02*
X110325001Y-97475000I-249999J0D01*
G01*
G37*
G36*
G01*
X109112500Y-97675000D02*
X108412500Y-97675000D01*
G75*
G02*
X108350000Y-97612500I0J62500D01*
G01*
X108350000Y-97487500D01*
G75*
G02*
X108412500Y-97425000I62500J0D01*
G01*
X109112500Y-97425000D01*
G75*
G02*
X109175000Y-97487500I0J-62500D01*
G01*
X109175000Y-97612500D01*
G75*
G02*
X109112500Y-97675000I-62500J0D01*
G01*
G37*
G36*
G01*
X109112500Y-97175000D02*
X108412500Y-97175000D01*
G75*
G02*
X108350000Y-97112500I0J62500D01*
G01*
X108350000Y-96987500D01*
G75*
G02*
X108412500Y-96925000I62500J0D01*
G01*
X109112500Y-96925000D01*
G75*
G02*
X109175000Y-96987500I0J-62500D01*
G01*
X109175000Y-97112500D01*
G75*
G02*
X109112500Y-97175000I-62500J0D01*
G01*
G37*
G36*
G01*
X109112500Y-96675000D02*
X108412500Y-96675000D01*
G75*
G02*
X108350000Y-96612500I0J62500D01*
G01*
X108350000Y-96487500D01*
G75*
G02*
X108412500Y-96425000I62500J0D01*
G01*
X109112500Y-96425000D01*
G75*
G02*
X109175000Y-96487500I0J-62500D01*
G01*
X109175000Y-96612500D01*
G75*
G02*
X109112500Y-96675000I-62500J0D01*
G01*
G37*
G36*
G01*
X109112500Y-96175000D02*
X108412500Y-96175000D01*
G75*
G02*
X108350000Y-96112500I0J62500D01*
G01*
X108350000Y-95987500D01*
G75*
G02*
X108412500Y-95925000I62500J0D01*
G01*
X109112500Y-95925000D01*
G75*
G02*
X109175000Y-95987500I0J-62500D01*
G01*
X109175000Y-96112500D01*
G75*
G02*
X109112500Y-96175000I-62500J0D01*
G01*
G37*
G36*
G01*
X109112500Y-95675000D02*
X108412500Y-95675000D01*
G75*
G02*
X108350000Y-95612500I0J62500D01*
G01*
X108350000Y-95487500D01*
G75*
G02*
X108412500Y-95425000I62500J0D01*
G01*
X109112500Y-95425000D01*
G75*
G02*
X109175000Y-95487500I0J-62500D01*
G01*
X109175000Y-95612500D01*
G75*
G02*
X109112500Y-95675000I-62500J0D01*
G01*
G37*
G36*
G01*
X109112500Y-95175000D02*
X108412500Y-95175000D01*
G75*
G02*
X108350000Y-95112500I0J62500D01*
G01*
X108350000Y-94987500D01*
G75*
G02*
X108412500Y-94925000I62500J0D01*
G01*
X109112500Y-94925000D01*
G75*
G02*
X109175000Y-94987500I0J-62500D01*
G01*
X109175000Y-95112500D01*
G75*
G02*
X109112500Y-95175000I-62500J0D01*
G01*
G37*
G36*
G01*
X109512500Y-94775000D02*
X109387500Y-94775000D01*
G75*
G02*
X109325000Y-94712500I0J62500D01*
G01*
X109325000Y-94012500D01*
G75*
G02*
X109387500Y-93950000I62500J0D01*
G01*
X109512500Y-93950000D01*
G75*
G02*
X109575000Y-94012500I0J-62500D01*
G01*
X109575000Y-94712500D01*
G75*
G02*
X109512500Y-94775000I-62500J0D01*
G01*
G37*
G36*
G01*
X110012500Y-94775000D02*
X109887500Y-94775000D01*
G75*
G02*
X109825000Y-94712500I0J62500D01*
G01*
X109825000Y-94012500D01*
G75*
G02*
X109887500Y-93950000I62500J0D01*
G01*
X110012500Y-93950000D01*
G75*
G02*
X110075000Y-94012500I0J-62500D01*
G01*
X110075000Y-94712500D01*
G75*
G02*
X110012500Y-94775000I-62500J0D01*
G01*
G37*
G36*
G01*
X110512500Y-94775000D02*
X110387500Y-94775000D01*
G75*
G02*
X110325000Y-94712500I0J62500D01*
G01*
X110325000Y-94012500D01*
G75*
G02*
X110387500Y-93950000I62500J0D01*
G01*
X110512500Y-93950000D01*
G75*
G02*
X110575000Y-94012500I0J-62500D01*
G01*
X110575000Y-94712500D01*
G75*
G02*
X110512500Y-94775000I-62500J0D01*
G01*
G37*
G36*
G01*
X111012500Y-94775000D02*
X110887500Y-94775000D01*
G75*
G02*
X110825000Y-94712500I0J62500D01*
G01*
X110825000Y-94012500D01*
G75*
G02*
X110887500Y-93950000I62500J0D01*
G01*
X111012500Y-93950000D01*
G75*
G02*
X111075000Y-94012500I0J-62500D01*
G01*
X111075000Y-94712500D01*
G75*
G02*
X111012500Y-94775000I-62500J0D01*
G01*
G37*
G36*
G01*
X111512500Y-94775000D02*
X111387500Y-94775000D01*
G75*
G02*
X111325000Y-94712500I0J62500D01*
G01*
X111325000Y-94012500D01*
G75*
G02*
X111387500Y-93950000I62500J0D01*
G01*
X111512500Y-93950000D01*
G75*
G02*
X111575000Y-94012500I0J-62500D01*
G01*
X111575000Y-94712500D01*
G75*
G02*
X111512500Y-94775000I-62500J0D01*
G01*
G37*
G36*
G01*
X112012500Y-94775000D02*
X111887500Y-94775000D01*
G75*
G02*
X111825000Y-94712500I0J62500D01*
G01*
X111825000Y-94012500D01*
G75*
G02*
X111887500Y-93950000I62500J0D01*
G01*
X112012500Y-93950000D01*
G75*
G02*
X112075000Y-94012500I0J-62500D01*
G01*
X112075000Y-94712500D01*
G75*
G02*
X112012500Y-94775000I-62500J0D01*
G01*
G37*
G36*
G01*
X112987500Y-95175000D02*
X112287500Y-95175000D01*
G75*
G02*
X112225000Y-95112500I0J62500D01*
G01*
X112225000Y-94987500D01*
G75*
G02*
X112287500Y-94925000I62500J0D01*
G01*
X112987500Y-94925000D01*
G75*
G02*
X113050000Y-94987500I0J-62500D01*
G01*
X113050000Y-95112500D01*
G75*
G02*
X112987500Y-95175000I-62500J0D01*
G01*
G37*
G36*
G01*
X112987500Y-95675000D02*
X112287500Y-95675000D01*
G75*
G02*
X112225000Y-95612500I0J62500D01*
G01*
X112225000Y-95487500D01*
G75*
G02*
X112287500Y-95425000I62500J0D01*
G01*
X112987500Y-95425000D01*
G75*
G02*
X113050000Y-95487500I0J-62500D01*
G01*
X113050000Y-95612500D01*
G75*
G02*
X112987500Y-95675000I-62500J0D01*
G01*
G37*
G36*
G01*
X112987500Y-96175000D02*
X112287500Y-96175000D01*
G75*
G02*
X112225000Y-96112500I0J62500D01*
G01*
X112225000Y-95987500D01*
G75*
G02*
X112287500Y-95925000I62500J0D01*
G01*
X112987500Y-95925000D01*
G75*
G02*
X113050000Y-95987500I0J-62500D01*
G01*
X113050000Y-96112500D01*
G75*
G02*
X112987500Y-96175000I-62500J0D01*
G01*
G37*
G36*
G01*
X112987500Y-96675000D02*
X112287500Y-96675000D01*
G75*
G02*
X112225000Y-96612500I0J62500D01*
G01*
X112225000Y-96487500D01*
G75*
G02*
X112287500Y-96425000I62500J0D01*
G01*
X112987500Y-96425000D01*
G75*
G02*
X113050000Y-96487500I0J-62500D01*
G01*
X113050000Y-96612500D01*
G75*
G02*
X112987500Y-96675000I-62500J0D01*
G01*
G37*
G36*
G01*
X112987500Y-97175000D02*
X112287500Y-97175000D01*
G75*
G02*
X112225000Y-97112500I0J62500D01*
G01*
X112225000Y-96987500D01*
G75*
G02*
X112287500Y-96925000I62500J0D01*
G01*
X112987500Y-96925000D01*
G75*
G02*
X113050000Y-96987500I0J-62500D01*
G01*
X113050000Y-97112500D01*
G75*
G02*
X112987500Y-97175000I-62500J0D01*
G01*
G37*
G36*
G01*
X112987500Y-97675000D02*
X112287500Y-97675000D01*
G75*
G02*
X112225000Y-97612500I0J62500D01*
G01*
X112225000Y-97487500D01*
G75*
G02*
X112287500Y-97425000I62500J0D01*
G01*
X112987500Y-97425000D01*
G75*
G02*
X113050000Y-97487500I0J-62500D01*
G01*
X113050000Y-97612500D01*
G75*
G02*
X112987500Y-97675000I-62500J0D01*
G01*
G37*
G36*
G01*
X112012500Y-98650000D02*
X111887500Y-98650000D01*
G75*
G02*
X111825000Y-98587500I0J62500D01*
G01*
X111825000Y-97887500D01*
G75*
G02*
X111887500Y-97825000I62500J0D01*
G01*
X112012500Y-97825000D01*
G75*
G02*
X112075000Y-97887500I0J-62500D01*
G01*
X112075000Y-98587500D01*
G75*
G02*
X112012500Y-98650000I-62500J0D01*
G01*
G37*
G36*
G01*
X111512500Y-98650000D02*
X111387500Y-98650000D01*
G75*
G02*
X111325000Y-98587500I0J62500D01*
G01*
X111325000Y-97887500D01*
G75*
G02*
X111387500Y-97825000I62500J0D01*
G01*
X111512500Y-97825000D01*
G75*
G02*
X111575000Y-97887500I0J-62500D01*
G01*
X111575000Y-98587500D01*
G75*
G02*
X111512500Y-98650000I-62500J0D01*
G01*
G37*
G36*
G01*
X111012500Y-98650000D02*
X110887500Y-98650000D01*
G75*
G02*
X110825000Y-98587500I0J62500D01*
G01*
X110825000Y-97887500D01*
G75*
G02*
X110887500Y-97825000I62500J0D01*
G01*
X111012500Y-97825000D01*
G75*
G02*
X111075000Y-97887500I0J-62500D01*
G01*
X111075000Y-98587500D01*
G75*
G02*
X111012500Y-98650000I-62500J0D01*
G01*
G37*
G36*
G01*
X110512500Y-98650000D02*
X110387500Y-98650000D01*
G75*
G02*
X110325000Y-98587500I0J62500D01*
G01*
X110325000Y-97887500D01*
G75*
G02*
X110387500Y-97825000I62500J0D01*
G01*
X110512500Y-97825000D01*
G75*
G02*
X110575000Y-97887500I0J-62500D01*
G01*
X110575000Y-98587500D01*
G75*
G02*
X110512500Y-98650000I-62500J0D01*
G01*
G37*
G36*
G01*
X110012500Y-98650000D02*
X109887500Y-98650000D01*
G75*
G02*
X109825000Y-98587500I0J62500D01*
G01*
X109825000Y-97887500D01*
G75*
G02*
X109887500Y-97825000I62500J0D01*
G01*
X110012500Y-97825000D01*
G75*
G02*
X110075000Y-97887500I0J-62500D01*
G01*
X110075000Y-98587500D01*
G75*
G02*
X110012500Y-98650000I-62500J0D01*
G01*
G37*
G36*
G01*
X109512500Y-98650000D02*
X109387500Y-98650000D01*
G75*
G02*
X109325000Y-98587500I0J62500D01*
G01*
X109325000Y-97887500D01*
G75*
G02*
X109387500Y-97825000I62500J0D01*
G01*
X109512500Y-97825000D01*
G75*
G02*
X109575000Y-97887500I0J-62500D01*
G01*
X109575000Y-98587500D01*
G75*
G02*
X109512500Y-98650000I-62500J0D01*
G01*
G37*
G36*
G01*
X105662000Y-115372000D02*
X106002000Y-115372000D01*
G75*
G02*
X106142000Y-115512000I0J-140000D01*
G01*
X106142000Y-115792000D01*
G75*
G02*
X106002000Y-115932000I-140000J0D01*
G01*
X105662000Y-115932000D01*
G75*
G02*
X105522000Y-115792000I0J140000D01*
G01*
X105522000Y-115512000D01*
G75*
G02*
X105662000Y-115372000I140000J0D01*
G01*
G37*
G36*
G01*
X105662000Y-116332000D02*
X106002000Y-116332000D01*
G75*
G02*
X106142000Y-116472000I0J-140000D01*
G01*
X106142000Y-116752000D01*
G75*
G02*
X106002000Y-116892000I-140000J0D01*
G01*
X105662000Y-116892000D01*
G75*
G02*
X105522000Y-116752000I0J140000D01*
G01*
X105522000Y-116472000D01*
G75*
G02*
X105662000Y-116332000I140000J0D01*
G01*
G37*
G36*
G01*
X106430000Y-118532000D02*
X106770000Y-118532000D01*
G75*
G02*
X106910000Y-118672000I0J-140000D01*
G01*
X106910000Y-118952000D01*
G75*
G02*
X106770000Y-119092000I-140000J0D01*
G01*
X106430000Y-119092000D01*
G75*
G02*
X106290000Y-118952000I0J140000D01*
G01*
X106290000Y-118672000D01*
G75*
G02*
X106430000Y-118532000I140000J0D01*
G01*
G37*
G36*
G01*
X106430000Y-117572000D02*
X106770000Y-117572000D01*
G75*
G02*
X106910000Y-117712000I0J-140000D01*
G01*
X106910000Y-117992000D01*
G75*
G02*
X106770000Y-118132000I-140000J0D01*
G01*
X106430000Y-118132000D01*
G75*
G02*
X106290000Y-117992000I0J140000D01*
G01*
X106290000Y-117712000D01*
G75*
G02*
X106430000Y-117572000I140000J0D01*
G01*
G37*
G36*
G01*
X107162000Y-116332000D02*
X107502000Y-116332000D01*
G75*
G02*
X107642000Y-116472000I0J-140000D01*
G01*
X107642000Y-116752000D01*
G75*
G02*
X107502000Y-116892000I-140000J0D01*
G01*
X107162000Y-116892000D01*
G75*
G02*
X107022000Y-116752000I0J140000D01*
G01*
X107022000Y-116472000D01*
G75*
G02*
X107162000Y-116332000I140000J0D01*
G01*
G37*
G36*
G01*
X107162000Y-115372000D02*
X107502000Y-115372000D01*
G75*
G02*
X107642000Y-115512000I0J-140000D01*
G01*
X107642000Y-115792000D01*
G75*
G02*
X107502000Y-115932000I-140000J0D01*
G01*
X107162000Y-115932000D01*
G75*
G02*
X107022000Y-115792000I0J140000D01*
G01*
X107022000Y-115512000D01*
G75*
G02*
X107162000Y-115372000I140000J0D01*
G01*
G37*
G36*
G01*
X104000000Y-120170000D02*
X104000000Y-119830000D01*
G75*
G02*
X104140000Y-119690000I140000J0D01*
G01*
X104420000Y-119690000D01*
G75*
G02*
X104560000Y-119830000I0J-140000D01*
G01*
X104560000Y-120170000D01*
G75*
G02*
X104420000Y-120310000I-140000J0D01*
G01*
X104140000Y-120310000D01*
G75*
G02*
X104000000Y-120170000I0J140000D01*
G01*
G37*
G36*
G01*
X103040000Y-120170000D02*
X103040000Y-119830000D01*
G75*
G02*
X103180000Y-119690000I140000J0D01*
G01*
X103460000Y-119690000D01*
G75*
G02*
X103600000Y-119830000I0J-140000D01*
G01*
X103600000Y-120170000D01*
G75*
G02*
X103460000Y-120310000I-140000J0D01*
G01*
X103180000Y-120310000D01*
G75*
G02*
X103040000Y-120170000I0J140000D01*
G01*
G37*
G36*
G01*
X112530000Y-110720000D02*
X112870000Y-110720000D01*
G75*
G02*
X113010000Y-110860000I0J-140000D01*
G01*
X113010000Y-111140000D01*
G75*
G02*
X112870000Y-111280000I-140000J0D01*
G01*
X112530000Y-111280000D01*
G75*
G02*
X112390000Y-111140000I0J140000D01*
G01*
X112390000Y-110860000D01*
G75*
G02*
X112530000Y-110720000I140000J0D01*
G01*
G37*
G36*
G01*
X112530000Y-111680000D02*
X112870000Y-111680000D01*
G75*
G02*
X113010000Y-111820000I0J-140000D01*
G01*
X113010000Y-112100000D01*
G75*
G02*
X112870000Y-112240000I-140000J0D01*
G01*
X112530000Y-112240000D01*
G75*
G02*
X112390000Y-112100000I0J140000D01*
G01*
X112390000Y-111820000D01*
G75*
G02*
X112530000Y-111680000I140000J0D01*
G01*
G37*
G36*
G01*
X101900000Y-98770000D02*
X101900000Y-98430000D01*
G75*
G02*
X102040000Y-98290000I140000J0D01*
G01*
X102320000Y-98290000D01*
G75*
G02*
X102460000Y-98430000I0J-140000D01*
G01*
X102460000Y-98770000D01*
G75*
G02*
X102320000Y-98910000I-140000J0D01*
G01*
X102040000Y-98910000D01*
G75*
G02*
X101900000Y-98770000I0J140000D01*
G01*
G37*
G36*
G01*
X100940000Y-98770000D02*
X100940000Y-98430000D01*
G75*
G02*
X101080000Y-98290000I140000J0D01*
G01*
X101360000Y-98290000D01*
G75*
G02*
X101500000Y-98430000I0J-140000D01*
G01*
X101500000Y-98770000D01*
G75*
G02*
X101360000Y-98910000I-140000J0D01*
G01*
X101080000Y-98910000D01*
G75*
G02*
X100940000Y-98770000I0J140000D01*
G01*
G37*
G36*
G01*
X115372000Y-96138000D02*
X115372000Y-95798000D01*
G75*
G02*
X115512000Y-95658000I140000J0D01*
G01*
X115792000Y-95658000D01*
G75*
G02*
X115932000Y-95798000I0J-140000D01*
G01*
X115932000Y-96138000D01*
G75*
G02*
X115792000Y-96278000I-140000J0D01*
G01*
X115512000Y-96278000D01*
G75*
G02*
X115372000Y-96138000I0J140000D01*
G01*
G37*
G36*
G01*
X116332000Y-96138000D02*
X116332000Y-95798000D01*
G75*
G02*
X116472000Y-95658000I140000J0D01*
G01*
X116752000Y-95658000D01*
G75*
G02*
X116892000Y-95798000I0J-140000D01*
G01*
X116892000Y-96138000D01*
G75*
G02*
X116752000Y-96278000I-140000J0D01*
G01*
X116472000Y-96278000D01*
G75*
G02*
X116332000Y-96138000I0J140000D01*
G01*
G37*
G36*
G01*
X115372000Y-97138000D02*
X115372000Y-96798000D01*
G75*
G02*
X115512000Y-96658000I140000J0D01*
G01*
X115792000Y-96658000D01*
G75*
G02*
X115932000Y-96798000I0J-140000D01*
G01*
X115932000Y-97138000D01*
G75*
G02*
X115792000Y-97278000I-140000J0D01*
G01*
X115512000Y-97278000D01*
G75*
G02*
X115372000Y-97138000I0J140000D01*
G01*
G37*
G36*
G01*
X116332000Y-97138000D02*
X116332000Y-96798000D01*
G75*
G02*
X116472000Y-96658000I140000J0D01*
G01*
X116752000Y-96658000D01*
G75*
G02*
X116892000Y-96798000I0J-140000D01*
G01*
X116892000Y-97138000D01*
G75*
G02*
X116752000Y-97278000I-140000J0D01*
G01*
X116472000Y-97278000D01*
G75*
G02*
X116332000Y-97138000I0J140000D01*
G01*
G37*
G36*
G01*
X114170000Y-92400000D02*
X113830000Y-92400000D01*
G75*
G02*
X113690000Y-92260000I0J140000D01*
G01*
X113690000Y-91980000D01*
G75*
G02*
X113830000Y-91840000I140000J0D01*
G01*
X114170000Y-91840000D01*
G75*
G02*
X114310000Y-91980000I0J-140000D01*
G01*
X114310000Y-92260000D01*
G75*
G02*
X114170000Y-92400000I-140000J0D01*
G01*
G37*
G36*
G01*
X114170000Y-93360000D02*
X113830000Y-93360000D01*
G75*
G02*
X113690000Y-93220000I0J140000D01*
G01*
X113690000Y-92940000D01*
G75*
G02*
X113830000Y-92800000I140000J0D01*
G01*
X114170000Y-92800000D01*
G75*
G02*
X114310000Y-92940000I0J-140000D01*
G01*
X114310000Y-93220000D01*
G75*
G02*
X114170000Y-93360000I-140000J0D01*
G01*
G37*
G36*
G01*
X115372000Y-94142000D02*
X115372000Y-93802000D01*
G75*
G02*
X115512000Y-93662000I140000J0D01*
G01*
X115792000Y-93662000D01*
G75*
G02*
X115932000Y-93802000I0J-140000D01*
G01*
X115932000Y-94142000D01*
G75*
G02*
X115792000Y-94282000I-140000J0D01*
G01*
X115512000Y-94282000D01*
G75*
G02*
X115372000Y-94142000I0J140000D01*
G01*
G37*
G36*
G01*
X116332000Y-94142000D02*
X116332000Y-93802000D01*
G75*
G02*
X116472000Y-93662000I140000J0D01*
G01*
X116752000Y-93662000D01*
G75*
G02*
X116892000Y-93802000I0J-140000D01*
G01*
X116892000Y-94142000D01*
G75*
G02*
X116752000Y-94282000I-140000J0D01*
G01*
X116472000Y-94282000D01*
G75*
G02*
X116332000Y-94142000I0J140000D01*
G01*
G37*
G36*
G01*
X115372000Y-93142000D02*
X115372000Y-92802000D01*
G75*
G02*
X115512000Y-92662000I140000J0D01*
G01*
X115792000Y-92662000D01*
G75*
G02*
X115932000Y-92802000I0J-140000D01*
G01*
X115932000Y-93142000D01*
G75*
G02*
X115792000Y-93282000I-140000J0D01*
G01*
X115512000Y-93282000D01*
G75*
G02*
X115372000Y-93142000I0J140000D01*
G01*
G37*
G36*
G01*
X116332000Y-93142000D02*
X116332000Y-92802000D01*
G75*
G02*
X116472000Y-92662000I140000J0D01*
G01*
X116752000Y-92662000D01*
G75*
G02*
X116892000Y-92802000I0J-140000D01*
G01*
X116892000Y-93142000D01*
G75*
G02*
X116752000Y-93282000I-140000J0D01*
G01*
X116472000Y-93282000D01*
G75*
G02*
X116332000Y-93142000I0J140000D01*
G01*
G37*
G36*
G01*
X104532000Y-92002000D02*
X104532000Y-91662000D01*
G75*
G02*
X104672000Y-91522000I140000J0D01*
G01*
X104952000Y-91522000D01*
G75*
G02*
X105092000Y-91662000I0J-140000D01*
G01*
X105092000Y-92002000D01*
G75*
G02*
X104952000Y-92142000I-140000J0D01*
G01*
X104672000Y-92142000D01*
G75*
G02*
X104532000Y-92002000I0J140000D01*
G01*
G37*
G36*
G01*
X103572000Y-92002000D02*
X103572000Y-91662000D01*
G75*
G02*
X103712000Y-91522000I140000J0D01*
G01*
X103992000Y-91522000D01*
G75*
G02*
X104132000Y-91662000I0J-140000D01*
G01*
X104132000Y-92002000D01*
G75*
G02*
X103992000Y-92142000I-140000J0D01*
G01*
X103712000Y-92142000D01*
G75*
G02*
X103572000Y-92002000I0J140000D01*
G01*
G37*
G36*
G01*
X104132000Y-98462000D02*
X104132000Y-98802000D01*
G75*
G02*
X103992000Y-98942000I-140000J0D01*
G01*
X103712000Y-98942000D01*
G75*
G02*
X103572000Y-98802000I0J140000D01*
G01*
X103572000Y-98462000D01*
G75*
G02*
X103712000Y-98322000I140000J0D01*
G01*
X103992000Y-98322000D01*
G75*
G02*
X104132000Y-98462000I0J-140000D01*
G01*
G37*
G36*
G01*
X105092000Y-98462000D02*
X105092000Y-98802000D01*
G75*
G02*
X104952000Y-98942000I-140000J0D01*
G01*
X104672000Y-98942000D01*
G75*
G02*
X104532000Y-98802000I0J140000D01*
G01*
X104532000Y-98462000D01*
G75*
G02*
X104672000Y-98322000I140000J0D01*
G01*
X104952000Y-98322000D01*
G75*
G02*
X105092000Y-98462000I0J-140000D01*
G01*
G37*
G36*
G01*
X98580000Y-92015000D02*
X98580000Y-92385000D01*
G75*
G02*
X98445000Y-92520000I-135000J0D01*
G01*
X98175000Y-92520000D01*
G75*
G02*
X98040000Y-92385000I0J135000D01*
G01*
X98040000Y-92015000D01*
G75*
G02*
X98175000Y-91880000I135000J0D01*
G01*
X98445000Y-91880000D01*
G75*
G02*
X98580000Y-92015000I0J-135000D01*
G01*
G37*
G36*
G01*
X97560000Y-92015000D02*
X97560000Y-92385000D01*
G75*
G02*
X97425000Y-92520000I-135000J0D01*
G01*
X97155000Y-92520000D01*
G75*
G02*
X97020000Y-92385000I0J135000D01*
G01*
X97020000Y-92015000D01*
G75*
G02*
X97155000Y-91880000I135000J0D01*
G01*
X97425000Y-91880000D01*
G75*
G02*
X97560000Y-92015000I0J-135000D01*
G01*
G37*
G36*
G01*
X97560000Y-93515000D02*
X97560000Y-93885000D01*
G75*
G02*
X97425000Y-94020000I-135000J0D01*
G01*
X97155000Y-94020000D01*
G75*
G02*
X97020000Y-93885000I0J135000D01*
G01*
X97020000Y-93515000D01*
G75*
G02*
X97155000Y-93380000I135000J0D01*
G01*
X97425000Y-93380000D01*
G75*
G02*
X97560000Y-93515000I0J-135000D01*
G01*
G37*
G36*
G01*
X98580000Y-93515000D02*
X98580000Y-93885000D01*
G75*
G02*
X98445000Y-94020000I-135000J0D01*
G01*
X98175000Y-94020000D01*
G75*
G02*
X98040000Y-93885000I0J135000D01*
G01*
X98040000Y-93515000D01*
G75*
G02*
X98175000Y-93380000I135000J0D01*
G01*
X98445000Y-93380000D01*
G75*
G02*
X98580000Y-93515000I0J-135000D01*
G01*
G37*
G36*
G01*
X105647000Y-113152000D02*
X106017000Y-113152000D01*
G75*
G02*
X106152000Y-113287000I0J-135000D01*
G01*
X106152000Y-113557000D01*
G75*
G02*
X106017000Y-113692000I-135000J0D01*
G01*
X105647000Y-113692000D01*
G75*
G02*
X105512000Y-113557000I0J135000D01*
G01*
X105512000Y-113287000D01*
G75*
G02*
X105647000Y-113152000I135000J0D01*
G01*
G37*
G36*
G01*
X105647000Y-114172000D02*
X106017000Y-114172000D01*
G75*
G02*
X106152000Y-114307000I0J-135000D01*
G01*
X106152000Y-114577000D01*
G75*
G02*
X106017000Y-114712000I-135000J0D01*
G01*
X105647000Y-114712000D01*
G75*
G02*
X105512000Y-114577000I0J135000D01*
G01*
X105512000Y-114307000D01*
G75*
G02*
X105647000Y-114172000I135000J0D01*
G01*
G37*
G36*
G01*
X107147000Y-113152000D02*
X107517000Y-113152000D01*
G75*
G02*
X107652000Y-113287000I0J-135000D01*
G01*
X107652000Y-113557000D01*
G75*
G02*
X107517000Y-113692000I-135000J0D01*
G01*
X107147000Y-113692000D01*
G75*
G02*
X107012000Y-113557000I0J135000D01*
G01*
X107012000Y-113287000D01*
G75*
G02*
X107147000Y-113152000I135000J0D01*
G01*
G37*
G36*
G01*
X107147000Y-114172000D02*
X107517000Y-114172000D01*
G75*
G02*
X107652000Y-114307000I0J-135000D01*
G01*
X107652000Y-114577000D01*
G75*
G02*
X107517000Y-114712000I-135000J0D01*
G01*
X107147000Y-114712000D01*
G75*
G02*
X107012000Y-114577000I0J135000D01*
G01*
X107012000Y-114307000D01*
G75*
G02*
X107147000Y-114172000I135000J0D01*
G01*
G37*
G36*
G01*
X140147000Y-116720000D02*
X140517000Y-116720000D01*
G75*
G02*
X140652000Y-116855000I0J-135000D01*
G01*
X140652000Y-117125000D01*
G75*
G02*
X140517000Y-117260000I-135000J0D01*
G01*
X140147000Y-117260000D01*
G75*
G02*
X140012000Y-117125000I0J135000D01*
G01*
X140012000Y-116855000D01*
G75*
G02*
X140147000Y-116720000I135000J0D01*
G01*
G37*
G36*
G01*
X140147000Y-117740000D02*
X140517000Y-117740000D01*
G75*
G02*
X140652000Y-117875000I0J-135000D01*
G01*
X140652000Y-118145000D01*
G75*
G02*
X140517000Y-118280000I-135000J0D01*
G01*
X140147000Y-118280000D01*
G75*
G02*
X140012000Y-118145000I0J135000D01*
G01*
X140012000Y-117875000D01*
G75*
G02*
X140147000Y-117740000I135000J0D01*
G01*
G37*
G36*
G01*
X112260000Y-92215000D02*
X112260000Y-92585000D01*
G75*
G02*
X112125000Y-92720000I-135000J0D01*
G01*
X111855000Y-92720000D01*
G75*
G02*
X111720000Y-92585000I0J135000D01*
G01*
X111720000Y-92215000D01*
G75*
G02*
X111855000Y-92080000I135000J0D01*
G01*
X112125000Y-92080000D01*
G75*
G02*
X112260000Y-92215000I0J-135000D01*
G01*
G37*
G36*
G01*
X113280000Y-92215000D02*
X113280000Y-92585000D01*
G75*
G02*
X113145000Y-92720000I-135000J0D01*
G01*
X112875000Y-92720000D01*
G75*
G02*
X112740000Y-92585000I0J135000D01*
G01*
X112740000Y-92215000D01*
G75*
G02*
X112875000Y-92080000I135000J0D01*
G01*
X113145000Y-92080000D01*
G75*
G02*
X113280000Y-92215000I0J-135000D01*
G01*
G37*
G36*
G01*
X166085000Y-100270000D02*
X165715000Y-100270000D01*
G75*
G02*
X165580000Y-100135000I0J135000D01*
G01*
X165580000Y-99865000D01*
G75*
G02*
X165715000Y-99730000I135000J0D01*
G01*
X166085000Y-99730000D01*
G75*
G02*
X166220000Y-99865000I0J-135000D01*
G01*
X166220000Y-100135000D01*
G75*
G02*
X166085000Y-100270000I-135000J0D01*
G01*
G37*
G36*
G01*
X166085000Y-99250000D02*
X165715000Y-99250000D01*
G75*
G02*
X165580000Y-99115000I0J135000D01*
G01*
X165580000Y-98845000D01*
G75*
G02*
X165715000Y-98710000I135000J0D01*
G01*
X166085000Y-98710000D01*
G75*
G02*
X166220000Y-98845000I0J-135000D01*
G01*
X166220000Y-99115000D01*
G75*
G02*
X166085000Y-99250000I-135000J0D01*
G01*
G37*
G36*
G01*
X170017000Y-114150000D02*
X169647000Y-114150000D01*
G75*
G02*
X169512000Y-114015000I0J135000D01*
G01*
X169512000Y-113745000D01*
G75*
G02*
X169647000Y-113610000I135000J0D01*
G01*
X170017000Y-113610000D01*
G75*
G02*
X170152000Y-113745000I0J-135000D01*
G01*
X170152000Y-114015000D01*
G75*
G02*
X170017000Y-114150000I-135000J0D01*
G01*
G37*
G36*
G01*
X170017000Y-115170000D02*
X169647000Y-115170000D01*
G75*
G02*
X169512000Y-115035000I0J135000D01*
G01*
X169512000Y-114765000D01*
G75*
G02*
X169647000Y-114630000I135000J0D01*
G01*
X170017000Y-114630000D01*
G75*
G02*
X170152000Y-114765000I0J-135000D01*
G01*
X170152000Y-115035000D01*
G75*
G02*
X170017000Y-115170000I-135000J0D01*
G01*
G37*
D12*
X136850000Y-113100000D03*
X126750000Y-113100000D03*
M02*
